<?xml version="1.0" encoding="UTF-8" standalone="no"?>
<svg
   xmlns:dc="http://purl.org/dc/elements/1.1/"
   xmlns:cc="http://creativecommons.org/ns#"
   xmlns:rdf="http://www.w3.org/1999/02/22-rdf-syntax-ns#"
   xmlns:svg="http://www.w3.org/2000/svg"
   xmlns="http://www.w3.org/2000/svg"
   xmlns:sodipodi="http://sodipodi.sourceforge.net/DTD/sodipodi-0.dtd"
   xmlns:inkscape="http://www.inkscape.org/namespaces/inkscape"
   width="100"
   height="100"
   viewBox="0 0 333.33269 333.33269"
   id="svg2"
   version="1.1"
   inkscape:version="0.91 r13725"
   sodipodi:docname="2foe.svg">
  <metadata
     id="metadata9">
    <rdf:RDF>
      <cc:Work
         rdf:about="">
        <dc:format>image/svg+xml</dc:format>
        <dc:type
           rdf:resource="http://purl.org/dc/dcmitype/StillImage" />
        <dc:title></dc:title>
      </cc:Work>
    </rdf:RDF>
  </metadata>
  <defs
     id="defs7" />
  <sodipodi:namedview
     pagecolor="#ffffff"
     bordercolor="#666666"
     borderopacity="1"
     objecttolerance="10"
     gridtolerance="10"
     guidetolerance="10"
     inkscape:pageopacity="0"
     inkscape:pageshadow="2"
     inkscape:window-width="1218"
     inkscape:window-height="697"
     id="namedview5"
     showgrid="false"
     units="px"
     inkscape:zoom="1.5733302"
     inkscape:cx="75.000148"
     inkscape:cy="75.000148"
     inkscape:window-x="54"
     inkscape:window-y="-8"
     inkscape:window-maximized="1"
     inkscape:current-layer="svg2" />
  <path
     id="Selection #24"
     d="m 78.977424,50.316522 c 4.269545,-3.854748 9.547475,-3.168188 12.286564,-6.200495 1.981011,-2.195562 4.791616,-10.241188 13.323552,-17.099637 16.68484,-13.416527 42.82418,-13.766959 60.074,-1.180025 9.37584,6.844146 12.79433,16.105555 14.75389,18.279662 2.73909,3.032307 8.01702,2.345747 12.28657,6.200495 4.65573,4.198029 3.42564,10.584465 4.42688,16.169917 0,0 -9.29717,-0.68656 -9.29717,-0.68656 0,0 -9.29717,0 -9.29717,0 -1.65203,12.229351 -7.28755,22.756605 -17.87916,29.615053 -5.9931,3.883356 -13.00173,5.621208 -20.02467,6.171888 -16.04834,1.26585 -31.25278,-3.847596 -40.371159,-17.93638 -3.34698,-5.163503 -5.299385,-11.814554 -6.114675,-17.850561 0,0 -9.297167,0 -9.297167,0 0,0 -9.297167,0.68656 -9.297167,0.68656 1.001233,-5.585452 -0.228854,-11.971888 4.426882,-16.169917 z M 132.47904,30.728106 c -10.73465,0.12873 -19.33095,5.892974 -23.6005,15.733668 9.69051,-1.494699 7.80962,-3.389891 22.88533,-4.498399 0,0 5.00617,0 5.00617,0 18.97337,1.065598 15.26166,2.989397 25.03084,4.498399 C 155.94366,32.959426 145.8026,30.570769 132.47904,30.728106 Z m -21.4836,45.770667 c 6.6725,10.248339 16.0984,11.571397 27.20493,11.442667 4.9132,-0.05721 9.34723,-1.308755 13.58817,-3.826141 5.48533,-3.261161 9.32578,-8.710731 11.128,-14.768193 0.46485,-1.551912 1.29445,-4.619977 0.60789,-6.13613 -0.77238,-1.723552 -4.30531,-2.631814 -6.01455,-3.30407 -5.92874,-2.331442 -10.65599,-4.069297 -17.16401,-4.147965 -5.97164,-0.06437 -12.02195,-0.307522 -17.87916,1.07275 0,0 -15.73367,5.363748 -15.73367,5.363748 0.11443,5.142049 1.43749,9.955121 4.2624,14.303334 z M 48.89036,236.69612 c -3.60444,4.88458 -7.781013,10.89198 -14.389154,11.37115 -7.201728,0.52922 -14.582249,-6.14329 -16.591867,-12.80149 -0.615044,-2.02392 -0.607892,-4.33391 -0.564982,-6.4365 0.207398,-8.86806 8.331692,-27.46955 11.664369,-36.4735 0,0 10.913444,-27.17633 10.913444,-27.17633 8.66782,-20.65402 19.252288,-49.03183 42.495205,-56.67697 5.356599,-1.76646 11.535639,-2.67472 17.164001,-2.76769 0,0 40.049334,0 40.049334,0 0,0 25.746,0 25.746,0 0,0 9.29717,0 9.29717,0 9.99803,0.13588 20.09618,3.38274 27.8915,9.71911 5.87867,4.77732 11.34254,12.38669 15.11147,18.97338 0,0 8.38175,17.164 8.38175,17.164 0.95833,2.23847 2.43872,6.65105 4.54846,7.91689 2.19557,1.15857 4.33391,-0.27176 8.43182,0 7.55216,0.70087 14.87547,1.6878 22.17017,3.82615 26.1894,7.68804 46.62887,30.53046 52.75785,56.91296 8.24587,35.51518 -9.07547,72.43209 -42.03035,88.49473 -9.56178,4.66289 -18.80173,6.66535 -29.32184,7.40197 0,0 -5.00616,0.52208 -5.00616,0.52208 -4.64859,0 -14.76104,-1.34452 -19.3095,-2.53885 -11.82171,-3.11812 -23.88657,-9.06831 -32.89767,-17.42146 -2.73909,-2.53884 -6.51517,-6.33637 -8.81801,-9.2328 -1.41603,-1.77361 -3.74747,-5.37805 -5.60691,-6.4222 -1.57336,-0.87965 -3.84044,-0.72947 -5.59975,-0.72947 0,0 -17.164,0.71517 -17.164,0.71517 0,0 -25.746,0 -25.746,0 0,0 -8.582,-0.68656 -8.582,-0.68656 0,0 -10.7275,0 -10.7275,0 -7.609374,-0.0429 -20.153398,-1.38742 -25.509997,-7.25179 -5.478176,-5.9931 -4.612825,-13.88854 -4.527005,-21.38348 0,0 1.430334,-18.59434 1.430334,-18.59434 0,0 0,-11.44266 0,-11.44266 0.0143,-7.13022 1.945253,-16.74921 0,-23.60051 0,0 -25.660182,38.61901 -25.660182,38.61901 z m 161.76355,-85.82001 c -4.9561,-10.70604 -12.30802,-24.43724 -23.8222,-28.99286 -8.82516,-3.49001 -21.21184,-2.47447 -30.75217,-2.47447 0,0 -10.01233,0 -10.01233,0 0,0 -12.15784,0.71516 -12.15784,0.71516 0,0 -10.01233,-0.71516 -10.01233,-0.71516 0,0 -22.88533,0 -22.88533,0 -5.928732,0.007 -13.345011,1.07275 -18.594335,3.94772 -6.77978,3.70456 -11.19951,9.62614 -15.154382,16.07694 -6.672505,10.89199 -11.578549,23.20001 -16.312953,35.04317 0,0 -16.86363,42.91 -16.86363,42.91 -1.079902,2.90358 -3.754626,10.72751 -2.724785,13.55957 0.55783,1.51615 1.2873,1.91664 2.424415,2.88927 0,0 20.024667,-28.60667 20.024667,-28.60667 0,0 11.921829,-17.87917 11.921829,-17.87917 2.853515,-4.28385 8.868067,-14.71098 12.458204,-17.47152 4.534157,-3.49001 9.940817,-1.47324 11.628611,3.88336 0.536375,1.7164 0.464858,3.91911 0.464858,5.72133 0,0 -1.430333,23.6005 -1.430333,23.6005 0,0 0,13.58817 0,13.58817 0,0 -0.68656,8.582 -0.68656,8.582 0,0 0,8.582 0,8.582 0,0 -1.45894,19.3095 -1.45894,19.3095 -0.02146,2.3529 -0.336129,7.9455 0.836745,9.81209 2.095438,3.33267 13.924299,3.76893 17.757589,3.77608 0,0 59.35883,0 59.35883,0 -2.1455,-6.45081 -3.96917,-12.52972 -4.79877,-19.3095 -2.28138,-18.47991 2.58176,-38.46882 13.48805,-53.63751 1.51615,-2.10259 5.93588,-7.38052 6.62244,-9.29716 0.92257,-2.60321 -0.093,-7.61653 0.88681,-10.7275 2.28853,-7.25895 9.29001,-7.18743 13.83847,-1.43034 0,0 7.86684,-4.0979 7.86684,-4.0979 0,0 12.873,-5.19926 12.873,-5.19926 -0.87966,-4.84883 -2.77485,-7.80962 -4.78447,-12.15784 z m 0.49347,28.1132 c -21.16178,9.54033 -37.86808,31.89644 -37.90384,55.56131 -0.0214,11.6 0.11443,17.50013 4.61283,28.60666 8.46757,20.90433 31.70334,39.06241 54.74601,39.33417 13.24489,0.15019 22.17017,-0.38619 34.328,-6.62244 7.64513,-3.91911 14.94699,-9.62614 20.41086,-16.26289 25.36696,-30.82369 17.27127,-77.6242 -17.55019,-97.67032 -12.50112,-7.20173 -26.52554,-9.31862 -40.7645,-7.96696 -6.10038,1.00839 -12.21505,2.46733 -17.87917,5.02047 z m 0,29.8153 c 0,-1.58051 -0.15734,-4.0836 0.72947,-5.42096 1.46609,-2.20986 8.76794,-3.8762 11.42836,-4.44118 10.67029,-2.26708 25.99631,-2.25278 33.99188,6.41504 3.52577,3.81899 4.87028,7.73095 5.53539,12.74427 2.25992,17.07818 -11.17806,29.32899 -22.36327,40.02073 0,0 -8.582,7.69519 -8.582,7.69519 0,0 -10.7275,9.49742 -10.7275,9.49742 0,0 45.77067,0 45.77067,0 0,0 0,10.01233 0,10.01233 0,0 -57.9285,0 -57.9285,0 0,0 0,-6.4365 0,-6.4365 0,-1.42318 -0.0858,-3.64735 0.4291,-4.9418 1.03699,-2.63181 9.84069,-9.44735 12.4439,-11.70728 7.97411,-6.92996 23.03552,-20.66117 27.62689,-29.83675 5.97164,-11.94329 1.33021,-24.85205 -13.32356,-25.03084 -11.21381,-0.12873 -15.34747,2.49593 -25.03083,7.15167 0,0 0,-5.72134 0,-5.72134 z"
     inkscape:connector-curvature="0"
     style="fill:#000000;fill-opacity:1;stroke:none;stroke-width:1" />
</svg>
