<?xml version="1.0" encoding="UTF-8" standalone="no"?>
<svg
   xmlns:dc="http://purl.org/dc/elements/1.1/"
   xmlns:cc="http://creativecommons.org/ns#"
   xmlns:rdf="http://www.w3.org/1999/02/22-rdf-syntax-ns#"
   xmlns:svg="http://www.w3.org/2000/svg"
   xmlns="http://www.w3.org/2000/svg"
   xmlns:sodipodi="http://sodipodi.sourceforge.net/DTD/sodipodi-0.dtd"
   xmlns:inkscape="http://www.inkscape.org/namespaces/inkscape"
   width="100"
   height="100"
   viewBox="0 0 333.33269 333.33269"
   id="svg2"
   version="1.1"
   inkscape:version="0.91 r13725"
   sodipodi:docname="2trap.svg">
  <metadata
     id="metadata9">
    <rdf:RDF>
      <cc:Work
         rdf:about="">
        <dc:format>image/svg+xml</dc:format>
        <dc:type
           rdf:resource="http://purl.org/dc/dcmitype/StillImage" />
        <dc:title></dc:title>
      </cc:Work>
    </rdf:RDF>
  </metadata>
  <defs
     id="defs7" />
  <sodipodi:namedview
     pagecolor="#ffffff"
     bordercolor="#666666"
     borderopacity="1"
     objecttolerance="10"
     gridtolerance="10"
     guidetolerance="10"
     inkscape:pageopacity="0"
     inkscape:pageshadow="2"
     inkscape:window-width="1218"
     inkscape:window-height="697"
     id="namedview5"
     showgrid="false"
     units="px"
     inkscape:zoom="1.5733302"
     inkscape:cx="75.000148"
     inkscape:cy="75.000148"
     inkscape:window-x="54"
     inkscape:window-y="-8"
     inkscape:window-maximized="1"
     inkscape:current-layer="svg2" />
  <path
     id="Selection #17"
     d="m 134.49879,182.91367 c 0,0 -9.12249,0 -9.12249,0 0,0 -6.08166,0.66898 -6.08166,0.66898 0,0 -8.36228,-0.69939 -8.36228,-0.69939 -22.806227,-0.26607 -47.832255,-3.96068 -68.418672,-14.25389 -16.329256,-8.17223 -25.816644,-16.91461 -25.847053,-35.9198 0,0 0,-65.37784 0,-65.37784 0.02281,-16.701757 7.488044,-22.874642 21.285808,-30.727582 16.352062,-9.304939 41.385693,-15.652671 60.056387,-18.359009 31.06968,-4.508031 66.46494,1.756079 95.02593,14.649196 10.02714,4.523235 22.98867,11.425916 27.16221,22.274076 1.43679,3.732618 1.71807,8.202638 1.72567,12.163319 0,0 0,49.41349 0,49.41349 0,12.87031 1.36077,22.0232 -3.80104,34.20933 0,0 15.20415,-1.4596 15.20415,-1.4596 0,0 6.08166,0.63097 6.08166,0.63097 18.03972,1.32276 35.03796,7.80733 48.65328,19.96305 27.47389,24.5395 36.58878,64.25273 21.05014,97.93752 -4.394,9.5254 -10.58209,17.74324 -18.00931,25.08685 -6.5834,6.49977 -14.39073,11.87444 -22.80623,15.72869 -9.83708,4.50803 -18.95197,6.40095 -29.64809,7.14595 0,0 -5.32145,0.55495 -5.32145,0.55495 0,0 -5.32145,-0.55495 -5.32145,-0.55495 -8.14942,-0.57016 -12.63465,-1.25434 -20.5256,-3.6566 -7.63248,-2.32623 -16.32165,-6.91789 -22.80622,-11.54755 -40.72431,-29.05513 -45.7949,-85.84262 -13.68374,-123.22202 -11.88964,2.38705 -24.31903,5.17701 -36.48995,5.35186 z M 132.21817,39.204057 c 0,0 -25.84706,0 -25.84706,0 0,0 -26.607258,3.04083 -26.607258,3.04083 0,0 0,1.520412 0,1.520412 0,0 26.607258,3.04083 26.607258,3.04083 0,0 25.84706,0 25.84706,0 0,0 26.60726,-3.04083 26.60726,-3.04083 0,0 0,-1.520412 0,-1.520412 0,0 -26.60726,-3.04083 -26.60726,-3.04083 z M 44.79431,49.413641 c -3.831445,2.189397 -11.349897,6.651815 -12.520616,11.076222 -1.140311,4.295172 2.683532,7.396818 5.678749,9.700247 7.092736,5.435483 18.092937,10.011931 26.60726,12.855107 34.483009,11.494336 65.332227,12.710668 100.347377,2.751951 11.10664,-3.154861 23.83251,-7.526053 33.44913,-13.972612 3.55017,-2.37945 9.28213,-6.347732 7.95937,-11.334693 -1.13271,-4.272366 -8.0886,-8.483915 -11.76041,-10.635302 -3.72501,-2.181795 -6.40854,-3.572975 -10.6429,-4.568847 0,0 0,11.403112 0,11.403112 -0.15964,13.584906 -8.86402,16.56492 -20.5256,19.484116 -9.71545,2.425062 -22.68459,4.06711 -32.68892,4.082314 0,0 -11.40311,0.752605 -11.40311,0.752605 0,0 -13.68374,-0.752605 -13.68374,-0.752605 -9.183302,-0.0152 -26.211948,-2.561899 -34.969537,-5.344258 -4.50803,-1.42919 -10.323617,-3.763027 -13.250416,-7.609677 -2.645522,-3.48175 -2.706338,-7.959371 -2.71394,-12.13291 0,0 0,-9.882697 0,-9.882697 -3.953079,0.927453 -6.370539,2.120979 -9.882697,4.127927 z m 84.38303,11.836429 c 0,0 -10.64291,0.745004 -10.64291,0.745004 0,0 -10.6429,-0.745004 -10.6429,-0.745004 -14.101851,-0.02281 -24.478683,-2.599909 -38.010375,-5.321452 0,0 0,3.801037 0,3.801037 0,0 17.484771,4.234356 17.484771,4.234356 14.740424,2.470674 42.890904,2.67593 57.775764,0.874238 0,0 15.20415,-2.744348 15.20415,-2.744348 0,0 8.36228,-2.364246 8.36228,-2.364246 0,0 0,-3.801037 0,-3.801037 -15.61466,3.139657 -23.11791,5.1314 -39.53078,5.321452 z m -97.306556,47.89307 c 0,0 0,25.84705 0,25.84705 0,2.30343 -0.114031,4.66768 0.76781,6.84187 2.873584,7.10794 14.451543,13.13638 21.278205,16.06318 13.74455,5.88401 38.991039,10.52127 53.974731,10.54408 0,0 23.56643,0 23.56643,0 16.61053,-0.076 42.95172,-5.32145 57.77576,-12.73347 5.83079,-2.9192 14.93808,-8.0658 16.99064,-14.634 0.57776,-1.8321 0.49413,-4.15833 0.49413,-6.08166 0,0 0,-50.933897 0,-50.933897 0,0 -10.6429,5.405075 -10.6429,5.405075 -8.77279,4.150732 -18.76952,7.883351 -28.12768,10.44525 -14.36031,3.930272 -28.47737,6.347732 -43.33182,6.986302 0,0 -5.32145,0.47133 -5.32145,0.47133 0,0 -5.32145,-0.47133 -5.32145,-0.47133 -21.650712,-0.93505 -43.848768,-5.48109 -63.857428,-14.041027 0,0 -17.484771,-8.7956 -17.484771,-8.7956 -1.436792,3.618587 -0.760207,20.099887 -0.760207,25.086847 z m 136.327996,101.8678 c -2.02215,6.07405 -3.28409,11.82882 -3.2917,18.24497 -0.0228,12.33057 0.12164,18.60228 4.90334,30.4083 9.00086,22.22086 33.7,41.52253 58.19388,41.81141 14.07904,0.15964 23.56643,-0.41051 36.48996,-7.03952 8.12661,-4.16594 15.88833,-10.23239 21.69632,-17.28712 26.96455,-32.76494 18.35901,-82.51291 -18.65549,-103.82153 -13.37965,-7.7009 -28.10487,-9.8979 -43.33183,-8.46871 -26.18154,3.99869 -47.53577,20.73086 -56.00448,46.1522 z m 36.9993,-9.12249 c 0,-1.68006 -0.16725,-4.34079 0.77541,-5.76238 1.55842,-2.34904 9.32014,-4.12032 12.14811,-4.72088 11.3423,-2.40986 27.63354,-2.39466 36.13266,6.81906 3.74783,4.0595 5.17702,8.21784 5.88401,13.54689 2.40225,18.15376 -11.88204,31.17611 -23.77169,42.54121 0,0 -9.12249,8.17983 -9.12249,8.17983 0,0 -11.40311,10.09556 -11.40311,10.09556 0,0 48.65328,0 48.65328,0 0,0 0,10.6429 0,10.6429 0,0 -61.5768,0 -61.5768,0 0,0 0,-6.84187 0,-6.84187 0,-1.51281 -0.0912,-3.87705 0.45612,-5.25303 1.1023,-2.79756 10.46045,-10.04234 13.22761,-12.44459 8.47631,-7.36641 24.48628,-21.9624 29.36681,-31.71586 6.34773,-12.69546 1.41399,-26.41721 -14.16266,-26.60726 -11.92005,-0.13684 -16.31405,2.65313 -26.60726,7.60208 0,0 0,-6.08166 0,-6.08166 z"
     inkscape:connector-curvature="0"
     style="fill:#000000;fill-opacity:1;stroke:none;stroke-width:1" />
</svg>
