<?xml version="1.0" encoding="UTF-8" standalone="no"?>
<svg
   xmlns:dc="http://purl.org/dc/elements/1.1/"
   xmlns:cc="http://creativecommons.org/ns#"
   xmlns:rdf="http://www.w3.org/1999/02/22-rdf-syntax-ns#"
   xmlns:svg="http://www.w3.org/2000/svg"
   xmlns="http://www.w3.org/2000/svg"
   xmlns:sodipodi="http://sodipodi.sourceforge.net/DTD/sodipodi-0.dtd"
   xmlns:inkscape="http://www.inkscape.org/namespaces/inkscape"
   width="100"
   height="100"
   viewBox="0 0 333.33266 333.33269"
   id="svg2"
   version="1.1"
   inkscape:version="0.91 r13725"
   sodipodi:docname="3trap.svg">
  <metadata
     id="metadata9">
    <rdf:RDF>
      <cc:Work
         rdf:about="">
        <dc:format>image/svg+xml</dc:format>
        <dc:type
           rdf:resource="http://purl.org/dc/dcmitype/StillImage" />
        <dc:title></dc:title>
      </cc:Work>
    </rdf:RDF>
  </metadata>
  <defs
     id="defs7" />
  <sodipodi:namedview
     pagecolor="#ffffff"
     bordercolor="#666666"
     borderopacity="1"
     objecttolerance="10"
     gridtolerance="10"
     guidetolerance="10"
     inkscape:pageopacity="0"
     inkscape:pageshadow="2"
     inkscape:window-width="1218"
     inkscape:window-height="697"
     id="namedview5"
     showgrid="false"
     units="px"
     inkscape:zoom="1.5733302"
     inkscape:cx="75.000148"
     inkscape:cy="75.000148"
     inkscape:window-x="54"
     inkscape:window-y="-8"
     inkscape:window-maximized="1"
     inkscape:current-layer="svg2" />
  <path
     id="Selection #18"
     d="m 134.49877,182.91367 c 0,0 -9.12249,0 -9.12249,0 0,0 -6.08166,0.66898 -6.08166,0.66898 0,0 -8.36228,-0.69939 -8.36228,-0.69939 -22.806224,-0.26607 -47.832255,-3.96068 -68.418674,-14.25389 -16.329257,-8.17223 -25.816647,-16.91461 -25.847055,-35.9198 0,0 0,-65.37785 0,-65.37785 0.02281,-16.701759 7.488044,-22.874644 21.28581,-30.727586 16.352063,-9.304939 41.385697,-15.652672 60.056393,-18.35901 31.069686,-4.508032 66.464946,1.756079 95.025936,14.649198 10.02714,4.523234 22.98868,11.425916 27.16222,22.274078 1.43679,3.732618 1.71807,8.202639 1.72567,12.16332 0,0 0,49.41349 0,49.41349 0,12.87031 1.36077,22.02321 -3.80104,34.20934 0,0 15.20415,-1.4596 15.20415,-1.4596 0,0 6.08166,0.63097 6.08166,0.63097 18.03972,1.32276 35.03796,7.80733 48.65328,19.96305 27.4739,24.5395 36.58879,64.25274 21.05015,97.93753 -4.394,9.5254 -10.58209,17.74325 -18.00932,25.08685 -6.5834,6.49977 -14.39073,11.87444 -22.80623,15.72869 -9.83708,4.50803 -18.95197,6.40095 -29.64809,7.14595 0,0 -5.32145,0.55496 -5.32145,0.55496 0,0 -5.32145,-0.55496 -5.32145,-0.55496 -8.14943,-0.57015 -12.63465,-1.25434 -20.52561,-3.65659 -7.63248,-2.32624 -16.32165,-6.91789 -22.80622,-11.54756 -40.72432,-29.05513 -45.7949,-85.84263 -13.68374,-123.22203 -11.88964,2.38705 -24.31903,5.17701 -36.48996,5.35186 z M 132.21815,39.204044 c 0,0 -25.84705,0 -25.84705,0 0,0 -26.607266,3.04083 -26.607266,3.04083 0,0 0,1.520413 0,1.520413 0,0 26.607266,3.04083 26.607266,3.04083 0,0 25.84705,0 25.84705,0 0,0 26.60726,-3.04083 26.60726,-3.04083 0,0 0,-1.520413 0,-1.520413 0,0 -26.60726,-3.04083 -26.60726,-3.04083 z M 44.794289,49.413629 c -3.831446,2.189397 -11.349898,6.651815 -12.520618,11.076223 -1.140311,4.295172 2.683533,7.396819 5.67875,9.700248 7.092736,5.435483 18.092939,10.011933 26.607263,12.855109 34.483012,11.494337 65.332236,12.710669 100.347386,2.751951 11.10664,-3.154861 23.83251,-7.526054 33.44913,-13.972614 3.55017,-2.37945 9.28214,-6.347733 7.95938,-11.334694 -1.13271,-4.272366 -8.08861,-8.483916 -11.76041,-10.635303 -3.72502,-2.181795 -6.40855,-3.572975 -10.64291,-4.568847 0,0 0,11.403113 0,11.403113 -0.15964,13.584908 -8.86402,16.564921 -20.5256,19.484118 -9.71545,2.425062 -22.68459,4.06711 -32.68892,4.082314 0,0 -11.40312,0.752606 -11.40312,0.752606 0,0 -13.68373,-0.752606 -13.68373,-0.752606 -9.183308,-0.0152 -26.211956,-2.561899 -34.969546,-5.344259 -4.508031,-1.42919 -10.323618,-3.763027 -13.250417,-7.609677 -2.645522,-3.48175 -2.706339,-7.959372 -2.713941,-12.132911 0,0 0,-9.882698 0,-9.882698 -3.953079,0.927453 -6.370539,2.120979 -9.882697,4.127927 z M 129.17732,61.25006 c 0,0 -10.6429,0.745003 -10.6429,0.745003 0,0 -10.64291,-0.745003 -10.64291,-0.745003 -14.101848,-0.02281 -24.47868,-2.59991 -38.010374,-5.321453 0,0 0,3.801038 0,3.801038 0,0 17.484773,4.234355 17.484773,4.234355 14.740421,2.470675 42.890911,2.675931 57.775771,0.874239 0,0 15.20415,-2.744349 15.20415,-2.744349 0,0 8.36228,-2.364245 8.36228,-2.364245 0,0 0,-3.801038 0,-3.801038 -15.61466,3.139657 -23.11791,5.131401 -39.53079,5.321453 z m -97.306559,47.89307 c 0,0 0,25.84706 0,25.84706 0,2.30343 -0.114031,4.66767 0.76781,6.84187 2.873584,7.10794 14.451544,13.13638 21.278208,16.06318 13.744551,5.88401 38.991042,10.52127 53.974731,10.54408 0,0 23.56643,0 23.56643,0 16.61054,-0.076 42.95173,-5.32145 57.77577,-12.73348 5.8308,-2.91919 14.93808,-8.0658 16.99064,-14.63399 0.57776,-1.8321 0.49414,-4.15833 0.49414,-6.08166 0,0 0,-50.933905 0,-50.933905 0,0 -10.64291,5.405075 -10.64291,5.405075 -8.77279,4.150733 -18.76952,7.883352 -28.12768,10.445251 -14.36032,3.930269 -28.47737,6.347729 -43.33182,6.986309 0,0 -5.32146,0.47133 -5.32146,0.47133 0,0 -5.32145,-0.47133 -5.32145,-0.47133 -21.650708,-0.93506 -43.848767,-5.4811 -63.857429,-14.041035 0,0 -17.484772,-8.7956 -17.484772,-8.7956 -1.436793,3.618587 -0.760208,20.099885 -0.760208,25.086845 z M 168.19877,211.01094 c -2.02215,6.07406 -3.28409,11.82883 -3.2917,18.24498 -0.0228,12.33057 0.12164,18.60228 4.90334,30.4083 9.00086,22.22087 33.7,41.52253 58.19389,41.81141 14.07904,0.15965 23.56643,-0.41051 36.48996,-7.03952 8.12662,-4.16594 15.88833,-10.23239 21.69632,-17.28712 26.96456,-32.76494 18.35901,-82.51292 -18.65549,-103.82154 -13.37965,-7.7009 -28.10487,-9.8979 -43.33183,-8.46871 -26.18155,3.99869 -47.53578,20.73086 -56.00449,46.1522 z m 37.75951,-9.12249 c 0,-1.68006 -0.16725,-4.34078 0.77541,-5.76237 1.76368,-2.65313 11.90485,-4.59166 15.18895,-5.17702 8.68917,-1.53561 20.19111,-1.43679 28.12767,2.82037 11.06863,5.93722 15.09012,20.32795 6.68223,30.16504 -5.41268,6.32492 -7.67049,5.5039 -13.52409,9.12249 5.05538,1.4748 9.5482,2.67593 13.61531,6.33253 4.95656,4.45481 6.9483,11.47153 6.52258,17.99411 -1.28475,19.67417 -14.43634,26.54644 -32.30121,27.88441 -4.94135,0.3649 -15.59946,-1.60404 -20.52561,-3.01802 -1.8321,-0.52455 -5.08578,-1.22394 -6.38574,-2.59231 -1.4824,-1.55083 -1.20873,-4.30278 -1.21633,-6.30972 0,0 0,-6.08166 0,-6.08166 11.97327,5.1542 25.77103,11.61597 38.77058,5.21502 10.65811,-5.24543 13.94221,-22.19806 4.53084,-30.00539 -6.18049,-5.1314 -14.55037,-4.09752 -22.01561,-4.09752 0,0 0,-9.8827 0,-9.8827 6.70503,0 13.1896,0.51694 18.99759,-3.64899 8.11901,-5.82319 8.56753,-17.53799 -0.75261,-22.44893 -4.34079,-2.28823 -8.20264,-2.08297 -12.92353,-2.02975 -9.28973,0.11403 -15.55384,3.74782 -23.56643,7.60207 0,0 0,-6.08166 0,-6.08166 z"
     inkscape:connector-curvature="0"
     style="fill:#000000;fill-opacity:1;stroke:none;stroke-width:1" />
</svg>
