<?xml version="1.0" encoding="UTF-8" standalone="no"?>
<svg
   xmlns:dc="http://purl.org/dc/elements/1.1/"
   xmlns:cc="http://creativecommons.org/ns#"
   xmlns:rdf="http://www.w3.org/1999/02/22-rdf-syntax-ns#"
   xmlns:svg="http://www.w3.org/2000/svg"
   xmlns="http://www.w3.org/2000/svg"
   xmlns:sodipodi="http://sodipodi.sourceforge.net/DTD/sodipodi-0.dtd"
   xmlns:inkscape="http://www.inkscape.org/namespaces/inkscape"
   width="100"
   height="100"
   viewBox="0 0 333.33269 333.33269"
   id="svg2"
   version="1.1"
   inkscape:version="0.91 r13725"
   sodipodi:docname="4trap2.svg">
  <metadata
     id="metadata9">
    <rdf:RDF>
      <cc:Work
         rdf:about="">
        <dc:format>image/svg+xml</dc:format>
        <dc:type
           rdf:resource="http://purl.org/dc/dcmitype/StillImage" />
        <dc:title></dc:title>
      </cc:Work>
    </rdf:RDF>
  </metadata>
  <defs
     id="defs7" />
  <sodipodi:namedview
     pagecolor="#ffffff"
     bordercolor="#666666"
     borderopacity="1"
     objecttolerance="10"
     gridtolerance="10"
     guidetolerance="10"
     inkscape:pageopacity="0"
     inkscape:pageshadow="2"
     inkscape:window-width="1218"
     inkscape:window-height="697"
     id="namedview5"
     showgrid="false"
     units="px"
     inkscape:zoom="1.5733302"
     inkscape:cx="75.000148"
     inkscape:cy="75.000148"
     inkscape:window-x="54"
     inkscape:window-y="-8"
     inkscape:window-maximized="1"
     inkscape:current-layer="svg2" />
  <path
     id="Selection #12"
     d="m 79.850454,215.47338 c 0,0 -10.896505,0 -10.896505,0 -8.546947,0 -18.95992,-0.11578 -20.887239,-10.89651 -0.694652,-3.8955 0.292844,-11.29831 0.449481,-15.66373 0.102155,-1.6549 0.796807,-4.47437 0,-5.84325 -0.86491,-1.37568 -7.3279,-3.68438 -9.527632,-5.12135 -7.573072,-4.94429 -13.198393,-13.04857 -12.592275,-22.40594 0.224741,-3.45283 0.742325,-6.98058 2.009044,-10.21548 1.014737,-2.58792 2.962487,-5.39377 2.894384,-8.17238 -0.0681,-3.07145 -2.404042,-7.41643 -3.677571,-10.21547 -2.049905,-4.48119 -4.072569,-10.13375 -4.923858,-14.9827 -4.426706,-25.218597 3.623088,-61.231545 25.143687,-77.011048 7.55945,-5.536787 18.898626,-9.91582 27.922295,-12.49012 9.943061,-2.839901 19.675003,-4.515239 29.965395,-5.223512 0,0 5.44825,-0.565256 5.44825,-0.565256 0,0 5.44825,0.565256 5.44825,0.565256 10.29039,0.708273 20.02233,2.383611 29.96539,5.223512 11.66607,3.330245 25.18455,8.83298 33.85408,17.509323 13.47762,13.470806 20.84638,40.289828 20.62845,59.052248 -0.0885,7.566257 -1.70258,16.079157 -4.37222,23.155077 -1.43017,3.78653 -5.2167,10.90331 -5.59127,14.30166 -0.40862,3.698 2.09758,6.06799 3.53455,10.89651 1.64129,5.50954 1.22586,8.83298 0.98069,14.30166 8.80574,-4.86938 19.36854,-6.85799 29.28436,-7.55264 0,0 5.44825,-0.56526 5.44825,-0.56526 0,0 5.44825,0.56526 5.44825,0.56526 9.41867,0.6606 17.08027,2.22697 25.8792,5.81601 47.52239,19.40259 65.14749,79.72156 35.79502,121.59819 -27.26169,38.90053 -82.07111,47.0048 -118.88087,16.71252 -9.1735,-7.55264 -16.35838,-17.01217 -21.62275,-27.60902 -4.20878,-8.46523 -7.39601,-19.81802 -7.66842,-29.28436 0,0 -0.55164,-6.12929 -0.55164,-6.12929 0,-5.29842 1.23267,-14.5945 2.60154,-19.74991 0,0 -71.508316,0 -71.508316,0 z M 181.9439,160.99085 c 0.80362,-1.85241 0.81043,-4.14067 0.71509,-6.12929 -0.29966,-6.33359 -4.41309,-9.45952 -4.71274,-16.34475 -0.3269,-7.55264 3.66395,-13.73641 6.37445,-20.43095 2.24741,-5.57765 4.01809,-15.12571 3.78654,-21.111982 C 187.52155,81.834546 182.05968,60.620414 171.49007,49.417444 167.6831,45.378927 162.45278,42.64118 157.48806,40.29843 147.40879,35.538019 127.7406,30.362179 116.62616,30.232783 99.974938,30.042094 89.602827,31.472261 73.72117,36.818359 66.359218,39.297314 57.812272,43.104281 52.043935,48.361845 41.058895,58.366199 36.21676,77.904994 34.786594,92.206657 c -0.279223,2.80585 -0.660601,3.711622 -0.538015,6.810316 0.22474,5.720667 1.423356,13.062187 3.514123,18.387857 2.717316,6.91247 6.987384,13.36184 6.646868,21.11198 -0.299654,6.88523 -4.413085,10.01116 -4.712739,16.34475 -0.09534,1.98862 -0.08853,4.27688 0.715084,6.12929 3.330244,7.68885 14.900971,10.67857 22.412749,8.85341 0,0 -1.423356,25.19817 -1.423356,25.19817 0,0 -0.619738,6.81031 -0.619738,6.81031 0,0 12.258568,0 12.258568,0 0,0 4.263258,-0.67422 4.263258,-0.67422 0,0 1.471028,-5.45506 1.471028,-5.45506 0,0 1.757062,-16.34476 1.757062,-16.34476 0,0 13.620632,2.0431 13.620632,2.0431 0,0 -2.724127,20.43094 -2.724127,20.43094 0,0 12.939599,0 12.939599,0 0,0 0,-21.79301 0,-21.79301 0,0 13.62063,0 13.62063,0 0,0 0,21.79301 0,21.79301 0,0 12.93961,0 12.93961,0 0,0 -2.72413,-20.43094 -2.72413,-20.43094 0,0 13.62063,-2.0431 13.62063,-2.0431 0,0 1.75706,16.34476 1.75706,16.34476 0,0 1.47103,5.45506 1.47103,5.45506 0,0 4.94429,0.67422 4.94429,0.67422 0,0 11.57754,0 11.57754,0 0,0 -0.61974,-6.81031 -0.61974,-6.81031 0,0 -1.42336,-25.19817 -1.42336,-25.19817 7.51178,1.82516 19.08251,-1.16456 22.41275,-8.85341 z M 92.109023,102.46299 c 2.274646,1.41655 5.455063,3.48007 6.401697,6.08843 0.885341,2.46533 -0.65379,8.36306 -1.464218,10.8965 -2.819471,8.82617 -10.515128,23.38663 -20.601206,24.85765 -1.879647,0.27242 -4.229206,-0.14301 -6.129284,-0.42905 -16.263034,-2.47214 -18.408284,-19.16422 -18.387853,-32.60098 0.0068,-3.15998 -0.08172,-6.10204 1.838785,-8.82617 3.772915,-5.359716 10.903316,-4.385841 16.549068,-5.189459 7.402813,-0.892151 15.507089,1.293961 21.793011,5.203079 z M 154.0829,97.402928 c 4.91024,0.606118 10.44022,0.156637 14.01563,4.413082 2.9693,3.52775 2.3768,9.1735 2.32913,13.54572 -0.14983,12.37435 -4.36541,26.38317 -18.38785,28.51479 -1.90008,0.28604 -4.24964,0.70147 -6.12929,0.42905 -9.45272,-1.37568 -16.43329,-14.05649 -19.61371,-22.13352 -1.17137,-2.98292 -3.52774,-10.63091 -2.45171,-13.62063 1.50508,-4.16792 10.41978,-8.683157 14.57407,-9.915825 2.62879,-0.783186 4.8149,-0.967065 7.49135,-1.232667 4.38585,-0.674221 4.16792,-0.245171 8.17238,0 z M 72.359107,130.84158 c 5.141788,0.62655 8.941945,-7.49135 10.685386,-11.39366 0.728703,-1.64129 1.859216,-4.13386 0.851289,-5.86368 -2.36318,-4.05895 -14.717093,-2.98973 -19.028023,-2.98973 0,5.61851 0,19.3413 7.491348,20.24707 z m 66.100933,-17.25734 c -1.00793,1.72982 0.12258,4.22239 0.85129,5.86368 1.77068,3.97042 5.44144,12.02702 10.68538,11.39366 7.49135,-0.90577 7.49135,-14.62856 7.49135,-20.24707 -4.31093,0 -16.66484,-1.06922 -19.02802,2.98973 z m -29.31842,22.20844 c 1.21905,6.8648 0.15664,4.99877 0,10.89651 -0.0545,2.15887 -0.18388,7.52539 -1.08284,9.34375 -0.90577,1.82516 -3.18722,2.27464 -5.03963,1.97499 -4.195155,-0.68103 -3.00335,-3.65714 -2.05672,-6.55152 2.29508,-7.02144 3.40516,-9.21436 6.81032,-15.66373 0,0 1.36887,0 1.36887,0 z m 12.02702,14.98269 c 0.49716,1.49827 1.70258,4.32456 0.83086,5.78196 -1.17137,1.94775 -5.84325,2.13163 -7.40281,0 -0.68785,-0.93982 -1.03517,-3.87507 -1.37569,-5.10092 0,0 0,-6.81032 0,-6.81032 -0.74232,-4.65145 -0.84448,-4.14748 0,-8.85341 4.093,2.45852 6.46299,10.52194 7.94764,14.98269 z m 73.09513,26.19248 c -18.27208,11.12806 -31.97444,33.2071 -32.00849,54.85028 -0.0136,9.03048 -0.0613,14.97589 2.74456,23.83611 8.0566,25.45696 33.20029,47.35213 60.59138,47.67221 14.1314,0.16345 22.4468,-0.49715 35.41364,-6.98057 8.24048,-4.12024 14.8533,-9.29608 20.99621,-16.1745 27.6635,-30.98013 19.78396,-80.55923 -14.86692,-102.77448 -13.34141,-8.55376 -29.31841,-11.54349 -44.94809,-10.07927 -10.37892,1.58 -18.85776,4.12705 -27.92229,9.65022 z m 4.08618,73.23814 c 0,0 0.50397,-5.44825 0.50397,-5.44825 0,0 9.9022,-12.25857 9.9022,-12.25857 0,0 20.15172,-23.15508 20.15172,-23.15508 0,0 9.62979,-10.20185 9.62979,-10.20185 0,0 9.52763,-0.69465 9.52763,-0.69465 0,0 0,49.7153 0,49.7153 0,0 12.25857,0 12.25857,0 0,0 0,8.85341 0,8.85341 0,0 -12.25857,0 -12.25857,0 0,0 0,23.15508 0,23.15508 0,0 -10.21547,0 -10.21547,0 0,0 0,-23.15508 0,-23.15508 0,0 -39.49984,0 -39.49984,0 0,0 0,-6.81031 0,-6.81031 z m 26.45808,-24.51714 c 0,0 -18.96673,22.47404 -18.96673,22.47404 0,0 32.00849,0 32.00849,0 0,0 0,-36.7757 0,-36.7757 0,0 -13.04176,14.30166 -13.04176,14.30166 z"
     inkscape:connector-curvature="0"
     style="fill:#000000;fill-opacity:1;stroke:none;stroke-width:1" />
</svg>
