<?xml version="1.0" encoding="UTF-8" standalone="no"?>
<svg
   xmlns:dc="http://purl.org/dc/elements/1.1/"
   xmlns:cc="http://creativecommons.org/ns#"
   xmlns:rdf="http://www.w3.org/1999/02/22-rdf-syntax-ns#"
   xmlns:svg="http://www.w3.org/2000/svg"
   xmlns="http://www.w3.org/2000/svg"
   xmlns:sodipodi="http://sodipodi.sourceforge.net/DTD/sodipodi-0.dtd"
   xmlns:inkscape="http://www.inkscape.org/namespaces/inkscape"
   width="100"
   height="100"
   viewBox="0 0 333.33269 333.33269"
   id="svg2"
   version="1.1"
   inkscape:version="0.91 r13725"
   sodipodi:docname="Actor.svg"
   inkscape:export-filename="C:\Users\mbrown\Desktop\Drawings\icons\forJustin\Actor.png"
   inkscape:export-xdpi="300"
   inkscape:export-ydpi="300">
  <metadata
     id="metadata9">
    <rdf:RDF>
      <cc:Work
         rdf:about="">
        <dc:format>image/svg+xml</dc:format>
        <dc:type
           rdf:resource="http://purl.org/dc/dcmitype/StillImage" />
        <dc:title></dc:title>
      </cc:Work>
    </rdf:RDF>
  </metadata>
  <defs
     id="defs7" />
  <sodipodi:namedview
     pagecolor="#ffffff"
     bordercolor="#666666"
     borderopacity="1"
     objecttolerance="10"
     gridtolerance="10"
     guidetolerance="10"
     inkscape:pageopacity="0"
     inkscape:pageshadow="2"
     inkscape:window-width="1218"
     inkscape:window-height="697"
     id="namedview5"
     showgrid="false"
     units="px"
     inkscape:zoom="1.5733302"
     inkscape:cx="75.000148"
     inkscape:cy="75.000148"
     inkscape:window-x="54"
     inkscape:window-y="-8"
     inkscape:window-maximized="1"
     inkscape:current-layer="svg2" />
  <path
     id="Selection #8"
     d="m 20.72069,154.03467 c 0,0 -3.424218,-24.92274 -3.424218,-24.92274 -1.884421,-24.54879 0.784564,-49.750167 3.783505,-74.056987 0,0 0.425278,-5.865898 0.425278,-5.865898 0,0 2.866959,-16.864463 2.866959,-16.864463 1.239171,-6.423161 3.035603,-12.149745 10.118676,-14.195478 9.312116,-2.698313 13.051627,3.174919 19.797412,7.662332 3.820168,2.544334 10.976565,5.447954 15.397987,7.083074 0,0 21.263886,6.657796 21.263886,6.657796 0,0 9.532085,1.833094 9.532085,1.833094 0,0 15.39799,3.358227 15.39799,3.358227 0,0 7.33237,0.64525 7.33237,0.64525 8.75486,1.136518 17.54638,2.339027 26.39655,2.353691 5.76325,0.0074 14.22481,-0.285962 19.79741,-1.437145 8.41757,-1.73044 15.5153,-7.501019 23.26562,0.843224 5.74859,6.181192 2.93296,15.969912 1.5178,23.324283 -3.68818,19.262147 -8.74018,38.41431 -14.48143,57.19252 0,0 -6.35717,18.33094 -6.35717,18.33094 -0.64525,1.70111 -2.55166,5.19132 -1.20984,6.78978 1.43714,1.72311 8.19026,1.51047 10.4633,1.5178 0,0 8.06561,0 8.06561,0 24.88608,-0.46194 52.71977,-5.3233 76.2567,-13.35225 5.88056,-2.00907 15.08269,-5.60194 20.22268,-8.87218 3.8275,-2.44168 7.17107,-6.72379 11.31386,-7.55234 4.48741,-0.89455 5.38196,1.04853 8.79151,1.67178 0,0 4.81737,26.39655 4.81737,26.39655 0,0 1.90642,19.06417 1.90642,19.06417 0,0 0.90921,5.8659 0.90921,5.8659 0,0 1.77444,33.72892 1.77444,33.72892 0.066,15.00937 -1.11452,28.57427 -4.44341,43.23169 0,0 -3.98882,14.69407 -3.98882,14.69407 -1.08519,3.22625 -2.64699,6.10054 -2.44168,9.53209 -2.12639,0.80656 -6.40849,9.30478 -8.08027,11.7318 -4.99335,7.22972 -10.34599,12.2744 -17.76635,16.90845 -6.91443,4.31877 -13.15428,6.02722 -21.08058,7.34705 -15.5373,2.58833 -28.72091,1.34182 -42.52777,-6.98776 -4.83204,-2.91828 -9.05548,-6.51848 -13.16162,-10.36798 -1.97974,-1.85508 -3.97414,-4.81736 -6.63579,-5.43329 -0.65992,-3.34356 -6.70179,-10.59528 -8.9235,-13.93151 -5.074,-7.64766 -9.36345,-15.7866 -13.03696,-24.19683 -4.34077,-9.95736 -11.63649,-31.23592 -14.34946,-41.79454 0,0 -7.68433,-27.86302 -7.68433,-27.86302 -2.559,5.93189 -9.76673,13.58689 -14.5401,17.87633 -17.18709,15.44931 -35.31271,21.29321 -58.050407,17.50238 -9.730061,-1.62779 -15.771938,-3.59287 -24.196836,-8.81352 -7.325043,-4.53874 -19.709423,-15.20001 -21.997124,-23.63224 0,0 -0.733237,0.73324 -0.733237,0.73324 0,0 -1.466475,-0.73324 -1.466475,-0.73324 0,0 -4.678055,-12.46504 -4.678055,-12.46504 0,0 -2.65432,-4.39942 -2.65432,-4.39942 0.175977,-4.47276 -2.471011,-11.35786 -3.504876,-16.13856 z M 36.639276,30.359505 c -1.217174,1.569128 -2.815632,12.465037 -3.306901,15.163351 -1.715775,9.524755 -4.612063,40.144749 -4.707384,49.860146 0,0 -0.733238,13.198278 -0.733238,13.198278 0,0 0.674579,16.86446 0.674579,16.86446 1.539798,26.3159 7.259051,57.33917 30.121395,73.74169 5.689922,4.09147 11.460502,6.8851 18.330937,8.37358 4.956685,1.07052 12.281727,2.30236 17.289739,2.04573 21.769817,-1.1072 38.106347,-14.56943 49.794157,-32.10114 17.37773,-26.05193 23.4416,-46.6559 31.47788,-76.2567 0,0 7.99962,-34.462157 7.99962,-34.462157 0.41795,-2.734976 2.39769,-9.91337 0,-11.959103 -1.84776,-1.657116 -5.55794,0.601255 -7.57434,1.297831 -4.47275,1.539798 -13.52823,2.588328 -18.33094,2.59566 0,0 -13.93151,0 -13.93151,0 0,0 -19.79741,-1.987073 -19.79741,-1.987073 0,0 -10.99856,-1.143851 -10.99856,-1.143851 0,0 -16.131225,-3.541537 -16.131225,-3.541537 0,0 -8.798849,-1.745105 -8.798849,-1.745105 0,0 -16.864463,-5.088668 -16.864463,-5.088668 C 65.052228,43.264485 54.500941,39.077699 49.155639,35.792795 45.66543,33.651741 42.490511,29.35497 38.259731,29.20099 c -0.696576,0.417945 -0.733238,0.022 -1.620455,1.158515 z M 89.388379,81.45149 c 3.776173,6.29851 4.553405,19.6581 -5.037341,21.10991 -6.760449,1.0192 -9.766723,-4.223451 -15.397986,-6.496487 C 65.455508,94.649765 60.08821,94.033845 56.363364,94.774415 51.054724,95.830277 46.19336,98.851215 41.25134,94.341805 37.9811,91.357528 38.098418,86.826121 39.30826,82.917966 42.483178,72.689303 50.585452,69.815014 60.154202,68.62717 70.558842,67.739952 83.815775,72.139377 89.388379,81.45149 Z M 51.355352,84.38444 C 62.984498,81.400164 69.576303,84.186466 79.951613,88.783865 77.150646,79.354431 56.700653,76.07686 51.355352,84.38444 Z m 108.687788,7.398366 c 6.14453,8.175598 6.0932,22.070444 -3.83483,23.749564 -5.58727,0.94588 -9.33411,-4.06214 -13.93151,-6.17386 -3.55621,-1.63512 -7.09041,-2.38302 -10.99857,-2.06773 -5.64593,0.10265 -12.27439,4.51674 -17.44371,0 -3.19692,-2.57367 -3.46822,-6.6138 -2.58833,-10.441303 2.13372,-9.297451 9.06281,-13.43291 17.83233,-15.075362 10.45596,-1.341824 24.24816,1.077859 30.96462,10.008691 z M 79.951613,88.783865 c 0,0 0.733238,0.733238 0.733238,0.733238 0,0 0,-0.733238 0,-0.733238 0,0 -0.733238,0 -0.733238,0 z m 43.261007,8.065612 c 8.08028,-1.473807 15.04603,-1.334492 22.73037,1.921083 0,0 6.59913,3.21158 6.59913,3.21158 -3.48288,-10.111346 -22.4004,-12.970971 -29.3295,-5.132663 z m 29.3295,5.132663 c 0,0 0.73324,0.73324 0.73324,0.73324 0,0 0,-0.73324 0,-0.73324 0,0 -0.73324,0 -0.73324,0 z m -96.054106,23.58092 c 4.524075,3.10892 13.718873,6.82644 19.064174,8.54221 17.26041,5.52129 36.933172,8.12428 54.992812,5.87324 6.04188,-0.75524 11.90044,-4.15746 15.39799,-4.75872 6.85576,-1.19517 11.98843,2.89629 11.34318,10.02336 -0.24197,2.69831 -1.35649,5.66059 -2.57367,8.06561 -7.8383,15.48598 -29.07286,18.48492 -44.69815,18.33094 -8.99682,-0.0953 -13.447576,-1.2685 -21.997124,-2.74964 -16.329199,-2.83763 -33.574944,-7.17106 -46.069311,-18.83687 -2.551666,-2.37569 -5.565272,-6.12986 -7.222389,-9.20946 -3.959482,-7.3837 -5.909894,-20.36934 3.438884,-24.45348 8.226924,-1.52512 12.347719,5.07401 18.323604,9.17281 z m 5.8659,24.51213 c 8.696196,4.36276 18.345601,6.33517 27.863024,7.93363 12.267062,2.0604 21.197892,3.71018 33.728922,1.45181 7.45703,-1.34916 17.3484,-3.53421 20.53065,-11.28453 -4.50941,0.47661 -9.89138,3.18225 -20.53065,3.63686 -22.22443,0.95321 -47.359807,-3.34356 -67.333195,-13.33025 0,0 -13.322925,-8.63754 -13.322925,-8.63754 -1.239171,8.58621 12.494367,16.92312 19.064174,20.23002 z m 82.122596,-2.63232 c 0,0 0.73323,0.73323 0.73323,0.73323 0,0 0,-0.73323 0,-0.73323 0,0 -0.73323,0 -0.73323,0 z m 131.2495,27.64304 c -3.5342,1.20252 -10.214,2.18506 -13.93884,1.55447 -2.92562,-0.4986 -6.59914,-2.67632 -9.42943,-1.5178 -5.77792,2.37569 -0.0586,10.58795 2.86695,12.86099 6.51115,5.06666 18.40426,4.15745 25.63399,1.18784 3.66618,-1.50314 7.89696,-3.65886 8.06561,-7.99963 0,0 2.19971,0 2.19971,0 1.29049,-5.7999 2.51501,-7.71365 -0.73324,-13.19827 -6.92909,1.12186 -7.66966,4.72938 -14.66475,7.1124 z m -58.73965,6.4525 c -3.99614,-0.55726 -6.41583,4.04014 -13.11761,6.19585 -3.3729,1.0852 -8.06562,1.8331 -11.60716,1.71578 -7.03907,-0.22731 -8.31491,-3.84217 -14.78939,-0.94588 0.7699,9.82538 4.68538,14.15882 14.66474,15.49331 5.73392,0.76257 7.64767,0.76257 13.19828,-1.07786 5.49928,-1.82576 13.75553,-5.29398 13.19827,-12.21573 2.75697,-0.98988 1.84776,-8.6962 -1.54713,-9.16547 z m 72.67117,-0.36663 c 0,0 0.73323,0.73325 0.73323,0.73325 0,0 0,-0.73325 0,-0.73325 0,0 -0.73323,0 -0.73323,0 z m -257.366352,5.13267 c 0,0 0.733238,0.73324 0.733238,0.73324 0,0 0,-0.73324 0,-0.73324 0,0 -0.733238,0 -0.733238,0 z m 271.928442,53.59233 c -3.17491,-6.81911 -9.73739,-10.45597 -16.5565,-12.74367 -17.49504,-5.8879 -39.27953,-2.59566 -56.66459,2.10439 -6.00522,1.62779 -11.83446,3.10893 -17.47305,5.8879 -6.01988,2.96228 -19.74608,11.14521 -19.18882,18.6169 -4.34077,1.2245 -5.49196,15.28066 1.48114,14.42278 3.35089,-0.41795 7.17839,-4.81738 9.82538,-6.92909 3.38755,-2.69832 8.47622,-4.87603 12.4577,-6.68714 7.55968,-3.43887 21.54985,-7.50834 29.76211,-8.68153 0,0 6.59914,-0.54259 6.59914,-0.54259 6.04188,-0.71858 8.4029,-1.2685 14.7894,-1.2465 11.30652,0.044 16.97445,-0.12466 27.73837,4.21611 2.27304,0.91655 6.36451,2.8303 7.22972,-0.41795 2.99161,-1.03386 0.79923,-5.99054 0,-7.99961 z"
     style="fill:#000000;fill-opacity:1;stroke:none;stroke-width:1"
     inkscape:connector-curvature="0" />
</svg>
