<?xml version="1.0" encoding="UTF-8" standalone="no"?>
<svg
   xmlns:dc="http://purl.org/dc/elements/1.1/"
   xmlns:cc="http://creativecommons.org/ns#"
   xmlns:rdf="http://www.w3.org/1999/02/22-rdf-syntax-ns#"
   xmlns:svg="http://www.w3.org/2000/svg"
   xmlns="http://www.w3.org/2000/svg"
   xmlns:sodipodi="http://sodipodi.sourceforge.net/DTD/sodipodi-0.dtd"
   xmlns:inkscape="http://www.inkscape.org/namespaces/inkscape"
   width="100"
   height="100"
   viewBox="0 0 333.33269 333.33269"
   id="svg2"
   version="1.1"
   inkscape:version="0.91 r13725"
   sodipodi:docname="angora.svg">
  <metadata
     id="metadata9">
    <rdf:RDF>
      <cc:Work
         rdf:about="">
        <dc:format>image/svg+xml</dc:format>
        <dc:type
           rdf:resource="http://purl.org/dc/dcmitype/StillImage" />
        <dc:title></dc:title>
      </cc:Work>
    </rdf:RDF>
  </metadata>
  <defs
     id="defs7" />
  <sodipodi:namedview
     pagecolor="#ffffff"
     bordercolor="#666666"
     borderopacity="1"
     objecttolerance="10"
     gridtolerance="10"
     guidetolerance="10"
     inkscape:pageopacity="0"
     inkscape:pageshadow="2"
     inkscape:window-width="1218"
     inkscape:window-height="697"
     id="namedview5"
     showgrid="false"
     units="px"
     inkscape:zoom="1.5733302"
     inkscape:cx="75.000148"
     inkscape:cy="75.000148"
     inkscape:window-x="54"
     inkscape:window-y="-8"
     inkscape:window-maximized="1"
     inkscape:current-layer="svg2" />
  <path
     id="Selection #39"
     d="m 156.01707,67.088557 c 2.88435,3.688398 2.40575,7.395938 4.95828,8.340373 1.8442,0.944434 4.97742,0.191439 6.9301,0 0,0 5.10505,0 5.10505,0 0,0 6.38131,-0.740233 6.38131,-0.740233 18.92059,-0.216964 44.75852,-1.091204 61.89873,7.53633 6.05586,3.043885 13.85383,10.618502 19.14393,15.257716 15.39811,13.502857 31.4854,29.251937 41.33176,47.400387 7.34489,13.54114 14.63873,34.9313 14.82379,50.41236 0.0638,5.42412 0.43393,12.12449 -1.34008,17.22954 -2.02287,5.83252 -7.87454,12.67329 -12.01601,17.22954 -7.49166,8.25742 -15.57678,15.7427 -24.29365,22.71747 -30.06236,24.05117 -68.20984,45.23074 -106.56791,51.66949 -14.13461,2.36746 -21.09024,2.20793 -35.09721,2.18879 0,0 -7.65758,-0.5807 -7.65758,-0.5807 -26.98657,-1.97183 -55.619512,-10.79718 -79.766395,-22.87062 -6.534464,-3.27362 -13.017877,-6.57914 -19.143936,-10.5866 -2.96731,-1.93992 -6.03034,-3.80326 -7.995784,-6.828 -3.120461,-4.80513 -6.317498,-15.29601 -5.98567,-21.03281 0,0 1.863343,-9.57197 1.863343,-9.57197 0,0 -1.920775,-16.59141 -1.920775,-16.59141 -0.08296,-17.29973 5.743181,-30.78344 13.566669,-45.94544 0,0 6.47065,-11.48636 6.47065,-11.48636 0.816808,-1.35922 3.248088,-5.09867 3.541628,-6.38131 0.478599,-2.06755 -1.129492,-5.03486 -1.85058,-7.01945 -1.786767,-4.93913 -2.960929,-11.49912 0.855096,-15.83841 4.320148,-4.90085 15.717171,-7.54271 22.08572,-8.31485 1.786767,-0.21059 9.654924,-0.77852 10.599359,-1.38475 1.79953,-1.1614 3.937269,-7.92559 4.843415,-10.19733 0,0 10.541927,-26.163383 10.541927,-26.163383 6.266449,-14.530245 14.383473,-33.387021 22.794043,-46.583574 3.44591,-5.411353 9.08699,-12.64776 16.31064,-11.907528 3.38209,0.344591 5.89633,1.927156 8.27018,4.275479 8.3659,8.289324 8.48076,20.362766 7.04496,31.242903 5.14972,0 10.76528,0.04467 14.275,4.52435 z M 29.194878,262.00572 c 1.863343,2.12498 7.817107,5.76233 10.446208,7.30661 17.752809,10.4462 39.359931,19.15669 59.346199,24.17241 10.510025,2.64186 27.605555,5.80699 38.287875,5.82613 0,0 14.67701,0 14.67701,0 12.60309,-0.0191 31.35777,-4.28824 43.39292,-8.2957 26.04852,-8.67859 51.78435,-22.76214 73.38509,-39.69814 9.97399,-7.81711 19.69911,-15.96604 28.18625,-25.39124 3.77136,-4.19252 9.24014,-10.01866 11.30131,-15.31515 1.76762,-4.53073 1.40388,-9.86551 1.35283,-14.67702 -0.0702,-5.93462 -1.81229,-13.97507 -3.27361,-19.78206 -7.49804,-29.85816 -22.51327,-47.17066 -44.58622,-67.69934 -5.80062,-5.39221 -18.76106,-17.848531 -25.52525,-20.707359 -16.94238,-7.15345 -37.47106,-6.062246 -55.51741,-6.036721 0,0 -14.67702,1.008248 -14.67702,1.008248 -1.39751,0.185058 -4.39034,0.191439 -5.41774,0.918909 -1.23797,0.880621 -1.65914,3.043885 -1.95268,4.454155 0,0 -1.57618,11.486361 -1.57618,11.486361 -0.88062,12.979587 -2.18241,23.476847 -8.48076,35.097217 -3.43953,6.34302 -8.35314,12.98597 -13.84107,17.67623 -1.98459,1.70381 -5.50707,4.9519 -8.1936,2.98646 -1.77401,-1.29541 -1.70381,-2.97369 -0.45308,-4.60093 1.7421,-2.27175 5.06038,-3.12684 11.04605,-10.95671 11.08434,-14.48558 11.30769,-24.98284 13.02426,-42.11666 0,0 2.43766,-16.591411 2.43766,-16.591411 0.0319,-1.614472 0.0319,-3.541628 -0.33183,-5.105049 -1.2635,-5.462401 -4.14785,-6.38131 -9.23375,-6.38131 -7.67034,0 -12.16278,3.981937 -17.86768,8.684963 -10.1399,8.359519 -22.26439,30.221897 -28.23092,42.365527 0,0 -4.996567,10.80995 -4.996567,10.80995 -0.963578,1.47408 -2.463186,2.77587 -4.352054,2.16964 -2.826922,-0.90615 -2.258985,-3.86069 -1.423033,-5.96014 0,0 7.580998,-15.95328 7.580998,-15.95328 5.015712,-9.87189 15.130086,-26.578168 22.545176,-34.459088 2.6291,-2.795014 7.60652,-6.885433 10.7908,-9.112511 1.8442,-1.289025 5.78785,-3.388477 6.84076,-5.136956 1.46132,-2.444043 1.46132,-7.791582 1.45494,-10.637647 -0.006,-5.245439 -1.34007,-10.497259 -4.71579,-14.664255 -1.41027,-1.74848 -3.66287,-3.969176 -6.13244,-3.30552 -1.72295,0.472217 -3.81602,2.62272 -4.99018,3.930888 -2.45043,2.750346 -6.74505,9.986753 -8.55096,13.400756 -9.36139,17.740047 -17.101917,36.258612 -24.491476,54.879283 0,0 -5.730418,14.67701 -5.730418,14.67701 -0.804045,2.13136 -1.825055,5.80062 -3.630966,7.18536 -1.888868,1.44856 -5.188007,1.08482 -7.485279,1.11035 -4.868941,0.0574 -13.930404,1.60171 -18.505804,3.24809 -1.978207,0.7147 -5.258201,2.23346 -6.464269,3.98194 -3.739449,5.40497 5.443259,14.07079 4.052133,18.29522 0,0 -4.339292,7.01944 -4.339292,7.01944 0,0 -8.3659,14.67702 -8.3659,14.67702 -5.628317,10.40792 -12.303169,26.39948 -12.322313,38.28787 -0.0064,5.99843 0.510505,8.86364 1.276262,14.67701 3.279995,0.52965 3.733068,1.2635 5.743181,3.82879 2.271747,-0.65089 6.693996,-1.39112 6.368549,2.56529 -0.108482,1.27626 -1.786767,3.34381 -2.539762,4.45415 7.427847,3.20342 11.377879,5.30926 19.782067,5.67937 3.075792,0.13401 7.759675,-1.79315 9.757026,1.42942 3.120461,5.03485 -7.804345,5.64108 -10.395157,5.44964 -4.390343,-0.33183 -9.948466,-1.04016 -14.038886,-2.64187 0,0 -15.315149,-8.00216 -15.315149,-8.00216 -1.21883,5.21991 1.327313,15.43001 4.868941,19.48852 z M 106.69591,155.09323 c -1.774,-10.54193 -2.01649,-14.28138 -1.96544,-24.88712 0.0128,-3.24171 1.0912,-13.19655 2.36108,-15.91499 1.41027,-3.03751 4.66474,-2.99922 5.92824,-1.11673 1.17416,1.76762 0.38288,5.48793 0,7.45975 -0.79128,4.17338 -1.81229,8.60201 -0.63175,12.76263 0.58708,-2.50786 3.0056,-8.82536 4.86894,-10.46536 1.75486,-1.54427 5.16248,-1.21883 5.74956,1.56981 0.51689,2.4249 -3.33742,9.39329 -4.23719,12.72433 2.07393,-1.97182 11.68418,-9.52729 13.19017,-3.12046 0.96996,4.14147 -3.45229,4.51159 -6.78333,7.6512 -3.30552,3.12046 -7.86178,9.9357 -10.18457,13.97507 -1.56981,2.73758 -3.81603,7.28746 -6.43237,8.93383 0,0 -1.86334,-9.57196 -1.86334,-9.57196 z m 11.43531,-17.86768 c 0,0 0.63813,0.63813 0.63813,0.63813 0,0 0,-0.63813 0,-0.63813 0,0 -0.63813,0 -0.63813,0 z m -44.031051,52.35867 c 3.069411,0.0638 7.785201,1.86334 8.742398,5.07314 0.73385,2.46957 -2.463187,5.22629 -4.275479,6.40046 -6.113297,3.96279 -13.732583,2.47594 -20.420198,1.25711 2.463186,-5.45602 9.527298,-12.85196 15.953279,-12.73071 z"
     inkscape:connector-curvature="0"
     style="fill:#000000;fill-opacity:1;stroke:none;stroke-width:1" />
</svg>
