<?xml version="1.0" encoding="UTF-8" standalone="no"?>
<svg
   xmlns:dc="http://purl.org/dc/elements/1.1/"
   xmlns:cc="http://creativecommons.org/ns#"
   xmlns:rdf="http://www.w3.org/1999/02/22-rdf-syntax-ns#"
   xmlns:svg="http://www.w3.org/2000/svg"
   xmlns="http://www.w3.org/2000/svg"
   xmlns:sodipodi="http://sodipodi.sourceforge.net/DTD/sodipodi-0.dtd"
   xmlns:inkscape="http://www.inkscape.org/namespaces/inkscape"
   width="100"
   height="100"
   viewBox="0 0 333.33269 333.33269"
   id="svg2"
   version="1.1"
   inkscape:version="0.91 r13725"
   sodipodi:docname="animalhouse.svg">
  <metadata
     id="metadata9">
    <rdf:RDF>
      <cc:Work
         rdf:about="">
        <dc:format>image/svg+xml</dc:format>
        <dc:type
           rdf:resource="http://purl.org/dc/dcmitype/StillImage" />
        <dc:title></dc:title>
      </cc:Work>
    </rdf:RDF>
  </metadata>
  <defs
     id="defs7" />
  <sodipodi:namedview
     pagecolor="#ffffff"
     bordercolor="#666666"
     borderopacity="1"
     objecttolerance="10"
     gridtolerance="10"
     guidetolerance="10"
     inkscape:pageopacity="0"
     inkscape:pageshadow="2"
     inkscape:window-width="1218"
     inkscape:window-height="697"
     id="namedview5"
     showgrid="false"
     units="px"
     inkscape:zoom="1.5733302"
     inkscape:cx="75.000148"
     inkscape:cy="75.000148"
     inkscape:window-x="54"
     inkscape:window-y="-8"
     inkscape:window-maximized="1"
     inkscape:current-layer="svg2" />
  <path
     id="Selection #59"
     d="m 23.595452,153.60839 c -3.449527,-0.007 -9.577664,-0.85585 -5.670813,-5.82107 0.607587,-0.77745 1.646365,-1.6333 2.404216,-2.27356 0,0 20.906224,-16.30685 20.906224,-16.30685 0,0 91.464731,-71.120361 91.464731,-71.120361 0,0 23.5195,-18.292947 23.5195,-18.292947 2.22782,-1.744363 7.7941,-6.755323 10.45311,-6.755323 2.11676,0 4.27271,1.966492 5.87988,3.201265 0,0 11.10643,8.643417 11.10643,8.643417 0,0 26.7861,20.801694 26.7861,20.801694 0,0 18.29295,14.098633 18.29295,14.098633 0,0 0,-39.852488 0,-39.852488 0.0131,-6.324133 0.86238,-7.173449 7.18651,-7.186515 0,0 21.55955,0 21.55955,0 2.31928,0 7.18651,-0.437724 8.94394,1.045311 1.75743,1.483036 1.50263,4.063648 1.50917,6.141204 0,0 0,65.33195 0,65.33195 0,1.27397 -0.0784,3.3058 0.39199,4.46217 0.94731,2.31928 8.98314,7.99663 11.36776,9.83246 0,0 34.58673,27.05396 34.58673,27.05396 5.47482,5.22002 0.47039,6.98399 -4.53403,6.99705 0,0 -9.14648,0 -9.14648,0 0,0 0,113.02428 0,113.02428 0,0 0,28.09273 0,28.09273 -0.10453,5.68388 -2.18208,5.86681 -7.18651,5.87988 0,0 -108.45104,0 -108.45104,0 -1.02571,-1.98609 -2.71781,-3.61286 -3.11633,-5.87988 -0.94078,-5.29188 1.78356,-10.6295 2.51528,-15.67966 0.29399,-1.99263 0.29399,-5.26576 2.23435,-6.494 1.90769,-1.20864 6.32413,0.30053 8.16649,1.26744 0,0 -0.65332,-4.57324 -0.65332,-4.57324 0,0 2.61328,-3.91991 2.61328,-3.91991 -2.00569,-0.69905 -4.6647,-1.48957 -6.2392,-2.93994 -2.04489,-1.88156 -3.345,-5.65775 -7.48051,-5.21349 -3.59979,0.39199 -6.19347,2.92034 -7.44784,6.19347 -0.68599,1.79663 -0.53572,3.48219 -1.92729,4.97176 -1.33931,1.4373 -3.91992,2.18862 -5.65122,3.31233 -2.8158,1.82276 -7.5197,5.54015 -9.66259,8.0489 -1.46997,1.72476 -5.52055,8.34289 -6.30453,10.45311 -1.50917,4.05711 -1.54837,8.19263 -6.42867,10.08725 -1.41117,0.54879 -7.15385,0.39853 -8.96354,0.36586 -2.05796,-0.0392 -4.03098,-0.0523 -5.21349,-2.05796 -0.73172,-1.2413 -0.65332,-3.0706 -0.66639,-4.47523 0,0 0,-16.33299 0,-16.33299 0,0 0,-75.13174 0,-75.13174 0,0 -42.465767,0 -42.465767,0 0,0 0,75.13174 0,75.13174 0,0 0,16.33299 0,16.33299 -0.01307,1.67249 0.104531,3.65858 -1.045311,5.02402 -1.483036,1.75743 -4.063648,1.50264 -6.141204,1.50917 0,0 -41.159128,0 -41.159128,0 -6.324133,-0.0131 -7.173448,-0.86238 -7.186515,-7.18651 0,0 0,-139.81038 0,-139.81038 0,0 -9.146473,0 -9.146473,0 z m 162.676558,16.33299 c 0,0 0,26.13278 0,26.13278 0,0 26.13278,0 26.13278,0 0,0 0,-26.13278 0,-26.13278 0,0 -26.13278,0 -26.13278,0 z m 32.66598,0 c 0,0 0,26.13278 0,26.13278 0,0 26.13278,0 26.13278,0 0,0 0,-26.13278 0,-26.13278 0,0 -26.13278,0 -26.13278,0 z m -32.66598,32.66598 c 0,0 0,26.13278 0,26.13278 0,0 15.02635,0 15.02635,0 -0.35279,-7.47398 -2.48262,-5.90601 -4.46217,-9.80633 -1.38504,-2.73741 0.19599,-3.12287 -2.72435,-8.48662 4.8803,1.82929 8.54542,1.81623 12.41307,-1.95996 1.11065,3.99832 1.35238,5.80148 5.87988,6.5332 0,0 0,-12.41307 0,-12.41307 0,0 -26.13278,0 -26.13278,0 z m 32.66598,0 c 0,0 0,8.49315 0,8.49315 11.09989,0.10453 17.29336,6.61159 13.7197,17.63963 0,0 12.41308,0 12.41308,0 0,0 0,-26.13278 0,-26.13278 0,0 -26.13278,0 -26.13278,0 z m -45.73237,86.89149 c -0.1764,3.70432 -0.54226,7.78757 1.30664,11.10643 0,0 -9.79979,-1.30664 -9.79979,-1.30664 2.56754,-5.89294 3.50179,-4.97176 7.18651,-9.79979 0,0 1.30664,0 1.30664,0 z m 5.22656,5.22655 c 0,0 -0.65332,0.65332 -0.65332,0.65332 0,0 0,-0.65332 0,-0.65332 0,0 0.65332,0 0.65332,0 z m 1.30663,5.87988 c -1.93382,-1.27397 -1.94035,-1.63983 -1.95995,-3.91992 0,0 1.95995,3.91992 1.95995,3.91992 z m -29.39937,-0.65332 c 0,0 -0.65332,0.65332 -0.65332,0.65332 0,0 0,-0.65332 0,-0.65332 0,0 0.65332,0 0.65332,0 z"
     inkscape:connector-curvature="0"
     style="fill:#000000;fill-opacity:1;stroke:none;stroke-width:1" />
</svg>
