<?xml version="1.0" encoding="UTF-8" standalone="no"?>
<svg
   xmlns:dc="http://purl.org/dc/elements/1.1/"
   xmlns:cc="http://creativecommons.org/ns#"
   xmlns:rdf="http://www.w3.org/1999/02/22-rdf-syntax-ns#"
   xmlns:svg="http://www.w3.org/2000/svg"
   xmlns="http://www.w3.org/2000/svg"
   xmlns:sodipodi="http://sodipodi.sourceforge.net/DTD/sodipodi-0.dtd"
   xmlns:inkscape="http://www.inkscape.org/namespaces/inkscape"
   width="100"
   height="100"
   viewBox="0 0 333.33269 333.33269"
   id="svg2"
   version="1.1"
   inkscape:version="0.91 r13725"
   sodipodi:docname="Attack.2.svg">
  <metadata
     id="metadata9">
    <rdf:RDF>
      <cc:Work
         rdf:about="">
        <dc:format>image/svg+xml</dc:format>
        <dc:type
           rdf:resource="http://purl.org/dc/dcmitype/StillImage" />
        <dc:title></dc:title>
      </cc:Work>
    </rdf:RDF>
  </metadata>
  <defs
     id="defs7" />
  <sodipodi:namedview
     pagecolor="#ffffff"
     bordercolor="#666666"
     borderopacity="1"
     objecttolerance="10"
     gridtolerance="10"
     guidetolerance="10"
     inkscape:pageopacity="0"
     inkscape:pageshadow="2"
     inkscape:window-width="1218"
     inkscape:window-height="697"
     id="namedview5"
     showgrid="false"
     units="px"
     inkscape:zoom="1.5733302"
     inkscape:cx="75.000148"
     inkscape:cy="75.000148"
     inkscape:window-x="54"
     inkscape:window-y="-8"
     inkscape:window-maximized="1"
     inkscape:current-layer="svg2" />
  <path
     id="Attack"
     d="m 171.95688,16.742067 c 0,0 7.33266,0.466624 7.33266,0.466624 14.28758,1.044348 27.92336,4.347748 41.32953,9.362101 14.38386,5.37728 29.53062,14.161656 41.32953,23.975568 50.94346,42.366463 68.25298,111.30826 43.69968,172.70262 -6.55495,16.39108 -15.9689,30.78235 -27.59746,43.99595 -11.39895,12.93955 -26.02723,24.33109 -41.43322,32.16 -25.47914,12.94696 -47.5734,17.50209 -75.99301,17.16879 -12.39885,-0.14813 -29.53802,-3.62189 -41.32952,-7.55486 C 97.489663,301.75286 77.017474,289.40585 60.633797,273.23697 16.267511,229.43359 4.2686154,160.34365 30.177341,103.92662 47.301691,66.618947 78.017382,38.799293 116.62864,25.05982 c 10.7842,-3.836684 21.98317,-6.236463 33.33027,-7.5993 0,0 6.66605,-0.718453 6.66605,-0.718453 0,0 15.33192,0 15.33192,0 z M 74.706575,239.64747 c -2.355338,2.35534 0,9.42876 4.718085,14.13944 4.710677,4.71808 11.7841,7.07342 14.139439,4.71808 0,0 40.062981,-40.07038 40.062981,-40.07038 0,0 28.28628,18.85752 32.99696,18.85752 0,0 9.42876,-9.42876 11.7841,-11.7841 -4.71068,0 -32.99696,-18.85752 -32.99696,-18.85752 0,0 103.70156,-98.98349 103.70156,-98.98349 0,0 0,-23.568201 0,-23.568201 0,0 -23.5682,0 -23.5682,0 0,0 -98.98348,103.701571 -98.98348,103.701571 0,0 -18.85752,-28.28629 -18.85752,-32.99697 0,0 -9.428764,9.42876 -11.784102,11.7841 0,4.71068 18.857522,32.99697 18.857522,32.99697 0,0 -40.070385,40.06298 -40.070385,40.06298 z"
     style="fill:#000000;fill-opacity:1;stroke:none;stroke-width:1"
     inkscape:connector-curvature="0" />
</svg>
