<?xml version="1.0" encoding="UTF-8" standalone="no"?>
<svg
   xmlns:dc="http://purl.org/dc/elements/1.1/"
   xmlns:cc="http://creativecommons.org/ns#"
   xmlns:rdf="http://www.w3.org/1999/02/22-rdf-syntax-ns#"
   xmlns:svg="http://www.w3.org/2000/svg"
   xmlns="http://www.w3.org/2000/svg"
   xmlns:sodipodi="http://sodipodi.sourceforge.net/DTD/sodipodi-0.dtd"
   xmlns:inkscape="http://www.inkscape.org/namespaces/inkscape"
   width="100"
   height="100"
   viewBox="0 0 333.33269 333.33269"
   id="svg2"
   version="1.1"
   inkscape:version="0.91 r13725"
   sodipodi:docname="bee.svg">
  <metadata
     id="metadata9">
    <rdf:RDF>
      <cc:Work
         rdf:about="">
        <dc:format>image/svg+xml</dc:format>
        <dc:type
           rdf:resource="http://purl.org/dc/dcmitype/StillImage" />
        <dc:title></dc:title>
      </cc:Work>
    </rdf:RDF>
  </metadata>
  <defs
     id="defs7" />
  <sodipodi:namedview
     pagecolor="#ffffff"
     bordercolor="#666666"
     borderopacity="1"
     objecttolerance="10"
     gridtolerance="10"
     guidetolerance="10"
     inkscape:pageopacity="0"
     inkscape:pageshadow="2"
     inkscape:window-width="1218"
     inkscape:window-height="697"
     id="namedview5"
     showgrid="false"
     units="px"
     inkscape:zoom="3.1466604"
     inkscape:cx="52.73038"
     inkscape:cy="80.900548"
     inkscape:window-x="54"
     inkscape:window-y="-8"
     inkscape:window-maximized="1"
     inkscape:current-layer="svg2" />
  <path
     id="Bee"
     d="m 257.76202,175.30296 c 5.49027,1.87098 15.42185,8.22621 22.39051,5.74792 6.34296,-2.25132 10.4346,-12.7718 14.95564,-16.71621 7.30606,-6.37976 10.12174,-4.06097 10.96216,-6.208 0.84654,-2.14704 -8.9194,-8.38571 -24.91789,-9.20158 -13.56313,-0.69932 -27.01585,4.41676 -41.18015,5.4412 -17.21923,1.24528 -33.1257,-1.5336 -33.1257,-1.5336 0,0 3.91374,1.92006 5.98103,4.90751 0.31899,0.73613 43.39467,17.0352 44.9344,17.56276 z m -43.47441,-9.74141 c 0.65024,4.33088 -0.0675,8.22008 1.45385,13.03557 2.9261,9.25066 9.5083,16.86957 9.5083,16.86957 0,0 23.03463,3.17148 31.05841,-1.68696 3.9076,-2.60711 -0.69319,-10.04199 -2.84022,-12.72885 -0.71159,-0.82814 -39.3153,-16.34815 -39.18034,-15.48933 z m -93.78254,-7.82135 c 2.07343,-2.98745 5.98103,-4.90751 5.98103,-4.90751 0,0 -15.90647,2.77888 -33.125696,1.5336 -14.164302,-1.02444 -27.617016,-6.14052 -41.174015,-5.4412 -16.004619,0.81587 -25.764431,7.05454 -24.92402,9.20158 0.846546,2.14703 3.656096,-0.17176 10.968287,6.208 4.51491,3.94441 8.606547,14.46489 14.949504,16.71621 6.968666,2.47829 16.900241,-3.87694 22.390518,-5.74792 1.539731,-0.52756 44.615402,-16.82663 44.934392,-17.56276 z m -40.64032,23.31068 c -2.147036,2.68686 -6.747827,10.12174 -2.834088,12.72885 8.017646,4.85844 31.052278,1.68696 31.052278,1.68696 0,0 6.5822,-7.61891 9.5083,-16.86957 1.52138,-4.81549 0.8036,-8.70469 1.45998,-13.03557 0.12883,-0.85882 -38.474881,14.66119 -39.18647,15.48933 z m 109.49884,23.92411 c 6.64967,-3.1224 9.96838,-11.80869 9.96838,-11.80869 l -4.14071,-6.90119 c 0,0 -4.8155,6.56993 -11.0419,9.5083 -7.46555,3.52727 -17.48301,3.42912 -17.48301,3.42912 0,0 -10.01746,0.0982 -17.48301,-3.42912 -6.2264,-2.93837 -11.0419,-9.5083 -11.0419,-9.5083 l -4.14071,6.90119 c 0,0 3.3187,8.68629 9.96838,11.80869 9.24453,4.34315 22.69724,4.17752 22.69724,4.17752 0,0 13.45271,0.16563 22.69724,-4.17752 z M 178.04564,132.1414 c 4.61919,-1.12873 8.25075,-4.4597 8.25075,-4.4597 l -3.01198,-7.36127 c 0,0 -3.61316,-1.71149 -7.69253,-2.23291 -4.22659,-0.5337 -8.92553,-0.75453 -8.92553,-0.75453 0,0 -4.69894,0.22083 -8.92554,0.75453 -4.07936,0.52142 -7.69252,2.23291 -7.69252,2.23291 l -3.01198,7.36127 c 0,0 3.63155,3.33097 8.25075,4.4597 5.16515,1.26368 11.37929,1.25141 11.37929,1.25141 0,0 6.21413,0.0123 11.37929,-1.25141 z m 13.15826,90.3166 c 8.44092,-3.39232 13.64902,-10.12174 13.64902,-10.12174 l -1.5336,-9.81502 c 0,0 -7.60051,9.02982 -15.94941,11.96205 -9.85183,3.4598 -20.70356,3.58249 -20.70356,3.58249 0,0 -10.85173,-0.12269 -20.70356,-3.58249 -8.3489,-2.93223 -15.94941,-11.96205 -15.94941,-11.96205 l -1.5336,9.81502 c 0,0 5.2081,6.72942 13.64902,10.12174 10.44072,4.18979 24.53755,4.14071 24.53755,4.14071 0,0 14.09682,0.0491 24.53755,-4.14071 z m -58.89013,15.64269 c -10.60636,-12.38533 -8.58814,-35.27273 -8.58814,-35.27273 0,0 -4.49038,5.49641 -11.0419,9.5083 -4.14685,2.53964 -10.71678,-1.38024 -13.649016,3.52727 -1.245281,2.08569 -0.368064,5.4044 -0.766799,8.43479 -0.466213,3.52114 -2.018214,4.71734 -2.300396,8.43478 -0.521423,6.86438 0.15336,15.92487 -2.09796,18.86324 -2.919969,3.81559 -5.821535,5.30012 -6.950262,5.31852 -1.116459,0.0184 4.435162,-3.2819 5.318514,-10.22603 0.263779,-2.09796 -1.177802,-4.92591 -1.177802,-7.51462 0,-2.80955 1.417043,-5.4044 1.226877,-8.28143 -0.245375,-3.63155 -1.140996,-7.02387 -0.04908,-9.96838 4.502641,-12.16449 12.164484,-17.78972 12.164484,-17.78972 0,0 -24.273766,0.6073 -33.021404,-5.10995 -6.342958,-4.14685 2.042751,-15.13354 2.042751,-15.13354 0,0 -14.397409,6.66808 -25.764431,2.45376 -7.361266,-2.7298 -9.293599,-13.47112 -15.133537,-18.40317 -1.926197,-1.62561 -17.642501,-4.04256 -15.691765,-8.58814 2.392411,-5.56389 23.476304,-13.28708 32.463183,-13.90666 14.035481,-0.9631 27.751974,4.02416 41.713842,4.90751 18.654671,1.18394 35.781891,-1.42931 35.781891,-1.42931 0,0 -9.31201,-3.22055 -16.15184,-10.42846 -3.00585,-3.16534 -2.75435,-9.7046 -5.72952,-12.67978 -3.91989,-3.92601 -8.747645,-4.21432 -11.85778,-6.95026 -2.692997,-2.36788 -3.613155,-7.15883 -7.361266,-10.6309 -4.698942,-4.36155 -11.244334,-7.882686 -15.133536,-11.041896 -6.845978,-5.576159 -9.57578,-9.361077 -8.993013,-9.815022 0.803604,-0.631842 7.796807,2.447621 17.581156,9.404018 3.398452,2.410814 4.705076,5.90128 8.588144,8.99915 4.079369,3.24509 8.858057,5.64363 13.495645,8.99301 2.87091,2.07342 3.66223,5.12835 6.39204,7.31219 4.11617,3.28803 10.01133,5.66818 13.23801,8.23235 9.50217,7.53303 15.74698,10.93762 15.74698,10.93762 0,0 1.38637,-6.45952 3.22055,-11.8087 1.68696,-4.90751 3.83399,-8.74151 3.83399,-8.74151 0,0 -4.66827,-1.31275 -8.89486,-5.98102 -1.79123,-1.98141 -2.27586,-5.98103 -4.29407,-8.43479 -2.17771,-2.64392 -4.55784,-4.40449 -6.74783,-7.207905 -1.80964,-2.318798 -2.1961,-5.704981 -3.83399,-7.974705 -5.52095,-7.661851 -10.98669,-13.262547 -10.73518,-13.649014 0.36807,-0.564364 7.01774,4.674404 14.1091,11.501979 1.80963,1.742166 3.58862,3.091731 5.36758,5.06087 2.23293,2.472158 2.41082,7.060685 4.60079,9.354945 2.02435,2.11636 4.30634,3.11627 6.13439,4.75415 4.50878,4.03643 7.66799,7.36126 7.66799,7.36126 0,0 -2.693,-5.90128 -0.15336,-9.35494 1.38024,-1.87712 4.58852,-1.68695 6.90119,-2.60711 2.63166,-1.04285 4.29408,-3.067197 4.29408,-3.067197 0,0 -17.41553,-12.274911 -16.25613,-13.802374 1.03671,-1.367969 13.38523,10.894674 18.2498,11.655338 2.76661,0.429407 2.17157,-3.545677 3.0672,-5.36759 1.29435,-2.631653 3.42912,-3.631558 3.52727,-3.631558 0.0982,0 2.23292,0.999905 3.52727,3.631558 0.89562,1.821913 0.30059,5.796997 3.0672,5.36759 4.86457,-0.760664 17.21309,-13.023307 18.2498,-11.655338 1.1594,1.527463 -16.25613,13.802374 -16.25613,13.802374 0,0 1.66242,2.024347 4.29407,3.067197 2.31267,0.92016 5.52095,0.72999 6.90119,2.60711 2.53964,3.45366 -0.15336,9.35494 -0.15336,9.35494 0,0 3.15921,-3.32483 7.66799,-7.36126 1.82805,-1.63788 4.11004,-2.63779 6.13439,-4.75415 2.18997,-2.29426 2.36787,-6.882787 4.60079,-9.354945 1.77897,-1.969139 3.55794,-3.318704 5.36759,-5.06087 7.09135,-6.827575 13.74103,-12.066343 14.10909,-11.501979 0.25151,0.386467 -5.21423,5.987163 -10.73518,13.649014 -1.63788,2.269724 -2.02435,5.655907 -3.83399,7.974705 -2.18998,2.803415 -4.57012,4.563985 -6.74783,7.207905 -2.01821,2.45376 -2.50283,6.45338 -4.29407,8.43479 -4.22659,4.66827 -8.89486,5.98102 -8.89486,5.98102 0,0 2.14703,3.834 3.83399,8.74151 1.83418,5.34918 3.22055,11.8087 3.22055,11.8087 0,0 6.24481,-3.40459 15.74698,-10.93762 3.22669,-2.56417 9.12183,-4.94432 13.23801,-8.23235 2.7298,-2.18384 3.52114,-5.23877 6.39203,-7.31219 4.6376,-3.34938 9.41629,-5.74792 13.49565,-8.99301 3.88307,-3.09787 5.1897,-6.588336 8.58815,-8.99915 9.78435,-6.956397 16.77755,-10.03586 17.58116,-9.404018 0.58276,0.453945 -2.14704,4.238863 -8.99302,9.815022 -3.8892,3.15921 -10.43459,6.680346 -15.13353,11.041896 -3.74812,3.47207 -4.66827,8.26302 -7.36127,10.6309 -3.11013,2.73594 -7.9379,3.02425 -11.85777,6.95026 -2.97518,2.97518 -2.72367,9.51444 -5.72952,12.67978 -6.83984,7.20791 -16.15185,10.42846 -16.15185,10.42846 0,0 17.12722,2.61325 35.78189,1.42931 13.96187,-0.88335 27.67836,-5.87061 41.71384,-4.90751 8.98688,0.61958 30.07077,8.34277 32.46319,13.90666 1.95073,4.54558 -13.76557,6.96253 -15.69177,8.58814 -5.83994,4.93205 -7.77227,15.67337 -15.13354,18.40317 -11.36702,4.21432 -25.76443,-2.45376 -25.76443,-2.45376 0,0 8.38571,10.98669 2.04275,15.13354 -8.74763,5.71725 -33.02141,5.10995 -33.02141,5.10995 0,0 7.66185,5.62523 12.16449,17.78972 1.09192,2.94451 0.1963,6.33683 -0.0491,9.96838 -0.19017,2.87703 1.22688,5.47188 1.22688,8.28143 0,2.58871 -1.44159,5.41666 -1.17781,7.51462 0.88336,6.94413 6.43498,10.24443 5.31852,10.22603 -1.12873,-0.0184 -4.03029,-1.50293 -6.95026,-5.31852 -2.25132,-2.93837 -1.57654,-11.99886 -2.09796,-18.86324 -0.28219,-3.71744 -1.83419,-4.91364 -2.3004,-8.43478 -0.39874,-3.03039 0.47848,-6.3491 -0.7668,-8.43479 -2.93224,-4.90751 -9.50217,-0.98763 -13.64901,-3.52727 -6.55153,-4.01189 -11.0419,-9.5083 -11.0419,-9.5083 0,0 2.01821,22.8874 -8.58815,35.27273 -9.41628,10.99282 -34.35257,11.60013 -34.35257,11.60013 0,0 -24.93629,-0.60731 -34.35258,-11.60013 z"
     inkscape:connector-curvature="0"
     style="fill:#000000;fill-opacity:1;stroke:none;stroke-width:1"
     sodipodi:nodetypes="cccccscccccccccccsccccccccccccccccccccccccccccccccccccccccccccccccccccccscccccccccccccccccccscccccccccccccccccccccscccccccccccccccccccccscccccccccccccccccccscccccccccccc" />
</svg>
