<?xml version="1.0" encoding="UTF-8" standalone="no"?>
<svg
   xmlns:dc="http://purl.org/dc/elements/1.1/"
   xmlns:cc="http://creativecommons.org/ns#"
   xmlns:rdf="http://www.w3.org/1999/02/22-rdf-syntax-ns#"
   xmlns:svg="http://www.w3.org/2000/svg"
   xmlns="http://www.w3.org/2000/svg"
   xmlns:sodipodi="http://sodipodi.sourceforge.net/DTD/sodipodi-0.dtd"
   xmlns:inkscape="http://www.inkscape.org/namespaces/inkscape"
   width="100"
   height="100"
   viewBox="0 0 333.33269 333.33269"
   id="svg2"
   version="1.1"
   inkscape:version="0.91 r13725"
   sodipodi:docname="Binoculars.svg">
  <metadata
     id="metadata9">
    <rdf:RDF>
      <cc:Work
         rdf:about="">
        <dc:format>image/svg+xml</dc:format>
        <dc:type
           rdf:resource="http://purl.org/dc/dcmitype/StillImage" />
        <dc:title></dc:title>
      </cc:Work>
    </rdf:RDF>
  </metadata>
  <defs
     id="defs7" />
  <sodipodi:namedview
     pagecolor="#ffffff"
     bordercolor="#666666"
     borderopacity="1"
     objecttolerance="10"
     gridtolerance="10"
     guidetolerance="10"
     inkscape:pageopacity="0"
     inkscape:pageshadow="2"
     inkscape:window-width="1218"
     inkscape:window-height="697"
     id="namedview5"
     showgrid="false"
     units="px"
     inkscape:zoom="1.5733302"
     inkscape:cx="75.000148"
     inkscape:cy="75.317946"
     inkscape:window-x="54"
     inkscape:window-y="-8"
     inkscape:window-maximized="1"
     inkscape:current-layer="svg2" />
  <path
     id="Selection #21"
     d="m 123.67032,17.178724 c 0,0 -2.75975,11.0988 -2.75975,11.0988 0,0 0.75993,41.352997 0.75993,41.352997 0,0 89.9917,0 89.9917,0 0,0 0,-33.56915 0,-33.56915 0.01,-3.4828 -0.59995,-5.948034 1.99981,-8.392288 0,0 -3.99963,-10.490359 -3.99963,-10.490359 0,0 63.9941,0 63.9941,0 0,0 -3.99963,10.490359 -3.99963,10.490359 3.41968,3.22054 1.99981,14.057082 1.99981,18.882647 0,0 0,53.50083 0,53.50083 0,0 4.71956,43.01048 4.71956,43.01048 0,0 12.35886,87.06998 12.35886,87.06998 2.91973,18.51549 9.10916,50.57403 8.91918,68.18734 0,0 -1.99981,17.83361 -1.99981,17.83361 0,0 -107.99004,0 -107.99004,0 0,0 -1.99981,-18.88265 -1.99981,-18.88265 -0.07,-15.60965 3.72965,-30.76822 5.72947,-46.15758 0,0 6.26942,-39.86336 6.26942,-39.86336 0,0 -61.99428,0 -61.99428,0 0,0 6.26942,39.86336 6.26942,39.86336 0,0 5.72947,45.10855 5.72947,45.10855 0,0 -1.99981,19.93168 -1.99981,19.93168 0,0 -107.990045,0 -107.990045,0 0,0 -1.99981,-17.83361 -1.99981,-17.83361 -0.18998,-17.61331 5.99945,-49.67185 8.91918,-68.18734 0,0 12.35886,-87.06998 12.35886,-87.06998 0,0 4.71956,-41.96144 4.71956,-41.96144 0,0 0,-50.353726 0,-50.353726 0,0 0.75993,-22.47035 0.75993,-22.47035 0.47996,-3.755549 -1.74984,-7.385213 -2.75975,-11.0988 0,0 63.994105,0 63.994105,0 z M 74.674835,27.669083 c 0,0 3.99963,9.441324 3.99963,9.441324 0,0 -6.99935,1.049035 -6.99935,1.049035 0,0 0,52.451797 0,52.451797 0,0 39.996315,0 39.996315,0 0,0 0,-52.451797 0,-52.451797 0,0 -6.99936,-1.049035 -6.99936,-1.049035 0,0 3.99963,-9.441324 3.99963,-9.441324 0,0 -33.996865,0 -33.996865,0 z m 149.986165,0 c 0,0 3.99963,10.490359 3.99963,10.490359 0,0 -6.99936,0 -6.99936,0 0,0 0,52.451797 0,52.451797 0,0 39.99631,0 39.99631,0 0,0 0,-52.451797 0,-52.451797 0,0 -6.99935,0 -6.99935,0 0,0 3.99963,-10.490359 3.99963,-10.490359 0,0 -33.99686,0 -33.99686,0 z M 121.6705,80.12088 c 0,0 0,20.98072 0,20.98072 0.02,11.45547 6.72938,60.36153 8.99917,73.43252 0,0 12.9988,0 12.9988,0 -1.70984,-4.16468 -3.92963,-8.21396 -5.06953,-12.58844 -2.70975,-10.333 -1.92982,-23.78164 -1.92982,-34.61818 0,-10.83654 -0.77993,-24.28519 1.92982,-34.618189 1.1399,-4.37448 3.35969,-8.423758 5.06953,-12.588431 0,0 -21.99797,0 -21.99797,0 z m 24.9977,20.98072 c 0,0 0,52.4518 0,52.4518 0.19998,16.69016 11.16896,23.44595 25.9976,20.63454 10.52902,-1.99317 13.94871,-11.72823 13.9987,-21.68358 0,0 0,-43.01047 0,-43.01047 0,-7.68944 0.90992,-15.378871 -3.64966,-22.008778 -5.51949,-8.046105 -13.82872,-8.014634 -22.34794,-7.01805 -10.03907,2.62259 -13.87872,10.343494 -13.9987,20.634538 z m 42.99603,-20.98072 c 1.70984,4.164673 3.92963,8.213951 5.06953,12.588431 2.70975,10.332999 1.92982,23.781649 1.92982,34.618189 0,10.83654 0.77993,24.28518 -1.92982,34.61818 -1.1399,4.37448 -3.35969,8.42376 -5.06953,12.58844 0,0 12.9988,0 12.9988,0 2.35978,-13.61649 8.97917,-62.36519 8.99917,-74.48156 0,0 0,-19.93168 0,-19.93168 0,0 -21.99797,0 -21.99797,0 z M 70.675205,101.1016 c 0,0 -6.72938,58.74601 -6.72938,58.74601 0,0 -11.26896,77.62867 -11.26896,77.62867 0,0 77.992805,0 77.992805,0 0,0 -11.26896,-77.62867 -11.26896,-77.62867 0,0 -6.72938,-58.74601 -6.72938,-58.74601 0,0 -41.996125,0 -41.996125,0 z m 149.986165,0 c 0,0 -6.72938,58.74601 -6.72938,58.74601 0,0 -11.26896,77.62867 -11.26896,77.62867 0,0 77.9928,0 77.9928,0 0,0 -11.26896,-77.62867 -11.26896,-77.62867 0,0 -6.72938,-58.74601 -6.72938,-58.74601 0,0 -41.99612,0 -41.99612,0 z m -88.99179,83.92288 c 0.71993,2.98975 1.71984,13.11295 3.59967,14.66552 1.59985,1.32179 5.3995,1.07002 7.39931,1.07002 0,0 48.99548,0 48.99548,0 10.09907,-0.0734 6.67939,-1.90925 9.99908,-15.73554 0,0 -69.99354,0 -69.99354,0 z m -80.992535,62.94216 c -0.83992,19.15539 -8.28923,38.43667 -4.99953,57.69697 0,0 91.991515,0 91.991515,0 3.28969,-19.2603 -4.15962,-38.54158 -4.99954,-57.69697 0,0 -81.992445,0 -81.992445,0 z m 149.986165,0 c -0.83992,19.15539 -8.28923,38.43667 -4.99954,57.69697 0,0 91.99151,0 91.99151,0 3.2897,-19.2603 -4.15961,-38.54158 -4.99953,-57.69697 0,0 -81.99244,0 -81.99244,0 z"
     inkscape:connector-curvature="0"
     style="fill:#000000;stroke:none;stroke-width:1.02417731;fill-opacity:1" />
</svg>
