<?xml version="1.0" encoding="UTF-8" standalone="no"?>
<svg
   xmlns:dc="http://purl.org/dc/elements/1.1/"
   xmlns:cc="http://creativecommons.org/ns#"
   xmlns:rdf="http://www.w3.org/1999/02/22-rdf-syntax-ns#"
   xmlns:svg="http://www.w3.org/2000/svg"
   xmlns="http://www.w3.org/2000/svg"
   xmlns:sodipodi="http://sodipodi.sourceforge.net/DTD/sodipodi-0.dtd"
   xmlns:inkscape="http://www.inkscape.org/namespaces/inkscape"
   width="100"
   height="100"
   viewBox="0 0 333.33269 333.33269"
   id="svg2"
   version="1.1"
   inkscape:version="0.91 r13725"
   sodipodi:docname="Bird.svg">
  <metadata
     id="metadata9">
    <rdf:RDF>
      <cc:Work
         rdf:about="">
        <dc:format>image/svg+xml</dc:format>
        <dc:type
           rdf:resource="http://purl.org/dc/dcmitype/StillImage" />
        <dc:title></dc:title>
      </cc:Work>
    </rdf:RDF>
  </metadata>
  <defs
     id="defs7" />
  <sodipodi:namedview
     pagecolor="#ffffff"
     bordercolor="#666666"
     borderopacity="1"
     objecttolerance="10"
     gridtolerance="10"
     guidetolerance="10"
     inkscape:pageopacity="0"
     inkscape:pageshadow="2"
     inkscape:window-width="1218"
     inkscape:window-height="697"
     id="namedview5"
     showgrid="false"
     units="px"
     inkscape:zoom="1.5733302"
     inkscape:cx="75.000148"
     inkscape:cy="75.317946"
     inkscape:window-x="54"
     inkscape:window-y="-8"
     inkscape:window-maximized="1"
     inkscape:current-layer="svg2" />
  <path
     id="Selection #24"
     d="m 27.595049,282.00161 c -3.226656,1.11961 -8.630332,3.20333 -10.278648,-1.37619 -1.088511,-3.01672 1.422838,-5.6758 3.312181,-7.68954 0,0 13.186523,-12.45567 13.186523,-12.45567 0,0 14.70267,-13.27205 14.70267,-13.27205 0,0 7.97722,-9.12794 7.97722,-9.12794 0,0 9.97542,-8.58368 9.97542,-8.58368 6.9898,-6.01014 19.63207,-15.3791 24.40596,-22.64879 7.78285,-11.85699 7.37077,-31.17806 15.138075,-45.09544 14.08066,-25.23011 38.11341,-53.36811 59.19942,-73.01572 0,0 27.21275,-23.721752 27.21275,-23.721752 0,0 15.55015,-15.861151 15.55015,-15.861151 7.53405,-6.616582 18.65241,-11.56153 28.76778,-11.794782 15.24692,-0.342103 35.43101,10.923974 45.352,21.987904 4.22964,4.711695 5.03048,8.762509 7.93058,11.98139 3.70094,4.113014 9.00354,5.986807 13.58305,8.832484 5.62916,3.506558 9.39229,7.261919 12.44012,13.170975 0,0 -10.8851,0.777508 -10.8851,0.777508 0,0 -19.43769,-1.555015 -19.43769,-1.555015 -9.80436,-0.108851 -19.90419,2.519124 -27.20498,9.400069 -2.02152,1.90489 -4.82832,4.87497 -5.31038,7.70509 -0.45095,2.6202 1.22847,5.90906 1.78827,8.55259 0.78528,3.66983 0.33433,7.32412 -0.71531,10.8851 0,0 -7.68177,18.66018 -7.68177,18.66018 -4.65727,12.37014 -11.30496,30.15951 -17.98375,41.2079 -6.48441,10.7296 -14.99811,20.57284 -24.53035,28.66669 -4.84388,4.11302 -12.3546,7.6118 -12.3235,14.87372 0.0233,5.47365 6.60882,8.65366 10.76848,10.99396 11.54599,6.48441 20.92273,12.18354 26.83178,24.77138 1.56279,3.32773 3.98861,9.60999 1.92045,13.101 -3.99639,6.75654 -11.81812,-3.44436 -14.7882,-6.03346 -4.36959,-3.81756 -5.29482,-1.01076 -8.47483,-2.12259 -4.50176,-1.57057 -3.2422,-9.17459 -2.37917,-12.72002 0,0 -10.8851,-7.2386 -10.8851,-7.2386 0,0 -10.87733,-6.91981 -10.87733,-6.91981 0,0 -9.40784,-9.23679 -9.40784,-9.23679 0,0 -14.70267,2.4025 -14.70267,2.4025 0,0 -0.4043,12.44012 -0.4043,12.44012 0.66088,3.98861 7.40187,14.55493 10.03762,17.88267 3.79424,4.79722 8.90246,7.19194 10.90843,11.66261 2.10704,4.71947 -0.73863,6.49996 -4.9916,6.99756 -0.10885,9.58667 -5.03047,6.56217 -10.10759,2.33253 -0.16328,1.95932 -0.19438,4.16744 -2.44138,4.92939 -5.3337,1.8116 -6.28226,-7.12974 -6.67101,-10.37195 -0.59868,-5.01492 0.33433,-9.88211 -1.76494,-14.77264 -1.8738,-4.36181 -5.79243,-6.60103 -8.59146,-10.8851 -3.0867,-4.73502 -7.72842,-16.2188 -9.29899,-21.77021 -2.3092,0.74641 -4.52509,1.64054 -6.99757,1.22069 -4.85164,-0.80861 -5.7691,-4.38514 -11.66261,-0.62978 -4.95272,3.16445 -9.81214,8.44373 -13.99513,12.62672 0,0 -12.370145,12.44012 -12.370145,12.44012 0,0 -15.62013,16.25768 -15.62013,16.25768 -1.43839,1.32176 -2.93897,2.58132 -4.66504,3.52211 -11.40603,6.25116 -16.02443,-4.3385 -17.88267,-13.55973 -5.87796,3.35105 -19.43769,9.99874 -25.657746,12.17576 z M 267.84484,56.586658 c -4.36181,-3.148905 -9.79659,-6.764314 -14.77264,-8.778059 -4.58729,-1.858237 -11.37493,-3.669829 -16.32765,-3.389927 -17.98375,1.02631 -25.13682,11.717032 -36.61283,23.185266 0,0 -12.37014,10.760703 -12.37014,10.760703 -26.79291,22.330009 -60.4512,57.807679 -76.72443,88.830219 -5.38813,10.27088 -6.13453,31.90891 -14.725995,44.31793 -4.70392,6.79542 -16.93411,16.52981 -23.62068,22.08899 0,0 -11.53043,9.92099 -11.53043,9.92099 0,0 -7.97723,8.98021 -7.97723,8.98021 0,0 -20.14521,18.87788 -20.14521,18.87788 5.19375,-1.47726 21.60693,-10.07649 26.43525,-13.21762 0.80861,4.49399 0.16327,17.36174 4.82832,19.25885 3.70093,1.50059 10.64408,-6.74099 13.05435,-9.15126 10.05317,-10.05317 24.040535,-26.52078 34.987835,-34.61463 3.13336,-2.31697 6.07233,-4.23741 10.1076,-4.19854 7.23082,0.0778 6.35223,5.70691 13.99513,-0.83971 2.8379,3.27331 5.49698,5.25595 7.46407,9.33009 2.95453,6.11899 3.87976,13.66858 8.86359,18.66018 0,0 -0.71531,-6.22006 -0.71531,-6.22006 0,-8.3271 2.34807,-5.55918 -1.61722,-15.55015 5.69136,-1.64831 21.22596,-6.06455 26.43526,-4.57174 2.39472,0.69198 4.86719,3.07115 6.99756,4.57174 0.62201,-4.58729 1.7805,-10.07649 4.63395,-13.83185 1.61721,-2.13037 5.49697,-4.31517 7.80617,-6.12676 4.11302,-3.21111 8.70808,-7.2075 12.11357,-11.14168 5.31815,-6.15786 10.5741,-12.42457 14.74931,-19.43769 6.24339,-10.49635 12.52565,-27.88142 17.00409,-39.65288 2.26255,-5.94016 8.61478,-17.66497 8.07053,-23.32522 -0.34211,-3.65429 -2.8068,-8.09386 -2.56578,-11.66262 0.47428,-6.98979 9.50114,-15.013664 15.1614,-18.302521 0,0 6.53883,-3.459907 6.53883,-3.459907 1.97487,-2.013745 0.0155,-4.618394 0.80084,-7.782849 1.55501,-6.20451 8.36598,-6.950917 13.65303,-6.997567 -3.93419,-9.135713 -5.99459,-10.745153 -13.99514,-16.529808 z m -16.32765,0.03888 c 2.13037,-0.256577 4.15189,-0.248802 6.22006,0.435405 4.88274,1.617215 7.39409,6.422211 6.91204,11.390483 -0.70753,7.269695 -9.95987,11.211657 -16.16438,5.916832 -1.66387,-1.422839 -2.79125,-3.164455 -3.69316,-5.139325 -1.46172,-3.20333 -1.74939,-6.733214 -2.60465,-10.107596 3.49101,-1.337313 5.56695,-2.044844 9.33009,-2.495799 z m 0,10.185347 c 3.01673,6.437762 9.36896,-1.05741 3.06338,-2.900102 -0.97189,-0.147727 -2.79125,-0.108851 -3.84089,0 0.20215,0.940784 0.30323,1.889343 0.77751,2.900102 z m 36.54285,13.093226 c 0,0 -13.21763,0.987434 -13.21763,0.987434 0,0 1.55502,5.442552 1.55502,5.442552 0,0 10.8851,-0.777508 10.8851,-0.777508 0,0 11.66261,0 11.66261,0 0,0 -10.8851,-5.652478 -10.8851,-5.652478 z m -88.12269,51.525409 c 0,0 -10.86178,26.43525 -10.86178,26.43525 -5.83131,12.71225 -16.28101,30.49385 -26.97173,39.40409 -10.34863,8.62255 -24.73251,12.92994 -38.09787,12.68892 -2.85345,-0.0544 -8.62255,-1.7805 -4.86719,-5.64471 1.78049,-1.83492 6.30558,-1.25178 8.75473,-1.42284 5.34148,-0.36542 12.13689,-2.15369 17.10516,-4.16744 14.98257,-6.07233 25.26899,-20.7128 32.45316,-34.63796 0,0 14.04179,-31.10029 14.04179,-31.10029 1.46171,-3.73204 2.13037,-9.69552 6.43776,-10.89288 5.32592,1.30621 3.32773,5.50475 2.00597,9.33786 z m 11.92696,133.73128 c 4.95272,-0.311 5.38813,1.17404 9.33009,3.88754 -1.83492,-4.6806 -4.30739,-6.62436 -7.77508,-10.1076 0,0 -1.55501,6.22006 -1.55501,6.22006 z m 9.33009,3.88754 c 0,0 0.77751,0.77751 0.77751,0.77751 0,0 0,-0.77751 0,-0.77751 0,0 -0.77751,0 -0.77751,0 z m -58.31306,10.8851 c 0,0 4.66505,0.77751 4.66505,0.77751 0,0 -3.88754,-6.22006 -3.88754,-6.22006 0,0 -0.77751,5.44255 -0.77751,5.44255 z"
     inkscape:connector-curvature="0"
     style="fill:#000000;stroke:none;stroke-width:0.77750742;fill-opacity:1" />
</svg>
