<?xml version="1.0" encoding="UTF-8" standalone="no"?>
<svg
   xmlns:dc="http://purl.org/dc/elements/1.1/"
   xmlns:cc="http://creativecommons.org/ns#"
   xmlns:rdf="http://www.w3.org/1999/02/22-rdf-syntax-ns#"
   xmlns:svg="http://www.w3.org/2000/svg"
   xmlns="http://www.w3.org/2000/svg"
   xmlns:sodipodi="http://sodipodi.sourceforge.net/DTD/sodipodi-0.dtd"
   xmlns:inkscape="http://www.inkscape.org/namespaces/inkscape"
   width="100"
   height="100"
   viewBox="0 0 333.33269 333.33269"
   id="svg2"
   version="1.1"
   inkscape:version="0.91 r13725"
   sodipodi:docname="bomb.svg">
  <metadata
     id="metadata9">
    <rdf:RDF>
      <cc:Work
         rdf:about="">
        <dc:format>image/svg+xml</dc:format>
        <dc:type
           rdf:resource="http://purl.org/dc/dcmitype/StillImage" />
        <dc:title></dc:title>
      </cc:Work>
    </rdf:RDF>
  </metadata>
  <defs
     id="defs7" />
  <sodipodi:namedview
     pagecolor="#ffffff"
     bordercolor="#666666"
     borderopacity="1"
     objecttolerance="10"
     gridtolerance="10"
     guidetolerance="10"
     inkscape:pageopacity="0"
     inkscape:pageshadow="2"
     inkscape:window-width="1218"
     inkscape:window-height="697"
     id="namedview5"
     showgrid="false"
     units="px"
     inkscape:zoom="1.5733302"
     inkscape:cx="75.000148"
     inkscape:cy="75.000148"
     inkscape:window-x="54"
     inkscape:window-y="-8"
     inkscape:window-maximized="1"
     inkscape:current-layer="svg2" />
  <path
     id="Bomb"
     d="m 186.05284,247.24101 c -4.94501,-0.58817 -14.973,-0.90767 -17.37652,-2.30912 -1.16183,0.4139 -0.0944,4.05186 0.0363,5.54771 0.66078,7.66077 -17.7396,11.05911 -18.10267,15.96055 -0.36307,4.90144 11.61824,36.30699 17.42736,37.3962 5.80911,1.08921 13.07051,-4.35684 13.97819,-10.71056 0.90767,-6.35373 -15.24894,-25.23336 -15.24894,-25.23336 0,0 19.06117,-7.98754 20.33192,-12.34438 0.28319,-0.96576 0.34128,-7.13795 -1.04565,-8.30704 z m 76.20111,-51.78103 c -7.07986,6.7168 -9.98442,-17.06428 -9.98442,-17.06428 0,0 -14.88586,8.53214 -14.88586,8.53214 0,0 6.35372,22.69187 -11.61824,28.31945 -17.97196,5.62759 -20.51345,-24.14414 -20.51345,-24.14414 0,0 -25.05182,-3.44917 -20.15038,-13.9782 4.90144,-10.52902 34.25201,8.20538 55.91277,-1.27074 19.52589,-8.5394 13.07051,-38.30387 26.68563,-34.85471 13.61512,3.44916 -5.26451,24.32568 -5.26451,24.32568 0,0 6.89833,23.41801 -0.18154,30.1348 z m -41.93457,9.25829 c 0,0 2.17842,-11.61824 2.17842,-11.61824 0,0 6.35372,8.89521 6.35372,8.89521 0,0 -8.53214,2.72303 -8.53214,2.72303 z m 38.84848,-19.06117 c 0,0 -0.72614,-10.34749 -0.72614,-10.34749 0,0 4.35684,7.62446 4.35684,7.62446 0,0 -3.6307,2.72303 -3.6307,2.72303 z m -74.06626,59.18039 c 0,0 5.62758,-0.36307 5.62758,-0.36307 0,0 3.26763,23.96261 3.26763,23.96261 0,0 -0.36307,27.04871 -0.36307,27.04871 0,0 -4.71991,11.98131 2.35996,16.33815 7.2614,4.35684 16.88275,3.08609 19.60577,-2.72303 2.72303,-5.80912 -7.07986,-16.33814 -7.07986,-16.33814 0,0 2.17842,-17.79043 1.63381,-24.50722 -0.5446,-6.71679 -6.35372,-25.05182 -6.35372,-25.05182 22.8734,-0.90768 75.337,-31.40555 76.24468,-85.1399 0.66805,-39.74163 -26.06116,-75.380568 -57.43766,-89.061042 -0.95124,-0.421161 0.6971,-4.857876 2.12759,-12.838152 0.26141,-1.45228 7.74791,3.870325 14.04354,4.109951 6.28838,0.246888 7.01452,-6.535258 1.2054,-9.919069 -5.80912,-3.391071 -13.97819,-4.131734 -13.79666,-5.082977 0.38485,-2.02593 -1.25622,-9.214714 7.50829,-5.082978 8.75724,4.124474 8.60475,-14.820514 -0.72614,-11.378611 -9.33816,3.441903 6.77488,-9.200192 -3.39108,-11.857864 -10.16595,-2.664933 -1.93879,14.275909 -10.16595,9.192931 -8.22717,-5.082979 -14.03629,10.165957 -4.59647,9.200191 9.43982,-0.965766 3.49273,6.273848 2.33817,8.887951 -0.48651,1.096471 -11.29873,-7.196045 -16.86096,-3.804972 -5.5695,3.391073 -7.98754,6.295632 -4.35684,9.679441 3.6307,3.391073 17.51449,2.556012 16.94084,3.877587 -2.46888,5.627583 -3.9139,10.54355 -4.56016,10.405583 -6.54252,-1.365143 -13.12861,-1.71369 -19.58399,-0.907675 -43.02378,5.387958 -55.18663,19.06117 -55.18663,19.06117 0,0 -3.81223,-3.812234 -3.81223,-3.812234 0,0 5.26451,-5.446048 10.71056,-10.529027 5.44605,-5.082979 1.63382,-14.522796 -7.07986,-7.624468 -8.71368,6.898328 -12.34438,7.624468 -12.34438,7.624468 0,0 -9.25828,-5.446049 -4.1753,-9.258283 5.08298,-3.812233 0,-14.341258 -5.62758,-9.621352 -5.62759,4.719909 -5.99066,2.904559 -5.99066,-9.25828 0,-12.162842 -27.593311,2.904559 -14.704329,9.25828 12.888979,6.353723 13.070519,6.353723 8.169073,9.439818 -4.901444,3.086094 -3.630699,15.43047 4.719906,8.350607 8.35061,-7.079863 5.99066,8.532143 5.99066,8.532143 0,0 -4.53838,4.538374 -10.347496,8.895212 -5.809119,4.538374 0.544604,13.615122 7.987536,8.169073 7.44293,-5.446048 9.25828,-7.987538 9.25828,-7.806003 0,0.181535 5.99066,7.442933 5.99066,7.442933 -19.54769,18.756188 -20.87652,41.992668 -22.873407,62.811098 -1.996884,20.81842 13.978187,44.47606 12.888977,47.56215 -1.0892,3.0861 -17.971955,12.16284 -19.061165,14.34126 -1.08921,2.17842 3.812234,21.60266 1.996885,23.78108 -1.81535,2.17842 -40.845364,23.96262 -41.934574,29.40866 -1.089209,5.44605 26.685638,42.47918 33.039361,41.0269 6.535258,-1.45228 5.446049,-10.16595 2.904559,-16.15661 -2.541489,-5.99065 -21.239589,-17.06428 -20.876519,-21.05805 0.36307,-3.99377 40.300763,-20.33192 41.753043,-24.50722 1.45228,-4.1753 -3.81224,-27.77485 -1.63382,-30.1348 2.17842,-2.35996 17.60889,-0.54461 17.60889,-0.54461 0,0 11.61824,9.80289 11.61824,9.80289 0,0 -23.05494,32.31322 -23.41801,41.0269 -0.36307,8.71368 18.6981,27.23024 19.96884,30.86094 1.27075,3.6307 -5.26451,13.07052 -0.72614,15.43047 4.53838,2.35996 19.06117,-1.99688 20.69499,-5.99065 1.63381,-3.99377 -5.62758,-12.70745 -6.89833,-14.88587 -1.27074,-2.17842 -18.33503,-25.9595 -18.33503,-25.9595 0,0 21.05806,-32.85782 21.05806,-32.85782 0,0 19.30805,7.31223 35.03624,8.53214 z"
     style="fill:#000000;fill-opacity:1;stroke:none;stroke-width:1"
     inkscape:connector-curvature="0" />
</svg>
