<?xml version="1.0" encoding="UTF-8" standalone="no"?>
<svg
   xmlns:dc="http://purl.org/dc/elements/1.1/"
   xmlns:cc="http://creativecommons.org/ns#"
   xmlns:rdf="http://www.w3.org/1999/02/22-rdf-syntax-ns#"
   xmlns:svg="http://www.w3.org/2000/svg"
   xmlns="http://www.w3.org/2000/svg"
   xmlns:sodipodi="http://sodipodi.sourceforge.net/DTD/sodipodi-0.dtd"
   xmlns:inkscape="http://www.inkscape.org/namespaces/inkscape"
   width="100"
   height="100"
   viewBox="0 0 333.33269 333.33266"
   id="svg2"
   version="1.1"
   inkscape:version="0.91 r13725"
   sodipodi:docname="boom.svg">
  <metadata
     id="metadata9">
    <rdf:RDF>
      <cc:Work
         rdf:about="">
        <dc:format>image/svg+xml</dc:format>
        <dc:type
           rdf:resource="http://purl.org/dc/dcmitype/StillImage" />
        <dc:title></dc:title>
      </cc:Work>
    </rdf:RDF>
  </metadata>
  <defs
     id="defs7" />
  <sodipodi:namedview
     pagecolor="#ffffff"
     bordercolor="#666666"
     borderopacity="1"
     objecttolerance="10"
     gridtolerance="10"
     guidetolerance="10"
     inkscape:pageopacity="0"
     inkscape:pageshadow="2"
     inkscape:window-width="1218"
     inkscape:window-height="697"
     id="namedview5"
     showgrid="false"
     units="px"
     inkscape:zoom="1.5733302"
     inkscape:cx="75.000148"
     inkscape:cy="75.000148"
     inkscape:window-x="54"
     inkscape:window-y="-8"
     inkscape:window-maximized="1"
     inkscape:current-layer="svg2" />
  <path
     id="Boom"
     d="m 169.1764,16.666613 -19.09293,93.964647 -75.376755,-74.366693 35.675815,92.457113 -74.871722,1.50753 56.276278,36.68587 -72.859163,38.69089 c 0,0 93.964647,17.0879 92.962137,17.59293 -1.00251,0.49749 -37.183345,74.3667 -37.183345,74.3667 l 75.874235,-53.76624 18.59545,72.8667 c 0,0 21.61051,-89.9546 21.61051,-90.45209 0,-0.50503 60.79888,64.31898 60.79888,64.31898 l -27.13563,-82.91442 89.95461,-18.59545 -86.93954,-36.18084 73.37173,-60.798884 -75.37675,18.090424 18.58791,-74.879261 -56.27628,68.849121 z M 164.14877,137.2694 c 0,0.49749 5.02763,-25.1306 5.02763,-25.1306 l 17.58539,21.10548 16.58288,-18.09041 -10.55274,27.64065 c 0,0 24.12056,-6.03014 23.11805,-6.03014 -1.00251,0 -14.57033,30.1507 -14.57033,30.1507 l 22.108,16.58289 -23.11805,2.01256 3.01507,20.60046 -14.0653,-10.55274 -20.10297,26.13311 0,-16.58288 -36.68587,20.60046 7.53768,-28.13813 c 0,0 -41.70596,-1.01005 -42.210984,-1.01005 -0.497487,0 29.653214,-17.58541 30.150704,-17.08037 0.50502,0.49748 -26.63061,-29.1482 -26.63061,-29.1482 l 38.69089,6.03014 -10.04772,-35.17833 c 0,0 34.16828,15.58038 34.16828,16.0854 z"
     inkscape:connector-curvature="0"
     style="fill:#000000;fill-opacity:1;stroke:none;stroke-width:1"
     sodipodi:nodetypes="cccccccccccscccccccccsccccscccccccccsccccs" />
</svg>
