<?xml version="1.0" encoding="UTF-8" standalone="no"?>
<svg
   xmlns:dc="http://purl.org/dc/elements/1.1/"
   xmlns:cc="http://creativecommons.org/ns#"
   xmlns:rdf="http://www.w3.org/1999/02/22-rdf-syntax-ns#"
   xmlns:svg="http://www.w3.org/2000/svg"
   xmlns="http://www.w3.org/2000/svg"
   xmlns:sodipodi="http://sodipodi.sourceforge.net/DTD/sodipodi-0.dtd"
   xmlns:inkscape="http://www.inkscape.org/namespaces/inkscape"
   width="100"
   height="100"
   viewBox="0 0 333.33269 333.33269"
   id="svg2"
   version="1.1"
   inkscape:version="0.91 r13725"
   sodipodi:docname="Bribe.1.svg">
  <metadata
     id="metadata9">
    <rdf:RDF>
      <cc:Work
         rdf:about="">
        <dc:format>image/svg+xml</dc:format>
        <dc:type
           rdf:resource="http://purl.org/dc/dcmitype/StillImage" />
        <dc:title></dc:title>
      </cc:Work>
    </rdf:RDF>
  </metadata>
  <defs
     id="defs7" />
  <sodipodi:namedview
     pagecolor="#ffffff"
     bordercolor="#666666"
     borderopacity="1"
     objecttolerance="10"
     gridtolerance="10"
     guidetolerance="10"
     inkscape:pageopacity="0"
     inkscape:pageshadow="2"
     inkscape:window-width="1218"
     inkscape:window-height="697"
     id="namedview5"
     showgrid="false"
     units="px"
     inkscape:zoom="1.5733302"
     inkscape:cx="75.000148"
     inkscape:cy="75.000148"
     inkscape:window-x="54"
     inkscape:window-y="-8"
     inkscape:window-maximized="1"
     inkscape:current-layer="svg2" />
  <path
     id="Selection #16"
     d="M 135.56324,193.69651 C 124.3553,184.75324 115.0442,173.37942 108.70457,160.51985 87.103681,116.71224 99.984881,63.932495 139.89063,35.335661 c 9.12359,-6.541575 19.51654,-11.272855 30.29174,-14.316453 4.12544,-1.161184 11.66232,-2.776743 15.8671,-3.303242 0,0 5.76985,0 5.76985,0 2.54595,-0.360616 3.70713,-0.814992 6.49109,-0.656321 27.32026,1.550648 49.62074,9.866451 69.23825,29.505595 10.25591,10.27034 18.038,22.32933 22.83419,36.061583 10.37132,29.729177 6.556,63.288087 -11.31612,89.432737 -4.44279,6.50551 -8.12828,10.37132 -13.68177,15.8671 -8.07779,7.97682 -25.46669,19.86272 -36.78282,21.63695 0.62747,2.58201 0.90154,5.27942 1.07464,7.93355 1.31985,20.64887 -18.94676,40.6919 -39.29992,40.69911 -12.21767,0.007 -23.33906,-6.18096 -31.72699,-14.73476 -6.2098,-6.33963 -11.77771,-16.04741 -11.17909,-25.24312 0.49044,-7.48638 1.76702,-8.69805 3.23833,-15.14586 -5.25057,-1.65884 -10.84733,-5.95017 -15.14587,-9.37602 z m 75.72934,-30.29173 c 0.007,4.47885 -0.33898,14.13614 1.13955,18.0308 0.8799,2.31515 6.06555,8.17876 7.91912,10.81847 1.31264,1.8752 5.10632,9.32553 6.3829,10.0107 1.78144,0.9376 5.16402,-0.79336 6.91661,-1.50016 6.41175,-2.58201 12.49174,-6.28915 18.0308,-10.40738 21.86053,-16.27099 37.46078,-43.28833 37.50405,-70.94757 0,0 0,-6.49108 0,-6.49108 -0.0289,-16.32869 -6.73631,-35.816373 -16.17723,-49.043763 -9.11637,-12.780222 -20.40365,-22.76207 -34.30899,-30.060938 -9.98185,-5.236143 -26.9308,-9.592382 -38.22529,-9.606807 0,0 -6.49108,0 -6.49108,0 -7.16183,0.01442 -15.47042,1.629984 -22.35819,3.606159 -24.88971,7.147409 -44.73079,23.980959 -56.74651,46.880062 -7.45754,14.215478 -9.78712,30.327797 -9.60681,46.158837 0.27407,23.1299 12.7658,47.47868 29.57771,62.86256 3.44749,3.15178 13.70341,11.90753 18.02359,12.78744 3.53403,0.71401 5.04141,-3.08688 9.37601,-6.68582 6.57042,-5.45252 12.40519,-8.61872 20.91572,-9.82318 0,0 0.72123,-9.37601 0.72123,-9.37601 0,0 1.44247,-23.80065 1.44247,-23.80065 0,0 -8.65479,0 -8.65479,0 0,0 0,-6.49109 0,-6.49109 1.92569,0 7.45754,0.36783 8.85673,-0.71402 1.16118,-0.90154 1.73096,-3.64943 2.29352,-5.05583 1.67325,-4.19036 4.72407,-8.82067 9.76548,-8.71969 4.688,0.0866 7.79651,3.98841 9.42649,7.99846 0.66354,1.62998 1.15398,4.75291 2.5171,5.75543 1.29822,0.95202 4.47164,0.73565 6.0872,0.73565 0,0 0,6.49109 0,6.49109 0,0 -5.76985,0 -5.76985,0 0,0 1.44246,16.58833 1.44246,16.58833 z M 250.96033,62.288087 c 1.65162,0.519287 2.97868,1.291005 4.25526,2.466613 2.28631,2.105996 6.54879,8.878363 3.33931,11.655105 -2.06273,1.795867 -4.0966,0.06491 -5.24336,-1.759806 -1.31985,-2.091572 -1.43525,-3.620583 -3.82974,-5.192868 -4.45,-2.913777 -12.62156,2.033873 -16.55227,4.370664 -3.00753,1.788655 -7.28444,4.976499 -10.74635,2.596434 -2.344,-1.608346 -4.47164,-5.993435 -3.24554,-8.77739 1.2333,-2.798379 4.45721,-2.423339 6.05834,1.997812 7.78931,-2.4594 16.15559,-10.429011 25.96435,-7.356564 z m -79.20568,12.960535 c -2.06272,2.654132 -5.05583,2.322366 -8.06337,2.329578 0,0 -22.35818,-1.449676 -22.35818,-1.449676 0,0 -5.04862,0 -5.04862,0 -5.51022,-0.901539 -5.40924,-4.954862 -2.77675,-6.483873 1.78866,-0.9953 5.01256,-0.129822 7.10414,0 0,0 18.75202,1.435251 18.75202,1.435251 1.75981,0.03606 4.79619,0.18752 6.29636,-0.728444 2.12763,-1.298217 1.27658,-2.596434 4.58703,-4.341815 5.12074,0.209157 3.69992,6.4406 1.50737,9.238979 z m -2.35842,10.67423 c 2.13484,2.401701 1.01693,8.012885 -1.65884,9.27504 -0.90154,0.418315 -2.344,0.389466 -3.32488,0.411103 -1.66604,0.02885 -7.11134,0.180308 -8.3735,-0.411103 -3.46912,-1.637196 -3.3393,-7.089708 -1.21888,-9.693355 2.344,-0.9953 12.83793,-1.536223 14.5761,0.418315 z m 72.12317,0 c 2.13485,2.401701 1.01694,8.012885 -1.65883,9.27504 -0.90154,0.418315 -2.344,0.389466 -3.32488,0.411103 -1.66604,0.02885 -7.11134,0.180308 -8.3735,-0.411103 -3.46912,-1.637196 -3.3393,-7.089708 -1.21888,-9.693355 2.344,-0.9953 12.83792,-1.536223 14.57609,0.418315 z m -49.39716,58.729898 c -1.74538,11.27286 -1.72375,21.14652 -1.89684,32.45543 0.15146,1.39919 0.20916,3.73599 0,5.0342 -1.70932,5.51742 -6.36848,3.34652 -13.55195,6.05114 -4.20478,1.58671 -9.75105,5.22893 -12.85956,8.45283 -5.25057,5.45251 -9.40486,13.18412 -9.49862,20.85081 -0.0289,2.50989 -0.0793,4.75292 0.54814,7.21232 3.46191,13.48703 20.12236,26.51969 34.07098,26.68557 0,0 2.88493,0 2.88493,0 18.9684,-0.23079 38.5282,-22.86304 28.2218,-46.88006 -2.15648,-5.02699 -5.18566,-9.46977 -8.60429,-13.7034 -1.70211,-2.106 -5.23615,-5.66888 -6.10163,-7.93355 -0.62747,-1.65162 -0.53371,-3.99563 -0.53371,-5.76986 -0.0216,-11.32334 0.12982,-22.73322 -2.01945,-33.89789 -0.75008,-3.87301 -1.24051,-10.72472 -6.35405,-10.3641 -3.38979,2.46661 -3.69992,7.91912 -4.30575,11.80656 z m -76.29911,109.62723 c 0.38225,7.57294 -2.60365,11.40268 -3.38979,16.58833 0,0 0,8.65478 0,8.65478 0,0 2.50268,24.52188 2.50268,24.52188 0.43273,2.29352 1.24773,8.77018 0,10.50835 -1.73817,2.04109 -5.16402,1.74538 -7.50082,1.65162 0,0 -40.388969,0 -40.388969,0 -1.36313,0.10097 -3.76483,0.15867 -5.01978,0 -3.81531,-1.31985 -3.15899,-4.01726 -2.97147,-7.11134 0,0 0.98087,-11.53971 0.98087,-11.53971 0.29571,-2.45219 1.03136,-4.79619 -0.63468,-6.97431 0,0 -8.93606,-6.93825 -8.93606,-6.93825 -4.17593,-3.72156 -8.3735,-9.73663 -10.50114,-14.93671 -8.12107,-19.88436 2.83444,-41.47083 22.03363,-49.85875 5.32269,-2.32237 7.46475,-2.46662 12.98218,-3.18064 20.92293,-1.06021 39.811989,18.15341 40.843349,38.61475 z M 60.245011,237.04976 c 2.46661,-3.41864 6.80122,-3.63501 10.40737,-2.08436 13.55916,5.83476 5.6184,23.87998 10.81848,31.49619 2.69741,3.94513 8.8423,3.94513 11.53971,0 1.99781,-2.9282 2.22861,-7.29887 2.15648,-10.73914 -0.12261,-5.78428 -0.30291,-10.79684 0.67075,-16.58834 0.36061,-2.14927 1.76702,-6.49829 0.75729,-8.32301 -1.053,-1.89684 -5.22172,-4.19757 -7.19068,-5.18566 -9.51305,-4.76013 -18.98282,-4.12544 -28.12804,1.15397 -23.05778,13.32837 -23.09384,43.07197 0,56.34984 0,0 4.32739,-41.11021 4.32739,-41.11021 -6.85891,3.05081 -7.38541,-2.16369 -5.35875,-4.96928 z m 39.31434,30.93363 c -5.23614,10.96272 -19.40113,10.96272 -24.63727,0 -3.79368,-7.93355 -0.40389,-17.5043 -3.54846,-22.35819 0,0 -5.76986,63.4684 -5.76986,63.4684 0,0 43.273909,0 43.273909,0 0,0 -6.49109,-67.07456 -6.49109,-67.07456 -2.25024,5.6761 1.35592,17.2158 -2.827229,25.96435 z m -22.41588,23.09384 c 1.79587,-4.13987 5.16402,-3.83696 5.35154,-1.34871 0.1154,1.62277 -1.45689,3.69992 -1.47852,5.64725 -0.0144,0.88711 0.27406,2.23582 1.32706,2.45219 1.72375,0.3534 2.79838,-2.72626 3.35373,-3.88023 1.39919,-2.89214 2.94984,-5.32269 6.59206,-5.18566 3.52682,0.12982 4.71685,2.81281 6.19538,4.0389 1.543429,1.27658 3.108509,1.19003 3.844159,2.28631 1.91127,2.83444 -2.755099,3.13735 -4.269689,3.18784 -0.39668,1.83193 -2.89935,6.97431 -4.60867,3.2816 -1.38476,-2.9859 2.46661,-5.46693 -2.60365,-8.33022 -1.31985,4.88274 -4.24084,12.16718 -10.78962,9.6645 -2.14206,-0.81499 -2.69741,-2.344 -4.06054,-3.46912 -1.69489,-1.39919 -3.59173,-1.20446 -4.08938,-2.77674 -0.82942,-2.6325 2.9859,-2.64692 4.51491,-2.69741 0.19473,-1.03136 0.2957,-1.88242 0.72123,-2.8705 z"
     inkscape:connector-curvature="0"
     style="fill:#000000;stroke:none;stroke-width:0.72123176;fill-opacity:1" />
</svg>
