<?xml version="1.0" encoding="UTF-8" standalone="no"?>
<svg
   xmlns:dc="http://purl.org/dc/elements/1.1/"
   xmlns:cc="http://creativecommons.org/ns#"
   xmlns:rdf="http://www.w3.org/1999/02/22-rdf-syntax-ns#"
   xmlns:svg="http://www.w3.org/2000/svg"
   xmlns="http://www.w3.org/2000/svg"
   xmlns:sodipodi="http://sodipodi.sourceforge.net/DTD/sodipodi-0.dtd"
   xmlns:inkscape="http://www.inkscape.org/namespaces/inkscape"
   width="100"
   height="100"
   viewBox="0 0 333.33269 333.33269"
   id="svg2"
   version="1.1"
   inkscape:version="0.91 r13725"
   sodipodi:docname="Bribe.2.svg">
  <metadata
     id="metadata9">
    <rdf:RDF>
      <cc:Work
         rdf:about="">
        <dc:format>image/svg+xml</dc:format>
        <dc:type
           rdf:resource="http://purl.org/dc/dcmitype/StillImage" />
        <dc:title></dc:title>
      </cc:Work>
    </rdf:RDF>
  </metadata>
  <defs
     id="defs7" />
  <sodipodi:namedview
     pagecolor="#ffffff"
     bordercolor="#666666"
     borderopacity="1"
     objecttolerance="10"
     gridtolerance="10"
     guidetolerance="10"
     inkscape:pageopacity="0"
     inkscape:pageshadow="2"
     inkscape:window-width="1218"
     inkscape:window-height="697"
     id="namedview5"
     showgrid="false"
     units="px"
     inkscape:zoom="1.5733302"
     inkscape:cx="75.000148"
     inkscape:cy="75.000148"
     inkscape:window-x="54"
     inkscape:window-y="-8"
     inkscape:window-maximized="1"
     inkscape:current-layer="svg2" />
  <path
     id="Selection #17"
     d="m 168.07045,180.02161 c -10.34211,-8.25239 -18.93391,-18.74757 -24.78379,-30.61371 -19.93218,-40.42339 -8.04608,-89.12579 28.77688,-115.513472 8.41877,-6.036223 18.00884,-10.402003 27.95164,-13.210477 3.80675,-1.071479 10.76138,-2.562233 14.64133,-3.04806 0,0 5.32413,0 5.32413,0 2.34927,-0.332757 3.42074,-0.752032 5.98963,-0.605618 25.20972,1.430857 45.78745,9.104248 63.88947,27.226227 9.46362,9.47694 16.64453,20.604354 21.07021,33.27576 9.57011,27.43254 6.04953,58.39896 -10.44194,82.52389 -4.09957,6.00295 -7.50035,9.57011 -12.62482,14.64133 -7.45377,7.3606 -23.49934,18.32829 -33.94128,19.96546 0.579,2.38255 0.8319,4.87157 0.99162,7.32067 1.21789,19.0537 -17.48308,37.54837 -36.26392,37.55502 -11.27383,0.007 -21.53608,-5.70346 -29.27602,-13.59647 -5.73008,-5.84988 -10.86786,-14.80772 -10.31548,-23.29304 0.45255,-6.90804 1.63051,-8.02611 2.98816,-13.97581 -4.84495,-1.53069 -10.00935,-5.49051 -13.97582,-8.6517 z m 69.8791,-27.95164 c 0.007,4.13284 -0.31279,13.04409 1.05151,16.63788 0.81193,2.1363 5.59698,7.54694 7.30736,9.98273 1.21124,1.73034 4.71185,8.60511 5.88981,9.23735 1.64382,0.86517 4.76509,-0.73207 6.38229,-1.38427 5.91643,-2.38255 11.52672,-5.8033 16.63788,-9.60339 20.17177,-15.01402 34.56686,-39.94422 34.60679,-65.46673 0,0 0,-5.98964 0,-5.98964 -0.0266,-15.067265 -6.21591,-33.049487 -14.9275,-45.255032 -8.41212,-11.792929 -18.82743,-21.003663 -31.65856,-27.738677 -9.21073,-4.83164 -24.85034,-8.851352 -35.27231,-8.864662 0,0 -5.98964,0 -5.98964,0 -6.60856,0.01331 -14.2753,1.504064 -20.63097,3.327576 -22.96693,6.595255 -41.27525,22.128383 -52.36274,43.258487 -6.88142,13.117306 -9.03104,27.984915 -8.86466,42.592978 0.2529,21.34307 11.77962,43.81086 27.29278,58.0063 3.18116,2.90831 12.64479,10.98766 16.63122,11.79959 3.26103,0.65886 4.65196,-2.8484 8.6517,-6.16933 6.06285,-5.03129 11.44686,-7.9529 19.29994,-9.06431 0,0 0.66552,-8.6517 0.66552,-8.6517 0,0 1.33103,-21.962 1.33103,-21.962 0,0 -7.98618,0 -7.98618,0 0,0 0,-5.98964 0,-5.98964 1.77692,0 6.88142,0.33941 8.17252,-0.65886 1.07148,-0.8319 1.59724,-3.36751 2.11634,-4.66526 1.544,-3.86665 4.35913,-8.13925 9.01108,-8.04608 4.32585,0.0799 7.19422,3.6803 8.69828,7.38056 0.61228,1.50407 1.06483,4.38575 2.32265,5.31081 1.19793,0.87848 4.12619,0.67883 5.61695,0.67883 0,0 0,5.98964 0,5.98964 0,0 -5.32412,0 -5.32412,0 0,0 1.33103,15.30685 1.33103,15.30685 z M 275.2184,58.764735 c 1.52403,0.479171 2.74858,1.191272 3.92654,2.276062 2.10968,1.943305 6.04288,8.192488 3.08134,10.754721 -1.90338,1.657134 -3.78013,0.0599 -4.8383,-1.623857 -1.21789,-1.929994 -1.32438,-3.340881 -3.53389,-4.791705 -4.10622,-2.688681 -11.64651,1.876749 -15.27357,4.033018 -2.7752,1.650478 -6.7217,4.592055 -9.91618,2.395855 -2.16292,-1.484099 -4.12619,-5.530427 -2.99482,-8.099316 1.13804,-2.582199 4.11289,-2.236131 5.59033,1.843477 7.18757,-2.269407 14.90754,-9.62335 23.95855,-6.788255 z m -73.08688,11.959304 c -1.90338,2.449096 -4.66526,2.142959 -7.44046,2.149614 0,0 -20.63097,-1.337686 -20.63097,-1.337686 0,0 -4.65861,0 -4.65861,0 -5.08454,-0.831894 -4.99136,-4.572089 -2.56223,-5.982977 1.65047,-0.918411 4.62533,-0.119792 6.55532,0 0,0 17.3034,1.324376 17.3034,1.324376 1.62385,0.03327 4.42567,0.173029 5.80994,-0.672171 1.96327,-1.197927 1.17797,-2.395855 4.23268,-4.006401 4.72516,0.192999 3.41409,5.943046 1.39093,8.525245 z m -2.84175,9.849626 c 1.96992,2.216165 0.93837,7.393874 -1.53069,8.558525 -0.83189,0.385999 -2.16292,0.359379 -3.06802,0.379344 -1.53734,0.02662 -6.56198,0.166379 -7.72663,-0.379344 -3.20113,-1.510719 -3.08134,-6.542014 -1.12472,-8.944524 2.16292,-0.918411 11.84617,-1.417548 13.45006,0.385999 z m 66.55152,0 c 1.96993,2.216165 0.93838,7.393874 -1.53068,8.558525 -0.8319,0.385999 -2.16293,0.359379 -3.06803,0.379344 -1.53734,0.02662 -6.56198,0.166379 -7.72663,-0.379344 -3.20113,-1.510719 -3.08134,-6.542014 -1.12472,-8.944524 2.16292,-0.918411 11.84617,-1.417548 13.45006,0.385999 z M 63.052147,108.81148 c -1.04486,-1.75031 -2.9682,-4.41237 -1.94331,-6.50209 1.19793,-2.45575 4.85826,-2.14296 7.13433,-2.14961 0,0 33.275763,0 33.275763,0 2.86837,0 9.68324,-0.805276 11.12741,2.14961 1.351,2.74858 -4.74512,11.174 -6.3357,13.82275 -2.4491,4.08627 -2.702,5.30416 -6.788263,7.98619 6.022913,1.77027 12.238833,8.23907 15.739443,13.3103 4.7185,6.82819 7.84642,14.21541 7.83977,22.62752 -0.007,16.51809 -13.64307,32.08449 -29.568853,35.49193 -4.01971,0.85851 -7.26742,0.78531 -11.31375,0.39931 -7.69336,-0.73873 -15.30685,-5.31082 -21.29649,-9.93615 -0.19966,5.69016 -3.52723,5.9963 -7.98618,9.13087 -3.9332,2.76855 -8.21246,6.70174 -11.50011,10.22897 -11.87279,12.718 -17.98222,26.45423 -17.78256,43.86411 0.2662,22.38128 20.04531,45.26169 39.26539,54.73197 6.62188,3.26768 13.84938,5.7434 21.29649,5.82992 5.47719,0.0599 8.53191,0.11313 13.97582,-1.10476 15.107203,-3.38747 30.713533,-15.09388 39.644743,-27.5124 4.80502,-6.67512 9.04435,-14.6014 11.00097,-22.62752 4.15947,-17.03053 -1.47079,-34.33393 -11.97262,-47.91709 -4.85161,-6.28247 -11.45352,-12.43848 -18.04212,-16.8575 -1.94996,-1.31107 -6.70839,-3.57382 -6.10943,-6.40891 0.77866,-3.67365 4.73182,-1.99655 6.77495,-0.80528 5.85653,3.40078 9.86959,6.65515 14.64133,11.4269 12.51834,12.49837 20.74411,26.72709 22.0219,44.58952 0,0 0.35938,4.6586 0.35938,4.6586 -0.3261,6.53536 -1.34434,13.11065 -3.5472,19.29995 -9.00442,25.30954 -34.22079,47.13178 -61.427053,49.30136 0,0 -4.65861,0.49249 -4.65861,0.49249 0,0 -4.6586,-0.49249 -4.6586,-0.49249 -25.38276,-2.02982 -49.64079,-21.56934 -59.51038,-44.64276 -2.87502,-6.70839 -6.042874,-18.00218 -5.49715,-25.28958 1.59058,-21.19666 8.64504,-34.32062 23.74558,-49.24812 3.8733,-3.82671 13.01082,-11.85283 18.63443,-11.31376 -4.95809,-6.93467 -8.5186,-8.59846 -11.28714,-17.96891 -3.69361,-12.51835 3.12127,-25.86858 12.01255,-34.49366 4.23933,-4.11288 8.21911,-6.5287 13.25041,-9.43035 -4.35247,-2.56889 -7.87305,-10.19569 -10.51514,-14.64133 z m 6.52205,-1.99655 c 1.72368,5.45723 6.59525,9.48359 6.65515,15.30685 0,0 10.64824,-1.6172 10.64824,-1.6172 0,0 11.31376,2.28272 11.31376,2.28272 -1.58393,-5.90978 4.285923,-10.5817 5.989643,-15.97237 0,0 -34.606793,0 -34.606793,0 z m 150.685953,27.95164 c -1.61054,10.402 -1.59058,19.51291 -1.7503,29.94818 0.13976,1.2911 0.193,3.44737 0,4.6453 -1.57727,5.09119 -5.8765,3.08799 -12.50503,5.58367 -3.87996,1.46414 -8.99777,4.82499 -11.86614,7.79984 -4.84495,5.0313 -8.67832,12.16562 -8.76483,19.24005 -0.0266,2.31599 -0.0732,4.38574 0.50579,6.65515 3.19447,12.44514 18.56787,24.471 31.43894,24.62407 0,0 2.66206,0 2.66206,0 17.50305,-0.21297 35.55182,-21.09684 26.04161,-43.25849 -1.98989,-4.63865 -4.78506,-8.73822 -7.9396,-12.6448 -1.57062,-1.9433 -4.83164,-5.23095 -5.63026,-7.32066 -0.579,-1.52403 -0.49248,-3.68696 -0.49248,-5.32413 -0.02,-10.44858 0.11979,-20.97704 -1.86344,-31.27921 -0.69214,-3.57382 -1.14469,-9.89621 -5.86319,-9.56345 -3.12792,2.27606 -3.41409,7.30735 -3.97313,10.89448 z m -166.545183,21.962 c -0.25955,2.40251 -0.20631,6.3224 0.39265,8.6517 3.19448,12.44514 18.56788,24.471 31.43894,24.62407 5.63692,0.0666 8.88463,-0.32611 13.97582,-3.10796 10.914453,-5.96967 17.449813,-15.66623 17.303403,-28.17126 -0.15307,-12.87107 -12.17893,-28.24447 -24.624073,-31.59201 -2.78185,-0.55903 -6.46215,-0.43924 -9.31721,0 -12.71134,2.32265 -27.74533,16.46485 -29.16953,29.59546 z m 36.4902,51.91019 c 0,2.23613 -0.51245,7.94625 1.06482,9.49025 1.67045,1.64382 13.756203,2.09637 13.609793,7.17425 -0.0266,0.98497 -0.95834,2.99482 -1.36431,3.96647 -4.372433,-1.24451 -6.302433,-2.9815 -11.313763,-3.93319 -4.16612,-0.78531 -8.82473,-0.87848 -12.64479,1.33103 -4.23933,2.4491 -6.17598,7.0345 -2.94823,11.19397 6.13605,7.89966 24.710583,6.24253 29.422433,17.36329 0.57234,1.35099 1.02489,3.84668 1.13138,5.32412 0.73872,9.89621 -7.939603,15.76605 -16.957333,15.97236 0,0 0,11.97928 0,11.97928 0,0 -5.32412,0 -5.32412,0 0,-2.42913 0.54572,-9.27728 -1.06483,-10.92111 -1.07148,-1.09144 -4.03968,-1.41754 -5.59033,-1.83016 -3.44736,-0.91176 -12.0192,-3.9332 -12.65144,-7.88636 -0.21962,-1.35765 0.81193,-3.38747 1.33769,-4.65195 0,0 6.65515,4.07295 6.65515,4.07295 6.28246,3.58048 16.21195,5.60364 22.60089,1.27114 2.11634,-1.43086 3.54055,-3.44072 3.866653,-6.00961 0.78531,-6.1427 -4.898193,-9.35048 -9.829663,-11.08748 -9.18411,-3.22775 -21.38301,-4.88488 -22.28145,-16.86415 -0.49914,-6.58861 3.15454,-11.16069 8.97114,-13.74289 1.8701,-0.8319 5.83657,-1.49076 6.92136,-2.61548 1.57727,-1.63717 1.06483,-7.29405 1.06483,-9.59673 0,0 5.32412,0 5.32412,0 z"
     inkscape:connector-curvature="0"
     style="fill:#000000;fill-opacity:1;stroke:none;stroke-width:0.66551524" />
</svg>
