<?xml version="1.0" encoding="UTF-8" standalone="no"?>
<svg
   xmlns:dc="http://purl.org/dc/elements/1.1/"
   xmlns:cc="http://creativecommons.org/ns#"
   xmlns:rdf="http://www.w3.org/1999/02/22-rdf-syntax-ns#"
   xmlns:svg="http://www.w3.org/2000/svg"
   xmlns="http://www.w3.org/2000/svg"
   xmlns:sodipodi="http://sodipodi.sourceforge.net/DTD/sodipodi-0.dtd"
   xmlns:inkscape="http://www.inkscape.org/namespaces/inkscape"
   width="100"
   height="100"
   viewBox="0 0 333.33269 333.33266"
   id="svg2"
   version="1.1"
   inkscape:version="0.91 r13725"
   sodipodi:docname="bullet.svg">
  <metadata
     id="metadata9">
    <rdf:RDF>
      <cc:Work
         rdf:about="">
        <dc:format>image/svg+xml</dc:format>
        <dc:type
           rdf:resource="http://purl.org/dc/dcmitype/StillImage" />
        <dc:title></dc:title>
      </cc:Work>
    </rdf:RDF>
  </metadata>
  <defs
     id="defs7" />
  <sodipodi:namedview
     pagecolor="#ffffff"
     bordercolor="#666666"
     borderopacity="1"
     objecttolerance="10"
     gridtolerance="10"
     guidetolerance="10"
     inkscape:pageopacity="0"
     inkscape:pageshadow="2"
     inkscape:window-width="1218"
     inkscape:window-height="697"
     id="namedview5"
     showgrid="false"
     units="px"
     inkscape:zoom="1.5733302"
     inkscape:cx="75.000148"
     inkscape:cy="75.000148"
     inkscape:window-x="54"
     inkscape:window-y="-8"
     inkscape:window-maximized="1"
     inkscape:current-layer="svg2" />
  <path
     id="Selection #68"
     d="m 89.206366,144.20265 c 0,-33.10138 -2.833327,-61.021607 15.978224,-90.579513 5.22463,-8.202881 13.09418,-17.202863 20.97822,-22.876764 11.38404,-8.188389 24.92024,-14.057942 39.13036,-14.079681 47.44917,-0.07246 78.92012,47.195551 78.98534,91.304158 0,0 0,172.4634 0,172.4634 0,0 -18.11591,0 -18.11591,0 0,0 0,7.971 0,7.971 0,0 18.11591,0 18.11591,0 0,0 0,28.26081 0,28.26081 0,0 -155.072144,0 -155.072144,0 0,0 0,-28.26081 0,-28.26081 0,0 18.115904,0 18.115904,0 0,0 0,-7.971 0,-7.971 0,0 -18.115904,0 -18.115904,0 0,0 0,-136.2316 0,-136.2316 z M 222.69884,64.492677 c -4.55071,-8.623168 -9.67389,-15.043444 -16.82605,-21.673865 -5.35506,-4.963758 -12.07244,-9.210127 -18.84054,-11.949251 -5.31883,-2.144923 -12.37678,-3.782601 -18.1159,-4.028977 -5.26086,-0.231884 -10.85505,0.572462 -15.942,1.876807 -23.87676,6.137669 -41.45644,28.282551 -48.73178,50.992645 -2.84782,8.869547 -4.14492,18.289817 -4.891298,27.536174 0,0 134.782328,0 134.782328,0 -1.26811,-15.637648 -4.04347,-28.753563 -11.43476,-42.753533 z M 99.351272,117.39112 c 0,0 0,152.89823 0,152.89823 0,0 18.115908,0 18.115908,0 0,0 0,28.26081 0,28.26081 0,0 -18.115908,0 -18.115908,0 0,0 0,7.97099 0,7.97099 0,0 134.782328,0 134.782328,0 0,0 0,-7.97099 0,-7.97099 0,0 -18.1159,0 -18.1159,0 0,0 0,-28.26081 0,-28.26081 0,0 18.1159,0 18.1159,0 0,0 0,-152.89823 0,-152.89823 0,0 -134.782328,0 -134.782328,0 z"
     inkscape:connector-curvature="0"
     style="fill:#000000;fill-opacity:1;stroke:none;stroke-width:1" />
</svg>
