<?xml version="1.0" encoding="UTF-8" standalone="no"?>
<svg
   xmlns:dc="http://purl.org/dc/elements/1.1/"
   xmlns:cc="http://creativecommons.org/ns#"
   xmlns:rdf="http://www.w3.org/1999/02/22-rdf-syntax-ns#"
   xmlns:svg="http://www.w3.org/2000/svg"
   xmlns="http://www.w3.org/2000/svg"
   xmlns:sodipodi="http://sodipodi.sourceforge.net/DTD/sodipodi-0.dtd"
   xmlns:inkscape="http://www.inkscape.org/namespaces/inkscape"
   width="100"
   height="100"
   viewBox="0 0 333.33269 333.33269"
   id="svg2"
   version="1.1"
   inkscape:version="0.91 r13725"
   sodipodi:docname="Buttersword.svg">
  <metadata
     id="metadata9">
    <rdf:RDF>
      <cc:Work
         rdf:about="">
        <dc:format>image/svg+xml</dc:format>
        <dc:type
           rdf:resource="http://purl.org/dc/dcmitype/StillImage" />
        <dc:title></dc:title>
      </cc:Work>
    </rdf:RDF>
  </metadata>
  <defs
     id="defs7" />
  <sodipodi:namedview
     pagecolor="#ffffff"
     bordercolor="#666666"
     borderopacity="1"
     objecttolerance="10"
     gridtolerance="10"
     guidetolerance="10"
     inkscape:pageopacity="0"
     inkscape:pageshadow="2"
     inkscape:window-width="1218"
     inkscape:window-height="697"
     id="namedview5"
     showgrid="false"
     units="px"
     inkscape:zoom="1.5733302"
     inkscape:cx="75.000148"
     inkscape:cy="75.000148"
     inkscape:window-x="54"
     inkscape:window-y="-8"
     inkscape:window-maximized="1"
     inkscape:current-layer="svg2" />
  <path
     id="Selection #5"
     d="m 39.106862,125.34372 c -0.03791,2.77369 -0.31591,5.16196 -1.889138,7.55655 -3.923594,5.96437 -14.070603,4.81446 -17.918379,-0.61918 -2.344048,-3.29809 -2.350366,-8.09991 -2.306139,-11.99192 0,0 5.686369,-42.963671 5.686369,-42.963671 0,0 0,-38.540941 0,-38.540941 0.01895,-11.789738 7.164824,-18.935608 18.954562,-18.954562 0,0 32.222755,0 32.222755,0 18.025788,0.02527 31.729938,14.039012 43.595488,25.904568 0,0 65.70915,65.709146 65.70915,65.709146 0,0 36.11476,36.64549 36.11476,36.64549 7.09532,7.94196 14.92988,19.23256 15.06256,30.3273 0,0 0,15.16364 0,15.16364 0,0 9.47728,0 9.47728,0 0,0 0,-10.74091 0,-10.74091 0.0821,-5.86328 3.00114,-7.42387 6.95,-11.37274 0,0 15.16365,-15.16365 15.16365,-15.16365 2.78001,-2.78 10.05224,-12.02983 14.38652,-9.45833 1.72486,1.01723 2.06604,3.23492 2.40723,5.0356 0,0 1.529,13.26819 1.529,13.26819 0,0 0,14.53183 0,14.53183 -0.0253,17.95629 -7.44915,38.55358 -19.58638,51.80914 0,0 25.90456,25.27275 25.90456,25.27275 0,0 8.21365,8.03041 8.21365,8.03041 3.2665,2.26192 3.98677,-1.11832 7.58182,-1.54163 3.55714,-0.42332 8.50428,4.32164 9.64156,7.41123 2.085,5.67373 -5.9391,9.31933 -6.72256,12.26992 0,0 0.87191,6.68464 0.87191,6.68464 0,0 0,11.37274 0,11.37274 -0.006,1.60482 0.20219,4.09418 -1.01091,5.30728 -1.21309,1.21309 -3.70245,1.00459 -5.30727,1.01091 0,0 -11.37274,0 -11.37274,0 -2.363,-0.0316 -5.97069,-1.251 -7.12691,-0.68237 -3.05169,1.49741 -6.76047,9.07924 -12.45947,6.25501 -2.8495,-1.40896 -7.19642,-5.88223 -6.77942,-9.36356 0.42332,-3.59504 3.80355,-4.31532 1.54164,-7.58182 0,0 -11.18951,-11.37274 -11.18951,-11.37274 0,0 -22.74547,-22.74547 -22.74547,-22.74547 -3.10223,3.96782 -7.72083,6.56459 -12.00456,9.09819 -10.38078,6.14128 -27.0987,10.46923 -39.17276,10.48819 0,0 -14.53183,0 -14.53183,0 0,0 -13.26819,-1.529 -13.26819,-1.529 -1.80069,-0.34118 -4.01837,-0.68237 -5.0356,-2.40723 -2.5715,-4.33428 6.67833,-11.60651 9.45833,-14.38651 0,0 14.53183,-14.53184 14.53183,-14.53184 1.97759,-1.97759 5.74323,-6.17286 8.21364,-7.11427 2.0471,-0.78346 11.71392,-0.46755 14.53183,-0.46755 0,0 0,-9.47728 0,-9.47728 0,0 -13.90001,0 -13.90001,0 -12.10565,-0.019 -22.88447,-7.28487 -31.59094,-15.06256 0,0 -30.32729,-29.79657 -30.32729,-29.79657 0,0 -84.031893,-84.03189 -84.031893,-84.03189 1.453183,10.78514 2.672593,10.48819 2.527275,22.74547 z m -10.1091,-87.190981 c 0,0 0,40.436397 0,40.436397 0,0 -5.68005,42.331854 -5.68005,42.331854 -0.05055,2.35668 -0.04423,5.47155 1.314183,7.48705 1.686956,2.52096 5.831687,2.68523 7.417552,0 0.973,-1.64904 0.758182,-5.50946 0.739228,-7.48705 0,0 -2.786321,-19.58638 -2.786321,-19.58638 -0.296955,-2.754729 0.360137,-6.122323 3.443412,-7.051097 3.809867,-1.143592 9.578372,5.282005 11.979283,7.682917 0,0 28.431843,28.43184 28.431843,28.43184 0,0 69.500058,69.50006 69.500058,69.50006 11.0821,11.0821 23.40888,25.24748 40.4364,25.27275 0,0 30.3273,0 30.3273,0 4.15736,-0.006 7.37332,-0.2085 10.53242,-3.36759 2.93163,-2.93164 3.34864,-5.98964 3.36759,-9.9006 0,0 0,-32.22276 0,-32.22276 -0.15164,-12.47842 -10.00801,-23.90802 -18.32274,-32.22275 0,0 -24.64093,-24.64093 -24.64093,-24.64093 0,0 -71.39552,-71.395515 -71.39552,-71.395515 C 102.61096,40.370423 90.195724,26.173456 73.225073,26.268229 c 0,0 -35.381849,0 -35.381849,0 -5.945414,1.914411 -8.763325,5.717959 -8.845462,11.88451 z M 92.179635,59.00276 c 0,0 0,17.059101 0,17.059101 0.0063,2.729457 -0.08214,4.327958 0.928774,6.950006 2.57782,6.716233 16.193511,19.017743 21.816701,24.640933 0,0 67.6046,67.6046 67.6046,67.6046 0,0 22.11366,22.11366 22.11366,22.11366 1.50373,1.529 6.90578,7.089 1.82595,8.23891 -2.09764,0.47387 -4.26477,-1.88913 -5.61687,-3.197 0,0 -10.74091,-10.72828 -10.74091,-10.72828 0,0 -47.38641,-47.38641 -47.38641,-47.38641 0,0 -40.4364,-40.43639 -40.4364,-40.43639 -7.310138,-7.310147 -12.32046,-14.512881 -23.377288,-14.531836 0,0 -17.059106,0 -17.059106,0 -1.636411,0 -4.125776,0.139001 -5.54105,-0.739228 -2.29982,-1.434228 -1.844911,-4.07523 0.556,-5.111413 1.276274,-0.556001 3.569776,-0.467546 4.98505,-0.467546 7.070052,-0.01264 14.816149,1.560592 20.192927,-3.816185 1.510047,-1.516365 2.659957,-2.96323 3.31073,-5.029277 0.568637,-1.825956 0.505455,-3.797226 0.505455,-5.686364 0.0063,-2.666275 -0.328546,-12.630057 0.467546,-14.462331 0.600228,-1.402638 0.935091,-1.35841 2.116593,-1.990229 4.163685,0.164273 3.72773,3.759322 3.734048,6.975279 z M 257.08432,174.62558 c -4.1005,4.10051 -6.9121,5.35783 -6.95,11.37274 -0.019,2.90637 0.56863,9.65419 -1.09937,11.85924 -2.30614,3.058 -11.03155,2.04077 -14.6961,2.04077 0,5.5221 0.42332,13.13551 -1.12464,18.32275 -0.75818,2.53359 -2.26191,4.98505 -4.04364,6.92473 -7.08901,7.70187 -16.95801,6.34346 -26.42266,6.34346 0,3.66455 1.01723,12.38996 -2.04077,14.6961 -2.13555,1.61746 -8.42847,1.09305 -11.22742,1.09937 -6.93105,0.0126 -7.86615,2.81159 -12.63638,7.58182 -4.26477,4.26478 -15.36583,14.82247 -18.32274,18.95456 19.70011,3.53187 44.71381,0.96669 61.91824,-9.74264 9.83741,-6.12864 16.52837,-13.73574 24.64093,-21.84829 8.11255,-8.11256 15.71965,-14.80352 21.84829,-24.64093 10.70932,-17.20443 13.27451,-42.21813 9.74264,-61.91824 -4.16368,2.98219 -15.24578,14.61397 -19.58638,18.95456 z m -10.92414,55.60005 c -1.36473,6.24237 -5.72428,10.89887 -11.82133,12.78169 -6.34978,1.95864 -14.31702,0.88455 -10.22283,-7.72714 2.67891,-5.62319 10.05224,-12.57951 15.9092,-14.75928 7.2975,-1.27628 7.29118,4.41009 6.13496,9.70473 z m -16.24406,7.58183 c 5.95805,-0.63182 10.1091,-4.78287 10.74091,-10.74092 -4.42904,1.7375 -9.00341,6.31187 -10.74091,10.74092 z m 23.37729,3.79091 c 0,0 -10.1091,10.1091 -10.1091,10.1091 -1.3205,1.33314 -4.1005,3.58873 -3.57609,5.68637 0.3854,1.56059 4.20159,5.04823 5.47155,6.31818 0,0 13.90001,13.90002 13.90001,13.90002 0,0 11.37273,11.37273 11.37273,11.37273 1.14991,1.13728 3.35496,3.66455 5.05455,3.66455 1.6996,0 3.90464,-2.52727 5.05455,-3.66455 0,0 11.37274,-11.37273 11.37274,-11.37273 1.3205,-1.33314 4.10051,-3.58873 3.5761,-5.68637 -0.43596,-1.74382 -6.41928,-7.26592 -7.99883,-8.84546 0,0 -18.32274,-18.32275 -18.32274,-18.32275 -2.65996,-2.65995 -5.90119,-6.98159 -9.47728,-8.08728 -2.83055,0.87823 -4.25214,2.86214 -6.31819,4.92819 z m 44.85913,37.2773 c 0,0 -17.69093,17.69093 -17.69093,17.69093 -1.251,1.251 -5.19355,4.99768 -5.85064,6.30555 -0.4865,0.96668 -0.56232,2.41355 0.89719,2.41355 1.83227,0 6.09705,-4.80814 7.48073,-6.19183 0,0 18.95456,-18.95456 18.95456,-18.95456 1.58587,-1.58586 8.64328,-7.0195 4.95346,-8.7191 -3.34864,1.112 -6.24869,4.95978 -8.74437,7.45546 z m -8.21364,21.48184 c 0,0 13.90001,0.63182 13.90001,0.63182 0,0 -0.63182,-13.90001 -0.63182,-13.90001 -4.17,2.9885 -10.27969,9.09819 -13.26819,13.26819 z"
     inkscape:connector-curvature="0"
     style="fill:#000000;stroke:none;stroke-width:0.63181871;fill-opacity:1" />
</svg>
