<?xml version="1.0" encoding="UTF-8" standalone="no"?>
<svg
   xmlns:dc="http://purl.org/dc/elements/1.1/"
   xmlns:cc="http://creativecommons.org/ns#"
   xmlns:rdf="http://www.w3.org/1999/02/22-rdf-syntax-ns#"
   xmlns:svg="http://www.w3.org/2000/svg"
   xmlns="http://www.w3.org/2000/svg"
   xmlns:sodipodi="http://sodipodi.sourceforge.net/DTD/sodipodi-0.dtd"
   xmlns:inkscape="http://www.inkscape.org/namespaces/inkscape"
   width="100"
   height="100"
   viewBox="0 0 333.33269 333.33269"
   id="svg2"
   version="1.1"
   inkscape:version="0.91 r13725"
   sodipodi:docname="Capitol.svg">
  <metadata
     id="metadata9">
    <rdf:RDF>
      <cc:Work
         rdf:about="">
        <dc:format>image/svg+xml</dc:format>
        <dc:type
           rdf:resource="http://purl.org/dc/dcmitype/StillImage" />
        <dc:title></dc:title>
      </cc:Work>
    </rdf:RDF>
  </metadata>
  <defs
     id="defs7" />
  <sodipodi:namedview
     pagecolor="#ffffff"
     bordercolor="#666666"
     borderopacity="1"
     objecttolerance="10"
     gridtolerance="10"
     guidetolerance="10"
     inkscape:pageopacity="0"
     inkscape:pageshadow="2"
     inkscape:window-width="1218"
     inkscape:window-height="697"
     id="namedview5"
     showgrid="false"
     units="px"
     inkscape:zoom="1.5733302"
     inkscape:cx="75.000148"
     inkscape:cy="75.000148"
     inkscape:window-x="54"
     inkscape:window-y="-8"
     inkscape:window-maximized="1"
     inkscape:current-layer="svg2" />
  <path
     id="Selection #4"
     d="m 170.41634,83.416507 c 0,0 0,8.249984 0,8.249984 0,0 1.5,16.499969 1.5,16.499969 0,0 2.24999,0 2.24999,0 0,0 0,9.74998 0,9.74998 0.0225,10.43248 3.555,6.07499 8.39249,15.74997 2.18999,4.37999 1.70249,5.64749 2.95499,8.99998 1.08,2.90999 2.31,4.01999 3.1425,7.49998 0,0 0.92999,6.74999 0.92999,6.74999 1.11,3.61499 3.2325,3.95249 3.33,11.99998 0.0975,8.36248 -1.0275,10.48498 7.49998,10.49998 0,0 3.75,0 3.75,0 0,0 0,4.5 0,4.5 0,0 3.74999,0 3.74999,0 0,0 0,-4.5 0,-4.5 0,0 14.99997,0 14.99997,0 0,0 0,4.5 0,4.5 0,0 16.49997,0 16.49997,0 9.86248,-0.015 8.97748,-2.40751 16.49996,-4.1025 2.85,-0.645 12.24748,-0.3975 15.74997,-0.3975 0,0 0,-5.99999 0,-5.99999 0,0 -3.74999,0 -3.74999,0 0,0 0,-11.99998 0,-11.99998 0,0 11.24998,0 11.24998,0 0,0 0,17.99997 0,17.99997 0,0 37.49993,0 37.49993,0 0,0 0,56.99989 0,56.99989 0,0 -54.7499,0 -54.7499,0 -9.86248,-0.015 -8.97748,-2.40749 -16.49996,-4.10249 -2.85,-0.645 -12.24748,-0.3975 -15.74997,-0.3975 0,0 10.49998,17.99997 10.49998,17.99997 0,0 -146.999721,0 -146.999721,0 0,0 10.499981,-17.99997 10.499981,-17.99997 -3.50249,0 -12.899976,-0.2475 -15.74997,0.3975 -7.522486,1.695 -6.637488,4.08749 -16.499968,4.10249 0,0 -54.749893,0 -54.749893,0 0,0 0,-56.99989 0,-56.99989 0,0 37.499926,0 37.499926,0 0,0 0,-5.99999 0,-5.99999 0,0 -3.749992,0 -3.749992,0 0,0 0,-11.99998 0,-11.99998 0,0 11.249978,0 11.249978,0 0,0 0,17.99997 0,17.99997 3.502493,0 12.899975,-0.2475 15.749969,0.3975 6.817487,1.53749 6.944986,4.0575 15.749969,4.1025 0,0 17.999961,0 17.999961,0 0,0 0,-4.5 0,-4.5 0,0 14.24998,0 14.24998,0 0,0 0,4.5 0,4.5 0,0 3.74999,0 3.74999,0 0,0 0,-4.5 0,-4.5 2.7375,0 8.69999,0.765 10.37248,-1.7325 1.1025,-1.665 0.87,-5.27249 0.8775,-7.26749 0.0225,-10.19998 1.935,-8.95498 3.32999,-13.49997 0,0 0.93,-6.74999 0.93,-6.74999 0.8325,-3.47999 2.0625,-4.58999 3.1425,-7.49998 1.27499,-3.41249 0.71249,-4.37249 2.93999,-8.99998 4.70249,-9.77998 8.38498,-5.10749 8.40748,-15.74997 0,0 0,-10.49998 0,-10.49998 0,0 2.25,0 2.25,0 0,0 1.4625,-13.499973 1.4625,-13.499973 0,0 0,-10.49998 0,-10.49998 0,0 7.53748,0 7.53748,0 z m 1.2375,47.804903 c -1.23,-1.3125 -3.02249,-4.15499 -4.98749,-4.15499 -1.9725,0 -3.74999,2.84249 -4.99499,4.15499 -5.71499,6.02999 -5.82749,5.73749 -7.00499,14.44497 8.29499,-2.19749 15.70497,-2.19749 23.99996,0 -1.1025,-8.15998 -1.6275,-8.66998 -7.01249,-14.44497 z m 8.81248,22.57496 c -1.095,-1.0725 -4.04249,-1.845 -5.54999,-2.205 -4.68749,-1.125 -18.50246,-1.275 -22.04995,2.205 -1.395,1.36499 -1.1775,3.57749 -1.2,5.36999 0,0 14.99997,-1.8225 14.99997,-1.8225 0,0 14.99997,1.8225 14.99997,1.8225 -0.0225,-1.7925 0.195,-4.005 -1.2,-5.36999 z m 4.94999,18.11996 c -0.105,-6.08999 -3.68249,-5.91749 -8.99998,-6.74999 -6.43499,-1.13999 -13.82247,-1.06499 -20.24996,0 -1.9875,0.4125 -6.26249,1.125 -7.50749,2.775 -0.86999,1.155 -0.73499,3.32999 -0.74249,4.72499 0,0 0,6.74999 0,6.74999 0,0 37.49992,0 37.49992,0 0,0 0,-7.49999 0,-7.49999 z M 24.166624,186.91631 c 0,0 0,41.99992 0,41.99992 0,0 48.749905,0 48.749905,0 0,0 0,-41.99992 0,-41.99992 0,0 -48.749905,0 -48.749905,0 z m 112.499786,0 c 0,0 0,28.49994 0,28.49994 0,0 3.74999,0 3.74999,0 0,0 0,-13.49997 0,-13.49997 0,0 3.74999,0 3.74999,0 0,0 0,-14.99997 0,-14.99997 0,0 -7.49998,0 -7.49998,0 z m 14.99997,0 c 0,0 0,14.99997 0,14.99997 0,0 3.74999,0 3.74999,0 0,0 0,-14.99997 0,-14.99997 0,0 -3.74999,0 -3.74999,0 z m 11.24998,0 c 0,0 0,14.99997 0,14.99997 0,0 7.49998,0 7.49998,0 0,0 0,-14.99997 0,-14.99997 0,0 -7.49998,0 -7.49998,0 z m 14.99997,0 c 0,0 0,14.99997 0,14.99997 0,0 3.74999,0 3.74999,0 0,0 0,-14.99997 0,-14.99997 0,0 -3.74999,0 -3.74999,0 z m 11.24998,0 c 0,0 0,14.99997 0,14.99997 0,0 3.74999,0 3.74999,0 0,0 0,13.49997 0,13.49997 0,0 3.74999,0 3.74999,0 0,0 0,-28.49994 0,-28.49994 0,0 -7.49998,0 -7.49998,0 z m 26.24994,4.49999 c 0,0 -11.24997,0 -11.24997,0 0,0 0,23.99995 0,23.99995 3.38999,0 9.97498,-0.61499 12.71997,1.2 2.7675,1.8225 4.94999,6.20999 7.74749,7.37249 1.78499,0.7425 14.18997,0.4275 17.03246,0.4275 0,0 0,-32.99994 0,-32.99994 0,0 -25.49995,0 -25.49995,0 0,0 0,-4.49999 0,-4.49999 0,0 -0.75,4.49999 -0.75,4.49999 z m 44.99992,-4.49999 c 0,0 0,41.99992 0,41.99992 0,0 48.7499,0 48.7499,0 0,0 0,-41.99992 0,-41.99992 0,0 -48.7499,0 -48.7499,0 z M 80.416514,201.16628 c 0,0 0,26.24995 0,26.24995 3.929992,-1.7325 3.719993,-2.60999 3.749993,-6.74999 0,0 0,-26.24994 0,-26.24994 -0.0675,-3.5025 -0.0975,-3.9975 -2.999994,-5.99999 0,0 -0.749999,12.74997 -0.749999,12.74997 z m 168.749676,-5.99999 c 0,0 0,26.24995 0,26.24995 0.075,3.84749 0.21,4.43999 3.74999,5.99999 0,0 0,-38.99992 0,-38.99992 -3.92999,1.73249 -3.71999,2.60999 -3.74999,6.74998 z M 91.666492,191.4163 c 0,0 0,32.99994 0,32.99994 0,0 13.499978,0 13.499978,0 7.70998,-0.135 6.59998,-5.45999 12.00748,-8.23499 2.28749,-1.17 9.14248,-0.765 11.99247,-0.765 0,0 0,-23.99995 0,-23.99995 0,0 -37.499928,0 -37.499928,0 z m 56.249898,17.99997 c 0,0 0,5.99998 0,5.99998 0,0 37.49992,0 37.49992,0 0,0 0,-5.99998 0,-5.99998 0,0 -37.49992,0 -37.49992,0 z m 66.42737,14.24247 c -1.5825,-0.9225 -3.885,-0.7425 -5.67749,-0.7425 0,0 -83.99984,0 -83.99984,0 -1.7925,0 -4.09499,-0.18 -5.67749,0.7425 -3.80249,2.21999 -11.42248,14.43747 -13.07248,18.75746 0,0 121.49977,0 121.49977,0 -1.65,-4.31999 -9.26998,-16.53747 -13.07247,-18.75746 z"
     inkscape:connector-curvature="0"
     style="fill:#000000;fill-opacity:1;stroke:none;stroke-width:1" />
</svg>
