<?xml version="1.0" encoding="UTF-8" standalone="no"?>
<svg
   xmlns:dc="http://purl.org/dc/elements/1.1/"
   xmlns:cc="http://creativecommons.org/ns#"
   xmlns:rdf="http://www.w3.org/1999/02/22-rdf-syntax-ns#"
   xmlns:svg="http://www.w3.org/2000/svg"
   xmlns="http://www.w3.org/2000/svg"
   xmlns:sodipodi="http://sodipodi.sourceforge.net/DTD/sodipodi-0.dtd"
   xmlns:inkscape="http://www.inkscape.org/namespaces/inkscape"
   width="100"
   height="100"
   viewBox="0 0 333.33269 333.33269"
   id="svg2"
   version="1.1"
   inkscape:version="0.91 r13725"
   sodipodi:docname="CapitolCity.svg"
   inkscape:export-filename="C:\Users\mbrown\Desktop\Drawings\icons\forJustin\CapitolCity.png"
   inkscape:export-xdpi="300"
   inkscape:export-ydpi="300">
  <metadata
     id="metadata9">
    <rdf:RDF>
      <cc:Work
         rdf:about="">
        <dc:format>image/svg+xml</dc:format>
        <dc:type
           rdf:resource="http://purl.org/dc/dcmitype/StillImage" />
        <dc:title></dc:title>
      </cc:Work>
    </rdf:RDF>
  </metadata>
  <defs
     id="defs7" />
  <sodipodi:namedview
     pagecolor="#ffffff"
     bordercolor="#666666"
     borderopacity="1"
     objecttolerance="10"
     gridtolerance="10"
     guidetolerance="10"
     inkscape:pageopacity="0"
     inkscape:pageshadow="2"
     inkscape:window-width="1218"
     inkscape:window-height="697"
     id="namedview5"
     showgrid="false"
     units="px"
     inkscape:zoom="1.5733302"
     inkscape:cx="75.000148"
     inkscape:cy="75.000148"
     inkscape:window-x="54"
     inkscape:window-y="-8"
     inkscape:window-maximized="1"
     inkscape:current-layer="svg2" />
  <path
     id="Unnamed #6"
     d="m 192.9163,157.29137 c 0,0 0,-18.74997 0,-18.74997 0,0 -18.74997,0 -18.74997,0 0,0 0,18.74997 0,18.74997 0,0 -14.99997,0 -14.99997,0 0,0 0,-18.74997 0,-18.74997 0,0 -18.74996,0 -18.74996,0 0,0 0,18.74997 0,18.74997 0,0 -14.99997,0 -14.99997,0 0,0 0,-18.74997 0,-18.74997 0,0 -18.74997,0 -18.74997,0 0,0 0,18.74997 0,18.74997 0,0 -14.999969,0 -14.999969,0 0,0 0,-56.2499 0,-56.2499 0,0 18.749959,0 18.749959,0 0,0 0,-56.249888 0,-56.249888 0,0 -18.749959,0 -18.749959,0 0,0 0,18.749963 0,18.749963 0,0 -18.749963,0 -18.749963,0 0,0 0,-18.749963 0,-18.749963 0,0 -18.749964,0 -18.749964,0 0,0 0,18.749963 0,18.749963 0,0 -18.749963,0 -18.749963,0 0,0 0,-18.749963 0,-18.749963 0,0 -18.749964,0 -18.749964,0 0,0 0,56.249888 0,56.249888 0,0 18.749964,0 18.749964,0 0,0 0,187.49964 0,187.49964 0,0 42.802417,0 93.839819,0 -0.09,-56.24989 18.65997,-74.99985 37.40993,-74.99985 18.74996,0 37.49993,18.74996 37.58243,74.99985 50.9624,0 93.66731,0 93.66731,0 0,0 0,-187.49964 0,-187.49964 0,0 18.74997,0 18.74997,0 0,0 0,-56.249888 0,-56.249888 0,0 -18.74997,0 -18.74997,0 0,0 0,18.749963 0,18.749963 0,0 -18.74996,0 -18.74996,0 0,0 0,-18.749963 0,-18.749963 0,0 -18.74996,0 -18.74996,0 0,0 0,18.749963 0,18.749963 0,0 -18.74997,0 -18.74997,0 0,0 0,-18.749963 0,-18.749963 0,0 -18.74996,0 -18.74996,0 0,0 0,56.249888 0,56.249888 0,0 18.74996,0 18.74996,0 0,0 0,56.2499 0,56.2499 0,0 -14.99997,0 -14.99997,0 0,0 0,-18.74997 0,-18.74997 0,0 -18.74996,0 -18.74996,0 0,0 0,18.74997 0,18.74997 0,0 -14.99997,0 -14.99997,0 z"
     inkscape:connector-curvature="0"
     style="fill:#000000;fill-opacity:1;stroke:none;stroke-width:1" />
</svg>
