<?xml version="1.0" encoding="UTF-8" standalone="no"?>
<svg
   xmlns:dc="http://purl.org/dc/elements/1.1/"
   xmlns:cc="http://creativecommons.org/ns#"
   xmlns:rdf="http://www.w3.org/1999/02/22-rdf-syntax-ns#"
   xmlns:svg="http://www.w3.org/2000/svg"
   xmlns="http://www.w3.org/2000/svg"
   xmlns:sodipodi="http://sodipodi.sourceforge.net/DTD/sodipodi-0.dtd"
   xmlns:inkscape="http://www.inkscape.org/namespaces/inkscape"
   width="100"
   height="100"
   viewBox="0 0 333.33269 333.33269"
   id="svg2"
   version="1.1"
   inkscape:version="0.91 r13725"
   sodipodi:docname="Cat.svg">
  <metadata
     id="metadata9">
    <rdf:RDF>
      <cc:Work
         rdf:about="">
        <dc:format>image/svg+xml</dc:format>
        <dc:type
           rdf:resource="http://purl.org/dc/dcmitype/StillImage" />
        <dc:title></dc:title>
      </cc:Work>
    </rdf:RDF>
  </metadata>
  <defs
     id="defs7" />
  <sodipodi:namedview
     pagecolor="#ffffff"
     bordercolor="#666666"
     borderopacity="1"
     objecttolerance="10"
     gridtolerance="10"
     guidetolerance="10"
     inkscape:pageopacity="0"
     inkscape:pageshadow="2"
     inkscape:window-width="1218"
     inkscape:window-height="697"
     id="namedview5"
     showgrid="false"
     units="px"
     inkscape:zoom="1.5733302"
     inkscape:cx="75.000148"
     inkscape:cy="75.000148"
     inkscape:window-x="54"
     inkscape:window-y="-8"
     inkscape:window-maximized="1"
     inkscape:current-layer="svg2" />
  <path
     id="Selection #44"
     d="m 38.250506,210.50759 c 0,0 0,-20.77013 0,-20.77013 0.01539,-9.86197 2.584728,-24.80108 4.615585,-34.61689 0.807728,-3.90017 3.630927,-12.77748 3.130905,-16.15455 0,0 -8.000347,-23.07793 -8.000347,-23.07793 C 32.796422,100.3028 23.049845,66.978275 22.865221,51.269902 22.726754,39.130913 21.203611,20.760882 36.711977,17.176111 c 2.207789,-0.507714 4.677127,-0.630797 6.923378,-0.392325 6.423356,0.676953 12.777479,3.715546 18.462341,6.60798 11.885133,6.038724 28.447391,19.716243 38.463214,28.778175 0,0 11.53896,10.708156 11.53896,10.708156 1.3616,1.261593 3.76939,3.884784 5.38485,4.554044 2.63857,1.10774 9.4081,-2.284715 12.30823,-3.177061 9.26963,-2.838583 20.30088,-5.277151 30.0013,-5.292536 14.60833,-0.02308 21.55478,-0.492329 36.15542,3.177061 0,0 13.07749,3.992479 13.07749,3.992479 1.63084,0.600026 4.47712,1.930854 6.15411,1.561607 2.06932,-0.469251 4.58482,-3.361685 6.15412,-4.815594 0,0 12.30822,-11.392801 12.30822,-11.392801 12.93903,-11.400496 28.67817,-24.662612 44.61733,-31.424444 13.02364,-5.53101 26.43961,-5.554088 31.20136,10.438915 1.00004,3.3463 1.09235,5.030989 1.10774,8.461908 0,0 0,12.308227 0,12.308227 -0.17693,15.069884 -9.6235,48.094397 -14.61602,63.079668 0,0 -5.63102,16.15454 -5.63102,16.15454 -0.88465,2.40011 -2.80781,6.87723 -2.97705,9.23118 -0.19232,2.73088 2.5078,11.94667 3.22322,15.38528 1.91546,9.27733 4.56943,24.59338 4.61558,33.84763 0,0 0,21.53939 0,21.53939 -0.0308,19.33931 -7.43878,46.14047 -19.2316,61.54114 6.03103,3.18475 18.57003,14.70833 22.90099,20.00087 4.3925,5.36177 1.80777,9.60042 -2.13086,8.94654 -2.73858,-0.45386 -5.76948,-3.95401 -7.69264,-5.86948 0,0 -10.7697,-10.10044 -10.7697,-10.10044 -1.16928,-1.00774 -4.66174,-4.14634 -5.93872,-4.6002 -2.54627,-0.90004 -7.3157,3.77709 -6.3772,6.36951 0.74619,2.06162 12.80825,15.93146 12.16976,22.1625 -0.4154,4.10018 -4.54635,4.69251 -7.18493,2.0847 -1.29236,-1.27697 -3.82324,-6.29258 -5.02329,-8.22343 0,0 -7.64649,-11.53896 -7.64649,-11.53896 0,0 -6.15411,3.84632 -6.15411,3.84632 1.73084,4.02325 6.36181,12.339 6.74644,16.15455 0.36925,3.60785 -2.16932,6.66952 -5.81563,4.5925 -4.24634,-2.41549 -5.16946,-14.18523 -10.19276,-13.96983 -2.28471,0.0923 -6.83875,2.36933 -7.20031,4.84636 -0.29232,1.99239 1.91547,8.76961 -2.80781,9.63119 -4.76175,0.86157 -5.49255,-4.89252 -6.11565,-8.17728 -21.57786,7.19262 -37.56318,8.46191 -60.00261,8.46191 -22.43944,0 -38.42475,-1.26929 -60.00261,-8.46191 -0.6231,3.28476 -1.3539,9.03885 -6.11565,8.17728 -4.723282,-0.86158 -2.515494,-7.6388 -2.807814,-9.63119 -0.361554,-2.47703 -4.915598,-4.75405 -7.200313,-4.84636 -5.00791,-0.2154 -6.138728,11.65435 -10.192751,13.96983 -3.63862,2.08471 -6.184884,-0.98465 -5.815637,-4.5925 0.384632,-3.81555 5.015602,-12.1313 6.746447,-16.15455 0,0 -6.154114,-3.84632 -6.154114,-3.84632 -1.984702,3.8617 -3.769395,5.76948 -6.131036,9.23117 0,0 -4.154027,6.92337 -4.154027,6.92337 -0.938502,1.64623 -1.938545,3.65401 -3.661697,4.59251 -4.16172,2.27702 -6.507975,-1.5616 -5.754097,-5.36177 0.730801,-3.654 5.961798,-11.45434 8.277283,-14.61602 0.853884,-1.16159 3.830936,-4.64636 3.984789,-5.83102 0.207701,-1.677 -2.59242,-4.46173 -3.884784,-5.30793 -2.846278,-1.877 -5.884871,1.71546 -7.908036,3.44631 0,0 -12.308228,11.53896 -12.308228,11.53896 -1.792385,1.777 -4.346343,4.66944 -6.923378,5.10022 -3.938632,0.65388 -6.52336,-3.58477 -2.130862,-8.94654 4.330958,-5.29254 16.869965,-16.81612 22.900996,-20.00087 C 45.650828,256.59421 38.281276,229.90844 38.250506,210.50759 Z m 242.256684,33.84763 c 6.77722,-19.68547 6.24643,-33.663 6.21566,-53.8485 -0.0154,-8.12343 -2.50011,-25.00108 -4.34635,-33.07836 -0.84619,-3.70016 -4.35403,-15.59298 -4.03094,-18.46234 0,0 8.31574,-23.84719 8.31574,-23.84719 4.73867,-13.81599 8.77731,-28.047374 11.9236,-42.309532 1.39237,-6.300274 3.4463,-15.993001 3.52323,-22.30866 0,0 0,-9.231171 0,-9.231171 -0.008,-2.515494 0.0539,-4.430962 -0.5231,-6.923378 -3.61554,-15.63145 -19.7547,-7.284933 -28.70894,-1.961624 -11.22357,6.677214 -26.70116,19.108524 -36.15542,28.147378 0,0 -12.30053,11.508191 -12.30053,11.508191 -1.38468,1.407753 -4.76175,5.507931 -6.23104,6.161806 -2.65397,1.184667 -8.685,-2.738581 -11.46973,-3.807858 -9.14655,-3.500152 -19.48547,-5.907949 -29.23204,-6.838759 -14.20062,-1.353905 -28.61663,0.138468 -42.30954,4.04633 -4.01555,1.146204 -8.56191,2.677039 -12.30822,4.48481 -1.76931,0.853884 -4.93868,2.815507 -6.89261,2.369334 -1.97701,-0.446173 -4.10018,-3.400148 -5.48485,-4.877135 0,0 -11.469731,-10.769699 -11.469731,-10.769699 C 88.845013,52.762275 73.513577,40.377121 61.328432,32.853716 52.758829,27.568871 36.150414,18.668484 32.042544,33.576824 c -0.692338,2.500109 -0.700031,4.377115 -0.715416,6.923379 0,0 0,10.000435 0,10.000435 0.07693,6.315659 2.130862,16.008386 3.52323,22.30866 0,0 12.254379,43.078792 12.254379,43.078792 0,0 8.00804,23.07793 8.00804,23.07793 0.26155,2.87705 -3.023208,14.09292 -3.877091,17.69308 -1.823157,7.70803 -4.484811,25.34725 -4.523274,33.07836 -0.09231,19.32392 -0.584641,33.40145 5.407927,52.30997 1.461602,4.60789 4.823287,12.70055 7.138772,16.92381 0,0 4.377114,7.69264 4.377114,7.69264 0,0 15.385284,-7.45417 15.385284,-7.45417 7.154157,-3.28476 19.293147,-7.54648 26.924251,-9.56195 2.42318,-0.63849 8.53883,-2.41549 10.75431,-1.94624 3.94632,0.84619 5.36177,4.79251 -0.75388,8.19266 0,0 0.76926,3.84632 0.76926,3.84632 6.09258,-1.01543 8.75423,0.57695 6.15412,6.92338 3.32322,0.54618 3.83863,0.83081 5.38485,3.84632 2.79243,0.5231 3.57708,0.91543 6.15411,1.9847 5.00022,2.06932 18.00848,6.92338 23.001,4.15403 2.22317,-1.23851 3.33861,-3.80016 3.9771,-6.13873 0.40001,-1.45391 0.69233,-3.11552 0.47694,-4.61558 0,0 -5.20792,-13.81599 -5.20792,-13.81599 -3.29245,-5.34638 -12.16207,-5.60793 -12.93133,-14.64679 -0.3154,-3.64631 0.80004,-7.27724 4.54635,-8.65422 3.23091,-1.18467 10.65431,1.94624 14.60064,2.36933 4.22326,0.45387 8.20805,0.0923 12.30822,-0.92311 2.17702,-0.54618 6.43875,-1.98471 8.46191,-1.777 4.69251,0.47694 6.43105,4.8002 6.0695,8.985 -0.76927,9.03886 -9.63889,9.30041 -12.93134,14.64679 0,0 -3.20783,8.43114 -3.20783,8.43114 -1.16159,2.93859 -2.36164,4.34634 -1.99239,7.69264 2.03086,18.45465 24.00104,4.10018 33.60146,2.30779 1.54622,-3.01551 2.06163,-3.30014 5.38485,-3.84632 -2.60011,-6.34643 0.0615,-7.93881 6.15411,-6.92338 0,0 0.76927,-3.84632 0.76927,-3.84632 -6.11565,-3.40015 -4.70021,-7.34647 -0.75388,-8.19266 2.21548,-0.46925 8.33113,1.30775 10.75431,1.94624 7.6311,2.01547 19.77009,6.27719 26.92425,9.56195 0,0 15.38528,7.45417 15.38528,7.45417 4.33096,-8.985 6.99261,-11.51588 10.70816,-22.30866 z M 89.106563,72.809298 c -5.984876,-6.731062 -1.877005,-11.200485 2.992438,-9.43118 2.453953,0.892347 5.069451,3.746317 6.923378,5.584859 4.054021,4.030944 11.500501,10.031205 13.077491,15.385284 0,0 -9.23117,3.630927 -9.23117,3.630927 -11.708201,5.054066 -19.716242,9.854275 -27.593508,20.216262 0,0 -10.377374,15.38529 -10.377374,15.38529 -1.415446,2.04624 -3.092442,4.3925 -5.861793,4.3925 -3.030901,0 -4.030945,-2.53088 -3.546308,-5.16177 0.523099,-2.86166 5.200226,-9.60042 7.000304,-12.30823 8.400365,-12.592851 19.077753,-24.916464 34.224565,-29.232036 -2.946282,-4.107871 -4.569429,-5.03868 -7.608023,-8.461906 z M 234.41288,68.962977 c 1.85393,-1.838542 4.46942,-4.692512 6.92338,-5.584859 4.86944,-1.769305 8.97731,2.700118 2.99243,9.43118 -3.03859,3.423226 -4.66174,4.354035 -7.60802,8.461906 15.14681,4.315572 25.8242,16.639185 34.22457,29.232036 1.80007,2.70781 6.4772,9.44657 7.0003,12.30823 0.48464,2.63089 -0.51541,5.16177 -3.54631,5.16177 -3.07705,0 -4.82328,-2.87705 -6.28489,-5.16177 0,0 -9.95427,-14.61602 -9.95427,-14.61602 -7.72342,-10.154286 -15.39298,-14.839105 -26.82425,-19.893171 -3.62323,-1.600069 -6.08488,-2.900126 -10.00043,-3.954018 1.57699,-5.354079 9.02347,-11.35434 13.07749,-15.385284 z M 130.62375,168.19806 c 3.1386,6.56952 3.33861,16.72381 2.46165,23.84719 -0.28463,2.36164 -0.19232,6.18489 -1.70008,8.06958 -1.70007,2.13087 -6.67721,2.76166 -9.28502,3.1386 -14.69294,2.11548 -30.301312,-4.81559 -37.447777,-18.13156 -4.0771,-7.60033 -4.430962,-16.76996 -0.769264,-24.61645 0.761572,-1.62315 1.823156,-3.63093 3.238602,-4.76175 2.107784,-1.69238 6.177192,-2.16932 8.823461,-2.60011 12.308228,-1.52314 28.924328,3.00013 34.678428,15.0545 z m 115.07423,-12.88517 c 1.85393,1.18466 2.94629,3.25398 3.85402,5.19253 3.37707,7.24647 3.36168,15.84684 0,23.07793 -5.06945,10.90047 -15.82377,17.84693 -27.44735,19.66239 -4.32326,0.67695 -16.32379,0.36155 -19.57008,-2.6155 -2.06932,-1.89239 -1.86931,-5.96949 -2.18471,-8.58499 -0.88465,-7.19262 -0.69234,-18.13925 2.83858,-24.61645 4.66944,-8.55422 14.47756,-12.60824 23.5318,-14.27755 4.73097,-0.60772 14.96988,-0.40001 18.97774,2.16164 z m -152.506624,7.48494 c -1.930853,1.39236 -3.007823,5.431 -3.253988,7.70802 -0.907731,8.25421 6.061802,18.16233 13.700592,20.77014 -1.56929,-2.5078 -4.169408,-5.88487 -5.215607,-8.46191 -3.777088,-9.29271 4.038637,-14.67756 9.061937,-20.77013 -3.53093,-0.86158 -11.22357,-1.4616 -14.292934,0.75388 z m 150.368074,8.47729 c -0.12308,-2.2001 -1.16928,-6.44644 -2.76166,-8.01573 -2.9232,-2.86936 -11.63127,-2.53088 -14.8468,-0.44618 5.97719,4.53097 12.01591,11.0851 9.50042,19.23161 -0.87697,2.83858 -3.95402,6.54644 -5.6541,9.23117 7.4234,-2.53088 14.20831,-12.00052 13.76214,-20.00087 z M 113.6384,164.35174 c 0,0 0.76926,0.76926 0.76926,0.76926 0,0 0,-0.76926 0,-0.76926 0,0 -0.76926,0 -0.76926,0 z m 105.38919,0 c 0,0 0.76927,0.76926 0.76927,0.76926 0,0 0,-0.76926 0,-0.76926 0,0 -0.76927,0 -0.76927,0 z m -98.31196,11.53896 c 1.90777,7.30032 -5.7464,13.8006 -10.15429,18.46234 5.51562,1.33852 8.40806,0.71542 13.84676,0 0.53079,-11.63896 3.2386,-22.53944 -9.23117,-29.23204 0.82311,3.55401 4.37711,6.32336 5.5387,10.7697 z m 88.31153,18.46234 c 4.52327,0.60003 9.78504,1.85393 13.84676,-0.76926 -6.14643,-4.66174 -12.38516,-11.72359 -9.23887,-20.00087 1.06159,-2.77704 3.68478,-5.90795 5.39254,-8.46191 -13.15441,4.48482 -10.49276,18.59312 -10.00043,29.23204 z M 108.25355,172.81365 c 0,0 -1.96932,5.38485 -1.96932,5.38485 0,0 1.96932,5.38485 1.96932,5.38485 5.42331,-2.86936 5.42331,-7.90035 0,-10.7697 z m 115.38963,0 c -2.44626,4.11556 -2.44626,6.65413 0,10.7697 0,0 1.53853,0 1.53853,0 2.85397,-4.79252 2.85397,-5.97719 0,-10.7697 0,0 -1.53853,0 -1.53853,0 z m -120.00522,18.46234 c 0,0 0.76927,0.76926 0.76927,0.76926 0,0 0,-0.76926 0,-0.76926 0,0 -0.76927,0 -0.76927,0 z m 125.39007,0 c 0,0 0.76926,0.76926 0.76926,0.76926 0,0 0,-0.76926 0,-0.76926 0,0 -0.76926,0 -0.76926,0 z m -123.85154,0.76926 c 0,0 0.76927,0.76927 0.76927,0.76927 0,0 0,-0.76927 0,-0.76927 0,0 -0.76927,0 -0.76927,0 z m 55.37164,51.70225 c 0,0 6.1695,9.06963 6.1695,9.06963 0,0 5.42331,-8.38498 5.42331,-8.38498 0,0 9.19271,-7.00031 9.19271,-7.00031 -12.88518,2.59242 -15.16989,3.85401 -28.46278,0 0,0 7.67726,6.31566 7.67726,6.31566 z m -90.757791,29.83976 c 1.200052,1.65392 3.069364,4.46173 5.384849,4.46173 2.123169,0 5.292538,-3.60785 6.923378,-5.00022 0,0 16.154549,-11.76974 16.154549,-11.76974 -7.884959,1.21544 -21.700944,7.90804 -28.462776,12.30823 z M 235.18214,262.0483 c 5.41562,2.90012 11.49281,7.00799 16.15455,11.00047 1.63084,1.39237 4.80021,5.00022 6.92338,5.00022 2.31548,0 4.1848,-2.80781 5.38485,-4.46173 -7.008,-4.56174 -19.57008,-10.4543 -27.69351,-12.30823 0,0 -0.76927,0.76927 -0.76927,0.76927 z m -127.69785,3.84632 c 0,0 0.76926,0.76926 0.76926,0.76926 0,0 0,-0.76926 0,-0.76926 0,0 -0.76926,0 -0.76926,0 z m 117.69742,0 c 0,0 0.76926,0.76926 0.76926,0.76926 0,0 0,-0.76926 0,-0.76926 0,0 -0.76926,0 -0.76926,0 z m -120.00522,1.53853 c 0,0 0.76927,0.76926 0.76927,0.76926 0,0 0,-0.76926 0,-0.76926 0,0 -0.76927,0 -0.76927,0 z m 122.31301,0 c 0,0 0.76927,0.76926 0.76927,0.76926 0,0 0,-0.76926 0,-0.76926 0,0 -0.76927,0 -0.76927,0 z M 82.098566,285.89549 c 0,0 4.615585,2.30779 4.615585,2.30779 0,0 18.462339,-20.00087 18.462339,-20.00087 -6.684903,1.95393 -20.131642,11.46973 -23.077924,17.69308 z M 235.18214,275.15656 c 0,0 11.53897,13.04672 11.53897,13.04672 0,0 4.61558,-2.30779 4.61558,-2.30779 -3.1386,-6.63875 -15.54683,-14.67756 -22.30866,-17.69308 0,0 6.15411,6.95415 6.15411,6.95415 z m -117.69742,-5.41562 c 0,0 0.76926,0.76926 0.76926,0.76926 0,0 0,-0.76926 0,-0.76926 0,0 -0.76926,0 -0.76926,0 z m 97.69655,0 c 0,0 0.76927,0.76926 0.76927,0.76926 0,0 0,-0.76926 0,-0.76926 0,0 -0.76927,0 -0.76927,0 z m -98.46582,0.76926 c 0,0 0.76927,0.76927 0.76927,0.76927 0,0 0,-0.76927 0,-0.76927 0,0 -0.76927,0 -0.76927,0 z m 99.23509,0 c 0,0 0.76926,0.76927 0.76926,0.76927 0,0 0,-0.76927 0,-0.76927 0,0 -0.76926,0 -0.76926,0 z M 94.406794,293.58813 c 0,0 6.923376,3.07706 6.923376,3.07706 0,0 8.24651,-15.38529 8.24651,-15.38529 0,0 7.13877,-10.00043 7.13877,-10.00043 -6.52335,2.94628 -20.439344,15.43144 -22.308656,22.30866 z M 222.75083,279.74137 c 4.63097,6.2772 6.36951,9.87736 9.35426,16.92382 0,0 6.92337,-3.07706 6.92337,-3.07706 -2.04624,-7.52341 -15.01603,-17.93924 -21.53939,-22.30866 0.0385,3.18475 3.40784,5.94641 5.26176,8.4619 z m -20.64705,0.54618 c -7.25416,3.15398 -17.44691,6.31566 -25.38572,5.53101 -5.70025,-0.56926 -7.16185,-4.3925 -10.00043,-4.3925 -2.83859,0 -4.30019,3.82324 -10.00044,4.3925 -7.9388,0.78465 -18.13155,-2.37703 -25.38572,-5.53101 0,0 -7.69264,-3.62323 -7.69264,-3.62323 -5.2233,7.33108 -12.83902,14.36985 -13.84675,23.84719 0,0 11.53896,3.16167 11.53896,3.16167 0,0 20.00087,3.54631 20.00087,3.54631 0,0 17.69308,0.98466 17.69308,0.98466 0,0 7.69264,0.50771 7.69264,0.50771 0,0 6.92338,-0.50771 6.92338,-0.50771 12.7467,-0.14616 25.24725,-1.40775 37.69394,-4.34634 0,0 12.30823,-3.3463 12.30823,-3.3463 -1.00774,-9.47734 -8.62345,-16.51611 -13.84676,-23.84719 0,0 -7.69264,3.62323 -7.69264,3.62323 z"
     inkscape:connector-curvature="0"
     style="fill:#000000;fill-opacity:1;stroke:none;stroke-width:1" />
</svg>
