<?xml version="1.0" encoding="UTF-8" standalone="no"?>
<svg
   xmlns:dc="http://purl.org/dc/elements/1.1/"
   xmlns:cc="http://creativecommons.org/ns#"
   xmlns:rdf="http://www.w3.org/1999/02/22-rdf-syntax-ns#"
   xmlns:svg="http://www.w3.org/2000/svg"
   xmlns="http://www.w3.org/2000/svg"
   xmlns:sodipodi="http://sodipodi.sourceforge.net/DTD/sodipodi-0.dtd"
   xmlns:inkscape="http://www.inkscape.org/namespaces/inkscape"
   width="100"
   height="100"
   viewBox="0 0 333.33269 333.33269"
   id="svg2"
   version="1.1"
   inkscape:version="0.91 r13725"
   sodipodi:docname="CatFood.svg">
  <metadata
     id="metadata9">
    <rdf:RDF>
      <cc:Work
         rdf:about="">
        <dc:format>image/svg+xml</dc:format>
        <dc:type
           rdf:resource="http://purl.org/dc/dcmitype/StillImage" />
        <dc:title></dc:title>
      </cc:Work>
    </rdf:RDF>
  </metadata>
  <defs
     id="defs7" />
  <sodipodi:namedview
     pagecolor="#ffffff"
     bordercolor="#666666"
     borderopacity="1"
     objecttolerance="10"
     gridtolerance="10"
     guidetolerance="10"
     inkscape:pageopacity="0"
     inkscape:pageshadow="2"
     inkscape:window-width="1218"
     inkscape:window-height="697"
     id="namedview5"
     showgrid="false"
     units="px"
     inkscape:zoom="1.5733302"
     inkscape:cx="75.000148"
     inkscape:cy="75.000148"
     inkscape:window-x="54"
     inkscape:window-y="-8"
     inkscape:window-maximized="1"
     inkscape:current-layer="svg2" />
  <path
     id="Selection #4"
     d="m 176.86523,43.687799 c 0,0 8.81589,0.514261 8.81589,0.514261 27.80677,1.910108 55.31234,8.397132 79.34298,22.987424 17.77136,10.792116 33.75015,27.858203 33.79423,49.809766 0.022,9.71951 5.96542,40.56777 7.89757,52.16066 0,0 7.58901,45.54875 7.58901,45.54875 0.55099,3.3133 2.74027,14.31112 2.30682,16.89712 -0.37467,2.23336 -2.21132,5.41442 -3.4235,7.34657 -10.52764,16.75753 -31.3919,29.01896 -49.63344,35.76311 -27.31456,10.0942 -56.95798,14.054 -85.9549,14.19358 0,0 -11.01986,0.73466 -11.01986,0.73466 0,0 -10.2852,-0.73466 -10.2852,-0.73466 0,0 -10.2852,0 -10.2852,0 0,0 -16.16246,-1.34442 -16.16246,-1.34442 -26.92519,-2.60803 -51.279078,-7.55228 -75.669699,-19.77697 -13.591159,-6.81762 -28.732445,-18.08726 -35.741075,-31.77393 -3.452889,-6.25928 -0.947708,-13.16506 0,-19.83574 0,0 7.273107,-42.61013 7.273107,-42.61013 0,0 5.752366,-34.52889 5.752366,-34.52889 1.138719,-6.86169 2.865163,-14.41397 2.879856,-21.30506 0.03673,-18.101951 9.690129,-32.324916 23.509032,-43.344774 19.064356,-15.200059 43.778223,-23.597191 67.588463,-27.733311 0,0 16.89712,-2.262745 16.89712,-2.262745 0,0 8.08123,-0.705271 8.08123,-0.705271 0,0 26.44766,0 26.44766,0 z m 110.36021,92.412541 c 1.76318,-3.70268 4.11408,-11.37985 4.11408,-15.42781 0,-2.17458 -1.03586,-6.6413 -1.65298,-8.81588 C 284.36763,93.086152 267.99946,80.295771 251.80027,71.031743 240.03106,64.294935 223.89064,59.159681 210.65946,56.110853 169.32765,46.589696 127.61381,50.431953 88.706362,67.351109 73.322639,74.043837 56.844277,86.261187 48.30756,100.83679 c -3.034135,5.17933 -6.802926,14.52417 -6.464984,20.5704 0.609765,10.91701 6.839659,20.16634 13.069552,28.65163 0,0 1.469315,0 1.469315,0 5.576048,-12.93731 17.719933,-32.36165 27.248437,-42.61012 4.92955,-5.30422 9.469732,-10.461518 16.831,-11.996951 9.73421,-2.035001 20.93038,6.538451 31.59026,2.777004 13.84094,-4.878124 24.5449,-22.605403 43.34478,-15.978794 13.30464,4.687112 26.11706,17.624426 36.73286,26.763561 5.81114,5.00302 13.04016,12.15123 21.30506,11.52677 6.86904,-0.5216 14.5756,-5.09852 20.5704,-4.54752 4.24632,0.39671 7.7139,3.15902 10.46887,6.2152 5.22341,5.81848 11.82063,19.33618 13.04016,27.1162 4.26836,-2.41703 7.6184,-8.83793 9.71217,-13.22383 z m -157.37827,-30.4589 c -10.82885,1.95419 -23.65597,-7.574311 -33.059579,-1.86602 -5.487889,3.33534 -13.547079,13.66462 -17.418723,19.10108 -5.333612,7.48616 -9.286068,14.81804 -13.745437,22.77438 -1.197491,2.13051 -4.525489,7.86818 -3.798178,10.21908 0.565686,1.8293 4.025922,4.28305 5.576049,5.46585 4.554874,3.48228 12.489173,8.36775 17.631773,10.93905 25.029775,12.51121 56.649425,18.23419 84.485585,18.19011 0,0 8.81589,-0.66854 8.81589,-0.66854 22.26011,-1.52808 43.34477,-6.03888 63.91518,-14.86946 7.89756,-3.39412 21.87809,-11.15944 27.97574,-17.11017 3.15903,-3.33534 1.54278,-6.7515 0,-10.69661 -2.08642,-6.45029 -7.91225,-21.79728 -14.75191,-23.86901 -6.01685,-1.82195 -14.83273,3.52635 -22.03972,3.96715 -8.96282,0.55099 -15.61881,-5.24545 -22.03972,-10.65253 -8.77181,-7.38331 -16.94119,-15.62616 -26.44766,-22.091145 -5.26749,-3.577781 -10.33663,-6.692728 -16.89712,-6.714768 -1.96153,-0.183664 -3.19576,-0.124891 -5.1426,0 -11.94552,3.68798 -20.91569,15.684933 -33.05957,17.881553 z m 73.46572,35.82924 c 2.55661,1.15341 10.70396,4.28305 7.5082,8.26489 -1.23423,1.52809 -2.91659,1.33708 -4.56957,0.77139 0,0 -11.75452,-4.99567 -11.75452,-4.99567 -11.96756,-4.61364 -24.51551,-6.20785 -35.9982,0.60242 -10.07215,5.96542 -14.40663,15.77309 -22.77438,14.39929 -5.80379,-0.95506 -11.99695,-8.60284 -16.16245,-12.64346 -1.93215,-1.88072 -4.54019,-4.44467 -7.34658,-4.78996 -5.38503,-0.66119 -11.26229,8.14 -13.789513,12.12184 -1.256264,1.97623 -3.056174,5.85522 -5.98011,5.17199 -4.900164,-1.14606 -0.999134,-7.30984 0.440794,-9.57993 3.805525,-5.98011 10.197039,-14.39194 17.859519,-14.95762 7.69921,-0.57303 14.17888,7.12617 19.10109,12.01899 2.07173,2.06439 5.51727,6.33275 8.81588,5.0471 0,0 11.75452,-9.97665 11.75452,-9.97665 5.86991,-4.58426 12.59203,-6.78823 19.83575,-7.97838 10.3807,-1.28565 23.60453,2.26275 33.05957,6.52376 z M 36.244488,151.52814 c 0,0 -2.938629,17.63177 -2.938629,17.63177 0,0 -7.104136,42.61012 -7.104136,42.61012 -0.617112,3.73206 -3.159026,16.21389 -2.585993,19.10109 0.815469,4.06265 7.060056,11.66636 10.057457,14.56825 16.184499,15.72167 37.937701,24.04534 59.441118,29.41568 15.479225,3.87164 31.156815,5.68625 47.018065,6.77354 0,0 8.81589,0.66854 8.81589,0.66854 0,0 16.89711,0 16.89711,0 0,0 18.36643,0 18.36643,0 0,0 8.81589,-0.66854 8.81589,-0.66854 16.44898,-1.12403 32.44246,-3.12229 48.48738,-7.14087 18.4399,-4.6063 38.26829,-12.18796 52.89532,-24.61102 5.34831,-4.54018 10.76273,-9.74155 14.02461,-16.06695 0.6318,-1.23423 1.06525,-2.27744 1.21953,-3.67329 0,0 -3.18841,-21.30506 -3.18841,-21.30506 0,0 -7.34658,-44.07943 -7.34658,-44.07943 0,0 -3.97449,-22.03972 -3.97449,-22.03972 0,0 -6.78824,10.2852 -6.78824,10.2852 -4.73119,6.24459 -10.46151,11.55616 -16.72079,16.24327 -24.44205,18.30032 -56.73758,25.84525 -86.68956,27.90229 0,0 -8.81589,0.66853 -8.81589,0.66853 0,0 -19.10108,0 -19.10108,0 0,0 -8.81589,-0.66853 -8.81589,-0.66853 -13.42219,-0.92567 -26.66806,-2.70354 -39.67149,-6.36948 -26.153801,-7.36861 -58.074658,-21.78994 -69.792441,-48.06128 -1.946842,2.60069 -1.976228,5.65686 -2.505181,8.81589 z"
     inkscape:connector-curvature="0"
     style="fill:#000000;fill-opacity:1;stroke:none;stroke-width:1" />
</svg>
