<?xml version="1.0" encoding="UTF-8" standalone="no"?>
<svg
   xmlns:dc="http://purl.org/dc/elements/1.1/"
   xmlns:cc="http://creativecommons.org/ns#"
   xmlns:rdf="http://www.w3.org/1999/02/22-rdf-syntax-ns#"
   xmlns:svg="http://www.w3.org/2000/svg"
   xmlns="http://www.w3.org/2000/svg"
   xmlns:sodipodi="http://sodipodi.sourceforge.net/DTD/sodipodi-0.dtd"
   xmlns:inkscape="http://www.inkscape.org/namespaces/inkscape"
   width="100"
   height="100"
   viewBox="0 0 333.33269 333.33269"
   id="svg2"
   version="1.1"
   inkscape:version="0.91 r13725"
   sodipodi:docname="Catnip.svg">
  <metadata
     id="metadata9">
    <rdf:RDF>
      <cc:Work
         rdf:about="">
        <dc:format>image/svg+xml</dc:format>
        <dc:type
           rdf:resource="http://purl.org/dc/dcmitype/StillImage" />
        <dc:title></dc:title>
      </cc:Work>
    </rdf:RDF>
  </metadata>
  <defs
     id="defs7" />
  <sodipodi:namedview
     pagecolor="#ffffff"
     bordercolor="#666666"
     borderopacity="1"
     objecttolerance="10"
     gridtolerance="10"
     guidetolerance="10"
     inkscape:pageopacity="0"
     inkscape:pageshadow="2"
     inkscape:window-width="1218"
     inkscape:window-height="697"
     id="namedview5"
     showgrid="false"
     units="px"
     inkscape:zoom="1.5733302"
     inkscape:cx="75.000148"
     inkscape:cy="75.317946"
     inkscape:window-x="54"
     inkscape:window-y="-8"
     inkscape:window-maximized="1"
     inkscape:current-layer="svg2" />
  <path
     id="Selection #26"
     d="m 84.936319,43.566339 c 3.60638,-6.198467 10.87115,-10.897165 17.138981,-14.078756 13.52392,-6.865995 32.47476,-11.902795 47.68051,-11.928803 15.07572,-0.02601 24.36042,-0.121368 39.01134,5.080146 20.45061,7.264777 35.77773,21.525587 45.28782,40.866533 4.06585,8.253065 7.39482,18.500042 7.59421,27.741394 9.24135,0.199391 19.48833,3.528358 27.74139,7.594206 29.43189,14.468871 46.43216,43.944101 46.8136,76.496891 0.20806,18.0059 -2.44471,36.47126 -10.2123,52.88203 -3.39832,7.18675 -8.74721,15.6132 -15.79525,19.62704 -3.97049,2.25398 -8.6085,2.12395 -13.00378,2.91284 0,0 0,-5.20151 0,-5.20151 -11.27861,8.01033 -20.71935,15.97731 -33.80982,21.28285 -9.83953,3.97916 -20.66734,5.35756 -31.20907,5.59163 0,0 0,-5.20152 0,-5.20152 -11.27861,8.01033 -20.71935,15.97731 -33.80982,21.28285 -9.83953,3.97916 -20.66734,5.35756 -31.20907,5.59163 0,0 0,-5.20151 0,-5.20151 -11.27861,8.01032 -20.71935,15.97731 -33.80982,21.28285 -9.83953,3.97915 -20.667341,5.35755 -31.209071,5.59162 0,0 0,-9.5361 0,-9.5361 -18.63875,6.2158 -32.3534,8.63451 -52.01511,8.66918 0,0 -13.00378,0.86692 -13.00378,0.86692 0,0 0.86692,-12.13686 0.86692,-12.13686 0.026,-17.98856 2.32334,-35.93377 8.66918,-52.88203 0,0 -9.5361,0 -9.5361,0 0.48547,-10.64576 1.55178,-21.23083 5.59162,-31.20907 5.30555,-13.09046 13.27253,-22.53121 21.28285,-33.80982 0,0 -5.20151,0 -5.20151,0 0.48548,-10.64576 1.55179,-21.23083 5.59163,-31.20906 5.30554,-13.09047 13.27252,-22.53122 21.28285,-33.80983 0,0 -5.20151,0 -5.20151,0 0.48547,-10.64576 1.55178,-21.230832 5.59162,-31.209065 5.30554,-13.09047 13.27252,-22.531212 21.28285,-33.809822 0,0 -5.20151,0 -5.20151,0 0.71954,-4.005164 0.76289,-8.634503 2.80015,-12.136854 z M 306.13925,201.34551 c 6.86599,-36.40191 -2.8435,-76.86967 -38.48252,-94.70218 -5.6263,-2.81749 -19.88711,-8.253069 -26.00755,-7.455504 -4.15254,0.53749 -7.5682,4.828734 -10.40302,7.663564 0,0 -21.67297,21.67296 -21.67297,21.67296 0,0 -84.09109,84.0911 -84.09109,84.0911 0,0 -45.946691,45.94668 -45.946691,45.94668 0,0 -11.26994,11.03587 -11.26994,11.03587 -1.67315,1.2657 -3.78843,2.45338 -5.60029,0.63285 -1.82053,-1.81186 -0.63285,-3.92714 0.63285,-5.60029 0,0 10.16895,-10.40302 10.16895,-10.40302 0,0 45.946691,-45.94669 45.946691,-45.94669 0,0 86.69185,-86.69185 86.69185,-86.69185 0,0 20.80604,-20.80604 20.80604,-20.80604 3.91848,-3.927144 7.27345,-6.146456 6.78798,-12.136863 -0.43346,-5.288203 -3.31163,-14.139441 -5.42691,-19.072208 -16.87024,-39.470794 -60.52826,-50.818761 -99.32286,-41.291323 -13.09914,3.224937 -29.093791,8.227057 -37.277501,19.618366 8.16638,6.727282 2.28,12.405598 -2.71345,19.072202 -7.94964,10.619752 -19.87844,28.62565 -19.70506,42.444336 0.0693,5.52227 5.89505,4.87208 4.72471,11.30461 -0.80624,4.41262 -7.71558,12.50964 -10.54173,16.47145 -6.31117,8.82524 -11.28728,17.17366 -14.11344,27.7414 -0.65019,2.44471 -2.18463,8.79055 -1.59513,11.08789 0.96228,3.81444 7.19543,4.612 3.71041,12.31891 -1.56912,3.45033 -7.17808,10.36835 -9.67481,13.87069 -6.13778,8.59117 -10.97518,16.63617 -13.87069,26.87448 -0.75422,2.66144 -2.92152,10.22097 -1.21369,12.49229 1.43909,1.91589 8.06234,1.89856 7.87162,8.31375 0,0 -5.11482,19.07221 -5.11482,19.07221 -2.91284,13.67131 -3.64972,24.25638 -3.64972,38.14442 13.09047,0 24.40375,-0.69354 37.27749,-3.47635 0,0 19.93913,-5.2882 19.93913,-5.2882 6.4152,-0.19072 6.39786,6.43254 8.31375,7.87162 2.27132,1.70783 9.830851,-0.45947 12.492291,-1.21369 10.00424,-2.83482 17.56377,-7.32546 26.00756,-13.25518 3.96182,-2.78281 10.86249,-8.43512 14.72894,-10.29899 7.95832,-3.83178 8.12303,2.65277 12.32759,3.71908 2.29733,0.5895 8.64317,-0.94494 11.08788,-1.59513 10.56774,-2.82616 18.91617,-7.80227 27.7414,-14.11344 4.04851,-2.8955 12.5183,-10.0996 17.09563,-10.81914 5.46159,-0.86692 5.27086,4.93277 10.68044,5.00212 13.81868,0.17338 31.82458,-11.75541 42.44433,-19.70506 6.99603,-5.24485 12.26689,-11.07055 19.0722,-2.71345 12.45762,-5.36623 18.80347,-27.45531 21.14415,-39.87825 z"
     inkscape:connector-curvature="0"
     style="fill:#000000;fill-opacity:1;stroke:none;stroke-width:0.8669185" />
</svg>
