<?xml version="1.0" encoding="UTF-8" standalone="no"?>
<svg
   xmlns:dc="http://purl.org/dc/elements/1.1/"
   xmlns:cc="http://creativecommons.org/ns#"
   xmlns:rdf="http://www.w3.org/1999/02/22-rdf-syntax-ns#"
   xmlns:svg="http://www.w3.org/2000/svg"
   xmlns="http://www.w3.org/2000/svg"
   xmlns:sodipodi="http://sodipodi.sourceforge.net/DTD/sodipodi-0.dtd"
   xmlns:inkscape="http://www.inkscape.org/namespaces/inkscape"
   width="100"
   height="100"
   viewBox="0 0 333.33269 333.33269"
   id="svg2"
   version="1.1"
   inkscape:version="0.91 r13725"
   sodipodi:docname="Cheese.svg">
  <metadata
     id="metadata9">
    <rdf:RDF>
      <cc:Work
         rdf:about="">
        <dc:format>image/svg+xml</dc:format>
        <dc:type
           rdf:resource="http://purl.org/dc/dcmitype/StillImage" />
        <dc:title></dc:title>
      </cc:Work>
    </rdf:RDF>
  </metadata>
  <defs
     id="defs7" />
  <sodipodi:namedview
     pagecolor="#ffffff"
     bordercolor="#666666"
     borderopacity="1"
     objecttolerance="10"
     gridtolerance="10"
     guidetolerance="10"
     inkscape:pageopacity="0"
     inkscape:pageshadow="2"
     inkscape:window-width="1218"
     inkscape:window-height="697"
     id="namedview5"
     showgrid="false"
     units="px"
     inkscape:zoom="1.5733302"
     inkscape:cx="75.000148"
     inkscape:cy="75.317946"
     inkscape:window-x="54"
     inkscape:window-y="-8"
     inkscape:window-maximized="1"
     inkscape:current-layer="svg2" />
  <path
     id="Selection #25"
     d="m 16.808191,143.68357 c 0,-2.81294 -0.242097,-6.52509 1.175899,-9.01523 1.752321,-3.06656 8.392692,-6.97469 11.505366,-9.04981 0,0 24.209687,-16.13979 24.209687,-16.13979 0,0 101.450117,-67.625723 101.450117,-67.625723 0,0 26.51537,-17.6846 26.51537,-17.6846 4.4615,-2.97433 9.47636,-7.320545 14.98695,-7.528056 8.88841,-0.334325 21.30452,2.201928 29.9739,4.415385 19.9557,5.107088 44.67263,14.249127 62.25348,24.866804 18.07656,10.917416 27.63363,19.240937 27.66821,41.271753 0,0 0,169.467817 0,169.467817 0,0 -51.8779,10.14501 -51.8779,10.14501 0,0 -96.83875,19.36775 -96.83875,19.36775 0,0 -97.991585,19.59832 -97.991585,19.59832 0,0 -53.030744,10.83672 -53.030744,10.83672 0,0 0,-99.14444 0,-99.14444 7.539589,0 13.15393,0.79546 19.575262,-4.10413 13.280742,-10.08737 12.104843,-31.39189 -2.282628,-39.60013 -5.233904,-2.99739 -11.493837,-2.40944 -17.292634,-2.40944 0,0 0,-27.66821 0,-27.66821 z M 290.0318,59.203293 c -11.59759,-8.11601 -29.23608,-16.001451 -42.65516,-20.785746 -10.67532,-3.804379 -22.31903,-7.08998 -33.43243,-9.326494 -4.89958,-0.979916 -11.18257,-2.455554 -16.13979,-1.590922 -4.68054,0.830047 -8.72702,4.438443 -12.68126,7.020809 0,0 -27.66822,18.445476 -27.66822,18.445476 0,0 -69.17053,46.136742 -69.17053,46.136742 0,0 -38.043794,26.134932 -38.043794,26.134932 0,0 61.100634,-11.52842 61.100634,-11.52842 0,0 126.81265,-25.362525 126.81265,-25.362525 0,0 65.71201,-12.681265 65.71201,-12.681265 -2.04053,-8.219765 -7.18221,-11.805105 -13.83411,-16.462587 z m -57.64211,40.902837 c 0,0 -140.646756,28.12935 -140.646756,28.12935 0,0 -47.266529,9.45331 -47.266529,9.45331 -14.398999,2.8821 -15.978393,1.8676 -16.139791,10.60615 0,0 0,12.68126 0,12.68126 27.426117,4.3001 36.671912,38.19367 18.237964,57.53837 -5.441415,5.69504 -10.74449,7.79321 -18.237964,9.32649 0,0 0,74.93475 0,74.93475 0,0 72.629056,-14.06468 72.629056,-14.06468 0,0 140.64676,-28.12935 140.64676,-28.12935 0,0 43.808,-8.7616 43.808,-8.7616 0,0 17.75377,-4.35774 17.75377,-4.35774 0,0 1.84455,-9.2458 1.84455,-9.2458 0,0 0,-152.17518 0,-152.17518 0,0 -72.62906,14.06467 -72.62906,14.06467 z m 44.84556,40.32642 c 12.61209,12.23166 12.86572,36.42982 1.02603,49.26095 -6.60579,7.15915 -14.5604,9.44178 -23.96759,9.79916 -36.27995,1.38341 -42.98949,-39.89987 -26.27327,-58.01102 7.12456,-7.71252 14.1569,-8.96911 23.96759,-9.79916 9.89138,0.0807 17.83447,1.56787 25.24724,8.75007 z m -41.14494,42.32084 c 5.8795,6.22535 15.92075,6.96317 23.96759,5.51059 17.10818,-3.07809 20.68199,-27.12638 11.07882,-38.77009 -6.42134,-7.78168 -15.71324,-7.60876 -24.91293,-6.58273 -18.54923,4.6229 -20.47447,28.89023 -10.13348,39.84223 z m -74.13928,15.32127 c 12.61209,12.23166 12.86572,36.42983 1.02603,49.26097 -6.60579,7.15915 -14.5604,9.44177 -23.96759,9.79915 -36.27995,1.38342 -42.989492,-39.89987 -26.27328,-58.01103 7.12457,-7.71251 14.1569,-8.96911 23.96759,-9.79916 9.89139,0.0807 17.83447,1.56787 25.24725,8.75007 z m -41.14494,42.32086 c 5.87949,6.22534 15.92075,6.96316 23.96759,5.51058 17.10818,-3.07809 20.68199,-27.12638 11.07881,-38.7701 -6.42133,-7.78168 -15.71324,-7.60875 -24.91292,-6.58272 -18.54923,4.62289 -20.47448,28.89023 -10.13348,39.84224 z"
     inkscape:connector-curvature="0"
     style="fill:#000000;fill-opacity:1;stroke:none;stroke-width:1" />
</svg>
