<?xml version="1.0" encoding="UTF-8" standalone="no"?>
<svg
   xmlns:dc="http://purl.org/dc/elements/1.1/"
   xmlns:cc="http://creativecommons.org/ns#"
   xmlns:rdf="http://www.w3.org/1999/02/22-rdf-syntax-ns#"
   xmlns:svg="http://www.w3.org/2000/svg"
   xmlns="http://www.w3.org/2000/svg"
   xmlns:sodipodi="http://sodipodi.sourceforge.net/DTD/sodipodi-0.dtd"
   xmlns:inkscape="http://www.inkscape.org/namespaces/inkscape"
   width="100"
   height="100"
   viewBox="0 0 333.33269 333.33269"
   id="svg2"
   version="1.1"
   inkscape:version="0.91 r13725"
   sodipodi:docname="Chipmunk.svg">
  <metadata
     id="metadata9">
    <rdf:RDF>
      <cc:Work
         rdf:about="">
        <dc:format>image/svg+xml</dc:format>
        <dc:type
           rdf:resource="http://purl.org/dc/dcmitype/StillImage" />
        <dc:title></dc:title>
      </cc:Work>
    </rdf:RDF>
  </metadata>
  <defs
     id="defs7" />
  <sodipodi:namedview
     pagecolor="#ffffff"
     bordercolor="#666666"
     borderopacity="1"
     objecttolerance="10"
     gridtolerance="10"
     guidetolerance="10"
     inkscape:pageopacity="0"
     inkscape:pageshadow="2"
     inkscape:window-width="1218"
     inkscape:window-height="697"
     id="namedview5"
     showgrid="false"
     units="px"
     inkscape:zoom="1.5733302"
     inkscape:cx="75.000148"
     inkscape:cy="75.317946"
     inkscape:window-x="54"
     inkscape:window-y="-8"
     inkscape:window-maximized="1"
     inkscape:current-layer="svg2" />
  <path
     id="Selection #23"
     d="m 166.43396,24.935842 c 5.27798,1.362352 9.18459,4.258476 13.4972,7.371132 1.92172,1.389418 3.8615,3.202879 6.29749,1.741284 4.59229,-2.769814 2.86003,-15.30164 12.6852,-16.961724 11.55743,-1.948787 18.19777,13.479157 22.70886,16.014394 1.624,0.911241 6.70349,1.272129 8.86882,1.578883 6.00878,0.857109 11.41307,1.732262 17.14217,3.90661 6.73055,2.562303 16.60083,9.013171 21.23824,14.417465 0,0 10.80859,15.30164 10.80859,15.30164 4.62838,5.846382 8.65228,7.190688 10.73641,11.728852 2.95026,6.450868 -2.85102,15.978304 -6.96514,20.751042 -3.99683,4.63741 -6.54109,5.67496 -10.47476,9.29286 -5.55767,5.11558 -5.75616,7.41624 -13.61449,12.57694 -6.92905,4.54718 -13.822,4.89905 -19.28043,12.41454 -4.1051,5.66593 -11.70178,27.41844 -11.86418,34.28433 0,0 1.96683,9.92441 1.96683,9.92441 1.08267,10.88077 -7.06437,20.29994 -17.73763,21.34651 -2.9683,0.28871 -6.21629,-1.22702 -8.8237,0.75787 -3.58181,2.7247 -3.78932,8.11095 -3.80737,12.17996 0,0 0,14.43551 0,14.43551 0,0 -1.02853,14.43551 -1.02853,14.43551 0,0 0,25.26214 0,25.26214 0.0722,4.47501 -1.7503,14.17386 0,17.96319 1.06462,3.23896 15.01293,11.64765 10.65521,20.8142 -2.13826,4.51109 -6.92904,5.90953 -11.43112,6.8298 -7.57864,1.55181 -14.91368,1.76835 -22.55548,2.29163 0,0 -9.02219,0.82102 -9.02219,0.82102 0,0 -20.75105,0 -20.75105,0 0,0 -15.33773,-0.90222 -15.33773,-0.90222 0,0 -23.4577,-0.98342 -23.4577,-0.98342 0,0 -20.751046,-1.67812 -20.751046,-1.67812 0,0 -12.63107,0 -12.63107,0 0,0 -9.92441,0.85711 -9.92441,0.85711 0,0 -5.41331,0 -5.41331,0 -5.41332,-0.0271 -16.99782,-0.0902 -15.99635,-8.11096 0.70373,-5.66593 11.59351,-10.91685 15.99635,-14.228 2.38185,-1.79541 5.49451,-4.1502 5.48549,-7.43428 0,0 -2.44502,-9.0222 -2.44502,-9.0222 0,0 -3.69007,-18.9466 -3.69007,-18.9466 -3.22995,-23.99904 -4.14119,-47.97101 -3.8615,-72.17755 0.15338,-12.96489 3.04048,-30.59426 8.39966,-42.40431 7.89442,-17.37674 20.61571,-26.9132 38.515736,-32.46185 8.30042,-2.57132 23.66522,-4.48403 29.68302,-10.131922 6.54109,-6.153136 6.68545,-14.417465 9.03122,-22.366017 2.22848,-7.551577 10.38454,-19.61425 17.22336,-23.457704 -3.28408,-8.913927 -6.94709,-32.389674 9.92442,-28.031955 z m 30.67545,7.280911 c 0,0 11.72886,0 11.72886,0 -4.0239,-7.326021 -9.32895,-10.03268 -11.72886,0 z m -1.19093,15.328706 c 0.58645,2.463059 -1.46159,5.467449 -5.2058,3.527678 -7.19069,-3.726166 -14.19191,-14.0656 -27.8876,-18.856384 -2.90515,10.222145 3.07657,23.710324 6.84784,33.382115 0.92027,2.860035 4.36675,9.716902 0,11.575475 -2.05706,0.983419 -3.87954,-0.911242 -4.97123,-2.607415 -2.67056,-4.168253 -2.52621,-9.013171 -6.38771,-13.479157 -3.59083,4.890029 -8.58913,10.555967 -10.70934,16.239949 -2.78786,7.452332 -2.13826,20.317979 -13.6596,29.08755 -8.54402,6.49598 -18.08048,6.52305 -27.95978,9.45526 -19.136066,5.68398 -31.361136,14.11071 -38.308226,33.63474 -3.69008,10.37552 -5.84638,26.85906 -5.90052,37.89321 -0.0902,20.18264 0.53231,40.4104 2.95928,60.44869 0,0 4.64643,26.16436 4.64643,26.16436 1.01951,3.60888 4.0239,9.30189 3.30212,12.63107 -1.9127,8.88687 -15.38284,13.15436 -19.0278,18.94661 0,0 18.9466,-0.86613 18.9466,-0.86613 0,0 18.94661,0 18.94661,0 0,0 18.044386,1.76835 18.044386,1.76835 0,0 8.11997,0 8.11997,0 0,0 10.82663,0.93831 10.82663,0.93831 0,0 12.63107,0 12.63107,0 0,0 10.82664,0.86613 10.82664,0.86613 0,0 26.16436,-0.90222 26.16436,-0.90222 4.05096,-0.0541 13.97538,-1.37137 18.04438,-2.19239 1.88564,-0.37894 4.80883,-0.812 4.74568,-3.34724 -0.0902,-3.06754 -4.22239,-5.87344 -6.55011,-7.317 -8.82371,-5.47647 -17.00684,-3.00439 -26.16437,0.79396 -2.61643,0.80297 -8.94099,5.25994 -10.2853,0 -0.9383,-3.32919 4.03292,-6.21629 6.67643,-7.36211 7.95757,-3.4555 16.66399,-4.93514 25.29823,-4.93514 0,0 0,-11.72885 0,-11.72885 0,0 0.86613,-10.82664 0.86613,-10.82664 0,0 0,-24.35992 0,-24.35992 0,0 0.86613,-10.82663 0.86613,-10.82663 0,0 0,-12.63107 0,-12.63107 0.0541,-11.98147 1.74128,-9.22068 5.51256,-18.04439 0,0 1.40746,-5.41331 1.40746,-5.41331 0.59547,-1.97586 2.47208,-5.3231 2.40893,-7.11851 -0.11729,-2.93222 -3.3743,-3.83444 -5.68398,-4.58328 0,0 -17.14217,-4.55621 -17.14217,-4.55621 -2.49013,-0.92026 -6.86589,-2.79688 -6.04487,-6.20727 0.50524,-2.09314 2.45403,-2.82394 4.39381,-2.58034 0,0 14.28213,3.91563 14.28213,3.91563 6.505,1.46159 17.95416,4.08705 19.06389,12.10778 0.42405,3.05853 -1.93977,7.67789 -2.82394,10.82663 1.71421,0.63156 2.58937,1.10071 4.51109,1.08267 13.33481,-0.0902 10.39357,-15.68057 7.01025,-23.63815 -2.21946,-5.2058 -4.61937,-7.91246 -9.7169,-10.48379 -2.61644,-1.32626 -7.78616,-2.5623 -9.25678,-5.05242 -1.39844,-2.37284 0.21654,-6.18021 5.68399,-4.79079 6.70349,1.71422 11.4672,5.9366 17.10608,9.50037 2.26457,-10.0417 7.65984,-25.38845 15.35577,-32.3175 5.47647,-4.93514 10.15899,-4.97122 14.41746,-9.18459 -2.81492,-0.0992 -7.64179,-1.17288 -5.4494,-5.21483 1.40746,-2.58034 5.53963,-3.04048 8.15606,-3.41941 6.06292,-0.88417 9.53646,-0.18946 14.15582,-5.3682 3.50061,-3.924657 -0.14435,-7.037314 0.46013,-13.064139 0.51427,-5.133628 3.41942,-8.51695 6.1351,-12.63107 -5.59376,-6.613269 -9.85224,-15.725684 -16.27604,-21.238244 -13.01,-11.160453 -23.73739,-11.602541 -39.66156,-13.118269 -12.0717,-1.290174 -13.99342,-3.392345 -27.06658,0 0.83906,1.31724 3.01341,4.177275 3.32016,5.476471 z m 42.75618,20.760067 c 1.38039,1.894661 3.96976,5.494516 3.17581,7.957575 -1.24506,3.852477 -12.06267,7.768109 -15.87004,8.580106 -13.43404,2.869057 -21.27433,-8.201174 -20.31798,-14.733242 0.90222,-6.12607 7.69593,-10.465745 13.10023,-12.152895 9.03121,-1.407462 14.80542,3.338212 19.91198,10.348456 z m -10.1229,1.001464 c -3.44648,-3.626922 -7.3982,-4.52012 -11.53037,-1.317241 -0.97439,0.757865 -2.04803,1.795417 -2.36381,3.049502 -1.16386,4.682518 6.24336,6.405757 9.51841,5.810293 0,0 7.21776,-2.228482 7.21776,-2.228482 -0.72178,-2.454037 -0.98342,-3.374301 -2.84199,-5.314072 z m 49.75739,24.260678 c 3.30213,-3.672033 4.06901,-5.96367 4.5111,-10.826632 -4.98025,2.535236 -5.88247,5.575715 -4.5111,10.826632 z M 120.01477,130.82933 c -1.41648,1.36235 -4.89003,2.38186 -6.81176,3.32016 -3.78029,1.84955 -8.68837,5.2419 -11.64765,8.21922 -14.444526,14.56182 -12.739326,36.12486 -12.712266,54.95418 0,0 0.82102,10.82663 0.82102,10.82663 0,0 1.49769,18.94661 1.49769,18.94661 0.36088,3.14874 -0.27067,8.18313 -4.89905,6.62229 -3.20288,-1.07364 -3.51866,-5.61181 -3.71715,-8.42673 0,0 -1.82248,-25.26214 -1.82248,-25.26214 -0.0451,-26.50721 -2.71568,-54.73765 23.457696,-70.85129 3.87954,-2.39088 8.13802,-4.33967 12.61303,-5.16971 3.99683,0.50524 6.63131,3.56376 3.22092,6.82078 z m 11.84614,16.51963 c -2.3187,2.49915 -6.64936,3.13973 -11.3409,10.27628 -8.60717,13.07316 -4.95318,31.37919 -4.61034,46.01319 0,0 1.218,14.41746 1.218,14.41746 -0.11729,2.34577 -1.24506,4.65545 -3.92466,4.65545 -3.53669,0 -4.22238,-3.74421 -4.51109,-6.44184 0,0 -1.80444,-22.55549 -1.80444,-22.55549 -0.0271,-16.33017 -1.72324,-35.47526 11.76494,-47.54696 3.26603,-2.92319 6.41478,-5.07949 10.7725,-5.72007 3.87052,0.96538 5.5306,3.57279 2.43599,6.90198 z"
     inkscape:connector-curvature="0"
     style="fill:#000000;fill-opacity:1;stroke:none;stroke-width:0.90221936" />
</svg>
