<?xml version="1.0" encoding="UTF-8" standalone="no"?>
<svg
   xmlns:dc="http://purl.org/dc/elements/1.1/"
   xmlns:cc="http://creativecommons.org/ns#"
   xmlns:rdf="http://www.w3.org/1999/02/22-rdf-syntax-ns#"
   xmlns:svg="http://www.w3.org/2000/svg"
   xmlns="http://www.w3.org/2000/svg"
   xmlns:sodipodi="http://sodipodi.sourceforge.net/DTD/sodipodi-0.dtd"
   xmlns:inkscape="http://www.inkscape.org/namespaces/inkscape"
   width="100"
   height="100"
   viewBox="0 0 333.33269 333.33269"
   id="svg2"
   version="1.1"
   inkscape:version="0.91 r13725"
   sodipodi:docname="cityCat.svg">
  <metadata
     id="metadata9">
    <rdf:RDF>
      <cc:Work
         rdf:about="">
        <dc:format>image/svg+xml</dc:format>
        <dc:type
           rdf:resource="http://purl.org/dc/dcmitype/StillImage" />
        <dc:title></dc:title>
      </cc:Work>
    </rdf:RDF>
  </metadata>
  <defs
     id="defs7" />
  <sodipodi:namedview
     pagecolor="#ffffff"
     bordercolor="#666666"
     borderopacity="1"
     objecttolerance="10"
     gridtolerance="10"
     guidetolerance="10"
     inkscape:pageopacity="0"
     inkscape:pageshadow="2"
     inkscape:window-width="1218"
     inkscape:window-height="697"
     id="namedview5"
     showgrid="false"
     units="px"
     inkscape:zoom="1.5733302"
     inkscape:cx="75.000148"
     inkscape:cy="75.000148"
     inkscape:window-x="54"
     inkscape:window-y="-8"
     inkscape:window-maximized="1"
     inkscape:current-layer="svg2" />
  <path
     id="Selection #46"
     d="m 94.05982,188.6253 c -1.339998,1.32 -3.62666,3.64666 -5.659989,2.01333 -1.959996,-1.56667 0.16,-4.58666 1.253331,-5.97999 2.326662,-2.95999 5.519989,-5.33999 8.339984,-7.81999 1.539997,-1.34666 3.379994,-2.54666 2.993324,-4.84665 0,0 -5.873319,-13.33331 -5.873319,-13.33331 -2.973327,-9.01998 -4.553324,-20.51329 -4.446658,-29.99994 0.08667,-6.99332 1.306664,-16.4333 2.666662,-23.33329 0.553332,-2.80666 2.599995,-10.419979 2.253329,-12.666641 0,0 -4.919991,-14.666638 -4.919991,-14.666638 C 87.606499,68.818865 84.866504,59.505552 83.073175,49.992237 81.193178,40.005589 77.759851,17.732299 93.99982,18.718963 c 10.41998,0.639999 25.15995,12.419976 32.66661,19.273296 0,0 8.66665,7.993319 8.66665,7.993319 1.26666,1.233331 2.83332,2.993327 4.66665,3.259994 0,0 13.33331,-3.619993 13.33331,-3.619993 9.57332,-1.95333 19.0333,-2.279996 28.66661,-0.559999 3.74,0.673332 7.73332,1.719996 11.33331,2.926661 1.93333,0.646665 4.00666,1.766663 5.99999,0.793331 0,0 11.33331,-10.073314 11.33331,-10.073314 7.22666,-6.639987 21.02663,-17.553299 30.66661,-19.606629 1.54666,-0.333332 3.08666,-0.486665 4.66666,-0.413332 10.15998,0.459999 10.75331,10.946645 10.66664,18.633297 -0.12666,10.79998 -4.97332,28.259944 -8.44665,38.66659 0,0 -5.66665,17.3333 -5.66665,17.3333 -0.18,2.133329 1.59333,8.113316 2.11333,10.666646 1.14,5.61332 2.65999,16.3933 2.66666,21.99996 0.0133,10.28664 -0.26667,20.04662 -3.34666,29.99994 -2.78,8.97331 -4.66666,10.55331 -7.98665,17.99996 4.09999,2.18667 10.24664,7.72666 13.17997,11.33332 3.08666,3.78665 1.57333,6.25332 -1.20666,5.75998 -2.82,-0.50666 -8.68665,-7.25332 -11.30665,-9.46664 -1.16666,-0.98667 -3.17332,-3.10666 -4.83332,-2.32 -2.06,0.97333 -2.12,2.92666 -1.18666,4.69332 1.61999,3.09333 5.97998,7.81999 6.17998,11.31998 0.16,2.68666 -2.85999,5.37333 -6.00665,0 0,0 -2.39333,-3.98666 -2.39333,-3.98666 -1.64666,-2.49332 -2.32666,-3.20666 -3.91333,-5.99998 -4.17332,3.97332 -2.07999,4.23332 0,9.33331 0.46,1.64666 1.42,4.61332 -0.71333,5.59332 -5.04666,2.31333 -4.45999,-8.63998 -9.15998,-8.07331 -6.05999,0.73333 -1.31333,7.36665 -5.37332,8.23998 -3.48,0.74 -2.58,-3.67999 -5.97333,-3.71999 0,0 -7.95998,1.81999 -7.95998,1.81999 -5.10666,1.08 -12.15331,2.13333 -17.3333,2.14 0,0 -17.3333,0 -17.3333,0 -9.68665,-0.0133 -18.6333,-2.77333 -27.99994,-4.66666 -1.08667,6.42666 -4.82,4.61999 -5.47999,3.14 -0.76,-1.7 0.22666,-4.18666 0.81333,-5.80666 0,0 -6.66666,-2 -6.66666,-2 -0.52,1.82 -1.01333,2.95333 -1.8,4.66666 -0.58666,1.28667 -1.25333,3.18666 -2.47332,3.97999 -1.86667,1.22 -4.00666,0.32 -4.02666,-2.01333 -0.0133,-2.58666 2.98666,-7.11998 3.23999,-8.43331 0.23333,-1.20667 -0.36,-2.24 -1.65333,-2.38 -4.05333,-0.42 -6.73332,9.97332 -10.02665,11.07331 -2.97999,1 -3.39332,-2.15333 -2.83333,-4.22665 1.05334,-3.89333 5.99333,-9.30665 6.31999,-11.33332 0.22667,-1.43999 -0.86666,-3.31999 -1.41333,-4.66665 -4.80666,2.80666 -8.673314,6.75998 -12.60664,10.63331 z m 103.5398,-28.43328 c 1.06,-2.35333 5.22666,-1.07333 7.06666,-0.62 5.37999,1.34 13.69997,4.18666 18.66663,6.59332 1.52666,0.73333 5.81332,3.25333 7.26665,3.1 2.90666,-0.31334 5.77332,-8.08665 6.69999,-10.60665 5.05332,-13.78664 5.74665,-28.88661 3.75332,-43.33325 0,0 -2.47333,-13.99997 -2.47333,-13.99997 -0.60666,-2.526663 -1.97999,-6.213323 -1.66666,-8.666651 0,0 5.30666,-15.999969 5.30666,-15.999969 3.61332,-10.839979 8.98665,-28.779942 9.11331,-39.999921 0.0333,-3.42666 0,-9.159983 -2.92666,-11.506645 -3.17333,-2.539995 -9.29998,0.08667 -12.40664,1.719997 -8.05999,4.233325 -19.26663,13.573307 -25.99995,19.846629 -2.00666,1.866663 -7.32665,7.673318 -9.33332,8.56665 -2.15333,0.953331 -4.01332,-0.213333 -5.99999,-0.993332 -3.32666,-1.306664 -7.84665,-2.753328 -11.33331,-3.34666 -9.87331,-2.246662 -19.50663,-2.106662 -29.33327,0 -3.81333,1.019998 -6.34666,1.75333 -9.99998,3.179994 -1.72,0.673332 -4.15333,1.906663 -5.99999,1.399997 -2.44666,-0.673332 -8.52665,-7.433319 -10.66665,-9.526648 -5.83999,-5.699989 -14.42664,-12.486643 -21.33329,-16.879968 -3.24,-2.053329 -10.793316,-6.153321 -14.653308,-4.726657 -3.473327,1.286664 -4.246659,5.679989 -4.566658,8.933316 -0.573332,5.826655 2.299996,19.333296 3.799993,25.333285 0,0 7.199986,23.333286 7.199986,23.333286 0.846665,2.553328 3.493327,9.193315 3.566657,11.333311 0.06,1.699997 -1.31999,6.639987 -1.779994,8.666646 0,0 -2.713328,15.33331 -2.713328,15.33331 -2.133329,17.82663 -0.18,37.31326 9.813312,52.66656 3.48,-1.01333 5.39333,-2.56666 8.66665,-3.99999 7.19332,-3.13999 9.80665,-4.06666 17.33331,-6.19332 2.08666,-0.58667 10.33331,-2.52 7.63998,2.65999 0,0 -1.64,2.2 -1.64,2.2 3.53333,1.3 4.52666,1.28666 4.66666,5.33332 4.05999,2.87333 3.14666,2.63333 7.99999,4.53333 1.95333,0.75999 3.93332,1.45333 5.99998,1.78666 1.46,0.3 4.42,0.57333 5.77333,0 4.91999,-2.26 1.85999,-11.72664 -0.33334,-14.91997 -1.67999,-2.44 -3.95332,-2.78666 -5.84665,-4.87333 -1.39333,-1.53999 -2.44,-3.76666 -1.74,-5.84665 2.00666,-5.98666 8.60665,-2.10666 12.81331,-1.85333 5.26666,0.32 8.56665,-1.98666 11.31998,-1.58 3.97999,0.58 4.77332,5.05999 2.85333,8.07332 -1.78,2.80666 -4.42666,3.67999 -5.89333,5.09999 -2.28666,2.21333 -6.49998,12.53331 -1.46666,15.56664 3.71333,2.23333 15.0733,-1.9 17.9533,-4.70666 3.21333,-3.13333 1.02,-6.19332 6.56665,-5.27999 -0.72,-2.48666 -2.41999,-4.27333 -1.73333,-5.79999 z M 122.69977,53.325564 c -1.78667,-1.986663 -4.54,-7.306653 0.64666,-6.419988 2.54666,0.433333 8.15999,6.273321 9.69998,8.419984 0.8,1.126664 1.52,2.433328 1.06,3.853326 -0.65333,1.999996 -8.59331,5.146656 -10.77331,6.446652 -6.65332,3.973325 -9.80665,8.713316 -13.99998,15.033304 -1.25333,1.89333 -3.55999,6.67332 -6.45998,5.559989 -3.799996,-1.45333 1.27999,-8.44665 2.45999,-10.226647 5.62666,-8.48665 11.13331,-15.093302 21.3333,-17.999963 -1.64,-2.293329 -2.17333,-2.679994 -3.96666,-4.666657 z m 110.18645,22.66662 c 1.13333,1.69333 3.65999,5.366657 3.87333,7.319986 0.22666,2.03333 -1.28,3.58666 -3.31333,2.906661 -2.04666,-0.679998 -6.60665,-8.713316 -8.21998,-10.893312 -5.05333,-6.85332 -7.91332,-8.499984 -15.22664,-12.166641 -2.27333,-1.133331 -6.51999,-2.553328 -5.55999,-5.846655 0.63333,-2.186663 7.45998,-8.939983 9.55998,-9.966648 2.26,-1.113331 4.93999,-0.299999 4.10666,2.659995 -0.56,1.966663 -4.57999,5.853322 -6.10666,7.986651 9.65999,2.759995 15.52664,10.006646 20.88663,17.999963 z m -86.65316,32.673266 c 3.11332,4.34 2.83999,10.91332 2.49332,15.99331 -0.12666,1.79333 0.12,4.12665 -1.21999,5.51999 -1.88,1.95332 -6.94666,1.83999 -9.50665,1.81333 -8.13332,-0.0933 -15.79997,-4.42666 -19.2133,-11.99998 -2.03333,-4.52666 -2.24666,-13.53997 2.02666,-16.8533 1.18667,-0.91333 2.44667,-1.15333 3.85333,-1.5 7.61999,-1.06666 16.76663,0.32667 21.56663,7.02665 z m 70.83986,-5.91332 c 3.17333,2.2 3.66666,7.72665 3.58666,11.23998 -0.22667,9.24665 -7.91999,16.1133 -16.65997,17.6933 -3.09333,0.55333 -10.58665,0.7 -12.99331,-1.50666 -2.26666,-2.08667 -1.70666,-8.52665 -1.67333,-11.51998 0.12,-9.85998 5.32666,-14.82664 14.66664,-17.01997 3.24666,-0.45333 10.34665,-0.78666 13.07331,1.11333 z m -92.63982,5.06666 c -3.98666,3.59333 -1.16667,12.57331 4.89999,15.50664 -0.67333,-1.59333 -2.02666,-4.38 -2.19333,-5.99999 -0.45333,-4.35999 3.51333,-7.81999 6.19332,-10.66665 -2.37333,0 -7.11999,-0.44666 -8.89998,1.16 z m 90.46649,8.83998 c 2.46666,-7.85998 -2.78666,-12.28664 -10.23331,-9.33331 7.87331,5.65332 7.99331,9.01331 3.33332,16.66663 3.06,-1.44666 5.85332,-3.99332 6.89999,-7.33332 z m -77.56652,-7.99998 c 0,0 0.66667,0.66666 0.66667,0.66666 0,0 0,-0.66666 0,-0.66666 0,0 -0.66667,0 -0.66667,0 z m 62.66655,0 c 0,0 0.66666,0.66666 0.66666,0.66666 0,0 0,-0.66666 0,-0.66666 0,0 -0.66666,0 -0.66666,0 z m -58.93989,6.66665 c 0.96,4.84666 -3.45332,8.21998 -6.39332,11.33331 1.7,0 6.35999,0.29333 7.59999,-0.68 1.10666,-0.87333 1.27999,-3.33332 1.33999,-4.65332 0.22667,-5.33332 -0.52,-8.72665 -4.93999,-11.99998 0,0 2.39333,5.99999 2.39333,5.99999 z m 58.27322,-5.99999 c 0,0 0.66667,0.66667 0.66667,0.66667 0,0 0,-0.66667 0,-0.66667 0,0 -0.66667,0 -0.66667,0 z m -4.66666,11.99998 c 0.007,1.21333 -0.1,3.28666 0.68,4.26666 1.4,1.77333 6.15332,1.12666 7.98665,0.4 -2.96666,-2.14667 -6.81998,-5.93999 -6.33998,-9.99998 0.17333,-1.46667 1.68666,-4.48666 2.33999,-5.99999 -4.93999,2.47999 -4.69999,6.45999 -4.66666,11.33331 z m -65.3332,2 c 0,0 0.66666,0.66666 0.66666,0.66666 0,0 0,-0.66666 0,-0.66666 0,0 -0.66666,0 -0.66666,0 z m 0.66666,0.66666 c 0,0 0.66667,0.66667 0.66667,0.66667 0,0 0,-0.66667 0,-0.66667 0,0 -0.66667,0 -0.66667,0 z m 77.33319,0 c 0,0 0.66666,0.66667 0.66666,0.66667 0,0 0,-0.66667 0,-0.66667 0,0 -0.66666,0 -0.66666,0 z m -46.66658,28.66661 c 0,0 0.66667,0.66667 0.66667,0.66667 0,0 0,-0.66667 0,-0.66667 0,0 -0.66667,0 -0.66667,0 z m 15.99997,0 c 0,0 0.66667,0.66667 0.66667,0.66667 0,0 0,-0.66667 0,-0.66667 0,0 -0.66667,0 -0.66667,0 z m -9.33332,1.32 c 0,0 -5.99998,0 -5.99998,0 5.57999,2.55999 4.95332,3.41999 7.99998,8.01332 2.18666,-5.71333 3.06666,-5.07333 7.33332,-8.66665 0,0 -9.33332,0.65333 -9.33332,0.65333 z m -39.99992,12.67997 c 0,0 0.66667,0.66667 0.66667,0.66667 0,0 0,-0.66667 0,-0.66667 0,0 -0.66667,0 -0.66667,0 z m -16.66664,8.66665 c 0,0 2.66667,1.23334 2.66667,1.23334 0,0 3.99999,-2.04 3.99999,-2.04 0,0 7.99999,-6.52665 7.99999,-6.52665 -4.64667,0.83999 -11.53999,3.78665 -14.66665,7.33331 z m 101.99981,-6.66665 c 8.66665,4.97999 11.53331,11.34665 14.66664,5.33332 0,0 -13.99997,-5.99998 -13.99997,-5.99998 0,0 -0.66667,0.66666 -0.66667,0.66666 z m -81.99984,2.66666 c 0,0 0.66666,0.66667 0.66666,0.66667 0,0 0,-0.66667 0,-0.66667 0,0 -0.66666,0 -0.66666,0 z m 75.99985,0 c 0,0 0.66667,0.66667 0.66667,0.66667 0,0 0,-0.66667 0,-0.66667 0,0 -0.66667,0 -0.66667,0 z m -88.6665,10.66665 c 0,0 2.66666,1.33333 2.66666,1.33333 0,0 4.86,-5.93999 4.86,-5.93999 0,0 5.13999,-5.39332 5.13999,-5.39332 -4.31333,1.65333 -10.59998,5.83332 -12.66665,9.99998 z m 89.33317,-9.33332 c 0,0 11.33331,10.66665 11.33331,10.66665 0.36666,-1 0.83333,-1.39333 0.46,-2.64 -0.82667,-2.73332 -8.47332,-7.39998 -11.12665,-8.69331 0,0 -0.66666,0.66666 -0.66666,0.66666 z m -68.66654,0 c 0,0 0.66667,0.66667 0.66667,0.66667 0,0 0,-0.66667 0,-0.66667 0,0 -0.66667,0 -0.66667,0 z m -0.66666,0.66667 c 0,0 0.66666,0.66666 0.66666,0.66666 0,0 0,-0.66666 0,-0.66666 0,0 -0.66666,0 -0.66666,0 z m -0.66667,0.66666 c 0,0 0.66667,0.66667 0.66667,0.66667 0,0 0,-0.66667 0,-0.66667 0,0 -0.66667,0 -0.66667,0 z m 71.3332,13.99998 c 0,0 4.66666,-1.33333 4.66666,-1.33333 -2.87333,-4.91999 -7.87332,-9.61999 -12.66665,-12.66665 0,0 7.99999,13.99998 7.99999,13.99998 z m -83.33317,-1.33333 c 0,0 3.99999,1.33333 3.99999,1.33333 0,0 3.63999,-6.66666 3.63999,-6.66666 0,0 4.35999,-6.66665 4.35999,-6.66665 -4.83332,2.17999 -9.91331,7.11332 -11.99997,11.99998 z m 9.33331,3.99999 c 8.68665,2.83999 18.18663,4.65332 27.33328,4.77332 0,0 7.99999,0 7.99999,0 0,0 7.99998,0 7.99998,0 3.31333,-0.12 6.72665,-0.54 9.99998,-1.06666 0,0 15.99997,-3.70666 15.99997,-3.70666 -1.3,-3.25333 -5.31999,-12.00665 -8.72665,-13.05998 -1.76,-0.54666 -7.81332,2.36667 -9.93998,3.04 -7.29999,2.31333 -10.34665,2.17333 -16.66663,-1.98 -1.28667,1.14 -2.34667,2.21333 -4,2.84 -5.27999,2.01333 -16.12663,-1.97333 -20.66662,-4.83999 -4.47999,3.23999 -8.29999,8.50665 -9.33332,13.99997 z m 21.99996,27.33328 c 0,0 0,6.66665 0,6.66665 0,0 3.33333,0 3.33333,0 0,0 0,19.99996 0,19.99996 0,0 6.66665,0 6.66665,0 0,0 0,3.33333 0,3.33333 0,0 9.99998,0 9.99998,0 0,0 0,9.99998 0,9.99998 0,0 9.99998,0 9.99998,0 0,0 0,-26.66661 0,-26.66661 0,0 26.66662,-6.16666 26.66662,-6.16666 0,0 16.66663,2.83333 16.66663,2.83333 0,0 0,13.33331 0,13.33331 0,0 9.99998,0 9.99998,0 0,0 0,23.33328 0,23.33328 0,0 9.33332,0.39334 9.33332,0.39334 0,0 7.33331,2.93999 7.33331,2.93999 0,0 0,-21.33329 0,-21.33329 0.0133,-8.60665 1.94667,-6.77332 3.20667,-11.99998 0,0 0,-9.99998 0,-9.99998 0,0 3.58665,0 3.58665,0 0,0 0,9.99998 0,9.99998 1.26,5.22666 3.19333,3.39333 3.20667,11.99998 0,0 0,34.6666 0,34.6666 0,0 6.66665,0 6.66665,0 0,0 0,-6.66665 0,-6.66665 0,0 6.66665,0 6.66665,0 0,0 0,-9.99999 0,-9.99999 0,0 13.33331,0 13.33331,0 0,0 0,9.99999 0,9.99999 0,0 23.33329,0 23.33329,0 0,0 0,39.99992 0,39.99992 0,0 -299.999423,0 -299.999423,0 0,0 0,-23.33329 0,-23.33329 0,0 3.333326,0 3.333326,0 0,0 0,-13.33331 0,-13.33331 0,0 6.666654,0 6.666654,0 0,0 0,-6.66665 0,-6.66665 0,0 3.333327,0 3.333327,0 0,0 0,6.66665 0,6.66665 0,0 9.999981,0 9.999981,0 0,0 0,9.99998 0,9.99998 0,0 3.333327,0 3.333327,0 0,0 0,-16.66663 0,-16.66663 0,0 3.333326,0 3.333326,0 0,0 0,-13.33331 0,-13.33331 0,0 26.666615,0 26.666615,0 0,0 0,26.66662 0,26.66662 0,0 9.999981,0 9.999981,0 0,0 0,-53.33323 0,-53.33323 0,0 9.999981,0 9.999981,0 0,0 0,-3.33333 0,-3.33333 0,0 16.666635,0 16.666635,0 0,0 0,3.33333 0,3.33333 0,0 13.33331,0 13.33331,0 0,0 0,43.33325 0,43.33325 0,0 9.99998,0 9.99998,0 0,0 0,-56.66656 0,-56.66656 0,0 23.33329,0 23.33329,0 z"
     inkscape:connector-curvature="0"
     style="fill:#000000;fill-opacity:1;stroke:none;stroke-width:1" />
</svg>
