<?xml version="1.0" encoding="UTF-8" standalone="no"?>
<svg
   xmlns:dc="http://purl.org/dc/elements/1.1/"
   xmlns:cc="http://creativecommons.org/ns#"
   xmlns:rdf="http://www.w3.org/1999/02/22-rdf-syntax-ns#"
   xmlns:svg="http://www.w3.org/2000/svg"
   xmlns="http://www.w3.org/2000/svg"
   xmlns:sodipodi="http://sodipodi.sourceforge.net/DTD/sodipodi-0.dtd"
   xmlns:inkscape="http://www.inkscape.org/namespaces/inkscape"
   width="100"
   height="100"
   viewBox="0 0 333.33269 333.33269"
   id="svg2"
   version="1.1"
   inkscape:version="0.91 r13725"
   sodipodi:docname="clippers.svg">
  <metadata
     id="metadata9">
    <rdf:RDF>
      <cc:Work
         rdf:about="">
        <dc:format>image/svg+xml</dc:format>
        <dc:type
           rdf:resource="http://purl.org/dc/dcmitype/StillImage" />
        <dc:title></dc:title>
      </cc:Work>
    </rdf:RDF>
  </metadata>
  <defs
     id="defs7" />
  <sodipodi:namedview
     pagecolor="#ffffff"
     bordercolor="#666666"
     borderopacity="1"
     objecttolerance="10"
     gridtolerance="10"
     guidetolerance="10"
     inkscape:pageopacity="0"
     inkscape:pageshadow="2"
     inkscape:window-width="1218"
     inkscape:window-height="697"
     id="namedview5"
     showgrid="false"
     units="px"
     inkscape:zoom="1.5733302"
     inkscape:cx="75.000148"
     inkscape:cy="75.000148"
     inkscape:window-x="54"
     inkscape:window-y="-8"
     inkscape:window-maximized="1"
     inkscape:current-layer="svg2" />
  <path
     id="Selection #70"
     d="m 162.06084,175.89784 c -6.51958,21.6415 -20.29211,55.36879 -20.32878,77.00296 0,0 0,8.06697 0,8.06697 0.0807,6.46825 2.16341,15.23926 4.54684,21.26749 2.10475,5.30954 5.83756,12.69449 6.1749,18.33404 0.54269,8.96901 -7.77363,16.68397 -16.58863,16.06061 -9.3137,-0.64535 -14.93858,-11.13976 -17.60068,-18.99406 -2.95545,-8.74167 -5.82289,-23.81225 -5.86689,-33.00127 0,0 -0.73336,-15.40059 -0.73336,-15.40059 0,0 0.73336,-13.20051 0.73336,-13.20051 0.11734,-10.02505 4.02615,-30.83785 6.29224,-41.06824 4.03349,-18.27537 8.75634,-36.37473 14.25655,-54.26876 0,0 7.56095,-24.20093 7.56095,-24.20093 0,0 4.11416,-12.89249 4.11416,-12.89249 0.21268,-2.35409 -3.16812,-9.247691 -4.09949,-12.041801 -1.86274,-5.60288 -3.85015,-16.13395 -3.92348,-22.00084 0,0 0,-13.20051 0,-13.20051 0.0587,-13.0685 7.10627,-25.961 17.60067,-33.61729 2.20009,-1.60606 9.92972,-5.932895 12.46715,-6.072233 3.05812,-0.16134 11.44777,4.928183 13.93387,6.900933 10.3844,8.22098 16.80131,20.95947 16.86731,34.25531 0,0 0,8.80034 0,8.80034 -0.088,7.26028 -2.03141,16.60331 -4.40017,23.46757 -1.32738,3.83548 -4.4735,8.05964 -4.23882,11.733781 0,0 6.18957,19.80076 6.18957,19.80076 0,0 10.94175,36.66808 10.94175,36.66808 6.0649,21.27482 15.67194,60.671 15.7086,82.13649 0,0 0,22.00085 0,22.00085 -0.13933,11.96846 -3.5348,31.18986 -8.99101,41.8016 -3.15345,6.13091 -7.82497,11.88046 -15.20992,12.39381 -9.29169,0.6527 -16.87464,-7.63429 -16.00194,-16.79397 0.57935,-6.13824 5.04552,-14.41789 7.14294,-20.53413 2.73544,-7.9643 3.82081,-16.55197 3.72547,-24.93429 -0.22734,-19.41208 -7.61962,-38.99283 -13.69186,-57.2022 0,0 -11.97579,-35.93471 -11.97579,-35.93471 0,0 -4.60551,14.66723 -4.60551,14.66723 z M 149.79903,64.426889 c 0.10268,8.56566 2.25142,19.92543 5.46355,27.86773 0,0 5.11153,11.000431 5.11153,11.000431 0,0 12.81916,30.06782 12.81916,30.06782 0,0 2.28809,8.80034 2.28809,8.80034 0,0 11.22776,35.93471 11.22776,35.93471 6.42425,19.26541 18.79606,53.19071 18.82539,72.60279 0,0 0,12.46715 0,12.46715 -0.0953,7.7663 -2.91878,17.68868 -5.72755,24.93429 -1.84807,4.75952 -5.1482,9.4897 -3.80615,14.66723 5.05286,-2.62543 6.49758,-8.80767 7.96431,-13.93387 3.4468,-12.03446 4.64951,-29.23179 4.50284,-41.8016 0,0 -0.7627,-7.33362 -0.7627,-7.33362 0,0 0,-7.33361 0,-7.33361 -1.36405,-13.29585 -4.11416,-26.57703 -6.99627,-39.60153 -5.16286,-23.37956 -13.00983,-49.83925 -20.60012,-72.60279 -1.14405,-3.43946 -5.25087,-14.79923 -5.41221,-17.60067 -0.27868,-5.060201 7.17961,-27.369061 -5.83023,-31.116531 -2.00207,-0.57936 -6.53425,-0.41802 -8.80033,-0.41802 0,0 -2.93345,-31.53455 -2.93345,-31.53455 -6.8496,6.03557 -7.42895,16.44197 -7.33362,24.9343 z m 25.52099,-11.73379 c 0,0 0,5.63222 0,5.63222 0,0 8.21365,6.83493 8.21365,6.83493 1.46672,-11.13243 -0.53536,-16.12662 -5.8669,-25.66766 0,0 -2.34675,13.20051 -2.34675,13.20051 z m -29.92115,53.535391 c 0,0 0.73336,0.73336 0.73336,0.73336 0,0 0,-0.73336 0,-0.73336 0,0 -0.73336,0 -0.73336,0 z m 3.35879,29.33446 c 0,0 -6.30691,21.26749 -6.30691,21.26749 -6.80559,22.12552 -16.81598,63.93446 -16.85265,86.53666 0,0 0,16.13395 0,16.13395 0.11001,9.02768 2.24409,23.73891 5.13354,32.26791 1.51072,4.45884 2.91877,8.78567 7.33361,11.00042 1.19538,-5.22887 -2.86744,-11.20576 -4.62751,-16.13395 -3.21946,-9.04235 -5.52221,-18.96473 -5.63955,-28.6011 -0.33735,-29.08512 14.78457,-64.25714 23.26223,-92.40355 0,0 6.38024,-20.53413 6.38024,-20.53413 0.63069,-2.21475 2.14142,-6.66625 2.00208,-8.80033 -0.17601,-2.69877 -4.2975,-11.61645 -5.9769,-13.93387 -1.99474,3.25612 -3.6008,9.39436 -4.70818,13.2005 z"
     style="fill:#000000;fill-opacity:1;stroke:none;stroke-width:1"
     inkscape:connector-curvature="0" />
</svg>
