<?xml version="1.0" encoding="UTF-8" standalone="no"?>
<svg
   xmlns:dc="http://purl.org/dc/elements/1.1/"
   xmlns:cc="http://creativecommons.org/ns#"
   xmlns:rdf="http://www.w3.org/1999/02/22-rdf-syntax-ns#"
   xmlns:svg="http://www.w3.org/2000/svg"
   xmlns="http://www.w3.org/2000/svg"
   xmlns:sodipodi="http://sodipodi.sourceforge.net/DTD/sodipodi-0.dtd"
   xmlns:inkscape="http://www.inkscape.org/namespaces/inkscape"
   width="100"
   height="100"
   viewBox="0 0 333.33269 333.33269"
   id="svg2"
   version="1.1"
   inkscape:version="0.91 r13725"
   sodipodi:docname="comb.svg">
  <metadata
     id="metadata9">
    <rdf:RDF>
      <cc:Work
         rdf:about="">
        <dc:format>image/svg+xml</dc:format>
        <dc:type
           rdf:resource="http://purl.org/dc/dcmitype/StillImage" />
        <dc:title></dc:title>
      </cc:Work>
    </rdf:RDF>
  </metadata>
  <defs
     id="defs7" />
  <sodipodi:namedview
     pagecolor="#ffffff"
     bordercolor="#666666"
     borderopacity="1"
     objecttolerance="10"
     gridtolerance="10"
     guidetolerance="10"
     inkscape:pageopacity="0"
     inkscape:pageshadow="2"
     inkscape:window-width="1218"
     inkscape:window-height="697"
     id="namedview5"
     showgrid="false"
     units="px"
     inkscape:zoom="1.5733302"
     inkscape:cx="75.000148"
     inkscape:cy="75.000148"
     inkscape:window-x="54"
     inkscape:window-y="-8"
     inkscape:window-maximized="1"
     inkscape:current-layer="svg2" />
  <path
     id="Comb"
     d="m 146.59578,33.235109 c 0,0 73.14555,0 73.14555,0 0,0 7.50211,0.481385 7.50211,0.481385 7.4771,0.512644 12.07839,0.118783 18.13009,5.739112 4.93889,4.595041 9.04004,12.17217 12.40974,18.073829 0,0 13.75386,23.756672 13.75386,23.756672 0,0 30.27726,52.514753 30.27726,52.514753 3.70104,6.49557 12.32846,20.31821 14.10396,26.88255 2.73827,10.11534 -2.56947,18.4802 -7.40208,26.88256 0,0 -7.93973,13.75386 -7.93973,13.75386 0,0 -36.44774,63.14274 -36.44774,63.14274 -5.339,9.28386 -13.99768,27.4077 -23.1315,32.30908 -4.95764,2.657 -13.72886,3.31968 -19.38044,3.32594 0,0 -90.0253,0 -90.0253,0 0,0 -9.37763,-0.62518 -9.37763,-0.62518 0,0 -16.25456,0 -16.25456,0 -5.17646,-0.006 -10.584228,-0.85024 -15.00422,-3.72605 -6.789408,-4.41999 -12.397233,-15.45434 -16.429616,-22.53133 0,0 -21.443524,-36.88536 -21.443524,-36.88536 0,0 -20.518265,-35.63501 -20.518265,-35.63501 0,0 -8.252318,-14.37904 -8.252318,-14.37904 -3.419711,-5.76412 -8.014752,-13.69135 -7.620892,-20.6308 0.443875,-7.93348 6.545589,-16.92351 10.309147,-23.75668 0,0 28.851856,-50.014047 28.851856,-50.014047 0,0 21.343496,-36.885361 21.343496,-36.885361 3.888592,-6.62061 7.570877,-14.085207 14.385291,-18.173856 6.401799,-3.84483 10.327905,-2.513206 16.879745,-3.619767 0,0 38.13571,0 38.13571,0 z M 97.888348,48.239324 c -4.094901,2.732018 -8.671186,11.684534 -11.303176,16.167043 0,0 -21.262223,36.885363 -21.262223,36.885363 0,0 -27.070106,46.88817 -27.070106,46.88817 -2.631989,4.78259 -8.97127,13.99768 -8.439871,19.38044 0.343847,3.51974 3.544746,8.80248 5.376511,11.87835 0,0 10.490447,18.13009 10.490447,18.13009 0,0 37.898147,65.64344 37.898147,65.64344 3.394704,5.69535 10.009062,19.3992 15.504356,22.225 2.725767,1.40039 6.370537,1.52543 9.377637,1.53168 0,0 15.00421,0 15.00421,0 0,0 9.37764,0.62517 9.37764,0.62517 0,0 86.27423,0 86.27423,0 4.70132,-0.006 13.84764,-0.36885 17.44866,-3.36969 2.6945,-2.24438 5.83288,-7.83971 7.65215,-11.00935 0,0 10.08408,-17.50491 10.08408,-17.50491 0,0 34.3534,-59.39169 34.3534,-59.39169 0,0 12.16592,-21.25598 12.16592,-21.25598 1.81301,-3.37595 3.87609,-7.37707 2.62574,-11.25316 -1.5817,-4.90763 -12.55353,-23.26279 -15.8107,-28.75808 0,0 -26.99508,-46.888171 -26.99508,-46.888171 0,0 -14.11021,-24.381847 -14.11021,-24.381847 -2.10059,-3.676033 -6.51433,-11.615764 -9.34013,-14.297768 -4.04488,-3.832327 -7.57713,-2.932074 -12.44725,-3.263417 0,0 -7.5021,-0.512644 -7.5021,-0.512644 0,0 -69.3945,0 -69.3945,0 0,0 -36.26018,0 -36.26018,0 -4.50127,0.768966 -9.85277,-0.03126 -13.697602,2.531961 z"
     inkscape:connector-curvature="0"
     style="fill:#000000;fill-opacity:1;stroke:none;stroke-width:1" />
</svg>
