<?xml version="1.0" encoding="UTF-8" standalone="no"?>
<svg
   xmlns:dc="http://purl.org/dc/elements/1.1/"
   xmlns:cc="http://creativecommons.org/ns#"
   xmlns:rdf="http://www.w3.org/1999/02/22-rdf-syntax-ns#"
   xmlns:svg="http://www.w3.org/2000/svg"
   xmlns="http://www.w3.org/2000/svg"
   xmlns:sodipodi="http://sodipodi.sourceforge.net/DTD/sodipodi-0.dtd"
   xmlns:inkscape="http://www.inkscape.org/namespaces/inkscape"
   width="100"
   height="100"
   viewBox="0 0 333.33269 333.33269"
   id="svg2"
   version="1.1"
   inkscape:version="0.91 r13725"
   sodipodi:docname="Dancer.svg"
   inkscape:export-filename="C:\Users\mbrown\Desktop\Drawings\icons\forJustin\Dancer.png"
   inkscape:export-xdpi="300"
   inkscape:export-ydpi="300">
  <metadata
     id="metadata9">
    <rdf:RDF>
      <cc:Work
         rdf:about="">
        <dc:format>image/svg+xml</dc:format>
        <dc:type
           rdf:resource="http://purl.org/dc/dcmitype/StillImage" />
        <dc:title></dc:title>
      </cc:Work>
    </rdf:RDF>
  </metadata>
  <defs
     id="defs7" />
  <sodipodi:namedview
     pagecolor="#ffffff"
     bordercolor="#666666"
     borderopacity="1"
     objecttolerance="10"
     gridtolerance="10"
     guidetolerance="10"
     inkscape:pageopacity="0"
     inkscape:pageshadow="2"
     inkscape:window-width="1218"
     inkscape:window-height="697"
     id="namedview5"
     showgrid="false"
     units="px"
     inkscape:zoom="1.5733302"
     inkscape:cx="-43.427499"
     inkscape:cy="118.4104"
     inkscape:window-x="54"
     inkscape:window-y="-8"
     inkscape:window-maximized="1"
     inkscape:current-layer="svg2" />
  <path
     id="Unnamed #3"
     d="m 59.759792,110.39496 c -9.215159,5.42223 -11.825536,6.56974 -13.577468,14.45344 -1.751931,7.88369 13.577468,24.08905 35.038628,58.6897 9.232678,14.88265 5.895249,61.58038 13.139485,81.46481 2.452704,6.72741 2.943245,13.96289 6.131763,17.51931 9.31151,10.36267 13.13948,6.56974 22.33712,7.00772 2.85565,0.14016 16.26668,-24.02773 20.58519,-56.49978 1.46287,-10.98461 -3.73161,-21.28597 -2.62789,-33.72468 1.61177,-18.20257 8.88229,-35.31894 10.51159,-53.87189 4.59006,-52.198798 3.06588,-100.736056 3.06588,-100.736056 0,0 12.63142,17.291562 17.08133,32.41073 4.80029,16.310481 11.82553,53.871896 11.82553,53.871896 0,0 -9.86337,13.88405 -3.06588,29.78283 11.51019,26.90966 18.08869,92.16035 32.41073,117.81738 8.53191,15.27685 16.4594,29.35361 24.96503,34.60065 13.41979,8.27787 44.67425,0 48.17811,-6.13176 3.50386,-6.13176 1.20007,-50.14904 -9.19764,-90.22447 -5.55362,-21.4086 -21.89914,-64.38348 -21.89914,-64.38348 0,0 0.9548,-11.27367 -3.50387,-24.96502 C 245.93754,111.46364 233.63022,87.882642 226.19327,67.910624 215.6554,39.599413 210.42589,16.666634 210.42589,16.666634 L 86.038763,17.5426 83.410866,102.94925 c 0,0 -14.260721,1.91837 -23.651074,7.44571 z M 210.42589,210.84195 c -11.57151,-17.09885 -16.64335,-39.12939 -15.3294,-45.26115 1.31395,-6.13176 10.01229,-7.31431 22.33713,-10.07361 13.06064,-2.92572 22.33712,-5.25579 28.46888,-1.31394 6.13176,3.94184 10.81818,25.07013 10.36267,46.42618 -0.42046,20.33992 -4.95796,37.37745 -12.26352,39.41845 -7.29679,2.041 -20.69031,-10.15244 -33.57576,-29.19593 z m -90.22447,-56.06181 24.52704,-1.75193 -7.29679,38.83156 z m -30.947863,-64.532391 56.061803,35.327701 -41.17039,0 c -0.29782,0 -14.891413,-17.22149 -14.891413,-17.22149 z M 148.23233,80.02523 c 0,0.586897 -0.28907,17.230245 -0.28907,17.230245 L 128.67201,82.364058 c 0,0 19.56032,-2.916966 19.56032,-2.338828 z m -56.648704,-58.689698 50.516944,0 c 0,0 7.00772,17.230242 7.00772,17.817139 0,0.578137 -0.87596,18.097451 -0.28907,18.097451 0.57814,0 -58.689697,-0.875966 -58.689697,-0.875966 z M 205.1701,22.509326 215.09479,59.878019 174.5113,69.81147 150.86022,22.211497 Z m -22.48604,82.042944 24.82486,-8.759658 -18.98217,32.708558 z m 56.93777,14.89142 -8.75966,2.04976 4.96672,-15.76739 z"
     inkscape:connector-curvature="0"
     style="fill:#000000;fill-opacity:1;stroke:none;stroke-width:1"
     sodipodi:nodetypes="cscccccccccccccscccccccccscscccccccccsccsccsccssccccccccccccccc" />
</svg>
