<?xml version="1.0" encoding="UTF-8" standalone="no"?>
<svg
   xmlns:dc="http://purl.org/dc/elements/1.1/"
   xmlns:cc="http://creativecommons.org/ns#"
   xmlns:rdf="http://www.w3.org/1999/02/22-rdf-syntax-ns#"
   xmlns:svg="http://www.w3.org/2000/svg"
   xmlns="http://www.w3.org/2000/svg"
   xmlns:sodipodi="http://sodipodi.sourceforge.net/DTD/sodipodi-0.dtd"
   xmlns:inkscape="http://www.inkscape.org/namespaces/inkscape"
   width="100"
   height="100"
   viewBox="0 0 333.33269 333.33266"
   id="svg2"
   version="1.1"
   inkscape:version="0.91 r13725"
   sodipodi:docname="deal.svg">
  <metadata
     id="metadata9">
    <rdf:RDF>
      <cc:Work
         rdf:about="">
        <dc:format>image/svg+xml</dc:format>
        <dc:type
           rdf:resource="http://purl.org/dc/dcmitype/StillImage" />
        <dc:title></dc:title>
      </cc:Work>
    </rdf:RDF>
  </metadata>
  <defs
     id="defs7" />
  <sodipodi:namedview
     pagecolor="#ffffff"
     bordercolor="#666666"
     borderopacity="1"
     objecttolerance="10"
     gridtolerance="10"
     guidetolerance="10"
     inkscape:pageopacity="0"
     inkscape:pageshadow="2"
     inkscape:window-width="1218"
     inkscape:window-height="697"
     id="namedview5"
     showgrid="false"
     units="px"
     inkscape:zoom="1.5733302"
     inkscape:cx="75.000148"
     inkscape:cy="75.000148"
     inkscape:window-x="54"
     inkscape:window-y="-8"
     inkscape:window-maximized="1"
     inkscape:current-layer="svg2" />
  <path
     id="Selection #65"
     d="m 150.50208,49.084677 c -4.46334,1.525268 -9.18675,-2.178953 -8.6385,-6.902363 0.3655,-3.099737 3.05053,-5.623106 5.12406,-7.731771 0,0 11.9491,-11.949101 11.9491,-11.949101 1.46903,-1.469037 4.94833,-5.482529 7.02888,-5.482529 1.75019,0 3.74639,2.228156 4.92022,3.373864 0,0 9.84043,9.840436 9.84043,9.840436 3.14191,3.141911 9.9037,8.533064 9.34139,13.354878 -0.5342,4.5266 -5.2084,7.078085 -9.34139,5.215431 -2.60068,-1.173823 -5.67231,-4.561745 -7.73177,-6.621208 0,0 0,54.122395 0,54.122395 0,0 24.60109,-24.60109 24.60109,-24.60109 0,0 13.35488,-14.057762 13.35488,-14.057762 -3.27546,0 -9.08835,0.541223 -11.71012,-1.412806 -3.65502,-2.720178 -3.19111,-8.230822 0.50608,-10.719046 1.947,-1.314401 4.04864,-1.208968 6.28382,-1.223026 0,0 28.81842,0 28.81842,0 0,0 0,28.115528 0,28.115528 -0.007,2.396849 0.18275,4.899132 -1.22303,6.98671 -2.48822,3.697192 -7.99886,4.161098 -10.71904,0.506079 -1.95403,-2.621773 -1.41281,-8.434659 -1.41281,-11.710118 -4.28059,3.064593 -10.76122,10.058331 -14.76065,14.057765 0,0 -24.60109,24.601087 -24.60109,24.601087 -3.4301,3.4301 -11.37976,12.898 -16.16643,12.898 -4.78667,0 -12.73634,-9.4679 -16.16643,-12.898 0,0 -24.60109,-24.601087 -24.60109,-24.601087 -3.99944,-3.999434 -10.48007,-10.993172 -14.76065,-14.057765 0,3.275459 0.54122,9.088345 -1.41281,11.710118 -2.72018,3.655019 -8.23082,3.191113 -10.719048,-0.506079 -1.3144,-1.947001 -1.20896,-4.048637 -1.22302,-6.283821 0,0 0,-28.818417 0,-28.818417 0,0 28.115528,0 28.115528,0 2.39685,0.007 4.89913,-0.182751 6.98671,1.223026 3.69719,2.488224 4.1611,7.998868 0.50608,10.719046 -2.62178,1.954029 -8.43466,1.412806 -11.71012,1.412806 0,0 13.35488,14.057762 13.35488,14.057762 0,0 24.60109,24.60109 24.60109,24.60109 0,0 0,-54.122395 0,-54.122395 -2.22816,2.228156 -5.46847,5.883175 -8.43466,6.902363 z m -11.9491,71.933583 c 0,0 76.61482,0 76.61482,0 9.39059,-0.0984 10.37463,3.23329 16.86932,9.72797 2.68503,2.68504 11.8999,11.40085 13.23538,14.05777 1.04028,2.08055 1.51824,10.0513 1.52527,12.65199 0,0 0,138.46899 0,138.46899 -0.15463,12.90503 -5.46144,20.36267 -18.97798,20.38376 0,0 -110.35346,0 -110.35346,0 -1.78534,0 -3.93618,0.0914 -5.62311,-0.50608 -3.90103,-1.39875 -10.26217,-8.35031 -13.354878,-11.44302 -3.14894,-3.14894 -10.11456,-9.37653 -11.45707,-13.35488 -0.57637,-1.71505 -0.49203,-3.82371 -0.49203,-5.62311 0,0 0,-124.41122 0,-124.41122 0,0 0,-15.46354 0,-15.46354 0,-10.8034 -0.59745,-21.11477 12.65199,-24.48863 0,0 39.361748,0 39.361748,0 z m -25.99984,28.07336 c -1.56744,2.36873 -1.40578,4.96239 -1.41281,7.66148 0,0 0,23.8982 0,23.8982 0,0 0,94.88992 0,94.88992 0,0 0,18.97798 0,18.97798 0.0492,3.4793 0.52014,6.43846 3.58473,8.63147 2.69909,1.91888 6.60012,1.90483 9.77015,1.91186 0,0 46.39063,0 46.39063,0 0,0 40.06463,0 40.06463,0 4.66718,0 14.43732,0.64665 18.26104,-1.50419 4.80072,-2.69206 4.92724,-7.71068 4.93427,-12.55358 0,0 0,-111.75923 0,-111.75923 0,0 0,-21.78954 0,-21.78954 -0.0422,-3.39495 -0.37956,-7.14838 -2.96619,-9.64363 -2.91698,-2.81155 -8.65255,-3.00133 -12.49735,-2.93807 0,0 -63.96283,0 -63.96283,0 0,0 -33.73864,0 -33.73864,0 -3.3106,0.68883 -6.4244,1.18085 -8.42763,4.21733 z"
     inkscape:connector-curvature="0"
     style="fill:#000000;fill-opacity:1;stroke:none;stroke-width:0.70288825" />
</svg>
