<?xml version="1.0" encoding="UTF-8" standalone="no"?>
<svg
   xmlns:dc="http://purl.org/dc/elements/1.1/"
   xmlns:cc="http://creativecommons.org/ns#"
   xmlns:rdf="http://www.w3.org/1999/02/22-rdf-syntax-ns#"
   xmlns:svg="http://www.w3.org/2000/svg"
   xmlns="http://www.w3.org/2000/svg"
   xmlns:sodipodi="http://sodipodi.sourceforge.net/DTD/sodipodi-0.dtd"
   xmlns:inkscape="http://www.inkscape.org/namespaces/inkscape"
   width="100"
   height="100"
   viewBox="0 0 333.33269 333.33269"
   id="svg2"
   version="1.1"
   inkscape:version="0.91 r13725"
   sodipodi:docname="depot.svg">
  <metadata
     id="metadata9">
    <rdf:RDF>
      <cc:Work
         rdf:about="">
        <dc:format>image/svg+xml</dc:format>
        <dc:type
           rdf:resource="http://purl.org/dc/dcmitype/StillImage" />
        <dc:title></dc:title>
      </cc:Work>
    </rdf:RDF>
  </metadata>
  <defs
     id="defs7" />
  <sodipodi:namedview
     pagecolor="#ffffff"
     bordercolor="#666666"
     borderopacity="1"
     objecttolerance="10"
     gridtolerance="10"
     guidetolerance="10"
     inkscape:pageopacity="0"
     inkscape:pageshadow="2"
     inkscape:window-width="1218"
     inkscape:window-height="697"
     id="namedview5"
     showgrid="false"
     units="px"
     inkscape:zoom="1.5733302"
     inkscape:cx="75.000148"
     inkscape:cy="75.000148"
     inkscape:window-x="54"
     inkscape:window-y="-8"
     inkscape:window-maximized="1"
     inkscape:current-layer="svg2" />
  <path
     id="Depot"
     d="m 16.666637,316.66606 c 0,0 0,-206.24961 0,-206.24961 0,0 149.999713,-93.749813 149.999713,-93.749813 0,0 149.99971,93.749813 149.99971,93.749813 0,0 0,206.24961 0,206.24961 0,0 -56.24989,0 -56.24989,0 0,0 0,-179.99966 0,-179.99966 0,0 -187.499643,0 -187.499643,0 0,0 0,179.99966 0,179.99966 0,0 -56.24989,0 -56.24989,0 z M 117.91644,279.16613 c 0,0 0,37.49993 0,37.49993 0,0 37.49993,0 37.49993,0 0,0 0,-37.49993 0,-37.49993 0,0 -37.49993,0 -37.49993,0 z m 59.99989,0 c 0,0 0,37.49993 0,37.49993 0,0 37.49992,0 37.49992,0 0,0 0,-37.49993 0,-37.49993 0,0 -37.49992,0 -37.49992,0 z m -59.99989,-22.49996 c 0,0 0,-37.49992 0,-37.49992 0,0 37.49993,0 37.49993,0 0,0 0,37.49992 0,37.49992 0,0 -37.49993,0 -37.49993,0 z m 59.99989,0 c 0,0 0,-37.49992 0,-37.49992 0,0 37.49992,0 37.49992,0 0,0 0,37.49992 0,37.49992 0,0 -37.49992,0 -37.49992,0 z m 8.06248,-59.99988 c 0,0 -37.49993,0 -37.49993,0 0,0 -0.56249,-37.49993 -0.56249,-37.49993 0,0 37.49992,0 37.49992,0 0,0 0.5625,37.49993 0.5625,37.49993 z"
     inkscape:connector-curvature="0"
     style="fill:#000000;fill-opacity:1;stroke:none;stroke-width:1" />
</svg>
