<?xml version="1.0" encoding="UTF-8" standalone="no"?>
<svg
   xmlns:dc="http://purl.org/dc/elements/1.1/"
   xmlns:cc="http://creativecommons.org/ns#"
   xmlns:rdf="http://www.w3.org/1999/02/22-rdf-syntax-ns#"
   xmlns:svg="http://www.w3.org/2000/svg"
   xmlns="http://www.w3.org/2000/svg"
   xmlns:sodipodi="http://sodipodi.sourceforge.net/DTD/sodipodi-0.dtd"
   xmlns:inkscape="http://www.inkscape.org/namespaces/inkscape"
   width="100"
   height="100"
   viewBox="0 0 333.33269 333.33269"
   id="svg2"
   version="1.1"
   inkscape:version="0.91 r13725"
   sodipodi:docname="DrawATile.svg">
  <metadata
     id="metadata9">
    <rdf:RDF>
      <cc:Work
         rdf:about="">
        <dc:format>image/svg+xml</dc:format>
        <dc:type
           rdf:resource="http://purl.org/dc/dcmitype/StillImage" />
        <dc:title></dc:title>
      </cc:Work>
    </rdf:RDF>
  </metadata>
  <defs
     id="defs7" />
  <sodipodi:namedview
     pagecolor="#ffffff"
     bordercolor="#666666"
     borderopacity="1"
     objecttolerance="10"
     gridtolerance="10"
     guidetolerance="10"
     inkscape:pageopacity="0"
     inkscape:pageshadow="2"
     inkscape:window-width="1218"
     inkscape:window-height="697"
     id="namedview5"
     showgrid="false"
     units="px"
     inkscape:zoom="1.5733302"
     inkscape:cx="75.000148"
     inkscape:cy="75.000148"
     inkscape:window-x="54"
     inkscape:window-y="-8"
     inkscape:window-maximized="1"
     inkscape:current-layer="svg2" />
  <path
     id="Selection #3"
     d="m 150.56823,16.828614 c 0,0 48.99783,0 48.99783,0 6.60374,0.01463 5.66766,-0.01463 11.4962,10.238352 0,0 15.86945,27.789812 15.86945,27.789812 0,0 12.12513,21.208012 12.12513,21.208012 1.43337,2.486457 4.43175,6.618363 3.80282,9.507041 0,0 -9.6533,17.551459 -9.6533,17.551459 0,0 -20.05255,35.10292 -20.05255,35.10292 -1.52844,2.66197 -6.46478,12.43229 -8.74647,13.47806 -1.14085,0.51923 -3.54686,0.41685 -4.84128,0.41685 0,0 -65.81798,0 -65.81798,0 -6.51598,-0.0146 -5.61646,0.0658 -11.07936,-9.50704 0,0 -12.11781,-21.20802 -12.11781,-21.20802 0,0 -14.209373,-24.864566 -14.209373,-24.864566 -1.294421,-2.267064 -5.726164,-9.55092 -5.945558,-11.700974 -0.21208,-2.062296 1.22129,-4.124593 2.193933,-5.850486 0,0 6.676868,-11.700974 6.676868,-11.700974 0,0 18.81662,-32.908985 18.81662,-32.908985 2.35483,-4.102655 7.33505,-13.924159 10.2603,-16.827463 3.43716,-1.396804 17.60996,-0.723998 22.22453,-0.723998 z M 123.30496,38.76794 c 0,0 -17.9683,31.446363 -17.9683,31.446363 -1.80634,3.159263 -7.971288,12.095882 -7.210725,15.357528 0.343716,1.455309 4.497565,8.439327 5.528705,10.238352 0,0 12.11783,21.208017 12.11783,21.208017 0,0 10.86727,19.01408 10.86727,19.01408 1.06772,1.87215 3.70043,7.01327 5.30201,8.05173 1.38949,0.89951 3.83206,0.724 5.46289,0.724 0,0 58.50486,0 58.50486,0 7.05715,-0.0146 5.84318,-0.24133 12.43229,-11.70097 0,0 19.63569,-34.371613 19.63569,-34.371613 1.80634,-3.159264 7.97129,-12.095882 7.21073,-15.357528 0,0 -8.03711,-14.626217 -8.03711,-14.626217 0,0 -18.38515,-32.177675 -18.38515,-32.177675 -1.47725,-2.581527 -5.61647,-10.969663 -7.9786,-12.015438 -1.1701,-0.51923 -3.56149,-0.416847 -4.87785,-0.416847 0,0 -41.68471,0 -41.68471,0 0,0 -21.698,0.416847 -21.698,0.416847 -3.36403,2.318256 -7.04983,10.391928 -9.22183,14.209371 z m 44.08342,117.74104 c 0,0 16.82015,21.20802 16.82015,21.20802 0,0 -10.23835,0 -10.23835,0 0,0 0,18.28277 0,18.28277 0,0 -14.62622,0 -14.62622,0 0,0 0,-18.28277 0,-18.28277 0,0 -10.23835,0 -10.23835,0 0,0 16.82015,-21.20802 16.82015,-21.20802 0,0 1.46262,0 1.46262,0 z m -93.658974,56.31094 c 1.17741,-3.013 2.742415,-5.65304 5.19962,-7.80309 7.88353,-6.89626 20.981307,-6.29659 29.223184,-0.39491 8.87811,6.34778 12.2787,14.76517 24.86456,13.18554 7.04984,-0.8922 12.84913,-8.46858 18.28277,-12.64437 6.25271,-4.81202 13.55851,-5.96749 21.20802,-4.54144 12.30796,2.29632 17.50758,17.04686 29.98374,17.30282 10.75758,0.23402 14.19474,-6.80851 21.93933,-12.76138 4.60725,-3.54686 9.57286,-5.08992 15.35752,-5.08992 15.69393,0 21.62487,10.95503 21.93933,25.17903 -2.46452,0 -4.9656,-0.1682 -7.31311,0.724 -9.17064,3.48835 -17.96831,20.93743 -23.40195,29.25974 24.16251,1.1116 52.24485,13.61701 62.66603,36.56555 3.68581,8.11755 3.91251,16.17659 4.61457,24.86457 0,0 -263.271897,0 -263.271897,0 0.387595,-8.43933 1.075027,-17.0688 4.614571,-24.86457 10.42118,-22.94854 38.503516,-35.45395 62.666026,-36.56555 -5.43364,-8.32231 -14.231309,-25.77139 -23.401947,-29.25974 -2.347508,-0.8922 -4.848591,-0.724 -7.313108,-0.724 0.08044,-3.75162 0.767876,-8.95124 2.142741,-12.43228 z m 166.058744,-5.85049 c -2.36944,0 -4.30742,-0.007 -6.58179,0.82638 -5.14843,1.88678 -10.90385,8.52709 -15.35753,11.94962 -5.77004,4.43906 -13.35374,6.04794 -20.4767,4.38787 -9.52167,-2.21588 -15.56961,-12.15439 -22.67064,-15.70125 -3.23971,-1.62351 -8.89274,-1.85753 -12.43228,-1.22129 -6.15764,1.09697 -12.05201,8.03711 -16.82015,11.94962 -5.15575,4.23429 -9.52898,5.5799 -16.08884,5.46289 -14.91874,-0.27058 -18.9702,-12.39572 -28.52112,-16.53493 -2.566903,-1.1116 -4.585321,-1.11891 -7.31311,-1.11891 -8.600216,0 -12.637051,3.23239 -14.626217,11.70097 13.178221,4.68771 19.204223,17.4052 26.188237,28.52113 5.98944,9.52898 6.71344,5.76273 6.72075,14.62621 0,0 -5.85049,0 -5.85049,0 -27.036558,0.0439 -62.951233,16.65926 -63.624039,47.53521 0,0 248.645679,0 248.645679,0 -0.6728,-30.87595 -36.58748,-47.49133 -63.62404,-47.53521 0,0 -5.85049,0 -5.85049,0 0.007,-8.86348 0.73131,-5.09723 6.72075,-14.62621 6.98402,-11.11593 13.01002,-23.83342 26.18824,-28.52113 -1.98916,-8.46858 -6.026,-11.70097 -14.62622,-11.70097 z m -102.38351,43.14734 c 0,0 6.58179,13.8949 6.58179,13.8949 0,0 -6.58179,2.19394 -6.58179,2.19394 0,0 -6.5818,-13.89491 -6.5818,-13.89491 0,0 6.5818,-2.19393 6.5818,-2.19393 z m 65.08666,2.19393 c 0,0 -6.5818,13.89491 -6.5818,13.89491 0,0 -6.58179,-2.19394 -6.58179,-2.19394 0,0 6.58179,-13.8949 6.58179,-13.8949 0,0 6.5818,2.19393 6.5818,2.19393 z m -32.17768,-1.46262 c 0,0 0,14.62622 0,14.62622 0,0 -7.3131,0 -7.3131,0 0,0 0,-14.62622 0,-14.62622 0,0 7.3131,0 7.3131,0 z"
     inkscape:connector-curvature="0"
     style="fill:#000000;fill-opacity:1;stroke:none;stroke-width:1" />
</svg>
