<?xml version="1.0" encoding="UTF-8" standalone="no"?>
<svg
   xmlns:dc="http://purl.org/dc/elements/1.1/"
   xmlns:cc="http://creativecommons.org/ns#"
   xmlns:rdf="http://www.w3.org/1999/02/22-rdf-syntax-ns#"
   xmlns:svg="http://www.w3.org/2000/svg"
   xmlns="http://www.w3.org/2000/svg"
   xmlns:sodipodi="http://sodipodi.sourceforge.net/DTD/sodipodi-0.dtd"
   xmlns:inkscape="http://www.inkscape.org/namespaces/inkscape"
   width="100"
   height="100"
   viewBox="0 0 333.33269 333.33269"
   id="svg2"
   version="1.1"
   inkscape:version="0.91 r13725"
   sodipodi:docname="earcat.svg">
  <metadata
     id="metadata9">
    <rdf:RDF>
      <cc:Work
         rdf:about="">
        <dc:format>image/svg+xml</dc:format>
        <dc:type
           rdf:resource="http://purl.org/dc/dcmitype/StillImage" />
        <dc:title></dc:title>
      </cc:Work>
    </rdf:RDF>
  </metadata>
  <defs
     id="defs7" />
  <sodipodi:namedview
     pagecolor="#ffffff"
     bordercolor="#666666"
     borderopacity="1"
     objecttolerance="10"
     gridtolerance="10"
     guidetolerance="10"
     inkscape:pageopacity="0"
     inkscape:pageshadow="2"
     inkscape:window-width="1218"
     inkscape:window-height="697"
     id="namedview5"
     showgrid="false"
     units="px"
     inkscape:zoom="3.1466604"
     inkscape:cx="80.101526"
     inkscape:cy="-5.6494125"
     inkscape:window-x="54"
     inkscape:window-y="-8"
     inkscape:window-maximized="1"
     inkscape:current-layer="svg2" />
  <path
     id="Selection #41"
     d="M 37.362648,49.731374 53.26334,32.038296 c 2.400104,-2.915512 4.884828,-7.908036 9.423487,-7.292625 2.869355,0.392325 11.200487,6.577209 13.846755,8.546526 8.50037,6.307967 16.962276,12.992873 24.616458,20.316268 l 10.00043,9.269632 c 1.3616,1.261593 3.7694,3.884784 5.38485,4.554044 2.3078,0.969273 6.1695,-1.030814 8.46191,-1.86162 4.89252,-1.784693 13.35443,-4.107868 18.46234,-4.861747 13.50828,-2.515494 32.71681,-2.569343 46.15585,0 l 16.15455,4.57712 c 1.96163,0.70003 6.5926,2.823199 8.46191,2.407797 2.06932,-0.469251 4.58481,-3.361685 6.15411,-4.815594 l 12.30823,-11.392801 c 10.68508,-9.415794 25.83189,-22.131732 38.46321,-28.485855 5.45408,-2.746273 11.54666,-5.569473 17.69308,-6.215655 2.24625,-0.238472 4.71559,-0.115389 6.92338,0.392325 15.50836,3.584771 13.98522,21.954802 13.84675,34.093791 -0.17693,15.069884 -9.62349,48.094397 -14.61602,63.079668 l -5.63101,16.15454 c -0.88466,2.40011 -2.80782,6.87723 -2.97705,9.23118 -0.19232,2.73088 2.5078,11.94667 3.22321,15.38528 1.91547,9.27733 4.56943,24.59338 4.61559,33.84763 l 0,21.53939 c -0.0308,19.33931 -7.43879,46.14047 -19.23161,61.54114 6.03103,3.18475 18.57004,14.70833 22.901,20.00087 4.3925,5.36177 1.80777,9.60042 -2.13086,8.94654 -2.73858,-0.45386 -5.76949,-3.95401 -7.69265,-5.86948 l -10.7697,-10.10044 c -1.16928,-1.00774 -4.66174,-4.14634 -5.93871,-4.6002 -2.54627,-0.90004 -7.31571,3.77709 -6.37721,6.36951 0.74619,2.06162 12.80825,15.93146 12.16976,22.1625 -0.4154,4.10018 -4.54635,4.69251 -7.18492,2.0847 -1.29237,-1.27697 -3.82325,-6.29258 -5.0233,-8.22343 l -7.64648,-11.53896 -6.15412,3.84632 c 1.73085,4.02325 6.36182,12.339 6.74645,16.15455 0.36925,3.60785 -2.16933,6.66952 -5.81564,4.5925 -4.24634,-2.41549 -5.16945,-14.18523 -10.19275,-13.96983 -2.28471,0.0923 -6.83876,2.36933 -7.20031,4.84636 -0.29232,1.99239 1.91547,8.76961 -2.80782,9.63119 -4.76174,0.86157 -5.49254,-4.89252 -6.11565,-8.17728 -21.57786,7.19262 -37.56317,8.46191 -60.00261,8.46191 -22.43943,0 -38.42474,-1.26929 -60.00261,-8.46191 -0.6231,3.28476 -1.3539,9.03885 -6.115648,8.17728 -4.723282,-0.86158 -2.515494,-7.6388 -2.807814,-9.63119 -0.361554,-2.47703 -4.915599,-4.75405 -7.200313,-4.84636 -5.00791,-0.2154 -6.138729,11.65435 -10.192751,13.96983 -3.63862,2.08471 -6.184884,-0.98465 -5.815638,-4.5925 0.384632,-3.81555 5.015603,-12.1313 6.746448,-16.15455 l -6.154114,-3.84632 c -1.984702,3.8617 -3.769395,5.76948 -6.131036,9.23117 l -4.154027,6.92337 c -0.938502,1.64623 -1.938546,3.65401 -3.661697,4.59251 -4.16172,2.27702 -6.507976,-1.5616 -5.754097,-5.36177 0.730801,-3.654 5.961798,-11.45434 8.277283,-14.61602 0.853883,-1.16159 3.830936,-4.64636 3.984789,-5.83102 0.207701,-1.677 -2.592421,-4.46173 -3.884784,-5.30793 -2.846278,-1.877 -5.884872,1.71546 -7.908037,3.44631 l -12.308227,11.53896 c -1.792386,1.777 -4.346343,4.66944 -6.923378,5.10022 -3.938633,0.65388 -6.523361,-3.58477 -2.130862,-8.94654 4.330957,-5.29254 16.869964,-16.81612 22.900996,-20.00087 C 44.701429,256.59421 37.331878,229.90844 37.301107,210.50759 l 0,-20.77013 c 0.01538,-9.86197 2.584728,-24.80108 4.615585,-34.61689 0.915425,-4.43096 3.861707,-12.87748 2.977053,-16.92381 L 39.355043,122.81147 28.169941,85.886789 25.077499,72.809298 c -0.653875,-2.623191 -1.946239,-5.777175 -1.284671,-8.461907 0.684645,-2.746271 4.046329,-5.97718 5.815637,-8.461904 3.838628,-0.430788 5.254075,-3.438611 7.754183,-6.154113 z M 279.5578,244.35522 c 6.77721,-19.68547 6.24642,-33.663 6.21565,-53.8485 -0.0154,-8.12343 -2.50011,-25.00108 -4.34634,-33.07836 -0.90773,-3.96171 -4.24634,-15.20066 -3.92325,-18.46234 l 8.20805,-23.84719 c 4.73867,-13.81599 8.7773,-28.047374 11.9236,-42.309532 1.39236,-6.300274 3.4463,-15.993001 3.52323,-22.30866 0.0769,-6.831066 1.20774,-17.839238 -4.00787,-22.900997 -5.16946,-5.015603 -14.42371,-0.723108 -19.83933,1.946239 -14.56217,7.169542 -32.94758,22.654832 -44.61732,34.024554 l -9.23117,8.4696 c -1.75392,1.730844 -4.60789,4.938676 -6.92338,5.661784 -3.06167,0.953888 -7.78495,-2.161632 -10.7697,-3.307836 -5.78486,-2.215481 -16.99304,-5.323308 -23.07792,-6.08488 -15.14682,-1.877005 -28.97819,-1.623147 -43.84806,2.092399 -4.57713,1.146203 -10.30045,2.769351 -14.61602,4.615585 -2.34626,1.007736 -5.92334,3.238602 -8.46191,2.85397 -3.20783,-0.484636 -8.83116,-7.069538 -11.53897,-9.46195 L 93.457395,58.324055 76.533582,44.192671 c -2.792429,-2.223173 -11.077404,-9.508106 -14.61602,-8.192664 -2.469338,0.923117 -5.977183,5.53101 -7.823417,7.577253 L 39.547359,59.731808 c -2.230867,2.423183 -6.100266,5.754094 -6.277196,9.231169 L 36.816471,85.117525 49.10162,124.35 c 1.169282,3.36169 4.723283,11.69282 4.954062,14.61602 0.269242,3.37707 -3.015516,14.40832 -3.946325,18.46234 -1.730845,7.57726 -4.30788,24.74723 -4.346343,32.3091 -0.09231,20.29319 -0.584641,34.87075 6.215655,54.61776 1.461602,4.25403 4.177104,10.69277 6.331044,14.61602 l 4.377114,7.69264 15.385284,-7.45417 c 7.154157,-3.28476 19.293146,-7.54648 26.924249,-9.56195 2.42318,-0.63849 8.53883,-2.41549 10.75431,-1.94624 3.94633,0.84619 5.36178,4.79251 -0.75388,8.19266 l 0.76927,3.84632 c 6.09257,-1.01543 8.75423,0.57695 6.15411,6.92338 3.91556,0.63849 4.74636,1.4693 5.38485,5.38485 1.61546,-0.66157 2.79243,-1.31544 4.61559,-1.13851 3.00782,0.28463 11.19279,5.88487 18.46234,6.45413 1.80008,0.13846 4.47712,0.16923 6.07719,-0.71542 3.06936,-1.70777 4.93867,-7.40032 4.45404,-10.75431 -0.26155,-1.79239 -1.86162,-4.94637 -2.56935,-6.92338 -0.82311,-2.3001 -1.70007,-5.70025 -3.11552,-7.61572 -2.22317,-3.00782 -5.57716,-3.70016 -8.61576,-6.48489 -2.27702,-2.08471 -3.57707,-4.33096 -3.83862,-7.43879 -0.3154,-3.64631 0.80003,-7.27724 4.54635,-8.65422 3.23091,-1.18467 10.65431,1.94624 14.60063,2.36933 4.22326,0.45387 8.20805,0.0923 12.30823,-0.92311 2.17702,-0.54618 6.43874,-1.98471 8.46191,-1.777 4.69251,0.47694 6.43104,4.8002 6.06949,8.985 -0.26155,3.10783 -1.56161,5.35408 -3.83863,7.43879 -3.03859,2.78473 -6.39258,3.47707 -8.61576,6.48489 -1.41544,1.91547 -2.2924,5.31562 -3.11552,7.61572 -0.70772,1.97701 -2.30779,5.13099 -2.56934,6.92338 -0.48464,3.35399 1.38468,9.04654 4.45404,10.75431 1.60007,0.88465 4.27711,0.85388 6.07719,0.71542 7.26954,-0.56926 15.45452,-6.1695 18.46234,-6.45413 1.82316,-0.17693 3.00013,0.47694 4.61558,1.13851 0.63849,-3.91555 1.4693,-4.74636 5.38485,-5.38485 -2.60011,-6.34643 0.0615,-7.93881 6.15412,-6.92338 l 0.76926,-3.84632 c -6.11565,-3.40015 -4.7002,-7.34647 -0.75388,-8.19266 2.21548,-0.46925 8.33113,1.30775 10.75432,1.94624 7.6311,2.01547 19.77009,6.27719 26.92424,9.56195 l 15.38529,7.45417 c 4.33096,-8.985 6.99261,-11.51588 10.70816,-22.30866 z M 88.157165,72.809298 c -5.554088,-6.246426 -2.453953,-10.738926 2.223173,-9.654266 3.507845,0.807727 11.900522,9.769655 14.531402,12.731323 1.40006,1.569299 2.73089,3.200139 2.94628,5.384849 0.53079,5.523317 -8.946541,7.754183 -12.862096,9.892738 -14.277544,7.808032 -19.562389,14.108308 -28.139685,27.801208 -1.953932,3.12321 -5.515625,10.56969 -10.208137,8.75423 -6.277196,-2.41549 2.453953,-13.46982 4.392499,-16.44687 8.423443,-12.900562 19.300839,-25.601115 34.724587,-30.001306 -2.946282,-4.107871 -4.56943,-5.03868 -7.608023,-8.461906 z M 270.49586,111.27251 c 1.93855,2.97705 10.6697,14.03138 4.3925,16.44687 -4.86944,1.8847 -8.54652,-6.32335 -10.65431,-9.52349 -9.05424,-13.72368 -13.66213,-19.677782 -28.46277,-27.447351 -3.83863,-2.015472 -12.61594,-4.023252 -12.09284,-9.477335 0.2154,-2.18471 1.54622,-3.81555 2.94629,-5.384849 2.63088,-2.961668 11.02355,-11.923596 14.5314,-12.731323 4.67712,-1.08466 7.77726,3.40784 2.22317,9.654266 -3.03859,3.423226 -4.66174,4.354035 -7.60802,8.461906 15.42374,4.400191 26.30114,17.100744 34.72458,30.001306 z m -140.8215,56.92555 c 3.16936,6.63106 3.32322,16.66996 2.46164,23.84719 -0.30001,2.5078 0.0231,5.40793 -1.55391,7.52341 -2.04624,2.74627 -6.26181,3.23091 -9.43118,3.68477 -14.69295,2.11548 -30.30132,-4.81559 -37.447785,-18.13156 -4.223261,-7.86957 -5.169456,-23.53948 2.907819,-29.46282 2.384719,-1.74623 5.546395,-2.05393 8.38498,-2.51549 12.308226,-1.52314 28.924336,3.00013 34.678436,15.0545 z m 115.25116,-12.53901 c 7.52341,5.51563 7.22339,20.2855 3.67708,27.9243 -5.06945,10.90047 -15.82376,17.84693 -27.44734,19.66239 -4.71559,0.73849 -16.23148,0.49233 -19.67009,-3.06167 -2.17702,-2.24625 -1.74623,-5.27715 -2.08471,-8.13882 -0.87696,-7.26185 -0.7308,-18.06232 2.83859,-24.61645 4.66943,-8.55422 14.47755,-12.60824 23.53179,-14.27755 4.97714,-0.63849 15.04681,-0.50771 19.15468,2.5078 z m -122.67456,17.1546 c -3.5617,-7.46956 -14.00831,-11.53127 -21.87019,-11.53127 -2.469335,0 -6.854141,0.16923 -8.692682,1.97701 -4.792517,4.71558 -2.615499,14.70063 0.838498,19.55469 8.054194,11.32357 18.085404,13.23135 30.932114,11.53896 0.30001,-6.56182 1.80777,-15.23143 -1.20774,-21.53939 z m 116.75892,10.00043 c 3.454,-4.85406 5.63101,-14.83911 0.8385,-19.55469 -1.83854,-1.80778 -6.22335,-1.97701 -8.69269,-1.97701 -7.86188,0 -18.30849,4.06171 -21.87018,11.53127 -3.01552,6.30796 -1.50776,14.97757 -1.20774,21.53939 12.84671,1.69239 22.87791,-0.21539 30.93211,-11.53896 z m -125.95933,3.06167 c -1.02312,1.28467 -2.51549,2.90782 -4.20787,3.23091 -3.06936,0.57695 -5.7541,-3.19244 -6.98492,-5.52331 -3.177061,-5.99257 -0.55387,-13.33135 5.45408,-16.24686 6.13104,0.0538 12.63132,9.89273 5.73871,18.53926 z m 116.45122,-13.83137 c 3.22322,5.25408 1.44622,14.33139 -4.50788,16.86227 -3.73094,1.58469 -7.59264,-3.86939 -8.66961,-6.86183 -2.04625,-5.73102 0.86157,-11.36973 5.60793,-14.55448 3.80786,-0.71542 5.63871,1.40006 7.56956,4.55404 z m -69.90304,71.70312 6.1695,9.06963 5.42332,-8.38498 9.1927,-7.00031 c -12.88517,2.59242 -15.16989,3.85401 -28.46277,0 z m -90.75779,29.83976 c 1.200052,1.65392 3.069365,4.46173 5.38485,4.46173 2.123169,0 5.292538,-3.60785 6.923378,-5.00022 l 16.154548,-11.76974 c -7.884958,1.21544 -21.700943,7.90804 -28.462776,12.30823 z M 234.23275,262.0483 c 5.41562,2.90012 11.49281,7.00799 16.15455,11.00047 1.63084,1.39237 4.80021,5.00022 6.92338,5.00022 2.31548,0 4.18479,-2.80781 5.38484,-4.46173 -7.00799,-4.56174 -19.57008,-10.4543 -27.69351,-12.30823 z m -153.083582,23.84719 4.615585,2.30779 18.462337,-20.00087 c -6.684902,1.95393 -20.13164,11.46973 -23.077922,17.69308 z m 153.083582,-10.73893 11.53896,13.04672 4.61559,-2.30779 c -3.1386,-6.63875 -15.54683,-14.67756 -22.30867,-17.69308 z m -140.775355,18.43157 6.923375,3.07706 8.24652,-15.38529 7.13877,-10.00043 c -6.52336,2.94628 -20.439353,15.43144 -22.308665,22.30866 z M 221.80144,279.74137 c 4.63097,6.2772 6.36951,9.87736 9.35425,16.92382 l 6.92338,-3.07706 c -2.04624,-7.52341 -15.01604,-17.93924 -21.5394,-22.30866 0.0385,3.18475 3.40784,5.94641 5.26177,8.4619 z m -112.95876,20.77014 11.53896,3.16167 20.00087,3.54631 17.69308,0.98466 7.69264,0.50771 6.92338,-0.50771 c 12.74671,-0.14616 25.24725,-1.40775 37.69395,-4.34634 l 12.30823,-3.3463 c -0.92312,-8.66961 -11.62359,-22.6933 -18.46235,-27.69351 -0.25385,1.57699 -0.24616,2.36933 -1.23082,3.76939 -4.01556,5.71563 -18.78543,9.48503 -25.69342,9.29271 -2.5078,-0.0692 -3.92325,-0.24616 -6.15412,-1.52314 -1.55391,-0.89235 -3.61554,-2.9309 -5.38485,-2.9309 -1.7693,0 -3.83093,2.03855 -5.38485,2.9309 -2.23086,1.27698 -3.64631,1.45391 -6.15411,1.52314 -6.90799,0.19232 -21.67787,-3.57708 -25.69342,-9.29271 -0.98466,-1.40006 -0.97697,-2.1924 -1.23083,-3.76939 -6.83876,5.00021 -17.53922,19.0239 -18.46234,27.69351 z"
     inkscape:connector-curvature="0"
     style="fill:#000000;fill-opacity:1;stroke:none;stroke-width:1"
     sodipodi:nodetypes="ccccccccccccccccccccccccccccccccccccccccccscccccccccccccccccccccccccccccccccccccccccccccccccccccccccccccccccccccccccccccccccccccccccccccccccccccccccccccccccccccccccccccccccccccccsccccccsccccccccccccccccccccscccccsccccccccccccccccccccccccccccccccccsccccc" />
</svg>
