<?xml version="1.0" encoding="UTF-8" standalone="no"?>
<svg
   xmlns:dc="http://purl.org/dc/elements/1.1/"
   xmlns:cc="http://creativecommons.org/ns#"
   xmlns:rdf="http://www.w3.org/1999/02/22-rdf-syntax-ns#"
   xmlns:svg="http://www.w3.org/2000/svg"
   xmlns="http://www.w3.org/2000/svg"
   xmlns:sodipodi="http://sodipodi.sourceforge.net/DTD/sodipodi-0.dtd"
   xmlns:inkscape="http://www.inkscape.org/namespaces/inkscape"
   width="100"
   height="100"
   viewBox="0 0 333.33269 333.33269"
   id="svg2"
   version="1.1"
   inkscape:version="0.91 r13725"
   sodipodi:docname="explore.svg">
  <metadata
     id="metadata9">
    <rdf:RDF>
      <cc:Work
         rdf:about="">
        <dc:format>image/svg+xml</dc:format>
        <dc:type
           rdf:resource="http://purl.org/dc/dcmitype/StillImage" />
        <dc:title></dc:title>
      </cc:Work>
    </rdf:RDF>
  </metadata>
  <defs
     id="defs7" />
  <sodipodi:namedview
     pagecolor="#ffffff"
     bordercolor="#666666"
     borderopacity="1"
     objecttolerance="10"
     gridtolerance="10"
     guidetolerance="10"
     inkscape:pageopacity="0"
     inkscape:pageshadow="2"
     inkscape:window-width="1218"
     inkscape:window-height="697"
     id="namedview5"
     showgrid="false"
     units="px"
     inkscape:zoom="1.5733302"
     inkscape:cx="75.000148"
     inkscape:cy="75.000148"
     inkscape:window-x="54"
     inkscape:window-y="-8"
     inkscape:window-maximized="1"
     inkscape:current-layer="svg2" />
  <path
     id="Selection #62"
     d="m 266.89558,35.894835 c 4.82288,-2.695138 8.31685,-5.166304 14.18494,-5.166304 10.97466,0 21.59097,10.616308 21.59097,21.590974 0,5.868087 -2.47116,9.362062 -5.1663,14.184942 25.54782,1.254247 25.54782,40.554003 0,41.808243 2.69514,4.82288 5.1663,8.31686 5.1663,14.18495 0,11.01199 -10.57898,21.59097 -21.59097,21.59097 -5.86809,0 -9.36206,-2.47117 -14.18494,-5.1663 -1.25425,25.61501 -40.554,25.61501 -41.80825,0 -4.82288,2.69513 -8.31686,5.1663 -14.18494,5.1663 -10.97467,0 -21.59098,-10.61631 -21.59098,-21.59097 0,-5.86809 2.47117,-9.36207 5.16631,-14.18495 -25.61502,-1.25424 -25.61502,-40.553996 0,-41.808243 -2.69514,-4.82288 -5.16631,-8.316855 -5.16631,-14.184942 0,-11.116515 10.47446,-21.590974 21.59098,-21.590974 5.86808,0 9.36206,2.471166 14.18494,5.166304 1.25425,-25.615017 40.554,-25.615017 41.80825,0 z m -29.34043,-5.06925 c -5.56199,7.07754 -3.15802,29.146323 12.10199,24.995361 2.45624,-0.671918 3.65076,-2.95644 4.83035,-4.994592 3.2252,-5.188703 3.89712,-14.961382 0,-20.000769 -2.91911,-3.64329 -8.09289,-3.411851 -12.22892,-2.851919 -2.03815,0.664452 -3.30733,1.075069 -4.70342,2.851919 z m -32.60297,12.848571 c -7.33884,5.681443 -5.7561,12.333434 0,18.350836 1.49315,1.545412 3.27,3.284933 5.20363,4.248016 1.47076,0.731645 3.59103,1.097467 5.22603,1.463289 1.1572,0.261301 3.21774,0.836165 4.35254,0.656987 1.6798,-0.253836 2.76233,-1.515549 3.91206,-2.642879 4.21815,-4.128564 3.74034,-4.210688 2.50103,-9.69802 -1.64247,-7.286581 -8.08542,-14.498504 -15.99166,-14.617957 -2.23973,0.477809 -3.33719,0.783905 -5.20363,2.239728 z m 62.17484,7.898773 c -0.73165,1.470755 -1.09747,3.59103 -1.46329,5.226031 -0.2613,1.157193 -0.83617,3.217742 -0.65699,4.352538 0.45541,2.993769 5.55453,7.510553 8.63788,7.211923 7.45083,-0.73911 13.93111,-4.621305 17.20111,-11.564461 3.5537,-7.540416 -2.75486,-15.237614 -10.51179,-15.364532 -5.15137,1.052672 -10.86268,5.435073 -13.20692,10.138501 z M 111.83923,72.32027 c -3.60596,-4.091233 -0.15678,-9.391922 4.9946,-8.496031 2.45623,0.425549 12.0572,5.539591 14.93152,6.973017 0,0 32.10276,15.864737 32.10276,15.864737 0,0 0,1.493152 0,1.493152 0,0 -32.10276,15.864735 -32.10276,15.864735 0,0 -14.18495,6.80131 -14.18495,6.80131 -5.38281,1.42596 -8.56322,-3.29987 -6.69678,-6.95809 1.41103,-2.7698 5.4948,-4.471989 8.18994,-5.815825 3.62835,-1.81418 6.35336,-3.016167 9.70548,-5.412675 0,0 -22.39727,0 -22.39727,0 0,0 -7.465764,0.679384 -7.465764,0.679384 C 72.965029,95.0983 38.42843,101.36954 29.297807,129.9634 c -1.030275,3.21774 -1.963495,9.3098 -2.045618,12.69179 -0.08959,4.00164 0.447946,8.06301 1.411028,11.94521 6.920758,27.95927 42.106879,34.84269 66.51991,37.44824 0,0 17.171243,1.3737 17.171243,1.3737 0,0 5.97261,0 5.97261,0 0,0 10.45206,0.74658 10.45206,0.74658 0,0 22.39728,0 22.39728,0 0,0 31.35618,0 31.35618,0 0,0 10.45207,0.74658 10.45207,0.74658 0,0 19.41097,1.3737 19.41097,1.3737 27.86221,2.97883 63.57093,10.98213 73.52279,41.18112 2.45624,7.45829 2.71754,13.192 2.62795,20.90412 -0.39569,33.80496 -31.32633,49.03511 -60.47265,53.94011 -30.1094,5.06178 -59.92764,4.29281 -90.33568,4.29281 0,0 -111.986378,0 -111.986378,0 -1.851509,0 -4.27788,0.14185 -5.927813,-0.76151 -3.39692,-1.85897 -3.822468,-6.15178 -0.679384,-8.49603 1.86644,-1.3961 4.397332,-1.18705 6.607197,-1.19452 0,0 151.554898,0 151.554898,0 0,0 14.93152,-0.74658 14.93152,-0.74658 0,0 8.95891,-0.67938 8.95891,-0.67938 16.9846,-1.16466 34.2977,-3.44918 50.02058,-10.41473 7.85398,-3.47905 15.79008,-9.26501 20.49351,-16.52919 11.28076,-17.41015 7.48816,-42.14421 -9.29487,-54.67922 -16.99953,-12.69926 -40.64359,-15.64076 -61.21922,-17.05926 0,0 -7.46576,-0.70925 -7.46576,-0.70925 0,0 -8.95891,0 -8.95891,0 0,0 -8.95891,-0.71671 -8.95891,-0.71671 0,0 -51.51373,0 -51.51373,0 0,0 -11.19864,-0.74657 -11.19864,-0.74657 C 91.062028,203.62057 61.355775,199.50694 42.17624,188.30083 36.748634,185.12789 31.574863,181.14864 27.595614,176.2511 13.836221,159.33369 13.328549,132.59134 24.60931,114.2853 30.029451,105.4757 38.361238,99.226865 47.402271,94.486108 62.087419,86.788911 79.579691,84.004183 95.929703,82.861922 c 0,0 8.958907,-0.679384 8.958907,-0.679384 5.74117,-0.0075 19.07502,0.619658 23.89043,-0.746576 -3.45664,-1.493152 -14.81953,-6.711717 -16.93981,-9.115692 z m 126.68646,34.04386 c 3.09083,1.09 7.21193,1.41103 10.45207,0.98548 13.63247,-1.79178 21.73282,-17.492272 14.95391,-29.646528 -4.77808,-8.585622 -12.40062,-11.153841 -21.6731,-10.228087 -21.28487,4.165891 -21.33713,32.692555 -3.73288,38.889135 z M 188.79628,79.509796 c -3.49398,3.404386 -3.49398,12.393159 0,15.797545 2.79219,2.725002 10.1161,3.59103 13.89377,3.172948 3.3372,-0.373288 10.15343,-3.531304 11.49727,-6.726649 0.48528,-1.157192 0.44795,-3.083358 0.44795,-4.345071 0,-1.590207 0.0821,-3.583564 -0.76151,-4.979661 -0.79884,-1.32144 -2.4413,-2.299454 -3.71795,-3.113222 -4.75569,-3.023632 -7.15219,-3.411851 -12.69179,-2.889248 -2.88178,0.477808 -6.49521,0.963083 -8.66774,3.083358 z m 88.99931,3.553701 c -0.48528,1.157193 -0.44795,3.083359 -0.44795,4.345072 0,1.590206 -0.0821,3.583564 0.76151,4.979661 0.79883,1.321439 2.4413,2.299453 3.71794,3.113221 4.6885,2.986304 7.92864,3.64329 13.43837,2.777262 2.63541,-0.410616 5.95768,-1.052672 7.92117,-2.971372 3.49398,-3.404386 3.49398,-12.393159 0,-15.797545 -3.15055,-3.075892 -10.46699,-3.493975 -14.64035,-3.075892 -3.21028,0.701781 -9.41432,3.441714 -10.75069,6.629593 z m -76.98691,35.701263 c -3.18788,7.89877 4.94233,15.17042 10.84028,14.61795 4.75569,-0.44048 11.16878,-6.05473 13.20693,-10.1385 0.68685,-1.38116 0.95562,-2.9863 1.29158,-4.47945 0.29116,-1.26918 1.01534,-3.89713 0.8287,-5.09912 -0.44795,-2.95644 -5.12898,-6.8237 -7.92864,-7.27165 -8.08542,1.09747 -14.94645,4.21816 -18.23885,12.37077 z m 64.33991,-5.76357 c -0.50021,1.53048 0.32849,4.18829 0.68685,5.76357 0.42555,1.91123 0.66445,3.50144 1.69473,5.22603 2.76979,4.60637 9.95185,10.77309 15.79008,9.09329 7.40603,-2.12774 10.83281,-9.92946 6.72665,-16.55905 -3.82994,-6.17418 -11.0344,-10.74323 -18.46283,-9.95932 -1.99335,1.13479 -5.69637,4.21815 -6.43548,6.43548 z m -26.45865,32.15502 c 2.31439,1.91124 5.1887,2.03816 8.04809,1.9635 1.57527,-0.0373 2.9863,-0.11945 4.35254,-0.73911 8.7648,-3.60596 7.28658,-22.37488 0,-27.01112 -2.23227,-1.11986 -7.09994,-0.69431 -9.44419,0 -8.67521,5.38282 -8.39151,21.29235 -2.95644,25.78673 z"
     inkscape:connector-curvature="0"
     style="fill:#000000;fill-opacity:1;stroke:none;stroke-width:1" />
</svg>
