<?xml version="1.0" encoding="UTF-8" standalone="no"?>
<svg
   xmlns:dc="http://purl.org/dc/elements/1.1/"
   xmlns:cc="http://creativecommons.org/ns#"
   xmlns:rdf="http://www.w3.org/1999/02/22-rdf-syntax-ns#"
   xmlns:svg="http://www.w3.org/2000/svg"
   xmlns="http://www.w3.org/2000/svg"
   xmlns:sodipodi="http://sodipodi.sourceforge.net/DTD/sodipodi-0.dtd"
   xmlns:inkscape="http://www.inkscape.org/namespaces/inkscape"
   width="100"
   height="100"
   viewBox="0 0 333.33269 333.33269"
   id="svg2"
   version="1.1"
   inkscape:version="0.91 r13725"
   sodipodi:docname="FallingRocks.svg">
  <metadata
     id="metadata9">
    <rdf:RDF>
      <cc:Work
         rdf:about="">
        <dc:format>image/svg+xml</dc:format>
        <dc:type
           rdf:resource="http://purl.org/dc/dcmitype/StillImage" />
        <dc:title></dc:title>
      </cc:Work>
    </rdf:RDF>
  </metadata>
  <defs
     id="defs7" />
  <sodipodi:namedview
     pagecolor="#ffffff"
     bordercolor="#666666"
     borderopacity="1"
     objecttolerance="10"
     gridtolerance="10"
     guidetolerance="10"
     inkscape:pageopacity="0"
     inkscape:pageshadow="2"
     inkscape:window-width="1218"
     inkscape:window-height="697"
     id="namedview5"
     showgrid="false"
     units="px"
     inkscape:zoom="1.5733302"
     inkscape:cx="75.000148"
     inkscape:cy="75.000148"
     inkscape:window-x="54"
     inkscape:window-y="-8"
     inkscape:window-maximized="1"
     inkscape:current-layer="svg2" />
  <path
     id="Selection #19"
     d="m 41.118942,18.425807 c 2.011346,2.267336 1.272634,13.764922 1.272634,17.224441 0,0 0,52.660696 0,52.660696 0,1.638333 0.102395,4.29331 -0.541235,5.770735 -1.199494,2.779315 -4.25674,3.305922 -5.917015,0.643631 -1.016645,-1.638333 -0.855737,-4.520043 -0.855737,-6.414366 0,0 0,-53.392095 0,-53.392095 0,-3.152331 -0.511979,-13.713727 0.855737,-15.922551 0.78991,-1.26532 1.038586,-1.067842 2.135684,-1.660275 1.426227,0.05851 1.930892,-0.18285 3.049932,1.089784 z m 36.569932,0 c 2.011346,2.267336 1.272633,13.764922 1.272633,17.224441 0,0 0,52.660696 0,52.660696 0,1.894323 0.160908,4.776033 -0.855736,6.414366 -1.660275,2.662291 -4.717521,2.135684 -5.917015,-0.643631 -0.643631,-1.477425 -0.541235,-4.132402 -0.541235,-5.770735 0,0 0,-53.392095 0,-53.392095 0,-3.152331 -0.511979,-13.713727 0.855736,-15.922551 0.789911,-1.26532 1.038586,-1.067842 2.135684,-1.660275 1.426228,0.05851 1.930893,-0.18285 3.049933,1.089784 z m 37.842566,6.253458 c 0,0 0,15.359374 0,15.359374 0,0 0,66.557271 0,66.557271 0,1.89432 0.16091,4.77603 -0.85574,6.41437 -1.66027,2.66229 -4.71752,2.13568 -5.91701,-0.64363 -0.64363,-1.47743 -0.54124,-4.13241 -0.54124,-5.77074 0,0 0,-67.288669 0,-67.288669 0,0 0,-15.359374 0,-15.359374 0.0512,-3.276666 -0.0951,-4.951569 2.99142,-6.611844 4.53467,0.18285 4.30063,3.722819 4.32257,7.343242 z m 109.7098,0 c 0,0 0,45.346713 0,45.346713 0,1.638333 0.10239,4.29331 -0.54124,5.770736 -1.19949,2.779314 -4.25674,3.305921 -5.91701,0.64363 -1.01665,-1.638333 -0.85574,-4.520043 -0.85574,-6.414366 0,0 0,-39.495524 0,-39.495524 0,-4.278682 -1.38966,-10.846642 2.99142,-13.194431 4.53467,0.18285 4.30063,3.722819 4.32257,7.343242 z m 36.56993,0 c 0,0 0,45.346713 0,45.346713 0,1.638333 0.1024,4.29331 -0.54124,5.770736 -1.19949,2.779314 -4.25674,3.305921 -5.91701,0.64363 -1.01664,-1.638333 -0.85574,-4.520043 -0.85574,-6.414366 0,0 0,-39.495524 0,-39.495524 0,-4.278682 -1.38965,-10.846642 2.99142,-13.194431 4.53468,0.18285 4.30063,3.722819 4.32257,7.343242 z m 35.2973,-6.253458 c 2.01134,2.267336 1.27263,13.764922 1.27263,17.224441 0,0 0,52.660696 0,52.660696 0,1.894323 0.16091,4.776033 -0.85574,6.414366 -1.66027,2.662291 -4.71752,2.135684 -5.91701,-0.643631 -0.64363,-1.477425 -0.54124,-4.132402 -0.54124,-5.770735 0,0 0,-53.392095 0,-53.392095 0,-3.152331 -0.51197,-13.713727 0.85574,-15.922551 0.78991,-1.26532 1.03859,-1.067842 2.13569,-1.660275 1.42622,0.05851 1.93089,-0.18285 3.04993,1.089784 z m -145.0071,24.538427 c 0,0 0,15.359366 0,15.359366 0,0 0,66.55728 0,66.55728 0,1.63833 0.1024,4.29331 -0.54123,5.77073 -1.19949,2.77932 -4.25674,3.30593 -5.91702,0.64363 -1.01664,-1.63833 -0.85573,-4.52004 -0.85573,-6.41436 0,0 0,-67.288678 0,-67.288678 0,0 0,-15.359367 0,-15.359367 0.0512,-3.276666 -0.0951,-4.951568 2.99142,-6.611843 4.53467,0.182849 4.30062,3.722819 4.32256,7.343242 z m 36.56994,0 c 0,0 0,45.34671 0,45.34671 0,1.638333 0.10239,4.29331 -0.54124,5.770735 -1.19949,2.779315 -4.25674,3.305922 -5.91701,0.643631 -1.01665,-1.638333 -0.85574,-4.520043 -0.85574,-6.414366 0,0 0,-39.495521 0,-39.495521 0,-4.278682 -1.38966,-10.846642 2.99142,-13.194431 4.53467,0.182849 4.30062,3.722819 4.32257,7.343242 z M 94.320879,189.6828 c -4.176287,2.63303 -14.203762,15.17652 -18.284966,16.67589 -1.418914,0.5266 -3.591168,0.43884 -5.119791,0.43884 0,0 -27.793148,0 -27.793148,0 -1.521309,0 -3.708191,0.0805 -5.11979,-0.43884 -3.861785,-1.42623 -9.486241,-9.86657 -11.804774,-13.45774 -3.24741,-5.03934 -6.619158,-11.70969 -8.016129,-17.55357 -2.113742,-8.82798 -1.404286,-31.51596 -1.389658,-41.68972 0.01463,-6.71424 0.01463,-5.67565 10.239581,-10.78813 0,0 33.644337,-16.27362 33.644337,-16.27362 0,2.8744 -0.299873,7.687 0.738713,10.23958 4.161658,10.26884 18.753061,9.49356 27.785834,9.50819 8.023443,0.0146 9.105913,3.25472 14.627972,8.77678 2.57452,2.57452 10.18838,9.50818 11.26354,12.43378 0.47541,1.29457 0.43152,3.01336 0.43884,4.38839 0,0 0,36.56993 0,36.56993 -4.50542,0 -17.94121,-0.89962 -21.210561,1.17024 z M 261.81117,108.05871 c 0,2.33316 -0.21211,5.19293 0.85574,7.31398 1.84312,3.64237 6.41436,6.17301 10.11524,7.53341 9.53012,3.5034 15.76164,3.43758 25.59895,3.43758 0,0 0,16.09077 0,16.09077 0,1.96014 -0.0731,3.94955 0.46078,5.85118 0,0 12.88725,26.33036 12.88725,26.33036 2.50869,5.0247 4.85648,8.14046 4.93694,13.89657 0,0 0,11.70238 0,11.70238 -0.0293,1.58713 -0.0146,2.92559 -0.74603,4.38839 0,0 -16.3687,17.55357 -16.3687,17.55357 -2.06986,3.26935 -1.17024,16.70514 -1.17024,21.21056 -4.50541,0 -17.94121,-0.89962 -21.21056,1.17023 -4.17629,2.63304 -14.20376,15.17653 -18.28497,16.67589 -1.41891,0.52661 -3.59116,0.43884 -5.11979,0.43884 0,0 -35.83853,0 -35.83853,0 0,-2.64035 0.16091,-5.50011 -0.5778,-8.04538 -1.15561,-4.01538 -4.25674,-7.86254 -8.19898,-9.39847 -2.85246,-1.11904 -7.13114,-0.84111 -10.23958,-0.84111 0,0 -17.55357,0 -17.55357,0 0,-4.50542 0.89962,-17.94121 -1.17024,-21.21056 -1.22143,-1.93821 -9.76417,-10.1957 -11.99494,-12.43378 -1.27263,-1.27263 -4.46153,-4.19091 -4.87111,-5.85119 -0.60706,-2.41361 2.91828,-5.38309 4.29331,-7.31399 2.65498,-3.73744 3.44489,-6.45825 3.5034,-10.97098 0.11702,-10.22495 -3.67894,-16.78559 -6.12181,-26.33035 -0.68751,-2.69154 -2.05523,-9.95433 -1.05321,-12.43377 0.81916,-2.02598 4.76872,-5.63909 6.44362,-7.31399 2.72812,-2.72812 10.91247,-11.62924 13.89657,-12.72634 1.41892,-0.5266 3.59117,-0.43883 5.11979,-0.43883 9.55938,-0.022 24.21661,2.36241 27.93943,-9.50819 0.77529,-2.47213 0.58512,-6.13643 0.58512,-8.77678 0,0 43.88392,0 43.88392,0 z m 2.1942,17.94121 c -2.42093,-1.49937 -4.42497,-3.19621 -6.12181,-5.50743 -0.89962,-1.23607 -1.96015,-3.59117 -3.11576,-4.39571 -1.31652,-0.90694 -3.82521,-0.72409 -5.39041,-0.72409 0,0 -24.86755,0 -24.86755,0 -2.75006,17.53163 -18.88471,18.25572 -32.91294,18.28497 -8.01613,0.0146 -9.10591,3.25473 -14.62797,8.77679 -1.62371,1.6237 -4.87112,4.63706 -5.66834,6.58258 -1.4116,2.5087 -0.49735,6.16569 0,8.77679 0,0 5.58057,18.28496 5.58057,18.28496 1.52862,6.70693 2.04792,10.10793 0,16.82217 -1.7261,5.2295 -4.73215,7.83328 -4.37376,10.23958 0.28524,1.96015 3.0865,4.46153 4.46153,5.85119 2.0918,2.09912 9.33264,9.06203 10.53214,10.97098 1.87238,2.96948 1.17024,12.25093 1.17024,16.09077 8.11852,0 19.3528,-0.85574 26.33035,3.73745 3.27666,2.15762 5.34652,4.46884 7.10919,7.96493 0.7314,1.43354 1.86507,5.03934 2.9256,5.8585 1.19218,0.91425 3.85447,0.72409 5.32458,0.72409 0,0 21.21056,0 21.21056,0 1.52862,0 3.70088,0.0878 5.11979,-0.43884 4.0812,-1.49937 14.10868,-14.04286 18.28496,-16.67589 2.96948,-1.87238 12.25093,-1.17024 16.09077,-1.17024 0,0 0,-10.97098 0,-10.97098 0.0293,-1.58713 0.0146,-2.92559 0.74603,-4.38839 0,0 16.3687,-17.55357 16.3687,-17.55357 1.79924,-2.84514 1.21412,-11.02949 1.17024,-14.62797 -0.0804,-5.75611 -2.42824,-8.87187 -4.93694,-13.89657 0,0 -12.36064,-24.86756 -12.36064,-24.86756 -1.57982,-3.93492 -0.98739,-12.30212 -0.98739,-16.82217 -8.87186,-0.0293 -19.46983,-2.20882 -27.06174,-6.92634 z m -230.390578,0.8923 c -1.908951,0.95814 -7.72357,3.52535 -8.784098,5.03203 -0.906934,1.3092 -0.724084,3.83253 -0.724084,5.3904 0,0 0,30.71875 0,30.71875 0.08045,6.802 2.852454,13.24563 6.290028,19.01636 1.813868,3.03531 6.721553,10.75156 9.866568,11.99494 1.323831,0.52661 3.598481,0.43884 5.053964,0.43884 0,0 23.404756,0 23.404756,0 1.528623,0 3.700877,0.0878 5.119791,-0.43884 4.081204,-1.49937 14.108679,-14.04285 18.284966,-16.67589 2.969478,-1.87238 12.250927,-1.17024 16.090767,-1.17024 0,0 0,-27.06175 0,-27.06175 -0.0512,-7.14576 -3.92029,-9.04008 -8.776781,-13.89657 -1.645647,-1.64565 -4.615125,-4.84917 -6.582588,-5.83656 -2.801256,-1.40429 -11.256225,-1.30921 -14.627972,-1.54325 -11.439075,-0.7826 -20.128091,-4.57856 -24.136155,-16.02495 0,0 -20.479162,10.05673 -20.479162,10.05673 z m 19.747763,25.05041 c 0.02926,-1.81387 -0.01463,-4.08121 1.272634,-5.52206 1.930892,-2.18688 4.819917,-1.21412 5.887759,1.89432 0,0 0,14.75231 0,14.75231 0,0 14.75231,0 14.75231,0 3.108444,1.06784 4.081204,3.95687 1.894323,5.88776 -1.682217,1.49205 -4.856487,1.27263 -6.984857,1.27263 0,0 -16.822169,0 -16.822169,0 0,0 0,-18.28496 0,-18.28496 z m 201.134625,-7.31399 c 8.25749,0.11702 7.61386,4.80529 4.95157,6.45825 -1.52131,0.94351 -3.93492,0.84842 -5.68297,0.85574 0,0 -28.52454,0 -28.52454,0 0,9.73491 1.33114,22.36617 -5.98284,29.9142 -3.34981,3.44489 -8.34526,5.32458 -13.03353,5.96821 -2.19419,0.30719 -5.22218,0.49004 -5.88044,-2.3039 -0.4169,-1.7773 0.78259,-3.10845 2.3039,-3.78865 2.31854,-1.03127 9.53013,-0.45346 13.7503,-7.8479 1.51399,-2.64767 1.51399,-5.11248 1.52862,-8.04539 0,0 0,-21.21056 0,-21.21056 0,0 36.56993,0 36.56993,0 z m 8.04539,54.27709 c 13.10666,-3.78864 10.18838,-17.47311 10.23958,-27.94674 0.007,-1.49205 -0.0512,-3.67162 0.54123,-5.03933 1.1995,-2.77932 4.25674,-3.30593 5.91702,-0.64364 0.9435,1.52131 0.84842,3.93493 0.85574,5.68297 0.0366,6.66304 0.45346,18.28497 -2.47213,24.13616 -1.8285,3.67162 -4.16166,6.2242 -7.76746,8.19166 -1.92357,1.05322 -6.26808,2.29659 -7.29935,3.82522 -0.90694,1.34577 -0.74603,3.93492 -0.74603,5.53668 0,0 0,12.43378 0,12.43378 0,0 -18.28497,0 -18.28497,0 -1.81386,-0.0293 -4.0812,0.0146 -5.52206,-1.27263 -2.18688,-1.93089 -1.21412,-4.81992 1.89433,-5.88776 0,0 14.59871,0 14.59871,0 0,0 0,-18.43856 0,-18.43856 2.64035,0 5.50012,0.16091 8.04539,-0.57781 z M 152.10137,271.892 c 0,1.52863 0.0878,3.70088 -0.43883,5.11979 -1.33115,3.62043 -12.97502,13.66984 -16.28094,17.55357 -3.02067,3.5546 -2.24539,5.42698 -4.00806,9.50818 -2.28197,5.2807 -5.94627,9.00352 -11.45371,10.89053 -8.22092,2.8232 -12.71171,-0.60706 -19.74776,-4.12509 0,0 -27.061752,-13.80881 -27.061752,-13.80881 -2.31122,-1.66027 -5.902387,-5.4416 -8.045385,-7.5846 -2.31122,-2.31122 -10.53214,-9.77148 -11.109945,-12.43378 -0.402269,-1.85775 0.97276,-4.22017 1.784613,-5.85118 0,0 5.485489,-10.97098 5.485489,-10.97098 0,0 11.614611,-22.67336 11.614611,-22.67336 1.777298,-2.47944 7.343242,-7.80403 9.778799,-10.23958 5.646398,-5.6464 7.153079,-9.49356 15.359372,-9.50819 0,0 17.553568,0 17.553568,0 0,2.33317 -0.21211,5.19293 0.85574,7.31399 1.96015,3.85447 6.89709,6.45094 10.84664,7.78208 9.70566,3.28398 14.96442,3.1889 24.86755,3.1889 0,0 0,35.83853 0,35.83853 z m -35.10713,-36.64307 c -9.08397,-6.06329 -4.76141,-10.03479 -12.43378,-10.16644 0,0 -5.119791,0 -5.119791,0 -6.962915,0.0439 -8.418398,3.29861 -13.165175,8.04539 -2.245394,2.24539 -6.611844,6.39973 -8.316003,8.77678 0,0 -9.420414,18.28497 -9.420414,18.28497 -1.426228,2.85976 -7.101881,12.74096 -6.538704,15.35937 0.548549,2.55258 7.511464,8.84261 9.647148,10.97098 1.755357,1.74804 3.861785,3.96418 5.851189,5.3904 0,0 25.59895,13.07741 25.59895,13.07741 5.04665,2.52333 9.52281,5.65371 15.35938,3.36444 9.28145,-3.63506 5.77805,-11.7097 11.01486,-17.44386 3.0865,-3.37906 13.6479,-12.74097 14.87665,-16.09077 0.52661,-1.41892 0.43884,-3.59117 0.43884,-5.11979 0,0 0,-27.06175 0,-27.06175 -9.03278,-0.0293 -20.20123,-2.33316 -27.79315,-7.38713 z m 1.4628,24.2093 c 0,0 11.67312,11.70238 11.67312,11.70238 1.75536,1.87238 5.20024,5.96821 1.32383,7.84059 -2.4063,1.16292 -4.8126,-1.25069 -6.41437,-2.75006 0,0 -8.77678,-8.74021 -8.77678,-8.74021 -1.08247,-1.03859 -2.77932,-2.90366 -4.38839,-2.90366 -1.76999,0 -3.92761,2.4575 -5.11979,3.62774 -2.4575,2.42093 -9.976282,11.07338 -13.135924,11.07338 -5.075907,0 -2.4575,-5.40504 -0.680201,-7.41639 3.196212,-3.61311 14.569465,-15.33011 18.204515,-17.30489 3.5034,0.1536 4.90768,2.46482 7.31399,4.87112 z"
     inkscape:connector-curvature="0"
     style="fill:#000000;fill-opacity:1;stroke:none;stroke-width:1" />
</svg>
