<?xml version="1.0" encoding="UTF-8" standalone="no"?>
<svg
   xmlns:dc="http://purl.org/dc/elements/1.1/"
   xmlns:cc="http://creativecommons.org/ns#"
   xmlns:rdf="http://www.w3.org/1999/02/22-rdf-syntax-ns#"
   xmlns:svg="http://www.w3.org/2000/svg"
   xmlns="http://www.w3.org/2000/svg"
   xmlns:sodipodi="http://sodipodi.sourceforge.net/DTD/sodipodi-0.dtd"
   xmlns:inkscape="http://www.inkscape.org/namespaces/inkscape"
   width="100"
   height="100"
   viewBox="0 0 333.33269 333.33266"
   id="svg2"
   version="1.1"
   inkscape:version="0.91 r13725"
   sodipodi:docname="fighter.svg">
  <metadata
     id="metadata9">
    <rdf:RDF>
      <cc:Work
         rdf:about="">
        <dc:format>image/svg+xml</dc:format>
        <dc:type
           rdf:resource="http://purl.org/dc/dcmitype/StillImage" />
        <dc:title></dc:title>
      </cc:Work>
    </rdf:RDF>
  </metadata>
  <defs
     id="defs7" />
  <sodipodi:namedview
     pagecolor="#ffffff"
     bordercolor="#666666"
     borderopacity="1"
     objecttolerance="10"
     gridtolerance="10"
     guidetolerance="10"
     inkscape:pageopacity="0"
     inkscape:pageshadow="2"
     inkscape:window-width="1218"
     inkscape:window-height="697"
     id="namedview5"
     showgrid="false"
     units="px"
     inkscape:zoom="1.5733302"
     inkscape:cx="75.000148"
     inkscape:cy="75.000148"
     inkscape:window-x="54"
     inkscape:window-y="-8"
     inkscape:window-maximized="1"
     inkscape:current-layer="svg2" />
  <path
     id="Fighter"
     d="m 92.00715,271.18921 c 0,0 0,7.46592 0,7.46592 0,0 18.6648,37.3296 18.6648,37.3296 0,0 18.6648,0 18.6648,0 0,0 -11.19888,-63.46032 -11.19888,-63.46032 0,0 11.19888,-11.19888 11.19888,-11.19888 0,0 74.65919,74.6592 74.65919,74.6592 0,0 18.6648,-18.6648 18.6648,-18.6648 0,0 -18.6648,-126.92064 -18.6648,-126.92064 0,0 48.52848,-48.52847 48.52848,-48.52847 0,0 -11.19888,-11.19888 -11.19888,-11.19888 0,0 55.9944,-55.994402 55.9944,-55.994402 0,0 18.6648,-37.329596 18.6648,-37.329596 0,0 -37.3296,18.664797 -37.3296,18.664797 0,0 -55.9944,55.994397 -55.9944,55.994397 0,0 -11.19888,-11.198879 -11.19888,-11.198879 0,0 -48.52847,48.528473 -48.52847,48.528473 0,0 -126.92064,-18.66479 -126.92064,-18.66479 0,0 -18.6648,18.66479 -18.6648,18.66479 0,0 74.6592,74.6592 74.6592,74.6592 0,0 -11.19888,11.19888 -11.19888,11.19888 0,0 -63.46032,-11.19888 -63.46032,-11.19888 0,0 0,18.6648 0,18.6648 0,0 37.3296,18.6648 37.3296,18.6648 0,0 7.46592,0 7.46592,0 0,0 29.86368,29.86368 29.86368,29.86368 z"
     inkscape:connector-curvature="0"
     style="fill:#000000;fill-opacity:1;stroke:none;stroke-width:0.74659199" />
</svg>
