<?xml version="1.0" encoding="UTF-8" standalone="no"?>
<svg
   xmlns:dc="http://purl.org/dc/elements/1.1/"
   xmlns:cc="http://creativecommons.org/ns#"
   xmlns:rdf="http://www.w3.org/1999/02/22-rdf-syntax-ns#"
   xmlns:svg="http://www.w3.org/2000/svg"
   xmlns="http://www.w3.org/2000/svg"
   xmlns:sodipodi="http://sodipodi.sourceforge.net/DTD/sodipodi-0.dtd"
   xmlns:inkscape="http://www.inkscape.org/namespaces/inkscape"
   width="100"
   height="100"
   viewBox="0 0 333.33269 333.33266"
   id="svg2"
   version="1.1"
   inkscape:version="0.91 r13725"
   sodipodi:docname="financialDistrict.svg">
  <metadata
     id="metadata9">
    <rdf:RDF>
      <cc:Work
         rdf:about="">
        <dc:format>image/svg+xml</dc:format>
        <dc:type
           rdf:resource="http://purl.org/dc/dcmitype/StillImage" />
        <dc:title></dc:title>
      </cc:Work>
    </rdf:RDF>
  </metadata>
  <defs
     id="defs7" />
  <sodipodi:namedview
     pagecolor="#ffffff"
     bordercolor="#666666"
     borderopacity="1"
     objecttolerance="10"
     gridtolerance="10"
     guidetolerance="10"
     inkscape:pageopacity="0"
     inkscape:pageshadow="2"
     inkscape:window-width="1218"
     inkscape:window-height="697"
     id="namedview5"
     showgrid="false"
     units="px"
     inkscape:zoom="3.1466604"
     inkscape:cx="34.400542"
     inkscape:cy="59.214717"
     inkscape:window-x="54"
     inkscape:window-y="-8"
     inkscape:window-maximized="1"
     inkscape:current-layer="svg2" />
  <path
     id="Financial"
     d="m 225.91623,39.166585 0,11.999977 c 3.6,0 14.31748,0.3225 16.48497,3.382491 1.095,1.552497 0.765,6.592487 0.765,8.617483 -7.04249,-1.319998 -7.52248,-4.282492 -17.24997,-4.499991 l 0,17.999965 c 5.82749,0.487499 13.93498,2.572495 17.51247,7.529985 1.8075,2.497495 1.95,4.514991 1.9875,7.469986 0.1425,12.104979 -8.19749,17.474969 -19.49997,17.999969 l 0,15.74996 -5.24999,0 0,-15.74996 c -11.33997,0 -9.92248,-0.6675 -20.24996,-3 l 0,-9.74998 c 7.18499,1.349998 9.19499,5.15249 20.24996,5.24999 l 0,-11.249978 c 0,-1.627497 0.165,-4.312492 -0.76499,-5.677489 -1.245,-1.822496 -4.69499,-2.129996 -6.73499,-2.692495 -3.86249,-1.064998 -7.61999,-2.744994 -10.20748,-5.909988 -2.5575,-3.127494 -2.625,-5.879989 -2.535,-9.719981 0.27,-11.039979 10.49248,-15.659967 20.24246,-15.749967 l 0,-11.999977 z m -47.2499,63.749875 c -0.12,6.12749 -3.54,6.59249 -8.99999,7.74748 -7.87498,1.6725 -19.31996,0.6825 -26.24995,-3.59999 -14.15247,-8.729982 -14.42247,-21.772457 -14.24997,-36.397429 0.1875,-15.32997 13.04998,-29.062441 28.49995,-29.24994 5.14499,-0.06 10.00498,-0.345 14.99997,1.072498 1.51499,0.427499 4.28999,1.169997 5.25749,2.452495 1.1475,1.529997 0.7425,7.844985 0.7425,9.974978 -4.5525,-1.222495 -6.69749,-3.72749 -11.99998,-4.859988 -14.06997,-3.007494 -21.39746,4.237489 -26.99995,16.109966 l 20.99996,0 -1.8825,4.484991 -4.86749,0.764999 -14.99997,0 0,8.999982 16.49997,0 c -1.11,6.592488 -3.16499,5.24999 -15.74997,5.24999 4.94999,12.359976 13.85247,19.882458 27.74995,16.859968 4.13249,-0.8925 7.28248,-3.599993 11.24998,-4.859991 z m 99.2773,-59.257384 4.40999,7.507486 9.56249,19.499959 11.14497,-19.499959 4.8975,-7.484986 8.70748,-0.764998 c -0.585,5.527489 -3.3225,8.699983 -5.80499,13.499971 l -13.69497,26.249949 16.49996,0 0,5.999988 -16.49996,0 0,5.999989 16.49996,0 0,5.999985 -16.49996,0 0,8.99999 -8.99999,0 0,-8.99999 -16.49996,0 0,-5.999985 16.49996,0 0,-5.999989 -16.49996,0 0,-5.999988 16.49996,0 -14.08497,-26.999948 -6.16499,-12.749972 z m -67.73237,23.257453 c 0.03,1.582497 0.33,3.082494 1.26,4.402491 1.9575,2.767495 6.10499,3.674993 9.19498,4.597491 l 0,-17.249966 c -5.18249,0.254999 -10.57497,2.077496 -10.45498,8.249984 z m -17.29496,6.749987 0,12.749975 -10.49998,0 0,-12.749975 z m 69.74986,0 0,12.749975 -10.49998,0 0,-12.749975 z m -27.08244,20.999959 c 0.1875,-1.942496 -0.0375,-4.229992 -1.2225,-5.842489 -1.8975,-2.587495 -5.48999,-3.307493 -8.44499,-3.907492 l 0,17.249966 c 4.83,-0.4425 9.12749,-1.9725 9.66749,-7.499985 z m -53.9174,131.999745 0,18.74997 18.74996,0 0,-18.74997 z m 0,29.99995 0,18.74996 18.74996,0 0,-18.74996 z m 0,29.99994 0,18.74996 18.74996,0 0,-18.74996 z m 0,-89.99983 0,18.74997 18.74996,0 0,-18.74997 z m 33.74993,29.99994 0,18.74997 18.74997,0 0,-18.74997 z m 0,29.99995 0,18.74996 18.74997,0 0,-18.74996 z m 0,29.99994 0,18.74996 18.74997,0 0,-18.74996 z m 0,-89.99983 0,18.74997 18.74997,0 0,-18.74997 z m 33.74994,29.99994 0,18.74997 18.74996,0 0,-18.74997 z m 0,29.99995 0,18.74996 18.74996,0 0,-18.74996 z m 0,29.99994 0,18.74996 18.74996,0 0,-18.74996 z m 0,-89.99983 0,18.74997 18.74996,0 0,-18.74997 z m 33.74993,29.99994 0,18.74997 18.74997,0 0,-18.74997 z m 0,29.99995 0,18.74996 18.74997,0 0,-18.74996 z m 0,29.99994 0,18.74996 18.74997,0 0,-18.74996 z m 0,-89.99983 0,18.74997 18.74997,0 0,-18.74997 z m -134.99973,29.99994 0,18.74997 18.74996,0 0,-18.74997 z m 0,29.99995 0,18.74996 18.74996,0 0,-18.74996 z m 0,29.99994 0,18.74996 18.74996,0 0,-18.74996 z m 0,-89.99983 0,18.74997 18.74996,0 0,-18.74997 z m 101.2498,-29.99995 0,18.74997 18.74996,0 0,-18.74997 z m -33.74994,0 0,18.74997 18.74997,0 0,-18.74997 z m -198.749613,149.99972 0,-258.749504 101.249803,-41.249918 0,299.999422 z m 11.249978,-243.749533 0,18.749964 18.749964,0 0,-18.749964 z m 59.999883,0 0,18.749964 18.749962,0 0,-18.749964 z m -59.999883,37.499923 0,18.74996 18.749964,0 0,-18.74996 z m 59.999883,0 0,18.74996 18.749962,0 0,-18.74996 z m 0,37.49993 0,18.74996 18.749962,0 0,-18.74996 z m -59.999883,0 0,18.74996 18.749964,0 0,-18.74996 z m 59.999883,56.2499 18.749962,0 0,-18.74997 -18.749962,0 z m -59.999883,-18.74997 0,18.74997 18.749964,0 0,-18.74997 z m 0,37.49993 0,18.74996 18.749964,0 0,-18.74996 z m 59.999883,18.74996 18.749962,0 0,-18.74996 -18.749962,0 z m 0,18.74997 0,18.74996 18.749962,0 0,-18.74996 z m -59.999883,0 0,18.74996 18.749964,0 0,-18.74996 z M 76.66652,72.916517 l -18.749963,0 0,18.749964 18.749963,0 z m -18.749963,37.499923 0,18.74996 18.749963,0 0,-18.74996 z m 0,37.49993 0,18.74996 18.749963,0 0,-18.74996 z m 0,37.49993 0,18.74997 18.749963,0 0,-18.74997 z m 0,56.24989 18.749963,0 0,-18.74996 -18.749963,0 z m 0,37.49993 18.749963,0 0,-18.74996 -18.749963,0 z m 74.999853,37.49993 0,-134.99974 67.49987,0 0,-29.99995 82.49984,0 0,29.99995 33.74994,0 0,134.99974 z"
     style="fill:#000000;fill-opacity:1;stroke:none;stroke-width:1"
     inkscape:connector-curvature="0"
     sodipodi:nodetypes="cccccccccccccccscsccccccccccccccccccccccccccccccccccccccccccccccccccccccccccccccccccccccccccccccccccccccccccccccccccccccccccccccccccccccccccccccccccccccccccccccccccccccccccccccccccccccccccccccccccccccccccccccccccccccccccccccccccccccccccccccccccccccccccccccccccccccccccccccccccccccccccccccccccccccccccccccc" />
</svg>
