<?xml version="1.0" encoding="UTF-8" standalone="no"?>
<svg
   xmlns:dc="http://purl.org/dc/elements/1.1/"
   xmlns:cc="http://creativecommons.org/ns#"
   xmlns:rdf="http://www.w3.org/1999/02/22-rdf-syntax-ns#"
   xmlns:svg="http://www.w3.org/2000/svg"
   xmlns="http://www.w3.org/2000/svg"
   xmlns:sodipodi="http://sodipodi.sourceforge.net/DTD/sodipodi-0.dtd"
   xmlns:inkscape="http://www.inkscape.org/namespaces/inkscape"
   width="100"
   height="100"
   viewBox="0 0 333.33269 333.33269"
   id="svg2"
   version="1.1"
   inkscape:version="0.91 r13725"
   sodipodi:docname="FlipATile.svg">
  <metadata
     id="metadata9">
    <rdf:RDF>
      <cc:Work
         rdf:about="">
        <dc:format>image/svg+xml</dc:format>
        <dc:type
           rdf:resource="http://purl.org/dc/dcmitype/StillImage" />
        <dc:title></dc:title>
      </cc:Work>
    </rdf:RDF>
  </metadata>
  <defs
     id="defs7" />
  <sodipodi:namedview
     pagecolor="#ffffff"
     bordercolor="#666666"
     borderopacity="1"
     objecttolerance="10"
     gridtolerance="10"
     guidetolerance="10"
     inkscape:pageopacity="0"
     inkscape:pageshadow="2"
     inkscape:window-width="1218"
     inkscape:window-height="697"
     id="namedview5"
     showgrid="false"
     units="px"
     inkscape:zoom="1.5733302"
     inkscape:cx="75.000148"
     inkscape:cy="75.000148"
     inkscape:window-x="54"
     inkscape:window-y="-8"
     inkscape:window-maximized="1"
     inkscape:current-layer="svg2" />
  <path
     id="Selection #1"
     d="m 186.27526,77.288659 c 0,-13.414528 -1.3528,-27.88213 6.23743,-39.692748 3.57235,-5.556982 7.06369,-9.258938 12.39386,-13.155308 20.47011,-14.9860371 46.03548,-5.7757 57.59498,15.585477 3.60475,6.666761 4.77123,15.188551 4.77933,22.68157 0,0 0,108.54751 0,108.54751 0,0 -20.2514,0 -20.2514,0 0,0 0,-111.787734 0,-111.787734 -0.008,-7.64693 -1.22318,-13.171512 -7.3067,-18.461178 -9.17794,-7.987151 -24.5285,-4.868437 -30.47431,5.50028 -2.51928,4.398605 -2.71369,8.076259 -2.72179,12.960898 0,0 0,91.536334 0,91.536334 0,0 9.72067,0 9.72067,0 -3.92067,5.48408 -14.76732,16.33073 -20.2514,20.2514 0,0 -19.44135,-20.2514 -19.44135,-20.2514 0,0 9.72068,0 9.72068,0 0,0 0,-73.715101 0,-73.715101 z m 56.70392,32.402241 c 0,0 0,7.29051 0,7.29051 0,0 -32.40224,0 -32.40224,0 0,0 0,-7.29051 0,-7.29051 0,0 32.40224,0 32.40224,0 z m -60.7542,8.10056 c 0.1215,9.07263 -1.99274,9.29945 -7.60643,16.20112 0,0 -13.61704,17.01118 -13.61704,17.01118 -2.05755,2.57598 -10.1176,10.87905 -8.75671,13.90866 0,0 9.12123,11.20308 9.12123,11.20308 0,0 17.82124,21.06146 17.82124,21.06146 5.62179,6.72346 6.25363,10.51452 15.18855,10.53073 0,0 64.80448,0 64.80448,0 8.71621,-0.0162 9.04023,-3.16732 14.51621,-9.72068 0,0 13.0257,-15.39106 13.0257,-15.39106 0,0 10.87095,-12.9609 10.87095,-12.9609 0.97207,-1.14218 3.73436,-4.01788 4.03408,-5.33017 0.41313,-1.79832 -1.57151,-3.89637 -2.60028,-5.20056 0,0 -8.45698,-10.53073 -8.45698,-10.53073 0,0 -12.43436,-15.39106 -12.43436,-15.39106 -1.75783,-2.19525 -5.48408,-6.44805 -6.33464,-8.91062 -0.72095,-2.09804 -0.46984,-8.76481 -0.46984,-11.34078 0,0 17.01118,20.2514 17.01118,20.2514 0,0 24.30168,30.78213 24.30168,30.78213 0,0 -29.90727,35.64246 -29.90727,35.64246 -2.13044,2.54358 -9.51005,9.80978 -8.95922,12.9609 0.35643,2.00894 6.56146,9.24274 8.18157,11.34079 0,0 21.28827,26.73185 21.28827,26.73185 1.88743,2.36536 8.08436,9.42095 8.08436,12.15084 0,1.25559 -0.59134,2.21955 -1.23938,3.24022 0,0 -30.97655,38.07264 -30.97655,38.07264 -2.41396,2.9648 -7.72793,10.41732 -11.03296,11.66481 -1.53101,0.57514 -4.00168,0.48603 -5.66229,0.48603 0,0 -71.28494,0 -71.28494,0 -9.46145,-0.0162 -10.36871,-4.3176 -16.03911,-11.34079 0,0 -21.83101,-26.73185 -21.83101,-26.73185 -2.16285,-2.61648 -7.2419,-9.70447 -10.06089,-10.85475 -1.4338,-0.58324 -3.95308,-0.48603 -5.53269,-0.48603 0,0 -68.044711,0 -68.044711,0 -9.31564,-0.0162 -9.79358,-3.71006 -15.45587,-10.53073 0,0 -23.1028,-28.35196 -23.1028,-28.35196 0,0 -10.174302,-12.9609 -10.174302,-12.9609 -1.636313,-3.88827 6.958382,-12.28855 9.510062,-15.39107 0,0 23.76704,-29.16201 23.76704,-29.16201 5.66229,-6.82067 6.14023,-10.51453 15.45587,-10.53073 0,0 67.234661,0 67.234661,0 1.67681,0 4.11508,0.0891 5.67039,-0.48604 3.49944,-1.30419 8.52989,-8.55419 11.01676,-11.6648 0,0 27.86593,-34.83241 27.86593,-34.83241 0.80196,2.01704 0.77765,2.69748 0.81006,4.86033 z M 57.136119,178.54567 c 0,0 -18.60699,22.68157 -18.60699,22.68157 -1.80643,2.21955 -8.45699,9.69637 -8.45699,12.15084 0,2.71369 7.27431,10.55503 9.24274,12.96089 0,0 18.47738,22.68157 18.47738,22.68157 5.50028,6.76397 6.14833,10.51453 15.07515,10.53073 0,0 64.804481,0 64.804481,0 8.6676,-0.0162 9.21844,-3.82346 14.58101,-10.53073 0,0 19.92738,-25.11173 19.92738,-25.11173 2.37347,-2.96481 9.55056,-9.96369 7.85754,-13.77096 -0.71284,-1.60391 -7.56592,-9.36424 -9.21843,-11.34078 0,0 -17.69163,-21.06146 -17.69163,-21.06146 -5.58938,-6.68296 -6.52905,-10.51453 -15.45587,-10.53073 0,0 -46.173191,0 -46.173191,0 -5.45168,0 -19.83018,-0.47793 -24.26928,0.48604 -4.2852,2.41396 -7.02319,7.10419 -10.0933,10.85475 z m 121.362601,48.60336 c 0,0 -18.61509,23.49163 -18.61509,23.49163 -1.73352,2.21955 -8.30308,9.81788 -8.30308,12.15084 0,2.71369 7.27431,10.55503 9.24274,12.9609 0,0 18.48548,22.68157 18.48548,22.68157 5.39498,6.73966 6.21313,10.51452 15.06705,10.53072 0,0 64.80448,0 64.80448,0 8.85392,-0.0162 9.67207,-3.79106 15.06705,-10.53072 0,0 19.11732,-23.49163 19.11732,-23.49163 2.09805,-2.61648 9.16983,-9.75308 8.55419,-12.9609 -0.38072,-1.97653 -4.84413,-7.10419 -6.28603,-8.91061 0,0 -14.74302,-18.63129 -14.74302,-18.63129 0,0 -9.72068,-12.15085 -9.72068,-12.15085 -1.40949,-1.76592 -3.72625,-5.15195 -5.75139,-6.01871 -1.3447,-0.57514 -3.92878,-0.46173 -5.42738,-0.46173 0,0 -47.79331,0 -47.79331,0 0,0 -24.06676,0.46173 -24.06676,0.46173 -3.79107,2.38156 -6.80448,7.33911 -9.63157,10.87905 z"
     inkscape:connector-curvature="0"
     style="fill:#000000;fill-opacity:1;stroke:none;stroke-width:0.81005609" />
</svg>
