<?xml version="1.0" encoding="UTF-8" standalone="no"?>
<svg
   xmlns:dc="http://purl.org/dc/elements/1.1/"
   xmlns:cc="http://creativecommons.org/ns#"
   xmlns:rdf="http://www.w3.org/1999/02/22-rdf-syntax-ns#"
   xmlns:svg="http://www.w3.org/2000/svg"
   xmlns="http://www.w3.org/2000/svg"
   xmlns:sodipodi="http://sodipodi.sourceforge.net/DTD/sodipodi-0.dtd"
   xmlns:inkscape="http://www.inkscape.org/namespaces/inkscape"
   width="100"
   height="100"
   viewBox="0 0 333.33269 333.33266"
   id="svg2"
   version="1.1"
   inkscape:version="0.91 r13725"
   sodipodi:docname="flipACard.svg">
  <metadata
     id="metadata9">
    <rdf:RDF>
      <cc:Work
         rdf:about="">
        <dc:format>image/svg+xml</dc:format>
        <dc:type
           rdf:resource="http://purl.org/dc/dcmitype/StillImage" />
        <dc:title></dc:title>
      </cc:Work>
    </rdf:RDF>
  </metadata>
  <defs
     id="defs7" />
  <sodipodi:namedview
     pagecolor="#ffffff"
     bordercolor="#666666"
     borderopacity="1"
     objecttolerance="10"
     gridtolerance="10"
     guidetolerance="10"
     inkscape:pageopacity="0"
     inkscape:pageshadow="2"
     inkscape:window-width="1218"
     inkscape:window-height="697"
     id="namedview5"
     showgrid="false"
     units="px"
     inkscape:zoom="1.5733302"
     inkscape:cx="75.000148"
     inkscape:cy="75.000148"
     inkscape:window-x="54"
     inkscape:window-y="-8"
     inkscape:window-maximized="1"
     inkscape:current-layer="svg2" />
  <path
     id="Selection #63"
     d="m 204.20472,282.16613 c 0,0 -0.75,11.24998 -0.75,11.24998 -0.0525,4.88249 0.21,11.36998 -2.31749,15.74997 -4.2375,7.33498 -12.32248,6.32999 -19.43247,6.81749 0,0 -8.99998,0.68249 -8.99998,0.68249 0,0 -125.99977,0 -125.99977,0 0,0 -7.499986,-0.68249 -7.499986,-0.68249 -7.109987,-0.4875 -15.194972,0.51749 -19.432464,-6.81749 -2.144996,-3.7125 -2.309996,-9.30748 -2.317496,-13.49998 0,0 -0.749999,-12.74997 -0.749999,-12.74997 0,0 0,-200.999639 0,-200.999639 0,0 0,-31.49994 0,-31.49994 0,0 0.749999,-14.999972 0.749999,-14.999972 0.06,-4.867491 0.839999,-10.612481 4.582492,-14.084975 4.672491,-4.342492 11.354979,-3.584993 17.167468,-3.982493 0,0 8.999984,-0.682498 8.999984,-0.682498 0,0 125.999772,0 125.999772,0 0,0 7.49998,0.682498 7.49998,0.682498 7.10999,0.4875 15.19497,-0.517499 19.43247,6.817488 2.52749,4.379992 2.26499,10.86748 2.31749,15.749971 0,0 0.75,11.24998 0.75,11.24998 0,0 0,33.749935 0,33.749935 7.61249,0.165 16.77747,2.339996 23.99996,4.747491 40.65742,13.552474 69.74987,52.769904 69.74987,95.752334 0,0 17.99997,0 17.99997,0 0,0 -17.99997,18.74996 -17.99997,18.74996 0,0 -18.74997,17.99997 -18.74997,17.99997 0,0 -22.49996,-22.49996 -22.49996,-22.49996 0,0 -13.49997,-14.24997 -13.49997,-14.24997 0,0 17.99997,0 17.99997,0 -0.015,-23.10747 -13.37998,-43.11743 -32.99994,-54.74241 -6.44249,-3.81749 -16.49247,-7.90499 -23.99996,-8.25749 0,0 0,159.74972 0,159.74972 z M 35.455031,35.416579 c 0,0 0,262.499521 0,262.499521 0,0 149.999729,0 149.999729,0 0,0 0,-176.24969 0,-176.24969 -31.55995,4.26 -54.8099,31.58995 -56.2499,62.9999 0,0 -36.749934,0 -36.749934,0 0.12,-39.55494 26.144954,-76.37987 62.249884,-91.814839 8.99248,-3.847493 20.93996,-7.844986 30.74995,-7.934986 0,0 0,-49.499906 0,-49.499906 0,0 -149.999729,0 -149.999729,0 z"
     inkscape:connector-curvature="0"
     style="fill:#000000;fill-opacity:1;stroke:none;stroke-width:1" />
</svg>
