<?xml version="1.0" encoding="UTF-8" standalone="no"?>
<svg
   xmlns:dc="http://purl.org/dc/elements/1.1/"
   xmlns:cc="http://creativecommons.org/ns#"
   xmlns:rdf="http://www.w3.org/1999/02/22-rdf-syntax-ns#"
   xmlns:svg="http://www.w3.org/2000/svg"
   xmlns="http://www.w3.org/2000/svg"
   xmlns:sodipodi="http://sodipodi.sourceforge.net/DTD/sodipodi-0.dtd"
   xmlns:inkscape="http://www.inkscape.org/namespaces/inkscape"
   width="100"
   height="100"
   viewBox="0 0 333.33269 333.33269"
   id="svg2"
   version="1.1"
   inkscape:version="0.91 r13725"
   sodipodi:docname="FulfillOrder.svg"
   inkscape:export-filename="C:\Users\mbrown\Desktop\Drawings\icons\forJustin\FulfillOrder.png"
   inkscape:export-xdpi="299.70001"
   inkscape:export-ydpi="299.70001">
  <metadata
     id="metadata9">
    <rdf:RDF>
      <cc:Work
         rdf:about="">
        <dc:format>image/svg+xml</dc:format>
        <dc:type
           rdf:resource="http://purl.org/dc/dcmitype/StillImage" />
        <dc:title></dc:title>
      </cc:Work>
    </rdf:RDF>
  </metadata>
  <defs
     id="defs7" />
  <sodipodi:namedview
     pagecolor="#ffffff"
     bordercolor="#666666"
     borderopacity="1"
     objecttolerance="10"
     gridtolerance="10"
     guidetolerance="10"
     inkscape:pageopacity="0"
     inkscape:pageshadow="2"
     inkscape:window-width="1218"
     inkscape:window-height="697"
     id="namedview5"
     showgrid="false"
     units="px"
     inkscape:zoom="1.5733302"
     inkscape:cx="75.000148"
     inkscape:cy="75.000148"
     inkscape:window-x="54"
     inkscape:window-y="-8"
     inkscape:window-maximized="1"
     inkscape:current-layer="svg2" />
  <path
     id="Fulfill Order"
     d="m 137.38018,20.725146 c 4.73352,-5.312225 20.20278,-3.895137 27.13984,-3.86546 4.28094,0.02226 9.34091,0.229999 12.29379,3.791267 3.47966,4.184491 2.54483,13.837013 2.54483,19.208593 5.40125,0 15.05378,-1.038703 19.19375,2.537404 2.82676,2.440953 3.01966,5.126743 3.06417,8.591561 0,0 0,33.386891 0,33.386891 0,0 -89.03171,0 -89.03171,0 0,0 0,-32.64496 0,-32.64496 0.007,-4.280942 -0.0668,-7.167053 3.73933,-10.008649 3.75417,-2.79708 13.70347,-1.862247 18.5186,-1.862247 0,-5.312225 -1.04612,-15.113134 2.5374,-19.1344 z M 254.29366,286.92256 c 0,0 0,20.77406 0,20.77406 -0.0297,2.29999 -0.0816,5.95029 -1.89934,7.61221 -1.67676,1.5358 -4.85965,1.29096 -7.00383,1.29096 0,0 -142.45074,0 -142.45074,0 0,0 -28.93531,0 -28.93531,0 -2.722886,0 -9.585748,0.4229 -11.700251,-0.86806 -2.752564,-1.68418 -2.389018,-5.25287 -2.396437,-8.03511 0,0 0,-194.38591 0,-194.38591 0,0 0,-49.709375 0,-49.709375 0.01484,-8.702848 1.988375,-8.88833 10.387034,-8.903169 0,0 30.419174,0 30.419174,0 0,0 0,14.096686 0,14.096686 0,0 -26.70952,0 -26.70952,0 0,0 0,233.708258 0,233.708258 0,0 166.19253,0 166.19253,0 0,0 0,-92.74137 0,-92.74137 0,-1.55064 -0.089,-3.75418 0.44516,-5.19352 1.19451,-3.24966 10.57994,-11.90057 13.65153,-14.09669 0,0 0,96.45103 0,96.45103 z m -9.6451,-232.224394 c 2.23321,0.0074 5.97996,-0.02968 7.78286,1.431924 2.14418,1.743538 1.85482,5.69803 1.86224,8.213176 0,0 0,40.806204 0,40.806204 0,1.55063 0.089,3.75417 -0.44516,5.19352 -1.1945,3.24965 -10.57993,11.90057 -13.65153,14.09668 0,0 0,-55.644818 0,-55.644818 0,0 -25.96758,0 -25.96758,0 0,0 0,-14.096686 0,-14.096686 0,0 30.41917,0 30.41917,0 z M 155.61684,214.21332 c 1.59516,1.59515 5.98739,6.6477 8.16125,6.6477 1.92902,0 4.62223,-3.11611 5.93544,-4.42191 0,0 14.83862,-14.83862 14.83862,-14.83862 0,0 52.6771,-52.67709 52.6771,-52.67709 0,0 13.35476,-13.35476 13.35476,-13.35476 1.35031,-1.33548 3.93965,-4.3032 5.93545,-4.3032 1.8474,0 3.95449,2.35192 5.19351,3.56127 0,0 10.85445,11.12896 10.85445,11.12896 0.66032,0.99419 1.0758,1.74354 0.76419,2.96773 -0.51935,2.09224 -8.87349,9.86768 -10.87671,11.87089 0,0 -40.06427,40.06427 -40.06427,40.06427 0,0 -43.03199,43.032 -43.03199,43.032 0,0 -10.38704,10.38703 -10.38704,10.38703 -1.23902,1.20935 -3.34611,3.56127 -5.19351,3.56127 -1.66193,0 -3.33127,-1.76579 -4.45159,-2.83417 0,0 -8.16124,-8.14641 -8.16124,-8.14641 0,0 -20.77407,-20.77406 -20.77407,-20.77406 -3.92481,-3.92482 -9.48929,-8.99963 -12.61282,-13.35476 0,0 18.54827,-17.80634 18.54827,-17.80634 0,0 19.2902,19.2902 19.2902,19.2902 z m 51.19324,-56.38675 c 0,0 -10.38703,11.12896 -10.38703,11.12896 0,0 -6.67738,5.92061 -6.67738,5.92061 0,0 -5.93545,0.75677 -5.93545,0.75677 0,0 -73.45116,0 -73.45116,0 0,0 0,93.4833 0,93.4833 0,0 93.4833,0 93.4833,0 0,0 0,-23.74179 0,-23.74179 0,0 0.75677,-5.19352 0.75677,-5.19352 0,0 5.92061,-6.67737 5.92061,-6.67737 0,0 11.12896,-10.38704 11.12896,-10.38704 0,0 0,63.80607 0,63.80607 0,0 -129.095985,0 -129.095985,0 0,0 0,-129.09599 0,-129.09599 0,0 114.257365,0 114.257365,0 z"
     inkscape:connector-curvature="0"
     style="fill:#000000;fill-opacity:1;stroke:none;stroke-width:1" />
</svg>
