<?xml version="1.0" encoding="UTF-8" standalone="no"?>
<svg
   xmlns:dc="http://purl.org/dc/elements/1.1/"
   xmlns:cc="http://creativecommons.org/ns#"
   xmlns:rdf="http://www.w3.org/1999/02/22-rdf-syntax-ns#"
   xmlns:svg="http://www.w3.org/2000/svg"
   xmlns="http://www.w3.org/2000/svg"
   xmlns:sodipodi="http://sodipodi.sourceforge.net/DTD/sodipodi-0.dtd"
   xmlns:inkscape="http://www.inkscape.org/namespaces/inkscape"
   width="100"
   height="100"
   viewBox="0 0 333.33269 333.33269"
   id="svg2"
   version="1.1"
   inkscape:version="0.91 r13725"
   sodipodi:docname="Garage2.svg">
  <metadata
     id="metadata9">
    <rdf:RDF>
      <cc:Work
         rdf:about="">
        <dc:format>image/svg+xml</dc:format>
        <dc:type
           rdf:resource="http://purl.org/dc/dcmitype/StillImage" />
        <dc:title></dc:title>
      </cc:Work>
    </rdf:RDF>
  </metadata>
  <defs
     id="defs7" />
  <sodipodi:namedview
     pagecolor="#ffffff"
     bordercolor="#666666"
     borderopacity="1"
     objecttolerance="10"
     gridtolerance="10"
     guidetolerance="10"
     inkscape:pageopacity="0"
     inkscape:pageshadow="2"
     inkscape:window-width="1218"
     inkscape:window-height="697"
     id="namedview5"
     showgrid="false"
     units="px"
     inkscape:zoom="4.4500499"
     inkscape:cx="63.097255"
     inkscape:cy="40.106333"
     inkscape:window-x="54"
     inkscape:window-y="-8"
     inkscape:window-maximized="1"
     inkscape:current-layer="svg2" />
  <path
     id="Selection #9"
     d="m 17.040695,171.82843 c 0.015,-7.97505 2.70823,-8.69325 8.22941,-14.21444 l 13.46631,-13.46631 66.583415,-66.583412 44.8877,-44.887689 11.22192,-11.221926 c 1.24938,-1.219449 3.37406,-3.591016 5.2369,-3.591016 1.86284,0 3.98752,2.371567 5.2369,3.591016 l 11.22192,11.221926 44.8877,44.887689 66.58341,66.583412 13.46631,13.46631 c 5.52118,5.52119 8.21444,6.23939 8.22941,14.21444 l 0,143.64062 -52.36898,0 0,-149.62565 -194.513345,0 0,149.62565 -52.36898,0 z m 205.735275,80.04972 c 0,-26.18449 -7.48128,-41.14706 -18.70321,-41.14706 l -74.81282,0 c -11.22193,0 -18.70321,14.96257 -18.70321,41.14706 3.74064,-3.74065 108.4786,-3.74065 112.21924,0 z m -112.21924,33.66577 c 0,3.74064 18.70321,3.74064 18.70321,0 0,-18.70321 -18.70321,-18.70321 -18.70321,0 z m 93.51603,0 c 0,3.74064 18.70321,3.74064 18.70321,0 0,-18.70321 -18.70321,-18.70321 -18.70321,0 z m -67.33154,-14.96257 0,7.48128 59.85026,0 0,-7.48128 z m 0,11.22193 0,7.48128 59.85026,0 0,-7.48128 z m 97.25667,-41.14706 c 18.70321,0 18.70321,18.70321 0,18.70321 l 0,37.40641 c 0,18.70321 0,18.70321 -14.96256,18.70321 -14.96257,0 -14.96257,0 -14.96257,-18.70321 l -74.81282,0 c 0,18.70321 0,18.70321 -14.96257,18.70321 -14.962565,0 -14.962565,0 -14.962565,-18.70321 l 0,-37.40641 c -18.70321,0 -18.70321,-18.70321 0,-18.70321 l 3.740645,-3.74064 c 0,-11.22192 7.48128,-33.66577 26.18449,-33.66577 l 74.81282,0 c 18.70321,0 26.18449,22.44385 26.18449,33.66577 z"
     inkscape:connector-curvature="0"
     style="fill:#000000;fill-opacity:1;stroke:none;stroke-width:0.74812824"
     sodipodi:nodetypes="csccccsccccscccccccccssccssssssccccccccccccssccsscccsscc" />
</svg>
