<?xml version="1.0" encoding="UTF-8" standalone="no"?>
<svg
   xmlns:dc="http://purl.org/dc/elements/1.1/"
   xmlns:cc="http://creativecommons.org/ns#"
   xmlns:rdf="http://www.w3.org/1999/02/22-rdf-syntax-ns#"
   xmlns:svg="http://www.w3.org/2000/svg"
   xmlns="http://www.w3.org/2000/svg"
   xmlns:sodipodi="http://sodipodi.sourceforge.net/DTD/sodipodi-0.dtd"
   xmlns:inkscape="http://www.inkscape.org/namespaces/inkscape"
   width="100"
   height="100"
   viewBox="0 0 333.33269 333.33269"
   id="svg2"
   version="1.1"
   inkscape:version="0.91 r13725"
   sodipodi:docname="Genes.svg">
  <metadata
     id="metadata9">
    <rdf:RDF>
      <cc:Work
         rdf:about="">
        <dc:format>image/svg+xml</dc:format>
        <dc:type
           rdf:resource="http://purl.org/dc/dcmitype/StillImage" />
        <dc:title></dc:title>
      </cc:Work>
    </rdf:RDF>
  </metadata>
  <defs
     id="defs7" />
  <sodipodi:namedview
     pagecolor="#ffffff"
     bordercolor="#666666"
     borderopacity="1"
     objecttolerance="10"
     gridtolerance="10"
     guidetolerance="10"
     inkscape:pageopacity="0"
     inkscape:pageshadow="2"
     inkscape:window-width="1218"
     inkscape:window-height="697"
     id="namedview5"
     showgrid="false"
     units="px"
     inkscape:zoom="1.5733302"
     inkscape:cx="75.000148"
     inkscape:cy="75.000148"
     inkscape:window-x="54"
     inkscape:window-y="-8"
     inkscape:window-maximized="1"
     inkscape:current-layer="svg2" />
  <path
     id="Unnamed #12"
     d="m 207.4315,268.01203 c -1.16305,-2.88911 25.98721,-10.42303 30.03196,-8.69697 1.73347,-4.04476 26.56503,-17.3569 27.72067,-14.46779 1.15565,2.88911 -18.76442,15.90494 -18.76442,15.90494 0,0 23.39441,-4.35589 24.55746,-1.46678 1.15565,2.88911 -25.9872,10.42303 -30.03936,8.69697 -1.72606,4.04476 -26.55762,17.3569 -27.71326,14.46779 -1.16306,-2.88911 18.75701,-15.90494 18.75701,-15.90494 0,0 -23.39441,4.35589 -24.55006,1.46678 z m 21.23869,-44.61087 c 0.29632,-3.09653 27.88364,2.61502 30.69127,6.00788 3.38545,-2.80763 31.558,-3.28915 31.26909,-0.19261 -0.29632,3.09654 -23.96482,5.56339 -23.96482,5.56339 0,0 22.80177,6.83016 22.51286,9.9267 -0.29632,3.09654 -27.88365,-2.61502 -30.69127,-6.00787 -3.38545,2.80762 -31.55801,3.28914 -31.2691,0.1926 0.28892,-3.09653 23.96483,-5.56339 23.96483,-5.56339 0,0 -22.80177,-6.82275 -22.51286,-9.9267 z m 22.79436,-18.9348 c 1.75569,2.57057 -23.13513,15.779 -27.45398,14.96413 -0.81488,4.32626 -22.19432,22.67583 -23.95001,20.10526 -1.75569,-2.57057 14.89005,-19.5793 14.89005,-19.5793 0,0 -21.90541,9.29702 -23.65369,6.72645 -1.75569,-2.57057 23.12772,-15.779 27.45398,-14.96412 0.81488,-4.31886 22.19432,-22.67584 23.95001,-20.10527 1.74828,2.57057 -14.89745,19.5793 -14.89745,19.5793 0,0 21.9054,-9.29702 23.66109,-6.72645 z M 235.38182,182.6943 c -19.09037,3.28915 -34.92123,12.97138 -43.47004,30.95796 -12.14168,25.54272 -3.82252,55.47838 19.7645,71.11663 7.97099,5.28189 18.54218,8.77105 28.15033,8.88958 9.53407,0.11112 17.97917,-1.2964 26.66874,-5.42265 5.86712,-2.7854 13.01582,-8.18582 17.22355,-13.10472 25.10565,-29.40228 15.16414,-75.02804 -21.66834,-89.02913 -5.62266,-2.13349 -12.50468,-3.5336 -18.51996,-3.40767 z M 245.0122,20.303938 c 45.92949,18.268081 47.41108,60.500981 33.58038,92.844232 -13.82329,32.35066 23.70554,58.77493 27.66141,78.52461 3.94845,19.75708 14.77151,91.63673 4.44478,101.98569 -12.20094,12.21576 -44.26269,8.25249 -59.76019,16.05309 C 226.09221,322.21624 189.6968,306.08165 162.0428,305.7557 149.94556,305.61495 85.496116,330.69838 59.812646,305.26677 34.129176,279.82776 58.827376,219.57864 38.329496,196.6139 17.831616,173.64916 9.9347017,93.887415 29.684386,55.862243 49.441466,17.83708 102.82339,20.59285 132.90721,40.061023 162.98361,59.521786 199.08271,2.0358548 245.0122,20.303938 Z"
     inkscape:connector-curvature="0"
     style="fill:#000000;fill-opacity:1;stroke:none;stroke-width:1"
     sodipodi:nodetypes="ccsccccccccccccsccscscccccscccccccccsccccccsccs" />
</svg>
