<?xml version="1.0" encoding="UTF-8" standalone="no"?>
<svg
   xmlns:dc="http://purl.org/dc/elements/1.1/"
   xmlns:cc="http://creativecommons.org/ns#"
   xmlns:rdf="http://www.w3.org/1999/02/22-rdf-syntax-ns#"
   xmlns:svg="http://www.w3.org/2000/svg"
   xmlns="http://www.w3.org/2000/svg"
   xmlns:sodipodi="http://sodipodi.sourceforge.net/DTD/sodipodi-0.dtd"
   xmlns:inkscape="http://www.inkscape.org/namespaces/inkscape"
   width="100"
   height="100"
   viewBox="0 0 333.33266 333.33266"
   id="svg2"
   version="1.1"
   inkscape:version="0.91 r13725"
   sodipodi:docname="grass.svg">
  <metadata
     id="metadata9">
    <rdf:RDF>
      <cc:Work
         rdf:about="">
        <dc:format>image/svg+xml</dc:format>
        <dc:type
           rdf:resource="http://purl.org/dc/dcmitype/StillImage" />
        <dc:title></dc:title>
      </cc:Work>
    </rdf:RDF>
  </metadata>
  <defs
     id="defs7" />
  <sodipodi:namedview
     pagecolor="#ffffff"
     bordercolor="#666666"
     borderopacity="1"
     objecttolerance="10"
     gridtolerance="10"
     guidetolerance="10"
     inkscape:pageopacity="0"
     inkscape:pageshadow="2"
     inkscape:window-width="1218"
     inkscape:window-height="697"
     id="namedview5"
     showgrid="false"
     units="px"
     inkscape:zoom="1.5733302"
     inkscape:cx="75.000148"
     inkscape:cy="75.000148"
     inkscape:window-x="54"
     inkscape:window-y="-8"
     inkscape:window-maximized="1"
     inkscape:current-layer="svg2" />
  <path
     id="Selection #33"
     d="m 234.66619,16.666633 c 0,0 0,32.799937 0,32.799937 0,0 16.79997,-16.799965 16.79997,-16.799965 1.55199,-1.551997 6.38398,-6.631987 7.99998,-7.407985 3.39199,-1.615997 11.03998,5.975988 11.03998,9.007982 0,2.367995 -4.56799,6.327987 -6.23999,7.999984 0,0 -18.39996,18.399961 -18.39996,18.399961 0,0 60.79988,0 60.79988,0 0,0 0,15.999968 0,15.999968 0,0 -159.99968,0 -159.99968,0 0,0 0,-15.999968 0,-15.999968 0,0 60.79988,0 60.79988,0 0,0 -16.79997,-16.799965 -16.79997,-16.799965 -1.552,-1.551997 -6.63199,-6.383987 -7.40798,-7.999984 -1.616,-3.391993 5.97598,-11.039977 9.00798,-11.039977 2.36799,0 6.32799,4.567991 7.99998,6.239987 0,0 18.39996,18.399962 18.39996,18.399962 0,0 0,-32.799937 0,-32.799937 0,0 15.99997,0 15.99997,0 z M 114.66644,96.666474 c 0,0 0,32.799936 0,32.799936 0,0 16.79996,-16.79997 16.79996,-16.79997 1.552,-1.55199 6.38399,-6.63198 7.99999,-7.40798 3.39199,-1.616 11.03997,5.97598 11.03997,9.00798 0,2.36799 -4.56799,6.32798 -6.23998,7.99998 0,0 -18.39997,18.39996 -18.39997,18.39996 0,0 60.79988,0 60.79988,0 0,0 0,15.99997 0,15.99997 0,0 -159.999677,0 -159.999677,0 0,0 0,-15.99997 0,-15.99997 0,0 60.799877,0 60.799877,0 0,0 -16.799966,-16.79996 -16.799966,-16.79996 -1.551997,-1.552 -6.631987,-6.38399 -7.407985,-7.99999 -1.615997,-3.39199 5.975988,-11.03997 9.007982,-11.03997 2.367995,0 6.327987,4.56799 7.999983,6.23999 0,0 18.399963,18.39996 18.399963,18.39996 0,0 0,-32.799936 0,-32.799936 0,0 15.999973,0 15.999973,0 z m 119.99975,79.999836 c 0,0 0,32.79993 0,32.79993 0,0 16.79997,-16.79996 16.79997,-16.79996 1.55199,-1.552 6.38398,-6.63199 7.99998,-7.40799 3.39199,-1.61599 11.03998,5.97599 11.03998,9.00798 0,2.368 -4.56799,6.32799 -6.23999,7.99999 0,0 -18.39996,18.39996 -18.39996,18.39996 0,0 60.79988,0 60.79988,0 0,0 0,15.99997 0,15.99997 0,0 -159.99968,0 -159.99968,0 0,0 0,-15.99997 0,-15.99997 0,0 60.79988,0 60.79988,0 0,0 -16.79997,-16.79997 -16.79997,-16.79997 -1.552,-1.55199 -6.63199,-6.38398 -7.40798,-7.99998 -1.616,-3.39199 5.97598,-11.03998 9.00798,-11.03998 2.36799,0 6.32799,4.56799 7.99998,6.23999 0,0 18.39996,18.39996 18.39996,18.39996 0,0 0,-32.79993 0,-32.79993 0,0 15.99997,0 15.99997,0 z m -119.99975,79.99984 c 0,0 0,32.79993 0,32.79993 0,0 16.79996,-16.79997 16.79996,-16.79997 1.552,-1.55199 6.38399,-6.63198 7.99999,-7.40798 3.39199,-1.616 11.03997,5.97599 11.03997,9.00798 0,2.368 -4.56799,6.32799 -6.23998,7.99999 0,0 -18.39997,18.39996 -18.39997,18.39996 0,0 60.79988,0 60.79988,0 0,0 0,15.99997 0,15.99997 0,0 -159.999677,0 -159.999677,0 0,0 0,-15.99997 0,-15.99997 0,0 60.799877,0 60.799877,0 0,0 -18.399963,-18.39996 -18.399963,-18.39996 -1.671996,-1.672 -6.239987,-5.63199 -6.239987,-7.99999 0,-3.03199 7.647984,-10.62398 11.039977,-9.00798 1.615997,0.776 6.447987,5.85599 7.999984,7.40798 0,0 16.799966,16.79997 16.799966,16.79997 0,0 0,-32.79993 0,-32.79993 0,0 15.999973,0 15.999973,0 z"
     inkscape:connector-curvature="0"
     style="fill:#000000;fill-opacity:1;stroke:none;stroke-width:1" />
</svg>
