<?xml version="1.0" encoding="UTF-8" standalone="no"?>
<svg
   xmlns:dc="http://purl.org/dc/elements/1.1/"
   xmlns:cc="http://creativecommons.org/ns#"
   xmlns:rdf="http://www.w3.org/1999/02/22-rdf-syntax-ns#"
   xmlns:svg="http://www.w3.org/2000/svg"
   xmlns="http://www.w3.org/2000/svg"
   xmlns:sodipodi="http://sodipodi.sourceforge.net/DTD/sodipodi-0.dtd"
   xmlns:inkscape="http://www.inkscape.org/namespaces/inkscape"
   width="100"
   height="100"
   viewBox="0 0 333.33269 333.33269"
   id="svg2"
   version="1.1"
   inkscape:version="0.91 r13725"
   sodipodi:docname="hammers.svg">
  <metadata
     id="metadata9">
    <rdf:RDF>
      <cc:Work
         rdf:about="">
        <dc:format>image/svg+xml</dc:format>
        <dc:type
           rdf:resource="http://purl.org/dc/dcmitype/StillImage" />
        <dc:title></dc:title>
      </cc:Work>
    </rdf:RDF>
  </metadata>
  <defs
     id="defs7" />
  <sodipodi:namedview
     pagecolor="#ffffff"
     bordercolor="#666666"
     borderopacity="1"
     objecttolerance="10"
     gridtolerance="10"
     guidetolerance="10"
     inkscape:pageopacity="0"
     inkscape:pageshadow="2"
     inkscape:window-width="1218"
     inkscape:window-height="697"
     id="namedview5"
     showgrid="false"
     units="px"
     inkscape:zoom="1.5733302"
     inkscape:cx="75.000148"
     inkscape:cy="75.000148"
     inkscape:window-x="54"
     inkscape:window-y="-8"
     inkscape:window-maximized="1"
     inkscape:current-layer="svg2" />
  <path
     id="Unnamed #39"
     d="m 277.58222,215.08484 c 9.03118,20.06632 17.7484,43.94016 25.37013,62.08268 5.16354,12.29095 11.17542,22.80506 13.49333,27.40081 0.9619,1.90376 -0.49431,7.21426 -19.47849,11.02178 -18.98418,3.80085 -22.26399,-3.9144 -22.26399,-3.9144 0,0 5.64448,-11.60293 2.92578,-19.05766 -7.74865,-21.28205 -26.49903,-63.28506 -43.77985,-110.56515 -2.85898,-7.83548 -4.74938,-15.77117 -7.6952,-23.51313 -9.36518,-24.62199 -19.74569,-47.51389 -26.03812,-60.920383 -3.67393,-7.822123 -7.76869,-12.137317 -7.76869,-12.137317 0,0 -7.88224,-5.470811 -14.05444,-3.186296 -5.35057,1.98392 -9.10466,11.756565 -9.10466,11.756565 0,0 -10.92158,5.738005 -10.92158,5.738005 0,0 -6.13211,-3.446811 -9.51881,-9.244935 -3.6138,-6.185557 -4.49555,-14.749146 -4.49555,-14.749146 0,0 11.42257,-6.071998 11.42257,-6.071998 0,0 8.56359,2.444831 14.28824,-1.242455 6.17888,-3.981199 9.54553,-14.107877 9.54553,-14.107877 0,0 23.44633,-12.090559 42.19672,-8.182836 7.35453,1.529689 20.08635,7.434691 29.43149,12.718466 7.43469,4.201636 12.51807,8.149435 12.51807,8.149435 0,0 -25.2499,-8.550227 -39.85209,-9.485409 -7.929,-0.50767 -9.53217,6.325834 -9.53217,6.325834 0,0 4.06804,8.249633 6.16552,15.083137 1.67665,5.48417 1.47625,9.852803 1.47625,9.852803 0,0 33.65317,82.048797 33.65317,82.048797 0,0 10.54083,18.69027 22.01684,44.20068 z M 149.99677,186.36141 c 9.03118,20.06632 17.7484,43.94017 25.37013,62.08268 5.16354,12.29096 11.17542,22.80507 13.49333,27.40082 0.9619,1.90376 -0.49431,7.21425 -19.47849,11.02178 -18.98418,3.80084 -22.26399,-3.91441 -22.26399,-3.91441 0,0 5.64448,-11.60292 2.92578,-19.05766 C 142.29488,242.61257 123.5445,200.60957 106.26368,153.32947 103.4047,145.49399 101.5143,137.55831 98.568477,129.81634 89.203304,105.19436 78.822791,82.302453 72.530357,68.895961 68.856431,61.073839 64.761672,56.758646 64.761672,56.758646 c 0,0 -7.882242,-5.470811 -14.054439,-3.186297 -5.350573,1.983921 -9.104658,11.756566 -9.104658,11.756566 0,0 -10.921582,5.738003 -10.921582,5.738003 0,0 -6.132117,-3.446811 -9.518809,-9.244934 -3.613808,-6.185556 -4.495551,-14.749145 -4.495551,-14.749145 0,0 11.422572,-6.071999 11.422572,-6.071999 0,0 8.563589,2.444831 14.288235,-1.242455 6.178876,-3.981201 9.545529,-14.107878 9.545529,-14.107878 0,0 23.446331,-12.090559 42.196717,-8.182837 7.354534,1.52969 20.086354,7.434692 29.431494,12.718466 7.43469,4.201636 12.51807,8.149437 12.51807,8.149437 0,0 -25.2499,-8.550229 -39.852086,-9.48541 -7.929002,-0.50767 -9.53217,6.325833 -9.53217,6.325833 0,0 4.068039,8.249636 6.165517,15.083139 1.676647,5.484171 1.476251,9.852804 1.476251,9.852804 0,0 33.653168,82.048801 33.653168,82.048801 0,0 10.54083,18.69026 22.01684,44.20067 z"
     inkscape:connector-curvature="0"
     style="fill:#000000;fill-opacity:1;stroke:none;stroke-width:1" />
</svg>
