<?xml version="1.0" encoding="UTF-8" standalone="no"?>
<svg
   xmlns:dc="http://purl.org/dc/elements/1.1/"
   xmlns:cc="http://creativecommons.org/ns#"
   xmlns:rdf="http://www.w3.org/1999/02/22-rdf-syntax-ns#"
   xmlns:svg="http://www.w3.org/2000/svg"
   xmlns="http://www.w3.org/2000/svg"
   xmlns:sodipodi="http://sodipodi.sourceforge.net/DTD/sodipodi-0.dtd"
   xmlns:inkscape="http://www.inkscape.org/namespaces/inkscape"
   width="100"
   height="100"
   viewBox="0 0 333.33269 333.33269"
   id="svg2"
   version="1.1"
   inkscape:version="0.91 r13725"
   sodipodi:docname="handcuffs.svg">
  <metadata
     id="metadata9">
    <rdf:RDF>
      <cc:Work
         rdf:about="">
        <dc:format>image/svg+xml</dc:format>
        <dc:type
           rdf:resource="http://purl.org/dc/dcmitype/StillImage" />
        <dc:title></dc:title>
      </cc:Work>
    </rdf:RDF>
  </metadata>
  <defs
     id="defs7" />
  <sodipodi:namedview
     pagecolor="#ffffff"
     bordercolor="#666666"
     borderopacity="1"
     objecttolerance="10"
     gridtolerance="10"
     guidetolerance="10"
     inkscape:pageopacity="0"
     inkscape:pageshadow="2"
     inkscape:window-width="1218"
     inkscape:window-height="697"
     id="namedview5"
     showgrid="false"
     units="px"
     inkscape:zoom="4.4500499"
     inkscape:cx="81.63411"
     inkscape:cy="67.442812"
     inkscape:window-x="54"
     inkscape:window-y="-8"
     inkscape:window-maximized="1"
     inkscape:current-layer="svg2" />
  <path
     id="Handcuffs"
     d="m 96.899403,95.155229 c -24.41843,0 -41.860165,17.267321 -41.860165,41.685741 0,24.41843 17.441735,41.86018 41.860165,41.86018 24.418437,0 41.860167,-17.44175 41.860167,-41.86018 0,-24.41842 -17.44173,-41.685741 -41.860167,-41.685741 z M 236.43329,185.85226 c -24.41843,0 -41.86016,17.44173 -41.86016,41.86016 0,24.41843 17.44173,41.86017 41.86016,41.86017 24.41843,0 41.86017,-17.44174 41.86017,-41.86017 0,-24.41843 -17.44174,-41.86016 -41.86017,-41.86016 z m -9.79528,100.55509 c -0.91394,0 -1.89068,0.96976 -1.89068,1.89069 0,0.81627 0.84418,1.59766 1.7651,1.59766 0.82325,0 1.72325,-0.78139 1.72325,-1.59766 0,-0.92093 -0.77442,-1.89069 -1.59767,-1.89069 z M 62.015931,185.22436 c 0,-0.83721 -0.697669,-1.63953 -1.681383,-1.63953 -0.976737,0 -1.806964,0.87209 -1.806964,1.74418 0,0.87208 0.80232,1.74417 1.639523,1.74417 0.906971,0 1.848824,-0.94185 1.848824,-1.84882 z M 41.085849,137.01539 c 0,-34.88347 27.906777,-55.813551 55.813554,-55.813551 17.441737,0 23.720767,4.883686 23.720767,4.883686 l 5.58135,-8.372033 c 0,0 -11.86038,-6.976694 -29.302117,-6.976694 -41.860165,3.488347 -66.278596,27.906778 -66.278596,66.278592 0,38.37183 29.999786,55.63915 29.999786,55.63915 l 5.581355,-9.06971 c 0,0 -25.116099,-15.17431 -25.116099,-46.56944 z m 32.092793,50.7136 -5.274381,8.85342 c 0,0 15.041753,6.53717 28.995142,6.53717 41.860167,-3.48835 66.278597,-31.39513 66.278597,-66.27861 0,-20.93008 -8.41389,-32.05093 -8.41389,-32.05093 l 0.73953,-6.146464 c 0,0 22.98123,-23.413787 23.02309,-23.413787 0.0419,0 -19.84172,-19.841718 -19.84172,-19.841718 l -24.50215,24.069595 c 0,0 -7.36739,10.681319 -7.32553,10.681319 0.0419,0 25.85563,11.818525 25.85563,46.701985 0,31.39513 -24.41843,55.81357 -55.813557,55.81357 -13.953389,0 -23.720761,-4.92555 -23.720761,-4.92555 z m 149.301258,-29.78352 -3.48834,6.9767 c -6.9767,1.56975 -48.83686,13.95339 -48.83686,62.79025 0,46.83455 41.86016,61.39491 41.86016,61.39491 l 3.48835,-9.0697 c 0,0 -34.88347,-13.95339 -34.88347,-52.32521 0,-31.39512 24.41843,-55.81355 55.81355,-55.81355 6.9767,0 13.95339,1.48604 13.95339,1.48604 l 0,-46.83456 -27.90678,0 z m 0.76046,124.05959 -3.1116,10.24179 c 0,0 9.32784,1.74417 16.30453,1.74417 38.37182,0 66.2786,-31.39512 66.2786,-66.2786 0,-45.34851 -38.37182,-60.63445 -45.34852,-62.79025 l 0,10.46505 c 17.44174,10.46504 34.88348,24.41843 34.88348,52.3252 0,31.39513 -24.41843,55.81356 -55.81356,55.81356 -6.97669,0 -13.19293,-1.52092 -13.19293,-1.52092 z m 9.70458,-134.52463 0,10.46504 c 0,5.40694 6.9767,5.1488 6.9767,0 l 0,-10.46504 c 0,0 3.48835,-3.48834 3.48835,-6.97669 0,-3.48835 -3.48835,-6.9767 -6.9767,-6.9767 -3.48835,0 -6.97669,3.48835 -6.97669,6.9767 0,3.48835 3.48834,6.97669 3.48834,6.97669 z M 151.84087,76.234433 c 0,0 -6.586,6.453442 -9.59295,9.24412 -3.00696,2.790678 0.0419,10.06737 5.53949,5.183684 l 9.15343,-9.111563 c 0,0 0.78836,0.439532 1.66045,0.439532 4.57671,0 7.32553,-4.667409 7.32553,-7.374366 0,-2.699981 -3.09765,-7.367389 -7.28367,-7.367389 -4.09532,0 -7.32553,4.576711 -7.36739,7.416226 0.13256,0.78139 0.56511,1.569756 0.56511,1.569756 z M 208.55444,53.29502 c 0.0558,0 0.13954,0.007 0.13954,0.007 l -0.14651,-0.14651 c -2.46975,-2.462773 0,-4.932523 0,-4.932523 0,0 2.46277,-2.462773 4.93252,0 0.62092,0.620926 2.49068,2.49068 4.98136,4.988336 0.0209,0.01395 0.0628,0.05581 0.0837,0.07674 0.0139,0.02095 0.13255,0.007 0.19535,0.007 l 3.7395,0 0,-17.441734 -24.41843,0 0,3.788345 c 0,0 0.85116,-0.160464 1.42325,1.01162 0.20232,0.355812 0.43255,0.767437 0.66976,1.193015 0.96976,1.751151 1.1372,4.283691 -0.57209,5.197638 -0.82325,0.439531 -1.52092,0.816273 -1.52092,0.816273 l 0,5.434843 10.49295,0 z m 22.46497,22.499888 -6.70461,0 0,17.441737 6.80228,0 c 0,-3.488348 3.48835,-3.488348 3.48835,-3.488348 l 3.39765,0 c 3.48835,0 3.48835,3.488348 3.48835,3.488348 l 7.2418,0 0,-17.441737 c 0,0 -7.73712,-0.02093 -7.71622,0.01395 0.0418,0.04884 0.0418,0.06279 0.0767,0.111627 1.6186,2.267425 -0.48139,4.36741 -0.48139,4.36741 0,0 -2.46975,2.46975 -4.93252,0 0,0 -1.78603,-1.779057 -4.43718,-4.4302 -0.0279,-0.02791 -0.0279,-0.02093 -0.0558,-0.04884 -0.0209,-0.02095 -0.13251,-0.01395 -0.16741,-0.01395 z m -1.93955,-11.972014 1.36743,1.367432 c 0.0419,0.04884 0.10465,0.139534 0.16744,0.139534 l 0.2093,0 24.91378,0 c 3.46044,0 3.46044,3.488347 3.46044,3.488347 l 0,31.395123 c 0,0 0,3.48835 -3.46044,3.48835 l -14.24641,0 0.26511,8.89528 19.09521,0 c 0,0 3.48835,0 3.48835,3.48835 l 0,34.88347 c 24.41843,6.97669 52.32521,31.39513 52.32521,76.74364 0,45.34852 -34.88348,80.23199 -80.23199,80.23199 -45.34851,0 -80.23198,-34.88347 -80.23198,-80.23199 0,-45.34851 31.39512,-72.29251 52.3252,-75.78086 l 0,-35.84625 c 0,0 0,-3.48835 3.48835,-3.48835 l 19.27661,0 -0.17442,-8.89528 -13.77199,0 c -3.49533,0 -3.49533,-3.48835 -3.49533,-3.48835 l 0,-31.395123 c 0,0 0,-3.488347 3.49533,-3.488347 l 3.34183,0 c 0.0628,0 0.0698,0.03488 0.0349,0 -0.014,-0.02093 -0.13954,-0.132557 -0.1814,-0.174418 l -1.29766,-1.297665 c -0.0279,-0.02791 -0.0768,-0.09767 -0.0977,-0.09767 l -0.12558,0 -27.9277,0 c -3.49533,0 -3.49533,-3.488348 -3.49533,-3.488348 l 0,-6.976693 -8.72087,5.23252 8.72087,8.720868 c 0,0 8.98598,5.93019 3.48835,10.465041 l -24.41843,24.418425 c 6.16042,12.17433 10.46504,20.75567 10.46504,34.70905 0,45.34852 -34.88347,80.232 -80.231987,80.232 -45.348513,0 -80.231984,-34.70906 -80.231984,-80.05758 0,-45.348506 34.883471,-80.231977 80.231984,-80.231977 20.930087,0 34.883477,6.976694 34.883477,6.976694 l 22.49984,-22.40914 c 0,0 3.44648,-4.234854 8.89528,1.479059 5.4488,5.713913 9.41854,9.418537 9.41854,9.418537 l 14.99989,-8.023198 0,-15.348728 c 0,0 0,-3.488348 3.49533,-3.488348 l 38.39274,0 c 3.46044,0 3.46044,3.488348 3.46044,3.488348 l 0,31.395122 c 0,0 0,3.488348 -3.46044,3.488348 l -0.45348,0 c -0.0279,0 0.0279,0.04884 0.0488,0.06279 z"
     inkscape:connector-curvature="0"
     style="fill:#000000;fill-opacity:1;stroke:none;stroke-width:1"
     sodipodi:nodetypes="sssssssssssssssssssssscccsccscccsccsccssscccsccssccccccssccssccsscsssccsccssscccccccccscccccccccccsccccscccccccccsccscsccscccscsssccsccsccsscscscsccccccssssccscccssccsscc" />
</svg>
