<?xml version="1.0" encoding="UTF-8" standalone="no"?>
<svg
   xmlns:dc="http://purl.org/dc/elements/1.1/"
   xmlns:cc="http://creativecommons.org/ns#"
   xmlns:rdf="http://www.w3.org/1999/02/22-rdf-syntax-ns#"
   xmlns:svg="http://www.w3.org/2000/svg"
   xmlns="http://www.w3.org/2000/svg"
   xmlns:sodipodi="http://sodipodi.sourceforge.net/DTD/sodipodi-0.dtd"
   xmlns:inkscape="http://www.inkscape.org/namespaces/inkscape"
   width="100"
   height="100"
   viewBox="0 0 333.33269 333.33269"
   id="svg2"
   version="1.1"
   inkscape:version="0.91 r13725"
   sodipodi:docname="healAura.svg">
  <metadata
     id="metadata9">
    <rdf:RDF>
      <cc:Work
         rdf:about="">
        <dc:format>image/svg+xml</dc:format>
        <dc:type
           rdf:resource="http://purl.org/dc/dcmitype/StillImage" />
        <dc:title></dc:title>
      </cc:Work>
    </rdf:RDF>
  </metadata>
  <defs
     id="defs7" />
  <sodipodi:namedview
     pagecolor="#ffffff"
     bordercolor="#666666"
     borderopacity="1"
     objecttolerance="10"
     gridtolerance="10"
     guidetolerance="10"
     inkscape:pageopacity="0"
     inkscape:pageshadow="2"
     inkscape:window-width="1218"
     inkscape:window-height="697"
     id="namedview5"
     showgrid="false"
     units="px"
     inkscape:zoom="1.5733302"
     inkscape:cx="75.000148"
     inkscape:cy="75.000148"
     inkscape:window-x="54"
     inkscape:window-y="-8"
     inkscape:window-maximized="1"
     inkscape:current-layer="svg2" />
  <path
     id="Selection #38"
     d="m 193.72896,18.764535 c 0,0 -3.4965,20.279681 -3.4965,20.279681 -6.29369,-1.58741 -12.41955,-2.097898 -18.88108,-2.097898 0,0 0,-20.279681 0,-20.279681 7.58041,0 14.96501,0.272726 22.37758,2.097898 z m -49.65025,-0.797202 c 0,0 5.77621,0 5.77621,0 0,0 1.51049,5.692297 1.51049,5.692297 0,0 1.80419,13.985987 1.80419,13.985987 0,0 -18.88108,2.797198 -18.88108,2.797198 0,0 -5.5944,-19.580382 -5.5944,-19.580382 0,0 15.38459,-2.8951 15.38459,-2.8951 z m 91.60821,14.783188 c 0,0 -8.39159,18.181784 -8.39159,18.181784 0,0 -12.58739,-4.895095 -12.58739,-4.895095 0,0 -4.34964,-2.986008 -4.34964,-2.986008 0,0 1.08391,-5.405585 1.08391,-5.405585 0,0 3.96503,-12.587388 3.96503,-12.587388 6.54544,0.594404 14.19578,5.06992 20.27968,7.692292 z M 107.71514,28.554725 c 0,0 7.69229,18.881084 7.69229,18.881084 0,0 -17.482479,7.692293 -17.482479,7.692293 0,0 -9.790191,-17.482485 -9.790191,-17.482485 5.874115,-2.622373 13.51746,-7.951034 19.58038,-9.090892 z M 263.65889,51.45678 c 1.81119,1.51748 6.92307,5.727261 7.45454,7.867117 0.61538,2.447546 -3.0979,5.426561 -4.65734,6.992992 -1.48251,1.489507 -5.92306,6.314673 -7.69229,6.755231 -1.46853,0.370629 -2.41958,-0.419579 -3.4965,-1.272725 -1.93706,-1.531465 -10.30767,-8.321662 -10.36361,-10.384593 -0.035,-1.510486 1.7902,-3.664328 2.65034,-4.888102 0,0 7.71327,-11.188789 7.71327,-11.188789 3.46853,1.993003 5.35664,3.580412 8.39159,6.118869 z M 63.659283,56.540686 c 0,0 4.895096,-3.272721 4.895096,-3.272721 0,0 4.776214,3.265728 4.776214,3.265728 0,0 9.209772,11.181794 9.209772,11.181794 0,0 -9.090891,8.391592 -9.090891,8.391592 0,0 -4.895095,3.356637 -4.895095,3.356637 0,0 -4.895096,-3.244749 -4.895096,-3.244749 0,0 -10.48949,-8.50348 -10.48949,-8.50348 0,0 10.48949,-11.174801 10.48949,-11.174801 z M 192.33036,70.512685 c 0,0 0,69.929935 0,69.929935 0,0 69.92994,0 69.92994,0 0,0 0,51.74816 0,51.74816 0,0 -69.92994,0 -69.92994,0 0,0 0,69.92993 0,69.92993 0,0 -51.74815,0 -51.74815,0 0,0 0,-69.92993 0,-69.92993 0,0 -69.929933,0 -69.929933,0 0,0 0,-51.74816 0,-51.74816 0,0 69.929933,0 69.929933,0 0,0 0,-69.929935 0,-69.929935 0,0 51.74815,0 51.74815,0 z m 95.80401,6.992993 c 3.2937,5.265724 9.35663,12.923052 10.48949,18.881082 0,0 -17.48248,9.09089 -17.48248,9.09089 0,0 -9.79019,-16.783182 -9.79019,-16.783182 0,0 16.78318,-11.18879 16.78318,-11.18879 z M 51.771194,93.02313 c 1.468529,0.930069 3.930063,2.1958 4.132859,4.125867 0.153846,1.559437 -1.657339,4.167823 -2.433561,5.531463 0,0 -5.195794,10.48949 -5.195794,10.48949 0,0 -18.881083,-8.3916 -18.881083,-8.3916 0,0 9.790191,-18.88108 9.790191,-18.88108 4.412579,1.083914 8.699284,4.678313 12.587388,7.12586 z M 157.36539,87.295869 c 0,0 0,69.929931 0,69.929931 0,0 -69.929929,0 -69.929929,0 0,0 0,18.18178 0,18.18178 0,0 69.929929,0 69.929929,0 0,0 0,69.92995 0,69.92995 0,0 18.18179,0 18.18179,0 0,0 0,-69.92995 0,-69.92995 0,0 69.92993,0 69.92993,0 0,0 0,-18.18178 0,-18.18178 0,0 -69.92993,0 -69.92993,0 0,0 0,-69.929931 0,-69.929931 0,0 -18.18179,0 -18.18179,0 z m 145.45427,31.468471 c 0,0 5.23775,-0.62238 5.23775,-0.62238 0,0 2.45454,5.51747 2.45454,5.51747 0,0 3.4965,14.68529 3.4965,14.68529 0,0 -20.27968,3.4965 -20.27968,3.4965 0,0 -4.8951,-18.18179 -4.8951,-18.18179 0,0 13.98599,-4.89509 13.98599,-4.89509 z M 41.281704,132.05102 c 0,0 -3.496497,18.18179 -3.496497,18.18179 0,0 -20.279681,-2.0979 -20.279681,-2.0979 0.272727,-5.87411 2.531464,-15.93004 4.195797,-21.67828 0,0 19.580381,5.59439 19.580381,5.59439 z M 307.71475,161.4216 c 0,0 8.3916,-0.6993 8.3916,-0.6993 0.8951,4.97901 0.21678,17.27969 -0.6993,22.37758 0,0 -20.27968,-2.79719 -20.27968,-2.79719 0,0 0.69929,-18.18179 0.69929,-18.18179 0,0 11.88809,-0.6993 11.88809,-0.6993 z m -270.628842,9.09089 c 0,0 1.398599,18.88109 1.398599,18.88109 0,0 -13.985987,2.75524 -13.985987,2.75524 0,0 -5.076913,0 -5.076913,0 0,0 -1.720277,-5.55244 -1.720277,-5.55244 0,0 -0.895103,-15.38459 -0.895103,-15.38459 0,0 20.279681,-0.6993 20.279681,-0.6993 z m 274.125342,34.96497 c -1.01398,5.04195 -2.77622,9.8881 -4.60139,14.68529 -0.61538,1.62937 -1.34265,4.53146 -3.24475,5.02796 -1.46153,0.38462 -4.06293,-0.95105 -5.44055,-1.53146 0,0 -12.58739,-5.5944 -12.58739,-5.5944 0,0 6.2937,-18.18178 6.2937,-18.18178 0,0 19.58038,5.59439 19.58038,5.59439 z m -267.132348,3.4965 c 0,0 6.992993,17.48248 6.992993,17.48248 0,0 -18.181783,9.09089 -18.181783,9.09089 0,0 -8.391592,-20.27968 -8.391592,-20.27968 0,0 19.580382,-6.29369 19.580382,-6.29369 z m 248.950568,37.06286 c -1.54545,5.25874 -8.8811,14.95802 -13.28669,18.18179 0,0 -14.68529,-12.58739 -14.68529,-12.58739 0,0 10.48949,-15.38459 10.48949,-15.38459 0,0 17.48249,9.79019 17.48249,9.79019 z M 62.260684,243.23963 c 0,0 6.594393,8.39159 6.594393,8.39159 0.951047,1.11888 3.335658,3.58041 3.657336,4.89509 0.489509,1.98602 -1.349648,3.60839 -2.573422,4.8951 -2.776218,2.92307 -7.531454,8.33565 -10.475504,10.48949 -4.356635,-4.35663 -11.776201,-11.82515 -13.985987,-17.48248 0,0 16.783184,-11.18879 16.783184,-11.18879 z M 259.26729,274.7081 c 0.91609,1.06293 3.16783,3.5944 3.46853,4.8881 0.45454,1.96503 -1.27273,3.21678 -2.58741,4.34265 0,0 -9.7762,7.30068 -9.7762,7.30068 -1.12587,0.71329 -2.64335,1.76224 -4.04895,1.34266 -1.54545,-0.45455 -2.97901,-3.25174 -3.78321,-4.5874 0,0 -6.85313,-11.88809 -6.85313,-11.88809 0,0 14.68529,-11.18879 14.68529,-11.18879 0,0 8.89508,9.79019 8.89508,9.79019 z m -154.34935,5.59439 c 0,0 -9.090887,18.18179 -9.090887,18.18179 -5.615374,-1.63636 -13.78319,-7.7902 -18.881082,-11.18879 0,0 11.888089,-16.78319 11.888089,-16.78319 0,0 16.08388,9.79019 16.08388,9.79019 z m 118.58719,18.18179 c 0,0 1.21678,5.30768 1.21678,5.30768 0,0 -5.11887,3.04894 -5.11887,3.04894 0,0 -14.68529,4.23076 -14.68529,4.23076 0,0 -4.8951,-19.58038 -4.8951,-19.58038 0,0 17.48249,-6.29369 17.48249,-6.29369 0,0 5.99999,13.28669 5.99999,13.28669 z m -87.81802,-6.21678 c 0,0 4.82517,1.83217 4.82517,1.83217 0,0 0,5.7832 0,5.7832 0,0 -2.72727,13.98599 -2.72727,13.98599 0,0 -11.88809,-2.90209 -11.88809,-2.90209 0,0 -9.09089,-2.6923 -9.09089,-2.6923 0,0 6.2937,-19.58039 6.2937,-19.58039 0,0 12.58738,3.57342 12.58738,3.57342 z m 44.75516,2.72028 c 0,0 2.0979,20.27968 2.0979,20.27968 0,0 -21.67828,1.3986 -21.67828,1.3986 0,0 0,-20.97898 0,-20.97898 0,0 19.58038,-0.6993 19.58038,-0.6993 z"
     inkscape:connector-curvature="0"
     style="fill:#000000;fill-opacity:1;stroke:none;stroke-width:1" />
</svg>
