<?xml version="1.0" encoding="UTF-8" standalone="no"?>
<svg
   xmlns:dc="http://purl.org/dc/elements/1.1/"
   xmlns:cc="http://creativecommons.org/ns#"
   xmlns:rdf="http://www.w3.org/1999/02/22-rdf-syntax-ns#"
   xmlns:svg="http://www.w3.org/2000/svg"
   xmlns="http://www.w3.org/2000/svg"
   xmlns:sodipodi="http://sodipodi.sourceforge.net/DTD/sodipodi-0.dtd"
   xmlns:inkscape="http://www.inkscape.org/namespaces/inkscape"
   width="100"
   height="100"
   viewBox="0 0 333.33266 333.33266"
   id="svg2"
   version="1.1"
   inkscape:version="0.91 r13725"
   sodipodi:docname="hills.svg">
  <metadata
     id="metadata9">
    <rdf:RDF>
      <cc:Work
         rdf:about="">
        <dc:format>image/svg+xml</dc:format>
        <dc:type
           rdf:resource="http://purl.org/dc/dcmitype/StillImage" />
        <dc:title></dc:title>
      </cc:Work>
    </rdf:RDF>
  </metadata>
  <defs
     id="defs7" />
  <sodipodi:namedview
     pagecolor="#ffffff"
     bordercolor="#666666"
     borderopacity="1"
     objecttolerance="10"
     gridtolerance="10"
     guidetolerance="10"
     inkscape:pageopacity="0"
     inkscape:pageshadow="2"
     inkscape:window-width="1218"
     inkscape:window-height="697"
     id="namedview5"
     showgrid="false"
     units="px"
     inkscape:zoom="1.5733302"
     inkscape:cx="75.000148"
     inkscape:cy="75.000148"
     inkscape:window-x="54"
     inkscape:window-y="-8"
     inkscape:window-maximized="1"
     inkscape:current-layer="svg2" />
  <path
     id="Selection #32"
     d="m 183.71793,18.002414 c 25.07789,3.492063 45.39682,14.577331 62.39423,33.401982 12.51458,13.854555 21.31782,30.088586 30.29973,46.290132 6.24511,11.263932 12.75821,26.490952 22.04872,35.375402 2.03839,1.95718 4.36914,3.80067 7.07346,4.71023 2.65559,0.90144 6.61056,0.70653 9.17682,3.94684 3.67884,4.64526 0.95828,11.24769 -5.11628,12.31155 -8.1292,1.42119 -17.83388,-4.78331 -23.20191,-10.2894 -10.54928,-10.80103 -21.3828,-33.77556 -29.01661,-47.678837 -14.89405,-27.124393 -33.53192,-51.65816 -64.72497,-60.307106 -12.20598,-3.378368 -20.90365,-3.175341 -33.29641,-3.037283 -4.65338,0.05685 -9.24991,1.031377 -13.80583,1.949059 -36.99962,7.447026 -58.301206,38.924313 -74.502752,70.328517 -6.41565,12.43336 -15.446287,30.72203 -25.524542,40.12623 -5.35991,4.99446 -13.326685,9.64784 -20.976739,9.00628 -6.18826,-0.51163 -9.501658,-6.74862 -6.423771,-11.68623 2.468807,-3.97121 6.78922,-3.70321 9.672201,-4.6615 2.947951,-0.99077 5.644148,-3.09413 7.77187,-5.31118 9.501659,-9.89147 15.137686,-23.76227 21.805089,-35.594679 17.980062,-31.875223 33.840523,-59.827963 70.312274,-73.560702 7.49575,-2.818014 18.00443,-5.124399 25.98744,-5.887779 0,0 8.93319,-0.60908 8.93319,-0.60908 4.62901,-0.560355 16.20966,0.495385 21.11479,1.177554 z m 0,162.421516 c 25.07789,3.49206 45.39682,14.57733 62.39423,33.40198 12.51458,13.85456 21.31782,30.08859 30.29973,46.29014 6.24511,11.26393 12.75821,26.49095 22.04872,35.3754 2.03839,1.95718 4.36914,3.80067 7.07346,4.71023 2.65559,0.90144 6.61056,0.70653 9.17682,3.94684 3.67884,4.64525 0.95828,11.24769 -5.11628,12.31155 -8.1292,1.42119 -17.83388,-4.78331 -23.20191,-10.2894 -10.54928,-10.80103 -21.3828,-33.77556 -29.01661,-47.67884 -14.89405,-27.12439 -33.53192,-51.65816 -64.72497,-60.30711 -12.20598,-3.37837 -20.90365,-3.17534 -33.29641,-3.03728 -4.65338,0.0568 -9.24991,1.03138 -13.80583,1.94906 -36.99962,7.44702 -58.301206,38.92431 -74.502752,70.32851 -6.41565,12.43337 -15.446287,30.72203 -25.524542,40.12624 -5.35991,4.99446 -13.326685,9.64784 -20.976739,9.00627 -6.18826,-0.51162 -9.501658,-6.74861 -6.423771,-11.68623 2.468807,-3.9712 6.78922,-3.70321 9.672201,-4.66149 2.947951,-0.99077 5.644148,-3.09413 7.77187,-5.31119 9.501659,-9.89147 15.137686,-23.76226 21.805089,-35.59467 17.980062,-31.87522 33.840523,-59.82797 70.312274,-73.56071 7.49575,-2.81801 18.00443,-5.1244 25.98744,-5.88778 0,0 8.93319,-0.60908 8.93319,-0.60908 4.62901,-0.56035 16.20966,0.49539 21.11479,1.17756 z"
     inkscape:connector-curvature="0"
     style="fill:#000000;fill-opacity:1;stroke:none;stroke-width:1" />
</svg>
