<?xml version="1.0" encoding="UTF-8" standalone="no"?>
<svg
   xmlns:dc="http://purl.org/dc/elements/1.1/"
   xmlns:cc="http://creativecommons.org/ns#"
   xmlns:rdf="http://www.w3.org/1999/02/22-rdf-syntax-ns#"
   xmlns:svg="http://www.w3.org/2000/svg"
   xmlns="http://www.w3.org/2000/svg"
   xmlns:sodipodi="http://sodipodi.sourceforge.net/DTD/sodipodi-0.dtd"
   xmlns:inkscape="http://www.inkscape.org/namespaces/inkscape"
   width="100"
   height="100"
   viewBox="0 0 333.33269 333.33269"
   id="svg2"
   version="1.1"
   inkscape:version="0.91 r13725"
   sodipodi:docname="hive.svg">
  <metadata
     id="metadata9">
    <rdf:RDF>
      <cc:Work
         rdf:about="">
        <dc:format>image/svg+xml</dc:format>
        <dc:type
           rdf:resource="http://purl.org/dc/dcmitype/StillImage" />
        <dc:title></dc:title>
      </cc:Work>
    </rdf:RDF>
  </metadata>
  <defs
     id="defs7" />
  <sodipodi:namedview
     pagecolor="#ffffff"
     bordercolor="#666666"
     borderopacity="1"
     objecttolerance="10"
     gridtolerance="10"
     guidetolerance="10"
     inkscape:pageopacity="0"
     inkscape:pageshadow="2"
     inkscape:window-width="1218"
     inkscape:window-height="697"
     id="namedview5"
     showgrid="false"
     units="px"
     inkscape:zoom="1.5733302"
     inkscape:cx="75.000148"
     inkscape:cy="75.000148"
     inkscape:window-x="54"
     inkscape:window-y="-8"
     inkscape:window-maximized="1"
     inkscape:current-layer="svg2" />
  <path
     id="Selection #61"
     d="m 297.80404,207.40606 c 0,0 1.13785,9.63948 1.13785,9.63948 1.00856,2.54725 4.57084,4.04069 7.71288,9.10934 4.48679,7.22799 7.31204,19.31128 7.41548,27.79997 0.0582,5.05571 0.27153,10.05971 -1.59688,14.86975 -3.63339,9.35501 -18.93631,20.08709 -27.49611,25.33676 -15.76194,9.65888 -35.56457,14.47538 -53.66041,17.49459 0,0 -33.61857,3.77562 -33.61857,3.77562 0,0 -7.75813,0.58833 -7.75813,0.58833 0,0 -13.57673,0.64651 -13.57673,0.64651 0,0 -19.39532,0 -19.39532,0 0,0 -10.99069,-0.64651 -10.99069,-0.64651 -13.44743,-0.0194 -31.22648,-2.25633 -44.60925,-4.47386 -15.936496,-2.63776 -32.73285,-6.78836 -47.195299,-14.1198 -6.937063,-3.51702 -14.559427,-9.03176 -20.68835,-13.86766 -4.822972,-3.80148 -9.891617,-8.33352 -12.361289,-14.08747 -2.152881,-5.01693 -1.920137,-10.18901 -1.861951,-15.51626 0.103441,-8.48869 2.928694,-20.57198 7.41548,-27.79997 3.142043,-5.06865 6.704318,-6.56209 7.712875,-9.10934 0,0 1.215441,-10.28599 1.215441,-10.28599 0.659441,-5.14623 2.068835,-11.8958 3.698042,-16.80928 1.053813,-3.17437 1.952463,-5.71516 4.215251,-8.29474 1.965394,-2.24339 4.228182,-3.15497 5.094507,-5.34018 0.59479,-1.48697 0.31679,-5.21734 0.446092,-7.05343 0.342651,-5.02339 0.601255,-12.1932 2.236928,-16.80929 0.982697,-2.78646 2.915764,-6.19357 4.932879,-8.34645 1.583951,-1.6874 3.840274,-3.03861 4.667808,-5.23674 0.56893,-1.51284 0.316791,-4.64195 0.497814,-6.45865 0.239209,-2.43088 1.713254,-9.35501 2.534323,-11.63719 1.170184,-3.25842 3.342461,-6.95 5.437156,-9.69767 1.099069,-1.44172 4.066554,-4.65488 4.725995,-6.09013 0.284465,-1.08614 0.129302,-3.058 0,-4.25404 0.09051,-5.786276 0.969766,-11.798827 4.047158,-16.809287 2.715346,-4.4286 5.223809,-6.23883 6.46511,-8.404642 0,0 3.710972,-10.344173 3.710972,-10.344173 2.579579,-5.146227 6.070738,-8.158968 7.409016,-10.344175 1.545161,-2.534322 0.711162,-3.710972 2.721811,-7.11162 2.295111,-3.872601 4.958741,-5.230274 6.167711,-7.221527 0,0 2.19167,-5.708692 2.19167,-5.708692 1.74558,-3.206694 5.10744,-5.986691 8.13958,-7.952084 14.1004,-9.1352 40.91121,-10.344175 57.53947,-10.150222 0,0 6.46511,0.588325 6.46511,0.588325 13.92584,0.976232 31.56266,2.605439 42.66972,11.902266 2.08176,1.74558 4.04716,3.782089 5.22381,6.258226 1.00209,2.107626 1.02148,3.963112 2.26278,5.637575 1.19605,1.603347 3.62693,3.012741 5.77981,6.646133 2.01065,3.400648 1.17665,4.577298 2.72181,7.11162 1.33828,2.185207 4.82944,5.197948 7.40902,10.344175 2.08823,4.163531 2.53432,7.900362 3.38772,9.697662 0,0 5.95436,7.758131 5.95436,7.758131 3.1873,4.73246 4.69367,10.479942 4.86823,16.162773 -0.097,1.441716 -0.32326,4.926416 0,6.090136 1.07321,2.54079 5.50827,5.80567 9.08348,13.30519 1.668,3.50409 3.23902,10.33771 3.62692,14.22324 0.18103,1.8167 -0.0711,4.94581 0.49782,6.45865 1.18958,3.15497 4.14413,3.38125 7.4478,9.05762 4.06009,6.96292 3.21963,10.18901 3.85321,17.45579 0.47195,4.33809 1.18311,7.93915 0,12.28371 10.38296,3.4653 13.01426,20.08063 14.06808,29.7395 z M 151.79601,26.492909 c -8.31413,0.788743 -20.35863,2.262788 -27.79997,5.876784 -2.81879,1.370603 -10.02092,5.029855 -9.12873,8.876595 1.10553,4.71953 11.32687,8.094317 15.59384,8.889526 11.26222,2.101161 28.47234,2.773532 40.08368,2.754137 0,0 9.69766,-0.646511 9.69766,-0.646511 7.80339,-0.09051 23.57179,-1.099069 30.38601,-4.409205 2.502,-1.215441 8.50162,-4.544972 7.87451,-7.874504 -0.75642,-3.995437 -10.04678,-8.307665 -13.69311,-9.413199 -10.84845,-3.284275 -34.01294,-5.6699 -45.25576,-4.629018 0,0 -7.75813,0.575395 -7.75813,0.575395 z m -43.24512,33.903034 c 3.49116,3.077392 12.68455,4.945808 17.38468,5.799202 24.94886,4.506182 53.20785,4.564368 78.22782,0.536604 5.04279,-0.808138 13.65431,-2.501997 18.10231,-4.725994 3.10972,-1.558092 5.58585,-4.079484 5.01692,-7.822782 -0.28446,-1.874882 -1.5193,-4.09888 -3.73683,-3.775624 0,0 -9.03822,5.475947 -9.03822,5.475947 -4.27344,2.133486 -10.13729,3.297206 -14.86975,3.937252 -13.31813,1.790835 -26.65565,2.185207 -40.08368,2.120556 0,0 -7.11162,-0.588325 -7.11162,-0.588325 -8.46283,-0.58186 -16.86101,-0.833999 -25.21393,-2.650695 -3.06446,-0.672371 -6.98878,-1.958928 -9.69766,-3.523485 -2.78,-1.609812 -5.19795,-4.16353 -8.37878,-4.803576 -4.56437,1.75851 -3.81441,7.195667 -0.60126,10.02092 z m -12.147936,9.303292 c -1.305952,2.79939 -2.98688,8.023198 -1.389998,10.926032 1.312417,2.36623 4.577297,3.523485 7.001714,4.370414 6.49743,2.269254 13.2664,3.575206 20.04184,4.693669 0,0 30.38601,3.284276 30.38601,3.284276 0,0 12.28371,0.646511 12.28371,0.646511 0,0 14.22324,-0.646511 14.22324,-0.646511 8.74082,-0.04526 24.16011,-1.926603 32.97205,-3.394182 6.55562,-1.092604 13.10478,-2.392091 19.39533,-4.583763 2.42442,-0.846929 5.6893,-2.004184 7.00172,-4.370414 2.4632,-4.46739 -1.99772,-12.380682 -4.41567,-16.09812 -2.60544,1.842556 -4.88763,4.12474 -7.75814,5.572924 -8.25594,4.169994 -21.80681,5.760411 -31.03252,6.853014 -21.21849,2.650695 -36.4115,2.223998 -57.53947,0 -8.59213,-0.956836 -24.43811,-3.193764 -31.67904,-7.564176 -2.32097,-1.402928 -3.90492,-2.98688 -5.81859,-4.861762 -1.803769,1.687394 -2.624838,2.92223 -3.672186,5.172088 z m -9.044688,42.262415 c 4.389809,3.82735 18.360914,7.40255 24.354064,8.67618 12.19966,2.59897 24.44458,3.8726 36.85112,4.71953 0,0 7.11162,0.61418 7.11162,0.61418 0,0 5.8186,0 5.8186,0 0,0 5.17209,0.56893 5.17209,0.56893 0,0 8.40464,-0.59479 8.40464,-0.59479 12.51645,-0.0194 31.60146,-2.30804 43.96274,-4.78418 6.10307,-1.2219 14.35255,-3.21316 20.04184,-5.56646 2.49554,-1.03441 6.16772,-2.56665 7.88744,-4.65488 2.39209,-2.90283 3.21962,-8.46282 3.07739,-12.147936 -0.20042,-5.172087 -1.5193,-7.848642 -3.85321,-12.283707 -2.37269,1.648603 -4.52557,3.607531 -7.11162,4.932878 -9.23217,4.725995 -26.9789,7.486597 -37.49763,8.740825 -26.5716,3.18084 -47.79009,3.22609 -74.34876,-0.568927 C 114.2014,97.751342 97.657185,95.88939 87.791429,86.508517 82.606411,92.217208 81.112971,106.51803 87.358266,111.96165 Z M 72.21698,125.29917 c -2.385625,8.09432 -3.911391,17.29417 4.583763,22.40161 13.150032,7.90036 35.771447,12.8591 51.074357,14.33961 0,0 12.93022,0.8146 12.93022,0.8146 0,0 7.75813,0.58833 7.75813,0.58833 32.97206,0.0517 67.08844,1.46111 98.26966,-11.11999 3.56874,-1.44172 10.25367,-4.33162 12.79446,-7.04697 4.69366,-5.02985 3.48469,-12.01864 1.99125,-18.03765 -0.64005,-2.59251 -3.11618,-9.94334 -5.82506,-10.77088 -1.63568,-0.50428 -3.32954,1.64214 -4.49326,2.57312 -3.18083,2.56664 -7.12455,4.18292 -10.9325,5.57939 -13.44096,4.92641 -29.08006,7.55124 -43.31623,8.97357 0,0 -18.74881,1.40293 -18.74881,1.40293 0,0 -12.93022,0.64651 -12.93022,0.64651 0,0 -11.6372,-0.64651 -11.6372,-0.64651 0,0 -6.46511,-0.58833 -6.46511,-0.58833 -14.91501,-1.02795 -30.8321,-2.68302 -45.25576,-6.80129 -4.409206,-1.25423 -12.225523,-3.93725 -16.162774,-6.05135 -2.792927,-1.50637 -5.32725,-4.37041 -7.758131,-5.18501 -3.271346,1.2219 -4.939344,5.74101 -5.876785,8.92831 z M 58.685507,162.1503 c 0,0 0,5.17208 0,5.17208 -0.323255,4.11828 -1.441719,7.6159 0.749953,11.6372 1.351208,2.48907 4.74539,5.45655 7.021108,7.17627 12.503521,9.47139 30.657548,12.76859 45.902272,14.88915 0,0 20.04184,1.91367 20.04184,1.91367 0,0 7.75813,0.58833 7.75813,0.58833 33.25652,0.0517 68.43318,1.88134 100.85571,-6.2259 9.04468,-2.25633 17.60449,-5.12037 25.21392,-10.68683 2.68302,-1.95893 6.61381,-5.25613 7.98441,-8.3012 1.87488,-4.17 0.47195,-7.99734 0.42023,-12.28371 0,0 0,-2.58604 0,-2.58604 -0.0453,-3.54935 -0.67237,-7.97795 -2.67009,-10.97776 -0.85986,-1.28655 -2.04944,-2.83172 -3.80148,-2.37916 -1.29302,0.32972 -3.38125,2.51493 -4.51911,3.41358 -2.13349,1.69386 -5.28846,3.40065 -7.75813,4.60316 -8.06199,3.93078 -20.90817,8.03613 -29.73951,9.86575 -10.77733,2.23047 -21.39304,3.1873 -32.32554,3.93726 0,0 -7.75813,0.58832 -7.75813,0.58832 0,0 -21.33486,0 -21.33486,0 0,0 -17.4558,0 -17.4558,0 0,0 -7.75813,-0.58832 -7.75813,-0.58832 -14.00343,-0.95684 -27.78704,-2.27572 -41.376697,-6.15479 -7.305573,-2.08176 -17.255376,-5.72808 -23.920904,-9.27743 -3.639856,-1.93953 -6.82069,-5.58585 -9.671803,-6.47804 -4.538507,1.52577 -5.63111,7.88743 -5.857389,12.15441 z m -12.031569,35.5581 c 0,0 -2.359764,14.86975 -2.359764,14.86975 -0.387907,3.22609 -0.840465,6.68492 0.814603,9.69766 1.13786,2.06237 3.264881,3.63986 5.185018,4.93935 15.535657,10.49933 32.868615,14.48831 51.074365,17.31356 0,0 29.7395,3.0192 29.7395,3.0192 0,0 7.75813,0.61419 7.75813,0.61419 0,0 9.05115,0 9.05115,0 0,0 7.75813,0.62065 7.75813,0.62065 0,0 21.98138,0 21.98138,0 0,0 7.75813,-0.62065 7.75813,-0.62065 0,0 9.69766,0 9.69766,0 0,0 7.11162,-0.67237 7.11162,-0.67237 0,0 5.17209,0 5.17209,0 15.83305,-1.13786 31.8148,-3.56228 47.1953,-7.51892 9.34854,-2.40502 16.23388,-5.63758 24.56741,-10.40236 5.7992,-3.31661 9.69766,-5.27553 10.2278,-12.46474 0.38144,-5.26906 -2.24339,-17.89542 -3.68511,-23.27439 -0.58832,-2.17874 -2.02358,-6.69785 -4.66134,-7.07929 -2.04944,-0.29093 -4.37688,2.51492 -5.76042,3.78855 -3.65278,3.36186 -7.88096,6.02548 -12.2837,8.29474 -13.29873,6.85948 -29.82355,9.93687 -44.60926,11.70831 0,0 -28.44648,2.03651 -28.44648,2.03651 0,0 -7.75813,0.61418 -7.75813,0.61418 0,0 -9.05115,0 -9.05115,0 0,0 -6.46511,-0.49781 -6.46511,-0.49781 0,0 -4.52558,0.50428 -4.52558,0.50428 0,0 -8.40464,0 -8.40464,0 0,0 -10.34417,-0.62065 -10.34417,-0.62065 -17.64975,-0.0259 -43.29684,-3.1873 -60.125518,-8.41757 -6.904737,-2.15289 -14.055147,-5.45009 -20.041838,-9.52311 -3.303671,-2.24339 -7.247388,-6.74957 -10.331245,-7.90036 -4.616088,0.87279 -5.275529,7.07283 -6.238831,10.97129 z M 237.13545,301.27945 c 16.74463,-3.34893 33.78666,-8.08139 47.84181,-18.1411 5.16562,-3.69804 15.55505,-10.8032 18.30919,-16.25328 1.28009,-2.54079 1.70032,-6.21944 1.73265,-9.05116 0,0 0,-2.58604 0,-2.58604 -0.0711,-5.81213 -1.91368,-15.33524 -4.17646,-20.68835 -0.74349,-1.75851 -2.67656,-5.6893 -4.90056,-5.6893 -1.55809,0 -3.37478,2.01712 -4.49971,2.98688 -2.57312,2.21107 -5.47595,3.96312 -8.40464,5.66344 -9.82051,5.70223 -19.25956,9.77524 -30.38602,12.28371 -16.35026,3.67864 -32.46131,5.6505 -49.13483,6.79483 0,0 -6.46511,0.61418 -6.46511,0.61418 0,0 -7.75813,0 -7.75813,0 0,0 -7.75813,0.62065 -7.75813,0.62065 0,0 -29.7395,0 -29.7395,0 0,0 -10.99069,-0.64651 -10.99069,-0.64651 0,0 -4.52557,0 -4.52557,0 0,0 -6.46511,-0.58832 -6.46511,-0.58832 0,0 -15.51626,-1.24777 -15.51626,-1.24777 -14.28143,-1.52576 -33.198339,-4.38981 -46.54879,-9.42613 -7.887433,-2.98041 -14.921472,-6.53622 -21.981372,-11.17171 -1.849021,-1.20897 -6.885341,-5.88325 -8.378781,-5.88325 -2.223998,0 -4.157065,3.93079 -4.900553,5.6893 -2.385625,5.65051 -4.1506,15.19947 -4.17646,21.33486 0,0 0,2.58604 0,2.58604 0.03233,2.48907 0.297395,5.46949 1.338277,7.75814 2.6313,5.76687 13.376311,13.09184 18.703561,16.89979 14.055148,10.05971 31.097176,14.79217 47.841809,18.1411 12.413009,2.4826 25.504859,4.46092 38.144139,5.04278 0,-9.36794 0.77582,-17.21658 4.84237,-25.86043 4.41567,-9.40027 17.19073,-19.97073 28.12969,-19.33715 7.58357,0.43963 16.0658,5.54707 21.14737,10.99069 8.66971,9.2839 10.53167,22.04602 10.53167,34.20689 12.63928,-0.58186 25.73113,-2.56018 38.14414,-5.04278 z"
     inkscape:connector-curvature="0"
     style="fill:#000000;fill-opacity:1;stroke:none;stroke-width:1" />
</svg>
