<?xml version="1.0" encoding="UTF-8" standalone="no"?>
<svg
   xmlns:dc="http://purl.org/dc/elements/1.1/"
   xmlns:cc="http://creativecommons.org/ns#"
   xmlns:rdf="http://www.w3.org/1999/02/22-rdf-syntax-ns#"
   xmlns:svg="http://www.w3.org/2000/svg"
   xmlns="http://www.w3.org/2000/svg"
   xmlns:sodipodi="http://sodipodi.sourceforge.net/DTD/sodipodi-0.dtd"
   xmlns:inkscape="http://www.inkscape.org/namespaces/inkscape"
   width="100"
   height="100"
   viewBox="0 0 333.33269 333.33269"
   id="svg2"
   version="1.1"
   inkscape:version="0.91 r13725"
   sodipodi:docname="hut.svg">
  <metadata
     id="metadata9">
    <rdf:RDF>
      <cc:Work
         rdf:about="">
        <dc:format>image/svg+xml</dc:format>
        <dc:type
           rdf:resource="http://purl.org/dc/dcmitype/StillImage" />
        <dc:title></dc:title>
      </cc:Work>
    </rdf:RDF>
  </metadata>
  <defs
     id="defs7" />
  <sodipodi:namedview
     pagecolor="#ffffff"
     bordercolor="#666666"
     borderopacity="1"
     objecttolerance="10"
     gridtolerance="10"
     guidetolerance="10"
     inkscape:pageopacity="0"
     inkscape:pageshadow="2"
     inkscape:window-width="1218"
     inkscape:window-height="697"
     id="namedview5"
     showgrid="false"
     units="px"
     inkscape:zoom="1.5733302"
     inkscape:cx="75.000148"
     inkscape:cy="75.000148"
     inkscape:window-x="54"
     inkscape:window-y="-8"
     inkscape:window-maximized="1"
     inkscape:current-layer="svg2" />
  <path
     id="Selection #29"
     d="m 211.91076,44.174397 c 24.30056,18.078604 49.83917,44.577491 71.42557,66.163883 0,0 23.01491,23.01491 23.01491,23.01491 5.5077,5.5077 10.12655,9.1504 10.30115,17.45958 0.0635,2.83321 -0.0556,5.28549 -1.19836,7.93617 -4.06332,9.37263 -20.67374,18.28495 -29.73685,22.81651 -2.86496,1.43645 -11.34873,4.41252 -12.66613,6.72194 -1.36503,2.38879 0.88885,11.03129 1.34121,14.11052 1.15868,7.88062 2.55545,15.83267 2.59513,23.80853 0,0 0.79362,12.69787 0.79362,12.69787 0.0317,21.20546 -3.0713,46.2679 -23.80853,57.68806 -9.6107,5.29343 -30.1654,7.51555 -41.2681,7.38858 -4.13475,-0.0556 -7.76952,-0.68251 -11.03129,-3.48398 -4.60298,-3.96809 -4.83313,-10.7059 -4.84106,-16.35646 0,0 0,-25.39576 0,-25.39576 -0.11111,-8.89645 -5.89658,-18.8246 -12.53122,-13.15024 -4.58711,3.92841 -3.73794,10.26147 -4.35696,15.53109 -1.2063,10.12656 -0.80949,30.24476 -6.21403,38.0619 -6.63464,9.61864 -20.55469,8.88058 -30.86378,8.76153 0,0 -7.93618,-0.72219 -7.93618,-0.72219 0,0 -19.04681,-1.52374 -19.04681,-1.52374 -16.324715,-1.63486 -34.792193,-3.00781 -47.609115,-14.56288 -5.745791,-5.19026 -8.832963,-12.38837 -10.888432,-19.69759 -4.515683,-16.1025 -2.888767,-35.03027 -1.745958,-51.58513 0,0 2.404661,-18.92778 2.404661,-18.92778 -0.817426,-2.82528 -9.944027,-4.16649 -12.793114,-5.15058 -7.063195,-2.44434 -23.284736,-7.70602 -26.911568,-14.01528 -1.682469,-2.92052 -1.730086,-6.25372 -1.650724,-9.52342 0.206341,-8.24568 5.16645,-13.66609 9.975771,-19.84044 0,0 18.292883,-23.80852 18.292883,-23.80852 C 58.798142,110.2113 73.51181,92.712039 88.67784,75.419114 c 19.78488,-22.57048 40.038,-43.958468 70.85417,-49.648705 20.39596,-2.618938 36.53021,6.618769 52.37875,18.403988 z m 25.39576,242.243793 c 16.72945,-2.54751 24.57833,-19.38014 24.60214,-34.816 0,0 0,-24.60214 0,-24.60214 -0.008,-6.19021 -1.30153,-14.42796 -2.31737,-20.63405 -0.96027,-5.84103 -4.37283,-19.57854 -2.26181,-24.60214 2.71418,-6.47593 9.74563,-8.65044 15.68982,-11.11859 6.07911,-2.53164 13.50737,-6.49973 19.04682,-10.06307 3.49192,-2.25387 11.23762,-6.26958 8.23775,-11.35667 -1.05551,-1.80151 -7.89649,-8.38853 -9.82498,-10.31702 0,0 -19.04682,-19.04682 -19.04682,-19.04682 C 250.26629,98.695914 229.32272,76.792072 205.56182,58.475382 195.54637,50.753484 181.35649,40.650736 168.2618,40.499949 c -14.65018,-0.16666 -28.53849,7.348895 -39.68087,16.356453 -16.43582,13.285156 -35.458833,36.109594 -49.267776,52.688258 0,0 -35.942935,46.02981 -35.942935,46.02981 0,0 -8.523452,11.11065 -8.523452,11.11065 -1.023766,1.42851 -2.714171,3.62683 -2.618937,5.46802 0.158723,3.23796 7.991728,5.37279 10.64241,6.43624 3.658576,1.46026 7.285408,3.07924 11.110644,4.04746 7.102877,1.80945 15.80886,1.65072 19.324585,9.44404 2.404661,5.34105 -0.611085,16.33265 -1.531681,22.22129 -1.904682,12.30107 -1.936427,24.87197 -1.920555,37.30002 0.01587,8.30124 2.166576,21.57053 8.079026,27.69725 3.98396,4.11888 11.023347,6.72194 16.523116,8.10284 7.983795,1.99991 32.911315,4.63472 41.268105,4.6744 0,0 17.45959,0 17.45959,0 4.82519,-0.008 8.42028,0.28571 9.50753,-5.55532 0,0 0,-5.55532 0,-5.55532 0,0 2.26181,-23.01491 2.26181,-23.01491 0.66664,-6.84891 0.7222,-12.0233 4.48394,-18.2532 1.58724,-2.63481 3.54747,-4.83313 5.96801,-6.72194 13.83275,-10.78526 28.91942,-1.58723 34.54616,13.07088 1.79358,4.6506 2.74592,13.97561 2.75386,19.04682 0,0 0,23.80852 0,23.80852 0,0 24.60214,-2.48402 24.60214,-2.48402 z"
     inkscape:connector-curvature="0"
     style="fill:#000000;fill-opacity:1;stroke:none;stroke-width:1" />
</svg>
