<?xml version="1.0" encoding="UTF-8" standalone="no"?>
<svg
   xmlns:dc="http://purl.org/dc/elements/1.1/"
   xmlns:cc="http://creativecommons.org/ns#"
   xmlns:rdf="http://www.w3.org/1999/02/22-rdf-syntax-ns#"
   xmlns:svg="http://www.w3.org/2000/svg"
   xmlns="http://www.w3.org/2000/svg"
   xmlns:sodipodi="http://sodipodi.sourceforge.net/DTD/sodipodi-0.dtd"
   xmlns:inkscape="http://www.inkscape.org/namespaces/inkscape"
   width="100"
   height="100"
   viewBox="0 0 333.33269 333.33269"
   id="svg2"
   version="1.1"
   inkscape:version="0.91 r13725"
   sodipodi:docname="industry.svg">
  <metadata
     id="metadata9">
    <rdf:RDF>
      <cc:Work
         rdf:about="">
        <dc:format>image/svg+xml</dc:format>
        <dc:type
           rdf:resource="http://purl.org/dc/dcmitype/StillImage" />
        <dc:title></dc:title>
      </cc:Work>
    </rdf:RDF>
  </metadata>
  <defs
     id="defs7" />
  <sodipodi:namedview
     pagecolor="#ffffff"
     bordercolor="#666666"
     borderopacity="1"
     objecttolerance="10"
     gridtolerance="10"
     guidetolerance="10"
     inkscape:pageopacity="0"
     inkscape:pageshadow="2"
     inkscape:window-width="1218"
     inkscape:window-height="697"
     id="namedview5"
     showgrid="false"
     inkscape:zoom="1.5733302"
     inkscape:cx="75.000148"
     inkscape:cy="75.000148"
     inkscape:window-x="54"
     inkscape:window-y="-8"
     inkscape:window-maximized="1"
     inkscape:current-layer="svg2"
     units="px" />
  <path
     id="FactoryCloud copy"
     d="m 316.31394,87.441144 c 0,9.507024 -8.62675,17.605596 -17.6056,17.605596 -8.97886,0 -17.6056,-7.922516 -17.6056,-17.605596 -5.9859,0 -9.85914,-2.992952 -11.97181,-4.225344 -5.63379,4.225344 -17.42954,5.809848 -23.23939,4.225344 0,9.154912 -8.09858,17.605596 -17.6056,17.605596 -9.50702,0 -17.6056,-9.859132 -17.6056,-17.605596 0,0 -3.34506,0 -3.16901,-2.816896 -5.45773,2.816896 -9.68308,2.816896 -14.43659,2.816896 -10.21125,0 -17.6056,-5.633792 -26.4084,-11.795752 -8.8028,7.394352 -16.37321,11.795752 -31.16191,11.795752 -4.75351,10.739416 -20.95067,17.605596 -30.45769,17.605596 -17.605595,0 -27.640785,-11.971804 -32.570355,-20.422492 -4.04929,-1.056336 -7.39435,-4.049288 -8.97886,-6.338016 -2.99295,5.105624 -14.61264,9.154912 -20.59855,9.154912 -13.73237,0 -25.880229,-13.028144 -25.880229,-26.056286 0,-13.028143 13.028139,-26.760512 26.232339,-26.760512 13.2042,0 10.73942,2.112672 11.6197,3.345064 5.45774,-16.373208 24.47178,-20.950664 32.57036,-20.950664 8.09858,0 21.478825,4.4014 26.232335,11.619696 3.69718,-7.570408 17.6056,-11.619696 26.58446,-11.619696 8.97886,0 25.70418,8.8028 26.4084,11.971808 1.05634,-3.52112 14.43659,-11.971808 26.4084,-11.971808 11.97181,0 27.28868,8.978856 30.28163,17.6056 4.92957,0 11.79575,4.577456 13.55631,6.514072 2.46479,-2.288728 8.97886,-6.514072 17.78166,-6.514072 8.8028,0 21.47883,6.16196 24.64784,17.605601 13.73237,-1.584504 19.36616,11.619695 19.36616,17.605597 7.74646,0 17.6056,8.098576 17.6056,17.6056 z M 34.624345,316.31394 c 0,0 0,-176.056 0,-176.056 0,0 70.422395,52.8168 70.422395,52.8168 0,0 0,-52.8168 0,-52.8168 0,0 70.4224,52.8168 70.4224,52.8168 0,0 17.6056,-88.028 17.6056,-88.028 0,0 52.8168,0 52.8168,0 0,0 0,88.028 0,88.028 0,0 17.6056,-88.028 17.6056,-88.028 0,0 52.8168,0 52.8168,0 0,0 0,211.2672 0,211.2672 0,0 -281.689595,0 -281.689595,0 z"
     inkscape:connector-curvature="0"
     style="fill:#000000;fill-opacity:1;stroke:none;stroke-width:0.70422399" />
</svg>
