<?xml version="1.0" encoding="UTF-8" standalone="no"?>
<svg
   xmlns:dc="http://purl.org/dc/elements/1.1/"
   xmlns:cc="http://creativecommons.org/ns#"
   xmlns:rdf="http://www.w3.org/1999/02/22-rdf-syntax-ns#"
   xmlns:svg="http://www.w3.org/2000/svg"
   xmlns="http://www.w3.org/2000/svg"
   xmlns:sodipodi="http://sodipodi.sourceforge.net/DTD/sodipodi-0.dtd"
   xmlns:inkscape="http://www.inkscape.org/namespaces/inkscape"
   width="100"
   height="100"
   viewBox="0 0 333.33269 333.33269"
   id="svg2"
   version="1.1"
   inkscape:version="0.91 r13725"
   sodipodi:docname="Initiative.svg">
  <metadata
     id="metadata9">
    <rdf:RDF>
      <cc:Work
         rdf:about="">
        <dc:format>image/svg+xml</dc:format>
        <dc:type
           rdf:resource="http://purl.org/dc/dcmitype/StillImage" />
        <dc:title></dc:title>
      </cc:Work>
    </rdf:RDF>
  </metadata>
  <defs
     id="defs7" />
  <sodipodi:namedview
     pagecolor="#ffffff"
     bordercolor="#666666"
     borderopacity="1"
     objecttolerance="10"
     gridtolerance="10"
     guidetolerance="10"
     inkscape:pageopacity="0"
     inkscape:pageshadow="2"
     inkscape:window-width="1218"
     inkscape:window-height="697"
     id="namedview5"
     showgrid="false"
     units="px"
     inkscape:zoom="1.5733302"
     inkscape:cx="75.000148"
     inkscape:cy="75.000148"
     inkscape:window-x="54"
     inkscape:window-y="-8"
     inkscape:window-maximized="1"
     inkscape:current-layer="svg2" />
  <path
     id="Initiative"
     d="m 271.17311,93.155041 c 13.29378,0 26.58756,-13.29378 26.58756,-26.58756 0,-13.293778 -13.29378,-26.587558 -26.58756,-26.587558 -13.29378,0 -26.58756,13.29378 -26.58756,26.587558 0,13.29378 13.29378,26.58756 26.58756,26.58756 z m -59.0034,12.153309 c 0,0 -17.03003,-0.46878 -17.03003,-0.46878 0,0 -32.18494,41.0498 -32.18494,41.0498 -2.84067,2.41387 -7.92729,2.32991 -11.19476,-1.16846 -3.26048,-3.49836 -3.66629,-10.0263 -1.86113,-12.825 0,0 37.78232,-48.746188 37.78232,-48.746188 0,0 54.80536,0 54.80536,0 0,0 33.58428,37.082648 33.58428,37.082648 0,0 26.19575,-29.092386 27.05634,-29.848033 0.8606,-0.762643 6.13613,-2.525818 10.64202,2.679746 4.4989,5.205565 2.41388,12.244267 2.41388,12.244267 0,0 -34.4239,39.83936 -34.4239,39.83936 0,0 -2.28793,2.06404 -5.03064,2.00806 -3.16952,-0.063 -7.18564,-2.66575 -7.18564,-2.66575 0,0 -19.22701,-21.73183 -19.22701,-21.73183 0,0 -27.18927,37.8243 -27.18927,37.8243 0,0 26.82544,32.88462 26.82544,32.88462 0,0 1.0775,1.44132 1.32239,4.28899 0.1959,2.26694 -0.4338,6.07316 -0.4338,6.07316 0,0 -16.05049,81.76374 -16.05049,81.76374 0,0 -5.1286,9.55753 -13.52467,7.45851 -8.39608,-2.09902 -10.03331,-12.35622 -10.03331,-12.35622 0,0 12.36322,-66.00711 12.36322,-66.00711 0,0 -29.15536,-32.18494 -29.15536,-32.18494 0,0 -29.38625,36.62086 -29.38625,36.62086 0,0 -65.769231,-0.23789 -65.769231,-0.23789 0,0 -8.85786,-2.79869 -9.09574,-13.05589 -0.2309,-10.2642 8.86485,-13.53167 8.86485,-13.53167 0,0 48.046521,-0.46178 48.046521,-0.46178 0,0 65.06955,-86.52852 65.06955,-86.52852 z M 64.769679,79.420467 c 17.49181,0 52.475451,0 69.967261,0 17.49182,0 17.49182,17.491816 0,17.491816 -17.49181,0 -52.475451,0 -69.967261,0 -17.49182,0 -17.49182,-17.491816 0,-17.491816 z M 29.786049,114.4041 c -17.491818,0 -17.491818,17.49181 0,17.49181 17.49181,0 52.47544,0 69.96726,0 17.491821,0 17.491821,-17.49181 0,-17.49181 -17.49182,0 -54.57446,0 -69.96726,0 z m 17.49181,34.98363 c -17.49181,0 -17.49181,17.49182 0,17.49182 17.49182,0 52.47545,0 69.967271,0 17.49181,0 17.49181,-17.49182 0,-17.49182 -17.491821,0 -52.475451,0 -69.967271,0 z"
     inkscape:connector-curvature="0"
     style="fill:#000000;fill-opacity:1;stroke:none;stroke-width:1" />
</svg>
