<?xml version="1.0" encoding="UTF-8" standalone="no"?>
<svg
   xmlns:dc="http://purl.org/dc/elements/1.1/"
   xmlns:cc="http://creativecommons.org/ns#"
   xmlns:rdf="http://www.w3.org/1999/02/22-rdf-syntax-ns#"
   xmlns:svg="http://www.w3.org/2000/svg"
   xmlns="http://www.w3.org/2000/svg"
   xmlns:sodipodi="http://sodipodi.sourceforge.net/DTD/sodipodi-0.dtd"
   xmlns:inkscape="http://www.inkscape.org/namespaces/inkscape"
   width="100"
   height="100"
   viewBox="0 0 333.33269 333.33269"
   id="svg2"
   version="1.1"
   inkscape:version="0.91 r13725"
   sodipodi:docname="Instinct.svg">
  <metadata
     id="metadata9">
    <rdf:RDF>
      <cc:Work
         rdf:about="">
        <dc:format>image/svg+xml</dc:format>
        <dc:type
           rdf:resource="http://purl.org/dc/dcmitype/StillImage" />
        <dc:title></dc:title>
      </cc:Work>
    </rdf:RDF>
  </metadata>
  <defs
     id="defs7" />
  <sodipodi:namedview
     pagecolor="#ffffff"
     bordercolor="#666666"
     borderopacity="1"
     objecttolerance="10"
     gridtolerance="10"
     guidetolerance="10"
     inkscape:pageopacity="0"
     inkscape:pageshadow="2"
     inkscape:window-width="1218"
     inkscape:window-height="697"
     id="namedview5"
     showgrid="false"
     units="px"
     inkscape:zoom="1.5733302"
     inkscape:cx="75.000148"
     inkscape:cy="75.000148"
     inkscape:window-x="54"
     inkscape:window-y="-8"
     inkscape:window-maximized="1"
     inkscape:current-layer="svg2" />
  <path
     id="Unnamed"
     d="m 196.38173,303.65729 c 0,0 -1.82971,-25.37484 -6.61675,-34.98438 -2.75875,-5.53168 -9.723,-5.23382 -11.82221,-10.40382 -2.74457,-6.77278 -2.3616,-13.2335 -2.3616,-13.2335 0,0 -11.19812,-6.55292 -18.43896,-16.07735 -6.56001,-8.63085 -9.21948,-20.3325 -9.21948,-20.3325 0,0 -25.40321,15.21214 -40.42386,6.85787 -15.580921,-8.65921 -20.800571,-40.89902 -20.800571,-40.89902 -8.98544,7.09191 -49.30293,4.9927 -42.55143,-21.27572 -16.07736,8.98544 -27.06272,-5.73026 -17.49574,-17.9638 -14.29728,5.14163 -12.290271,-24.11248 0,-23.63733 -9.45351,-10.87898 -3.31192,-31.204382 8.03513,-26.949239 -8.03513,-15.602194 6.62384,-31.204385 19.85734,-20.807653 -4.72321,-16.070257 15.13413,-36.402754 28.36763,-22.21894 -1.88645,-12.765432 40.296211,-15.339794 45.388201,-3.311921 6.25506,-10.609492 47.75689,-15.602194 52.01204,1.418382 8.03513,-12.290275 40.6579,-5.198368 36.40275,12.765431 15.6022,-8.510287 41.13306,-1.886447 38.77145,13.715745 13.2335,-8.985445 39.71468,10.871892 31.18312,24.431617 18.46023,-0.319136 21.29699,19.063048 11.36832,26.154948 13.70866,1.89354 18.43896,21.27572 7.55998,26.00602 15.23341,2.8084 12.82925,22.71538 4.25514,40.65791 6.93588,15.54545 -1.34037,24.99897 -15.57383,30.36045 1.73752,22.47425 -21.62322,20.46724 -22.24731,19.28289 4.13458,4.05657 1.63114,29.31085 -22.21894,26.94924 -11.13429,6.74441 -26.94924,2.83677 -26.94924,2.83677 0,0 -6.14869,8.03513 -6.14869,8.03513 0,0 4.7303,33.57308 4.7303,33.57308 0,0 -25.06279,-0.95031 -25.06279,-0.95031 z m 72.28071,-115.12292 c -8.1557,1.59568 -20.7722,16.99221 -31.55899,-1.41838 -11.93567,8.3259 -23.50257,17.80068 -43.08333,3.90055 -2.9786,16.01352 -14.23345,18.67299 -24.11248,19.9779 14.198,1.87935 22.28986,-4.38989 26.83577,-13.54554 19.38928,10.34709 28.97044,0.29076 39.35299,-5.36858 11.58818,11.23358 22.14093,4.10622 30.11933,1.64533 2.40416,13.52426 25.62306,7.55288 24.25432,13.01364 -2.74457,-8.04931 -19.89989,-4.48208 -21.80761,-18.20492 z m -86.93259,51.29576 c 7.19828,-15.48872 51.6929,7.1841 48.22496,14.65897 -4.7303,-6.61675 -35.45953,-22.6941 -48.22496,-14.65897 z"
     inkscape:connector-curvature="0"
     style="fill:#000000;fill-opacity:1;stroke:none;stroke-width:1" />
</svg>
