<?xml version="1.0" encoding="UTF-8" standalone="no"?>
<svg
   xmlns:dc="http://purl.org/dc/elements/1.1/"
   xmlns:cc="http://creativecommons.org/ns#"
   xmlns:rdf="http://www.w3.org/1999/02/22-rdf-syntax-ns#"
   xmlns:svg="http://www.w3.org/2000/svg"
   xmlns="http://www.w3.org/2000/svg"
   xmlns:sodipodi="http://sodipodi.sourceforge.net/DTD/sodipodi-0.dtd"
   xmlns:inkscape="http://www.inkscape.org/namespaces/inkscape"
   width="100"
   height="100"
   viewBox="0 0 333.33269 333.33269"
   id="svg2"
   version="1.1"
   inkscape:version="0.91 r13725"
   sodipodi:docname="intelDocs.svg">
  <metadata
     id="metadata9">
    <rdf:RDF>
      <cc:Work
         rdf:about="">
        <dc:format>image/svg+xml</dc:format>
        <dc:type
           rdf:resource="http://purl.org/dc/dcmitype/StillImage" />
        <dc:title></dc:title>
      </cc:Work>
    </rdf:RDF>
  </metadata>
  <defs
     id="defs7" />
  <sodipodi:namedview
     pagecolor="#ffffff"
     bordercolor="#666666"
     borderopacity="1"
     objecttolerance="10"
     gridtolerance="10"
     guidetolerance="10"
     inkscape:pageopacity="0"
     inkscape:pageshadow="2"
     inkscape:window-width="1218"
     inkscape:window-height="697"
     id="namedview5"
     showgrid="false"
     units="px"
     inkscape:zoom="1.5733302"
     inkscape:cx="75.000148"
     inkscape:cy="75.000148"
     inkscape:window-x="54"
     inkscape:window-y="-8"
     inkscape:window-maximized="1"
     inkscape:current-layer="svg2" />
  <path
     id="Selection #26"
     d="m 182.37809,16.666632 c 7.83554,0.01429 8.89266,3.1785 14.28539,8.571234 0,0 17.85674,17.856739 17.85674,17.856739 0,0 21.42809,21.428083 21.42809,21.428083 5.51416,5.514161 9.27121,6.985556 9.2855,14.99966 0,0 0,116.425932 0,116.425932 4.78561,0.22142 7.65697,1.11426 12.14258,2.62137 22.8352,7.68554 41.14193,30.78501 41.42763,55.23446 0.29285,25.19943 -14.14968,48.64175 -37.85628,58.24868 -8.51409,3.44992 -15.86393,4.71417 -24.99943,4.60703 -8.88552,-0.10714 -20.24954,-3.64991 -27.85651,-8.17838 0,0 -13.57113,-9.27836 -13.57113,-9.27836 -1.46425,-0.47856 -3.44992,-0.39999 -4.99988,-0.39999 0,0 -154.996489,0 -154.996489,0 0,0 0,-282.136458 0,-282.136458 0,0 147.853789,0 147.853789,0 z M 48.809691,30.952022 c 0,0 0,253.565678 0,253.565678 0,0 135.711209,0 135.711209,0 0,0 -2.81422,-7.1427 -2.81422,-7.1427 -2.29281,-5.99986 -4.2499,-13.56398 -4.32847,-19.99955 -0.33571,-29.20648 23.77803,-58.99151 53.57021,-61.42717 0,0 0,-111.426046 0,-111.426046 0,0 -53.57021,0 -53.57021,0 0,0 0,-53.570212 0,-53.570212 0,0 -128.568519,0 -128.568519,0 z M 191.6636,51.665839 c 0,0 0,18.571005 0,18.571005 0,0 28.57078,0 28.57078,0 0,0 -27.85651,-28.570778 -27.85651,-28.570778 0,0 -0.71427,9.999773 -0.71427,9.999773 z m -17.85674,18.571005 c 0,0 0,14.28539 0,14.28539 0,0 -103.569083,0 -103.569083,0 0,0 0,-14.28539 0,-14.28539 0,0 103.569083,0 103.569083,0 z m 53.57021,53.570216 c 0,0 0,14.28539 0,14.28539 0,0 -157.139293,0 -157.139293,0 0,0 0,-14.28539 0,-14.28539 0,0 157.139293,0 157.139293,0 z m 0,53.57021 c 0,0 0,14.28539 0,14.28539 0,0 -157.139293,0 -157.139293,0 0,0 0,-14.28539 0,-14.28539 0,0 157.139293,0 157.139293,0 z m -33.54924,64.99852 c -2.58565,8.12839 -1.35711,8.91409 -1.79996,16.4282 -0.31427,5.34274 2.12138,12.39258 4.46419,17.14247 8.2141,16.67105 26.9351,28.5565 45.88467,26.22084 7.39269,-0.90713 13.65683,-3.03565 19.99955,-6.97842 10.62119,-6.60699 18.59243,-17.62103 21.10666,-29.95646 0.95712,-4.68561 0.39999,-7.54269 0.67142,-12.14258 0.70712,-12.13544 -8.60695,-25.93513 -17.49246,-33.3421 -4.19991,-3.49278 -10.4712,-6.71414 -15.71393,-8.28553 -5.61416,-1.68568 -11.31403,-2.28566 -17.14247,-1.73567 -18.74243,2.85707 -34.09209,14.11396 -39.97767,32.64925 z m 79.26249,2.85708 c 2.13567,2.12138 8.55695,7.76411 8.55695,10.71405 0,2.8785 -5.79987,7.9641 -7.84268,9.99977 -9.47121,9.45693 -20.65667,16.97104 -34.28494,18.24244 -12.71399,1.17855 -27.87794,-9.02122 -36.42774,-17.52817 -2.13567,-2.12138 -8.55695,-7.76411 -8.55695,-10.71404 0,-2.87851 5.79987,-7.96411 7.84268,-9.99978 10.29262,-10.27834 19.76384,-16.2782 34.28494,-18.24244 13.38541,-0.6857 27.34223,8.48552 36.42774,17.52817 z m -99.28346,-14.28539 c 0,0 0,14.28539 0,14.28539 0,0 -103.569083,0 -103.569083,0 0,0 0,-14.28539 0,-14.28539 0,0 103.569083,0 103.569083,0 z m 44.28471,19.20671 c -1.57854,1.2214 -4.85703,3.6142 -4.85703,5.79273 0,2.17852 3.27849,4.57132 4.85703,5.79272 4.32133,3.34993 13.65683,9.94263 19.28528,7.7784 -9.12837,-0.97141 -16.10678,-10.60691 -11.48546,-19.28528 3.14279,-5.90701 6.23557,-6.07843 11.48546,-8.57123 -7.39269,0.16428 -13.58541,4.07133 -19.28528,8.49266 z m 39.99909,11.58545 c 1.57854,-1.2214 4.85703,-3.6142 4.85703,-5.79272 0,-2.17853 -3.27849,-4.57133 -4.85703,-5.79273 -4.32133,-3.34992 -13.65683,-9.94263 -19.28528,-7.7784 9.12837,0.97141 16.10678,10.60691 11.48546,19.28528 -3.14279,5.90701 -6.23557,6.07844 -11.48546,8.57124 7.39269,-0.16429 13.58541,-4.07134 19.28528,-8.49267 z"
     inkscape:connector-curvature="0"
     style="fill:#000000;fill-opacity:1;stroke:none;stroke-width:1" />
</svg>
