<?xml version="1.0" encoding="UTF-8" standalone="no"?>
<svg
   xmlns:dc="http://purl.org/dc/elements/1.1/"
   xmlns:cc="http://creativecommons.org/ns#"
   xmlns:rdf="http://www.w3.org/1999/02/22-rdf-syntax-ns#"
   xmlns:svg="http://www.w3.org/2000/svg"
   xmlns="http://www.w3.org/2000/svg"
   xmlns:sodipodi="http://sodipodi.sourceforge.net/DTD/sodipodi-0.dtd"
   xmlns:inkscape="http://www.inkscape.org/namespaces/inkscape"
   width="100"
   height="100"
   viewBox="0 0 333.33269 333.33269"
   id="svg2"
   version="1.1"
   inkscape:version="0.91 r13725"
   sodipodi:docname="jaildog.svg">
  <metadata
     id="metadata9">
    <rdf:RDF>
      <cc:Work
         rdf:about="">
        <dc:format>image/svg+xml</dc:format>
        <dc:type
           rdf:resource="http://purl.org/dc/dcmitype/StillImage" />
        <dc:title></dc:title>
      </cc:Work>
    </rdf:RDF>
  </metadata>
  <defs
     id="defs7" />
  <sodipodi:namedview
     pagecolor="#ffffff"
     bordercolor="#666666"
     borderopacity="1"
     objecttolerance="10"
     gridtolerance="10"
     guidetolerance="10"
     inkscape:pageopacity="0"
     inkscape:pageshadow="2"
     inkscape:window-width="1218"
     inkscape:window-height="697"
     id="namedview5"
     showgrid="false"
     units="px"
     inkscape:zoom="1.5733302"
     inkscape:cx="75.000148"
     inkscape:cy="75.000148"
     inkscape:window-x="54"
     inkscape:window-y="-8"
     inkscape:window-maximized="1"
     inkscape:current-layer="svg2" />
  <path
     id="Selection #45"
     d="m 29.432569,23.049603 c 0,0 0,287.233487 0,287.233487 0,0 -12.765932,0 -12.765932,0 0,0 0,-287.233487 0,-287.233487 0,0 12.765932,0 12.765932,0 z m 95.744501,0 c 0,0 0,287.233487 0,287.233487 0,0 -12.76594,0 -12.76594,0 0,0 0,-287.233487 0,-287.233487 0,0 12.76594,0 12.76594,0 z m 95.74449,0 c 0,0 0,84.255157 0,84.255157 0,1.1617 0.0894,3.22978 -0.36383,4.26382 -1.23191,2.80212 -8.26594,5.5851 -11.12551,6.58722 -2.09999,-4.97871 -1.28297,-12.39572 -1.27659,-17.87231 0.0191,-12.663801 5.65531,-25.908456 5.74467,-33.191419 0,0 0,-5.106372 0,-5.106372 -0.13404,-11.138277 -5.69361,-11.42551 -5.74467,-19.787197 0,0 0,-19.148899 0,-19.148899 0,0 12.76593,0 12.76593,0 z m 95.7445,0 c 0,0 0,287.233487 0,287.233487 0,0 -12.76593,0 -12.76593,0 0,0 0,-287.233487 0,-287.233487 0,0 12.76593,0 12.76593,0 z M 128.75153,114.32602 c 0.55532,-1.51276 1.71063,-2.69361 2.82127,-3.81701 8.26594,-8.38722 10.07232,-2.20851 17.1638,-9.59998 8.017,-8.348925 18.134,-25.933997 24.04463,-36.370145 3.05744,-5.399989 7.58935,-15.280822 12.39572,-18.74039 7.70424,-5.546798 20.02337,1.078721 23.90421,8.636154 1.81915,3.542547 1.67234,8.138283 1.62766,12.019126 -0.0894,7.563813 -2.31702,9.191469 -3.54893,14.048907 -1.62766,6.427647 -4.18085,22.270168 -4.11063,28.716968 0.0447,3.61276 1.58936,12.21061 6.38296,12.1787 1.55745,-0.0128 5.52127,-2.01064 7.02127,-2.77021 7.76168,-3.93191 8.19573,-3.53616 14.5021,-10.68509 4.21275,-4.78084 7.91487,-10.506358 14.83401,-6.02552 9.517,6.16595 7.44254,17.48933 2.57234,25.81272 0,0 -24.61272,33.19142 -24.61272,33.19142 0,0 -4.53191,7.02127 -4.53191,7.02127 0,0 -10.42338,14.68082 -10.42338,14.68082 0,0 -1.2766,-0.63829 -1.2766,-0.63829 0,0 -9.40849,16.59571 -9.40849,16.59571 -5.38084,10.42338 -6.26169,14.18295 -8.08722,25.53187 -1.56382,9.72125 -4.19361,30.81696 -4.26382,40.21268 0,0 0,15.31912 0,15.31912 0.0766,1.62128 0.58085,4.95319 0,6.23616 -1.23829,2.1 -3.74042,1.93404 -4.94041,0 -0.88724,-1.42978 -0.74681,-3.94467 -0.74681,-5.59786 0,0 0,-17.87231 0,-17.87231 0,0 3.1085,-32.55312 3.1085,-32.55312 1.22553,-8.84041 2.15745,-17.1638 5.47659,-25.53187 8.317,-20.95528 29.73824,-46.17438 43.51906,-64.46797 0,0 3.82978,-5.10637 3.82978,-5.10637 5.32978,-7.11062 18.37656,-23.06804 4.06595,-28.72335 -1.96595,4.1617 -8.96168,11.32339 -12.76593,14.017 -2.48297,1.75531 -6.81063,4.29573 -9.57445,5.57233 -1.85744,0.85531 -7.08509,3.1468 -8.93615,3.12127 -2.67447,-0.0319 -5.18297,-2.29149 -6.81063,-4.21276 -5.04254,-5.92977 -4.76169,-11.89146 -4.67871,-19.13613 0.0574,-4.63404 2.61063,-20.068049 3.75318,-24.893571 2.34893,-9.906362 5.27233,-14.693586 1.35319,-24.893567 -3.47872,5.323394 -5.43829,1.831912 -9.57445,3.842546 -1.99148,0.970211 -3.19786,2.872335 -5.74467,3.542546 -2.68723,0.695744 -4.54467,-0.823402 -6.68296,1.136168 -1.46809,1.346806 -5.41276,9.012747 -6.72765,11.265934 -4.67872,8.010623 -10.09785,17.004222 -15.82337,24.255272 -2.64255,3.344672 -5.8851,7.825522 -9.70211,9.778702 -3.52978,1.80638 -6.42765,1.08511 -9.56807,3.20425 -3.71489,2.52127 -6.62552,7.03403 -10.21913,9.99573 0,-1.90213 -0.19149,-6.7468 0.38298,-8.29786 z m 55.14883,-57.446694 c 0,0 7.02126,-3.134037 7.02126,-3.134037 0,0 6.38297,-1.33404 6.38297,-1.33404 0,0 0,-1.276593 0,-1.276593 -7.53829,-3.20425 -9.65105,-1.22553 -13.40423,5.74467 z M 163.4621,125.81536 c -0.18511,6.94467 -7.26382,14.59146 -14.02976,15.5872 -5.34893,0.78511 -4.37233,-5.34892 -3.91276,-8.56594 1.04043,-7.25743 3.35106,-11.93614 10.93402,-13.74252 5.98084,-0.81064 7.16807,0.98936 7.0085,6.72126 z m -12.11487,8.29785 c 4.04042,-2.36808 5.87233,-4.16807 6.38297,-8.93615 -5.00425,0.81064 -5.97446,4.41063 -6.38297,8.93615 z m -42.7212,17.23401 c -1.37872,3.53617 -9.721255,11.74466 -12.810611,14.41274 -12.427635,10.72977 -23.470167,18.25529 -37.021204,27.28719 -5.176586,3.45318 -15.402098,9.49785 -17.81486,15.10848 -1.653188,3.84255 0.497872,7.81913 2.834037,10.85104 5.176586,6.72765 11.438277,11.03615 20.087196,10.84466 9.574449,-0.2234 26.208459,-5.80211 33.829721,-11.63614 7.072331,-5.39999 6.765941,-7.19999 11.489341,-11.33615 0,2.15106 0.21702,7.14254 -0.47234,8.93615 -1.49361,3.89999 -10.410619,9.79147 -14.208484,11.81487 -1.768082,0.94468 -4.065949,1.65957 -5.425521,3.11489 -1.206381,1.28936 -4.148928,8.51488 -5.05531,10.60211 -2.336165,5.3553 -5.189351,10.48083 -8.45743,15.31911 -1.519146,2.25319 -5.661691,7.65318 -7.895729,8.90424 -1.665954,0.93192 -4.059567,0.91277 -4.608502,-1.31489 -0.555318,-2.27872 4.28297,-6.96381 5.776584,-8.86594 4.161694,-5.30424 10.027641,-16.57656 12.261679,-22.97868 -3.772333,1.22553 -15.491459,3.89999 -19.148899,3.62553 -3.517014,-0.26809 -7.008497,-1.05319 -10.212746,-2.55319 -10.551044,-4.93403 -22.385063,-18.47869 -15.01912,-30.43398 2.77659,-4.51276 6.3702,-6.6702 10.551043,-9.66381 0,0 19.787196,-13.32764 19.787196,-13.32764 11.048915,-7.62127 24.191442,-17.38082 33.006319,-27.43399 0,0 8.52764,-10.85105 8.52764,-10.85105 0.8617,2.28511 0.97021,7.28297 0,9.57445 z m 112.29553,33.82973 c 0,0 0,28.08505 0,28.08505 0,0 0,97.02109 0,97.02109 0,0 -12.76593,0 -12.76593,0 0,0 0,-116.16999 0,-116.16999 0,0 0.44681,-5.10637 0.44681,-5.10637 0,0 11.68083,-17.23401 11.68083,-17.23401 0,0 0.63829,13.40423 0.63829,13.40423 z m -115.73595,12.517 c -1.24467,1.33404 -6.242537,3.73403 -8.093597,4.6085 -8.987217,4.25106 -13.174443,5.46382 -22.978679,6.82977 -2.572336,0.15958 -6.395733,0.62553 -8.936153,0 -3.625525,-0.51702 -4.3468,-3.38297 -2.348931,-4.94679 1.429784,-1.12341 3.255312,-0.59362 4.902117,-0.57447 0,0 8.936153,-0.84255 8.936153,-0.84255 5.131905,-0.80426 11.240404,-2.85957 15.957416,-5.0234 3.268079,-1.49361 7.493604,-4.28935 10.838274,-4.92126 2.75106,0.65744 3.91276,2.53403 1.7234,4.8702 z m 38.50206,0.10213 c 4.58935,-1.96596 6.96382,-5.10638 9.47871,-4.07234 4.92765,2.01064 -1.74255,6.89361 -3.73404,7.97233 -7.35318,3.96382 -13.09146,3.68297 -21.06379,2.62978 0,0 0,-6.52977 0,-6.52977 5.60425,1.76808 9.77232,2.04893 15.31912,0 z"
     inkscape:connector-curvature="0"
     style="fill:#000000;fill-opacity:1;stroke:none;stroke-width:1" />
</svg>
