<?xml version="1.0" encoding="UTF-8" standalone="no"?>
<svg
   xmlns:dc="http://purl.org/dc/elements/1.1/"
   xmlns:cc="http://creativecommons.org/ns#"
   xmlns:rdf="http://www.w3.org/1999/02/22-rdf-syntax-ns#"
   xmlns:svg="http://www.w3.org/2000/svg"
   xmlns="http://www.w3.org/2000/svg"
   xmlns:sodipodi="http://sodipodi.sourceforge.net/DTD/sodipodi-0.dtd"
   xmlns:inkscape="http://www.inkscape.org/namespaces/inkscape"
   width="100"
   height="100"
   viewBox="0 0 333.33269 333.33269"
   id="svg2"
   version="1.1"
   inkscape:version="0.91 r13725"
   sodipodi:docname="JeffersonMemorial.svg">
  <metadata
     id="metadata9">
    <rdf:RDF>
      <cc:Work
         rdf:about="">
        <dc:format>image/svg+xml</dc:format>
        <dc:type
           rdf:resource="http://purl.org/dc/dcmitype/StillImage" />
        <dc:title></dc:title>
      </cc:Work>
    </rdf:RDF>
  </metadata>
  <defs
     id="defs7" />
  <sodipodi:namedview
     pagecolor="#ffffff"
     bordercolor="#666666"
     borderopacity="1"
     objecttolerance="10"
     gridtolerance="10"
     guidetolerance="10"
     inkscape:pageopacity="0"
     inkscape:pageshadow="2"
     inkscape:window-width="1218"
     inkscape:window-height="697"
     id="namedview5"
     showgrid="false"
     units="px"
     inkscape:zoom="1.5733302"
     inkscape:cx="75.000148"
     inkscape:cy="75.000148"
     inkscape:window-x="54"
     inkscape:window-y="-8"
     inkscape:window-maximized="1"
     inkscape:current-layer="svg2" />
  <path
     id="Selection #3"
     d="m 107.8836,125.57302 c 2.20601,-5.61408 13.57287,-16.65071 18.49345,-20.38903 25.87762,-19.682309 59.397,-19.365279 83.881,2.66834 4.03554,3.63265 13.26905,12.83974 15.19105,17.72069 0.64727,1.6446 0.62085,2.91272 0.66048,4.62336 0,0 13.20961,0 13.20961,0 0,0 0,13.87009 0,13.87009 6.28777,0 19.52379,0.2774 24.0679,4.97342 2.12674,2.1994 2.31168,4.70262 2.35131,7.57571 0,0 0,31.04257 0,31.04257 0,0 0,15.85153 0,15.85153 0,2.18619 -0.2708,6.03679 0.67369,7.92576 2.08051,4.13461 5.11872,4.61676 9.23351,4.62337 0,0 29.72162,0 29.72162,0 0,0 0.67369,15.19104 0.67369,15.19104 0,0 9.89399,11.22817 9.89399,11.22817 0,0 -298.537105,0 -298.537105,0 0,0 9.89399,-11.22817 9.89399,-11.22817 0,0 0.67369,-15.19104 0.67369,-15.19104 0,0 30.3821,0 30.3821,0 6.90862,-0.0462 9.23351,-3.34864 9.24672,-9.90721 0,0 0,-49.53602 0,-49.53602 0.033,-2.61551 0.15852,-4.90737 1.88237,-7.04733 4.22047,-5.23761 18.19623,-5.5018 24.53684,-5.5018 0,0 0,-13.87009 0,-13.87009 0,0 13.209615,0 13.209615,0 0.0396,-1.71064 0.0132,-2.97876 0.66048,-4.62336 z m 97.09061,-14.33903 c -21.53826,-18.176414 -50.57958,-18.876524 -73.31332,-2.54945 -4.66299,3.34864 -15.23728,13.03128 -17.27156,18.20944 -0.48215,1.2285 -0.46894,2.03428 -0.56141,3.3024 0,0 105.67686,0 105.67686,0 -0.50197,-6.99448 -9.39203,-14.62303 -14.53057,-18.96239 z m -104.35589,25.5672 c 0,0 0,6.6048 0,6.6048 15.56752,0 10.05911,-0.0594 24.43777,-3.1637 3.05142,-0.66048 10.68657,-2.27866 13.20961,-3.4411 0,0 -37.64738,0 -37.64738,0 z m 66.70851,0.1387 c 0,0 -13.20961,2.58248 -13.20961,2.58248 0,0 -15.19104,3.88362 -15.19104,3.88362 0,0 38.30786,0 38.30786,0 0,0 17.17248,-0.66048 17.17248,-0.66048 0,0 -27.07969,-5.80562 -27.07969,-5.80562 z m 40.2893,-0.1387 c 0,0 -12.54913,0.66048 -12.54913,0.66048 0,0 25.09826,5.54143 25.09826,5.54143 0,0 12.54912,0.40289 12.54912,0.40289 0,0 0,-6.6048 0,-6.6048 0,0 -25.09825,0 -25.09825,0 z m 50.4607,16.31386 c -1.59837,-1.67762 -6.55197,-2.21261 -8.85044,-2.52964 -7.44361,-1.03695 -16.16195,-0.57462 -23.77729,-0.57462 0,0 -112.28166,0 -112.28166,0 0,0 -28.400655,0.48215 -28.400655,0.48215 -2.42396,0.34345 -7.8333,0.85863 -9.51092,2.62211 -1.40682,1.47287 -1.05676,4.84793 -1.05676,6.80295 12.29153,-3.99591 33.611845,-3.3024 46.894105,-3.3024 0,0 76.61572,0 76.61572,0 0,0 36.32641,0 36.32641,0 0,0 6.60481,0.60103 6.60481,0.60103 7.07374,0.48215 11.51217,0.43592 18.49344,2.70137 0,-1.95502 0.35006,-5.33008 -1.05676,-6.80295 z M 94.013505,163.2204 c 0,0 0,46.23362 0,46.23362 0,0 6.604815,0 6.604815,0 0,0 0,-46.23362 0,-46.23362 0,0 -6.604815,0 -6.604815,0 z m 19.814415,0 c 0,0 0,46.23362 0,46.23362 0,0 6.60481,0 6.60481,0 0,0 0,-46.23362 0,-46.23362 0,0 -6.60481,0 -6.60481,0 z m 19.81441,0 c 0,0 0,46.23362 0,46.23362 0,0 6.60481,0 6.60481,0 0,0 0,-46.23362 0,-46.23362 0,0 -6.60481,0 -6.60481,0 z m 19.81441,0 c 0,0 0,46.23362 0,46.23362 0,0 6.60481,0 6.60481,0 0,0 0.40949,-23.77729 0.40949,-23.77729 0.59444,-3.08444 2.50983,-6.96807 6.19531,-6.96807 3.68548,0 5.60087,3.88363 6.19531,6.96807 0,0 0.40949,23.77729 0.40949,23.77729 0,0 6.60481,0 6.60481,0 0,0 0,-46.23362 0,-46.23362 0,0 -26.41922,0 -26.41922,0 z m 39.62882,0 c 0,0 0,46.23362 0,46.23362 0,0 6.60481,0 6.60481,0 0,0 0,-46.23362 0,-46.23362 0,0 -6.60481,0 -6.60481,0 z m 19.81441,0 c 0,0 0,46.23362 0,46.23362 0,0 6.60481,0 6.60481,0 0,0 0,-46.23362 0,-46.23362 0,0 -6.60481,0 -6.60481,0 z m 19.81441,0 c 0,0 0,46.23362 0,46.23362 0,0 6.60481,0 6.60481,0 0,0 0,-46.23362 0,-46.23362 0,0 -6.60481,0 -6.60481,0 z m -158.515275,7.92576 c 0,0 0,38.30786 0,38.30786 0,0 6.6048,0 6.6048,0 0,0 0,-44.91266 0,-44.91266 -5.30366,0.48215 -6.57178,1.26812 -6.6048,6.6048 z m 184.934485,0.66048 c -0.0132,-5.62068 -0.64727,-6.72369 -6.6048,-7.26528 0,0 0,44.91266 0,44.91266 0,0 6.6048,0 6.6048,0 0,0 0,-37.64738 0,-37.64738 z m 14.53057,50.85699 c -8.87025,-0.0198 -6.55196,-3.26277 -11.88864,-5.93111 -1.60497,-0.79919 -3.53357,-0.66709 -5.28385,-0.67369 0,0 -117.56549,0 -117.56549,0 0,0 -63.406115,0 -63.406115,0 -6.72369,0.12549 -6.06982,3.67887 -10.56769,5.93111 -1.60497,0.79918 -3.53357,0.66708 -5.28384,0.67369 0,0 -25.09825,0 -25.09825,0 0,5.57445 0.81239,8.17014 -1.98145,13.2096 0,0 268.155025,0 268.155025,0 -2.79384,-5.03946 -1.98145,-7.63515 -1.98145,-13.2096 0,0 -25.09825,0 -25.09825,0 z"
     inkscape:connector-curvature="0"
     style="fill:#000000;fill-opacity:1;stroke:none;stroke-width:0.66048032" />
</svg>
