<?xml version="1.0" encoding="UTF-8" standalone="no"?>
<svg
   xmlns:dc="http://purl.org/dc/elements/1.1/"
   xmlns:cc="http://creativecommons.org/ns#"
   xmlns:rdf="http://www.w3.org/1999/02/22-rdf-syntax-ns#"
   xmlns:svg="http://www.w3.org/2000/svg"
   xmlns="http://www.w3.org/2000/svg"
   xmlns:sodipodi="http://sodipodi.sourceforge.net/DTD/sodipodi-0.dtd"
   xmlns:inkscape="http://www.inkscape.org/namespaces/inkscape"
   width="100"
   height="100"
   viewBox="0 0 333.33266 333.33266"
   id="svg2"
   version="1.1"
   inkscape:version="0.91 r13725"
   sodipodi:docname="jungle.svg">
  <metadata
     id="metadata9">
    <rdf:RDF>
      <cc:Work
         rdf:about="">
        <dc:format>image/svg+xml</dc:format>
        <dc:type
           rdf:resource="http://purl.org/dc/dcmitype/StillImage" />
        <dc:title></dc:title>
      </cc:Work>
    </rdf:RDF>
  </metadata>
  <defs
     id="defs7" />
  <sodipodi:namedview
     pagecolor="#ffffff"
     bordercolor="#666666"
     borderopacity="1"
     objecttolerance="10"
     gridtolerance="10"
     guidetolerance="10"
     inkscape:pageopacity="0"
     inkscape:pageshadow="2"
     inkscape:window-width="1218"
     inkscape:window-height="697"
     id="namedview5"
     showgrid="false"
     units="px"
     inkscape:zoom="1.5733302"
     inkscape:cx="75.000148"
     inkscape:cy="75.000148"
     inkscape:window-x="54"
     inkscape:window-y="-8"
     inkscape:window-maximized="1"
     inkscape:current-layer="svg2" />
  <path
     id="Selection #31"
     d="m 134.22263,26.982161 c 5.70731,1.628768 16.01621,4.283792 20.52512,7.819409 7.1242,5.581509 12.93083,18.360051 15.89042,26.887908 0,0 1.3242,0 1.3242,0 1.05936,-3.701143 2.6815,-6.018496 4.6347,-9.269409 3.05891,-5.091554 8.11736,-13.639274 13.24864,-16.532654 7.77306,-4.369864 23.49133,-4.555252 32.43631,-4.654567 0,0 6.62101,-0.635617 6.62101,-0.635617 0,0 7.9452,0 7.9452,0 0,0 9.93151,0.635617 9.93151,0.635617 0,0 9.26941,0 9.26941,0 0,0 9.26941,0.688584 9.26941,0.688584 0,0 7.28311,0 7.28311,0 0,0 7.94521,0.635617 7.94521,0.635617 3.22443,0.0066 5.80662,-0.489955 8.60731,1.324201 -10.84521,3.760732 -39.24933,15.691786 -48.99545,21.094527 -7.68037,4.263928 -13.91074,7.091098 -17.87672,15.32101 7.90548,-3.674659 23.84224,-8.600688 32.44293,-6.971921 11.37489,2.145207 24.92809,16.618725 32.4959,24.848636 3.05229,3.317125 7.82603,8.090871 9.87855,11.917808 0,0 -28.47033,-3.310499 -28.47033,-3.310499 0,0 -12.57992,0 -12.57992,0 0,0 -3.3105,0 -3.3105,0 -6.9653,0.08607 -26.9806,6.952059 -33.76714,9.931509 0,0 19.20092,7.27649 19.20092,7.27649 6.15754,1.33082 19.31348,2.00616 25.82193,1.99292 0,0 11.25571,-0.6621 11.25571,-0.6621 0,0 20.52512,-0.6621 20.52512,-0.6621 2.90001,-0.0331 5.8927,-1.04612 8.60731,0 0,0 -57.60276,25.69612 -57.60276,25.69612 -9.62032,3.6548 -20.74361,8.18357 -31.11873,8.07101 -7.99817,-0.0927 -20.83631,-5.34315 -29.13243,-6.62101 0,0 -0.6621,36.41554 -0.6621,36.41554 0,0 0,52.30596 0,52.30596 0,0 0.6621,9.93151 0.6621,9.93151 0,0 0,11.25571 0,11.25571 0,0 0.6621,11.25571 0.6621,11.25571 0,0 2.27101,29.79453 2.27101,29.79453 0.37739,2.60868 1.12557,6.93882 2.20479,9.26941 0.79452,1.71484 2.97946,4.08516 2.50936,5.89932 -0.37739,1.44338 -2.50274,2.81392 -3.67465,3.64155 -4.35001,3.03904 -11.26896,4.54201 -16.55252,4.15137 -15.89704,-1.19178 -15.60571,-2.54909 -29.13243,-9.05754 0,0 3.45616,-7.9452 3.45616,-7.9452 0,0 2.50274,-23.83563 2.50274,-23.83563 0,0 0.66211,-11.91781 0.66211,-11.91781 0,0 0,-8.60731 0,-8.60731 0,0 0.6621,-11.25571 0.6621,-11.25571 0,0 0,-27.80823 0,-27.80823 0,0 0.6621,-11.25571 0.6621,-11.25571 0,0 0,-42.37445 0,-42.37445 0,0 -0.64886,-7.2831 -0.64886,-7.2831 0,0 0,-11.25571 0,-11.25571 0,0 -23.84887,4.68767 -23.84887,4.68767 -5.70731,0.95342 -12.12306,2.27762 -17.87672,1.87374 -5.06507,-0.35091 -12.334931,-2.72785 -17.214613,-4.35662 -11.778771,-3.92626 -23.21325,-8.97146 -34.429235,-14.26827 0,0 -21.849323,-10.44794 -21.849323,-10.44794 0,0 13.242014,-0.6621 13.242014,-0.6621 0,0 14.566215,-0.66211 14.566215,-0.66211 6.621007,-0.0132 19.823294,-1.39703 26.484027,-2.48287 6.18402,-1.01302 15.069415,-1.6685 19.200915,-6.78654 -7.01164,-0.007 -14.83105,-1.43013 -21.187217,-4.49566 -4.071919,-1.95982 -6.197262,-4.45594 -10.593611,-6.038357 -5.336531,-1.920092 -17.340417,-2.774202 -23.173524,-2.707992 0,0 -6.621007,0.602512 -6.621007,0.602512 0,0 -17.876718,1.661873 -17.876718,1.661873 -3.191325,0.46347 -11.189502,1.946574 -13.904114,1.046114 0,0 33.105034,-28.748404 33.105034,-28.748404 3.807079,-3.303883 8.077628,-8.541099 12.579913,-10.45457 6.137673,-2.615298 13.453886,-1.615526 19.86302,-0.701827 11.90457,1.694978 24.206404,4.753883 35.753434,8.123975 -8.52785,-11.149775 -3.40319,-14.089502 -9.56073,-25.159824 -4.03219,-7.250003 -7.36918,-10.971009 -12.560051,-17.214618 -2.429909,-2.919864 -5.39612,-5.833107 -7.011646,-9.26941 15.036307,2.82717 30.310967,6.124432 45.022847,10.315529 z m 70.84477,17.88334 c -3.8137,0.59589 -7.59429,0.821004 -10.47443,3.668037 -3.61507,3.575344 -12.79841,20.333111 -15.91028,25.735853 -1.70822,2.972829 -4.76051,8.282877 -8.70663,8.137214 -3.99908,-0.145662 -6.21712,-4.263928 -7.54794,-7.475114 -3.34361,-8.09087 -6.69384,-17.750919 -11.30206,-25.159824 -1.33745,-2.158449 -2.81393,-3.939499 -4.98562,-5.303427 -3.63493,-2.284247 -20.94224,-6.958678 -25.82192,-7.938587 0,0 3.49588,9.93151 3.49588,9.93151 0,0 2.34384,10.59361 2.34384,10.59361 1.3242,2.95959 6.17078,7.528085 8.72649,9.626944 0,0 14.56621,10.169864 14.56621,10.169864 2.07238,1.476484 4.6943,3.873289 4.5685,6.680596 -0.1258,2.866895 -3.93288,5.455709 -6.5548,5.79338 -2.87352,0.364156 -15.54612,-3.985846 -19.20092,-5.031965 0,0 -33.767131,-8.978085 -33.767131,-8.978085 -5.72055,-1.26461 -13.427402,-3.005934 -19.20092,-3.032418 -1.77443,-0.0066 -5.773518,-0.158905 -7.283108,0.39726 -2.178311,0.801142 -10.944524,9.342238 -12.579913,11.520549 9.355483,0 20.346354,0.642238 29.13243,4.01233 7.680368,2.952969 7.183793,5.687445 14.566215,7.587674 11.984027,3.085389 27.980377,2.820549 40.388137,2.966211 2.62854,0.03311 6.35617,0.317809 8.58083,1.807537 4.80023,3.23105 3.45616,8.69338 -1.31096,11.05708 0,0 -21.83608,5.47557 -21.83608,5.47557 -8.03128,2.95297 -7.17055,6.30982 -17.21462,9.18334 0,0 -17.876716,4.2573 -17.876716,4.2573 5.694066,2.50936 18.446126,6.90571 24.497726,6.56142 0,0 21.84932,-3.64817 21.84932,-3.64817 0,0 17.21462,-3.30389 17.21462,-3.30389 2.7742,-0.45685 5.43584,-1.18516 7.85913,0.72831 2.67489,2.11873 2.52261,4.6016 2.84041,7.60754 0,0 1.21827,15.89042 1.21827,15.89042 0,0 0,61.57536 0,61.57536 0,0 -0.6621,9.93151 -0.6621,9.93151 0,0 0,20.52512 0,20.52512 0,0 -0.6621,11.25571 -0.6621,11.25571 0,0 0,7.28311 0,7.28311 0,0 -0.6621,11.91781 -0.6621,11.91781 0,0 -1.35731,16.55252 -1.35731,16.55252 -0.17215,1.83402 -1.09909,5.31667 0,6.81964 1.68836,2.21804 8.66028,2.44315 11.28882,2.44977 0,0 4.6347,0 4.6347,0 0,0 -2.62192,-22.51142 -2.62192,-22.51142 0,0 0,-5.29681 0,-5.29681 0,0 -0.68858,-9.93151 -0.68858,-9.93151 0,0 -0.6621,-9.26941 -0.6621,-9.26941 0,0 0,-10.59361 0,-10.59361 0,0 -0.6621,-9.93151 -0.6621,-9.93151 0,0 0,-90.04569 0,-90.04569 0,0 1.15205,-13.22877 1.15205,-13.22877 0.47672,-1.21827 1.20503,-2.09886 2.23128,-2.89338 4.51553,-3.48927 14.06302,0.52968 19.12809,1.93995 5.03859,1.39703 17.20138,5.12466 21.84932,4.8532 4.54201,-0.26484 10.23608,-2.25114 14.56622,-3.69452 3.2774,-1.09247 8.48813,-2.03927 10.59361,-4.8532 -12.67923,-0.27808 -14.33448,-4.39635 -24.49773,-7.18379 0,0 -23.17352,-4.82671 -23.17352,-4.82671 -5.0121,-2.02603 -7.15731,-6.09133 -3.16484,-10.42809 2.79406,-3.03242 12.25548,-6.270093 16.40685,-7.806167 9.60046,-3.548859 29.66874,-11.030597 39.06394,-12.50046 0,0 16.55252,-1.615526 16.55252,-1.615526 -3.529,-2.509362 -8.23653,-6.501829 -12.57991,-7.144067 -4.62809,-0.681963 -13.32147,2.317353 -17.87672,3.833563 0,0 -23.17352,8.607309 -23.17352,8.607309 0,0 -13.24202,5.243838 -13.24202,5.243838 -7.48836,2.476256 -10.98425,-3.032421 -9.44155,-7.23014 1.11233,-3.012558 5.65434,-6.481965 8.11735,-8.607309 6.15754,-5.316665 12.83813,-10.34201 17.35366,-17.214615 6.6806,-10.163244 12.42763,-10.216212 20.38608,-16.552515 -9.44818,0 -19.11485,-0.410503 -28.47033,1.05274 z m 35.75344,121.124689 c 8.86553,-2.1121 10.11027,4.23083 15.89041,1.07923 0,0 16.55252,-11.11667 16.55252,-11.11667 4.13813,-3.07215 7.85914,-6.28996 13.24201,-6.74019 7.95845,-0.66872 13.79156,5.86621 16.89019,12.45411 4.07192,8.6669 6.13768,21.45869 2.079,30.45664 -1.37717,3.0589 -3.48927,5.49543 -5.72717,7.9452 8.05114,4.70754 11.59338,12.6991 10.4016,21.84933 0,0 -2.37694,11.63973 -2.37694,11.63973 0.1258,1.39041 2.62192,5.41598 3.42968,6.89909 2.47626,4.52876 4.95913,9.29589 5.09155,14.56621 0.1258,5.17101 -1.16529,10.66644 -6.61438,12.75206 -2.23128,0.85411 -4.66781,0.0265 -6.23037,1.54932 -1.63539,1.60228 -0.62899,4.6347 -4.95913,10.16986 0,0 -15.29453,14.70526 -15.29453,14.70526 -3.58196,3.23767 -6.65411,6.9984 -10.59361,9.81895 1.38379,2.60868 -0.17877,3.96598 -2.04589,5.94567 -3.37009,3.58196 -6.46872,4.7605 -11.19612,5.66758 -7.76644,1.48972 -20.63106,1.74132 -27.80823,-1.77443 -3.51576,-1.72146 -7.32946,-5.40936 -10.59361,-7.85252 0,0 11.91781,-8.24315 11.91781,-8.24315 0,0 23.83562,-22.21348 23.83562,-22.21348 0,0 -25.15982,-10.21621 -25.15982,-10.21621 -5.30343,-1.56918 -8.07763,0.66872 -15.89042,-1.38379 -10.42808,-2.73448 -12.94407,-12.08996 -11.25571,-21.50503 -4.58174,-1.95982 -10.71279,-7.49498 -11.6927,-12.57991 -0.96667,-5.02535 0.90708,-7.61416 2.88014,-11.91782 3.1847,-6.92557 5.88607,-14.06302 12.78516,-18.22101 5.8596,-3.53562 10.28905,-2.15183 16.55252,-1.64201 -2.84041,-10.00434 5.14452,-29.53631 15.89042,-32.09202 z M 87.875582,315.27403 c -4.568495,-0.053 -11.686077,-0.90707 -15.115759,-4.11826 -1.602284,-1.50297 -3.237672,-3.49589 -2.714613,-5.81325 0.251599,-1.12557 1.158676,-2.05251 1.138813,-3.9726 -0.01324,-1.9863 -2.204795,-7.29635 -3.078768,-9.26941 -5.104796,-11.55366 -6.422376,-12.95069 -15.321009,-21.84932 -1.747946,-1.74795 -6.925574,-7.13083 -8.607309,-8.21667 -3.032422,-1.94658 -7.130825,-0.89384 -11.136534,-4.58836 -4.283791,-3.94612 -4.965755,-9.7395 -6.276714,-12.3548 0,0 -4.515527,-6.62101 -4.515527,-6.62101 -2.522604,-4.38972 -3.833563,-9.521 -3.893152,-14.56621 -0.08607,-7.81941 -0.07283,-13.05663 2.946348,-20.52512 3.429682,-8.47489 6.309819,-7.16393 6.323062,-15.22832 0.01986,-9.63356 0.324429,-17.10868 5.164385,-25.82192 6.515071,-11.72581 20.472153,-10.26919 25.954347,1.3242 2.416667,-1.60891 4.661188,-3.47603 7.283107,-4.75389 10.110278,-4.92603 16.466444,1.73471 23.14704,8.72649 1.324201,1.38379 4.118266,5.03197 5.614614,5.81987 1.284475,0.42374 9.600457,0.11917 11.626487,0 10.34201,0.26484 19.81005,5.20411 23.47147,15.36735 2.271,6.29658 1.37717,9.93813 1.89361,11.85823 0.60913,2.2379 2.80068,3.33698 4.42283,4.81347 1.97306,1.80091 3.89315,4.0653 5.03196,6.50183 3.32375,7.09772 -0.29132,23.39863 -3.35023,30.45663 -1.45,3.35685 -5.72055,7.72671 -8.26301,10.59361 0,0 -13.30822,15.22831 -13.30822,15.22831 -2.08562,2.35046 -7.45526,8.15709 -8.67352,10.59362 -1.9863,3.96598 -1.93996,11.4411 -1.88699,15.89041 0.0794,6.18402 1.22489,6.44224 6.62101,8.60731 -4.158,13.14932 -13.12946,12.05023 -24.497728,11.91781 z M 297.30465,241.78086 c -0.99978,-1.54932 -3.27078,-4.36987 -3.36347,-6.1443 -0.19201,-3.70776 5.75365,-15.2879 2.86027,-21.00183 -3.8137,-7.52146 -17.03585,-5.38288 -17.30731,-13.90411 -0.17215,-5.44909 6.64087,-7.23677 10.30891,-9.50115 3.63493,-2.23128 4.99224,-5.56165 5.25045,-9.69977 0.13905,-2.29087 -0.42374,-5.67421 -0.90045,-7.94521 -0.65548,-3.09201 -3.21119,-10.97763 -6.98516,-11.14978 -1.86713,-0.0861 -8.0975,4.93265 -9.93151,6.23699 0,0 -16.55252,10.87169 -16.55252,10.87169 -1.52945,0.99978 -7.13083,4.66119 -8.58083,4.93927 -3.39657,0.65548 -3.9726,-4.42945 -6.7137,-5.48881 -3.07877,-1.19178 -5.71393,4.28379 -6.60114,6.50845 -1.97306,4.93265 -1.68174,10.07055 -1.1653,15.22832 0.39064,3.93949 1.51621,7.21027 -1.58904,10.50753 -6.09795,6.48197 -13.16256,-2.58881 -19.71074,-0.9468 -4.23082,1.06598 -7.39566,8.50137 -8.9847,12.28859 -0.68197,1.61552 -1.60229,3.53562 -0.86736,5.27032 1.258,2.94635 10.69293,8.75959 13.82467,9.95799 -1.29772,2.92649 -5.24384,9.22969 -3.19133,12.29521 1.94658,2.90663 8.60069,1.19178 13.12284,1.90023 6.43562,1.0064 21.04818,7.70023 27.80823,10.58699 4.93927,2.10548 12.40114,4.77375 13.07648,10.97101 0.52968,4.89955 -3.31712,8.76621 -6.45548,11.91781 0,0 -18.53882,18.53882 -18.53882,18.53882 2.97946,0 9.26941,0.0662 11.77877,-1.43676 1.62215,-0.96666 3.44955,-4.19772 4.89293,-5.84635 0,0 11.79863,-11.80525 11.79863,-11.80525 3.05891,-2.76758 13.01028,-11.59338 14.55298,-14.67877 2.6815,-5.36964 -2.90663,-11.59339 0.96004,-16.51942 4.31028,-5.48881 8.37557,-1.92671 12.95731,0.629 -0.77466,-4.95251 -3.07877,-8.42854 -5.75365,-12.57991 z M 40.330132,185.5023 c 0,0 0,11.91119 0,11.91119 -0.774658,2.60868 -3.197947,3.29064 -5.859591,7.95183 -3.330367,5.81986 -3.608449,10.73265 -3.535618,17.21462 0.04635,3.69452 0.734932,7.52808 3.065526,10.5274 1.549316,1.9863 3.111873,2.50274 4.105024,4.17785 1.112329,1.88037 1.324202,7.91211 3.41644,10.07718 1.814156,1.87374 4.740641,0.3178 9.938131,3.83356 3.250915,2.20479 15.724891,14.52649 18.287221,17.73106 4.045435,5.05182 9.60046,16.91667 12.03699,23.17352 0.867352,2.2379 2.211417,8.87877 3.727627,9.91827 1.44338,0.98653 6.415756,0.67534 8.322606,0.67534 -1.145434,-6.39589 -0.893836,-14.74498 0,-21.18722 0.297945,-2.17169 0.993151,-6.79315 1.97306,-8.60731 0.913699,-1.68836 5.654342,-6.85274 7.197032,-8.60731 0,0 14.94361,-17.21462 14.94361,-17.21462 0,0 7.77306,-9.26941 7.77306,-9.26941 1.85389,-3.04566 3.56211,-11.54703 3.86667,-15.22831 0.16553,-2.04589 0.60914,-4.07192 -0.51644,-5.93242 -1.96643,-3.26416 -8.4484,-6.27672 -12.06347,-7.3096 0.93356,-2.54908 1.60891,-5.23721 1.77443,-7.9452 0.27146,-1.70822 0.22512,-3.60845 0,-5.29681 -2.01278,-10.14338 -10.06393,-10.0242 -18.32695,-9.93151 -3.661412,0.0463 -8.441779,0.84087 -11.917808,1.9863 -2.350457,-4.79361 -6.786532,-10.15662 -10.593611,-13.89087 -1.741324,-1.70822 -3.919636,-4.0984 -6.621006,-3.4363 -4.455938,1.09908 -11.679456,11.61986 -15.228316,15.34087 -1.132192,-6.03174 -6.389272,-14.77809 -10.593611,-19.20092 -4.489043,4.03219 -5.290185,12.7653 -5.171006,18.53882 z M 89.8354,201.85619 c 4.316896,3.06552 4.363243,8.85228 -0.648859,11.23584 -2.787444,1.33083 -5.303426,-0.12579 -7.931966,-1.0726 -3.773974,-1.3573 -10.91804,-3.28402 -14.506626,-0.86735 -5.118038,3.44292 -6.038358,12.88448 -7.144066,15.38722 -1.224887,2.78744 -3.787216,4.28379 -6.819637,3.82694 -7.382423,-1.11895 -5.084934,-9.63356 -3.528997,-14.40731 3.687901,-11.30206 7.918724,-17.08882 20.081514,-18.88973 4.965755,-0.26484 16.519412,1.95982 20.498637,4.78699 z m 168.20006,16.75114 c 8.31598,0.0993 14.64566,3.4959 19.04863,10.59361 1.79429,2.90001 4.42283,8.44841 3.95274,11.91782 -0.45023,3.25091 -3.72762,6.19726 -7.11096,5.52192 -6.09132,-1.22489 -5.15114,-9.05092 -10.05069,-13.18243 -5.05845,-4.27055 -12.93082,-0.821 -16.42009,-2.4895 -5.17101,-2.46301 -5.56827,-9.26279 1.31096,-11.98402 3.03904,-0.54954 6.18402,-0.4105 9.26941,-0.3774 z"
     inkscape:connector-curvature="0"
     style="fill:#000000;fill-opacity:1;stroke:none;stroke-width:1" />
</svg>
