<?xml version="1.0" encoding="UTF-8" standalone="no"?>
<svg
   xmlns:dc="http://purl.org/dc/elements/1.1/"
   xmlns:cc="http://creativecommons.org/ns#"
   xmlns:rdf="http://www.w3.org/1999/02/22-rdf-syntax-ns#"
   xmlns:svg="http://www.w3.org/2000/svg"
   xmlns="http://www.w3.org/2000/svg"
   xmlns:sodipodi="http://sodipodi.sourceforge.net/DTD/sodipodi-0.dtd"
   xmlns:inkscape="http://www.inkscape.org/namespaces/inkscape"
   width="100"
   height="100"
   viewBox="0 0 333.33269 333.33269"
   id="svg2"
   version="1.1"
   inkscape:version="0.91 r13725"
   sodipodi:docname="KingsFavor.svg"
   inkscape:export-filename="C:\Users\mbrown\Desktop\Drawings\icons\forJustin\KingsFavor.png"
   inkscape:export-xdpi="300"
   inkscape:export-ydpi="300">
  <metadata
     id="metadata9">
    <rdf:RDF>
      <cc:Work
         rdf:about="">
        <dc:format>image/svg+xml</dc:format>
        <dc:type
           rdf:resource="http://purl.org/dc/dcmitype/StillImage" />
        <dc:title></dc:title>
      </cc:Work>
    </rdf:RDF>
  </metadata>
  <defs
     id="defs7" />
  <sodipodi:namedview
     pagecolor="#ffffff"
     bordercolor="#666666"
     borderopacity="1"
     objecttolerance="10"
     gridtolerance="10"
     guidetolerance="10"
     inkscape:pageopacity="0"
     inkscape:pageshadow="2"
     inkscape:window-width="1218"
     inkscape:window-height="697"
     id="namedview5"
     showgrid="false"
     units="px"
     inkscape:zoom="1.5733302"
     inkscape:cx="75.000148"
     inkscape:cy="75.000148"
     inkscape:window-x="54"
     inkscape:window-y="-8"
     inkscape:window-maximized="1"
     inkscape:current-layer="svg2" />
  <path
     id="Selection #10"
     d="m 183.35717,51.324304 c 6.88763,-6.90151 14.10852,-13.45587 22.91246,-17.86478 27.43942,-13.75442 58.32264,-7.17924 80.54079,13.12259 16.12899,14.74035 29.82092,44.498791 29.85564,66.536406 0,0 0,11.10908 0,11.10908 -0.20136,16.85107 -9.22748,36.94461 -17.46208,51.37946 -13.9766,24.48858 -32.82731,45.42918 -52.66395,65.26582 0,0 -34.02154,32.22326 -34.02154,32.22326 0,0 -33.32722,26.09938 -33.32722,26.09938 -2.48566,1.77745 -9.84542,7.87355 -12.49771,7.93604 -2.72172,0.0555 -11.2896,-6.83902 -13.88634,-8.73451 0,0 -35.41018,-27.856 -35.41018,-27.856 -14.08075,-12.00474 -27.036711,-25.16899 -39.638561,-38.69429 -24.37747,-26.16881 -51.40724,-57.80191 -59.19053,-93.73282 -2.103786,-9.69961 -1.957979,-16.61501 -1.84689,-26.38405 0.0625,-5.16572 1.58999,-12.976786 2.86753,-18.052246 8.63036,-34.3687 37.28483,-66.9044 74.89599,-67.34876 7.811071,-0.0903 12.449101,-0.18052 20.135201,2.02046 21.66963,6.2072 40.76335,26.41877 52.07378,45.193111 3.91595,-8.137401 10.31061,-15.858211 16.66361,-22.218151 z m -13.88634,62.217746 c 6.97094,-1.59692 9.9079,-10.72025 5.79755,-16.365046 -2.81199,-3.8604 -6.22109,-4.45752 -10.65777,-3.95761 -14.26128,3.84652 -8.85255,23.460976 4.86022,20.322656 z m -60.40559,-13.53918 c -7.99159,0.69432 -11.588151,10.24118 -7.15147,16.55946 2.43705,3.47159 5.28376,4.09648 9.23442,4.19368 0,0 -1.50667,18.05224 -1.50667,18.05224 0,0 -1.33309,17.35793 -1.33309,17.35793 0,0 -0.63183,9.02613 -0.63183,9.02613 0,0 -45.130611,-34.02154 -45.130611,-34.02154 0,0 9.16499,23.60678 9.16499,23.60678 0,0 17.49679,43.74199 17.49679,43.74199 0,0 5.27681,13.19202 5.27681,13.19202 0,0 3.06194,5.54065 3.06194,5.54065 0,0 5.269861,0.70821 5.269861,0.70821 0,0 127.75435,0 127.75435,0 0,0 5.26987,-0.70821 5.26987,-0.70821 0,0 3.06194,-5.54065 3.06194,-5.54065 0,0 5.27681,-13.19202 5.27681,-13.19202 0,0 17.49679,-43.74199 17.49679,-43.74199 0,0 9.16499,-23.60678 9.16499,-23.60678 0,0 -45.13062,34.02154 -45.13062,34.02154 0,0 -0.63182,-9.02613 -0.63182,-9.02613 0,0 -1.33309,-17.35793 -1.33309,-17.35793 0,0 -1.50667,-18.05224 -1.50667,-18.05224 3.95066,-0.0972 6.79736,-0.72209 9.23442,-4.19368 4.43668,-6.31828 0.84012,-15.86514 -7.15147,-16.55946 -13.95577,-1.215046 -16.47615,18.14251 -2.77727,20.75314 0,0 -34.02154,37.49312 -34.02154,37.49312 0,0 -20.13519,-43.74197 -20.13519,-43.74197 0,0 -1.38864,0 -1.38864,0 0,0 -20.13519,43.74197 -20.13519,43.74197 0,0 -34.02154,-37.49312 -34.02154,-37.49312 13.55307,-2.58286 11.28265,-21.982076 -2.77727,-20.75314 z M 59.074409,131.5943 c 6.8043,-1.56221 9.9565,-10.78969 5.79754,-16.33034 -2.86058,-3.8118 -6.90845,-4.54778 -11.35208,-3.95761 -13.23369,4.27005 -8.0888,23.41238 5.55454,20.28795 z m 220.792841,0 c 6.97094,-1.59693 9.9079,-10.72026 5.79755,-16.36505 -2.81199,-3.86041 -6.22108,-4.45752 -10.65777,-3.95761 -14.26127,3.84651 -8.85254,23.46097 4.86022,20.32266 z"
     style="fill:#000000;fill-opacity:1;stroke:none;stroke-width:1"
     inkscape:connector-curvature="0" />
</svg>
