<?xml version="1.0" encoding="UTF-8" standalone="no"?>
<svg
   xmlns:dc="http://purl.org/dc/elements/1.1/"
   xmlns:cc="http://creativecommons.org/ns#"
   xmlns:rdf="http://www.w3.org/1999/02/22-rdf-syntax-ns#"
   xmlns:svg="http://www.w3.org/2000/svg"
   xmlns="http://www.w3.org/2000/svg"
   xmlns:sodipodi="http://sodipodi.sourceforge.net/DTD/sodipodi-0.dtd"
   xmlns:inkscape="http://www.inkscape.org/namespaces/inkscape"
   width="100"
   height="100"
   viewBox="0 0 333.33268 333.33266"
   id="svg2"
   version="1.1"
   inkscape:version="0.91 r13725"
   sodipodi:docname="koreanMemorial.svg">
  <metadata
     id="metadata9">
    <rdf:RDF>
      <cc:Work
         rdf:about="">
        <dc:format>image/svg+xml</dc:format>
        <dc:type
           rdf:resource="http://purl.org/dc/dcmitype/StillImage" />
        <dc:title></dc:title>
      </cc:Work>
    </rdf:RDF>
  </metadata>
  <defs
     id="defs7" />
  <sodipodi:namedview
     pagecolor="#ffffff"
     bordercolor="#666666"
     borderopacity="1"
     objecttolerance="10"
     gridtolerance="10"
     guidetolerance="10"
     inkscape:pageopacity="0"
     inkscape:pageshadow="2"
     inkscape:window-width="1218"
     inkscape:window-height="697"
     id="namedview5"
     showgrid="false"
     units="px"
     inkscape:zoom="1.5733302"
     inkscape:cx="75.000148"
     inkscape:cy="75.000148"
     inkscape:window-x="54"
     inkscape:window-y="-8"
     inkscape:window-maximized="1"
     inkscape:current-layer="svg2" />
  <path
     id="Selection #7"
     d="m 92.672028,80.102427 c 1.93581,-7.176324 13.287962,-7.501264 19.060822,-9.762014 3.02125,-1.182227 5.80743,-3.456804 8.29633,-5.503232 2.54421,-2.094823 6.04249,-4.929402 7.95756,-7.549659 2.31606,-3.18026 2.20544,-6.395088 6.57484,-7.604969 1.87359,-0.566916 3.64347,-0.42173 5.51706,0 7.74324,1.894329 10.66078,10.052386 10.34276,17.28402 -0.46321,10.508683 -11.08251,13.405485 -15.55562,21.432183 -2.71013,4.410882 -0.32494,7.840032 0,12.444494 0.57383,3.88545 -0.97482,8.01979 -3.3531,11.06177 -6.40891,8.19263 -22.14428,16.66871 -30.8416,23.8243 -7.439052,6.12545 -9.962512,11.03411 -14.518582,19.04007 4.70125,2.09482 15.714632,8.483 19.295882,11.87758 4.76348,4.51459 9.03609,12.64499 11.9882,18.5423 2.63408,5.26817 6.76842,13.84795 8.30324,19.3581 2.93828,10.59856 3.40149,21.56354 3.27705,32.49396 -0.0761,6.51262 -1.68692,18.39711 -5.80052,23.49244 -4.81187,5.96644 -8.72497,3.9131 -12.10573,6.13237 -2.97976,1.96346 -3.53285,6.00792 -9.05682,6.7615 -4.079032,0.56001 -7.522012,-2.1363 -11.753132,-0.38024 -6.51262,2.70322 -12.68648,11.56646 -22.81491,10.94424 -5.03311,-0.31112 -15.69389,-4.50076 -16.02574,-10.30819 -0.11062,-1.90816 3.32544,-8.10275 4.26569,-10.37041 2.59261,-6.25682 5.46175,-14.64994 5.5378,-21.43219 0.0484,-4.48693 -0.42864,-10.59856 -2.91754,-14.45635 -2.45433,-3.79557 -8.483,-4.89484 -6.91361,-9.74128 1.85976,-5.71755 11.04795,-6.2499 16.0534,-6.9136 -1.88742,-4.81879 -4.2657,-5.97336 -7.45978,-9.67905 -2.16396,-2.50964 -2.97285,-4.86027 -6.36744,-5.95262 -8.39312,-2.68939 -24.30824,2.1847 -27.8964,-9.25732 -0.49778,-1.5763 -0.47704,-3.86471 -0.44247,-5.53089 0.15901,-6.45731 5.11607,-14.91957 8.13731,-20.74082 1.3205,-2.54421 3.93384,-6.74768 3.36002,-9.67905 -1.63853,-8.42769 -18.2381,-6.29139 -20.03564,-14.51858 -0.32494,-1.47951 0.11062,-4.03063 0.43556,-5.53089 3.00742,-13.83413 17.74723,-13.75116 28.83666,-20.36057 6.49187,-3.87162 8.04743,-6.36743 11.53881,-12.824744 2.2884,-4.231128 4.65285,-10.038559 9.20201,-12.237086 2.73779,-1.458771 6.18768,-0.698274 8.98769,0 0,0 10.37041,3.906188 10.37041,3.906188 0,0 8.29633,2.800012 8.29633,2.800012 -0.78124,-3.42915 -2.71705,-7.563487 -1.7768,-11.061773 z m -58.37159,58.634303 c 1.71458,0.85729 3.36693,1.88051 4.8257,3.12496 9.87955,8.40003 0.0899,20.0218 -4.30026,28.809 -1.73532,3.46372 -5.00546,10.77831 -2.1847,14.325 1.50716,1.90124 4.89483,2.46124 7.19015,2.82766 0,0 13.82721,0 13.82721,0 0,0 6.91361,0.81581 6.91361,0.81581 1.4726,0.0346 3.99607,0.13827 5.2336,-0.69828 2.42668,-1.64543 1.76989,-6.21533 4.53533,-10.32893 2.24001,-3.33236 5.71064,-4.56298 9.58917,-4.80496 0,0 14.51858,1.07161 14.51858,1.07161 1.53482,-0.27654 4.00989,-1.29976 4.00989,-3.18026 0,-1.86667 -3.28396,-3.69878 -4.70125,-4.55606 -2.7447,-1.65927 -12.66573,-6.58867 -13.82722,-8.75263 -0.79506,-1.3689 -0.42864,-2.62026 0,-4.00298 1.03013,-2.90372 3.1457,-6.42274 4.83953,-8.98769 8.24793,-12.46524 14.60154,-15.65241 26.271712,-23.90726 5.26125,-3.71952 10.88893,-6.98965 15.05784,-12.0435 6.75459,-8.19954 -2.7931,-12.56894 2.8484,-22.814907 3.83706,-6.955089 11.26227,-10.812882 13.88944,-15.209937 2.16396,-3.615816 1.56248,-9.990163 -1.56247,-12.921533 -1.80446,-1.68692 -4.23805,-2.067168 -5.8904,0 -0.7121,0.891856 -1.15457,2.385195 -3.05581,4.625204 -3.37384,3.968411 -12.36845,11.386712 -17.13884,13.60598 -3.53285,1.638525 -7.34916,2.198527 -11.06177,3.283964 -1.56939,0.456298 -3.94076,1.099263 -4.763472,2.654825 -1.73532,3.318532 4.189642,8.863245 -0.3526,13.350177 -0.7121,0.705188 -1.56247,1.209881 -2.50272,1.562475 -4.48002,1.693834 -14.79513,-3.166432 -19.34428,-4.860266 -1.78371,-0.663707 -5.04002,-1.908156 -6.90669,-1.410376 -2.24001,0.601484 -3.83014,3.111124 -4.92941,4.998539 -2.58569,4.410881 -3.78865,8.171885 -7.19015,12.444495 -4.15508,5.21977 -12.76943,9.61683 -18.99859,11.97437 -8.71115,3.29087 -15.65241,3.98223 -15.9013,14.9887 2.53729,0.68445 8.78028,2.86915 11.06177,4.0168 z M 187.48525,96.003725 c -1.03704,-3.809398 -5.26126,-5.835085 -4.56989,-8.91164 0.51852,-2.302232 3.3047,-2.58569 5.441,-4.431623 0,0 3.63656,-3.878534 3.63656,-3.878534 3.47063,-3.442977 8.66967,-6.65089 13.765,-6.146197 8.51065,0.836546 13.47462,9.139789 13.14276,17.145747 -0.14518,1.500253 -0.62913,3.304705 0,4.69434 1.19606,2.240009 4.15508,2.475072 6.21534,6.395082 1.70766,3.2494 0.93333,5.44101 2.4889,7.29386 1.06469,1.26519 4.70125,2.66865 6.49879,3.89236 4.59063,3.13187 8.80793,8.31016 10.37041,13.67512 0,0 1.38272,0 1.38272,0 2.10174,-5.48941 7.84003,-11.2761 9.22967,-15.9013 0.83654,-2.76544 0.0899,-14.089932 4.86718,-19.206002 5.00545,-5.351132 16.23315,-2.350626 19.78674,3.304705 2.28841,3.650385 2.74471,10.895847 2.75853,15.209937 2.20544,-0.18667 4.09977,-0.44247 6.22225,0.4563 5.50323,2.35062 12.45832,14.89191 15.41734,20.28452 3.60891,6.56793 12.54129,23.34034 12.52746,30.41988 -0.007,8.63509 -10.73683,17.8855 -12.16103,21.43218 -0.89186,2.2331 1.45877,11.684 1.50025,15.20994 0.12444,11.22079 -2.66174,8.86325 -2.76544,16.59266 -0.0553,4.15508 0.62222,10.23905 -1.99112,13.68203 -4.0652,5.37187 -15.28599,4.78422 -17.80946,-1.94272 -2.30223,-6.13237 7.94374,-11.51807 5.24052,-16.39217 -1.61087,-2.8968 -10.01091,-3.57433 -13.09438,-3.64347 0,4.8257 0.8089,16.97291 -1.44494,20.71317 -3.10421,5.15064 -15.52105,7.20398 -19.28205,1.86667 -3.78175,-5.35804 4.75656,-9.99707 6.38817,-14.28351 1.15457,-3.03507 0.60149,-7.14867 -2.95902,-8.18571 -0.97482,-0.1521 -3.06273,-0.11062 -4.13434,0 -2.55112,-0.11753 -8.91164,0.29037 -10.90967,-0.91951 -2.17088,-1.3205 -2.59952,-4.50076 -3.17335,-6.79608 0,0 -3.89236,-15.20994 -3.89236,-15.20994 -4.12742,4.54225 -8.77337,11.8845 -11.85684,17.28402 -1.09235,1.91507 -3.27013,5.42027 -3.13878,7.60497 0.0899,1.57631 3.06965,6.92744 3.92693,8.98769 3.12495,7.52892 5.88348,16.88303 7.47361,24.88899 0.39408,1.99803 1.45878,7.84695 0.89186,9.603 -0.89877,2.81384 -5.16447,3.60199 -7.66719,4.32101 -5.26817,1.51408 -18.48008,5.60002 -23.50627,4.98471 -4.30026,-0.52544 -6.23607,-3.9131 -4.36248,-7.84695 3.05581,-6.45039 11.15164,-10.21139 11.96745,-17.28402 0,0 -6.22225,5.01237 -6.22225,5.01237 -4.86026,3.69187 -13.94474,9.83806 -19.3581,12.42375 -3.07655,1.46569 -8.57979,4.01681 -11.09634,0.34568 -1.96346,-2.8484 -0.0899,-8.08892 1.28593,-10.86819 3.40841,-6.87904 7.50127,-11.03412 0.75359,-17.91316 -1.31359,-1.33432 -3.11113,-2.70322 -4.77039,-3.57433 -2.7931,-1.4726 -4.5699,-1.3205 -7.60497,-1.32741 0,0 -17.28402,0 -17.28402,0 -2.41285,-0.007 -6.11163,0.32494 -7.4183,-2.2331 -0.98865,-1.91507 0.58765,-6.11163 1.20988,-8.13732 0,0 6.43657,-20.04946 6.43657,-20.04946 2.59951,-7.79855 7.50817,-22.66972 12.07116,-29.03715 0,0 16.80698,-17.97538 16.80698,-17.97538 0,0 9.78275,-20.04947 9.78275,-20.04947 0,0 3.6089,-6.9136 3.6089,-6.9136 1.65927,-2.68248 3.11113,-3.89237 4.51459,-6.91361 -6.96892,-1.56939 -3.82322,-6.94126 -5.13681,-11.753135 z m 27.26036,155.742845 c 2.08791,-0.55309 10.723,-2.71705 11.73239,-4.14125 1.12,-1.58322 -0.62223,-7.92991 -1.10618,-9.87263 -1.30667,-5.27509 -4.07903,-14.56697 -6.32595,-19.3581 -1.3205,-2.81384 -5.0815,-8.3793 -4.90866,-11.06178 0.21432,-3.13877 3.26322,-8.33089 4.89483,-11.06177 0,0 14.35265,-21.43219 14.35265,-21.43219 7.03806,-10.58473 9.98325,-27.61295 8.1788,-40.09892 -0.80889,-5.60002 -6.19459,-14.2766 -10.91659,-17.30476 -4.35557,-2.80001 -7.01039,-1.4242 -9.16744,-4.28644 -2.26075,-2.98668 -0.15901,-7.27311 -2.40594,-9.91411 -2.17087,-2.55112 -6.85829,-0.87803 -8.09583,-4.521501 -0.52543,-1.541735 0.62914,-4.473104 0.98865,-6.146198 0.78815,-3.629644 0.78123,-7.072621 -1.46569,-10.245967 -6.40891,-9.022258 -16.84155,2.827666 -17.7818,6.097802 -0.55309,1.91507 0.51161,3.691867 0.91951,5.530887 0.49778,2.233095 0.36642,5.268169 0.36642,7.604967 5.0262,1.07852 6.93435,5.59311 5.01928,10.34276 -1.12,2.77927 -3.31162,2.97285 -5.6415,6.27755 -2.12939,3.02125 -4.81879,9.53387 -6.4504,13.1082 -2.21927,4.86027 -5.02619,11.84993 -8.36546,15.9013 -4.49385,5.44793 -13.28796,12.3961 -16.73093,17.97538 -5.15064,8.34473 -13.35018,36.29645 -16.9176,47.01254 0,0 23.50626,0.42173 23.50626,0.42173 4.47311,1.15457 9.96943,5.0815 12.90771,8.57287 2.04643,2.43359 4.03755,6.4504 4.18965,9.67214 0.27654,5.86274 -4.71508,11.0272 -6.03558,16.59266 5.14372,-1.6247 16.4129,-9.21584 20.74082,-12.76252 2.0326,-1.67309 6.98966,-7.10028 8.98769,-7.56349 2.12939,-0.48395 3.71261,1.47951 4.74965,3.05582 2.85532,4.34866 2.59951,8.8909 -0.35951,13.12202 -2.82767,4.05829 -6.26373,5.56546 -8.53831,10.37042 3.0973,-0.26272 6.6509,-1.09235 9.67906,-1.88742 z m 83.50946,-64.48322 c -0.33185,-1.5763 -1.31358,-4.79113 -1.06469,-6.22225 0.38025,-2.15704 2.9452,-4.54224 4.3694,-6.22225 3.49137,-4.09977 9.00152,-10.16991 8.45534,-15.90129 -0.31802,-3.39459 -3.63656,-10.59856 -5.22669,-13.82722 -3.22865,-6.56793 -11.80152,-23.88651 -16.87611,-28.13147 -4.24496,-3.53977 -6.68546,1.37581 -10.03856,-1.82519 -4.9778,-4.75656 1.37581,-18.514644 -7.14176,-20.395145 -0.80889,-0.09679 -2.5926,-0.145186 -3.42915,0 -4.0168,0.255804 -4.31409,3.422236 -4.90866,6.796075 0,0 -1.12,10.37041 -1.12,10.37041 -0.85729,2.57186 -8.53831,13.47462 -10.57782,16.59266 -4.61138,7.0588 -2.09483,7.39756 -2.09483,14.51858 0,2.65482 -1.05087,11.12399 -1.65235,13.82721 0,0 -5.66916,17.97538 -5.66916,17.97538 0,0 5.26817,23.50627 5.26817,23.50627 6.38818,0 14.53241,-1.07161 19.19909,4.18274 1.5763,1.76988 1.94964,3.46371 2.92446,5.49631 0,-2.59951 -0.3526,-6.02866 1.68,-7.99213 1.93581,-1.87358 4.8741,-1.10617 7.30769,-0.99556 6.8099,0.31803 15.48648,1.70766 17.97538,8.98769 6.30521,-3.79557 3.88544,-14.78129 2.62025,-20.74082 z M 95.140188,180.12159 c 0,0 -15.20994,-1.02321 -15.20994,-1.02321 -7.22472,0.64988 -4.93631,6.27756 -7.66719,10.91659 -2.0326,3.47063 -4.77039,4.18964 -8.2341,5.54471 3.52594,4.9294 16.32302,15.27216 6.22224,20.53342 -1.14074,0.58765 -2.88297,1.03012 -4.14816,1.2721 0,0 -6.91361,1.00939 -6.91361,1.00939 1.82519,2.56494 4.21039,4.75656 5.59311,7.60496 4.59063,9.47856 3.17334,19.35119 0.52543,29.03716 -1.23753,4.51458 -2.92445,8.89781 -4.77039,13.13585 -1.41729,2.72396 -2.67556,4.8257 0,7.15559 1.45186,1.08543 3.23557,1.61087 4.8741,1.95655 11.39362,2.42667 18.36254,-12.32697 28.34579,-11.38672 2.16396,0.2005 6.263732,1.63853 8.151142,0.7605 2.05334,-0.95408 2.81384,-4.03755 6.36744,-5.9941 3.47063,-1.91507 7.05188,-0.77432 9.81732,-3.82322 1.85285,-2.04643 2.61334,-5.3857 3.17334,-8.0267 1.45186,-6.81682 1.60396,-13.79956 1.52791,-20.74082 -0.23506,-19.8628 -7.97139,-35.8678 -17.97538,-52.54343 -3.33927,1.49334 -5.945702,3.97533 -9.679052,4.61138 z m 199.028942,35.48755 c 0,0 -4.75656,8.23411 -4.75656,8.23411 1.71457,0.47704 4.2657,1.15457 5.82817,0 1.28593,-1.0647 1.07852,-3.31162 1.08544,-4.7773 0,0 0,-9.67905 0,-9.67905 0,0 -2.15705,6.22224 -2.15705,6.22224 z m -27.73048,2.07408 c 0,0 -4.68051,6.91361 -4.68051,6.91361 1.7768,-0.0899 4.42471,-0.18666 5.82817,-1.44494 1.73532,-1.55556 1.08544,-9.22275 1.08544,-11.69091 0,0 -2.2331,6.22224 -2.2331,6.22224 z"
     inkscape:connector-curvature="0"
     style="fill:#000000;fill-opacity:1;stroke:none;stroke-width:1" />
</svg>
