<?xml version="1.0" encoding="UTF-8" standalone="no"?>
<!DOCTYPE svg PUBLIC "-//W3C//DTD SVG 20010904//EN"
              "http://www.w3.org/TR/2001/REC-SVG-20010904/DTD/svg10.dtd">

<svg xmlns="http://www.w3.org/2000/svg"
     width="8.25002in" height="4.25001in"
     viewBox="0 0 2475 1275">
  <path id="Selection"
        fill="none" stroke="black" stroke-width="1"
        d="M 169.47,204.00
           C 164.77,193.12 152.21,186.39 152.00,169.00
             151.87,157.55 152.44,146.89 162.17,138.93
             171.60,131.21 180.67,131.87 192.00,132.00
             210.37,132.22 221.91,144.95 222.00,163.00
             222.04,171.01 222.39,175.51 218.62,183.00
             215.01,190.18 206.53,198.47 204.13,205.00
             202.72,208.84 203.00,212.98 203.00,217.00
             203.00,217.00 171.00,217.00 171.00,217.00
             171.00,212.43 171.33,208.31 169.47,204.00 Z
           M 211.00,167.00
           C 211.09,159.13 210.56,152.82 203.96,147.39
             194.78,139.85 163.31,137.79 163.00,164.00
             162.74,186.15 176.87,184.53 182.00,207.00
             182.00,207.00 192.00,207.00 192.00,207.00
             196.12,186.81 210.79,184.44 211.00,167.00 Z
           M 202.00,222.00
           C 202.00,227.95 201.20,236.13 196.37,240.40
             193.89,242.58 188.22,242.02 185.00,242.00
             183.32,241.99 180.74,242.06 179.21,241.40
             173.14,238.77 172.00,227.66 172.00,222.00
             172.00,222.00 202.00,222.00 202.00,222.00 Z" />
</svg>
