<?xml version="1.0" encoding="UTF-8" standalone="no"?>
<svg
   xmlns:dc="http://purl.org/dc/elements/1.1/"
   xmlns:cc="http://creativecommons.org/ns#"
   xmlns:rdf="http://www.w3.org/1999/02/22-rdf-syntax-ns#"
   xmlns:svg="http://www.w3.org/2000/svg"
   xmlns="http://www.w3.org/2000/svg"
   xmlns:sodipodi="http://sodipodi.sourceforge.net/DTD/sodipodi-0.dtd"
   xmlns:inkscape="http://www.inkscape.org/namespaces/inkscape"
   width="100"
   height="100"
   viewBox="0 0 333.33269 333.33269"
   id="svg2"
   version="1.1"
   inkscape:version="0.91 r13725"
   sodipodi:docname="Load.svg"
   inkscape:export-filename="C:\Users\mbrown\Desktop\Drawings\icons\forJustin\Load.png"
   inkscape:export-xdpi="300"
   inkscape:export-ydpi="300">
  <metadata
     id="metadata9">
    <rdf:RDF>
      <cc:Work
         rdf:about="">
        <dc:format>image/svg+xml</dc:format>
        <dc:type
           rdf:resource="http://purl.org/dc/dcmitype/StillImage" />
        <dc:title></dc:title>
      </cc:Work>
    </rdf:RDF>
  </metadata>
  <defs
     id="defs7" />
  <sodipodi:namedview
     pagecolor="#ffffff"
     bordercolor="#666666"
     borderopacity="1"
     objecttolerance="10"
     gridtolerance="10"
     guidetolerance="10"
     inkscape:pageopacity="0"
     inkscape:pageshadow="2"
     inkscape:window-width="1218"
     inkscape:window-height="697"
     id="namedview5"
     showgrid="false"
     units="px"
     inkscape:zoom="1.5733302"
     inkscape:cx="75.000148"
     inkscape:cy="75.000148"
     inkscape:window-x="54"
     inkscape:window-y="-8"
     inkscape:window-maximized="1"
     inkscape:current-layer="svg2" />
  <path
     id="Load"
     d="M 52.352683,74.774518 C 55.528611,65.964087 63.8695,59.853522 73.416851,60.544792 c 3.893284,0.286942 8.719131,1.610789 12.390687,2.941158 11.868975,4.323697 32.450562,19.04253 41.737052,27.650797 0,0 20.86853,19.505553 20.86853,19.505553 0,0 -9.78212,-27.389943 -9.78212,-27.389943 0,0 11.73854,-3.912849 11.73854,-3.912849 0,0 24.78138,69.126992 24.78138,69.126992 0,0 -20.86853,-7.5518 -20.86853,-7.5518 0,0 -44.34562,-16.57743 -44.34562,-16.57743 0,0 3.91285,-11.73855 3.91285,-11.73855 0,0 27.38994,9.78212 27.38994,9.78212 -15.5927,-15.5927 -32.22231,-31.889713 -51.519173,-42.858732 -4.819325,-2.738994 -15.351409,-8.177854 -20.868526,-5.386689 -6.475764,3.286793 -6.521414,13.329771 -6.521414,19.551201 0,0 -13.042829,0 -13.042829,0 0.952126,-7.212685 0.469542,-11.725503 3.065065,-18.912102 z m 264.312927,2.608566 c 0,0 0,163.035366 0,163.035366 0,0 -56.08416,0 -56.08416,0 -6.61924,-29.0203 -45.02385,-35.66562 -61.92735,-11.73855 -2.69987,3.82155 -4.20632,7.19312 -5.24322,11.73855 0,0 -23.47709,0 -23.47709,0 0,0 0,-32.60708 0,-32.60708 0,0 16.30353,0 16.30353,0 0,0 0,-130.428286 0,-130.428286 0,0 130.42829,0 130.42829,0 z M 71.460427,110.80533 c 0,0 16.303536,8.15177 16.303536,8.15177 1.539054,0.76953 5.634502,2.56292 6.527936,3.83459 0.808655,1.16734 0.64562,3.41723 0.64562,4.80629 0,0 0,42.38919 0,42.38919 -0.01304,5.83667 0.130428,4.98236 -8.477839,9.29302 0,0 -19.564243,9.78212 -19.564243,9.78212 0,0 -9.782122,4.61064 -9.782122,4.61064 -2.471616,0.56084 -4.38239,-0.61302 -6.521414,-1.67601 0,0 -11.086405,-5.5432 -11.086405,-5.5432 0,0 -15.651394,-7.8257 -15.651394,-7.8257 -1.539054,-0.76952 -5.634503,-2.56291 -6.527936,-3.83459 -0.808656,-1.16733 -0.64562,-3.41722 -0.64562,-4.80628 0,0 0,-42.38919 0,-42.38919 0.01304,-5.98666 0.01304,-5.06062 9.12998,-9.61909 0,0 28.694223,-14.06669 28.694223,-14.06669 4.591076,-0.48259 12.645023,4.73454 16.955678,6.89313 z m -9.12998,9.12998 c 0,0 -6.521415,-2.4977 -6.521415,-2.4977 0,0 -6.521414,2.4977 -6.521414,2.4977 0,0 -11.738546,5.70624 -11.738546,5.70624 0,0 0,1.30429 0,1.30429 0,0 11.738546,5.70623 11.738546,5.70623 0,0 6.521414,2.4977 6.521414,2.4977 0,0 6.521415,-2.4977 6.521415,-2.4977 0,0 11.738545,-5.70623 11.738545,-5.70623 0,0 0,-1.30429 0,-1.30429 0,0 -11.738545,-5.70624 -11.738545,-5.70624 z m -13.042829,30.48762 c 0,0 -0.64562,-4.15414 -0.64562,-4.15414 0,0 -5.223653,-3.18245 -5.223653,-3.18245 0,0 -13.694971,-6.35838 -13.694971,-6.35838 0,0 0,26.7378 0,26.7378 0,0 0.645621,4.15414 0.645621,4.15414 0,0 5.223652,3.18245 5.223652,3.18245 0,0 13.694971,6.35838 13.694971,6.35838 0,0 0,-26.7378 0,-26.7378 z m 18.912101,-7.33659 c 0,0 -5.223652,3.18245 -5.223652,3.18245 0,0 -0.64562,3.502 -0.64562,3.502 0,0 0,27.38994 0,27.38994 0,0 13.69497,-6.35838 13.69497,-6.35838 0,0 5.223653,-3.18245 5.223653,-3.18245 0,0 0.64562,-3.502 0.64562,-3.502 0,0 0,-27.38994 0,-27.38994 0,0 -13.694971,6.35838 -13.694971,6.35838 z m 167.600351,82.93934 c 21.07721,8.27568 20.24247,38.80894 -1.30428,45.55208 -2.0999,0.65867 -6.31273,1.40863 -8.47784,1.23907 -22.55757,-1.79339 -29.75069,-26.80953 -16.83829,-40.85014 4.54542,-4.93671 9.82125,-6.56054 16.18615,-7.56484 3.30636,-0.26738 7.34311,0.40433 10.43426,1.62383 z"
     inkscape:connector-curvature="0"
     style="fill:#000000;fill-opacity:1;stroke:none;stroke-width:1" />
</svg>
