<?xml version="1.0" encoding="UTF-8" standalone="no"?>
<svg
   xmlns:dc="http://purl.org/dc/elements/1.1/"
   xmlns:cc="http://creativecommons.org/ns#"
   xmlns:rdf="http://www.w3.org/1999/02/22-rdf-syntax-ns#"
   xmlns:svg="http://www.w3.org/2000/svg"
   xmlns="http://www.w3.org/2000/svg"
   xmlns:sodipodi="http://sodipodi.sourceforge.net/DTD/sodipodi-0.dtd"
   xmlns:inkscape="http://www.inkscape.org/namespaces/inkscape"
   width="100"
   height="100"
   viewBox="0 0 333.33269 333.33269"
   id="svg2"
   version="1.1"
   inkscape:version="0.91 r13725"
   sodipodi:docname="Look2Keep1.svg"
   inkscape:export-filename="C:\Users\mbrown\Desktop\Drawings\icons\forJustin\Look2Keep1.png"
   inkscape:export-xdpi="300"
   inkscape:export-ydpi="300">
  <metadata
     id="metadata9">
    <rdf:RDF>
      <cc:Work
         rdf:about="">
        <dc:format>image/svg+xml</dc:format>
        <dc:type
           rdf:resource="http://purl.org/dc/dcmitype/StillImage" />
        <dc:title></dc:title>
      </cc:Work>
    </rdf:RDF>
  </metadata>
  <defs
     id="defs7" />
  <sodipodi:namedview
     pagecolor="#ffffff"
     bordercolor="#666666"
     borderopacity="1"
     objecttolerance="10"
     gridtolerance="10"
     guidetolerance="10"
     inkscape:pageopacity="0"
     inkscape:pageshadow="2"
     inkscape:window-width="1218"
     inkscape:window-height="697"
     id="namedview5"
     showgrid="false"
     units="px"
     inkscape:zoom="1.5733302"
     inkscape:cx="75.000148"
     inkscape:cy="75.000148"
     inkscape:window-x="54"
     inkscape:window-y="-8"
     inkscape:window-maximized="1"
     inkscape:current-layer="svg2" />
  <path
     id="Selection #11"
     d="m 311.54789,141.49423 c -0.37995,2.71181 -0.6705,8.73142 -2.68946,10.51198 -2.76395,2.4287 -8.72397,0.70775 -12.30743,0.66305 0,0 -15.64504,0 -15.64504,0 0,0 -11.92003,-0.745 -11.92003,-0.745 0,0 -31.29009,0 -31.29009,0 -7.77037,0.0149 -8.39617,1.3857 -13.39513,1.8476 -1.82526,0.17135 -3.23331,-0.18625 -4.10496,-1.95935 -1.46766,-2.98001 1.45275,-5.33422 3.22586,-7.33827 0,0 13.40258,-14.90004 13.40258,-14.90004 10.37788,-11.53263 22.55121,-26.79773 30.23963,-40.230107 3.30781,-5.77377 7.48727,-14.84044 7.07007,-21.60506 -0.14155,-2.2201 -0.73755,-4.71586 -1.73585,-6.70502 -7.93428,-15.794036 -26.91693,-7.770364 -35.75265,2.26481 -3.75481,4.25396 -7.50962,12.02433 -9.93088,6.57837 -3.3227,-7.49472 -0.8493,-11.94238 3.99321,-17.783198 7.71823,-9.305074 19.54886,-15.22784 31.57319,-16.010092 21.26236,-1.378254 37.80885,14.594589 31.26028,36.12514 -2.94276,9.69248 -9.13372,18.0812 -15.14589,26.07507 0,0 -31.75943,37.995097 -31.75943,37.995097 5.71416,1.38571 28.39947,0.78226 35.76009,0.74501 4.05281,-0.0223 9.83403,-0.59601 13.41004,-2.54046 4.43276,-2.42126 6.76462,-6.33997 8.60477,-10.86958 0.73755,-1.82525 1.65391,-5.57261 3.09176,-6.74227 1.8476,-1.5049 6.82422,-1.4453 9.16352,-1.45275 0,0 -5.11816,26.07507 -5.11816,26.07507 z M 100.61548,46.23828 c 0,0 19.37005,0 19.37005,0 23.19191,-0.06705 52.86534,14.609483 67.79518,31.930783 4.99151,5.78866 8.53772,10.48218 12.34468,17.13504 1.68371,2.93531 3.57601,6.176067 3.12901,9.685027 -0.3576,2.87571 -2.77886,6.47407 -4.33591,8.94002 -3.89636,6.14627 -8.26207,11.95729 -13.37279,17.13505 -15.36194,15.53329 -34.97039,25.99312 -56.62015,29.47228 -9.49132,1.52725 -19.44455,1.18455 -29.055066,1.0728 -5.84827,-0.0745 -11.50283,-1.66135 -17.13505,-3.07686 -20.2566,-5.08836 -39.69371,-16.67314 -53.200592,-32.68323 -5.505564,-6.52622 -6.004716,-7.67352 -10.124577,-14.90004 -1.437854,-2.51811 -3.143908,-5.16287 -2.659657,-8.19503 0.767352,-4.827607 8.977274,-16.837037 12.203133,-20.860047 17.656543,-22.03716 39.425503,-31.021881 66.446723,-35.655793 0,0 5.215016,0 5.215016,0 z M 41.641124,85.626533 c -3.210958,3.50896 -11.964731,13.17163 -12.136082,17.872597 -0.0894,2.40635 1.571954,4.76801 2.823558,6.70501 4.090061,6.30272 5.602415,7.98643 10.795074,13.34299 14.90749,15.37684 34.7171,24.69682 56.0018,26.91692 0,0 9.685026,0 9.685026,0 24.39881,1.05045 50.51113,-8.82082 67.79518,-26.10487 4.32101,-4.32101 7.92682,-8.95492 11.13033,-14.15504 1.30375,-2.1307 2.98746,-4.85741 2.65966,-7.45002 -0.2831,-2.1754 -2.15306,-4.879757 -3.35996,-6.705007 -4.06026,-6.12392 -6.75717,-9.01453 -11.92003,-14.15504 -13.90919,-13.84959 -37.5481,-24.55527 -57.36516,-24.51057 0,0 -14.90004,0 -14.90004,0 0,0 -4.470006,0 -4.470006,0 -23.46011,3.72501 -40.27481,10.25123 -56.73935,28.24303 z m 103.264726,-6.71247 c 5.93021,9.14863 5.74396,18.63995 5.62476,29.055077 -0.20115,16.98604 -10.83978,32.67579 -28.31007,35.43229 0,0 -8.94003,0.39485 -8.94003,0.39485 0,0 -5.96001,0.61836 -5.96001,0.61836 -12.307436,0 -23.326016,-5.01387 -30.895236,-14.84044 -7.10732,-9.22313 -7.53197,-19.53396 -6.35486,-30.545087 0,0 0,-5.96001 0,-5.96001 0.8344,-6.57092 4.23161,-13.64844 8.65692,-18.4984 5.89297,-6.48152 13.47709,-9.40193 21.888156,-10.97388 15.99519,-2.04876 34.82884,0.7003 44.29037,15.31724 z m -44.29037,-2.30951 c -8.954926,4.02302 -19.526496,15.92815 -19.921356,26.149567 -0.12665,3.23331 1.25906,7.52452 2.62241,10.43003 4.90956,10.47473 14.97454,19.07205 26.983966,19.3626 2.23501,0.0522 4.53707,0.0447 6.70502,-0.5811 10.98878,-3.15881 22.70021,-17.35109 22.25321,-29.21153 -0.1192,-3.233297 -1.8625,-6.861457 -3.35996,-9.685017 -5.33421,-10.06498 -15.77914,-19.02735 -27.83327,-18.40155 -2.55536,0.40975 -5.07347,0.87165 -7.45002,1.937 z m 88.49878,180.335187 c -5.35656,5.98236 -10.12457,3.71011 -9.48387,9.71482 0.2682,2.58516 0.84185,3.79206 0.6258,6.70502 -0.7301,9.96068 -10.26613,8.93257 -13.78999,12.24038 -2.70435,2.53301 -3.1141,7.12967 -9.23057,9.96813 -5.05856,2.34676 -14.37854,1.6986 -20.11505,1.63155 0,0 -20.86006,-2.76395 -20.86006,-2.76395 -5.24481,-0.64816 -7.80762,0.2682 -15.64504,-1.30376 -3.292906,-0.66305 -12.463886,-4.87976 -15.645036,-6.59327 -4.43277,-2.384 -11.13778,-6.45916 -14.90004,-9.67757 -4.54452,-3.88891 -5.54282,-7.10732 -11.92004,-7.22652 -5.31931,-0.0969 -12.73953,0.58855 -16.97859,-3.27056 -3.851661,-3.50896 -6.906169,-15.32469 -7.897022,-20.5695 -2.294606,-12.15844 -2.205206,-30.39608 3.106659,-41.72012 1.691154,-3.6058 4.127311,-9.06667 7.643723,-11.07072 3.50151,-2.00406 9.38702,-1.60176 13.38023,-1.59431 0,0 17.88005,0.894 17.88005,0.894 5.10326,-1.0877 10.28848,-4.69351 14.90004,-6.99557 6.92107,-3.46425 23.899656,-11.86788 30.545076,-13.85703 8.15777,-2.45106 21.71681,-1.74331 30.54508,-1.64646 7.48727,0.0894 18.3047,1.87741 24.58507,6.03452 6.83912,4.53706 11.77848,11.16013 17.88005,16.52414 1.63155,1.44531 7.33082,6.47407 8.18012,8.05348 3.21841,5.99726 -2.84591,14.53498 -8.18012,17.06799 2.73415,6.87637 5.42361,15.49604 -3.72501,18.62505 3.50151,6.86892 4.65626,14.61694 -0.90146,20.83026 z m 48.38788,-73.73285 c 0,0 13.60374,-2.32441 13.60374,-2.32441 0,0 34.27009,-5.86316 34.27009,-5.86316 2.49576,8.01622 -1.9519,6.39211 -5.05856,13.41003 -1.54216,3.49406 -2.36911,13.13439 -2.39146,17.13505 0,0 0,9.68502 0,9.68502 0,0 -0.745,11.92004 -0.745,11.92004 0,0 0,40.2301 0,40.2301 0.0969,8.11308 2.42871,12.44154 11.17503,12.65759 0,0 11.92003,-0.73755 11.92003,-0.73755 0,0 -1.49,11.92003 -1.49,11.92003 0,0 -36.5051,0 -36.5051,0 0,0 -23.09506,2.235 -23.09506,2.235 0,0 0.745,-11.17503 0.745,-11.17503 6.66032,-0.30545 14.22954,-1.9668 17.813,-8.19502 2.10835,-3.65796 3.02471,-12.10628 3.04706,-16.39004 0,0 0,-49.91514 0,-49.91514 -0.007,-2.52555 0.0521,-4.19436 -0.49916,-6.70501 -3.01725,-13.78999 -16.10694,-5.74397 -24.83091,-8.19502 0,0 2.0413,-9.69248 2.0413,-9.69248 z m -95.16655,18.68465 c 2.33931,-1.0132 7.57667,-4.45511 9.68502,-4.38061 2.60006,0.0969 6.57092,4.17946 8.94003,5.74396 3.47916,2.29461 12.35958,6.22077 16.39004,7.12967 5.37147,1.21435 13.45474,-0.8195 11.79338,-5.56516 -0.9238,-2.64476 -7.27867,-7.62882 -9.55837,-9.75208 -3.50896,-3.27056 -8.50047,-8.53772 -12.66504,-10.80253 -5.00641,-2.71926 -10.81742,-3.25566 -16.39004,-3.28546 0,0 -14.15504,-0.745 -14.15504,-0.745 -12.68738,0.149 -30.31413,10.12458 -41.720106,15.83129 -6.92852,3.46426 -12.96303,7.24887 -20.86005,7.26377 0,0 -17.88005,0 -17.88005,0 -9.17843,0.0149 -9.25293,3.44936 -11.26443,11.92003 -2.35421,9.93833 -1.96681,20.68871 0.55875,30.54509 0.6258,2.45105 2.21266,9.14862 3.77716,10.79507 3.94851,4.16457 15.58544,0.0224 19.51905,1.67626 1.91466,0.8046 6.19842,7.25632 9.01453,9.74463 4.97661,4.38806 14.66164,9.37957 20.86005,12.05413 0.6407,-6.07922 3.732456,-10.34063 8.940026,-13.41004 -2.15306,-6.31017 -7.09987,-8.62712 -13.410036,-8.94002 4.73076,-8.09817 9.558376,-9.97558 15.645036,-15.64504 0,0 -10.430026,-5.21502 -10.430026,-5.21502 0,0 10.430026,-13.41003 10.430026,-13.41003 0,0 -4.47001,-1.49001 -4.47001,-1.49001 7.27122,-10.48218 9.11882,-7.23397 13.41004,-20.0629 10.54922,5.79611 13.26103,4.84996 23.84006,0 z m 27.56507,19.0497 c 0,0 -14.90004,-6.59327 -14.90004,-6.59327 -7.30847,-2.07855 -23.10251,0.6407 -29.05507,5.37147 0,0 13.41003,4.87231 13.41003,4.87231 0,0 10.43003,0.9089 10.43003,0.9089 0,0 5.14796,0 5.14796,0 0,0 6.77207,0.9238 6.77207,0.9238 0,0 16.39004,0.71521 16.39004,0.71521 0,0 6.70502,-0.71521 6.70502,-0.71521 -3.44191,-5.89296 -4.67861,-2.0413 -14.90004,-5.48321 z m -44.70012,20.07035 c 10.54923,8.18013 24.82347,11.26443 37.9951,12.16589 5.23737,0.3576 20.07036,-0.54386 18.2749,-8.87298 -1.24415,-5.76631 -10.56412,-5.55026 -15.29489,-5.89296 0,0 -15.64504,-1.60176 -15.64504,-1.60176 0,0 -7.45002,0 -7.45002,0 0,0 -14.90004,-3.56856 -14.90004,-3.56856 0,0 -11.17503,0 -11.17503,0 1.86251,3.20351 5.22247,5.46087 8.19502,7.77037 z m 5.96002,30.39608 c 4.10496,1.26651 8.42597,1.19946 12.66503,1.20691 0,0 14.90004,0.745 14.90004,0.745 2.30206,0 6.05687,0.0745 7.97897,-1.06535 3.10666,-1.69861 1.79546,-5.71417 0,-7.00302 -1.6986,-1.08025 -4.60411,-0.8344 -6.48896,-0.8791 0,0 -9.68503,-0.94616 -9.68503,-0.94616 -5.98982,-0.76735 -11.57733,-2.2052 -17.13504,-4.58176 -7.51707,-3.21096 -12.20314,-7.35317 -20.86006,-4.89466 2.81611,6.24311 11.97218,15.36194 18.62505,17.41814 z m -15.64504,5.67692 c 0,0 0.745,0.745 0.745,0.745 0,0 0,-0.745 0,-0.745 0,0 -0.745,0 -0.745,0 z m 8.94002,6.68267 c 5.07346,1.63155 10.37043,1.937 15.64504,2.3244 4.35081,0.3129 6.19842,1.34846 10.43003,-0.81205 0,0 -18.62505,-1.8178 -18.62505,-1.8178 0,0 -14.90004,-5.63222 -14.90004,-5.63222 0.0522,3.52386 4.55196,5.00641 7.45002,5.93767 z"
     style="fill:#000000;fill-opacity:1;stroke:none;stroke-width:1"
     inkscape:connector-curvature="0" />
</svg>
