<?xml version="1.0" encoding="UTF-8" standalone="no"?>
<svg
   xmlns:dc="http://purl.org/dc/elements/1.1/"
   xmlns:cc="http://creativecommons.org/ns#"
   xmlns:rdf="http://www.w3.org/1999/02/22-rdf-syntax-ns#"
   xmlns:svg="http://www.w3.org/2000/svg"
   xmlns="http://www.w3.org/2000/svg"
   xmlns:sodipodi="http://sodipodi.sourceforge.net/DTD/sodipodi-0.dtd"
   xmlns:inkscape="http://www.inkscape.org/namespaces/inkscape"
   width="100"
   height="100"
   viewBox="0 0 333.33269 333.33269"
   id="svg2"
   version="1.1"
   inkscape:version="0.91 r13725"
   sodipodi:docname="lop.svg">
  <metadata
     id="metadata9">
    <rdf:RDF>
      <cc:Work
         rdf:about="">
        <dc:format>image/svg+xml</dc:format>
        <dc:type
           rdf:resource="http://purl.org/dc/dcmitype/StillImage" />
        <dc:title></dc:title>
      </cc:Work>
    </rdf:RDF>
  </metadata>
  <defs
     id="defs7" />
  <sodipodi:namedview
     pagecolor="#ffffff"
     bordercolor="#666666"
     borderopacity="1"
     objecttolerance="10"
     gridtolerance="10"
     guidetolerance="10"
     inkscape:pageopacity="0"
     inkscape:pageshadow="2"
     inkscape:window-width="1218"
     inkscape:window-height="697"
     id="namedview5"
     showgrid="false"
     units="px"
     inkscape:zoom="1.5733302"
     inkscape:cx="75.000148"
     inkscape:cy="75.000148"
     inkscape:window-x="54"
     inkscape:window-y="-8"
     inkscape:window-maximized="1"
     inkscape:current-layer="svg2" />
  <path
     id="Lop"
     d="m 216.66426,178.52377 c -4.18418,-1.29604 -14.26303,-4.73022 -14.67092,-9.85517 -0.17763,-2.24998 4.62495,-9.46044 5.91442,-11.842 3.99996,-7.38809 10.00648,-20.43402 12.91435,-28.28921 1.13157,-3.05919 5.78942,-11.73016 1.67104,-13.76304 -2.18419,-1.07894 -3.88812,0.83552 -4.80259,2.59208 0,0 -6.47362,16.43407 -6.47362,16.43407 -6.43416,14.94723 -17.28932,37.63123 -30.07868,47.68377 -9.73675,7.65783 -20.82218,5.72364 -26.71028,-5.57889 -2.47366,-4.74996 -2.29603,-9.31571 -2.23682,-14.47356 0.0987,-8.3486 3.98022,-18.08536 7.32888,-25.65766 8.19071,-18.5393 22.82216,-39.354905 35.43389,-55.262655 0,0 12.98014,-15.789328 12.98014,-15.789328 1.59209,-1.855246 4.8618,-5.927577 6.86836,-7.03283 1.74341,-0.960518 10.58543,-2.480241 13.04593,-2.888132 5.78285,-0.967097 21.74323,-3.368391 26.97344,-3.098656 15.12487,0.782887 27.97343,6.230206 37.62466,18.282726 2.11182,2.631555 6.72362,8.565712 6.99994,11.841998 0.18421,2.197348 -1.74341,10.388063 -2.2434,13.157775 -1.71051,9.486752 -5.00654,25.730032 -4.88154,34.868102 0.11184,7.78941 3.86839,5.58548 6.05258,15.13145 2.08551,8.42097 1.35525,19.13798 0,27.63132 -0.55921,2.84208 -1.46709,7.96704 -3.69734,9.89465 -4.99337,4.31575 -14.00645,0.3421 -20.11823,0.21052 0,-1.50656 -0.13158,-1.4934 0.39473,-2.80918 0.95394,-2.37498 5.94073,-5.17101 8.15782,-6.6381 2.17103,-1.42762 7.49335,-4.03944 6.74994,-7.1973 -0.63815,-2.7105 -3.43418,-2.60524 -5.43416,-1.64472 -3.14471,1.50656 -10.35517,7.58545 -13.15778,7.73019 -2.64471,0.14473 -10.88806,-5.88153 -13.81566,-7.40783 -1.96051,-1.01315 -4.60522,-1.82893 -5.86837,0.72368 -1.33551,2.68419 2.03946,4.79601 3.8947,6.01968 2.21709,1.46709 10.09859,5.7039 11.19069,7.38809 0.69736,1.07894 0.61184,2.3684 0.65131,3.59865 -16.25643,0 -35.026,0.875 -50.65743,-3.96049 z m -17.1709,81.59137 c 0.29605,6.20389 -3.96049,10.94069 -9.14465,13.73671 -8.82887,4.76312 -20.35508,6.65126 -30.26289,7.37494 -2.04603,0.14473 -3.13155,0.54604 -5.26311,0.38815 -19.42745,-1.45393 -36.20361,-5.93416 -54.60476,-12.07226 -19.512983,-6.49994 -38.861492,-14.73671 -55.920547,-26.34186 -6.86178,-4.67101 -6.427573,-0.15132 -13.815664,-1.85525 -9.269652,-2.13814 -14.019609,-11.86173 -13.809085,-20.70376 0.197367,-8.09203 4.447328,-8.53282 5.26311,-13.15777 0,0 0,-3.94734 0,-3.94734 0,0 0.65131,-11.84199 0.65131,-11.84199 0.02632,-4.93417 1.276304,-14.14461 2.269716,-19.07878 4.263119,-21.18402 16.874847,-41.22989 32.598388,-55.86133 11.940681,-11.10517 29.815518,-19.210355 44.736432,-25.618191 20.23666,-8.684132 41.34831,-15.401176 62.49943,-21.427437 0,0 37.49966,-9.592016 37.49966,-9.592016 0,0 -17.84194,23.026104 -17.84194,23.026104 -11.43411,14.999864 -24.63135,34.67074 -32.05892,51.97321 -4.24996,9.90123 -7.46046,19.34851 -7.33546,30.26289 0.15789,13.10514 9.90781,26.92738 23.684,27.94711 7.22361,0.53947 15.36828,-4.84206 20.33534,-9.63807 1.63814,-1.57893 5.98679,-7.65125 8.01308,-7.65125 1.61183,-0.007 4.42759,2.93419 5.86179,3.95392 2.92761,2.09208 7.70388,4.04601 11.18411,5.02627 15.71038,4.41443 28.01948,4.7039 44.07855,4.7039 0,0 -3.96049,6.57889 -3.96049,6.57889 -2.28288,4.44075 -5.69732,16.7959 -5.75653,21.71033 -0.0263,1.74998 0.3421,2.48682 1.24999,3.94733 1.21051,1.94077 2.2434,3.01313 3.32234,5.26311 2.28945,4.76969 2.54603,10.45385 -4.06576,11.13806 0,0 -4.60522,0 -4.60522,0 -2.59208,-0.0987 -4.13154,-0.55921 -6.57888,-1.26973 4.86179,9.49334 2.46708,15.16434 -5.921,21.55244 -7.76309,5.90784 -19.04588,10.23674 -28.28922,13.31566 1.13157,-4.01312 3.27629,-7.44072 3.04603,-11.84199 -0.72368,-13.54593 -14.17751,-24.84846 -27.38791,-24.99978 -8.08546,-0.0921 -6.6381,0.9671 -13.15778,1.97367 0.0197,-6.07889 0.51973,-9.67754 -1.34209,-15.78933 -2.4934,-8.19729 -7.40783,-15.35512 -13.03278,-21.71033 -13.74987,-15.55249 -36.1773,-27.86817 -57.335002,-27.63133 -10.4078,0.11842 -20.920862,4.17102 -28.947105,10.69728 -2.144717,1.7434 -6.881516,5.62494 -7.414406,8.3815 -0.421049,2.19077 1.789457,5.48679 6.098629,1.87498 6.980199,-5.84205 8.539396,-8.53282 17.762996,-11.69068 19.355088,-6.63152 43.229868,3.17102 57.894208,15.92748 9.03939,7.86177 20.58534,22.51954 19.61824,35.33521 -0.44078,5.75653 -2.8026,10.13806 -6.46046,14.47355 0,0 5.26311,4.60522 5.26311,4.60522 12.73014,-16.28274 40.50621,-9.73675 41.3812,8.55256 z M 311.40024,112.09017 c 2.03945,9.51307 4.55259,22.60506 4.60522,32.23655 0,0 0.65789,10.52622 0.65789,10.52622 0.0592,5.0789 -0.66447,16.09853 -1.49999,21.05244 -0.46052,2.69734 -1.07894,6.20389 -4.43417,6.41441 -1.69735,0.10526 -5.44732,-1.04604 -6.16442,-2.74339 -0.58552,-1.38157 0.67763,-5.90127 0.9671,-7.61836 1.12499,-6.67099 1.34209,-10.3749 1.26314,-17.1051 -0.0526,-4.55259 -1.40788,-12.28937 -3.21049,-16.44722 -1.25657,-2.90787 -4.12497,-6.12495 -4.3947,-8.55256 0,0 1.51972,-13.81566 1.51972,-13.81566 0,0 4.11181,-23.683997 4.11181,-23.683997 2.59208,3.624967 5.57232,15.052497 6.57889,19.736667 z m -84.58476,10.24332 c -1.98025,1.95393 -1.76314,5.07233 -1.00657,7.51967 1.85525,5.96705 4.87495,9.04597 11.2499,9.20387 2.86839,0.0658 6.12494,0.0855 8.21703,-2.22367 3.01313,-3.32233 -0.18421,-12.00647 -3.09866,-14.59197 -2.55919,-2.2763 -6.5131,-2.36182 -9.72359,-2.06577 -1.98683,0.34868 -4.13155,0.67104 -5.63811,2.15787 z m 12.21699,9.49334 c -4.59864,-0.0526 -4.71048,-0.34868 -6.57888,-4.60522 4.29601,0.0526 5.28284,0.26973 6.57888,4.60522 z"
     inkscape:connector-curvature="0"
     style="fill:#000000;fill-opacity:1;stroke:none;stroke-width:1" />
</svg>
