<?xml version="1.0" encoding="UTF-8" standalone="no"?>
<svg
   xmlns:dc="http://purl.org/dc/elements/1.1/"
   xmlns:cc="http://creativecommons.org/ns#"
   xmlns:rdf="http://www.w3.org/1999/02/22-rdf-syntax-ns#"
   xmlns:svg="http://www.w3.org/2000/svg"
   xmlns="http://www.w3.org/2000/svg"
   xmlns:sodipodi="http://sodipodi.sourceforge.net/DTD/sodipodi-0.dtd"
   xmlns:inkscape="http://www.inkscape.org/namespaces/inkscape"
   width="100"
   height="100"
   viewBox="0 0 333.33269 333.33269"
   id="svg2"
   version="1.1"
   inkscape:version="0.91 r13725"
   sodipodi:docname="lost.svg">
  <metadata
     id="metadata9">
    <rdf:RDF>
      <cc:Work
         rdf:about="">
        <dc:format>image/svg+xml</dc:format>
        <dc:type
           rdf:resource="http://purl.org/dc/dcmitype/StillImage" />
        <dc:title></dc:title>
      </cc:Work>
    </rdf:RDF>
  </metadata>
  <defs
     id="defs7" />
  <sodipodi:namedview
     pagecolor="#ffffff"
     bordercolor="#666666"
     borderopacity="1"
     objecttolerance="10"
     gridtolerance="10"
     guidetolerance="10"
     inkscape:pageopacity="0"
     inkscape:pageshadow="2"
     inkscape:window-width="1218"
     inkscape:window-height="697"
     id="namedview5"
     showgrid="false"
     units="px"
     inkscape:zoom="2.2250249"
     inkscape:cx="75.106587"
     inkscape:cy="25.458863"
     inkscape:window-x="54"
     inkscape:window-y="-8"
     inkscape:window-maximized="1"
     inkscape:current-layer="svg2" />
  <path
     id="Lost Bee"
     d="m 155.08539,22.213457 c 12.22177,-2.308471 30.05645,-1.721703 35.4223,11.997877 0.90331,2.300751 1.52096,5.250035 1.60589,7.72064 0.0926,2.933844 -0.4478,6.516219 -1.47464,9.264767 -2.34708,6.276881 -7.0335,10.832059 -12.39163,14.638335 -2.10001,1.490084 -7.33461,4.416206 -8.47726,6.369529 -1.21214,2.069131 -0.78751,9.473226 -0.78751,12.190891 l -10.03683,0 c 0,-3.065094 -0.53273,-15.356354 0.76434,-17.286514 1.11177,-1.652217 5.82909,-3.945248 7.72836,-5.17283 4.72504,-3.049653 10.26074,-7.635713 12.25266,-13.055603 4.13054,-11.264413 -5.90629,-18.128062 -16.11298,-17.726589 -7.34233,0.285664 -12.76222,3.335317 -19.3016,6.14563 l 0,-12.353025 z m 77.50751,6.330926 c 2.27759,-0.841549 9.6894,1.953322 12.05192,2.88752 11.42655,4.532016 24.92995,13.14053 22.9303,27.485479 -1.62905,11.696771 -11.01735,18.745716 -22.15823,20.506022 -2.78716,0.440076 -12.74678,0.864711 -14.50709,1.899277 -2.29303,1.351112 -5.21143,7.496742 -6.33864,10.021392 l -9.26477,-4.632384 c 1.35883,-3.041933 6.70923,-13.796785 9.4269,-14.978044 1.67538,-0.72574 8.4155,-0.440076 10.64676,-0.463238 5.73644,-0.06949 11.15633,-1.420598 15.4104,-5.481655 1.4206,-1.358833 2.63274,-2.825754 3.57466,-4.555178 3.23495,-5.952614 1.00368,-10.222128 -3.57466,-14.592009 -6.87909,-6.554824 -15.64202,-7.797847 -24.67517,-7.797847 0.84155,-2.269868 4.26952,-9.480947 6.47762,-10.299335 z M 61.88953,48.108485 c 0.12353,-2.933842 6.716957,-8.46182 9.04087,-10.291612 9.866979,-7.774685 25.393188,-13.97436 36.25613,-4.21547 8.1916,7.365491 8.47727,19.525498 4.80996,29.176299 l -5.20371,12.353025 c -0.1467,2.370237 3.8526,8.79381 5.05702,11.580962 -1.67538,1.003683 -5.7982,3.813996 -7.64344,3.675025 -1.7217,-0.131251 -2.54781,-1.621335 -3.37392,-2.918403 -1.312507,-2.084573 -5.304078,-8.608514 -5.342681,-10.793455 -0.04632,-2.231266 2.323912,-5.674671 3.404802,-7.720641 2.192659,-4.161426 4.701869,-9.148959 5.087899,-13.897154 0.1853,-2.269868 -0.16985,-4.061057 -0.98824,-6.176512 C 97.805951,35.36943 86.016532,38.681585 77.114634,46.147444 72.559455,49.97688 70.667898,53.875803 67.07008,58.145318 65.873381,56.153392 61.804603,50.123572 61.88953,48.108485 Z m 107.86508,47.095908 0,11.580957 -11.58097,0 0,-11.580957 z m -50.95623,0.772064 4.63238,10.036833 -10.03684,5.40445 -5.40444,-10.03683 z m 100.36833,5.404453 -5.40445,10.03683 -10.03683,-5.40445 4.63238,-10.036833 z m -90.82562,46.32384 c 2.29303,3.1809 2.38568,5.77504 4.58606,8.46182 l 13.78906,12.38391 c -0.45551,-2.53237 -1.31251,-5.95262 0,-8.26109 0.98825,-1.39743 9.30338,-4.60922 11.45743,-5.63607 l 0,-1.54412 c -5.41989,-2.10774 -12.83942,-8.42322 -16.21334,-13.12509 l 19.3016,12.35302 c 0.81839,-2.48604 2.06141,-8.33829 5.40445,-8.33829 3.34304,0 4.58606,5.85225 5.40445,8.33829 l 19.3016,-12.35302 c -3.37392,4.70187 -10.79346,11.01735 -16.21335,13.12509 l 0,1.54412 c 2.15406,1.02685 10.46919,4.23864 11.45744,5.63607 1.3125,2.30847 0.45551,5.72872 0,8.26109 l 13.69641,-12.38391 4.67871,-8.46182 c 2.73311,-3.79856 14.49164,-13.9898 18.80748,-16.21335 l -9.45778,12.35303 -5.16511,9.26477 -6.50078,7.72064 c -3.1423,4.4162 -3.64414,10.19124 -12.84715,13.12509 l 6.94858,20.84573 c 6.13019,-3.29672 10.60044,-7.18792 16.21334,-11.00192 l 12.34531,-7.7824 7.73608,-7.87506 13.11737,-9.21072 7.75152,-7.99858 c 4.28496,-3.92209 12.82399,-8.64712 18.49866,-10.17581 -5.29636,9.85926 -16.36776,13.58061 -23.90311,20.91522 -4.33128,4.21547 -4.96437,7.7438 -7.91365,10.4383 -3.44341,3.15775 -8.9019,3.75996 -12.56921,8.80925 -2.71766,3.73679 -2.00736,8.34602 -6.65519,12.9784 -4.47025,4.45481 -9.75889,5.77504 -13.81222,9.39602 l 21.61779,1.54413 6.94858,0 41.69146,-5.40445 4.63238,0 c 6.5085,0.008 7.75152,0.61765 13.89715,2.42428 4.81768,1.4206 16.02805,5.46622 19.04682,9.23389 2.11546,2.64818 1.45921,4.54746 -1.37427,6.0607 -4.17687,2.22355 -9.52727,2.53237 -12.97068,5.61291 -4.09966,3.68274 -6.43129,10.57728 -10.24529,14.35267 -7.97542,7.89049 -20.77624,3.98385 -29.97152,0.91875 1.7217,3.27356 4.50113,7.71293 3.52061,11.56552 -0.98824,3.86033 -4.80996,4.87173 -8.153,5.92174 -6.68607,2.10001 -19.77256,2.58641 -27.02224,2.58641 5.30408,5.0107 11.5192,12.65413 12.82398,20.07367 0.46324,2.63274 -0.27794,4.4162 -0.39375,6.94857 l 0.68714,9.26477 -0.47868,8.49271 c 0.44007,3.26583 2.84119,6.3232 4.34672,9.26477 -8.50043,-4.97982 -7.62027,-9.74345 -7.72064,-18.52954 -0.0849,-6.80189 -1.72943,-8.05263 -2.47833,-13.89716 -0.31654,-2.47832 0.0463,-5.44305 -1.05773,-7.64343 -2.71766,-5.38129 -8.2688,-3.08054 -12.67729,-4.43937 -4.32356,-1.33567 -9.18756,-6.37725 -12.35302,-9.53499 0,11.27986 -0.82611,26.62077 -8.74749,35.44546 -4.03789,4.50114 -9.60448,6.55483 -15.1865,8.17616 -12.76994,4.10738 -26.65165,3.86804 -39.37527,0 -5.27319,-1.77575 -10.6236,-3.95297 -14.41443,-8.17616 -7.92138,-8.82469 -8.74749,-24.1656 -8.74749,-35.44546 -3.16546,3.15774 -8.02947,8.19932 -12.35303,9.53499 -4.42392,1.36656 -9.93646,-0.94964 -12.67729,4.43937 -1.111772,2.19266 -0.911036,5.86769 -1.235302,8.4155 l -2.169501,10.03683 c -1.034565,9.6508 2.40884,15.60342 -7.851891,21.6178 1.505525,-2.94157 3.906644,-5.99894 4.346721,-9.26477 l -0.47868,-8.49271 0.687137,-9.26477 c -0.11581,-2.53237 -0.856991,-4.31583 -0.393753,-6.94857 1.304789,-7.41954 7.519904,-15.06297 12.823989,-20.07367 -7.249686,0 -20.336172,-0.4864 -27.022247,-2.58641 -3.343038,-1.05001 -7.164755,-2.06141 -8.152997,-5.92174 -0.980521,-3.85259 1.79891,-8.29196 3.520612,-11.56552 -9.195283,3.0651 -21.996105,6.97174 -29.971527,-0.91875 -3.813996,-3.77539 -6.14563,-10.66993 -10.24529,-14.35267 -3.443406,-3.08054 -8.79381,-3.38936 -12.970677,-5.61291 -2.833475,-1.51324 -3.489729,-3.41252 -1.374274,-6.0607 2.748548,-3.43569 10.268452,-6.08387 14.414437,-7.65116 5.937173,-2.23898 12.16773,-3.99929 18.529537,-4.00701 l 3.860321,0 42.463524,5.40445 8.492701,0 20.07367,-1.54413 c -4.00701,-3.58238 -10.37654,-5.55886 -14.49936,-10.10632 -3.83716,-4.24635 -3.67503,-9.48866 -6.57799,-13.02472 -3.5901,-4.36216 -8.693441,-5.05702 -11.959272,-8.05263 -3.13458,-2.86435 -3.505171,-6.40041 -8.662559,-11.1486 -7.566228,-6.94858 -18.07402,-10.73169 -23.154202,-20.20492 5.674671,1.52869 14.2137,6.25372 18.498656,10.17581 l 7.751523,7.99858 13.117364,9.21072 7.73609,7.87506 12.3453,7.7824 c 5.61291,3.814 10.08316,7.7052 16.21335,11.00192 l 6.94858,-20.84573 c -9.20301,-2.93385 -9.70485,-8.70889 -12.84715,-13.12509 l -6.50078,-7.72064 -5.16511,-9.26477 -9.45779,-12.35303 c 4.42393,2.27759 15.91997,12.19861 18.80749,16.21335 z m 19.65675,30.88256 c -0.51728,1.21214 -0.9728,2.41656 -0.45552,3.72135 1.88384,4.72503 16.16702,6.5085 20.66816,6.08386 4.26179,-0.40147 16.89276,-1.51324 17.76519,-6.78644 0.4478,-2.68678 -2.36251,-6.5857 -4.71731,-7.65887 -4.59378,-2.0923 -14.13649,-2.56326 -19.2244,-2.0923 -5.75187,0.84927 -11.45743,0.63309 -14.03612,6.7324 z m -39.2363,30.85168 -9.264769,0 -44.007652,-6.00666 c -2.578694,-0.17757 -3.767673,0.2625 -6.176513,0.50184 -7.404094,0.74119 -19.456015,1.99193 -23.161922,9.39602 6.50078,2.87208 8.732045,3.39709 13.650093,9.26477 3.628701,4.339 6.948576,11.44199 12.600085,13.35671 6.446736,2.19266 14.267745,-2.10001 20.073666,-4.53973 l 33.970822,-12.98612 c 7.66659,-3.04194 12.82399,-3.98385 18.52954,-10.50007 z m 171.39823,-6.00666 c -5.56658,-0.39375 -20.95382,2.71767 -27.02224,3.87576 -9.1644,1.73715 -16.95453,2.26987 -26.25018,2.16178 -4.5629,-0.054 -14.94716,-2.14633 -18.52954,-0.77206 l 6.17651,4.57834 12.35303,5.03386 32.42669,12.46883 c 6.18423,2.50149 14.83135,7.4813 21.61779,5.17283 5.65151,-1.91472 8.97139,-9.01771 12.60009,-13.35671 4.91805,-5.86768 7.14931,-6.39269 13.65009,-9.26477 -3.98385,-7.95226 -18.99278,-9.32653 -27.02224,-9.89786 z m -179.89093,23.54796 c -4.76364,1.79891 -19.054546,7.18791 -21.980669,10.44602 -1.961043,2.18495 -4.161425,6.77101 -2.918402,9.71257 1.590452,3.76767 8.307409,4.00701 11.773977,4.02245 l 14.669214,0 c 1.84524,-0.0309 3.65959,0 5.33497,-0.90331 2.64046,-1.42832 4.67098,-5.04158 6.12246,-7.58939 4.53974,-7.94454 5.52027,-13.35671 5.52799,-22.38986 z m 120.23354,16.4604 c 1.52868,2.62502 3.46657,5.97578 6.41585,7.14932 2.40884,0.96508 15.06297,0.57904 18.49866,0.57132 3.61325,-0.008 10.87066,-0.054 12.54604,-4.02245 1.24302,-2.94156 -0.95736,-7.52762 -2.91841,-9.71257 -2.92612,-3.25811 -17.21702,-8.64711 -21.98066,-10.44602 l -18.52954,-6.70152 c 0.008,9.54271 1.11949,14.83907 5.96806,23.16192 z m -86.23956,4.63239 c -0.45552,5.5357 6.96402,11.27985 11.5578,13.07104 10.25301,4.01474 28.94468,4.34672 39.37527,0.82611 5.3504,-1.80663 14.41443,-7.2574 13.87399,-13.89715 -0.14669,-1.72943 -2.21583,-5.18055 -3.0651,-6.94858 -4.23863,3.03421 -7.56622,7.20336 -12.35302,9.27249 -10.3225,5.08018 -24.55164,5.0879 -34.74288,0 -4.16143,-2.34707 -7.52763,-5.99122 -10.8089,-9.27249 -1.50553,1.79119 -3.63642,4.55518 -3.83716,6.94858 z m 8.46954,30.25719 c 13.41848,4.96437 36.31018,5.33496 49.4121,-0.64081 8.95595,-4.08422 16.95453,-9.85154 10.8089,-20.35161 -3.45113,4.18458 -8.96366,8.95594 -13.89715,11.27213 -12.05964,5.67467 -32.72008,5.67467 -44.77972,0 -4.93349,-2.31619 -10.44603,-7.08755 -13.89715,-11.27213 -6.35409,10.85522 2.88752,17.49497 12.35302,20.99242 z"
     inkscape:connector-curvature="0"
     style="fill:#000000;fill-opacity:1;stroke:none;stroke-width:1"
     sodipodi:nodetypes="cccccccccccccccccccccccccccccccccccccccccccccccccccccccccccccccccccsccccccccccccccccccccccccccccccccccccsccccccccccccccscccccccccccsccccccccccccccccccccccccccccccccccccccccccccccccccccccccccccccccccccccccccccccccccccccccccc" />
</svg>
