<?xml version="1.0" encoding="UTF-8" standalone="no"?>
<svg
   xmlns:dc="http://purl.org/dc/elements/1.1/"
   xmlns:cc="http://creativecommons.org/ns#"
   xmlns:rdf="http://www.w3.org/1999/02/22-rdf-syntax-ns#"
   xmlns:svg="http://www.w3.org/2000/svg"
   xmlns="http://www.w3.org/2000/svg"
   xmlns:sodipodi="http://sodipodi.sourceforge.net/DTD/sodipodi-0.dtd"
   xmlns:inkscape="http://www.inkscape.org/namespaces/inkscape"
   width="100"
   height="100"
   viewBox="0 0 333.33269 333.33269"
   id="svg2"
   version="1.1"
   inkscape:version="0.91 r13725"
   sodipodi:docname="MaxTheCat.svg">
  <metadata
     id="metadata9">
    <rdf:RDF>
      <cc:Work
         rdf:about="">
        <dc:format>image/svg+xml</dc:format>
        <dc:type
           rdf:resource="http://purl.org/dc/dcmitype/StillImage" />
        <dc:title></dc:title>
      </cc:Work>
    </rdf:RDF>
  </metadata>
  <defs
     id="defs7" />
  <sodipodi:namedview
     pagecolor="#ffffff"
     bordercolor="#666666"
     borderopacity="1"
     objecttolerance="10"
     gridtolerance="10"
     guidetolerance="10"
     inkscape:pageopacity="0"
     inkscape:pageshadow="2"
     inkscape:window-width="1218"
     inkscape:window-height="697"
     id="namedview5"
     showgrid="false"
     units="px"
     inkscape:zoom="1.5733302"
     inkscape:cx="75.000148"
     inkscape:cy="75.317946"
     inkscape:window-x="54"
     inkscape:window-y="-8"
     inkscape:window-maximized="1"
     inkscape:current-layer="svg2" />
  <path
     id="Selection #22"
     d="m 245.93719,279.20411 c 8.11023,6.19247 4.76513,23.78902 -3.52077,28.35651 -3.65253,2.01292 -15.21765,4.59677 -19.76318,5.57761 -18.09429,3.9014 -25.17244,3.53541 -43.18621,3.50613 0,0 -15.37137,-0.73197 -15.37137,-0.73197 0,0 -7.31969,-0.66609 -7.31969,-0.66609 0,0 -48.31,-4.3479 -48.31,-4.3479 -5.76061,-0.68805 -19.770502,-1.38342 -24.155001,-4.21615 -11.448006,-7.40021 -18.745744,-27.59525 -21.373515,-40.5438 0,0 -3.484176,-22.69106 -3.484176,-22.69106 0,0 0,-7.31969 0,-7.31969 0,0 -0.753929,-6.58773 -0.753929,-6.58773 0,0 0.658773,-8.78364 0.658773,-8.78364 1.383423,-20.15844 7.714961,-37.80623 20.883096,-53.43379 11.33821,-13.46093 29.125072,-25.04801 45.792022,-30.74273 7.42217,-2.53262 12.71431,-4.21615 20.49515,-5.66545 2.42282,-0.45382 7.33434,-0.60021 8.79828,-2.61313 0.79052,-1.09795 1.63229,-5.3873 2.24714,-7.09278 1.19311,-3.32315 5.13111,-8.93735 5.04327,-11.71152 -0.0659,-2.18127 -3.55005,-13.658547 -3.6452,-21.959084 -0.1098,-9.713238 2.33498,-13.702473 4.2381,-22.691061 0,0 2.14467,-18.299237 2.14467,-18.299237 0.95888,-7.993109 1.32487,-22.998491 8.2859,-28.173517 4.28934,-3.184068 9.29601,-1.463939 13.14617,1.478579 5.60689,4.282023 15.83251,18.540796 18.29925,25.230999 6.83659,-1.727449 9.97674,-1.493218 16.8353,-1.420021 2.88396,-0.02928 8.83487,1.19311 10.91367,0 1.80796,-0.958881 3.85016,-4.164908 5.08719,-5.899676 3.74036,-5.240903 8.91539,-14.170937 14.0099,-17.71367 5.32142,-3.689127 10.31345,-2.137352 12.82411,3.806242 0.73197,1.734771 1.27362,4.003878 1.62497,5.855761 0.76125,4.047792 0.91496,5.409256 0.92228,9.515606 0,0 0,14.639389 0,14.639389 0.0146,7.993109 2.07147,8.666521 4.37718,16.103333 1.88848,6.119267 3.42562,15.590955 2.81808,21.959092 -0.99548,10.408605 -4.29666,19.009245 -9.89623,27.814845 -4.30398,6.75608 -11.10398,14.39784 -13.05102,21.95909 -0.5197,2.00559 -1.73477,7.64176 -1.59569,9.5156 0.16835,2.32767 2.32766,6.96104 3.18407,9.51561 1.70549,5.12379 3.11819,12.17266 3.18406,17.56728 0.16836,15.07858 -5.16038,25.71409 -14.39784,37.33045 0,0 -11.20646,12.44349 -11.20646,12.44349 -1.11991,2.24715 -1.3395,12.34833 -1.54445,15.37136 0,0 -0.66609,12.44349 -0.66609,12.44349 -0.0439,9.61076 -1.50054,9.83035 0,21.22712 5.18234,-0.41722 12.99978,-1.29559 17.42819,2.08611 z M 241.42826,44.351639 c -2.43014,3.506135 -5.2409,7.663717 -9.99138,7.158659 -7.10743,-0.768568 -6.17783,-1.398062 -14.6394,-1.302906 0,0 -13.75371,1.537136 -13.75371,1.537136 -2.22519,-0.585576 -4.06975,-4.750478 -5.16771,-6.660919 -2.93519,-5.116468 -7.29041,-11.762754 -11.21377,-16.103334 -1.72745,-1.903121 -5.65081,-6.09731 -8.56405,-4.955438 -2.02755,0.79785 -2.89128,3.784287 -3.44025,5.687408 -1.66158,5.760601 -2.0422,11.645638 -2.6351,17.567273 0,0 -2.55457,20.495146 -2.55457,20.495146 -1.42734,6.580408 -4.14295,12.911946 -3.87944,19.763182 0.1464,3.747686 1.74209,12.289772 2.64241,16.103334 0.49042,2.06415 1.96168,6.19246 1.70549,8.05166 -0.31475,2.24715 -3.22799,5.7972 -4.45037,8.05167 -2.88397,5.32874 -3.55006,10.24025 -2.12272,16.10333 -9.97674,0.007 -21.293,2.46674 -30.74272,5.61421 -25.12852,8.36641 -47.665868,23.84025 -59.062636,48.55155 -7.95651,17.24521 -7.575886,28.6493 -7.546607,46.84607 0.02196,13.73907 4.216145,35.91043 10.086542,48.31 2.283746,4.82368 6.155865,11.64563 10.437888,14.84434 3.184068,2.3789 7.144024,2.3789 10.950267,2.83272 0,0 19.031206,2.20323 19.031206,2.20323 0,0 41.72228,3.57201 41.72228,3.57201 0,0 8.05166,0.7027 8.05166,0.7027 0,0 30.01076,0.73197 30.01076,0.73197 8.6592,-0.10248 20.70742,-2.55458 29.27879,-4.39182 2.96447,-0.63682 11.631,-2.78149 13.87082,-4.27471 3.33047,-2.2325 4.61873,-7.26114 4.28935,-11.09666 -0.45383,-5.37265 -2.04952,-6.51453 -7.18063,-6.58772 0,0 -4.39182,0 -4.39182,0 0,0 -8.05166,0.4831 -8.05166,0.4831 0,0 -7.3197,-0.45383 -7.3197,-0.45383 0,0 -5.85576,0.63682 -5.85576,0.63682 0,0 -34.40257,4.15027 -34.40257,4.15027 -2.68633,0.41722 -12.09214,2.85468 -12.09214,-1.88849 0,-3.35974 5.29946,-3.83552 7.70032,-4.19418 0,0 15.37136,-2.28375 15.37136,-2.28375 1.85921,-0.21959 6.93908,-0.57093 8.31518,-1.56641 2.15199,-1.54446 4.69924,-10.35005 5.49709,-13.18278 4.04047,-12.81679 5.19699,-32.11883 0,-44.65015 -5.21894,-12.23121 -16.12529,-19.60947 -27.71969,-25.048 -3.72573,-1.74209 -8.46157,-3.19139 -12.44349,-4.31862 -1.74208,-0.49042 -4.23078,-1.06136 -4.82368,-2.94252 -0.55629,-0.92228 -0.4099,-1.80065 0,-2.70097 2.02024,-2.35694 6.11195,-0.84176 8.48353,0 9.87427,2.94984 18.06501,6.67556 26.35091,12.97782 3.50614,2.66437 7.77352,6.86588 10.48913,10.32078 11.41872,14.51496 11.29429,34.75392 7.50269,51.96985 0,0 -4.81636,16.8353 -4.81636,16.8353 0,0 16.8353,-0.73197 16.8353,-0.73197 0,0 1.39806,-35.86652 1.39806,-35.86652 0.21959,-3.24262 0.43918,-13.66587 1.65425,-16.10333 1.40538,-2.80344 8.18342,-8.87879 10.73068,-11.71152 6.09731,-6.77071 11.53584,-15.18105 13.54876,-24.155 1.80064,-8.05166 1.34682,-16.2424 -1.01012,-24.155 0,0 -4.31862,-11.71152 -4.31862,-11.71152 -0.47578,-3.16943 1.06135,-10.69407 1.969,-13.90742 3.35974,-11.98967 15.29084,-21.39548 20.43659,-36.59848 3.08891,-9.793754 2.8254,-19.419157 0,-29.278788 -2.0056,-7.802797 -4.8676,-10.276855 -4.88224,-18.299243 -0.0146,-10.00602 1.02476,-21.439387 -2.92788,-30.742722 -6.67556,3.593971 -12.01162,13.490202 -16.35952,19.763182 z m -49.51775,23.078999 c 8.59333,-2.042195 16.462,5.050591 19.03121,12.787511 -9.94746,3.959956 -18.57007,7.927232 -26.9438,-1.478579 -1.65425,-1.844563 -2.18127,-2.854682 -3.06695,-5.109148 3.35242,-2.100753 7.15134,-5.284822 10.97954,-6.199784 z m 57.09364,8.395693 c -3.39634,3.872119 -7.70764,8.783636 -13.17546,9.369212 -4.85296,0.519698 -12.65575,-3.330462 -16.8353,-5.709364 7.22454,-12.326369 20.63423,-16.117973 30.01076,-3.659848 z m -58.55758,-0.73197 c 3.30119,3.62325 5.05059,2.993756 9.51561,2.195909 -2.46674,-4.618729 -5.26286,-3.791603 -9.51561,-2.195909 z m 40.25834,2.195909 c 3.85016,1.566415 5.14574,1.720129 8.05166,-1.463939 -3.73304,-1.632293 -5.12379,-1.420021 -8.05166,1.463939 z m -7.56125,14.639395 c -0.46114,3.776963 -7.66372,8.139495 -2.51798,10.781905 3.37438,1.74209 9.33994,-2.68633 12.27513,-4.14294 1.98364,-0.980839 4.52358,-1.610333 5.7972,0.849085 2.25447,4.362535 -7.90527,8.542085 -10.92098,9.530235 -2.4887,0.81249 -5.43854,1.50054 -8.05167,1.03208 -2.56921,-0.46114 -3.8282,-1.72013 -5.43122,-1.63961 0,0 -5.54833,1.73477 -5.54833,1.73477 -5.52637,0.84908 -9.9621,-0.71001 -14.63939,-3.52078 -1.72013,-1.03207 -4.01851,-2.36426 -4.64069,-4.40645 -0.80516,-2.635089 1.31755,-4.889556 4.64069,-3.674486 3.27191,1.193111 13.13154,9.252096 15.76663,2.210546 1.52249,-4.077069 -8.00775,-7.736917 -3.0084,-12.831427 0.89301,-0.907643 1.28827,-0.871044 1.91044,-1.237029 4.27471,-1.054036 15.21765,-1.734768 14.36857,5.314101 z"
     inkscape:connector-curvature="0"
     style="fill:#000000;fill-opacity:1;stroke:none;stroke-width:1" />
</svg>
