<?xml version="1.0" encoding="UTF-8" standalone="no"?>
<svg
   xmlns:dc="http://purl.org/dc/elements/1.1/"
   xmlns:cc="http://creativecommons.org/ns#"
   xmlns:rdf="http://www.w3.org/1999/02/22-rdf-syntax-ns#"
   xmlns:svg="http://www.w3.org/2000/svg"
   xmlns="http://www.w3.org/2000/svg"
   xmlns:sodipodi="http://sodipodi.sourceforge.net/DTD/sodipodi-0.dtd"
   xmlns:inkscape="http://www.inkscape.org/namespaces/inkscape"
   width="100"
   height="100"
   viewBox="0 0 333.33269 333.33269"
   id="svg2"
   version="1.1"
   inkscape:version="0.91 r13725"
   sodipodi:docname="memory.svg">
  <metadata
     id="metadata9">
    <rdf:RDF>
      <cc:Work
         rdf:about="">
        <dc:format>image/svg+xml</dc:format>
        <dc:type
           rdf:resource="http://purl.org/dc/dcmitype/StillImage" />
        <dc:title></dc:title>
      </cc:Work>
    </rdf:RDF>
  </metadata>
  <defs
     id="defs7" />
  <sodipodi:namedview
     pagecolor="#ffffff"
     bordercolor="#666666"
     borderopacity="1"
     objecttolerance="10"
     gridtolerance="10"
     guidetolerance="10"
     inkscape:pageopacity="0"
     inkscape:pageshadow="2"
     inkscape:window-width="1218"
     inkscape:window-height="697"
     id="namedview5"
     showgrid="false"
     units="px"
     inkscape:zoom="1.5733302"
     inkscape:cx="75.000148"
     inkscape:cy="75.000148"
     inkscape:window-x="54"
     inkscape:window-y="-8"
     inkscape:window-maximized="1"
     inkscape:current-layer="svg2" />
  <path
     id="Memory"
     d="M 40.318765,220.28943 C 26.057923,200.76049 18.963734,176.03589 17.326056,152.17362 c 0,0 -0.659419,-7.24637 -0.659419,-7.24637 0,0 0,-3.62318 0,-3.62318 0,0 0.659419,-7.24636 0.659419,-7.24636 C 21.695612,71.557833 71.550588,21.695612 134.05772,17.326056 c 0,0 7.24636,-0.659419 7.24636,-0.659419 0,0 2.89854,0 2.89854,0 0,0 7.971,0.659419 7.971,0.659419 25.51445,1.753619 52.34773,9.891285 72.46363,26.217341 5.38405,4.369557 16.6304,15.282577 17.52171,22.398505 0.31159,2.478256 -0.84058,6.021727 -2.30435,7.970999 -0.21014,-2.760864 -0.60144,-8.499984 -1.86231,-10.789834 -1.28261,-2.340575 -3.73913,-3.340573 -5.36956,-0.688405 0,0 -1.46376,5.681149 -1.46376,5.681149 C 226.76044,59.137567 217.74596,51.717294 209.41989,46.412957 191.20253,34.818776 165.81852,27.572413 144.20262,27.536181 79.963615,27.434732 27.231833,80.811438 27.536181,144.92725 c 0,0 0.659419,7.971 0.659419,7.971 1.478258,20.17388 7.884042,41.06515 19.159383,57.97091 6.202886,9.28984 13.239105,17.22461 23.659374,21.73909 0,0 -7.970999,7.971 -7.970999,7.971 -8.920272,-2.60144 -17.398516,-12.99273 -22.724593,-20.28982 z M 235.93433,66.746248 c 0,0 2.47101,18.036197 2.47101,18.036197 7.10144,-4.594194 3.15217,-6.536219 6.52173,-12.318817 0,0 -0.72464,8.695636 -0.72464,8.695636 0,0 7.971,0 7.971,0 0,0 0,7.970999 0,7.970999 0,0 8.69564,0 8.69564,0 -6.10144,1.108693 -8.75361,0.289854 -12.31882,5.79709 0,0 18.0362,2.47101 18.0362,2.47101 0,0 2.25361,1.152171 2.25361,1.152171 0,0 -11.28983,-0.775361 -11.28983,-0.775361 0,0 -8.27535,0 -8.27535,0 2.12319,2.637677 3.15942,4.043467 5.79709,6.239117 5.73188,4.75362 9.6739,5.60869 10.14491,14.10142 0,0 -4.34781,-1.05797 -4.34781,-1.05797 -3.97826,-0.41304 -5.3913,1.24638 -7.971,-4.01448 0,0 -1.44928,0 -1.44928,0 -2.3768,3.3913 -5.25361,0.23913 -7.971,-1.44927 -0.53623,3.21738 -0.67391,4.1739 -3.62318,5.79709 2.32609,-4.92753 1.05797,-4.30434 0.72464,-9.42027 -2.1884,1.33333 -4.65217,3.18115 -7.24636,3.44202 -5.58695,0.55797 -11.97099,-5.82608 -11.41302,-11.413022 0.26086,-2.594199 2.10869,-5.057962 3.44202,-7.246364 -5.11593,-0.333333 -4.49275,-1.601446 -9.42027,0.724636 1.62318,-2.949269 2.5797,-3.08695 5.79709,-3.623181 -1.68841,-2.717386 -4.84057,-5.594192 -1.44928,-7.970999 0,0 0,-1.449273 0,-1.449273 -5.26086,-2.579705 -3.60144,-3.992745 -4.01448,-7.970999 0,0 -1.05797,-4.347817 -1.05797,-4.347817 8.49274,0.471013 9.34781,4.413035 14.10142,10.144908 2.19565,2.637676 3.60144,3.673906 6.21738,5.79709 0,0 0,-7.55071 0,-7.55071 0,0 -0.75362,-12.01447 -0.75362,-12.01447 0,0 1.15217,2.253619 1.15217,2.253619 z m -7.18839,12.239107 c -3.63043,-4.586948 -4.95651,-8.521723 -11.18114,-9.420272 0,0 0,6.507234 0,6.507234 0.86232,3.999992 12.03621,8.007231 15.76809,8.710128 -1.22464,-2.210141 -3.02174,-3.818833 -4.58695,-5.79709 z m -1.93478,4.652165 c 0,0 -2.8913,-1.057969 -2.8913,-1.057969 -6.5652,-1.485505 -2.37681,7.166653 2.8913,6.094191 2.10869,-0.427536 3.06521,-1.623185 4.34782,-3.166661 0,0 -4.34782,-1.869561 -4.34782,-1.869561 z m 16.66663,-0.304347 c -0.94927,4.652164 1.86957,7.471 6.52173,6.521726 -1.90579,-3.797094 -2.72463,-4.615933 -6.52173,-6.521726 z m -26.81154,4.347817 c -3.13767,3.094197 -3.83332,4.123181 -7.971,5.79709 1.14493,-4.818831 2.27536,-6.050713 5.79709,-9.420271 0,0 2.17391,3.623181 2.17391,3.623181 z m 50.72454,3.434776 c 2.21739,0.217391 5.36231,2.195648 7.24636,3.405791 6.71014,4.311585 11.37679,9.369543 16.19563,15.623163 15.6304,20.28981 23.43473,45.72454 25.17386,71.01435 0,0 0.65942,7.24637 0.65942,7.24637 0,0 0,2.89854 0,2.89854 0,0 -0.65942,7.24637 -0.65942,7.24637 -1.15217,16.76083 -5.01448,32.70283 -12.57969,47.82599 -19.96373,39.92746 -59.81147,66.52886 -104.15197,69.6303 0,0 -7.24636,0.65942 -7.24636,0.65942 0,0 -2.89855,0 -2.89855,0 0,0 -7.971,-0.65942 -7.971,-0.65942 -23.81879,-1.63768 -48.62309,-8.76085 -68.11581,-22.99271 -7.29709,-5.32608 -17.68837,-13.80432 -20.289814,-22.72459 0,0 7.970994,-7.971 7.970994,-7.971 5.97825,13.80432 19.51446,23.34053 32.60864,29.89124 31.02893,15.51447 68.54335,18.34055 100.72444,4.57971 12.33331,-5.26811 23.38402,-12.5652 33.33327,-21.55069 34.05066,-30.75356 45.81875,-75.72449 33.43472,-119.4418 -3.24637,-11.4565 -7.8623,-22.60865 -14.36954,-32.60863 -3.60869,-5.53622 -8.89853,-12.1594 -13.99272,-16.3333 0,0 -7.24637,-5.40579 -7.24637,-5.40579 1.66667,-0.007 4.23913,0.14493 5.68115,-0.73913 2.65942,-1.63043 1.64493,-4.094195 -0.6884,-5.369554 -3.26087,-1.789852 -6.84057,-0.782608 -10.78984,-2.586952 1.78985,-0.550723 6.23912,-1.811591 7.971,-1.637678 z m -37.68108,1.637678 c -1.16667,4.30434 0.0362,7.021726 3.65216,9.579696 2.64492,2.13767 5.21738,2.81883 7.21738,0 -5.57245,-1.08696 -8.49274,-4.007243 -9.42027,-9.579696 0,0 -1.44927,0 -1.44927,0 z m 9.42027,14.492726 c -5.40579,-3.6884 -8.97825,-1.95652 -12.31882,-13.043453 -4.10869,5.608685 3.94927,15.340553 12.31882,13.043453 z M 218.659,100.72444 c 0.61594,8.08694 9.57245,11.99998 11.99273,15.28983 1.12319,1.52173 1.85507,3.89854 2.36956,5.72462 3.03623,10.75361 -2.55796,20.63764 -14.18113,21.60141 -10.42027,0.86956 -15.90577,-6.43477 -23.18836,-11.60867 -3.26811,-2.32609 -8.00723,-4.86231 -11.28259,-1.13044 -3.06521,3.49275 -0.0797,8.39129 2.24638,11.42752 5.30433,6.94201 10.28258,10.67389 11.07244,20.28981 0.82608,9.91303 -7.38405,18.00722 -17.25359,17.26085 -10.40578,-0.78986 -13.60142,-6.34782 -21.01445,-11.61593 -2.6884,-1.91304 -6.89854,-4.31883 -10.0652,-2.20289 -4.34782,2.90579 -2.28261,7.57969 0,11.0507 3.11593,4.75362 7.49998,7.69564 9.99998,13.7681 1.15217,2.81159 2.35507,7.10868 2.10144,10.1449 -0.75362,9.12317 -7.9565,15.78983 -17.25359,15.08693 -11.06519,-0.84058 -16.01446,-8.35505 -21.73908,-12.10867 -3.22463,-2.11594 -7.47101,-4.15217 -10.55796,-0.63768 -3.26086,3.71014 0.3116,9.0652 2.81884,12.15215 6.02173,7.40578 12.4565,14.15939 9.91303,24.63763 0,0 -10.14492,-2.17391 -10.14492,-2.17391 2.11594,-0.65217 7.8913,-1.46376 6.39855,-4.97825 -0.81884,-1.94202 -3.22464,-2.07246 -4.82609,-2.9855 0,0 -7.31158,-5.68115 -7.31158,-5.68115 -3.69564,-3.90579 -9.797078,-13.46374 -9.340557,-18.96373 0.753617,-9.12317 7.956507,-15.78982 17.253587,-15.08693 11.0652,0.84058 16.01447,8.35506 21.73909,12.10868 2.93478,1.92753 6.88405,3.93477 9.97825,1.21739 3.73187,-3.27536 1.19565,-8.01448 -1.13044,-11.28259 -4.03622,-5.68115 -7.86955,-7.73187 -10.37679,-15.21737 -3.88405,-11.59418 2.7029,-24.06517 16.02171,-23.05793 10.40578,0.78986 13.60142,6.34782 21.01445,11.61592 2.6884,1.91304 6.89854,4.31884 10.0652,2.2029 4.06521,-2.71014 2.51449,-6.91303 0.45652,-10.32607 -3.75362,-6.23187 -11.69563,-10.99998 -12.56519,-22.46372 -1.03623,-13.7536 12.07244,-20.07967 23.78256,-15.76809 7.46375,2.75362 9.79708,7.05796 15.21736,10.61592 3.47101,2.28261 8.14491,4.34782 11.05071,0 2.11593,-3.16666 -0.28986,-7.3768 -2.2029,-10.0652 -6.46375,-9.09418 -10.04346,-9.13766 -11.74635,-21.739082 5.16665,1.920287 5.92752,1.340578 10.1449,-2.173909 0.86232,2.340575 0.36957,2.78985 0.54348,5.072451 z m 30.52168,1.52899 c 0,0 5.52898,12.00722 5.52898,12.00722 0,0 2.55072,1.50724 2.55072,1.50724 0,0 6.50723,0 6.50723,0 -0.89855,-6.23187 -4.83332,-7.55071 -9.42027,-11.18113 0,0 -5.16666,-4.586952 -5.16666,-4.586952 0,0 0,2.253622 0,2.253622 z m -4.52173,4.2681 c -1.07246,5.26811 7.5797,9.45651 6.09419,2.8913 0,0 -1.05797,-2.8913 -1.05797,-2.8913 0,0 -1.86956,-4.34781 -1.86956,-4.34781 -1.54347,1.2826 -2.73912,2.23912 -3.16666,4.34781 z M 91.007072,211.67351 c 0,0 2.47101,18.0362 2.47101,18.0362 7.101438,-4.5942 3.152168,-6.53622 6.521726,-12.31882 0,0 -0.724636,8.69563 -0.724636,8.69563 0,0 7.970998,0 7.970998,0 0,0 0,7.971 0,7.971 0,0 8.69564,0 8.69564,0 -6.10144,1.1087 -8.75361,0.28986 -12.31882,5.79709 0,0 18.0362,2.47101 18.0362,2.47101 0,0 2.25362,1.15217 2.25362,1.15217 0,0 -11.28984,-0.77536 -11.28984,-0.77536 0,0 -8.27534,0 -8.27534,0 2.12318,2.63768 3.15941,4.04347 5.79709,6.23912 5.73187,4.75362 9.67389,5.60869 10.14491,14.10142 0,0 -4.34782,-1.05796 -4.34782,-1.05796 -3.97826,-0.41305 -5.3913,1.24637 -7.971,-4.01449 0,0 -1.44928,0 -1.44928,0 -2.3768,3.3913 -5.25361,0.23913 -7.970994,-1.44927 -0.536231,3.21738 -0.673912,4.1739 -3.623182,5.79709 2.326083,-4.92753 1.057969,-4.30434 0.724637,-9.42027 -2.188402,1.33333 -4.652165,3.18115 -7.246363,3.44202 -5.586946,0.55797 -11.970991,-5.82608 -11.413021,-11.41302 0.260869,-2.5942 2.108691,-5.05796 3.442022,-7.24637 -5.115932,-0.33333 -4.492745,-1.60144 -9.420272,0.72464 1.623186,-2.94927 2.579705,-3.08695 5.79709,-3.62318 -1.688402,-2.71739 -4.84057,-5.59419 -1.449272,-7.971 0,0 0,-1.44927 0,-1.44927 -5.260859,-2.57971 -3.601442,-3.99275 -4.014485,-7.971 0,0 -1.057969,-4.34782 -1.057969,-4.34782 8.492737,0.47101 9.347808,4.41304 14.101422,10.14491 2.195648,2.63767 3.601442,3.6739 6.217379,5.79709 0,0 0,-7.55071 0,-7.55071 0,0 -0.753622,-12.01447 -0.753622,-12.01447 0,0 1.152172,2.25362 1.152172,2.25362 z m -7.188392,12.23911 c -3.630427,-4.58695 -4.956512,-8.52173 -11.181137,-9.42028 0,0 0,6.50724 0,6.50724 0.862317,3.99999 12.036208,8.00723 15.768085,8.71013 -1.224635,-2.21015 -3.021733,-3.81884 -4.586948,-5.79709 z m -1.934779,4.65216 c 0,0 -2.891298,-1.05797 -2.891298,-1.05797 -6.565205,-1.4855 -2.376807,7.16665 2.891298,6.09419 2.108692,-0.42753 3.065212,-1.62318 4.347818,-3.16666 0,0 -4.347818,-1.86956 -4.347818,-1.86956 z m 16.666635,-0.30435 c -0.949274,4.65217 1.869564,7.471 6.521724,6.52173 -1.76086,-3.49999 -3.02173,-4.76086 -6.521724,-6.52173 z m -13.768089,9.42027 c -1.166665,4.30434 0.03623,7.02173 3.652166,9.5797 2.644923,2.13767 5.217382,2.81883 7.217378,0 -5.652163,-1.10145 -8.478245,-3.92753 -9.420272,-9.5797 0,0 -1.449272,0 -1.449272,0 z m 9.420271,14.49273 c -5.405787,-3.6884 -8.978243,-1.95652 -12.318817,-13.04345 -4.108687,5.60868 3.949268,15.34055 12.318817,13.04345 z m 10.050702,-4.99274 c 0,0 5.52898,12.00722 5.52898,12.00722 0,0 2.55072,1.50724 2.55072,1.50724 0,0 6.50724,0 6.50724,0 -0.89856,-6.23187 -4.83333,-7.55071 -9.42028,-11.18114 0,0 -5.16666,-4.58694 -5.16666,-4.58694 0,0 0,2.25362 0,2.25362 z m 16.76084,-0.80435 c 0,0 0,1.44927 0,1.44927 -4.68115,2.53623 -6.05071,2.0942 -9.42027,-2.17391 0,0 9.42027,0.72464 9.42027,0.72464 z m -21.282567,5.07245 c -1.072462,5.26811 7.579697,9.45651 6.094187,2.8913 0,0 -1.05796,-2.8913 -1.05796,-2.8913 0,0 -1.86957,-4.34781 -1.86957,-4.34781 -1.54347,1.2826 -2.73912,2.23912 -3.166657,4.34781 z"
     inkscape:connector-curvature="0"
     style="fill:#000000;fill-opacity:1;stroke:none;stroke-width:1" />
</svg>
