<?xml version="1.0" encoding="UTF-8" standalone="no"?>
<svg
   xmlns:dc="http://purl.org/dc/elements/1.1/"
   xmlns:cc="http://creativecommons.org/ns#"
   xmlns:rdf="http://www.w3.org/1999/02/22-rdf-syntax-ns#"
   xmlns:svg="http://www.w3.org/2000/svg"
   xmlns="http://www.w3.org/2000/svg"
   xmlns:sodipodi="http://sodipodi.sourceforge.net/DTD/sodipodi-0.dtd"
   xmlns:inkscape="http://www.inkscape.org/namespaces/inkscape"
   width="100"
   height="100"
   viewBox="0 0 333.33269 333.33269"
   id="svg2"
   version="1.1"
   inkscape:version="0.91 r13725"
   sodipodi:docname="Metal2.svg">
  <metadata
     id="metadata9">
    <rdf:RDF>
      <cc:Work
         rdf:about="">
        <dc:format>image/svg+xml</dc:format>
        <dc:type
           rdf:resource="http://purl.org/dc/dcmitype/StillImage" />
        <dc:title></dc:title>
      </cc:Work>
    </rdf:RDF>
  </metadata>
  <defs
     id="defs7" />
  <sodipodi:namedview
     pagecolor="#ffffff"
     bordercolor="#666666"
     borderopacity="1"
     objecttolerance="10"
     gridtolerance="10"
     guidetolerance="10"
     inkscape:pageopacity="0"
     inkscape:pageshadow="2"
     inkscape:window-width="1218"
     inkscape:window-height="697"
     id="namedview5"
     showgrid="false"
     units="px"
     inkscape:zoom="1.5733302"
     inkscape:cx="75.000148"
     inkscape:cy="75.000148"
     inkscape:window-x="54"
     inkscape:window-y="-8"
     inkscape:window-maximized="1"
     inkscape:current-layer="svg2" />
  <path
     id="Metal #1"
     d="m 222.91624,82.291505 c 0,0 0,-56.249889 0,-56.249889 0,0 18.74997,0 18.74997,0 0,0 37.49992,37.499926 37.49992,37.499926 0,0 0,18.749963 0,18.749963 0,0 18.74997,0 18.74997,0 0,0 0,18.749965 0,18.749965 0,0 -18.74997,0 -18.74997,0 0,0 0,37.49993 0,37.49993 0,0 -56.24989,0 -56.24989,0 0,0 0,-37.49993 0,-37.49993 0,0 -176.249665,0 -176.249665,0 -3.04499,-0.008 -6.25499,0.195 -8.70748,-1.987497 -3.1425,-2.804995 -3.3975,-10.25998 -1.035,-13.604974 1.1475,-1.627497 2.04,-1.912496 3.75749,-2.669995 4.32749,-0.899998 182.234655,-0.487499 182.234655,-0.487499 z M 147.91639,269.79114 c -18.74997,0 -37.49993,18.74997 -37.49993,37.49993 0,0 -56.249895,0 -56.249895,0 0,0 0,-18.74996 0,-37.49993 18.74996,0 37.49992,-18.74996 37.49992,-37.49993 0,-18.74996 -18.74996,-37.49992 -37.49992,-37.49992 0,0 -37.49993,0 -37.49993,0 0,0 0,-37.49993 0,-37.49993 0,0 206.249605,0 206.249605,0 0,0 0,18.74996 0,18.74996 0,0 93.74982,0 93.74982,0 0,37.49993 -56.24989,37.49993 -74.99985,37.49993 -18.74997,0 -37.49993,18.74996 -37.49993,37.49993 0,18.74996 18.74996,37.49993 37.49993,37.49993 0,0 0,18.74996 0,18.74996 0,0 -56.2499,0 -56.2499,0 0,-18.74996 -18.74996,-37.49993 -37.49992,-37.49993 z"
     inkscape:connector-curvature="0"
     style="fill:#000000;fill-opacity:1;stroke:none;stroke-width:1" />
</svg>
