<?xml version="1.0" encoding="UTF-8" standalone="no"?>
<svg
   xmlns:dc="http://purl.org/dc/elements/1.1/"
   xmlns:cc="http://creativecommons.org/ns#"
   xmlns:rdf="http://www.w3.org/1999/02/22-rdf-syntax-ns#"
   xmlns:svg="http://www.w3.org/2000/svg"
   xmlns="http://www.w3.org/2000/svg"
   xmlns:sodipodi="http://sodipodi.sourceforge.net/DTD/sodipodi-0.dtd"
   xmlns:inkscape="http://www.inkscape.org/namespaces/inkscape"
   width="100"
   height="100"
   viewBox="0 0 333.33269 333.33269"
   id="svg2"
   version="1.1"
   inkscape:version="0.91 r13725"
   sodipodi:docname="Microscope.svg">
  <metadata
     id="metadata9">
    <rdf:RDF>
      <cc:Work
         rdf:about="">
        <dc:format>image/svg+xml</dc:format>
        <dc:type
           rdf:resource="http://purl.org/dc/dcmitype/StillImage" />
        <dc:title></dc:title>
      </cc:Work>
    </rdf:RDF>
  </metadata>
  <defs
     id="defs7" />
  <sodipodi:namedview
     pagecolor="#ffffff"
     bordercolor="#666666"
     borderopacity="1"
     objecttolerance="10"
     gridtolerance="10"
     guidetolerance="10"
     inkscape:pageopacity="0"
     inkscape:pageshadow="2"
     inkscape:window-width="1218"
     inkscape:window-height="697"
     id="namedview5"
     showgrid="false"
     units="px"
     inkscape:zoom="1.5733302"
     inkscape:cx="75.000148"
     inkscape:cy="75.000148"
     inkscape:window-x="54"
     inkscape:window-y="-8"
     inkscape:window-maximized="1"
     inkscape:current-layer="svg2" />
  <path
     id="Unnamed #25"
     d="m 166.66635,148.0643 c 0,0 -18.73353,18.73353 -18.73353,18.73353 0,0 0,18.73353 0,18.73353 0,0 -18.73353,18.73352 -18.73353,18.73352 0,0 -18.73353,0 -18.73353,0 0,0 -18.73353,-18.73352 -18.73353,-18.73352 0,0 0,-18.73353 0,-18.73353 0,0 -18.733528,-18.73353 -18.733528,-18.73353 0,0 0,-56.200585 0,-56.200585 0,0 18.733528,-18.733528 18.733528,-18.733528 0,0 37.46706,0 37.46706,0 0,0 112.40117,-56.200583 112.40117,-56.200583 7.49341,-3.746706 26.22694,33.720354 18.73353,37.467054 0,0 -74.93411,37.467057 -74.93411,37.467057 0,0 37.46705,0 37.46705,0 0,0 37.46706,74.934115 37.46706,74.934115 0,0 0,37.46705 0,37.46705 0,0 -18.73353,37.46706 -18.73353,37.46706 0,0 0,37.46706 0,37.46706 0,0 37.46706,0 37.46706,0 0,0 0,37.46705 0,37.46705 0,0 -224.802346,0 -224.802346,0 0,0 0,-37.46705 0,-37.46705 0,0 93.667646,0 93.667646,0 0,0 0,-37.46706 0,-37.46706 0,0 -74.934118,0 -74.934118,0 0,0 0,-18.73353 0,-18.73353 0,0 112.401178,0 112.401178,0 0,0 18.73353,-37.46705 18.73353,-37.46705 0,0 -18.73353,-37.46706 -18.73353,-37.46706 0,0 -18.73353,0 -18.73353,0 z m 37.46706,89.92094 c -22.48024,0 -22.48024,22.48023 -22.48024,22.48023 0,0 0,22.48023 22.48024,22.48023 22.48023,0 22.48023,-22.48023 22.48023,-22.48023 0,0 0,-22.48023 -22.48023,-22.48023 z M 170.41305,279.199 c -11.24011,0 -11.24011,11.24012 -11.24011,11.24012 0,0 0,11.24011 11.24011,11.24011 11.24012,0 11.24012,-11.24011 11.24012,-11.24011 0,0 0,-11.24012 -11.24012,-11.24012 z"
     inkscape:connector-curvature="0"
     style="fill:#000000;fill-opacity:1;stroke:none;stroke-width:1" />
</svg>
