<?xml version="1.0" encoding="UTF-8" standalone="no"?>
<svg
   xmlns:dc="http://purl.org/dc/elements/1.1/"
   xmlns:cc="http://creativecommons.org/ns#"
   xmlns:rdf="http://www.w3.org/1999/02/22-rdf-syntax-ns#"
   xmlns:svg="http://www.w3.org/2000/svg"
   xmlns="http://www.w3.org/2000/svg"
   xmlns:sodipodi="http://sodipodi.sourceforge.net/DTD/sodipodi-0.dtd"
   xmlns:inkscape="http://www.inkscape.org/namespaces/inkscape"
   width="100"
   height="100"
   viewBox="0 0 333.33269 333.33269"
   id="svg2"
   version="1.1"
   inkscape:version="0.91 r13725"
   sodipodi:docname="Milk.svg">
  <metadata
     id="metadata9">
    <rdf:RDF>
      <cc:Work
         rdf:about="">
        <dc:format>image/svg+xml</dc:format>
        <dc:type
           rdf:resource="http://purl.org/dc/dcmitype/StillImage" />
        <dc:title></dc:title>
      </cc:Work>
    </rdf:RDF>
  </metadata>
  <defs
     id="defs7" />
  <sodipodi:namedview
     pagecolor="#ffffff"
     bordercolor="#666666"
     borderopacity="1"
     objecttolerance="10"
     gridtolerance="10"
     guidetolerance="10"
     inkscape:pageopacity="0"
     inkscape:pageshadow="2"
     inkscape:window-width="1218"
     inkscape:window-height="697"
     id="namedview5"
     showgrid="false"
     units="px"
     inkscape:zoom="1.5733302"
     inkscape:cx="75.000148"
     inkscape:cy="75.000148"
     inkscape:window-x="54"
     inkscape:window-y="-8"
     inkscape:window-maximized="1"
     inkscape:current-layer="svg2" />
  <path
     id="Unnamed #10"
     d="m 115.44693,16.666637 c 0,0 102.43883,0 102.43883,0 18.29265,0 18.29265,21.95118 0,21.95118 0,0 -7.31706,0 -7.31706,0 0,54.877937 43.90236,54.877937 43.90236,109.755873 0,73.1706 0,139.02413 0,153.65825 0,14.63412 0,14.63412 -14.63412,14.63412 -14.63412,0 -131.70707,0 -146.341184,0 -14.634118,0 -14.634118,0 -14.634118,-14.63412 0,-14.63412 0,-80.48765 0,-153.65825 0,-54.877936 43.902362,-54.877936 43.902362,-109.755873 0,0 -7.31707,0 -7.31707,0 -18.292645,0 -18.292645,-21.95118 0,-21.95118 z m 14.63412,21.95118 c 0,54.877937 -43.902353,58.536466 -43.902353,109.755873 0,0 0,146.34119 0,153.65825 0,7.31706 0,7.31706 7.317059,7.31706 7.317054,0 139.024124,0 146.341184,0 7.31706,0 7.31706,0 7.31706,-7.31706 0,-7.31706 0,-153.65825 0,-153.65825 0,-51.219407 -43.90236,-54.877936 -43.90236,-109.755873 0,0 -73.17059,0 -73.17059,0 z m 87.80471,-7.317062 c 7.31706,0 7.31706,-7.317059 0,-7.317059 0,0 -95.12176,0 -102.43883,0 -7.31706,0 -7.31706,7.317059 0,7.317059 0,0 95.12177,0 102.43883,0 z"
     inkscape:connector-curvature="0"
     style="fill:#000000;fill-opacity:1;stroke:none;stroke-width:1" />
</svg>
