<?xml version="1.0" encoding="UTF-8" standalone="no"?>
<svg
   xmlns:dc="http://purl.org/dc/elements/1.1/"
   xmlns:cc="http://creativecommons.org/ns#"
   xmlns:rdf="http://www.w3.org/1999/02/22-rdf-syntax-ns#"
   xmlns:svg="http://www.w3.org/2000/svg"
   xmlns="http://www.w3.org/2000/svg"
   xmlns:sodipodi="http://sodipodi.sourceforge.net/DTD/sodipodi-0.dtd"
   xmlns:inkscape="http://www.inkscape.org/namespaces/inkscape"
   width="100"
   height="100"
   viewBox="0 0 333.33269 333.33269"
   id="svg2"
   version="1.1"
   inkscape:version="0.91 r13725"
   sodipodi:docname="Minecart.svg">
  <metadata
     id="metadata9">
    <rdf:RDF>
      <cc:Work
         rdf:about="">
        <dc:format>image/svg+xml</dc:format>
        <dc:type
           rdf:resource="http://purl.org/dc/dcmitype/StillImage" />
        <dc:title></dc:title>
      </cc:Work>
    </rdf:RDF>
  </metadata>
  <defs
     id="defs7" />
  <sodipodi:namedview
     pagecolor="#ffffff"
     bordercolor="#666666"
     borderopacity="1"
     objecttolerance="10"
     gridtolerance="10"
     guidetolerance="10"
     inkscape:pageopacity="0"
     inkscape:pageshadow="2"
     inkscape:window-width="1218"
     inkscape:window-height="697"
     id="namedview5"
     showgrid="false"
     units="px"
     inkscape:zoom="1.5733302"
     inkscape:cx="75.000148"
     inkscape:cy="75.000148"
     inkscape:window-x="54"
     inkscape:window-y="-8"
     inkscape:window-maximized="1"
     inkscape:current-layer="svg2" />
  <path
     id="Unnamed #26"
     d="m 142.47285,40.96369 c 0,0 -24.1935,-24.193502 -24.1935,-24.193502 0,0 -24.193509,24.193502 -24.193509,24.193502 0,0 -24.193502,0 -24.193502,0 0,0 -24.193502,24.193501 -24.193502,24.193501 0,0 241.935023,0 241.935023,0 0,0 -48.38701,-48.387003 -48.38701,-48.387003 0,0 -24.1935,24.193502 -24.1935,24.193502 0,0 -24.1935,0 -24.1935,0 0,0 -24.1935,-24.193502 -24.1935,-24.193502 0,0 -24.1935,24.193502 -24.1935,24.193502 z M 94.085841,292.57611 c 0,0 0,24.1935 24.193509,24.1935 24.1935,0 24.1935,-24.1935 24.1935,-24.1935 0,0 0,-24.1935 -24.1935,-24.1935 -24.193509,0 -24.193509,24.1935 -24.193509,24.1935 z m 145.161009,0 c 0,0 0,-24.1935 -24.1935,-24.1935 -24.1935,0 -24.1935,24.1935 -24.1935,24.1935 0,0 0,24.1935 24.1935,24.1935 24.1935,0 24.1935,-24.1935 24.1935,-24.1935 z M 94.085841,268.38261 c 0,0 9.677409,-9.6774 24.193509,-9.6774 14.5161,0 24.1935,9.6774 24.1935,9.6774 0,0 48.387,0 48.387,0 0,0 9.6774,-9.6774 24.1935,-9.6774 14.5161,0 24.1935,9.6774 24.1935,9.6774 0,0 24.19351,0 24.19351,0 0,0 48.387,-193.548019 48.387,-193.548019 0,0 -290.322024,0 -290.322024,0 0,0 48.387003,193.548019 48.387003,193.548019 0,0 24.193502,0 24.193502,0 z"
     inkscape:connector-curvature="0"
     style="fill:#000000;fill-opacity:1;stroke:none;stroke-width:1" />
</svg>
