<?xml version="1.0" encoding="UTF-8" standalone="no"?>
<svg
   xmlns:dc="http://purl.org/dc/elements/1.1/"
   xmlns:cc="http://creativecommons.org/ns#"
   xmlns:rdf="http://www.w3.org/1999/02/22-rdf-syntax-ns#"
   xmlns:svg="http://www.w3.org/2000/svg"
   xmlns="http://www.w3.org/2000/svg"
   xmlns:sodipodi="http://sodipodi.sourceforge.net/DTD/sodipodi-0.dtd"
   xmlns:inkscape="http://www.inkscape.org/namespaces/inkscape"
   width="100"
   height="100"
   viewBox="0 0 333.33269 333.33269"
   id="svg2"
   version="1.1"
   inkscape:version="0.91 r13725"
   sodipodi:docname="miningspace.svg">
  <metadata
     id="metadata9">
    <rdf:RDF>
      <cc:Work
         rdf:about="">
        <dc:format>image/svg+xml</dc:format>
        <dc:type
           rdf:resource="http://purl.org/dc/dcmitype/StillImage" />
        <dc:title></dc:title>
      </cc:Work>
    </rdf:RDF>
  </metadata>
  <defs
     id="defs7" />
  <sodipodi:namedview
     pagecolor="#ffffff"
     bordercolor="#666666"
     borderopacity="1"
     objecttolerance="10"
     gridtolerance="10"
     guidetolerance="10"
     inkscape:pageopacity="0"
     inkscape:pageshadow="2"
     inkscape:window-width="1218"
     inkscape:window-height="697"
     id="namedview5"
     showgrid="false"
     units="px"
     inkscape:zoom="1.5733302"
     inkscape:cx="75.000148"
     inkscape:cy="75.000148"
     inkscape:window-x="54"
     inkscape:window-y="-8"
     inkscape:window-maximized="1"
     inkscape:current-layer="svg2" />
  <path
     id="Mining Space"
     d="m 185.41631,129.16641 c 0,0 112.49978,93.74983 112.49978,93.74983 0,0 18.74997,-18.74996 18.74997,-18.74996 0,0 -112.49978,-86.24984 -112.49978,-93.74983 3.74999,-3.74999 14.99997,-3.74999 18.74996,0 3.74999,-3.74999 0,-14.999968 -3.74999,-18.74996 0,0 -11.24998,-11.249979 -14.99997,-14.999971 -3.75,-3.749993 -14.99997,-7.499986 -18.74997,-3.749993 0,0 3.75,14.999971 0,18.749964 0,0 -22.49995,22.49996 -41.24992,41.24992 -18.74996,18.74996 -14.99997,48.74991 -14.99997,48.74991 0,0 18.74997,-22.49996 56.24989,-52.49991 z M 129.16642,241.6662 c 0,0 18.74997,18.74997 18.74997,18.74997 0,0 -22.49996,-7.49999 -22.49996,-7.49999 0,0 -3.74999,22.49996 -3.74999,22.49996 0,0 7.49998,22.49995 7.49998,22.49995 0,0 -18.74997,-26.24994 -18.74997,-26.24994 0,0 -18.749959,7.49998 -18.749959,7.49998 0,0 22.499959,-18.74996 22.499959,-18.74996 0,0 -3.75,-37.49993 -3.75,-37.49993 0,0 -18.749959,-18.74996 -18.749959,-18.74996 0,0 -18.749964,-37.49994 -18.749964,-37.49994 0,0 18.749964,-37.49993 18.749964,-37.49993 0,0 0,-37.49992 0,-37.49992 0,0 -56.24989,0 -56.24989,0 0,0 -18.749964,37.49992 -18.749964,37.49992 0,0 0,187.49965 0,187.49965 0,0 299.999423,0 299.999423,0 0,0 0,-56.24989 0,-56.24989 0,0 -37.49993,-18.74997 -37.49993,-18.74997 0,0 -56.24989,18.74997 -56.24989,18.74997 0,0 -18.74996,-37.49993 -18.74996,-37.49993 0,0 -18.74997,-18.74996 -18.74997,-18.74996 0,0 -56.24989,18.74996 -56.24989,18.74996 0,0 0,18.74996 0,18.74996 z M 271.66615,16.666637 c -14.99998,0 -26.24995,11.249978 -26.24995,26.24995 0,14.999968 11.24997,26.249946 26.24995,26.249946 14.99997,0 26.24994,-11.249978 26.24994,-26.249946 0,-14.999972 -11.24997,-26.24995 -26.24994,-26.24995 z m -2.0475,32.729937 c 0.18,-0.1725 -1.0125,-2.152496 -4.08749,-3.817492 -2.6175,-1.424998 -6.98999,-2.242496 -8.86499,-5.59499 -1.42499,-2.542495 -0.22499,-7.829985 0,-11.452478 0.045,-0.689999 -2.40749,-0.547499 -2.45249,-1.094998 -0.15,-1.837497 1.785,-3.584993 1.905,-3.682493 0.1725,-0.1275 4.09499,-2.917495 6.81748,-1.904996 2.0025,0.742498 2.5275,5.317489 4.64249,5.452489 1.7925,0.1125 1.3875,-3.074994 2.7225,-3.547493 1.02,-0.352499 1.5375,0.967498 2.86499,1.777496 0.9,0.547499 2.7375,0.479999 3.135,0.952499 2.51249,2.977495 -3.9225,5.09999 -4.63499,8.999983 -0.2175,1.214998 -2.2275,1.829997 -1.77,3.134994 0.12,0.359999 0.0975,2.804995 -0.96,2.999994 -0.5175,0.0975 -0.3825,-2.797494 -1.2225,-3.817492 -0.4725,-0.562499 -1.94249,1.004998 -2.31749,0.277499 -1.5375,0.15 -2.8275,1.874997 -2.46,2.317496 0.3525,0.412499 0.3075,1.169997 1.23,1.634996 1.74,0.877499 1.0425,-0.254999 3.41249,0.405 1.14,0.322499 -0.86999,2.257495 0.675,2.864994 0.9825,0.389999 2.1375,1.619997 3.6825,1.634997 1.93499,0.0225 4.19999,-1.222498 4.22999,-1.222498 2.12999,0.1125 4.05749,2.774995 5.31749,3.539993 2.33999,1.432497 5.28749,2.512495 5.86499,4.499991 1.10249,3.824991 -6.33749,8.227482 -7.91249,9.959979 -3.55499,3.929992 -3.03749,3.997492 -4.06499,4.372491 -1.035,0.375 -4.30499,0.405 -4.26749,-0.09 0.1725,-2.069996 2.81249,-7.447486 2.19749,-8.647484 -1.095,-2.144996 -4.19999,-3.052494 -4.76999,-5.18249 -0.3,-1.132495 -0.435,-3.322491 1.0875,-4.769988 z m 2.51999,-7.559985 c 0.3975,0.382499 -0.26249,0.914998 -0.68249,1.147498 -0.4725,0.269999 -1.83,0.734998 -2.0175,0.217499 -0.105,-0.292499 1.2675,-1.147498 1.545,-1.304997 0.255,-0.15 0.885,-0.315 1.15499,-0.06 z m 1.4025,-22.214958 c -0.5025,1.672497 3.39,4.627491 5.20499,5.392489 1.8075,0.757499 1.905,-3.832492 1.7775,-4.177492 -0.12,-0.344999 -6.47999,-2.887494 -6.98249,-1.214997 z m 16.78497,21.464959 c 1.7175,1.874997 5.45999,1.754997 5.99999,1.034998 0.75,-1.019998 -3.345,-10.027481 -4.45499,-11.909977 -1.77,-2.984995 -4.38749,-6.412488 -6.23249,-6.982487 -1.2975,-0.397499 -2.2125,1.552497 -2.205,1.972496 0,0.389999 -0.09,1.087498 1.3575,2.107496 0.2925,0.2025 1.0875,-0.412499 1.3125,0 0.4275,0.772498 0.2625,2.692495 0.9375,3.044995 1.27499,0.667498 3.14249,-0.09 3.14249,-0.09 0,0 -0.9525,2.272496 -1.08,4.544992 -0.045,0.772498 -0.4125,4.507491 1.2225,6.277487 z"
     style="fill:#000000;fill-opacity:1;stroke:none;stroke-width:1"
     inkscape:connector-curvature="0" />
</svg>
