<?xml version="1.0" encoding="UTF-8" standalone="no"?>
<svg
   xmlns:dc="http://purl.org/dc/elements/1.1/"
   xmlns:cc="http://creativecommons.org/ns#"
   xmlns:rdf="http://www.w3.org/1999/02/22-rdf-syntax-ns#"
   xmlns:svg="http://www.w3.org/2000/svg"
   xmlns="http://www.w3.org/2000/svg"
   xmlns:sodipodi="http://sodipodi.sourceforge.net/DTD/sodipodi-0.dtd"
   xmlns:inkscape="http://www.inkscape.org/namespaces/inkscape"
   width="100"
   height="100"
   viewBox="0 0 333.33269 333.33269"
   id="svg2"
   version="1.1"
   inkscape:version="0.91 r13725"
   sodipodi:docname="Money.svg"
   inkscape:export-filename="C:\Users\mbrown\Desktop\Drawings\icons\forJustin\Money.png"
   inkscape:export-xdpi="300"
   inkscape:export-ydpi="300">
  <metadata
     id="metadata9">
    <rdf:RDF>
      <cc:Work
         rdf:about="">
        <dc:format>image/svg+xml</dc:format>
        <dc:type
           rdf:resource="http://purl.org/dc/dcmitype/StillImage" />
        <dc:title></dc:title>
      </cc:Work>
    </rdf:RDF>
  </metadata>
  <defs
     id="defs7" />
  <sodipodi:namedview
     pagecolor="#ffffff"
     bordercolor="#666666"
     borderopacity="1"
     objecttolerance="10"
     gridtolerance="10"
     guidetolerance="10"
     inkscape:pageopacity="0"
     inkscape:pageshadow="2"
     inkscape:window-width="1218"
     inkscape:window-height="697"
     id="namedview5"
     showgrid="false"
     units="px"
     inkscape:zoom="1.5733302"
     inkscape:cx="75.000148"
     inkscape:cy="75.000148"
     inkscape:window-x="54"
     inkscape:window-y="-8"
     inkscape:window-maximized="1"
     inkscape:current-layer="svg2" />
  <path
     id="Money"
     d="m 97.450364,58.5354 c 0.02163,-13.727834 8.889926,-23.576692 20.187996,-30.274781 24.56447,-14.549776 63.46241,-14.924696 89.40398,-3.814089 14.38395,6.164549 28.09015,17.123747 28.11899,34.08887 0,0 0,84.35698 0,84.35698 19.48142,-2.56676 44.26939,0.70658 61.28499,10.95919 11.81718,7.12348 20.16636,16.48927 20.18799,30.8588 0,0 0,34.60799 0,34.60799 -0.10094,8.59432 -3.12193,16.62626 -8.8683,23.04316 -5.18399,5.78963 -13.53316,10.28145 -20.69269,13.15103 -17.33284,6.95044 -33.56254,7.83006 -51.91199,6.3448 0,8.84667 0.72821,17.68613 -3.11472,25.956 -3.93666,8.45732 -10.55543,13.69178 -18.51527,18.12593 -15.76827,8.77457 -34.17539,10.91594 -51.91199,10.71406 -24.7375,-0.29561 -64.024786,-12.5454 -64.168986,-42.53899 0,0 0,-12.257 0,-12.257 -5.479599,0.98056 -11.031298,0.78589 -16.582996,0.721 -25.494554,-0.30282 -64.118514,-12.53819 -64.168984,-43.25999 0,0 0,-71.37899 0,-71.37899 0.02163,-9.67581 6.308749,-18.55853 13.698997,-24.36258 11.817187,-9.28647 24.369794,-12.66796 38.93399,-14.76607 4.621609,-0.66332 7.491188,-1.24012 12.256997,-1.24733 4.672078,-0.007 11.535997,-0.5047 15.861996,0.721 0,0 0,-49.74899 0,-49.74899 z M 111.48823,48.441405 c -6.13571,9.957007 -2.65328,20.094262 6.15013,27.023071 10.29588,8.111248 29.44563,13.915296 42.53899,14.073916 16.96513,0.19467 35.90579,-1.57899 50.46999,-11.060137 7.44072,-4.845119 14.30463,-11.759507 13.62689,-21.384852 -0.56959,-8.183348 -7.2172,-14.326267 -13.62689,-18.500856 -13.57643,-8.832248 -35.90579,-12.343517 -51.91199,-10.858258 -16.07108,2.36488 -37.86691,5.479599 -47.24712,20.707116 z m 41.8973,-2.328829 c 0,0 11.83882,-1.27617 11.83882,-1.27617 0,0 12.978,1.09592 12.978,1.09592 0,0 15.14099,-6.863919 15.14099,-6.863919 0,0 4.326,9.372998 4.326,9.372998 0,0 -10.094,5.046999 -10.094,5.046999 1.47084,4.549508 1.88181,5.558906 0,10.093995 0,0 10.815,5.046998 10.815,5.046998 0,0 -4.326,9.372998 -4.326,9.372998 0,0 -14.41999,-6.380848 -14.41999,-6.380848 0,0 -12.978,1.333849 -12.978,1.333849 0,0 -13.699,-1.470839 -13.699,-1.470839 0,0 -14.41999,6.517838 -14.41999,6.517838 0,0 -5.047,-9.372998 -5.047,-9.372998 0,0 10.815,-5.046998 10.815,-5.046998 -1.88181,-4.535089 -1.47084,-5.544487 0,-10.093995 0,0 -10.094,-5.046999 -10.094,-5.046999 0,0 4.326,-9.372998 4.326,-9.372998 0,0 14.83817,7.044169 14.83817,7.044169 z m 2.99936,13.078934 c -0.0216,0.95172 0.40376,1.571779 1.14639,2.112529 2.27836,1.6583 9.21438,1.72319 12.01907,1.34827 2.17021,-0.2884 6.7053,-0.88683 5.85452,-4.109699 -0.32445,-1.211278 -1.24733,-1.989957 -2.32883,-2.523497 -2.64607,-1.30501 -7.80843,-1.16081 -10.73569,-0.87962 -2.28557,0.41097 -5.86894,1.02382 -5.95546,4.052017 z m 45.61045,34.528681 c -17.83033,7.000909 -45.87001,7.945419 -64.16898,2.292779 -6.29433,-1.946699 -12.24258,-4.239479 -18.025,-7.419088 0,0 -11.536,-6.986488 -11.536,-6.986488 0,7.995888 -1.11755,15.905256 3.13635,23.071996 3.95108,6.65483 12.84822,11.80998 19.93565,14.55698 17.21026,6.67646 36.72773,8.11125 54.79598,4.47741 12.60308,-2.53792 30.44783,-8.60873 36.12209,-21.19739 1.74482,-3.87177 2.08369,-8.067989 2.0909,-12.256998 0,0 0,-9.372998 0,-9.372998 -9.17111,5.796839 -11.36295,8.515008 -22.35099,12.833797 z m -93.72998,34.752189 c 0.18025,14.93191 13.32408,22.76196 25.956,27.15285 20.10147,6.97207 45.70418,7.45514 65.61098,-0.47586 8.49338,-3.38149 17.06607,-7.45514 21.7021,-15.86199 3.55452,-6.46016 2.81189,-14.4921 2.81189,-21.63 0,0 -10.09399,6.26549 -10.09399,6.26549 -6.59715,3.64826 -12.257,5.99151 -19.467,8.12567 -19.94285,5.91941 -47.05245,4.62882 -66.33198,-3.17961 -8.34197,-3.38149 -12.257,-6.69809 -19.467,-11.21155 -1.16081,2.92005 -0.75705,7.59934 -0.721,10.815 z m -10.814996,-4.326 c -0.02884,-1.41316 0.10815,-3.22287 -1.13197,-4.20343 -1.30501,-1.02382 -4.448569,-0.84357 -6.078029,-0.84357 -17.181425,-0.0288 -35.97789,1.93228 -50.469986,12.09117 -10.512178,7.36862 -15.660116,18.43596 -7.260469,29.71961 2.25673,3.0282 4.866749,4.89559 7.981469,6.95765 5.039788,3.34544 10.151677,5.58054 15.861995,7.46956 7.714698,2.54513 16.381116,4.31158 24.513994,4.326 0,0 16.582996,-0.721 16.582996,-0.721 0,0 0,-16.583 0,-16.583 0,0 -12.256997,1.43479 -12.256997,1.43479 0,0 -12.977997,-1.57178 -12.977997,-1.57178 0,0 -14.419996,6.62599 -14.419996,6.62599 0,0 -5.046999,-10.094 -5.046999,-10.094 0,0 9.329738,-5.32819 9.329738,-5.32819 0,0 1.485259,-9.8128 1.485259,-9.8128 0,0 -10.814997,-5.047 -10.814997,-5.047 0,0 5.046999,-10.094 5.046999,-10.094 0,0 15.140996,6.9216 15.140996,6.9216 0,0 10.093997,-1.08871 10.093997,-1.08871 0,0 14.419997,1.37711 14.419997,1.37711 0,0 0,-11.536 0,-11.536 z m -3.907819,23.05757 c -2.76864,-2.03322 -13.280817,-2.01159 -15.746636,0.53354 -0.9373,0.96614 -0.98056,1.8746 -1.25454,3.08588 6.748558,1.78808 12.271417,2.41535 18.745995,-0.721 -0.46865,-1.26175 -0.56238,-2.02601 -1.744819,-2.89842 z m 14.722815,18.03942 c 0.18746,15.6457 14.30464,23.23062 27.398,27.63593 19.49583,6.55389 44.96876,6.69088 64.16898,-0.95893 8.49338,-3.38149 17.06607,-7.45514 21.7021,-15.862 3.66988,-6.65483 2.81189,-15.65291 2.81189,-23.072 -4.86674,2.06927 -11.76671,8.55106 -23.79299,12.60308 -22.38704,7.54166 -50.08065,7.52724 -72.09998,-1.39153 -8.34197,-3.38149 -12.257,-6.69809 -19.467,-11.21155 -1.18965,2.99936 -0.75705,8.8683 -0.721,12.257 z m 180.24996,39.81362 c 7.91658,-4.20343 15.92688,-10.71406 16.5181,-20.34662 0.56959,-9.35858 -7.62817,-16.74162 -15.0761,-21.00273 -17.36168,-9.92817 -35.43714,-10.85105 -54.79599,-9.27927 0,0 0,17.304 0,17.304 0,0 15.141,-1.41316 15.141,-1.41316 0,0 10.81499,1.12476 10.81499,1.12476 0,0 15.141,-6.9216 15.141,-6.9216 0.80752,1.8746 3.90782,7.59934 3.61221,9.22159 -0.4326,2.41535 -7.20279,4.98211 -9.38021,5.91941 1.9467,6.74135 0.64169,6.27991 1.06708,8.5799 0.5768,3.11472 7.04417,5.40029 9.74792,6.5611 0,0 -5.047,10.094 -5.047,10.094 0,0 -14.42,-6.62599 -14.42,-6.62599 -2.30719,-0.41097 -7.2893,1.17523 -10.09399,1.45642 -5.4796,0.54796 -11.32691,-0.51912 -16.583,-2.04043 0,0 0,15.86199 0,15.86199 16.25134,2.91284 38.82584,-0.77868 53.35399,-8.49337 z M 28.234381,182.54737 c 0.10815,9.26485 4.679289,15.16263 12.256998,20.1159 14.456046,9.4523 40.015489,13.9225 56.958985,10.88709 0,0 0,-23.07199 0,-23.07199 0,0 -6.488999,0.69216 -6.488999,0.69216 0,0 -10.093997,0 -10.093997,0 -13.129407,0.007 -28.739052,-4.12412 -40.375989,-10.14447 0,0 -11.535998,-7.13069 -11.535998,-7.13069 -1.067079,2.69654 -0.74984,5.78242 -0.721,8.652 z m 227.533129,0.70658 c -2.76864,-2.03322 -13.28082,-2.01159 -15.74664,0.53354 -0.9373,0.96614 -0.98056,1.8746 -1.25454,3.08588 6.74856,1.78808 12.27142,2.41535 18.746,-0.721 -0.46865,-1.26175 -0.56238,-2.02601 -1.74482,-2.89842 z m -147.50215,17.31842 c 0.18025,14.9319 13.32408,22.76196 25.956,27.15285 20.10147,6.97207 45.70418,7.45514 65.61098,-0.47586 8.49338,-3.38149 17.06607,-7.45514 21.7021,-15.862 3.55452,-6.46015 2.81189,-14.49209 2.81189,-21.62999 0,0 -10.09399,6.26549 -10.09399,6.26549 -6.59715,3.64826 -12.257,5.99151 -19.467,8.12567 -19.94285,5.91941 -47.05245,4.62882 -66.33198,-3.17961 -8.34197,-3.38149 -12.257,-6.69809 -19.467,-11.21155 -1.16081,2.92005 -0.75705,7.59934 -0.721,10.815 z m -80.030979,17.30399 c 0.01442,10.46171 4.044809,16.5109 12.977997,22.01213 14.708396,9.06297 39.25123,13.47548 56.237986,10.43286 0,0 0,-25.23499 0,-25.23499 -21.666045,2.85516 -51.948037,-2.24952 -68.494983,-17.30399 -1.175229,2.96331 -0.72821,6.89996 -0.721,10.09399 z m 261.001939,-0.22351 c -13.79994,6.36643 -39.12866,10.10842 -54.07499,7.43351 0,0 0,25.23499 0,25.23499 17.68613,1.43479 33.25251,0.92288 49.74899,-6.61877 7.37583,-3.36707 14.31906,-7.47677 18.0322,-15.01122 2.9561,-6.00593 2.15579,-14.2758 2.15579,-20.90899 -5.4075,3.60499 -9.84885,7.09463 -15.86199,9.87048 z m -180.97096,19.69051 c 0.18746,15.64569 14.30464,23.23061 27.398,27.63592 19.49583,6.55389 44.96876,6.69088 64.16898,-0.95893 8.49338,-3.38149 17.06607,-7.45514 21.7021,-15.86199 3.66988,-6.65483 2.81189,-15.65291 2.81189,-23.072 -4.86674,2.06927 -11.76671,8.55106 -23.79299,12.60308 -22.38704,7.54166 -50.08065,7.52724 -72.09998,-1.39153 -8.34197,-3.38149 -12.257,-6.69809 -19.467,-11.21155 -1.18965,2.99936 -0.75705,8.8683 -0.721,12.257 z m 0,36.04999 c 0.18025,15.28519 13.80715,23.01431 26.677,27.39799 19.82749,6.74856 45.30763,7.08022 64.88998,-0.721 8.49338,-3.38149 17.06607,-7.45514 21.7021,-15.86199 3.6122,-6.5611 2.81189,-15.0689 2.81189,-22.351 0,0 -10.09399,6.26549 -10.09399,6.26549 -6.59715,3.64826 -12.257,5.99151 -19.467,8.12567 -19.94285,5.91941 -47.05245,4.62882 -66.33198,-3.17961 -8.34197,-3.38149 -12.257,-6.69809 -19.467,-11.21155 -1.18965,2.99936 -0.75705,8.20498 -0.721,11.536 z"
     style="fill:#000000;fill-opacity:1;stroke:none;stroke-width:1"
     inkscape:connector-curvature="0" />
</svg>
