<?xml version="1.0" encoding="UTF-8" standalone="no"?>
<svg
   xmlns:dc="http://purl.org/dc/elements/1.1/"
   xmlns:cc="http://creativecommons.org/ns#"
   xmlns:rdf="http://www.w3.org/1999/02/22-rdf-syntax-ns#"
   xmlns:svg="http://www.w3.org/2000/svg"
   xmlns="http://www.w3.org/2000/svg"
   xmlns:sodipodi="http://sodipodi.sourceforge.net/DTD/sodipodi-0.dtd"
   xmlns:inkscape="http://www.inkscape.org/namespaces/inkscape"
   width="100"
   height="100"
   viewBox="0 0 333.33266 333.33266"
   id="svg2"
   version="1.1"
   inkscape:version="0.91 r13725"
   sodipodi:docname="mountain.svg">
  <metadata
     id="metadata9">
    <rdf:RDF>
      <cc:Work
         rdf:about="">
        <dc:format>image/svg+xml</dc:format>
        <dc:type
           rdf:resource="http://purl.org/dc/dcmitype/StillImage" />
        <dc:title></dc:title>
      </cc:Work>
    </rdf:RDF>
  </metadata>
  <defs
     id="defs7" />
  <sodipodi:namedview
     pagecolor="#ffffff"
     bordercolor="#666666"
     borderopacity="1"
     objecttolerance="10"
     gridtolerance="10"
     guidetolerance="10"
     inkscape:pageopacity="0"
     inkscape:pageshadow="2"
     inkscape:window-width="1218"
     inkscape:window-height="697"
     id="namedview5"
     showgrid="false"
     units="px"
     inkscape:zoom="1.5733302"
     inkscape:cx="75.000148"
     inkscape:cy="75.000148"
     inkscape:window-x="54"
     inkscape:window-y="-8"
     inkscape:window-maximized="1"
     inkscape:current-layer="svg2" />
  <path
     id="Selection #30"
     d="m 177.685,39.959751 c 0,0 20.18737,53.57417 20.18737,53.57417 13.22273,34.753329 27.43153,69.460079 42.91369,103.266159 0,0 25.97182,53.57417 25.97182,53.57417 7.72556,13.92152 16.05673,29.9006 26.51534,41.92761 2.21284,2.54672 6.19597,6.70066 9.09208,8.33118 3.11351,1.74698 6.34349,1.52958 8.47093,4.95367 3.1601,5.0779 -0.65997,11.70091 -7.69449,11.00988 -6.89477,-0.6755 -12.34536,-4.84497 -17.08162,-9.54242 -8.37776,-8.31564 -15.48216,-19.3954 -21.58496,-29.50461 -16.48376,-27.29954 -33.42563,-64.39771 -46.18249,-93.94892 0,0 -14.06904,-33.3868 -14.06904,-33.3868 0,0 -5.90093,-15.52874 -5.90093,-15.52874 -4.24711,3.18339 -10.16356,10.99435 -13.19943,15.52874 0,0 -1.55288,0 -1.55288,0 0,0 -10.24897,-13.19943 -10.24897,-13.19943 0,0 -4.50333,-3.85113 -4.50333,-3.85113 0,0 -5.12449,4.62757 -5.12449,4.62757 0,0 -11.1807,13.19943 -11.1807,13.19943 0,0 -13.19943,-19.41093 -13.19943,-19.41093 0,0 -26.93461,62.11498 -26.93461,62.11498 -13.393544,29.24839 -29.069813,62.42556 -46.562944,89.29029 -6.770534,10.40426 -16.468235,25.10221 -27.439294,31.13513 -4.720738,2.5933 -13.67306,4.74403 -16.421648,-1.66157 -0.574564,-1.35877 -0.722087,-3.1834 -0.44257,-4.62757 1.048191,-5.45059 5.551527,-5.27201 9.099846,-7.06558 2.104145,-1.06372 4.472278,-2.98928 6.141618,-4.65086 10.932237,-10.87789 24.869286,-34.83874 32.43955,-48.84567 25.319619,-46.8114 52.184352,-110.05998 72.138792,-159.946077 0,0 17.06609,-43.480485 17.06609,-43.480485 0,0 10.41979,-27.175303 10.41979,-27.175303 2.47683,3.812307 6.90252,18.0444 8.86691,23.293116 z m -23.77451,55.903482 c 0,0 -6.96464,17.858057 -6.96464,17.858057 -0.3494,3.97536 4.58098,9.92287 7.89636,11.64656 0,0 13.19944,-17.85806 13.19944,-17.85806 0,0 1.55287,0 1.55287,0 1.96439,4.34805 5.97857,8.64951 9.00668,12.423 0.93948,1.17242 3.21445,4.18499 4.4024,4.8605 3.28432,1.84792 7.78766,-5.14778 7.6479,-7.96625 0,0 -6.92582,-18.634495 -6.92582,-18.634495 0,0 -14.90759,-38.821864 -14.90759,-38.821864 0,0 -14.9076,36.492552 -14.9076,36.492552 z"
     inkscape:connector-curvature="0"
     style="fill:#000000;fill-opacity:1;stroke:none;stroke-width:1" />
</svg>
