<?xml version="1.0" encoding="UTF-8" standalone="no"?>
<svg
   xmlns:dc="http://purl.org/dc/elements/1.1/"
   xmlns:cc="http://creativecommons.org/ns#"
   xmlns:rdf="http://www.w3.org/1999/02/22-rdf-syntax-ns#"
   xmlns:svg="http://www.w3.org/2000/svg"
   xmlns="http://www.w3.org/2000/svg"
   xmlns:sodipodi="http://sodipodi.sourceforge.net/DTD/sodipodi-0.dtd"
   xmlns:inkscape="http://www.inkscape.org/namespaces/inkscape"
   width="100"
   height="100"
   viewBox="0 0 333.33269 333.33269"
   id="svg2"
   version="1.1"
   inkscape:version="0.91 r13725"
   sodipodi:docname="Mouse.svg">
  <metadata
     id="metadata9">
    <rdf:RDF>
      <cc:Work
         rdf:about="">
        <dc:format>image/svg+xml</dc:format>
        <dc:type
           rdf:resource="http://purl.org/dc/dcmitype/StillImage" />
        <dc:title></dc:title>
      </cc:Work>
    </rdf:RDF>
  </metadata>
  <defs
     id="defs7" />
  <sodipodi:namedview
     pagecolor="#ffffff"
     bordercolor="#666666"
     borderopacity="1"
     objecttolerance="10"
     gridtolerance="10"
     guidetolerance="10"
     inkscape:pageopacity="0"
     inkscape:pageshadow="2"
     inkscape:window-width="1218"
     inkscape:window-height="697"
     id="namedview5"
     showgrid="false"
     units="px"
     inkscape:zoom="1.5733302"
     inkscape:cx="75.000148"
     inkscape:cy="75.000148"
     inkscape:window-x="54"
     inkscape:window-y="-8"
     inkscape:window-maximized="1"
     inkscape:current-layer="svg2" />
  <path
     id="Selection #18"
     d="m 112.83645,83.56039 c 7.00343,-9.536794 12.9896,-15.796843 22.35033,-23.06437 30.86009,-23.944689 63.90141,-21.548264 97.81328,-5.976391 0,0 43.03784,24.150098 43.03784,24.150098 2.66052,-11.678905 11.29743,-30.781838 26.40958,-23.553437 2.26927,1.085728 3.70712,2.181236 5.36017,4.088595 8.62713,9.928047 8.47063,22.849181 8.33369,35.114966 -0.0685,5.516668 -1.22267,11.405029 -3.01265,16.628249 -1.14442,3.355 -3.26696,7.25775 -3.355,10.75946 0,0 3.15937,27.38773 3.15937,27.38773 0,0 2.23015,28.36585 2.23015,28.36585 0,0 0.97813,20.54079 0.97813,20.54079 0,0 -0.8901,9.78133 -0.8901,9.78133 -1.10529,15.76749 -4.26466,38.59711 -25.51949,36.99298 -4.50919,-0.34235 -11.42459,-2.47468 -15.65012,-4.17663 -2.28883,-0.92923 -6.38721,-3.38434 -8.75429,-2.82681 -2.96374,0.6847 -4.14728,4.42116 -6.29917,6.81759 -5.70252,6.30896 -6.38721,7.25775 -14.29052,9.92805 -2.07364,0.69447 -3.56041,1.6237 -5.8688,1.43785 -8.50975,-0.68469 -16.19788,-16.11962 -21.5287,-19.13227 -2.90505,-1.64327 -8.78363,0.25431 -12.70594,0.49884 -3.25719,-0.1565 -14.3003,-2.06386 -15.82619,0 -2.10299,3.33544 3.08112,6.65131 2.86593,11.54197 -0.32279,7.39468 -14.12424,17.11732 -21.27439,15.80663 -3.16915,-0.5771 -6.57305,-3.75603 -8.70538,-6.04487 -6.51437,-6.98386 -10.7399,-17.83135 -10.85728,-27.36815 -0.0293,-3.12024 0.39126,-8.02069 -0.99769,-10.74968 -1.56501,-3.04199 -6.99365,-7.06212 -9.76177,-9.39007 -4.79285,-4.03969 -9.33138,-8.52932 -13.60582,-13.11676 -13.34173,-14.32965 -27.759409,-36.76801 -29.432016,-56.73171 -9.849796,0 -19.660468,-0.77273 -29.343982,1.38895 -4.949352,1.11507 -10.309519,2.76812 -14.671991,5.38952 -16.892352,10.15302 -17.058635,27.59312 -10.563834,44.08444 9.086854,23.05459 33.178263,44.12357 51.645409,59.93019 7.531624,6.4459 21.988424,15.66969 22.457924,26.14549 0.24454,5.36017 -1.94648,15.53275 -9.68351,11.55175 -4.78307,-2.45511 -3.12024,-6.76868 -5.53623,-10.57361 -2.327958,-3.67778 -12.344037,-12.74507 -16.041379,-15.91422 0,0 -19.562654,-16.44242 -19.562654,-16.44242 0,0 -16.628257,-14.60352 -16.628257,-14.60352 -4.460285,-4.36247 -8.392379,-8.80319 -12.275566,-13.68407 -16.80432,-21.12767 -30.6742423,-59.45091 -7.247963,-81.00897 4.254877,-3.92231 11.238745,-7.79572 16.589131,-10.08455 9.527013,-4.07881 21.919955,-6.70021 32.27838,-6.71977 7.169713,-0.01 11.385465,-0.313 18.584522,0.97813 1.134634,-13.85036 7.688126,-27.084488 15.796846,-38.14717 z m 51.69431,-28.336505 c -24.06206,7.648998 -49.35657,33.393452 -56.3111,57.680485 -1.85845,6.45568 -2.49424,12.8331 -2.11277,19.55287 0,0 0.80207,7.92288 0.80207,7.92288 -0.18584,21.41133 21.56783,46.6765 36.11266,60.57577 0,0 16.81411,14.74046 16.81411,14.74046 2.26926,3.53106 -0.11738,7.36534 0,12.62769 -0.12716,7.1795 2.19101,13.41998 5.67317,19.56266 0,0 8.80319,-1.95627 8.80319,-1.95627 0,0 3.99078,-10.75946 3.99078,-10.75946 0,0 5.79055,-11.73759 5.79055,-11.73759 5.87858,1.95626 14.33942,4.99826 20.54079,4.76351 6.17201,-0.23476 8.99882,-4.03969 14.67199,-1.81933 6.4948,2.54314 10.3193,10.25083 15.65012,14.66221 0,0 9.78133,-6.84693 9.78133,-6.84693 -2.17146,-8.46085 -0.79229,-4.94935 -6.6024,-10.91596 -1.52589,-1.5748 -2.5138,-3.26697 -4.41138,-4.46029 0,0 -20.28647,-6.81758 -20.28647,-6.81758 -9.44876,-3.36478 -17.79223,-7.67834 -25.43145,-14.29052 -10.02586,-8.68582 -16.62826,-22.06668 -19.35725,-34.91934 -0.65535,-3.11046 -3.18871,-17.33251 4.47007,-14.28074 3.61909,1.43786 3.99078,10.74968 4.77329,14.28074 2.22036,9.88892 6.95452,19.14206 14.06555,26.3998 7.70768,7.86419 21.54826,14.17315 32.23925,16.87279 3.93209,0.9977 8.00113,0.27388 11.73759,1.98561 14.47637,6.63174 31.16331,22.2134 46.95037,25.16736 3.15937,-10.61274 8.94014,-6.6024 9.58571,-3.48216 0.25431,1.24223 -0.50863,4.10816 -0.78251,5.43842 2.28883,-0.26409 3.76581,-0.32278 5.77098,-1.70195 7.26753,-4.98848 8.89123,-22.33077 8.90101,-30.57643 0,0 -2.23014,-48.90664 -2.23014,-48.90664 0,0 -4.02013,-34.23465 -4.02013,-34.23465 0.18585,-3.38434 3.64844,-10.39755 4.85154,-14.67199 2.68987,-9.527012 3.36478,-19.748499 0.66513,-29.343982 -1.24223,-4.450503 -4.69504,-13.938391 -10.91596,-11.943 -7.55119,2.43555 -9.85958,21.675421 -12.39294,24.31638 -2.01496,1.653044 -4.91023,1.007476 -7.25775,0 -7.32621,-2.161674 -24.512,-13.380856 -32.27838,-17.821579 0,0 -13.69386,-7.022993 -13.69386,-7.022993 -4.78306,-2.376863 -14.37855,-7.512059 -19.56265,-6.11333 7.91309,6.905618 13.3026,16.070721 18.05633,25.431452 1.09551,2.689865 3.33543,6.758897 0,9.380293 -0.87054,0.577098 -2.03452,0.723818 -3.28653,0 -2.63117,-0.792288 -4.49941,-5.037384 -5.73185,-7.424028 -3.30609,-6.445895 -8.49998,-15.532748 -13.96774,-20.218004 -7.42403,-6.367644 -12.3636,-3.266963 -14.59374,5.546013 -0.78251,3.110462 -0.97813,5.614482 -1.01726,8.803195 -0.14672,13.058072 3.81472,26.438923 12.88201,36.151783 4.62657,4.94935 9.40964,7.18928 11.41481,9.20423 2.41599,2.43555 2.87571,5.83945 -0.88032,7.2284 -2.65074,0.97813 -5.69273,-1.3107 -7.76637,-2.73877 -6.16224,-4.23532 -9.57592,-7.59031 -13.9384,-13.65473 -9.60526,-13.33195 -15.31755,-37.501611 -7.58052,-52.81917 1.99539,-3.951656 4.86132,-6.612177 7.82506,-9.781327 -10.88662,0 -15.611,-0.469504 -26.40959,2.963742 z M 81.38948,129.57175 c -19.005119,0.7336 -46.637369,6.94474 -53.445172,27.3486 -1.4672,4.39182 -1.379168,7.20884 -1.330261,11.7376 0.05869,4.67547 0.547754,9.61504 2.934398,13.69385 0,-6.27961 -0.704255,-13.47867 0.899882,-19.56265 6.035079,-22.86875 31.68172,-31.27091 52.897419,-31.30026 4.196189,-0.01 8.773851,0.58688 12.715726,-0.97813 0,0 -14.671992,-0.93901 -14.671992,-0.93901 z m 172.15136,49.24899 c -16.6576,1.03683 -23.10349,-18.40845 -12.61791,-27.38771 3.05177,-2.60184 5.8688,-3.1985 9.68351,-3.69734 20.59948,0.53797 22.0569,29.90151 2.9344,31.08505 z m -0.0587,-9.53679 c 5.64383,-1.16398 5.7123,-12.3636 -3.81471,-11.90387 -9.19445,3.86362 -2.64096,13.23413 3.81471,11.90387 z"
     inkscape:connector-curvature="0"
     style="fill:#000000;stroke:none;stroke-width:0.97813272;fill-opacity:1" />
</svg>
