<?xml version="1.0" encoding="UTF-8" standalone="no"?>
<svg
   xmlns:dc="http://purl.org/dc/elements/1.1/"
   xmlns:cc="http://creativecommons.org/ns#"
   xmlns:rdf="http://www.w3.org/1999/02/22-rdf-syntax-ns#"
   xmlns:svg="http://www.w3.org/2000/svg"
   xmlns="http://www.w3.org/2000/svg"
   xmlns:sodipodi="http://sodipodi.sourceforge.net/DTD/sodipodi-0.dtd"
   xmlns:inkscape="http://www.inkscape.org/namespaces/inkscape"
   width="100"
   height="100"
   viewBox="0 0 333.33269 333.33269"
   id="svg2"
   version="1.1"
   inkscape:version="0.91 r13725"
   sodipodi:docname="Musician.svg"
   inkscape:export-filename="C:\Users\mbrown\Desktop\Drawings\icons\forJustin\Musician.png"
   inkscape:export-xdpi="300"
   inkscape:export-ydpi="300">
  <metadata
     id="metadata9">
    <rdf:RDF>
      <cc:Work
         rdf:about="">
        <dc:format>image/svg+xml</dc:format>
        <dc:type
           rdf:resource="http://purl.org/dc/dcmitype/StillImage" />
        <dc:title></dc:title>
      </cc:Work>
    </rdf:RDF>
  </metadata>
  <defs
     id="defs7" />
  <sodipodi:namedview
     pagecolor="#ffffff"
     bordercolor="#666666"
     borderopacity="1"
     objecttolerance="10"
     gridtolerance="10"
     guidetolerance="10"
     inkscape:pageopacity="0"
     inkscape:pageshadow="2"
     inkscape:window-width="1218"
     inkscape:window-height="697"
     id="namedview5"
     showgrid="false"
     units="px"
     inkscape:zoom="1.5733302"
     inkscape:cx="75.000148"
     inkscape:cy="75.000148"
     inkscape:window-x="54"
     inkscape:window-y="-8"
     inkscape:window-maximized="1"
     inkscape:current-layer="svg2" />
  <path
     id="Harp"
     d="m 33.82566,16.876941 c 12.494205,0.152587 23.462537,5.178991 30.08662,16.156299 5.493142,9.092407 5.816268,18.534866 5.816268,28.722311 0,0 193.875602,0 193.875602,0 0,-9.792513 -0.009,-16.856406 4.46991,-26.029594 8.67952,-17.798857 28.93772,-22.187985 46.6917,-17.053872 -3.26716,11.417118 -13.77773,19.800443 -18.86697,30.517455 -3.27613,6.911306 -2.76452,18.355351 -2.67476,26.029593 0,0 2.94404,32.312607 2.94404,32.312607 3.32999,27.02589 6.07656,54.44672 6.03168,81.67907 0,0 -0.81679,10.77086 -0.81679,10.77086 -1.83105,25.01534 -7.89863,44.38495 -30.59824,58.16268 -6.57022,3.98522 -13.25714,6.66896 -20.64416,8.76928 -9.29884,2.65681 -21.7751,4.85587 -31.41502,4.87382 -5.57393,0.009 -12.6827,0.60137 -17.95145,-0.89758 0,0 -0.89757,0.89758 -0.89757,0.89758 0,0 22.43931,44.87861 22.43931,44.87861 0,0 -111.29896,0 -111.29896,0 0,0 22.43931,-45.77619 22.43931,-45.77619 -6.74077,1.21173 -12.94299,0.90655 -19.74659,0.89758 -8.93982,-0.0179 -22.906047,-2.34267 -31.415031,-5.08924 C 72.385362,263.50286 62.556946,259.383 54.469821,252.65121 37.882687,238.8286 33.44868,220.50915 31.949734,199.98167 c 0,0 -0.81679,-10.77086 -0.81679,-10.77086 -0.04488,-28.67744 3.706973,-56.77145 6.345835,-85.26937 0,0 1.884902,-21.541729 1.884902,-21.541729 0,0 0.744985,-8.07815 0.744985,-8.07815 0.08078,-7.431898 0.646252,-17.520609 -2.692717,-24.234449 -4.353225,-8.760305 -15.98576,-18.454084 -18.849016,-30.517455 6.004758,-2.917109 8.76928,-2.764522 15.258727,-2.692716 z M 69.728548,69.8337 c 0,0 0,94.24508 0,94.24508 0,16.44353 -1.893877,36.25294 5.717535,51.16162 8.598742,16.83845 28.937727,25.93984 47.239227,26.02959 0,0 6.28301,0 6.28301,0 0,0 0,-171.43629 0,-171.43629 0,0 -59.239772,0 -59.239772,0 z m 67.317922,0 c 0,0 0,171.43629 0,171.43629 0,0 14.36115,0 14.36115,0 0,0 0,-171.43629 0,-171.43629 0,0 -14.36115,0 -14.36115,0 z m 22.4393,0 c 0,0 0,171.43629 0,171.43629 0,0 14.36116,0 14.36116,0 0,0 0,-171.43629 0,-171.43629 0,0 -14.36116,0 -14.36116,0 z m 22.43931,0 c 0,0 0,171.43629 0,171.43629 0,0 14.36115,0 14.36115,0 0,0 0,-171.43629 0,-171.43629 0,0 -14.36115,0 -14.36115,0 z m 22.4393,0 c 0,0 0,171.43629 0,171.43629 0,0 5.38544,0 5.38544,0 18.73233,-0.0269 39.27775,-8.67952 48.13679,-26.02959 7.61141,-14.90868 5.71754,-34.71809 5.71754,-51.16162 0,0 0,-94.24508 0,-94.24508 0,0 -59.23977,0 -59.23977,0 z"
     style="fill:#000000;fill-opacity:1;stroke:none;stroke-width:1"
     inkscape:connector-curvature="0" />
</svg>
