<?xml version="1.0" encoding="UTF-8" standalone="no"?>
<svg
   xmlns:dc="http://purl.org/dc/elements/1.1/"
   xmlns:cc="http://creativecommons.org/ns#"
   xmlns:rdf="http://www.w3.org/1999/02/22-rdf-syntax-ns#"
   xmlns:svg="http://www.w3.org/2000/svg"
   xmlns="http://www.w3.org/2000/svg"
   xmlns:sodipodi="http://sodipodi.sourceforge.net/DTD/sodipodi-0.dtd"
   xmlns:inkscape="http://www.inkscape.org/namespaces/inkscape"
   width="100"
   height="100"
   viewBox="0 0 333.33269 333.33269"
   id="svg2"
   version="1.1"
   inkscape:version="0.91 r13725"
   sodipodi:docname="NavalMemorial.svg">
  <metadata
     id="metadata9">
    <rdf:RDF>
      <cc:Work
         rdf:about="">
        <dc:format>image/svg+xml</dc:format>
        <dc:type
           rdf:resource="http://purl.org/dc/dcmitype/StillImage" />
        <dc:title></dc:title>
      </cc:Work>
    </rdf:RDF>
  </metadata>
  <defs
     id="defs7" />
  <sodipodi:namedview
     pagecolor="#ffffff"
     bordercolor="#666666"
     borderopacity="1"
     objecttolerance="10"
     gridtolerance="10"
     guidetolerance="10"
     inkscape:pageopacity="0"
     inkscape:pageshadow="2"
     inkscape:window-width="1218"
     inkscape:window-height="697"
     id="namedview5"
     showgrid="false"
     units="px"
     inkscape:zoom="1.5733302"
     inkscape:cx="75.000148"
     inkscape:cy="75.000148"
     inkscape:window-x="54"
     inkscape:window-y="-8"
     inkscape:window-maximized="1"
     inkscape:current-layer="svg2" />
  <path
     id="Selection #1"
     d="m 147.13518,77.994851 c 0,0 0,30.468619 0,30.468619 0,0 -35.1561,0 -35.1561,0 0,0 0,51.56228 0,51.56228 5.7656,1.30468 5.7656,5.72653 0,7.03121 0,0 0,4.81248 0,4.81248 0,0 14.01557,0 14.01557,0 2.01562,0.67188 3.39061,2.29687 2.65624,4.45311 -1.27343,3.74218 -13.20307,2.45311 -16.67181,2.45311 0,0 0,51.56229 0,51.56229 0,0 5.46873,0 5.46873,0 0,0 0,24.99989 0,24.99989 0,0 -18.749922,0 -18.749922,0 0,0 0,-24.99989 0,-24.99989 0,0 5.468722,0 5.468722,0 0,0 0,-51.68729 0,-51.68729 0,0 -14.01556,0 -14.01556,0 -2.015617,-0.67187 -3.390611,-2.29686 -2.656239,-4.4531 1.273432,-3.74217 13.203069,-2.45312 16.671799,-2.45312 0,0 0,-4.68748 0,-4.68748 -7.070278,-0.57812 -7.070278,-6.45309 0,-7.03121 0,0 0,-82.030899 0,-82.030899 0,0 42.96857,0 42.96857,0 z m 74.21843,9.37496 c 0,-2.078116 -0.16406,-5.101541 0.91406,-6.914033 1.89062,-3.171861 5.4531,-2.421864 6.8281,1.460931 0.13281,1.382807 0.0703,3.953108 0,5.453102 0,0 0,72.655939 0,72.655939 7.14059,0.57812 7.14059,6.45309 0,7.03121 0,0 0,4.81248 0,4.81248 0,0 14.08588,0 14.08588,0 2.01561,0.67188 3.39061,2.29687 2.65623,4.45311 -1.27343,3.74218 -13.20306,2.45311 -16.6718,2.45311 0,0 0,51.56229 0,51.56229 0,0 5.46873,0 5.46873,0 0,0 0,24.99989 0,24.99989 0,0 -18.74992,0 -18.74992,0 0,0 0,-24.99989 0,-24.99989 0,0 5.46872,0 5.46872,0 0,0 0,-51.68729 0,-51.68729 0,0 -14.01556,0 -14.01556,0 -2.01562,-0.67187 -3.39061,-2.29686 -2.65624,-4.4531 1.27343,-3.74217 13.20307,-2.45312 16.6718,-2.45312 0,0 0,-4.68748 0,-4.68748 -5.7656,-1.30468 -5.7656,-5.72653 0,-7.03121 0,0 0,-72.655939 0,-72.655939 z m -109.37453,-2.34374 c 0,0 0,16.406179 0,16.406179 0,0 27.34364,0 27.34364,0 0,0 0,-16.406179 0,-16.406179 0,0 -27.34364,0 -27.34364,0 z M 47.13561,118.61967 c 0,0 0,19.53117 0,19.53117 0,0 -17.187426,0 -17.187426,0 0,0 0,39.06233 0,39.06233 5.437477,1.17187 6.593722,4.71874 3.0078,6.89842 -1.007808,0.60937 -1.914054,0.67968 -3.0078,0.91406 0,0 0,50.78103 0,50.78103 0,0 5.468727,0 5.468727,0 0,0 0,19.53116 0,19.53116 0,0 -18.74992,0 -18.74992,0 0,0 0,-19.53116 0,-19.53116 0,0 5.468726,0 5.468726,0 0,0 0,-50.78103 0,-50.78103 -6.773408,-1.46094 -6.773408,-6.35155 0,-7.81248 0,0 0,-58.5935 0,-58.5935 0,0 24.999893,0 24.999893,0 z m 256.2489,9.37496 c 0,-2.02343 -0.17187,-5.10154 0.91406,-6.85153 1.77343,-2.84374 5.03904,-2.28124 6.32029,0.6875 0.68749,1.57812 0.57812,4.41404 0.57812,6.16403 0,0 0,49.21854 0,49.21854 6.77341,1.46093 6.77341,6.35154 0,7.81248 0,0 0,50.78103 0,50.78103 0,0 5.46872,0 5.46872,0 0,0 0,19.53116 0,19.53116 0,0 -18.74992,0 -18.74992,0 0,0 0,-19.53116 0,-19.53116 0,0 5.46873,0 5.46873,0 0,0 0,-50.78103 0,-50.78103 -6.74216,-1.45312 -6.74216,-6.35936 0,-7.81248 0,0 0,-49.21854 0,-49.21854 z M 29.948184,126.43214 c 0,0 0,3.90623 0,3.90623 0,0 10.156207,0 10.156207,0 0,0 0,-3.90623 0,-3.90623 0,0 -10.156207,0 -10.156207,0 z m 75.780926,110.93703 c 0,0 0,10.15621 0,10.15621 0,0 4.68748,0 4.68748,0 0,0 0,-10.15621 0,-10.15621 0,0 -4.68748,0 -4.68748,0 z m 117.187,0 c 0,0 0,10.15621 0,10.15621 0,0 4.68748,0 4.68748,0 0,0 0,-10.15621 0,-10.15621 0,0 -4.68748,0 -4.68748,0 z m -199.217899,6.24997 c 0,0 0,3.90624 0,3.90624 0,0 4.68748,0 4.68748,0 0,0 0,-3.90624 0,-3.90624 0,0 -4.68748,0 -4.68748,0 z m 281.248789,0 c 0,0 0,3.90624 0,3.90624 0,0 4.68748,0 4.68748,0 0,0 0,-3.90624 0,-3.90624 0,0 -4.68748,0 -4.68748,0 z"
     inkscape:connector-curvature="0"
     style="fill:#000000;fill-opacity:1;stroke:none;stroke-width:1" />
</svg>
