<?xml version="1.0" encoding="UTF-8" standalone="no"?>
<svg
   xmlns:dc="http://purl.org/dc/elements/1.1/"
   xmlns:cc="http://creativecommons.org/ns#"
   xmlns:rdf="http://www.w3.org/1999/02/22-rdf-syntax-ns#"
   xmlns:svg="http://www.w3.org/2000/svg"
   xmlns="http://www.w3.org/2000/svg"
   xmlns:sodipodi="http://sodipodi.sourceforge.net/DTD/sodipodi-0.dtd"
   xmlns:inkscape="http://www.inkscape.org/namespaces/inkscape"
   width="100"
   height="100"
   viewBox="0 0 333.33269 333.33269"
   id="svg2"
   version="1.1"
   inkscape:version="0.91 r13725"
   sodipodi:docname="Nebula.svg">
  <metadata
     id="metadata9">
    <rdf:RDF>
      <cc:Work
         rdf:about="">
        <dc:format>image/svg+xml</dc:format>
        <dc:type
           rdf:resource="http://purl.org/dc/dcmitype/StillImage" />
        <dc:title></dc:title>
      </cc:Work>
    </rdf:RDF>
  </metadata>
  <defs
     id="defs7" />
  <sodipodi:namedview
     pagecolor="#ffffff"
     bordercolor="#666666"
     borderopacity="1"
     objecttolerance="10"
     gridtolerance="10"
     guidetolerance="10"
     inkscape:pageopacity="0"
     inkscape:pageshadow="2"
     inkscape:window-width="1218"
     inkscape:window-height="697"
     id="namedview5"
     showgrid="false"
     units="px"
     inkscape:zoom="1.5733302"
     inkscape:cx="75.000148"
     inkscape:cy="75.000148"
     inkscape:window-x="54"
     inkscape:window-y="-8"
     inkscape:window-maximized="1"
     inkscape:current-layer="svg2" />
  <path
     id="Star copy #2"
     d="m 92.384704,76.986555 c 0,37.140825 -0.742817,35.655185 17.827596,35.655185 -18.570413,0 -17.827596,-4.8283 -17.827596,35.65519 0,-40.48349 0.742816,-35.65519 -17.827594,-35.65519 18.57041,0 17.827594,1.48564 17.827594,-35.655185 z M 278.08881,246.3487 c 0,37.14082 -1.85704,33.42674 16.71337,33.42674 -18.57041,0 -16.71337,-7.05675 -16.71337,33.42674 0,-40.48349 1.85704,-33.42674 -16.71337,-33.42674 18.57041,0 16.71337,3.71408 16.71337,-33.42674 z M 36.673473,205.4938 c 0,37.14082 0,55.71123 18.57041,55.71123 -18.57041,0 -18.57041,15.22774 -18.57041,55.71123 0,-40.48349 0,-55.71123 -18.570411,-55.71123 18.570411,0 18.570411,-18.57041 18.570411,-55.71123 z m 0,-74.28165 c -37.14082179,-37.140817 0,-111.422457 18.57041,-92.852044 18.57041,-37.1408234 74.281647,-18.570413 92.852057,0 18.57041,-18.570413 74.28164,37.140816 37.14082,55.711227 18.57041,-18.570411 -18.57041,-63.139394 -37.14082,-44.56898 -18.57041,-18.570414 -74.281647,-37.140824 -92.852057,0 -18.57041,-18.570414 -37.140821,44.56898 -18.57041,81.709797 z M 240.94799,112.64174 c 18.57041,0 64.99644,37.14082 46.42603,55.71123 18.57041,18.57042 9.2852,55.71124 -27.85562,55.71124 0,18.57041 -18.57041,62.39658 -55.71123,25.25576 -18.57041,18.57041 -37.14082,40.11209 -74.28164,2.97126 -37.140826,0 -55.711237,-46.79743 -37.140826,-65.36784 -34.169556,37.14082 0,74.28164 37.140826,74.28164 37.14082,37.14082 55.71123,18.57041 74.28164,0 37.14082,18.57041 60.91095,0 61.28235,-26.36998 37.14083,0 50.14011,-47.91166 31.5697,-66.48208 14.85633,-18.57041 -18.57041,-55.71123 -55.71123,-55.71123 z m -92.85205,111.42247 c -18.57041,-18.57041 0,-83.19545 18.57041,-64.62504 18.57041,-28.22702 55.71123,-9.65661 74.28164,8.9138 -18.57041,-37.14082 -55.71123,-37.14082 -74.28164,-18.57041 -18.57041,-18.57041 -55.71124,37.14083 -18.57041,74.28165 z M 296.65922,19.789693 c 0,37.140819 0,37.140819 18.57041,37.140819 -18.57041,0 -18.57041,-3.342669 -18.57041,37.140821 0,-40.48349 0,-37.140821 -18.57041,-37.140821 18.57041,0 18.57041,0 18.57041,-37.140819 z"
     inkscape:connector-curvature="0"
     style="fill:#000000;fill-opacity:1;stroke:none;stroke-width:1;stroke-opacity:1" />
</svg>
