<?xml version="1.0" encoding="UTF-8" standalone="no"?>
<svg
   xmlns:dc="http://purl.org/dc/elements/1.1/"
   xmlns:cc="http://creativecommons.org/ns#"
   xmlns:rdf="http://www.w3.org/1999/02/22-rdf-syntax-ns#"
   xmlns:svg="http://www.w3.org/2000/svg"
   xmlns="http://www.w3.org/2000/svg"
   xmlns:sodipodi="http://sodipodi.sourceforge.net/DTD/sodipodi-0.dtd"
   xmlns:inkscape="http://www.inkscape.org/namespaces/inkscape"
   width="100"
   height="100"
   viewBox="0 0 333.33269 333.33266"
   id="svg2"
   version="1.1"
   inkscape:version="0.91 r13725"
   sodipodi:docname="nextDeal.svg">
  <metadata
     id="metadata9">
    <rdf:RDF>
      <cc:Work
         rdf:about="">
        <dc:format>image/svg+xml</dc:format>
        <dc:type
           rdf:resource="http://purl.org/dc/dcmitype/StillImage" />
        <dc:title></dc:title>
      </cc:Work>
    </rdf:RDF>
  </metadata>
  <defs
     id="defs7" />
  <sodipodi:namedview
     pagecolor="#ffffff"
     bordercolor="#666666"
     borderopacity="1"
     objecttolerance="10"
     gridtolerance="10"
     guidetolerance="10"
     inkscape:pageopacity="0"
     inkscape:pageshadow="2"
     inkscape:window-width="1218"
     inkscape:window-height="697"
     id="namedview5"
     showgrid="false"
     units="px"
     inkscape:zoom="1.5733302"
     inkscape:cx="75.000148"
     inkscape:cy="75.000148"
     inkscape:window-x="54"
     inkscape:window-y="-8"
     inkscape:window-maximized="1"
     inkscape:current-layer="svg2" />
  <path
     id="Selection #66"
     d="m 210.82143,48.806642 c -4.47384,1.528858 -9.20837,-2.184083 -8.65883,-6.918613 0.36636,-3.107035 3.05772,-5.636345 5.13612,-7.749974 0,0 11.97723,-11.977231 11.97723,-11.977231 1.4725,-1.472495 4.95998,-5.495436 7.04543,-5.495436 1.75431,0 3.75522,2.233401 4.9318,3.381807 0,0 9.86361,9.863602 9.86361,9.863602 3.1493,3.149307 9.92701,8.553153 9.36337,13.386319 -0.53545,4.537257 -5.22066,7.094748 -9.36337,5.227709 -2.60681,-1.176587 -5.68567,-4.572484 -7.74998,-6.636796 0,0 0,54.249811 0,54.249811 0,0 24.65901,-24.659006 24.65901,-24.659006 0,0 13.38632,-14.090858 13.38632,-14.090858 -3.28317,0 -9.10975,0.542498 -11.73769,-1.416131 -3.66362,-2.726582 -3.19863,-8.250199 0.50727,-10.744281 1.95158,-1.317496 4.05817,-1.211814 6.29861,-1.225905 0,0 28.88627,0 28.88627,0 0,0 0,28.181718 0,28.181718 -0.007,2.402491 0.18318,4.910665 -1.22591,7.003157 -2.49408,3.705897 -8.0177,4.170895 -10.74428,0.507271 -1.95863,-2.627945 -1.41613,-8.454516 -1.41613,-11.737686 -4.29067,3.071807 -10.78655,10.08201 -14.7954,14.09086 0,0 -24.65901,24.659011 -24.65901,24.659011 -3.43817,3.43817 -11.40655,12.92836 -16.20449,12.92836 -4.79794,0 -12.76632,-9.49019 -16.20449,-12.92836 0,0 -24.659,-24.659011 -24.659,-24.659011 -4.00885,-4.00885 -10.50474,-11.019053 -14.79541,-14.09086 0,3.28317 0.5425,9.109741 -1.41613,11.737686 -2.72658,3.663624 -8.2502,3.198626 -10.74428,-0.507271 -1.3175,-1.951584 -1.21181,-4.058167 -1.22591,-6.298614 0,0 0,-28.886261 0,-28.886261 0,0 28.18173,0 28.18173,0 2.40249,0.007 4.91066,-0.183182 7.00315,1.225905 3.7059,2.494082 4.1709,8.017699 0.50727,10.744281 -2.62794,1.958629 -8.45451,1.416131 -11.73768,1.416131 0,0 13.38632,14.090858 13.38632,14.090858 0,0 24.659,24.659006 24.659,24.659006 0,0 0,-54.249811 0,-54.249811 -2.2334,2.233402 -5.48134,5.897026 -8.45452,6.918613 z M 198.8442,120.90957 c 0,0 76.79519,0 76.79519,0 9.4127,-0.0986 10.39906,3.2409 16.90904,9.75088 2.69135,2.69135 11.92791,11.42768 13.26654,14.09086 1.04273,2.08544 1.52181,10.07496 1.52886,12.68177 0,0 0,138.79499 0,138.79499 -0.155,12.93541 -5.4743,20.41061 -19.02266,20.43174 0,0 -110.61326,0 -110.61326,0 -1.78954,0 -3.94544,0.0916 -5.63634,-0.50727 -3.91022,-1.40204 -10.28633,-8.36997 -13.38632,-11.46996 -3.15635,-3.15635 -10.13837,-9.3986 -11.48405,-13.38631 -0.57773,-1.71909 -0.49318,-3.83272 -0.49318,-5.63635 0,0 0,-124.70412 0,-124.70412 0,0 0,-15.49995 0,-15.49995 0,-10.82883 -0.59886,-21.16447 12.68177,-24.54628 0,0 39.45441,0 39.45441,0 z M 43.844738,132.06953 c 0,0 23.24992,23.24992 23.24992,23.24992 1.888175,1.88818 9.018151,8.18679 9.018151,10.56815 0,2.38135 -7.129976,8.67997 -9.018151,10.56814 0,0 -23.24992,23.24993 -23.24992,23.24993 -2.789991,2.78999 -7.066567,7.99656 -11.272689,7.99656 -4.685211,0 -8.799742,-5.24884 -5.143164,-10.81473 0,0 21.347654,-21.84084 21.347654,-21.84084 1.542949,-1.54295 7.158157,-6.72839 7.609065,-8.45452 0.683407,-2.57863 -4.48794,-6.74248 -6.199979,-8.45451 0,0 -22.249469,-22.54538 -22.249469,-22.54538 -3.677714,-4.90362 -2.029084,-9.94815 3.93135,-11.47701 5.382709,0.11273 8.412244,4.38931 11.977232,7.95429 z m 52.840727,0 c 0,0 23.249915,23.24992 23.249915,23.24992 1.88818,1.88818 9.01815,8.18679 9.01815,10.56815 0,2.38135 -7.12997,8.67997 -9.01815,10.56814 0,0 -23.249915,23.24993 -23.249915,23.24993 -2.78999,2.78999 -7.066566,7.99656 -11.272688,7.99656 -4.685211,0 -8.799743,-5.24884 -5.143164,-10.81473 0,0 21.347657,-21.84084 21.347657,-21.84084 1.54295,-1.54295 7.15815,-6.72839 7.60906,-8.45452 0.68341,-2.57863 -4.48794,-6.74248 -6.19998,-8.45451 0,0 -22.249466,-22.54538 -22.249466,-22.54538 -3.677715,-4.90362 -2.029084,-9.94815 3.93135,-11.47701 5.382708,0.11273 8.412243,4.38931 11.977231,7.95429 z m 76.097695,16.97949 c -1.57113,2.37431 -1.40909,4.97407 -1.41613,7.67952 0,0 0,23.95447 0,23.95447 0,0 0,95.11331 0,95.11331 0,0 0,19.02266 0,19.02266 0.0493,3.48749 0.52136,6.45361 3.59316,8.65179 2.70545,1.9234 6.61566,1.90931 9.79315,1.91636 0,0 46.49984,0 46.49984,0 0,0 40.15896,0 40.15896,0 4.67816,0 14.47131,0.64818 18.30402,-1.50773 4.81203,-2.6984 4.93885,-7.72883 4.9459,-12.58313 0,0 0,-112.02235 0,-112.02235 0,0 0,-21.84084 0,-21.84084 -0.0423,-3.40294 -0.38046,-7.1652 -2.97318,-9.66633 -2.92385,-2.81817 -8.67292,-3.0084 -12.52677,-2.94499 0,0 -64.11342,0 -64.11342,0 0,0 -33.81806,0 -33.81806,0 -3.3184,0.69045 -6.43953,1.18363 -8.44747,4.22726 z"
     inkscape:connector-curvature="0"
     style="fill:#000000;fill-opacity:1;stroke:none;stroke-width:1" />
</svg>
