<?xml version="1.0" encoding="UTF-8" standalone="no"?>
<svg
   xmlns:dc="http://purl.org/dc/elements/1.1/"
   xmlns:cc="http://creativecommons.org/ns#"
   xmlns:rdf="http://www.w3.org/1999/02/22-rdf-syntax-ns#"
   xmlns:svg="http://www.w3.org/2000/svg"
   xmlns="http://www.w3.org/2000/svg"
   xmlns:sodipodi="http://sodipodi.sourceforge.net/DTD/sodipodi-0.dtd"
   xmlns:inkscape="http://www.inkscape.org/namespaces/inkscape"
   width="100"
   height="100"
   viewBox="0 0 333.33269 333.33266"
   id="svg2"
   version="1.1"
   inkscape:version="0.91 r13725"
   sodipodi:docname="NoTrade.svg">
  <metadata
     id="metadata9">
    <rdf:RDF>
      <cc:Work
         rdf:about="">
        <dc:format>image/svg+xml</dc:format>
        <dc:type
           rdf:resource="http://purl.org/dc/dcmitype/StillImage" />
        <dc:title></dc:title>
      </cc:Work>
    </rdf:RDF>
  </metadata>
  <defs
     id="defs7" />
  <sodipodi:namedview
     pagecolor="#ffffff"
     bordercolor="#666666"
     borderopacity="1"
     objecttolerance="10"
     gridtolerance="10"
     guidetolerance="10"
     inkscape:pageopacity="0"
     inkscape:pageshadow="2"
     inkscape:window-width="1218"
     inkscape:window-height="697"
     id="namedview5"
     showgrid="false"
     units="px"
     inkscape:zoom="1.5733302"
     inkscape:cx="75.000148"
     inkscape:cy="75.000148"
     inkscape:window-x="54"
     inkscape:window-y="-8"
     inkscape:window-maximized="1"
     inkscape:current-layer="svg2" />
  <path
     id="Selection #64"
     d="m 97.074955,74.366899 c 0,0 12.102855,12.102851 12.102855,12.102851 0,0 40.84712,40.84712 40.84712,40.84712 0,0 10.58999,10.59 10.58999,10.59 1.1649,1.1649 3.76702,3.98637 5.295,4.38728 2.3298,0.61271 4.58396,-2.18608 6.05143,-3.63085 0,0 13.6157,-13.61571 13.6157,-13.61571 0,0 37.82141,-37.821412 37.82141,-37.821412 0,0 11.34643,-11.346423 11.34643,-11.346423 1.2708,-1.270799 4.6369,-4.810883 6.05142,-5.491668 2.82148,-1.346442 4.9773,1.429649 6.80786,3.222384 0,0 12.84415,12.859279 12.84415,12.859279 1.65658,1.739785 3.7065,3.472006 2.48108,6.051426 -0.68078,1.414521 -4.22087,4.780626 -5.49167,6.051426 0,0 -11.34642,11.346418 -11.34642,11.346418 0,0 -37.82141,37.82141 -37.82141,37.82141 0,0 -12.10285,12.10285 -12.10285,12.10285 -1.2708,1.27837 -4.72011,4.43267 -5.14371,6.05143 -0.61271,2.3298 2.18608,4.58396 3.63085,6.05143 0,0 12.85928,12.85927 12.85928,12.85927 0,0 40.84712,40.84713 40.84712,40.84713 0,0 10.59,10.58999 10.59,10.58999 1.19516,1.20272 3.88048,3.69137 4.28138,5.295 0.59002,2.35249 -2.06505,4.56126 -3.52495,6.05142 0,0 -11.34643,11.34643 -11.34643,11.34643 -1.20272,1.19515 -3.69136,3.88047 -5.29499,4.28138 -2.35249,0.59002 -4.56126,-2.06505 -6.05143,-3.52495 0,0 -13.61571,-13.61571 -13.61571,-13.61571 0,0 -40.09069,-40.0907 -40.09069,-40.0907 0,0 -10.58999,-10.58999 -10.58999,-10.58999 -1.1649,-1.1649 -3.76702,-3.98638 -5.295,-4.38728 -2.3298,-0.61271 -4.58396,2.18607 -6.05143,3.63085 0,0 -13.6157,13.61571 -13.6157,13.61571 0,0 -40.0907,40.09069 -40.0907,40.09069 0,0 -10.589995,10.59 -10.589995,10.59 -1.20272,1.19515 -3.69137,3.88047 -5.295,4.28138 -2.35249,0.59002 -4.56126,-2.06505 -6.05143,-3.52495 0,0 -12.84415,-12.85928 -12.84415,-12.85928 -1.65658,-1.73979 -3.7065,-3.47201 -2.48108,-6.05143 0.68078,-1.41452 4.22087,-4.78062 5.49167,-6.05142 0,0 10.58999,-10.59 10.58999,-10.59 0,0 37.821415,-37.82141 37.821415,-37.82141 0,0 13.61571,-13.61571 13.61571,-13.61571 1.33131,-1.33887 4.50831,-4.08471 4.50831,-6.05142 0,-1.83056 -2.5416,-4.06202 -3.75188,-5.295 0,0 -12.85928,-12.85928 -12.85928,-12.85928 0,0 -42.359985,-42.35998 -42.359985,-42.35998 0,0 -9.83357,-9.833563 -9.83357,-9.833563 -1.23298,-1.263235 -3.63085,-3.411492 -3.63085,-5.294998 0,-2.034792 3.02571,-4.674726 4.38728,-6.051425 3.80483,-3.835091 11.65656,-12.571837 15.88499,-14.871378 3.46444,0.151285 4.40998,1.898634 6.80786,4.281383 z M 308.11842,118.99616 c 1.85325,1.85325 8.16943,7.39787 8.16943,9.83357 0,2.4357 -6.31618,7.98032 -8.16943,9.83357 0,0 -27.98784,27.23141 -27.98784,27.23141 0,0 0,-18.15428 0,-18.15428 0,0 -60.51426,0 -60.51426,0 0,0 27.23142,-27.98784 27.23142,-27.98784 5.83962,-5.83963 7.39787,-9.81844 15.88499,-9.83357 0,0 17.39785,0 17.39785,0 0,0 0,-18.154273 0,-18.154273 0,0 27.98784,27.231413 27.98784,27.231413 z M 70.599965,109.91902 c 8.48712,0.0151 10.04537,3.99394 15.88499,9.83357 0,0 27.231425,27.98784 27.231425,27.98784 0,0 -79.424965,0 -79.424965,0 0,0 0,-37.82141 0,-37.82141 0,0 36.30855,0 36.30855,0 z m 118.759235,0 c 0,0 -15.885,16.64142 -15.885,16.64142 0,0 -6.80785,5.14372 -6.80785,5.14372 0,0 -6.80785,-5.14372 -6.80785,-5.14372 0,0 -15.885,-16.64142 -15.885,-16.64142 0,0 45.3857,0 45.3857,0 z M 53.202115,185.56184 c 0,0 60.514265,0 60.514265,0 0,0 -27.231425,27.98785 -27.231425,27.98785 -5.83962,5.83962 -7.39787,9.81843 -15.88499,9.83356 0,0 -17.39785,0 -17.39785,0 0,0 0,18.15428 0,18.15428 0,0 -27.98784,-27.23142 -27.98784,-27.23142 -1.85325,-1.85324 -8.16943,-7.39786 -8.16943,-9.83356 0,-2.51891 6.98184,-8.64598 8.92586,-10.59 0,0 26.47498,-26.47498 26.47498,-26.47498 0,0 0.75643,18.15427 0.75643,18.15427 z m 245.839165,0 c 0,0 0,37.82141 0,37.82141 0,0 -36.30855,0 -36.30855,0 -8.48712,-0.0151 -10.04537,-3.99394 -15.88499,-9.83356 0,0 -27.23142,-27.98785 -27.23142,-27.98785 0,0 79.42496,0 79.42496,0 z M 159.8585,206.74183 c 0,0 6.80785,-5.14371 6.80785,-5.14371 0,0 6.80785,5.14371 6.80785,5.14371 0,0 15.885,16.64142 15.885,16.64142 0,0 -45.3857,0 -45.3857,0 0,0 15.885,-16.64142 15.885,-16.64142 z"
     inkscape:connector-curvature="0"
     style="fill:#000000;fill-opacity:1;stroke:none;stroke-width:0.75642818" />
</svg>
