<?xml version="1.0" encoding="UTF-8" standalone="no"?>
<svg
   xmlns:dc="http://purl.org/dc/elements/1.1/"
   xmlns:cc="http://creativecommons.org/ns#"
   xmlns:rdf="http://www.w3.org/1999/02/22-rdf-syntax-ns#"
   xmlns:svg="http://www.w3.org/2000/svg"
   xmlns="http://www.w3.org/2000/svg"
   xmlns:sodipodi="http://sodipodi.sourceforge.net/DTD/sodipodi-0.dtd"
   xmlns:inkscape="http://www.inkscape.org/namespaces/inkscape"
   width="100"
   height="100"
   viewBox="0 0 333.33269 333.33269"
   id="svg2"
   version="1.1"
   inkscape:version="0.91 r13725"
   sodipodi:docname="Others.svg">
  <metadata
     id="metadata9">
    <rdf:RDF>
      <cc:Work
         rdf:about="">
        <dc:format>image/svg+xml</dc:format>
        <dc:type
           rdf:resource="http://purl.org/dc/dcmitype/StillImage" />
        <dc:title></dc:title>
      </cc:Work>
    </rdf:RDF>
  </metadata>
  <defs
     id="defs7" />
  <sodipodi:namedview
     pagecolor="#ffffff"
     bordercolor="#666666"
     borderopacity="1"
     objecttolerance="10"
     gridtolerance="10"
     guidetolerance="10"
     inkscape:pageopacity="0"
     inkscape:pageshadow="2"
     inkscape:window-width="1218"
     inkscape:window-height="697"
     id="namedview5"
     showgrid="false"
     units="px"
     inkscape:zoom="1.5733302"
     inkscape:cx="75.000148"
     inkscape:cy="75.000148"
     inkscape:window-x="54"
     inkscape:window-y="-8"
     inkscape:window-maximized="1"
     inkscape:current-layer="svg2" />
  <path
     id="Affects other"
     d="m 140.70996,16.666917 c 0,0 94.09192,0 94.09192,0 23.93667,-0.08111 41.32745,17.309671 41.36801,41.246332 0,0 0,217.384801 0,217.384801 -0.0406,23.93667 -17.43134,41.32745 -41.36801,41.36801 0,0 -136.27107,0 -136.27107,0 -23.936662,-0.0406 -41.327446,-17.43134 -41.368003,-41.36801 0,0 0,-141.13789 0,-141.13789 0,0 0,-77.869186 0,-77.869186 0.251452,-20.967898 14.819479,-35.681928 34.878905,-39.624057 0,0 48.668248,0 48.668248,0 z M 73.385553,74.135995 c 0,0 0,184.939315 0,184.939315 0.04056,23.93666 17.431341,41.32744 41.368007,41.368 0,0 103.82558,0 103.82558,0 23.93666,-0.0406 41.32744,-17.43134 41.368,-41.368 0,0 0,-184.939315 0,-184.939315 -0.0406,-23.936662 -17.43134,-41.327444 -41.368,-41.286887 0,0 -71.38009,0 -71.38009,0 0,0 -38.12345,0 -38.12345,0 -21.657371,3.739343 -35.657601,19.110393 -35.690047,41.286887 z m 75.435777,18.510154 c -5.15072,1.760168 -10.60157,-2.514526 -9.96888,-7.965369 0.42179,-3.577115 3.52034,-6.489098 5.91319,-8.92251 0,0 13.78934,-13.789335 13.78934,-13.789335 1.69527,-1.695277 5.7104,-6.326871 8.11137,-6.326871 2.01973,0 4.32336,2.571306 5.67796,3.893459 0,0 11.35592,11.355923 11.35592,11.355923 3.62579,3.625784 11.42893,9.847207 10.78002,15.411609 -0.61647,5.223724 -6.01053,8.168153 -10.78002,6.018639 -3.0012,-1.354599 -6.54587,-5.264281 -8.92251,-7.640914 0,0 0,62.45758 0,62.45758 0,0 28.38981,-28.38981 28.38981,-28.38981 0,0 15.41161,-16.22275 15.41161,-16.22275 -3.7799,0 -10.48801,0.62458 -13.51355,-1.63038 -4.21791,-3.139106 -3.68256,-9.498422 0.58402,-12.369849 2.24685,-1.516826 4.67215,-1.395156 7.25157,-1.411379 0,0 33.25663,0 33.25663,0 0,0 0,32.445498 0,32.445498 -0.008,2.76598 0.21089,5.65362 -1.41138,8.0627 -2.87143,4.26658 -9.23074,4.80193 -12.36985,0.58402 -2.25496,-3.02554 -1.63038,-9.73365 -1.63038,-13.51355 -4.93983,3.53656 -12.41851,11.60738 -17.03389,16.22275 0,0 -28.3898,28.38981 -28.3898,28.38981 -3.95835,3.95835 -13.13232,14.88437 -18.65616,14.88437 -5.52385,0 -14.69781,-10.92602 -18.65616,-14.88437 0,0 -28.38981,-28.38981 -28.38981,-28.38981 -4.61537,-4.61537 -12.09406,-12.68619 -17.03388,-16.22275 0,3.7799 0.62457,10.48801 -1.63039,13.51355 -3.139101,4.21791 -9.498417,3.68256 -12.369843,-0.58402 -1.516827,-2.24685 -1.395157,-4.67215 -1.411379,-7.25157 0,0 0,-33.256628 0,-33.256628 0,0 32.445492,0 32.445492,0 2.76598,0.0081 5.65363,-0.210895 8.06271,1.411379 4.26658,2.871427 4.80193,9.230743 0.58402,12.369849 -3.02554,2.25496 -9.73365,1.63038 -13.51355,1.63038 0,0 15.41161,16.22275 15.41161,16.22275 0,0 28.38981,28.38981 28.38981,28.38981 0,0 0,-62.45758 0,-62.45758 -2.57131,2.571306 -6.31065,6.78922 -9.73365,7.965369 z"
     inkscape:connector-curvature="0"
     style="fill:#000000;fill-opacity:1;stroke:none;stroke-width:1" />
</svg>
