<?xml version="1.0" encoding="UTF-8" standalone="no"?>
<svg
   xmlns:dc="http://purl.org/dc/elements/1.1/"
   xmlns:cc="http://creativecommons.org/ns#"
   xmlns:rdf="http://www.w3.org/1999/02/22-rdf-syntax-ns#"
   xmlns:svg="http://www.w3.org/2000/svg"
   xmlns="http://www.w3.org/2000/svg"
   xmlns:sodipodi="http://sodipodi.sourceforge.net/DTD/sodipodi-0.dtd"
   xmlns:inkscape="http://www.inkscape.org/namespaces/inkscape"
   width="100"
   height="100"
   viewBox="0 0 333.33269 333.33269"
   id="svg2"
   version="1.1"
   inkscape:version="0.91 r13725"
   sodipodi:docname="Outside.2.svg">
  <metadata
     id="metadata9">
    <rdf:RDF>
      <cc:Work
         rdf:about="">
        <dc:format>image/svg+xml</dc:format>
        <dc:type
           rdf:resource="http://purl.org/dc/dcmitype/StillImage" />
        <dc:title></dc:title>
      </cc:Work>
    </rdf:RDF>
  </metadata>
  <defs
     id="defs7" />
  <sodipodi:namedview
     pagecolor="#ffffff"
     bordercolor="#666666"
     borderopacity="1"
     objecttolerance="10"
     gridtolerance="10"
     guidetolerance="10"
     inkscape:pageopacity="0"
     inkscape:pageshadow="2"
     inkscape:window-width="1218"
     inkscape:window-height="697"
     id="namedview5"
     showgrid="false"
     units="px"
     inkscape:zoom="1.5733302"
     inkscape:cx="75.000148"
     inkscape:cy="75.000148"
     inkscape:window-x="54"
     inkscape:window-y="-8"
     inkscape:window-maximized="1"
     inkscape:current-layer="svg2" />
  <path
     id="Selection #12"
     d="m 186.11768,18.938714 c 15.96506,2.887775 30.44882,9.433897 41.86526,21.239364 14.74561,15.246848 24.46379,41.640812 24.46379,62.842762 0,4.52618 -1.09975,11.94013 -1.99002,16.45883 -4.09226,20.79048 -13.27927,40.56351 -30.67326,53.50613 -12.49374,9.29923 -25.12214,13.27927 -40.39892,15.11218 0,0 -13.46631,0.92768 -13.46631,0.92768 0,0 -5.98502,-0.65087 -5.98502,-0.65087 -19.96007,-1.37655 -36.33659,-5.8728 -51.62085,-19.64584 -16.638375,-14.99249 -27.426385,-43.41388 -27.426385,-65.70811 0,-21.1421 9.76307,-47.640802 24.463795,-62.842762 9.48627,-9.807961 22.61592,-16.930145 35.88023,-20.027396 0,0 13.46631,-2.289272 13.46631,-2.289272 0,0 8.22941,-0.561096 8.22941,-0.561096 4.83291,-0.58354 18.12715,0.725684 23.19197,1.6384 z M 159.18507,192.79623 c 0,0 14.96256,0 14.96256,0 0,0 11.22193,-0.74813 11.22193,-0.74813 0,0 0,88.27913 0,88.27913 0,0 0.74812,10.4738 0.74812,10.4738 0.0449,8.90272 0.56858,14.70072 5.2369,22.44385 0,0 -11.97005,2.19949 -11.97005,2.19949 0,0 -7.48128,0 -7.48128,0 0,0 -5.2369,0.73317 -5.2369,0.73317 0,0 -5.2369,-0.73317 -5.2369,-0.73317 0,0 -7.48128,0 -7.48128,0 0,0 -11.97005,-2.19949 -11.97005,-2.19949 4.63839,-7.69076 5.22193,-13.58601 5.2369,-22.44385 0,0 0.74812,-11.22193 0.74812,-11.22193 0,0 0,-87.531 0,-87.531 0,0 11.22193,0.74813 11.22193,0.74813 z M 17.040695,208.50692 c 0.0224,-1.23441 0.015,-2.56608 0.44888,-3.74064 1.09975,-2.98503 6.48627,-8.73814 10.02492,-7.73564 1.39152,0.38902 2.70074,1.57855 3.74064,2.54363 1.48129,1.37656 3.33665,3.26932 4.03989,5.19201 0.79302,2.14713 0.44888,14.76805 0.44888,17.95508 0,0 18.7032,0 18.7032,0 0,0 0,-12.71818 0,-12.71818 0,-1.56359 -0.0898,-3.78553 0.44888,-5.2369 1.09975,-2.98503 6.48627,-8.73814 10.02492,-7.73564 2.13217,0.5985 5.85784,4.38403 7.03241,6.23938 2.06483,3.26933 1.197,15.09723 1.197,19.45134 0,0 18.70321,0 18.70321,0 0,-4.35411 -0.86783,-16.18201 1.197,-19.45134 1.57107,-2.48378 5.97755,-7.17454 9.276795,-6.23938 2.48379,0.69575 6.89774,5.32667 7.78054,7.73564 0.48628,1.32419 0.44139,3.08229 0.44887,4.48877 0,0 0,13.46631 0,13.46631 0,0 18.70321,0 18.70321,0 0,-4.35411 -0.86783,-16.18201 1.197,-19.45134 2.95511,-4.6758 10.2718,-10.36905 13.31669,-2.24438 0.53117,1.42144 0.44887,3.69575 0.44887,5.2369 0,0 0,23.19197 0,23.19197 0,0 -0.74813,12.71818 -0.74813,12.71818 0,0 0,39.6508 0,39.6508 0,0 -0.74812,15.71069 -0.74812,15.71069 0,0 -13.46631,0 -13.46631,0 0,0 0,-18.7032 0,-18.7032 0,0 -18.70321,0 -18.70321,0 0,0 0,18.7032 0,18.7032 0,0 -18.703205,0 -18.703205,0 0,0 0,-18.7032 0,-18.7032 0,0 -18.70321,0 -18.70321,0 0,0 0,18.7032 0,18.7032 0,0 -18.70321,0 -18.70321,0 0,0 0,-18.7032 0,-18.7032 0,0 -18.7032,0 -18.7032,0 0,0 0,18.7032 0,18.7032 0,0 -18.70321,0 -18.70321,0 0,0 0,-89.02726 0,-89.02726 z m 172.817635,73.31657 c 0,0 0,-38.90267 0,-38.90267 0,0 -0.74813,-12.71818 -0.74813,-12.71818 0,0 0,-23.9401 0,-23.9401 0.007,-3.79301 1.0773,-10.8329 6.73315,-9.2319 1.39152,0.38902 2.70074,1.57855 3.74064,2.54363 1.4813,1.37656 3.33665,3.26932 4.03989,5.19201 0.79302,2.14713 0.44888,14.76805 0.44888,17.95508 0,0 18.70321,0 18.70321,0 0,-4.35411 -0.86783,-16.18201 1.197,-19.45134 1.57107,-2.48378 5.97755,-7.17454 9.27679,-6.23938 2.48379,0.69575 6.89775,5.32667 7.78054,7.73564 0.48628,1.32419 0.44139,3.08229 0.44887,4.48877 0,0 0,13.46631 0,13.46631 0,0 18.70321,0 18.70321,0 0,-4.35411 -0.86783,-16.18201 1.197,-19.45134 1.57107,-2.48378 5.97755,-7.17454 9.27679,-6.23938 2.48379,0.69575 6.89775,5.32667 7.78054,7.73564 0.48628,1.32419 0.44139,3.08229 0.44888,4.48877 0,0 0,13.46631 0,13.46631 0,0 18.7032,0 18.7032,0 0,-4.35411 -0.86783,-16.18201 1.19701,-19.45134 1.57107,-2.48378 5.97754,-7.17454 9.27679,-6.23938 1.39151,0.38902 2.70074,1.57855 3.74064,2.54363 4.18952,3.89775 4.48129,4.97505 4.48877,10.42891 0,0 0,87.531 0,87.531 0,0 -18.70321,0 -18.70321,0 0,0 0,-18.7032 0,-18.7032 0,0 -18.7032,0 -18.7032,0 0,0 0,18.7032 0,18.7032 0,0 -18.70321,0 -18.70321,0 0,0 0,-18.7032 0,-18.7032 0,0 -18.70321,0 -18.70321,0 0,0 0,18.7032 0,18.7032 0,0 -18.7032,0 -18.7032,0 0,0 0,-18.7032 0,-18.7032 0,0 -18.70321,0 -18.70321,0 0,0 0,18.7032 0,18.7032 0,0 -13.46631,0 -13.46631,0 0,0 -0.74812,-15.71069 -0.74812,-15.71069 z M 35.743905,241.42456 c 0,0 0,18.70321 0,18.70321 0,0 18.7032,0 18.7032,0 0,0 0,-18.70321 0,-18.70321 0,0 -18.7032,0 -18.7032,0 z m 37.40641,0 c 0,0 0,18.70321 0,18.70321 0,0 18.70321,0 18.70321,0 0,0 0,-18.70321 0,-18.70321 0,0 -18.70321,0 -18.70321,0 z m 37.406415,0 c 0,0 0,18.70321 0,18.70321 0,0 18.70321,0 18.70321,0 0,0 0,-18.70321 0,-18.70321 0,0 -18.70321,0 -18.70321,0 z m 93.51603,0 c 0,0 0,18.70321 0,18.70321 0,0 18.70321,0 18.70321,0 0,0 0,-18.70321 0,-18.70321 0,0 -18.70321,0 -18.70321,0 z m 37.40641,0 c 0,0 0,18.70321 0,18.70321 0,0 18.70321,0 18.70321,0 0,0 0,-18.70321 0,-18.70321 0,0 -18.70321,0 -18.70321,0 z m 37.40642,0 c 0,0 0,18.70321 0,18.70321 0,0 18.7032,0 18.7032,0 0,0 0,-18.70321 0,-18.70321 0,0 -18.7032,0 -18.7032,0 z"
     inkscape:connector-curvature="0"
     style="fill:#000000;stroke:none;stroke-width:0.74812824;fill-opacity:1" />
</svg>
