<?xml version="1.0" encoding="UTF-8" standalone="no"?>
<svg
   xmlns:dc="http://purl.org/dc/elements/1.1/"
   xmlns:cc="http://creativecommons.org/ns#"
   xmlns:rdf="http://www.w3.org/1999/02/22-rdf-syntax-ns#"
   xmlns:svg="http://www.w3.org/2000/svg"
   xmlns="http://www.w3.org/2000/svg"
   xmlns:sodipodi="http://sodipodi.sourceforge.net/DTD/sodipodi-0.dtd"
   xmlns:inkscape="http://www.inkscape.org/namespaces/inkscape"
   width="100"
   height="100"
   viewBox="0 0 333.33269 333.33269"
   id="svg2"
   version="1.1"
   inkscape:version="0.91 r13725"
   sodipodi:docname="Outside.svg">
  <metadata
     id="metadata9">
    <rdf:RDF>
      <cc:Work
         rdf:about="">
        <dc:format>image/svg+xml</dc:format>
        <dc:type
           rdf:resource="http://purl.org/dc/dcmitype/StillImage" />
        <dc:title></dc:title>
      </cc:Work>
    </rdf:RDF>
  </metadata>
  <defs
     id="defs7" />
  <sodipodi:namedview
     pagecolor="#ffffff"
     bordercolor="#666666"
     borderopacity="1"
     objecttolerance="10"
     gridtolerance="10"
     guidetolerance="10"
     inkscape:pageopacity="0"
     inkscape:pageshadow="2"
     inkscape:window-width="1218"
     inkscape:window-height="697"
     id="namedview5"
     showgrid="false"
     units="px"
     inkscape:zoom="1.5733302"
     inkscape:cx="75.000148"
     inkscape:cy="75.000148"
     inkscape:window-x="54"
     inkscape:window-y="-8"
     inkscape:window-maximized="1"
     inkscape:current-layer="svg2" />
  <path
     id="Selection #11"
     d="m 198.16629,28.947821 c 8.96998,3.719993 16.46247,4.642491 25.49995,7.192486 4.45499,1.259997 9.15748,2.527495 12.60747,5.812489 6.25499,5.947488 5.24999,19.274962 6.35999,27.502446 0.675,5.00999 2.325,10.28998 4.13999,14.999971 1.4325,3.704993 3.285,7.169986 3.06,11.249978 -0.435,8.002489 -6.80999,13.574969 -9.41248,20.999959 -2.67,7.63499 -3.2925,11.48248 -3.255,19.49996 0,0 0.75,10.49998 0.75,10.49998 0.0525,4.73249 0.51,12.66748 -3.29249,16.11747 -2.3025,2.085 -5.12249,1.74 -7.95749,1.95 0,0 -14.24997,1.35749 -14.24997,1.35749 -6.44999,1.5675 -10.98748,5.79749 -16.49997,9.30749 -6.08249,3.86249 -12.29247,6.38998 -19.49996,7.03498 -7.39499,0.8775 -10.52248,1.245 -17.99996,0 0,0 -29.24995,-8.60998 -29.24995,-8.60998 -9.18748,-1.95 -13.78497,0.96 -18.15747,-4.69499 -8.30998,-10.74748 -6.11998,-28.63495 -11.849973,-42.71242 -5.60999,-13.75497 -14.542472,-16.28997 -15.49497,-30.749939 -0.3225,-4.89749 3.359993,-7.972484 5.624989,-11.999976 2.287495,-4.079993 3.067494,-8.114985 3.127494,-12.749976 0.0675,-6.194988 -0.554999,-12.667475 3.592493,-17.872465 4.882487,-6.127488 17.639967,-9.967481 24.907457,-13.604974 0,0 26.24995,-16.154967 26.24995,-16.154967 7.52998,-3.539993 10.23748,-3.479993 17.99996,-4.537491 12.26998,-0.982498 22.21496,5.684989 32.99994,10.162479 z m 14.95497,47.639907 c -1.6725,-2.759994 -11.83498,-4.094992 -14.95497,-4.132492 -6.04499,-0.0675 -9.82498,-0.329999 -14.99997,3.367494 -2.805,2.009996 -9.56998,8.819983 -11.99998,9.217482 -4.53749,0.742499 -8.00998,-6.749987 -14.99997,-6.292488 -4.04249,0.27 -9.58498,3.442493 -12.74248,5.887489 -8.36998,6.494987 -17.03996,20.624957 -18.00746,31.319937 0,0 3.74999,0.75 3.74999,0.75 2.3625,-10.36498 8.63249,-22.267456 17.24997,-28.679944 2.28749,-1.702497 6.88499,-4.709991 9.74998,-4.82999 5.61749,-0.2325 8.27248,8.002484 16.49997,6.209987 6.11249,-1.327497 8.96248,-8.542483 16.49997,-11.737477 8.67748,-3.674993 15.80997,0.809999 23.95495,2.287496 0.24,-1.169998 0.6375,-2.227496 0,-3.367494 z M 171.91634,190.95501 c 0,0 13.49997,-1.5 13.49997,-1.5 0,0 0,89.24983 0,89.24983 0,0 0.75,10.49998 0.75,10.49998 0.045,8.92498 0.57,14.73747 5.24999,22.49995 0,0 -11.99998,2.205 -11.99998,2.205 0,0 -7.49998,0 -7.49998,0 0,0 -5.24999,0.735 -5.24999,0.735 0,0 -5.24999,-0.735 -5.24999,-0.735 0,0 -7.49999,0 -7.49999,0 0,0 -11.99997,-2.205 -11.99997,-2.205 4.64999,-7.70998 5.23499,-13.61997 5.24999,-22.49995 0,0 0.75,-11.24998 0.75,-11.24998 0,0 0,-89.99983 0,-89.99983 11.11497,3.225 12.72747,3.0525 23.99995,3 z M 16.666637,206.70498 c 0.0225,-1.2375 0.015,-2.5725 0.449999,-3.75 1.102498,-2.99249 6.502487,-8.75998 10.04998,-7.75498 1.394998,0.39 2.707495,1.5825 3.749993,2.54999 1.484997,1.38 3.344994,3.2775 4.049992,5.20499 0.794999,2.1525 0.45,14.80497 0.45,17.99997 0,0 18.749963,0 18.749963,0 0,0 0,-12.74998 0,-12.74998 0,-1.56749 -0.09,-3.79499 0.449999,-5.24999 1.102498,-2.99249 6.502487,-8.75998 10.04998,-7.75498 2.137496,0.6 5.872489,4.39499 7.049987,6.25499 2.069996,3.27749 1.199997,15.13497 1.199997,19.49996 0,0 18.749964,0 18.749964,0 0,-4.36499 -0.869998,-16.22247 1.199998,-19.49996 1.574997,-2.49 5.992488,-7.19249 9.299981,-6.25499 2.49,0.6975 6.91499,5.33999 7.79999,7.75498 0.48749,1.3275 0.44249,3.09 0.44999,4.49999 0,0 0,13.49998 0,13.49998 0,0 18.74997,0 18.74997,0 0,-4.36499 -0.87,-16.22247 1.2,-19.49996 2.96249,-4.68749 10.29748,-10.39498 13.34997,-2.25 0.5325,1.425 0.45,3.70499 0.45,5.24999 0,0 0,23.24996 0,23.24996 0,0 -0.75,12.74997 -0.75,12.74997 0,0 0,39.74992 0,39.74992 0,0 -0.74999,15.74997 -0.74999,15.74997 0,0 -13.49998,0 -13.49998,0 0,0 0,-18.74996 0,-18.74996 0,0 -18.74997,0 -18.74997,0 0,0 0,18.74996 0,18.74996 0,0 -18.749959,0 -18.749959,0 0,0 0,-18.74996 0,-18.74996 0,0 -18.749964,0 -18.749964,0 0,0 0,18.74996 0,18.74996 0,0 -18.749963,0 -18.749963,0 0,0 0,-18.74996 0,-18.74996 0,0 -18.749963,0 -18.749963,0 0,0 0,18.74996 0,18.74996 0,0 -18.749964,0 -18.749964,0 0,0 0,-89.24982 0,-89.24982 z M 189.9163,280.20483 c 0,0 0,-38.99992 0,-38.99992 0,0 -0.74999,-12.74998 -0.74999,-12.74998 0,0 0,-23.99995 0,-23.99995 0.007,-3.80249 1.07999,-10.85998 6.74998,-9.25498 1.395,0.39 2.7075,1.5825 3.75,2.54999 1.48499,1.38 3.34499,3.2775 4.04999,5.20499 0.795,2.1525 0.45,14.80497 0.45,17.99997 0,0 18.74996,0 18.74996,0 0,-4.36499 -0.87,-16.22247 1.2,-19.49996 1.57499,-2.49 5.99249,-7.19249 9.29998,-6.25499 2.49,0.6975 6.91499,5.33999 7.79998,7.75498 0.4875,1.3275 0.4425,3.09 0.45,4.49999 0,0 0,13.49998 0,13.49998 0,0 18.74997,0 18.74997,0 0,-4.36499 -0.87,-16.22247 1.2,-19.49996 1.57499,-2.49 5.99248,-7.19249 9.29998,-6.25499 2.48999,0.6975 6.91498,5.33999 7.79998,7.75498 0.4875,1.3275 0.4425,3.09 0.45,4.49999 0,0 0,13.49998 0,13.49998 0,0 18.74996,0 18.74996,0 0,-4.36499 -0.86999,-16.22247 1.2,-19.49996 1.575,-2.49 5.99249,-7.19249 9.29998,-6.25499 1.395,0.39 2.7075,1.5825 3.75,2.54999 4.19999,3.9075 4.49249,4.98749 4.49999,10.45498 0,0 0,87.74983 0,87.74983 0,0 -18.74997,0 -18.74997,0 0,0 0,-18.74996 0,-18.74996 0,0 -18.74996,0 -18.74996,0 0,0 0,18.74996 0,18.74996 0,0 -18.74996,0 -18.74996,0 0,0 0,-18.74996 0,-18.74996 0,0 -18.74997,0 -18.74997,0 0,0 0,18.74996 0,18.74996 0,0 -18.74996,0 -18.74996,0 0,0 0,-18.74996 0,-18.74996 0,0 -18.74996,0 -18.74996,0 0,0 0,18.74996 0,18.74996 0,0 -13.49998,0 -13.49998,0 0,0 -0.75,-15.74997 -0.75,-15.74997 z M 35.416601,239.70491 c 0,0 0,18.74997 0,18.74997 0,0 18.749963,0 18.749963,0 0,0 0,-18.74997 0,-18.74997 0,0 -18.749963,0 -18.749963,0 z m 37.499926,0 c 0,0 0,18.74997 0,18.74997 0,0 18.749964,0 18.749964,0 0,0 0,-18.74997 0,-18.74997 0,0 -18.749964,0 -18.749964,0 z m 37.499923,0 c 0,0 0,18.74997 0,18.74997 0,0 18.74997,0 18.74997,0 0,0 0,-18.74997 0,-18.74997 0,0 -18.74997,0 -18.74997,0 z m 93.74983,0 c 0,0 0,18.74997 0,18.74997 0,0 18.74996,0 18.74996,0 0,0 0,-18.74997 0,-18.74997 0,0 -18.74996,0 -18.74996,0 z m 37.49992,0 c 0,0 0,18.74997 0,18.74997 0,0 18.74997,0 18.74997,0 0,0 0,-18.74997 0,-18.74997 0,0 -18.74997,0 -18.74997,0 z m 37.49993,0 c 0,0 0,18.74997 0,18.74997 0,0 18.74996,0 18.74996,0 0,0 0,-18.74997 0,-18.74997 0,0 -18.74996,0 -18.74996,0 z"
     inkscape:connector-curvature="0"
     style="fill:#000000;fill-opacity:1;stroke:none;stroke-width:1" />
</svg>
