<?xml version="1.0" encoding="UTF-8" standalone="no"?>
<svg
   xmlns:dc="http://purl.org/dc/elements/1.1/"
   xmlns:cc="http://creativecommons.org/ns#"
   xmlns:rdf="http://www.w3.org/1999/02/22-rdf-syntax-ns#"
   xmlns:svg="http://www.w3.org/2000/svg"
   xmlns="http://www.w3.org/2000/svg"
   xmlns:sodipodi="http://sodipodi.sourceforge.net/DTD/sodipodi-0.dtd"
   xmlns:inkscape="http://www.inkscape.org/namespaces/inkscape"
   width="100"
   height="100"
   viewBox="0 0 333.33269 333.33269"
   id="svg2"
   version="1.1"
   inkscape:version="0.91 r13725"
   sodipodi:docname="papillon.svg">
  <metadata
     id="metadata9">
    <rdf:RDF>
      <cc:Work
         rdf:about="">
        <dc:format>image/svg+xml</dc:format>
        <dc:type
           rdf:resource="http://purl.org/dc/dcmitype/StillImage" />
        <dc:title></dc:title>
      </cc:Work>
    </rdf:RDF>
  </metadata>
  <defs
     id="defs7" />
  <sodipodi:namedview
     pagecolor="#ffffff"
     bordercolor="#666666"
     borderopacity="1"
     objecttolerance="10"
     gridtolerance="10"
     guidetolerance="10"
     inkscape:pageopacity="0"
     inkscape:pageshadow="2"
     inkscape:window-width="1218"
     inkscape:window-height="697"
     id="namedview5"
     showgrid="false"
     units="px"
     inkscape:zoom="1.5733302"
     inkscape:cx="75.000148"
     inkscape:cy="75.000148"
     inkscape:window-x="54"
     inkscape:window-y="-8"
     inkscape:window-maximized="1"
     inkscape:current-layer="svg2" />
  <path
     id="Selection"
     d="m 63.580364,34.893226 c 18.057623,6.867585 32.738328,14.12618 46.914276,27.655177 0,0 11.43886,12.732757 11.43886,12.732757 1.21569,1.464516 4.40066,5.779861 5.75142,6.554775 2.38162,1.357876 9.87482,-1.699123 12.67589,-2.495364 10.83457,-3.078327 18.61925,-4.187378 29.85906,-4.059411 6.73251,0.0782 17.58841,2.580676 24.17162,4.47175 2.2181,0.639837 8.74444,3.056999 10.59997,2.388725 1.86974,-0.668274 6.05712,-6.462354 7.59273,-8.282335 4.97651,-5.89361 10.21606,-11.140274 15.93194,-16.301626 10.40091,-9.384274 26.6741,-17.225833 39.81208,-22.124141 6.34861,-2.367397 15.29211,-5.204008 22.03884,-5.58791 7.89843,-0.447886 8.68045,3.14942 8.52405,9.889037 0,0 -2.12568,21.327899 -2.12568,21.327899 -0.14219,12.249325 0.53319,22.984369 4.06652,34.835572 5.77275,19.372849 15.42718,37.615309 15.8253,58.296269 0.31281,15.89639 -7.28703,40.71496 -12.08581,56.16347 -2.27498,7.30125 -7.00977,20.49611 -7.0311,27.72627 0,0 0,7.1093 0,7.1093 0,0 1.84131,14.92953 1.84131,14.92953 -0.74648,9.74685 -5.55947,20.47479 -9.90326,29.14813 -1.95505,3.91723 -6.45524,13.69963 -11.19715,14.22571 -3.14942,0.34836 -5.21111,-2.67309 -6.66852,-4.98361 0,0 -10.96254,-19.19512 -10.96254,-19.19512 -9.05725,-15.12859 -17.04099,-28.38743 -32.13404,-38.39022 -4.79167,-3.17075 -14.10485,-7.62828 -19.90604,-7.72781 -3.00723,-0.0498 -9.48381,2.66599 -12.79674,3.66129 -7.84867,2.3674 -17.40357,4.76323 -25.59348,4.77745 -10.73505,0.0142 -16.44381,-0.24171 -27.01534,-3.14231 0,0 -18.48418,-5.29643 -18.48418,-5.29643 -5.80119,0.0995 -15.11438,4.55706 -19.90604,7.72781 -17.00545,11.26824 -26.76652,28.88509 -36.556027,46.21045 -2.43138,4.30113 -7.571405,16.69264 -13.20908,16.15233 -4.862761,-0.46921 -8.865297,-9.36294 -10.841683,-13.30861 -4.030973,-8.04061 -10.934104,-23.00569 -10.258721,-31.99185 0,0 1.905293,-15.64046 1.905293,-15.64046 0.135077,-11.81566 -3.639962,-20.89423 -7.095082,-31.99185 -4.898308,-15.76132 -12.09292,-39.1367 -12.09292,-55.45254 0,-20.80893 10.031223,-39.54193 15.832412,-59.007199 3.448011,-11.58105 4.201597,-22.842182 4.06652,-34.835572 0,0 -2.125681,-21.327899 -2.125681,-21.327899 -0.106639,-4.628155 -0.540307,-7.557186 4.27269,-9.54779 6.81071,-1.237019 18.377541,2.239429 24.868333,4.706356 z M 124.26535,192.58462 c 3.25606,-7.34391 12.98158,-11.68058 16.44381,-16.37983 2.46693,-3.34848 2.85083,-11.33933 3.14231,-15.61202 0.24172,-3.49067 -0.40523,-14.98641 -2.01904,-17.76615 -1.74178,-2.9859 -8.41741,-7.30836 -11.41754,-10.08098 -6.19931,-5.7301 -7.81312,-10.89856 -7.79179,-19.07426 0,0 0,-13.50767 0,-13.50767 0.0142,-3.824802 1.4503,-9.341619 0,-12.796739 C 121.42163,84.189114 113.43078,75.48022 110.80034,72.43744 98.330624,57.991341 81.282522,48.450662 63.580364,41.831904 56.634577,39.237009 48.259821,36.521256 40.830602,36.18001 c 0,0 2.132791,24.882549 2.132791,24.882549 0.01422,10.258721 -0.177733,19.756746 -2.431381,29.859062 -4.436204,19.834949 -15.14992,37.323829 -16.820605,58.296269 0,0 -0.526088,4.97651 -0.526088,4.97651 0,0 0.518979,4.97651 0.518979,4.97651 1.208581,17.28982 6.433916,34.03222 11.68058,50.47603 0,0 6.291731,22.03883 6.291731,22.03883 2.53802,12.73987 -0.981083,16.70686 -0.846007,28.4372 0.09242,7.77047 4.869871,18.62637 8.353428,25.59348 1.876856,3.75371 3.369809,7.14485 6.576103,9.95302 0,0 13.095332,-22.74976 13.095332,-22.74976 12.583461,-21.66914 28.572278,-41.34058 54.443025,-46.21045 0,-8.92928 -2.48826,-26.33285 0.96686,-34.12464 z m 142.641,-149.579682 c -17.01966,6.81071 -32.21935,15.398743 -44.37625,29.432502 -2.72997,3.142311 -10.52176,11.509957 -11.84409,14.929531 -1.36499,3.298715 -0.23461,7.272814 0,10.66395 0,0 0,15.640459 0,15.640459 0.0426,8.1757 -1.57116,13.34416 -7.77047,19.07426 -3.00012,2.77262 -9.67576,7.09508 -11.41754,10.08098 -1.61381,2.77974 -2.26075,14.27548 -2.01904,17.76615 0.29148,4.27269 0.67539,12.26354 3.14231,15.61202 3.46223,4.69925 13.18776,9.03592 16.44382,16.37983 3.45512,7.79179 0.96686,25.19536 0.96686,34.12464 25.87074,4.86987 41.85956,24.54131 54.44302,46.21045 0,0 13.09533,22.74976 13.09533,22.74976 3.30583,-2.88637 5.00495,-6.78938 6.93157,-10.66395 4.33668,-8.72311 8.11171,-17.887 7.99797,-27.72627 0,0 -1.9053,-17.77325 -1.9053,-17.77325 0.71804,-9.54779 4.41488,-20.68095 7.35102,-29.85906 0,0 9.76818,-35.5465 9.76818,-35.5465 0.88866,-4.40777 2.63755,-16.50069 2.33185,-20.61697 -2.12568,-28.42299 -12.86783,-40.94247 -17.54575,-63.983709 -2.14701,-10.607076 -2.14701,-17.823016 -2.13279,-28.437202 0,0 2.13279,-24.882549 2.13279,-24.882549 -8.51695,0.391011 -17.7306,3.682617 -25.59349,6.824928 z M 138.22802,86.670259 c -1.79155,0.561635 -6.78228,1.93373 -7.82734,3.327153 -0.80335,1.073504 -0.81046,4.400657 -1.00242,5.900719 0,0 -0.41233,17.773249 -0.41233,17.773249 0.007,3.29872 -0.007,6.17088 1.4574,9.24209 3.39825,7.15907 12.70432,10.82747 16.56467,16.3514 3.02856,4.32956 3.3627,15.24944 3.30583,20.61697 -0.0711,5.659 -1.03085,15.42007 -4.54285,19.90604 -3.92433,5.00495 -12.18534,9.30607 -14.83711,13.50767 -1.5285,2.42427 -1.9124,7.09508 -1.9124,9.95302 0,0 0,11.37488 0,11.37488 0,0 0.64695,5.68744 0.64695,5.68744 0.0782,1.72045 -0.27726,5.26799 0.73226,6.61165 1.08061,1.44319 6.6543,2.97169 8.53827,3.54043 6.8036,2.04748 17.15474,4.69214 24.17162,4.77745 12.49104,0.14219 17.89411,-0.93843 29.85906,-4.36511 2.09724,-0.60429 8.78709,-2.38872 9.96013,-3.95277 1.00952,-1.34366 0.65405,-4.8912 0.73226,-6.61165 0,0 0.65405,-5.68744 0.65405,-5.68744 0,0 0,-9.95302 0,-9.95302 0.0213,-3.27739 -0.1564,-8.57382 -1.91951,-11.37488 -2.80817,-4.45042 -11.50996,-8.73022 -15.3632,-14.2186 -3.71816,-5.29643 -4.08784,-17.00545 -4.01675,-23.46069 0.0569,-4.45753 0.7678,-12.72565 3.30582,-16.35139 3.86035,-5.52393 13.16643,-9.19233 16.56467,-16.3514 1.46452,-3.07121 1.4503,-5.94337 1.45741,-9.24209 0,0 -0.41234,-17.773249 -0.41234,-17.773249 -0.19195,-1.500062 -0.19906,-4.827215 -1.00241,-5.900719 -1.20147,-1.599593 -8.49561,-3.56176 -10.67106,-4.137613 -11.07629,-2.921922 -20.4108,-5.054712 -31.99185,-3.981208 -7.45055,1.094832 -14.83,2.566457 -22.03883,4.791668 z m -7.82023,62.995511 c 6.05001,1.97639 12.49104,10.04544 11.09761,16.61444 -1.03084,4.82721 -5.41728,8.43163 -9.67575,10.42934 -2.27498,1.07351 -4.57128,1.77022 -7.1093,1.51428 -7.77047,-0.77491 -16.9699,-11.06207 -13.78494,-19.05292 2.21811,-5.55237 8.31789,-8.41031 13.78494,-9.50514 2.18966,-0.39812 3.50488,-0.54741 5.68744,0 z m 92.58442,11.63793 c 1.32943,7.94109 -8.68757,17.69505 -16.51491,16.92013 -6.12111,-0.60429 -13.93423,-6.23485 -14.76602,-12.65455 -0.9171,-7.06665 5.65901,-13.984 11.9223,-15.9746 7.35102,-1.1446 18.01497,3.69684 19.35863,11.70902 z m -94.03472,6.07845 c 4.27269,-1.10194 4.08785,-6.569 2.34607,-8.61647 -1.4503,-1.71334 -3.1352,-1.60671 -5.13292,-1.40765 -6.36282,2.74419 -3.49777,11.65215 2.78685,10.02412 z m 78.2023,0 c 4.27269,-1.10194 4.08785,-6.569 2.34607,-8.61647 -1.4503,-1.71334 -3.1352,-1.60671 -5.13291,-1.40765 -6.36283,2.74419 -3.49778,11.65215 2.78684,10.02412 z m -26.42527,26.86604 c 1.91241,1.8342 2.5949,3.59731 3.09255,6.15666 0.0213,1.19436 0.28437,3.83902 0,4.97651 -0.62562,6.54056 -9.26342,10.35825 -15.02906,11.1616 -7.7918,1.08772 -19.99846,-4.17316 -19.42972,-13.29439 0.21328,-3.50489 0.54742,-6.43392 3.22762,-9.00038 3.43379,-3.2916 6.91735,-2.87926 11.22559,-3.49777 4.72768,-0.56164 13.35126,0.0853 16.91302,3.49777 z"
     inkscape:connector-curvature="0"
     style="fill:#000000;fill-opacity:1;stroke:none;stroke-width:1" />
</svg>
