<?xml version="1.0" encoding="UTF-8" standalone="no"?>
<svg
   xmlns:dc="http://purl.org/dc/elements/1.1/"
   xmlns:cc="http://creativecommons.org/ns#"
   xmlns:rdf="http://www.w3.org/1999/02/22-rdf-syntax-ns#"
   xmlns:svg="http://www.w3.org/2000/svg"
   xmlns="http://www.w3.org/2000/svg"
   xmlns:sodipodi="http://sodipodi.sourceforge.net/DTD/sodipodi-0.dtd"
   xmlns:inkscape="http://www.inkscape.org/namespaces/inkscape"
   width="100"
   height="100"
   viewBox="0 0 333.33269 333.33269"
   id="svg2"
   version="1.1"
   inkscape:version="0.91 r13725"
   sodipodi:docname="Pay.2.svg">
  <metadata
     id="metadata9">
    <rdf:RDF>
      <cc:Work
         rdf:about="">
        <dc:format>image/svg+xml</dc:format>
        <dc:type
           rdf:resource="http://purl.org/dc/dcmitype/StillImage" />
        <dc:title></dc:title>
      </cc:Work>
    </rdf:RDF>
  </metadata>
  <defs
     id="defs7" />
  <sodipodi:namedview
     pagecolor="#ffffff"
     bordercolor="#666666"
     borderopacity="1"
     objecttolerance="10"
     gridtolerance="10"
     guidetolerance="10"
     inkscape:pageopacity="0"
     inkscape:pageshadow="2"
     inkscape:window-width="1218"
     inkscape:window-height="697"
     id="namedview5"
     showgrid="false"
     units="px"
     inkscape:zoom="1"
     inkscape:cx="75.000148"
     inkscape:cy="75.000148"
     inkscape:window-x="54"
     inkscape:window-y="-8"
     inkscape:window-maximized="1"
     inkscape:current-layer="svg2" />
  <path
     id="Selection #15"
     d="m 224.24649,20.948112 c 36.2143,10.217811 62.88329,39.374367 70.14351,76.232248 0.79544,4.02783 2.31401,16.50903 2.1043,20.24761 -2.30678,40.69769 -22.30852,73.85316 -60.67774,90.28265 -10.77462,4.61356 -20.94182,6.6094 -32.5408,7.40484 -2.80574,0.18801 -4.12907,0.76652 -7.23129,0.59296 -23.57401,-1.33778 -45.54989,-8.27259 -63.63535,-24.00788 C 91.46556,156.08644 85.89747,92.86328 121.7719,51.623243 c 13.5442,-15.568965 31.109,-26.488215 51.13244,-31.477804 0,0 13.01632,-2.386326 13.01632,-2.386326 0,0 7.95442,-0.542346 7.95442,-0.542346 7.44823,-0.89668 22.94488,1.634271 30.37141,3.731345 z m -57.85031,8.315982 c -22.17113,7.629013 -42.50552,25.72893 -52.55701,46.945527 -17.71666,37.371299 -8.93064,80.628869 21.46247,108.519959 10.06595,9.23436 21.5637,16.01008 34.71019,19.77758 6.65278,1.90906 15.51111,3.94828 22.41699,4.03506 15.93776,0.18078 31.11624,-2.04646 45.55712,-9.26328 11.28805,-5.64041 20.45009,-13.2405 28.87454,-22.5544 6.86973,-7.60009 12.17749,-16.54519 15.95946,-26.03264 16.49457,-41.38467 1.35948,-88.134953 -36.15645,-112.301916 -8.9668,-5.777803 -17.20324,-8.995727 -27.4789,-11.620685 -9.37898,-2.400788 -20.72487,-3.319161 -30.37141,-2.422481 -8.22921,1.207625 -14.42642,2.169386 -22.417,4.917276 z m -5.78503,68.191055 c -8.81494,-1.316095 -11.36036,-14.18779 0,-17.181544 14.07932,-0.513421 11.5556,18.909822 0,17.181544 z m 72.31289,0 c -8.81494,-1.316095 -11.36035,-14.18779 0,-17.181544 14.07932,-0.513421 11.5556,18.909822 0,17.181544 z M 184.4744,141.19722 c 3.45656,1.80782 9.11143,3.20346 13.01632,2.86359 4.33878,-0.38326 8.63416,-1.78613 12.2932,-4.14353 1.91629,-1.23655 4.63525,-3.93382 7.06497,-2.76235 3.72411,1.80059 0.67974,5.62594 -1.30887,7.26021 -4.20138,3.44932 -10.49983,5.61871 -15.87991,6.15383 -6.94927,0.6942 -15.06277,-0.78821 -20.97074,-4.61357 -3.21069,-2.07538 -8.19305,-6.13936 -2.81297,-9.03188 3.6518,0.13017 5.40901,2.60327 8.598,4.2737 z m -69.12389,112.90212 c 0.31818,8.41722 -3.91213,15.10616 -3.57226,19.52448 0,0 2.82744,28.92516 2.82744,28.92516 0.094,2.54541 1.24378,9.28497 0,11.40374 -1.22209,2.71173 -4.9462,2.32847 -7.50608,2.33571 0,0 -40.49522,0 -40.49522,0 -1.59811,0 -4.25923,0.10123 -5.69102,-0.53512 -2.97206,-1.30886 -2.43695,-4.04952 -2.31402,-6.69617 0,0 0.97623,-11.57007 0.97623,-11.57007 0.29648,-2.4731 1.02684,-4.79434 -0.63636,-6.99988 0,0 -8.93787,-7.05774 -8.93787,-7.05774 -3.92659,-3.45656 -8.56185,-10.00088 -10.55045,-14.86753 -8.09904,-19.89328 3.33362,-42.35366 22.81472,-50.29362 4.87389,-1.98137 7.88933,-2.3574 13.01632,-2.79128 20.89842,0.17355 39.2659,17.63712 40.06857,38.62232 z M 58.81629,239.6223 c 0.17355,-4.15799 4.90282,-6.28399 8.51123,-5.66933 1.95245,0.3254 3.51441,1.14254 5.0619,2.35017 4.96067,3.8832 6.58771,8.80047 6.61663,14.90368 0.0217,4.60633 -0.73036,11.10003 1.95245,15.14232 2.64665,3.98444 9.14035,3.98444 11.787,0 1.8729,-2.81297 2.11154,-7.50608 2.05369,-10.80354 -0.10124,-5.58979 -0.29649,-11.08557 0.67251,-16.63197 0.41218,-2.32847 1.95245,-6.31291 0.77374,-8.34491 -0.99068,-1.71381 -4.72203,-3.94105 -6.50092,-4.91004 -9.19097,-5.02575 -20.01621,-4.53402 -28.92516,0.83883 -18.3964,11.08556 -23.21967,31.51396 -9.63931,48.57257 2.75512,3.46378 5.83565,5.76333 9.63931,7.95442 0,0 2.95037,-28.92516 2.95037,-28.92516 0,0 0.66527,-13.01632 0.66527,-13.01632 -3.283,3.34808 -5.73441,1.35948 -5.61871,-1.46072 z m 196.52475,-0.55681 c 6.60216,-0.15186 16.14747,-0.52789 22.41699,0.95453 6.00197,1.4101 10.59384,6.22614 10.04426,12.63306 -0.78821,9.1982 -11.01325,10.39136 -12.74153,11.5556 -2.31401,1.56919 -2.29955,4.4834 -6.73233,8.56185 -5.56086,5.11975 -14.29626,7.64347 -21.66494,8.73539 0,0 -6.50816,0 -6.50816,0 0,0 -5.0619,0.66528 -5.0619,0.66528 0,0 -5.0619,-0.52788 -5.0619,-0.52788 -9.37899,-0.64359 -17.13093,-1.19316 -25.30952,-6.64556 -2.1043,-1.40287 -3.85427,-2.98652 -5.40177,-4.98959 -9.24882,-11.9967 1.07746,-23.06058 12.63306,-27.43551 8.72094,-3.29746 12.97294,-2.22 20.97074,-3.50717 0,0 22.417,0 22.417,0 z M 99.48506,267.11566 c -3.79642,8.53292 -13.95639,12.32935 -21.24553,5.63317 -1.67042,-1.54026 -3.10222,-3.55779 -4.02059,-5.63317 -3.32639,-7.46269 -0.20248,-16.94291 -3.27578,-21.69387 0,0 -1.32332,15.90884 -1.32332,15.90884 0,0 -3.13838,34.71019 -3.13838,34.71019 0,0 -1.32333,13.01632 -1.32333,13.01632 0,0 43.38774,0 43.38774,0 0,0 -2.76959,-28.20203 -2.76959,-28.20203 0,0 -3.73857,-39.04896 -3.73857,-39.04896 -2.19831,5.5464 1.1787,16.92844 -2.55265,25.30951 z m 103.24835,-7.23129 c -0.3688,3.70242 2.16215,6.85526 4.89558,9.01742 5.12699,4.06398 14.48427,6.08874 20.95628,6.16829 10.55768,0.12293 24.2899,0.84606 33.26393,-5.63318 6.29122,-4.54848 4.91727,-8.1135 7.54223,-10.68784 2.80574,-2.76236 6.39969,-0.82437 9.70439,-3.57226 3.94829,-3.27577 1.40287,-7.41207 -2.78404,-8.8294 -1.64151,-0.26033 -4.04953,-0.20248 -5.78504,0 0,0 -45.55712,0 -45.55712,0 -7.49161,1.14977 -21.29614,4.15076 -22.23621,13.53697 z M 76.7282,290.99338 c 1.61257,-3.72412 4.49063,-3.92659 5.09805,-1.96691 0.54958,1.74997 -1.22931,4.20861 -1.22208,6.27675 0,0.88945 0.28202,2.2417 1.33778,2.45864 1.74998,0.35434 2.90698,-2.71896 3.47826,-3.89043 1.49687,-3.05884 2.7045,-5.0836 6.49369,-4.98959 3.82535,0.094 4.52679,2.45141 6.21168,3.83981 1.5475,1.27994 3.11669,1.19317 3.85428,2.29232 1.91629,2.8419 -2.76236,3.14561 -4.28093,3.19623 -0.39772,1.83675 -2.90697,6.99266 -4.62079,3.29024 -1.38841,-2.99375 2.4731,-5.48132 -2.6105,-8.35214 -1.25101,4.64249 -3.38424,10.86863 -9.40067,9.95025 -3.21069,-0.49172 -3.94828,-2.50202 -5.48855,-3.7458 -1.72105,-1.39564 -3.60118,-1.20763 -4.10014,-2.77682 -0.8316,-2.63942 2.99375,-2.65388 4.52679,-2.7045 0.19524,-1.03408 0.29648,-1.88737 0.72313,-2.87805 z"
     inkscape:connector-curvature="0"
     style="fill:#000000;stroke:none;stroke-width:0.72312891;fill-opacity:1" />
</svg>
