<?xml version="1.0" encoding="UTF-8" standalone="no"?>
<svg
   xmlns:dc="http://purl.org/dc/elements/1.1/"
   xmlns:cc="http://creativecommons.org/ns#"
   xmlns:rdf="http://www.w3.org/1999/02/22-rdf-syntax-ns#"
   xmlns:svg="http://www.w3.org/2000/svg"
   xmlns="http://www.w3.org/2000/svg"
   xmlns:sodipodi="http://sodipodi.sourceforge.net/DTD/sodipodi-0.dtd"
   xmlns:inkscape="http://www.inkscape.org/namespaces/inkscape"
   width="100"
   height="100"
   viewBox="0 0 333.33269 333.33269"
   id="svg2"
   version="1.1"
   inkscape:version="0.91 r13725"
   sodipodi:docname="pay.1.svg">
  <metadata
     id="metadata9">
    <rdf:RDF>
      <cc:Work
         rdf:about="">
        <dc:format>image/svg+xml</dc:format>
        <dc:type
           rdf:resource="http://purl.org/dc/dcmitype/StillImage" />
        <dc:title></dc:title>
      </cc:Work>
    </rdf:RDF>
  </metadata>
  <defs
     id="defs7" />
  <sodipodi:namedview
     pagecolor="#ffffff"
     bordercolor="#666666"
     borderopacity="1"
     objecttolerance="10"
     gridtolerance="10"
     guidetolerance="10"
     inkscape:pageopacity="0"
     inkscape:pageshadow="2"
     inkscape:window-width="1218"
     inkscape:window-height="697"
     id="namedview5"
     showgrid="false"
     units="px"
     inkscape:zoom="1.5733302"
     inkscape:cx="75.000148"
     inkscape:cy="75.000148"
     inkscape:window-x="54"
     inkscape:window-y="-8"
     inkscape:window-maximized="1"
     inkscape:current-layer="svg2" />
  <path
     id="Selection #14"
     d="m 249.75556,20.62771 c 33.36266,9.413227 57.93165,36.2739 64.62017,70.229461 0.7328,3.710664 2.13179,15.209059 1.9386,18.653239 -2.12514,37.49302 -20.55188,68.03771 -55.89977,83.17349 -9.92619,4.25027 -19.29279,6.08895 -29.97843,6.82176 -2.58481,0.17321 -3.80393,0.70616 -6.66187,0.54627 -21.71771,-1.23245 -41.96314,-7.62118 -58.62449,-22.11742 -37.71952,-32.80972 -42.84916,-91.054477 -9.79961,-129.047133 12.47769,-14.343014 28.65938,-24.402442 47.1061,-28.999134 0,0 11.99137,-2.198419 11.99137,-2.198419 0,0 7.32806,-0.49964 7.32806,-0.49964 6.86173,-0.826072 21.13813,1.505583 27.97987,3.437526 z m -53.29498,7.661154 c -20.4253,7.028276 -39.15849,23.702946 -48.41849,43.248876 -16.32159,34.42856 -8.22742,74.27988 19.77243,99.97472 9.27333,8.50722 19.86571,14.74939 31.97699,18.22023 6.12893,1.75873 14.28972,3.63738 20.65181,3.71733 14.68277,0.16654 28.66604,-1.88531 41.9698,-8.53386 10.39918,-5.19627 18.83977,-12.1979 26.60086,-20.77839 6.32877,-7.00163 11.21859,-15.24236 14.70275,-23.98274 15.19573,-38.1259 1.25243,-81.194901 -33.30936,-103.458882 -8.26073,-5.322837 -15.8486,-8.28737 -25.31512,-10.70563 -8.64045,-2.211742 -19.09293,-3.0578 -27.97987,-2.231727 -7.58121,1.112532 -13.29043,1.998561 -20.6518,4.530073 z m -5.3295,62.821458 c -8.12082,-1.212461 -10.4658,-13.070594 0,-15.828609 12.97067,-0.472993 10.64567,17.420797 0,15.828609 z m 66.61873,0 c -8.12083,-1.212461 -10.46581,-13.070594 0,-15.828609 12.97066,-0.472993 10.64567,17.420797 0,15.828609 z M 70.897595,121.77492 c -1.45895,-1.22578 -7.30808,-11.3052 -8.59382,-13.59688 -0.96597,-1.71876 -2.38495,-4.41016 -1.05923,-6.32212 1.33237,-1.918616 5.2229,-1.67213 7.30807,-1.67213 0,0 35.974115,0 35.974115,0 2.08517,0 5.9757,-0.246486 7.30808,1.67213 1.45895,2.09849 -0.37307,5.14963 -1.44563,6.98831 -2.79132,4.78322 -5.98902,12.43771 -11.191955,14.65612 13.137225,7.9143 22.983475,20.11885 23.589705,35.97411 0.79942,21.08483 -20.48526,39.18514 -40.910565,36.53371 -8.98021,-1.16582 -14.19646,-4.84318 -21.318,-9.88621 -0.43968,5.44941 -3.31095,5.6959 -7.32806,8.50721 -2.94455,2.06518 -8.78035,6.87505 -11.13865,9.4865 -9.98615,11.0787 -18.81313,25.22852 -18.83978,40.63077 0,0 0,5.32949 0,5.32949 0.0866,7.46796 2.84462,14.73607 6.16224,21.318 3.5641,7.09489 8.25406,13.63685 13.88334,19.25947 9.39324,9.39324 26.29441,19.2195 39.91128,19.37939 0,0 5.3295,0 5.3295,0 8.77368,-0.0133 15.595445,-2.62478 23.316555,-6.49533 19.12624,-9.58643 37.93937,-32.53658 37.97268,-54.7939 0,0 0,-3.99712 0,-3.99712 -0.0267,-18.20024 -12.41773,-35.92082 -25.98131,-47.0195 0,0 -10.80555,-7.86767 -10.80555,-7.86767 -1.45895,-2.05852 -0.30645,-6.48867 5.47606,-3.51747 7.29475,3.74397 16.40153,12.12461 21.57114,18.4334 7.7411,9.43321 13.55025,21.19808 15.44222,33.30936 5.556,35.50779 -26.20781,73.22065 -60.996115,77.75072 -19.09959,2.48488 -38.63886,-4.84318 -52.62879,-17.85382 -7.64783,-7.11488 -13.73012,-14.54287 -18.40676,-23.92278 -11.631626,-23.31656 -7.06158,-48.63168 8.95356,-68.61729 4.59003,-5.72921 11.34517,-12.09796 17.44745,-16.20834 3.0578,-2.05852 5.51603,-4.14368 9.32662,-3.77728 -4.13703,-5.78917 -6.32212,-6.36209 -9.78629,-13.98994 -6.47534,-14.26307 0.6462,-28.89254 11.23191,-38.91866 0,0 12.54431,-9.71301 12.54431,-9.71301 -1.03259,-0.33309 -1.39899,-0.29312 -2.31833,-1.05924 z m -1.67879,-14.92925 c 2.11847,6.69518 6.46868,8.57383 6.66187,15.98849 10.49911,-3.49748 11.84481,-2.31167 21.98418,0 -1.40566,-6.45535 3.830585,-9.14009 5.995695,-15.98849 0,0 -34.641745,0 -34.641745,0 z m -15.76199,49.96404 c -0.3331,2.03853 -0.30645,6.01567 0,7.99425 2.89125,12.99731 18.55997,25.15523 31.75048,25.31512 5.71589,0.0666 8.79367,-0.21984 13.98993,-2.99118 11.105355,-5.92241 17.467435,-15.762 17.320875,-28.31963 -0.15322,-13.14387 -11.93141,-28.20637 -24.648935,-31.62391 -2.778,-0.55959 -6.46867,-0.43968 -9.32662,0 -12.83743,2.2717 -27.77335,16.32825 -29.08573,29.62535 z M 213.11526,131.40799 c 3.18437,1.66547 8.39396,2.95121 11.99137,2.6381 3.99712,-0.35308 7.95428,-1.64548 11.32518,-3.81725 1.7654,-1.13918 4.27026,-3.62406 6.50865,-2.54484 3.43087,1.65881 0.62622,5.18294 -1.2058,6.68852 -3.87054,3.17772 -9.67303,5.17628 -14.62947,5.66926 -6.40206,0.63954 -13.87668,-0.72615 -19.31943,-4.25028 -2.95787,-1.91195 -7.5479,-5.65593 -2.59147,-8.32068 3.36425,0.11992 4.98308,2.39828 7.92097,3.93717 z M 89.870605,208.77232 c 0,2.25838 -0.5063,8.0209 1.0659,9.5931 1.54556,1.55222 13.770095,1.94527 13.623535,7.08823 -0.0266,0.98596 -0.95931,2.99785 -1.36568,3.97048 -7.594545,-2.73803 -13.536935,-6.40872 -21.984185,-3.49082 -5.31618,1.83867 -9.04683,6.92834 -5.04304,12.12461 5.06302,6.5686 19.46599,6.66187 26.294415,12.90404 5.61596,5.13631 5.75586,14.86264 0.59291,20.36535 -3.357595,3.57076 -8.400625,5.28953 -13.183855,5.39612 0,0 0,11.99137 0,11.99137 0,0 -5.3295,0 -5.3295,0 0,0 0,-11.99137 0,-11.99137 -5.62928,-0.0533 -10.51909,-1.42565 -15.3223,-4.41016 -1.57221,-0.97264 -3.69068,-2.2717 -4.00379,-4.2636 -0.21984,-1.35236 0.81275,-3.3909 1.33904,-4.64999 0,0 6.66187,4.07707 6.66187,4.07707 6.35543,3.62405 16.14172,5.66925 22.62372,1.27241 2.11848,-1.4323 3.54412,-3.44418 3.87055,-6.01567 0.559605,-4.36352 -2.27836,-7.408 -5.84246,-9.39324 -7.19483,-3.99046 -17.46743,-4.14368 -23.17,-10.61902 -4.33021,-4.92313 -4.0704,-13.81007 0.65953,-18.40676 3.55078,-3.45751 8.37397,-4.77656 13.18384,-4.88315 0,0 0,-10.659 0,-10.659 0,0 5.3295,0 5.3295,0 z m 188.531005,12.79746 c 6.08229,-0.1399 14.87596,-0.48632 20.65181,0.87937 5.52935,1.29906 9.75964,5.73587 9.25334,11.63829 -0.72614,8.4739 -10.14603,9.57311 -11.73822,10.64567 -2.1318,1.44563 -2.11848,4.13036 -6.2022,7.88766 -5.12298,4.71661 -13.17053,7.0416 -19.95897,8.04754 0,0 -5.99569,0 -5.99569,0 0,0 -4.66331,0.61289 -4.66331,0.61289 0,0 -4.66331,-0.48631 -4.66331,-0.48631 -8.64045,-0.59291 -15.78198,-1.09921 -23.31656,-6.12226 -1.9386,-1.29241 -3.55078,-2.75136 -4.97642,-4.5967 -8.52053,-11.05204 0.99262,-21.24471 11.6383,-25.27514 8.03421,-3.03782 11.9514,-2.0452 19.31943,-3.23101 0,0 20.6518,0 20.6518,0 z m -48.46512,19.17953 c -0.33976,3.41088 1.9919,6.31546 4.51009,8.30736 4.72326,3.74397 13.34373,5.60929 19.3061,5.68258 9.72634,0.11325 22.37723,0.77943 30.64462,-5.1896 5.79583,-4.19032 4.53007,-7.47463 6.94833,-9.84625 2.58481,-2.54484 5.89576,-0.75946 8.94023,-3.29097 3.63739,-3.01783 1.29241,-6.82842 -2.56482,-8.13414 -1.51224,-0.23983 -3.73065,-0.18654 -5.32949,0 0,0 -41.9698,0 -41.9698,0 -6.9017,1.05923 -19.61922,3.82391 -20.48526,12.47102 z"
     inkscape:connector-curvature="0"
     style="fill:#000000;stroke:none;stroke-width:0.66618729;fill-opacity:1" />
</svg>
