<?xml version="1.0" encoding="UTF-8" standalone="no"?>
<svg
   xmlns:dc="http://purl.org/dc/elements/1.1/"
   xmlns:cc="http://creativecommons.org/ns#"
   xmlns:rdf="http://www.w3.org/1999/02/22-rdf-syntax-ns#"
   xmlns:svg="http://www.w3.org/2000/svg"
   xmlns="http://www.w3.org/2000/svg"
   xmlns:sodipodi="http://sodipodi.sourceforge.net/DTD/sodipodi-0.dtd"
   xmlns:inkscape="http://www.inkscape.org/namespaces/inkscape"
   width="100"
   height="100"
   viewBox="0 0 333.33269 333.33269"
   id="svg2"
   version="1.1"
   inkscape:version="0.91 r13725"
   sodipodi:docname="pen.svg">
  <metadata
     id="metadata9">
    <rdf:RDF>
      <cc:Work
         rdf:about="">
        <dc:format>image/svg+xml</dc:format>
        <dc:type
           rdf:resource="http://purl.org/dc/dcmitype/StillImage" />
        <dc:title></dc:title>
      </cc:Work>
    </rdf:RDF>
  </metadata>
  <defs
     id="defs7" />
  <sodipodi:namedview
     pagecolor="#ffffff"
     bordercolor="#666666"
     borderopacity="1"
     objecttolerance="10"
     gridtolerance="10"
     guidetolerance="10"
     inkscape:pageopacity="0"
     inkscape:pageshadow="2"
     inkscape:window-width="1218"
     inkscape:window-height="697"
     id="namedview5"
     showgrid="false"
     units="px"
     inkscape:zoom="3.1466604"
     inkscape:cx="75.937765"
     inkscape:cy="53.691293"
     inkscape:window-x="54"
     inkscape:window-y="-8"
     inkscape:window-maximized="1"
     inkscape:current-layer="svg2" />
  <path
     id="Selection #71"
     d="m 298.16007,17.124204 c 7.64305,1.33514 15.63787,9.15407 17.75649,16.52529 0.69555,2.42243 0.79949,7.06742 0.55165,9.59378 -0.36776,3.73358 -2.20657,6.34789 -3.91746,9.59379 0,0 -15.98964,-15.19016 -15.98964,-15.19016 0,0 -15.98964,-16.78912 -15.98964,-16.78912 6.45182,-3.40579 10.04949,-5.06072 17.5886,-3.73358 z m -3.99741,22.92115 c 0,0 15.19016,15.98963 15.19016,15.98963 0,0 -134.31295,134.312956 -134.31295,134.312956 0,0 -43.17201,43.17202 -43.17201,43.17202 0,0 -23.98446,23.18497 -23.98446,23.18497 0,0 -31.17979,-31.97927 -31.17979,-31.97927 0,0 200.66994,-200.669946 200.66994,-200.669946 0,0 16.78911,15.98964 16.78911,15.98964 z M 90.2948,243.91322 c 0,0 14.39067,15.19015 14.39067,15.19015 0,0 -12.79171,6.59573 -12.79171,6.59573 -1.62294,0.80748 -4.621,2.49438 -6.39585,2.43842 -3.09399,-0.10393 -7.42719,-5.26859 -9.59378,-7.43518 -2.33449,-2.33449 -9.94556,-9.20204 -10.54517,-11.99223 -0.43971,-2.03068 1.06331,-4.61301 1.95074,-6.39585 0,0 6.99546,-13.5912 6.99546,-13.5912 0,0 15.98964,15.19016 15.98964,15.19016 z M 54.31812,253.507 c 2.03068,-0.67956 5.10869,-2.01469 7.19534,-1.31914 2.51836,0.83945 9.7057,8.6264 11.99222,10.91292 2.13462,2.13462 7.45917,6.73164 7.90688,9.59378 0.26383,1.71889 -1.19123,5.43648 -1.77485,7.19534 0,0 -4.53306,14.39067 -4.53306,14.39067 -7.65904,0.16789 -14.56656,2.95009 -21.58601,5.75627 0,0 -35.177202,16.62922 -35.177202,16.62922 2.846155,-3.97342 23.025072,-24.32823 27.182382,-27.86993 2.53436,-2.15061 12.86366,-5.04473 8.49849,-9.4099 -4.36517,-4.36517 -7.25929,5.96413 -9.4099,8.49849 -3.5417,4.1573 -23.896511,24.33623 -27.869936,27.18238 0,0 16.629226,-35.1772 16.629226,-35.1772 2.80618,-7.01945 5.58837,-13.92697 5.75626,-21.58601 0,0 15.19016,-4.79689 15.19016,-4.79689 z"
     style="fill:#000000;fill-opacity:1;stroke:none;stroke-width:1"
     inkscape:connector-curvature="0" />
</svg>
