<?xml version="1.0" encoding="UTF-8" standalone="no"?>
<svg
   xmlns:dc="http://purl.org/dc/elements/1.1/"
   xmlns:cc="http://creativecommons.org/ns#"
   xmlns:rdf="http://www.w3.org/1999/02/22-rdf-syntax-ns#"
   xmlns:svg="http://www.w3.org/2000/svg"
   xmlns="http://www.w3.org/2000/svg"
   xmlns:sodipodi="http://sodipodi.sourceforge.net/DTD/sodipodi-0.dtd"
   xmlns:inkscape="http://www.inkscape.org/namespaces/inkscape"
   width="100"
   height="100"
   viewBox="0 0 333.33269 333.33269"
   id="svg2"
   version="1.1"
   inkscape:version="0.91 r13725"
   sodipodi:docname="PlaceATile.svg">
  <metadata
     id="metadata9">
    <rdf:RDF>
      <cc:Work
         rdf:about="">
        <dc:format>image/svg+xml</dc:format>
        <dc:type
           rdf:resource="http://purl.org/dc/dcmitype/StillImage" />
        <dc:title></dc:title>
      </cc:Work>
    </rdf:RDF>
  </metadata>
  <defs
     id="defs7" />
  <sodipodi:namedview
     pagecolor="#ffffff"
     bordercolor="#666666"
     borderopacity="1"
     objecttolerance="10"
     gridtolerance="10"
     guidetolerance="10"
     inkscape:pageopacity="0"
     inkscape:pageshadow="2"
     inkscape:window-width="1218"
     inkscape:window-height="697"
     id="namedview5"
     showgrid="false"
     units="px"
     inkscape:zoom="1.5733302"
     inkscape:cx="75.000148"
     inkscape:cy="75.000148"
     inkscape:window-x="54"
     inkscape:window-y="-8"
     inkscape:window-maximized="1"
     inkscape:current-layer="svg2" />
  <path
     id="Selection #2"
     d="m 214.56902,17.19427 c 0,0 48.99782,0 48.99782,0 6.60374,0.01463 5.66766,-0.01463 11.49621,10.238352 0,0 15.86945,27.789812 15.86945,27.789812 0,0 12.12513,21.208012 12.12513,21.208012 1.43337,2.486457 4.43174,6.618363 3.80282,9.507041 0,0 -9.65331,17.551463 -9.65331,17.551463 0,0 -20.05254,35.10292 -20.05254,35.10292 -1.52844,2.66197 -6.46479,12.43228 -8.74648,13.47806 -1.14084,0.51923 -3.54686,0.41684 -4.84128,0.41684 0,0 -65.81797,0 -65.81797,0 -6.51598,-0.0146 -5.61647,0.0658 -11.07936,-9.50704 0,0 -12.11782,-21.20801 -12.11782,-21.20801 0,0 -14.20937,-24.86457 -14.20937,-24.86457 -1.29442,-2.267064 -5.72616,-9.55092 -5.94556,-11.700974 -0.21208,-2.062296 1.22129,-4.124593 2.19394,-5.850487 0,0 6.67686,-11.700973 6.67686,-11.700973 0,0 18.81663,-32.908985 18.81663,-32.908985 2.35482,-4.102654 7.33505,-13.924159 10.26029,-16.827463 3.43716,-1.396804 17.60997,-0.723998 22.22454,-0.723998 z m -27.26327,21.939326 c 0,0 -17.96831,31.446364 -17.96831,31.446364 -1.80633,3.159262 -7.97128,12.095881 -7.21072,15.357527 0.34371,1.455308 4.49756,8.439327 5.52871,10.238352 0,0 12.11782,21.208011 12.11782,21.208011 0,0 10.86728,19.01408 10.86728,19.01408 1.06771,1.87216 3.70043,7.01327 5.302,8.05174 1.38949,0.89951 3.83207,0.72399 5.46289,0.72399 0,0 58.50487,0 58.50487,0 7.05715,-0.0146 5.84317,-0.24133 12.43228,-11.70097 0,0 19.6357,-34.371608 19.6357,-34.371608 1.80634,-3.159263 7.97129,-12.095881 7.21072,-15.357528 0,0 -8.0371,-14.626216 -8.0371,-14.626216 0,0 -18.38516,-32.177674 -18.38516,-32.177674 -1.47724,-2.581528 -5.61646,-10.969664 -7.9786,-12.015438 -1.17009,-0.519231 -3.56148,-0.416847 -4.87784,-0.416847 0,0 -41.68472,0 -41.68472,0 0,0 -21.69799,0.416847 -21.69799,0.416847 -3.36403,2.318255 -7.04984,10.391928 -9.22183,14.20937 z m -80.97073,47.330435 c 3.70774,-2.596154 8.9293,-5.455579 13.16359,-7.064463 6.26733,-2.37676 13.10509,-3.159263 19.74539,-3.700433 0,0 0,18.282771 0,18.282771 -19.07258,0.05851 -36.47047,15.598864 -36.56554,35.102924 0,0 0,19.74539 0,19.74539 0,0 8.77573,0 8.77573,0 -3.83207,5.35319 -12.929574,14.4507 -18.282774,18.28277 0,0 -17.55146,-18.28277 -17.55146,-18.28277 0,0 8.77573,0 8.77573,0 0,-24.23564 -0.37297,-46.74539 21.939334,-62.366189 z m 90.68254,88.693379 c 0,0 47.5352,0 47.5352,0 8.41008,0.0146 8.84155,3.3494 13.95341,9.50704 0,0 14.2825,17.55146 14.2825,17.55146 0,0 11.40114,13.8949 11.40114,13.8949 1.11159,1.38218 4.33667,5.04605 4.65114,6.5818 0.59967,2.88137 -6.91089,10.68445 -8.89274,13.1636 0,0 -21.44204,26.32719 -21.44204,26.32719 -5.11186,6.15763 -5.54333,9.49241 -13.95341,9.50704 0,0 -61.43011,0 -61.43011,0 -1.42605,0 -3.70043,-0.0878 -4.99485,0.43878 -2.54496,1.03847 -7.13028,7.43744 -9.08288,9.79957 0,0 -19.70883,24.13326 -19.70883,24.13326 -5.11917,6.34046 -5.93824,10.22372 -14.47995,10.23835 0,0 -64.355364,0 -64.355364,0 -8.36619,-0.0146 -9.43391,-3.99296 -14.47995,-10.23835 0,0 -20.90818,-25.59588 -20.90818,-25.59588 -2.1208,-2.60347 -9.309583,-9.96777 -8.687969,-13.1636 0.380281,-1.9526 5.177679,-7.67876 6.632989,-9.50704 0,0 15.79631,-19.74539 15.79631,-19.74539 0,0 10.38462,-13.1636 10.38462,-13.1636 1.36755,-1.71126 3.61267,-4.83396 5.47752,-5.83586 1.66007,-0.8922 3.93445,-0.73862 5.78466,-0.74593 0,0 61.430114,0 61.430114,0 1.45531,0 3.72969,0.0877 5.05336,-0.43879 2.5669,-1.01652 7.83965,-8.11024 9.88001,-10.53088 0,0 16.69583,-19.74539 16.69583,-19.74539 3.04956,-3.66386 6.99133,-9.039 10.79415,-11.68634 4.29279,-1.44069 17.39788,-0.74594 22.66332,-0.74594 z m -29.06961,17.55146 c 0,0 -15.97183,19.01408 -15.97183,19.01408 -1.68201,2.00379 -7.4228,7.91278 -7.50324,10.23835 -0.0731,2.43527 6.34046,9.52167 8.08098,11.70097 0,0 17.4052,21.93933 17.4052,21.93933 4.84128,6.05525 5.33857,9.49241 13.16359,9.50704 0,0 58.50487,0 58.50487,0 8.05904,-0.0146 8.64409,-3.4006 13.60969,-9.50704 0,0 16.6812,-20.4767 16.6812,-20.4767 1.77709,-2.172 8.34426,-9.25109 8.34426,-11.70098 0,-2.31094 -6.50867,-9.60211 -8.22725,-11.70097 0,0 -16.79821,-20.4767 -16.79821,-20.4767 -5.08992,-6.26734 -5.38244,-9.49242 -13.60969,-9.50704 0,0 -41.68472,0 -41.68472,0 -4.92172,0 -17.90249,-0.43148 -21.91007,0.43878 -3.81013,2.14274 -7.24729,7.12297 -10.08478,10.53088 z M 59.092336,235.85621 c 0,0 -16.82015,21.20801 -16.82015,21.20801 -1.67471,2.09155 -7.54713,8.60022 -7.50325,10.96966 0.0512,2.28901 6.11376,8.8708 7.79577,10.96967 0,0 17.25894,21.20801 17.25894,21.20801 4.87053,6.08451 5.60915,9.49241 13.60238,9.50704 0,0 58.504864,0 58.504864,0 7.99323,-0.0146 8.73186,-3.42253 13.60239,-9.50704 0,0 16.68851,-20.4767 16.68851,-20.4767 1.77708,-2.172 8.34426,-9.25109 8.34426,-11.70098 0,-2.00379 -3.40791,-5.67497 -4.68771,-7.3131 0,0 -14.35563,-18.28278 -14.35563,-18.28278 0,0 -8.1468,-10.23835 -8.1468,-10.23835 -1.23592,-1.59425 -3.53955,-4.88515 -5.18499,-5.8578 -1.52113,-0.89951 -3.80282,-0.72399 -5.52871,-0.72399 0,0 -43.147344,0 -43.147344,0 0,0 -21.71994,0.41684 -21.71994,0.41684 -3.1812,2.04767 -6.26733,6.77194 -8.70259,9.82151 z"
     inkscape:connector-curvature="0"
     style="fill:#000000;fill-opacity:1;stroke:none;stroke-width:0.73131084" />
</svg>
