<?xml version="1.0" encoding="UTF-8" standalone="no"?>
<svg
   xmlns:dc="http://purl.org/dc/elements/1.1/"
   xmlns:cc="http://creativecommons.org/ns#"
   xmlns:rdf="http://www.w3.org/1999/02/22-rdf-syntax-ns#"
   xmlns:svg="http://www.w3.org/2000/svg"
   xmlns="http://www.w3.org/2000/svg"
   xmlns:sodipodi="http://sodipodi.sourceforge.net/DTD/sodipodi-0.dtd"
   xmlns:inkscape="http://www.inkscape.org/namespaces/inkscape"
   width="100"
   height="100"
   viewBox="0 0 333.33269 333.33269"
   id="svg2"
   version="1.1"
   inkscape:version="0.91 r13725"
   sodipodi:docname="Points.svg"
   inkscape:export-filename="C:\Users\mbrown\Desktop\Drawings\icons\forJustin\Points.png"
   inkscape:export-xdpi="300"
   inkscape:export-ydpi="300">
  <metadata
     id="metadata9">
    <rdf:RDF>
      <cc:Work
         rdf:about="">
        <dc:format>image/svg+xml</dc:format>
        <dc:type
           rdf:resource="http://purl.org/dc/dcmitype/StillImage" />
        <dc:title></dc:title>
      </cc:Work>
    </rdf:RDF>
  </metadata>
  <defs
     id="defs7" />
  <sodipodi:namedview
     pagecolor="#ffffff"
     bordercolor="#666666"
     borderopacity="1"
     objecttolerance="10"
     gridtolerance="10"
     guidetolerance="10"
     inkscape:pageopacity="0"
     inkscape:pageshadow="2"
     inkscape:window-width="1218"
     inkscape:window-height="697"
     id="namedview5"
     showgrid="false"
     units="px"
     inkscape:zoom="1.5733302"
     inkscape:cx="75.000148"
     inkscape:cy="75.000148"
     inkscape:window-x="54"
     inkscape:window-y="-8"
     inkscape:window-maximized="1"
     inkscape:current-layer="svg2" />
  <path
     id="Selection #13"
     d="m 166.13492,43.718012 -13.18283,41.897061 -44.57135,-0.377142 36.26565,26.039949 -13.97997,41.6742 c 0,0 34.71422,-25.76566 35.51993,-25.81709 0.80571,-0.06 35.83707,25.22566 35.83707,25.22566 l -13.92854,-41.14277 35.99993,-25.979949 -44.35706,0.214286 z m 21.95996,165.805398 c -21.42853,21.42853 -17.62282,85.71412 0,85.71412 21.42853,0 64.28559,0 64.28559,21.42853 l -171.428244,0 c 0,-21.42853 42.857064,-21.42853 64.285594,-21.42853 17.89711,0 21.42853,-64.28559 0,-85.71412 -21.42853,-21.42853 -64.285594,-39.32564 -64.285594,-64.2856 0,0 -42.857059,0 -42.857059,-42.85705 0,-42.857065 42.857059,-42.857065 42.857059,-42.857065 l 0,-42.857059 171.428244,0 0,42.857059 c 0,0 42.85706,0 42.85706,42.857065 0,42.85705 -42.85706,42.85705 -42.85706,42.85705 0,25.23425 -42.85706,42.85707 -64.28559,64.2856 z m 64.28559,-85.71413 c 0,0 21.42853,0 21.42853,-21.42852 0,-21.428534 -21.42853,-21.428534 -21.42853,-21.428534 z M 80.952226,80.952226 c 0,0 -21.42853,0 -21.42853,21.428534 0,21.42852 21.42853,21.42852 21.42853,21.42852 z"
     style="fill:#000000;fill-opacity:1;stroke:none;stroke-width:1"
     inkscape:connector-curvature="0"
     sodipodi:nodetypes="cccccccccccssccsscsccccscscscccscc" />
</svg>
