<?xml version="1.0" encoding="UTF-8" standalone="no"?>
<svg
   xmlns:dc="http://purl.org/dc/elements/1.1/"
   xmlns:cc="http://creativecommons.org/ns#"
   xmlns:rdf="http://www.w3.org/1999/02/22-rdf-syntax-ns#"
   xmlns:svg="http://www.w3.org/2000/svg"
   xmlns="http://www.w3.org/2000/svg"
   xmlns:sodipodi="http://sodipodi.sourceforge.net/DTD/sodipodi-0.dtd"
   xmlns:inkscape="http://www.inkscape.org/namespaces/inkscape"
   width="100"
   height="100"
   viewBox="0 0 333.33269 333.33269"
   id="svg2"
   version="1.1"
   inkscape:version="0.91 r13725"
   sodipodi:docname="pollen.svg">
  <metadata
     id="metadata9">
    <rdf:RDF>
      <cc:Work
         rdf:about="">
        <dc:format>image/svg+xml</dc:format>
        <dc:type
           rdf:resource="http://purl.org/dc/dcmitype/StillImage" />
        <dc:title></dc:title>
      </cc:Work>
    </rdf:RDF>
  </metadata>
  <defs
     id="defs7" />
  <sodipodi:namedview
     pagecolor="#ffffff"
     bordercolor="#666666"
     borderopacity="1"
     objecttolerance="10"
     gridtolerance="10"
     guidetolerance="10"
     inkscape:pageopacity="0"
     inkscape:pageshadow="2"
     inkscape:window-width="1218"
     inkscape:window-height="697"
     id="namedview5"
     showgrid="false"
     units="px"
     inkscape:zoom="1.5733302"
     inkscape:cx="75.000148"
     inkscape:cy="75.000148"
     inkscape:window-x="54"
     inkscape:window-y="-8"
     inkscape:window-maximized="1"
     inkscape:current-layer="svg2" />
  <path
     id="Pollen"
     d="m 137.22494,191.08467 c -3.18822,-0.48517 -4.05459,-2.53672 -6.35566,-4.0546 -4.11004,-2.70999 -6.70913,-3.7427 -11.47068,-4.60906 -6.32793,-1.15747 -6.66062,3.34763 -11.97664,3.18129 0,0 -9.010204,-1.78818 -9.010204,-1.78818 0,0 -4.158556,-1.98917 -4.158556,-1.98917 -1.878282,-0.57527 -3.382293,-0.0277 -5.544742,-0.7832 0,0 -4.158556,-1.98917 -4.158556,-1.98917 -2.259482,-0.6931 -4.387277,0.22179 -6.854687,-1.48322 -2.183242,-1.50401 -4.588273,-6.64676 -6.4319,-9.00328 -2.09314,-2.68226 -6.792308,-3.56942 -5.953666,-9.19734 0.616853,-4.13083 6.958651,-11.80336 10.230048,-14.40939 0,0 13.168761,-8.97556 13.168761,-8.97556 5.787324,-3.91597 11.442962,-8.08146 16.634222,-12.7737 0,0 43.66484,-41.606349 43.66484,-41.606349 4.55362,-3.673391 14.88763,-11.5192 20.79278,-11.5192 5.73881,0 15.65696,7.423023 20.09969,10.964726 7.97749,6.362591 14.97773,13.591548 22.17896,20.792783 0,0 20.79278,20.0373 20.79278,20.0373 13.45986,12.4826 22.90672,15.99658 32.54763,24.18201 3.16744,2.69613 8.80921,8.90625 8.1785,13.30738 -0.23565,1.64263 -3.65953,9.73103 -4.84472,10.79146 -2.25255,2.02383 -2.57137,0.30496 -8.71911,5.74574 -3.00802,2.6684 -4.24865,6.21704 -9.14189,5.47543 -4.05459,-0.60992 -3.64567,-3.25061 -8.31711,-4.68531 1.51094,1.56639 3.77736,3.0704 4.73382,4.87937 2.06542,3.9437 -0.31189,8.83694 -4.73382,9.50924 -6.73686,1.01884 -7.45075,-5.87743 -8.32404,-7.20124 -0.9634,-1.46242 -3.34764,-2.80009 -4.84472,-3.72191 -0.27031,4.58828 -2.43276,8.17157 -7.62402,7.45768 0,0 -4.85165,-1.42084 -4.85165,-1.42084 0,0 -6.93093,0.89409 -6.93093,0.89409 0,0 0,2.77237 0,2.77237 1.91294,-0.88716 3.34764,-1.55253 5.54475,-1.21984 8.35176,1.26836 6.6121,14.15295 -2.07928,12.83608 -1.80897,-0.27724 -3.29219,-1.17133 -4.33876,-2.68227 -0.97033,-1.39312 -1.01885,-2.48128 -1.20598,-4.08232 -3.57636,1.65649 -7.24975,2.20404 -9.89044,-1.46242 -1.2337,-1.70501 -1.18519,-3.79815 -2.80009,-4.31104 -1.4347,-0.45744 -3.08426,0.85943 -6.02298,0.83171 -4.96254,-0.0485 -8.2478,-0.83864 -12.47566,-3.37536 -3.57636,6.49428 -9.59241,6.49428 -13.16877,0 0,0 -6.23783,2.07928 -6.23783,2.07928 1.37232,2.08621 2.308,3.61101 1.91294,6.23783 -1.26836,8.35177 -14.15296,6.6121 -12.83608,-2.07928 0.23565,-1.56639 0.89409,-2.80009 2.07235,-3.86052 1.29608,-1.17826 3.09119,-1.73967 4.69223,-2.37731 0,0 -8.31711,-1.38619 -8.31711,-1.38619 -0.84557,3.96449 -3.20902,6.73686 -7.62402,6.0715 z m 150.2417,-26.56625 c 4.06153,3.60408 2.1278,10.49343 -3.30605,11.31821 -6.96558,1.0535 -11.15186,-8.24781 -3.4516,-12.48953 2.54365,-0.59606 4.64372,-0.70696 6.75765,1.17132 z m -218.324188,4.15856 c 4.061523,3.60408 2.127794,10.49342 -3.306052,11.3182 -6.965582,1.0535 -11.151862,-8.2478 -3.451602,-12.48953 2.54365,-0.59606 4.643721,-0.70695 6.757654,1.17133 z M 27.556891,176.301 c 4.061523,3.60408 2.127794,10.49342 -3.306052,11.3182 -6.965582,1.0535 -11.151862,-8.2478 -3.451602,-12.48953 2.54365,-0.59606 4.643721,-0.70695 6.757654,1.17133 z m 250.899549,2.07928 c 4.06152,3.60408 2.12779,10.49342 -3.30605,11.3182 -6.96559,1.0535 -11.15187,-8.2478 -3.45161,-12.48953 2.54365,-0.59606 4.64373,-0.70695 6.75766,1.17133 z m 20.79278,0 c 4.06152,3.60408 2.12779,10.49342 -3.30605,11.3182 -6.96558,1.0535 -11.15186,-8.2478 -3.4516,-12.48953 2.54365,-0.59606 4.64372,-0.70695 6.75765,1.17133 z m -216.938007,2.77237 c 4.061523,3.60408 2.127794,10.49342 -3.306052,11.3182 -6.965582,1.0535 -11.151862,-8.2478 -3.451602,-12.48953 2.54365,-0.59606 4.643721,-0.70695 6.757654,1.17133 z m 32.811007,15.8233 c -8.84386,-6.16159 4.42193,-17.97189 9.50923,-8.46959 0.64457,1.20598 0.65844,2.14166 0.81092,3.43774 1.29608,0.15248 2.23176,0.16634 3.43774,0.81092 9.5023,5.0873 -2.308,18.35309 -8.46959,9.50923 -0.97033,-1.39312 -1.01885,-2.48127 -1.20598,-4.08232 -1.60105,-0.18713 -2.6892,-0.23565 -4.08232,-1.20598 z m -61.227807,-6.12001 c 4.061523,3.60409 2.127794,10.49343 -3.306052,11.31821 -6.965582,1.0535 -11.151862,-8.2478 -3.451602,-12.48953 2.54365,-0.59606 4.643721,-0.70696 6.757654,1.17132 z m 47.130307,0.6931 c 4.06152,3.60408 2.12779,10.49342 -3.306057,11.3182 -6.965581,1.0535 -11.151861,-8.2478 -3.458532,-12.48953 2.550581,-0.59606 4.650651,-0.70695 6.764589,1.17133 z m 73.46782,2.07928 c 4.06152,3.60408 2.12779,10.49342 -3.30606,11.3182 -6.96558,1.0535 -11.15186,-8.2478 -3.45853,-12.48953 2.55058,-0.59606 4.65065,-0.70696 6.76459,1.17133 z m 140.00472,0.69309 c 4.06152,3.60408 2.12779,10.49342 -3.30605,11.3182 -6.96559,1.0535 -11.15187,-8.2478 -3.45161,-12.48953 2.54365,-0.59606 4.64373,-0.70695 6.75766,1.17133 z m -121.98431,3.46546 c 4.06152,3.60408 2.12779,10.49342 -3.30606,11.3182 -6.96558,1.05351 -11.15186,-8.2478 -3.4516,-12.48953 2.54365,-0.59606 4.64372,-0.70695 6.75766,1.17133 z m -45.74412,3.46546 c 4.06152,3.60409 2.12779,10.49343 -3.30605,11.31821 -6.96558,1.0535 -11.15186,-8.2478 -3.45854,-12.48953 2.55059,-0.59606 4.65066,-0.70696 6.76459,1.17132 z m -63.071432,0.6931 c 4.061523,3.60408 2.127795,10.49342 -3.306052,11.3182 -6.965581,1.0535 -11.151861,-8.2478 -3.451602,-12.48953 2.543651,-0.59606 4.643721,-0.70695 6.757654,1.17133 z m 185.055742,0 c 4.06152,3.60408 2.1278,10.49342 -3.30605,11.3182 -6.96558,1.0535 -11.15186,-8.2478 -3.4516,-12.48953 2.54365,-0.59606 4.64372,-0.70695 6.75765,1.17133 z m -154.55966,1.38618 c 4.06152,3.60408 2.12779,10.49343 -3.30606,11.31821 -6.96558,1.0535 -11.151857,-8.24781 -3.45853,-12.48953 2.55058,-0.59606 4.65065,-0.70696 6.76459,1.17132 z m 47.82339,5.54474 c 4.06152,3.60409 2.12779,10.49343 -3.30605,11.31821 -6.96559,1.0535 -11.15187,-8.24781 -3.45854,-12.48953 2.55058,-0.59606 4.65066,-0.70696 6.76459,1.17132 z m 49.90267,6.93093 c 4.06152,3.60408 2.1278,10.49342 -3.30605,11.3182 -6.96558,1.05351 -11.15186,-8.2478 -3.4516,-12.48953 2.54365,-0.59606 4.64372,-0.70695 6.75765,1.17133 z m 77.62638,0 c 4.06152,3.60408 2.1278,10.49342 -3.30605,11.3182 -6.96558,1.05351 -11.15186,-8.2478 -3.4516,-12.48953 2.54365,-0.59606 4.64372,-0.70695 6.75765,1.17133 z m -249.513361,4.15856 c 4.061523,3.60408 2.127795,10.49342 -3.306052,11.3182 -6.965581,1.0535 -11.151861,-8.2478 -3.451602,-12.48953 2.543651,-0.59606 4.643721,-0.70695 6.757654,1.17133 z m 84.557301,0 c 4.06153,3.60408 2.1278,10.49342 -3.30605,11.3182 -6.96558,1.0535 -11.15186,-8.2478 -3.45853,-12.48953 2.55058,-0.59606 4.65065,-0.70695 6.76458,1.17133 z m 33.96154,4.85165 c 4.06153,3.60408 2.1278,10.49342 -3.30605,11.3182 -6.96558,1.0535 -11.15186,-8.2478 -3.45853,-12.48953 2.55058,-0.59606 4.65065,-0.70696 6.76458,1.17133 z m -92.874412,3.46546 c 4.061523,3.60408 2.127795,10.49342 -3.306052,11.3182 -6.965581,1.0535 -11.151861,-8.2478 -3.451601,-12.48953 2.54365,-0.59606 4.643721,-0.70695 6.757653,1.17133 z m 18.713503,2.07928 c 4.061523,3.60408 2.127794,10.49342 -3.306052,11.3182 -6.965582,1.0535 -11.151862,-8.2478 -3.451602,-12.48953 2.54365,-0.59606 4.643721,-0.70695 6.757654,1.17133 z m 161.490589,0 c 4.06153,3.60408 2.1278,10.49342 -3.30605,11.3182 -6.96558,1.0535 -11.15186,-8.2478 -3.4516,-12.48953 2.54365,-0.59606 4.64372,-0.70695 6.75765,1.17133 z m -58.91288,10.39639 c 4.06153,3.60408 2.1278,10.49342 -3.30605,11.3182 -6.96558,1.0535 -11.15186,-8.2478 -3.4516,-12.48953 2.54365,-0.59606 4.64372,-0.70695 6.75765,1.17133 z m -55.44741,4.85165 c 4.06152,3.60408 2.12779,10.49342 -3.30605,11.3182 -6.96558,1.0535 -11.15186,-8.2478 -3.45853,-12.48953 2.55058,-0.59606 4.65065,-0.70695 6.76458,1.17133 z m 84.55731,6.23783 c 4.06152,3.60408 2.12779,10.49342 -3.30606,11.3182 -6.96558,1.0535 -11.15186,-8.2478 -3.4516,-12.48953 2.54365,-0.59606 4.64372,-0.70695 6.75766,1.17133 z"
     inkscape:connector-curvature="0"
     style="fill:#000000;fill-opacity:1;stroke:none;stroke-width:1" />
</svg>
