<?xml version="1.0" encoding="UTF-8" standalone="no"?>
<svg
   xmlns:dc="http://purl.org/dc/elements/1.1/"
   xmlns:cc="http://creativecommons.org/ns#"
   xmlns:rdf="http://www.w3.org/1999/02/22-rdf-syntax-ns#"
   xmlns:svg="http://www.w3.org/2000/svg"
   xmlns="http://www.w3.org/2000/svg"
   xmlns:sodipodi="http://sodipodi.sourceforge.net/DTD/sodipodi-0.dtd"
   xmlns:inkscape="http://www.inkscape.org/namespaces/inkscape"
   width="100"
   height="100"
   viewBox="0 0 333.33269 333.33269"
   id="svg2"
   version="1.1"
   inkscape:version="0.91 r13725"
   sodipodi:docname="prisoner.svg">
  <metadata
     id="metadata9">
    <rdf:RDF>
      <cc:Work
         rdf:about="">
        <dc:format>image/svg+xml</dc:format>
        <dc:type
           rdf:resource="http://purl.org/dc/dcmitype/StillImage" />
        <dc:title></dc:title>
      </cc:Work>
    </rdf:RDF>
  </metadata>
  <defs
     id="defs7" />
  <sodipodi:namedview
     pagecolor="#ffffff"
     bordercolor="#666666"
     borderopacity="1"
     objecttolerance="10"
     gridtolerance="10"
     guidetolerance="10"
     inkscape:pageopacity="0"
     inkscape:pageshadow="2"
     inkscape:window-width="1218"
     inkscape:window-height="697"
     id="namedview5"
     showgrid="false"
     units="px"
     inkscape:zoom="1.5733302"
     inkscape:cx="75.000148"
     inkscape:cy="75.000148"
     inkscape:window-x="54"
     inkscape:window-y="-8"
     inkscape:window-maximized="1"
     inkscape:current-layer="svg2" />
  <path
     id="Selection #27"
     d="m 208.6016,39.083105 c 3.78227,6.639262 5.43803,13.570719 6.02241,21.102795 2.03724,25.899625 -12.31267,49.73767 -39.83558,52.61902 -13.06751,1.37168 -27.39306,-0.2435 -38.14737,-8.53041 -24.28445,-18.708438 -24.54417,-58.544027 -0.81164,-77.796269 9.43944,-7.661939 17.88867,-8.319372 29.21925,-9.74787 17.1095,-0.868461 34.90078,7.166836 43.55293,22.352734 z m -69.01426,5.68152 c -5.46238,7.637589 -5.47861,14.666444 -5.38122,23.537735 0.1948,16.427716 12.79154,29.024463 29.21926,29.219258 9.48814,0.105514 17.45039,-0.08928 25.16103,-6.663614 9.83715,-8.384304 10.68938,-17.077033 10.5514,-29.048812 -0.11363,-9.423211 -4.43971,-18.2945 -12.17469,-23.838042 -7.97848,-5.705872 -18.18087,-6.071113 -27.59597,-5.13772 -8.05964,1.525895 -14.90182,5.121487 -19.77981,11.931195 z M 68.560193,266.344 c -4.090696,5.54354 -8.830709,12.36137 -16.330319,12.90517 -8.173276,0.60062 -16.549463,-6.97204 -18.830189,-14.52846 -0.698015,-2.29696 -0.689899,-4.91858 -0.6412,-7.30482 0.235377,-10.06441 9.455677,-31.17532 13.237948,-41.39394 0,0 12.385718,-30.84255 12.385718,-30.84255 9.837151,-23.44034 21.849512,-55.64646 48.228009,-64.32295 6.07923,-2.00477 13.09185,-3.03556 19.4795,-3.14108 0,0 45.45218,0 45.45218,0 0,0 29.21926,0 29.21926,0 0,0 8.92811,0 8.92811,0 8.2869,0.13798 16.85789,1.5259 24.34938,5.26759 13.84668,6.92334 22.68551,20.33173 29.42217,33.78882 10.73808,21.48427 18.46495,44.23471 27.23072,66.55498 3.96895,10.10499 10.1537,25.84281 9.89397,36.52407 -0.15421,6.04677 -2.28073,9.52873 -6.51752,13.76552 -3.14919,3.14919 -5.94125,5.4218 -10.51893,5.68152 -9.56119,0.52757 -14.27686,-6.80159 -19.35776,-13.76551 0,0 -29.34101,-43.01725 -29.34101,-43.01725 0,0 0.81165,38.14737 0.81165,38.14737 0,0 1.59083,20.29115 1.59083,20.29115 0,0 0,10.5514 0,10.5514 0.0243,3.57936 0.0406,6.29837 -1.23371,9.73975 -5.7221,15.47809 -27.33623,14.58528 -40.93942,14.60963 0,0 -13.79799,0.81165 -13.79799,0.81165 0,0 -29.21925,0 -29.21925,0 0,0 -9.73976,-0.77918 -9.73976,-0.77918 0,0 -12.17469,0 -12.17469,0 -8.63591,-0.0487 -22.87218,-1.5746 -28.95141,-8.23009 -6.217208,-6.8016 -5.235116,-15.76217 -5.137719,-24.26822 0,0 1.623293,-21.1028 1.623293,-21.1028 0,0 0,-12.98634 0,-12.98634 0.01623,-8.09211 2.207677,-19.00875 0,-26.78432 0,0 -29.121861,43.82889 -29.121861,43.82889 z M 210.50085,133.23405 c 0,0 -30.84255,0 -30.84255,0 0,0 -14.60963,0.81164 -14.60963,0.81164 0,0 -11.36304,-0.81164 -11.36304,-0.81164 0,0 -25.97268,0 -25.97268,0 -6.39577,0.008 -15.82709,1.09572 -21.10279,4.86987 0,0 84.41119,0 84.41119,0 0,0 24.34938,0 24.34938,0 0,0 12.98634,-0.81164 12.98634,-0.81164 -5.9169,-2.34566 -11.42798,-3.97707 -17.85622,-4.05823 z m 33.00965,21.56543 c -1.29864,-0.57627 -3.95272,-0.46264 -5.41368,-0.46264 0,0 -116.87703,0 -116.87703,0 0,0 -21.1028,0 -21.1028,0 -2.361888,0 -7.532074,-0.35712 -9.431325,0.82788 -2.994974,1.87491 -7.418445,11.87439 -8.424887,15.40505 0,0 170.445672,0 170.445672,0 -1.3798,-3.44138 -6.03053,-14.36614 -9.19595,-15.77029 z m 15.93261,32.80674 c -1.15254,-0.86035 -2.93004,-0.77918 -4.30172,-0.80353 0,0 -36.52408,0 -36.52408,0 0,0 -144.472992,0 -144.472992,0 0,0 -5.681523,16.23292 -5.681523,16.23292 0,0 17.044568,0 17.044568,0 2.426821,-0.008 4.999739,0.25161 7.045088,-1.29864 2.426821,-1.84243 5.429912,-8.27067 9.260879,-11.22506 7.06944,-5.44615 13.60319,0.30031 13.72493,9.27711 0,0 0,3.24659 0,3.24659 0,0 102.26741,0 102.26741,0 0,0 0,-3.24659 0,-3.24659 0.0325,-2.01288 0.0325,-3.77415 0.81976,-5.68152 0.57627,-1.39603 1.44473,-2.7109 2.59727,-3.70922 9.06608,-7.81615 16.24103,8.81448 19.56878,11.33869 1.89926,1.43662 3.97707,1.28241 6.23345,1.29864 0,0 18.66785,0 18.66785,0 -0.51945,-2.88134 -4.12316,-13.84668 -6.24967,-15.42939 z M 61.157981,219.26853 c 0,0 -5.681522,16.23292 -5.681522,16.23292 2.719014,0 12.548048,0.31654 14.463532,-0.48699 2.978741,-1.24993 9.772219,-12.51558 11.509141,-15.74593 0,0 -20.291151,0 -20.291151,0 z m 53.568639,0 c 0,0 -0.81165,16.23292 -0.81165,16.23292 0,0 105.51399,0 105.51399,0 0,0 -0.81165,-16.23292 -0.81165,-16.23292 0,0 -103.89069,0 -103.89069,0 z m 157.70283,1.29863 c 0,0 -6.73667,-1.29863 -6.73667,-1.29863 0,0 -13.79798,0 -13.79798,0 1.73692,3.23035 8.5304,14.496 11.50914,15.74593 1.93172,0.81165 12.475,0.48699 15.27518,0.48699 0,0 -6.24967,-14.93429 -6.24967,-14.93429 z m -221.579374,31.6542 c -3.149187,1.49343 -3.782271,7.15872 0.568152,10.87606 0,0 8.116461,-11.36305 8.116461,-11.36305 -1.874903,0 -7.215534,-0.21103 -8.684613,0.48699 z m 62.253254,-0.48699 c 0,0 0,16.23292 0,16.23292 0,0 107.13728,0 107.13728,0 0,0 0,-16.23292 0,-16.23292 0,0 -107.13728,0 -107.13728,0 z m 160.70592,0 c 2.43493,4.33419 5.07278,8.17328 8.9281,11.36305 3.37645,-4.7806 2.33754,-5.9169 1.62329,-11.36305 0,0 -10.55139,0 -10.55139,0 z m -162.32921,32.46584 c 0,0 0,4.86988 0,4.86988 0,2.09405 -0.17857,5.2757 0.94962,7.07755 2.37812,3.78228 15.80275,4.27738 20.15317,4.2855 0,0 69.80156,0 69.80156,0 4.08258,-0.0487 16.30597,-0.74672 18.52988,-4.2855 1.12819,-1.80185 0.94963,-4.9835 0.94963,-7.07755 0,0 0,-4.86988 0,-4.86988 0,0 -110.38386,0 -110.38386,0 z"
     inkscape:connector-curvature="0"
     style="fill:#000000;fill-opacity:1;stroke:none;stroke-width:1" />
</svg>
