<?xml version="1.0" encoding="UTF-8" standalone="no"?>
<svg
   xmlns:dc="http://purl.org/dc/elements/1.1/"
   xmlns:cc="http://creativecommons.org/ns#"
   xmlns:rdf="http://www.w3.org/1999/02/22-rdf-syntax-ns#"
   xmlns:svg="http://www.w3.org/2000/svg"
   xmlns="http://www.w3.org/2000/svg"
   xmlns:sodipodi="http://sodipodi.sourceforge.net/DTD/sodipodi-0.dtd"
   xmlns:inkscape="http://www.inkscape.org/namespaces/inkscape"
   width="100"
   height="100"
   viewBox="0 0 333.33269 333.33269"
   id="svg2"
   version="1.1"
   inkscape:version="0.91 r13725"
   sodipodi:docname="Radiation2.svg">
  <metadata
     id="metadata9">
    <rdf:RDF>
      <cc:Work
         rdf:about="">
        <dc:format>image/svg+xml</dc:format>
        <dc:type
           rdf:resource="http://purl.org/dc/dcmitype/StillImage" />
        <dc:title></dc:title>
      </cc:Work>
    </rdf:RDF>
  </metadata>
  <defs
     id="defs7" />
  <sodipodi:namedview
     pagecolor="#ffffff"
     bordercolor="#666666"
     borderopacity="1"
     objecttolerance="10"
     gridtolerance="10"
     guidetolerance="10"
     inkscape:pageopacity="0"
     inkscape:pageshadow="2"
     inkscape:window-width="1218"
     inkscape:window-height="697"
     id="namedview5"
     showgrid="false"
     units="px"
     inkscape:zoom="4.4500499"
     inkscape:cx="52.566955"
     inkscape:cy="56.97247"
     inkscape:window-x="54"
     inkscape:window-y="-8"
     inkscape:window-maximized="1"
     inkscape:current-layer="svg2" />
  <path
     id="Radiation #1"
     d="m 171.95762,16.74058 7.33271,0.466628 c 14.28546,1.046578 27.92431,4.346299 41.32984,9.359209 14.38545,5.379545 29.53084,14.165469 41.32984,23.977974 50.94903,42.369751 68.25424,111.310589 43.69631,172.705399 -6.55278,16.38529 -15.96532,30.78407 -27.59767,43.99629 -11.39237,12.9389 -26.02446,24.33127 -41.42983,32.15728 -25.47785,12.95224 -47.57598,17.50519 -75.99358,17.17188 -12.40562,-0.14665 -29.5375,-3.62636 -41.32984,-7.55269 C 97.490575,301.74983 77.018971,289.41087 60.63369,273.2389 16.270771,229.42927 4.2717853,160.34844 30.176263,103.92655 47.301483,66.623031 78.018887,38.798716 116.62896,25.059877 c 10.77909,-3.833009 21.97814,-6.239472 33.33052,-7.606024 l 6.6661,-0.713273 z m 11.57902,137.84835 c 8.64594,12.06565 1.77318,29.58417 -12.91224,32.3506 -20.95157,3.953 -33.56383,-22.25812 -17.33187,-36.21027 2.76643,-2.37314 5.82617,-3.65969 9.33254,-4.49296 8.34596,-1.16657 15.84533,1.29323 20.91157,8.35263 z M 157.29219,33.405839 145.95981,34.785722 c -7.97265,1.133238 -17.07855,3.573032 -24.66458,6.272803 -34.123783,12.152307 -62.121417,38.443417 -76.753514,71.533955 -23.43802,53.02219 -9.552526,116.19018 34.090453,154.46028 13.232215,11.60569 29.297521,20.67159 45.996111,26.19112 10.35913,3.42638 25.77783,6.53945 36.66357,6.6661 24.88457,0.28665 44.30293,-3.57303 66.66104,-14.83208 13.94548,-7.0194 23.68466,-14.83874 34.66373,-25.83115 9.29255,-9.31254 16.93857,-20.24495 22.83141,-31.99729 27.36435,-54.58872 15.39203,-120.59648 -30.83073,-161.126385 -10.98574,-9.639186 -24.4246,-17.831827 -37.99679,-23.258036 -13.21888,-5.28622 -31.07071,-9.53253 -45.3295,-9.4592 z m 42.88304,133.182081 c -0.0333,-11.90566 -6.53278,-22.9714 -16.85857,-28.89756 L 227.0463,61.936762 c 8.08598,4.686269 16.15863,10.605768 22.23812,16.65859 11.02573,10.972406 19.90498,21.724828 26.45776,35.996958 7.59269,16.53194 11.41904,34.2771 11.47237,51.99561 z m -50.24908,28.93755 c 3.00641,1.72652 6.2928,2.95975 10.03248,3.72635 3.65303,0.73994 7.63269,0.95326 11.33238,0.3733 4.35296,-0.67994 8.33263,-1.95983 12.04565,-4.07298 l 43.70297,75.68693 c -1.61986,0.94659 -3.41971,1.94651 -5.08624,2.81976 -18.4851,9.72585 -39.29668,13.42554 -59.99493,13.18556 -11.11239,-0.13332 -26.93772,-3.50637 -37.33018,-7.45937 -6.37279,-2.42646 -12.49228,-5.23289 -18.40511,-8.57928 z M 106.2565,62.023421 C 85.758233,73.922414 68.593017,91.814235 58.140567,113.25909 49.794605,130.37098 45.814942,148.48945 45.888269,166.58792 l 87.345951,0 c -0.06,-9.09257 3.5397,-18.27846 11.39237,-25.21121 1.77985,-1.56653 3.44638,-2.77976 5.25289,-3.79968 z"
     inkscape:connector-curvature="0"
     style="fill:#000000;fill-opacity:1;stroke:none;stroke-width:1"
     sodipodi:nodetypes="cccccccccccccccccccccccccccccccccccccccccccccccccccccccccc" />
</svg>
