<?xml version="1.0" encoding="UTF-8" standalone="no"?>
<svg
   xmlns:dc="http://purl.org/dc/elements/1.1/"
   xmlns:cc="http://creativecommons.org/ns#"
   xmlns:rdf="http://www.w3.org/1999/02/22-rdf-syntax-ns#"
   xmlns:svg="http://www.w3.org/2000/svg"
   xmlns="http://www.w3.org/2000/svg"
   xmlns:sodipodi="http://sodipodi.sourceforge.net/DTD/sodipodi-0.dtd"
   xmlns:inkscape="http://www.inkscape.org/namespaces/inkscape"
   width="100"
   height="100"
   viewBox="0 0 333.33266 333.33266"
   id="svg2"
   version="1.1"
   inkscape:version="0.91 r13725"
   sodipodi:docname="rain.svg">
  <metadata
     id="metadata9">
    <rdf:RDF>
      <cc:Work
         rdf:about="">
        <dc:format>image/svg+xml</dc:format>
        <dc:type
           rdf:resource="http://purl.org/dc/dcmitype/StillImage" />
        <dc:title></dc:title>
      </cc:Work>
    </rdf:RDF>
  </metadata>
  <defs
     id="defs7" />
  <sodipodi:namedview
     pagecolor="#ffffff"
     bordercolor="#666666"
     borderopacity="1"
     objecttolerance="10"
     gridtolerance="10"
     guidetolerance="10"
     inkscape:pageopacity="0"
     inkscape:pageshadow="2"
     inkscape:window-width="1218"
     inkscape:window-height="697"
     id="namedview5"
     showgrid="false"
     units="px"
     inkscape:zoom="1.5733302"
     inkscape:cx="75.000148"
     inkscape:cy="75.000148"
     inkscape:window-x="54"
     inkscape:window-y="-8"
     inkscape:window-maximized="1"
     inkscape:current-layer="svg2" />
  <path
     id="Selection #35"
     d="m 308.36297,128.09717 c 11.20028,9.75369 11.17163,29.66212 -0.70897,38.85723 -5.75769,4.45433 -12.97628,5.37814 -20.05165,5.39246 0,0 -224.148791,0 -224.148791,0 0,0 -7.877434,-0.59439 -7.877434,-0.59439 -9.06621,-0.86651 -14.924156,-1.32484 -22.91617,-6.63853 -13.513379,-8.99459 -16.850547,-24.91417 -15.819319,-40.03168 0.322259,-4.71214 0.08594,-5.90091 1.525358,-10.74196 1.668583,-5.62162 3.895749,-10.68466 7.91324,-15.038734 1.797487,-1.947875 7.411949,-6.409367 8.106595,-8.006337 0,0 2.370391,-11.329182 2.370391,-11.329182 2.886006,-9.72505 7.383304,-18.447517 14.551768,-25.77353 10.835053,-11.064213 23.560688,-15.812157 38.642393,-17.316031 0,0 4.296782,-0.465485 4.296782,-0.465485 0,0 5.729043,0.558582 5.729043,0.558582 8.149564,0.358065 13.778344,1.203099 21.483914,4.189362 5.34949,2.069617 8.29995,3.731039 12.89034,7.225755 1.71871,1.303357 5.41395,4.955622 7.16131,5.32801 1.81897,0.393872 7.87743,-2.578069 10.02582,-3.330006 5.55717,-1.933552 11.3435,-2.69265 17.18713,-3.12949 9.43143,-0.701807 20.86087,4.081943 27.90044,10.126083 2.25581,1.940713 4.09626,4.325427 5.67891,6.831883 1.04555,1.661422 1.80465,3.788329 3.75252,4.554589 2.08394,0.873679 4.86253,-0.243485 7.78434,0 13.09086,0.952453 24.79959,4.103426 32.79161,15.49706 2.30594,3.287038 3.73103,6.065624 4.44717,10.025824 13.6566,0 26.01701,3.244071 34.34561,15.038737 2.90032,4.10343 4.59039,7.86311 5.04155,12.89035 6.40221,0.51561 12.86887,1.50387 17.8961,5.87943 z M 115.73107,53.633936 c -8.95879,-3.337168 -14.43718,-3.043554 -23.632298,-3.029232 -21.469587,0.03581 -38.79278,15.847964 -42.96782,36.687356 6.036979,-0.16471 11.909248,-0.902324 17.903259,0 13.613637,2.599553 24.742302,11.715892 30.564442,24.18372 3.931557,8.4217 2.800067,10.81357 4.525947,17.90326 0,0 -14.32261,0 -14.32261,0 -0.02864,-8.75111 -3.208264,-16.90784 -10.032986,-22.67985 -10.00434,-8.464658 -31.545541,-8.457497 -40.740654,1.22458 -9.023242,9.50305 -9.073371,33.42897 0,42.91054 5.306525,5.54284 12.603893,7.17562 19.980036,7.18994 0,0 233.458484,0 233.458484,0 2.14839,0 4.41137,0.11459 6.44518,-0.72329 6.5884,-2.69981 7.59098,-13.05505 3.30136,-17.74571 -4.38988,-4.79807 -14.85255,-4.13207 -18.01784,2.01233 -1.00258,1.94071 -0.98826,3.60214 -1.03839,5.71472 0,0 -14.32261,0 -14.32261,0 1.23175,-4.99859 0.70897,-7.29737 3.49472,-12.17422 4.49014,-7.85595 8.75111,-6.50246 6.13007,-13.60647 -5.59297,-15.17481 -28.32295,-16.82191 -40.41839,-9.2166 -8.91582,5.6073 -12.16706,14.1579 -12.17422,24.25533 0,0 -14.3226,0 -14.3226,0 1.31768,-4.64052 0.0931,-6.45233 2.68549,-14.3226 3.70955,-11.2719 13.73537,-21.78469 25.24359,-25.064565 -1.25323,-6.137237 -5.90808,-9.875437 -11.45809,-12.260151 -10.34092,-4.44717 -29.52605,-2.714134 -36.95948,6.538269 -4.5904,5.707559 -5.7004,17.358997 -4.20369,24.341267 1.23175,5.77918 3.1653,5.17763 3.20827,12.17422 0,0 0,8.59356 0,8.59356 -3.50904,-1.18877 -5.52137,-1.50387 -8.56492,-3.9602 -6.2733,-5.04871 -8.25698,-12.71131 -8.6437,-20.38823 -0.85219,-16.757448 3.97453,-30.815086 20.07314,-38.671036 -1.28904,-5.213429 -5.28504,-8.027821 -10.02583,-10.11176 -10.57008,-4.647686 -22.17855,-1.310519 -32.22586,2.950457 2.51362,7.240077 3.99601,9.975695 5.42827,17.903258 0,0 1.44658,12.174215 1.44658,12.174215 1.06703,2.900328 3.97452,4.418526 6.81756,9.309696 3.70239,6.35207 2.50646,7.08253 4.21085,12.89034 0,0 -14.32261,0 -14.32261,0 -0.81639,-14.60905 -19.63629,-19.965709 -26.95515,-7.1613 -1.66142,2.91465 -1.66142,4.66201 -1.69006,7.87744 0,0 -14.32261,0 -14.32261,0 1.28903,-5.29937 0.37955,-6.37357 3.09368,-12.17422 5.21343,-11.128666 16.27048,-17.516548 28.41605,-16.470998 -0.0501,-16.392223 -9.51021,-31.280573 -25.06456,-37.074066 z m 32.22587,11.293374 c 0,0 0.71613,0.71613 0.71613,0.71613 0,0 0,-0.71613 0,-0.71613 0,0 -0.71613,0 -0.71613,0 z M 85.854116,193.11463 c 0,0 1.231744,20.05165 1.231744,20.05165 0,3.59498 0.32942,7.34034 -1.059873,10.74196 -1.926391,4.71214 -6.280463,8.08511 -11.114343,9.46008 -11.830473,3.36581 -23.245591,-6.5884 -21.254748,-18.76978 1.009744,-6.15156 6.559754,-11.96653 10.634535,-16.47099 0,0 19.213777,-18.61939 19.213777,-18.61939 1.8691,3.21542 1.876262,9.71789 2.348908,13.60647 z m 150.401694,2.86452 c 0.666,7.15415 2.54942,22.94482 0,29.36135 -1.66859,4.63336 -6.23034,8.4575 -10.9568,9.81098 -1.93355,0.55142 -4.43284,0.96678 -6.44517,0.79491 -9.45292,-0.79491 -15.41112,-9.41712 -15.01009,-18.48333 0.28645,-6.48097 4.98427,-11.35066 9.28105,-15.75486 0,0 6.50962,-7.09685 6.50962,-7.09685 0,0 14.25816,-13.67093 14.25816,-13.67093 1.41794,3.31568 1.84761,11.11434 2.36323,15.03873 z M 67.63576,217.4201 c 0.27213,3.04355 4.124911,3.61645 5.413945,0.65168 0.630195,-1.43227 0.429679,-6.65286 0.429679,-8.48615 -2.255811,1.63278 -6.115753,4.67633 -5.843624,7.83447 z m 150.22266,1.4609 c 0.0788,3.05072 4.08194,4.24666 5.57865,0.65168 0.6302,-1.49671 0.42968,-6.63137 0.42968,-8.51479 -2.14839,1.57549 -6.07994,4.91266 -6.00833,7.86311 z m 56.33797,30.80793 c 0,0 1.23175,20.76778 1.23175,20.76778 -0.0143,8.73679 -3.35149,15.12467 -12.17422,17.86745 -2.16271,0.67316 -4.18936,0.82355 -6.44517,0.72329 -10.57725,-0.46548 -17.58816,-12.43202 -14.24383,-22.17139 2.00516,-5.85079 8.48614,-12.14557 12.81157,-16.471 4.60472,-4.60472 11.57982,-12.05247 16.47099,-15.75487 1.62562,3.52336 1.84046,10.87802 2.34891,15.03874 z m -104.75554,21.48391 c -0.007,4.89833 -0.26497,8.0493 -3.53052,12.05247 -10.03299,12.32461 -29.08922,5.96537 -30.06316,-9.90408 -0.60155,-9.83247 9.38131,-18.03932 15.69042,-24.34843 3.8671,-3.8671 10.4197,-11.42228 15.03874,-13.60648 1.95503,10.90667 2.87884,24.7065 2.86452,35.80652 z m -68.548,-15.03874 c 0,0 1.23175,13.60648 1.23175,13.60648 0.1289,11.11434 1.30335,22.49365 -12.174219,26.37508 -2.083939,0.60155 -4.275298,0.92381 -6.445173,0.76626 -9.102016,-0.6302 -15.582996,-9.7895 -14.967124,-18.54778 0.522775,-7.56233 8.457499,-14.97428 13.534863,-20.05165 4.604718,-4.60471 11.579828,-12.05247 16.470998,-15.75486 1.790325,3.5162 1.854775,9.5675 2.348905,13.60647 z m 49.02629,16.45668 c 0.11458,3.05787 3.996,4.23233 5.48555,0.65168 0.6302,-1.50388 0.42968,-6.63137 0.42968,-8.51479 -2.07678,1.56116 -6.02265,5.01291 -5.91523,7.86311 z m 108.63697,-5.61446 c -1.44659,1.50387 -3.39446,4.01749 -2.61388,6.20885 0.90949,2.59955 4.31827,2.49213 5.44975,0 0.47265,-1.0742 0.42252,-2.99343 0.42968,-4.16072 0,0 0,-4.29678 0,-4.29678 -1.56116,0.77342 -1.998,0.9238 -3.26555,2.24865 z m -173.28206,7.87743 c -1.246067,1.32484 -2.950457,3.65226 -2.513617,5.58582 0.601549,2.664 4.060459,3.39445 5.328009,0.59438 0.515614,-1.13864 0.429678,-3.55916 0.429678,-4.8482 0,0 0,-3.58065 0,-3.58065 -1.546841,0.76626 -2.005164,0.91665 -3.24407,2.24865 z"
     inkscape:connector-curvature="0"
     style="fill:#000000;fill-opacity:1;stroke:none;stroke-width:1" />
</svg>
