<?xml version="1.0" encoding="UTF-8" standalone="no"?>
<svg
   xmlns:dc="http://purl.org/dc/elements/1.1/"
   xmlns:cc="http://creativecommons.org/ns#"
   xmlns:rdf="http://www.w3.org/1999/02/22-rdf-syntax-ns#"
   xmlns:svg="http://www.w3.org/2000/svg"
   xmlns="http://www.w3.org/2000/svg"
   xmlns:sodipodi="http://sodipodi.sourceforge.net/DTD/sodipodi-0.dtd"
   xmlns:inkscape="http://www.inkscape.org/namespaces/inkscape"
   width="100"
   height="100"
   viewBox="0 0 333.33266 333.33266"
   id="svg2"
   version="1.1"
   inkscape:version="0.91 r13725"
   sodipodi:docname="rain2.svg">
  <metadata
     id="metadata9">
    <rdf:RDF>
      <cc:Work
         rdf:about="">
        <dc:format>image/svg+xml</dc:format>
        <dc:type
           rdf:resource="http://purl.org/dc/dcmitype/StillImage" />
        <dc:title></dc:title>
      </cc:Work>
    </rdf:RDF>
  </metadata>
  <defs
     id="defs7" />
  <sodipodi:namedview
     pagecolor="#ffffff"
     bordercolor="#666666"
     borderopacity="1"
     objecttolerance="10"
     gridtolerance="10"
     guidetolerance="10"
     inkscape:pageopacity="0"
     inkscape:pageshadow="2"
     inkscape:window-width="1218"
     inkscape:window-height="697"
     id="namedview5"
     showgrid="false"
     units="px"
     inkscape:zoom="1.5733302"
     inkscape:cx="75.000148"
     inkscape:cy="75.000148"
     inkscape:window-x="54"
     inkscape:window-y="-8"
     inkscape:window-maximized="1"
     inkscape:current-layer="svg2" />
  <path
     id="Selection #36"
     d="m 308.36297,128.09717 c 11.20028,9.75369 11.17163,29.66212 -0.70897,38.85723 -5.75769,4.45433 -12.97628,5.37814 -20.05165,5.39246 0,0 -224.148791,0 -224.148791,0 0,0 -7.877434,-0.59439 -7.877434,-0.59439 -9.06621,-0.86651 -14.924156,-1.32484 -22.91617,-6.63853 -13.513379,-8.99459 -16.850547,-24.91417 -15.819319,-40.03168 0.322259,-4.71214 0.08594,-5.90091 1.525358,-10.74196 1.668583,-5.62162 3.895749,-10.68466 7.91324,-15.038734 1.797487,-1.947875 7.411949,-6.409367 8.106595,-8.006337 0,0 2.370391,-11.329182 2.370391,-11.329182 2.886006,-9.72505 7.383304,-18.447517 14.551768,-25.77353 10.835053,-11.064213 23.560688,-15.812157 38.642393,-17.316031 0,0 4.296782,-0.465485 4.296782,-0.465485 0,0 5.729043,0.558582 5.729043,0.558582 8.149564,0.358065 13.778344,1.203099 21.483914,4.189362 5.34949,2.069617 8.29995,3.731039 12.89034,7.225755 1.71871,1.303357 5.41395,4.955622 7.16131,5.32801 1.81897,0.393872 7.87743,-2.578069 10.02582,-3.330006 5.55717,-1.933552 11.3435,-2.69265 17.18713,-3.12949 9.43143,-0.701807 20.86087,4.081943 27.90044,10.126083 2.25581,1.940713 4.09626,4.325427 5.67891,6.831883 1.04555,1.661422 1.80465,3.788329 3.75252,4.554589 2.08394,0.873679 4.86253,-0.243485 7.78434,0 13.09086,0.952453 24.79959,4.103426 32.79161,15.49706 2.30594,3.287038 3.73103,6.065624 4.44717,10.025824 13.95738,0 26.61856,3.444587 34.83257,15.754867 2.44201,3.65943 4.15356,7.78434 4.55459,12.17422 6.40221,0.51561 12.86887,1.50387 17.8961,5.87943 z M 85.854116,193.11463 c 0,0 1.231744,20.05165 1.231744,20.05165 0,3.59498 0.32942,7.34034 -1.059873,10.74196 -1.926391,4.71214 -6.280463,8.08511 -11.114343,9.46008 -11.830473,3.36581 -23.245591,-6.5884 -21.254748,-18.76978 1.009744,-6.15156 6.559754,-11.96653 10.634535,-16.47099 0,0 19.213777,-18.61939 19.213777,-18.61939 1.8691,3.21542 1.876262,9.71789 2.348908,13.60647 z m 150.401694,2.86452 c 0.666,7.15415 2.54942,22.94482 0,29.36135 -1.66859,4.63336 -6.23034,8.4575 -10.9568,9.81098 -1.93355,0.55142 -4.43284,0.96678 -6.44517,0.79491 -9.45292,-0.79491 -15.41112,-9.41712 -15.01009,-18.48333 0.28645,-6.48097 4.98427,-11.35066 9.28105,-15.75486 0,0 6.50962,-7.09685 6.50962,-7.09685 0,0 14.25816,-13.67093 14.25816,-13.67093 1.41794,3.31568 1.84761,11.11434 2.36323,15.03873 z m 37.94058,53.70978 c 0,0 1.23175,20.76778 1.23175,20.76778 -0.0143,8.73679 -3.35149,15.12467 -12.17422,17.86745 -2.16271,0.67316 -4.18936,0.82355 -6.44517,0.72329 -10.57725,-0.46548 -17.58816,-12.43202 -14.24383,-22.17139 2.00516,-5.85079 8.48614,-12.14557 12.81157,-16.471 4.60472,-4.60472 11.57982,-12.05247 16.47099,-15.75487 1.62562,3.52336 1.84046,10.87802 2.34891,15.03874 z m -104.75554,21.48391 c -0.007,4.89833 -0.26497,8.0493 -3.53052,12.05247 -10.03299,12.32461 -29.08922,5.96537 -30.06316,-9.90408 -0.60155,-9.83247 9.38131,-18.03932 15.69042,-24.34843 3.8671,-3.8671 10.4197,-11.42228 15.03874,-13.60648 1.95503,10.90667 2.87884,24.7065 2.86452,35.80652 z m -68.548,-15.03874 c 0,0 1.23175,13.60648 1.23175,13.60648 0.1289,11.11434 1.30335,22.49365 -12.174219,26.37508 -2.083939,0.60155 -4.275298,0.92381 -6.445173,0.76626 -9.102016,-0.6302 -15.582996,-9.7895 -14.967124,-18.54778 0.522775,-7.56233 8.457499,-14.97428 13.534863,-20.05165 4.604718,-4.60471 11.579828,-12.05247 16.470998,-15.75486 1.790325,3.5162 1.854775,9.5675 2.348905,13.60647 z"
     inkscape:connector-curvature="0"
     style="fill:#000000;fill-opacity:1;stroke:none;stroke-width:1" />
</svg>
