<?xml version="1.0" encoding="UTF-8" standalone="no"?>
<svg
   xmlns:dc="http://purl.org/dc/elements/1.1/"
   xmlns:cc="http://creativecommons.org/ns#"
   xmlns:rdf="http://www.w3.org/1999/02/22-rdf-syntax-ns#"
   xmlns:svg="http://www.w3.org/2000/svg"
   xmlns="http://www.w3.org/2000/svg"
   xmlns:sodipodi="http://sodipodi.sourceforge.net/DTD/sodipodi-0.dtd"
   xmlns:inkscape="http://www.inkscape.org/namespaces/inkscape"
   width="100"
   height="100"
   viewBox="0 0 333.33269 333.33269"
   id="svg2"
   version="1.1"
   inkscape:version="0.91 r13725"
   sodipodi:docname="Raygun.svg">
  <metadata
     id="metadata9">
    <rdf:RDF>
      <cc:Work
         rdf:about="">
        <dc:format>image/svg+xml</dc:format>
        <dc:type
           rdf:resource="http://purl.org/dc/dcmitype/StillImage" />
        <dc:title />
      </cc:Work>
    </rdf:RDF>
  </metadata>
  <defs
     id="defs7" />
  <sodipodi:namedview
     pagecolor="#ffffff"
     bordercolor="#666666"
     borderopacity="1"
     objecttolerance="10"
     gridtolerance="10"
     guidetolerance="10"
     inkscape:pageopacity="0"
     inkscape:pageshadow="2"
     inkscape:window-width="1218"
     inkscape:window-height="697"
     id="namedview5"
     showgrid="false"
     units="px"
     inkscape:zoom="1.5733302"
     inkscape:cx="-33.368712"
     inkscape:cy="75.000148"
     inkscape:window-x="54"
     inkscape:window-y="-8"
     inkscape:window-maximized="1"
     inkscape:current-layer="svg2" />
  <path
     id="Unnamed #48"
     d="m 110.78131,185.18951 c 0,3.74336 -7.48673,0 -11.23009,7.48672 -3.743364,7.48673 0,11.2301 0,14.97346 0,3.74336 -7.486727,0 -11.230091,7.48673 -3.743363,7.48672 0,11.23009 0,14.97345 0,3.74336 -7.486727,0 -11.230091,7.48673 -3.743363,7.48672 0,11.23009 0,14.97345 22.460182,0 63.637182,-44.92036 63.637182,-89.84072 l -11.23009,0 c -11.23009,0 -3.74337,18.71681 -3.74337,22.46018 0,3.74336 -11.23009,-14.97346 -3.74336,-22.46018 l -7.48673,0 c -11.23009,0 -3.74336,18.71681 -3.74336,22.46018 z m -37.433635,74.86727 c -41.176999,-3.74336 -48.663726,11.23009 -56.150453,0 -7.4867272,-11.23009 67.260756,-93.30708 37.538449,-97.98629 -22.587455,-3.55619 -37.538449,23.11902 -37.538449,-33.03144 0,-56.150452 14.921047,-29.46027 37.463582,-33.023952 112.270956,3.077045 86.067416,-26.869863 86.067416,-26.869863 0,0 26.2859,2.695221 26.20354,44.920365 41.76845,3.74336 -3.74336,-41.177002 82.354,-41.177002 l 0,52.407092 11.23009,0 0,-14.97346 c 0,-18.716814 11.23009,-18.716814 11.23009,0 l 0,14.97346 7.48673,0 0,-7.48673 c 0,-18.716817 11.23009,-18.716817 11.23009,0 l 0,7.48673 11.23009,0 c 0,-7.48673 14.97345,-11.23009 14.97345,3.74336 0,14.97346 -14.97345,11.2301 -14.97345,3.74337 l -11.23009,0 0,7.48673 c 0,18.71681 -11.23009,18.71681 -11.23009,0 l 0,-7.48673 -7.48673,0 0,14.97345 c 0,18.71682 -11.23009,18.71682 -11.23009,0 l 0,-14.97345 -11.23009,0 0,52.40709 c -86.09736,0 -41.177,-44.92036 -82.354,-41.177 0,26.20354 -14.97345,26.20354 -14.97345,26.20354 0,11.23009 -37.43364,93.58409 -78.610635,89.84073 z"
     inkscape:connector-curvature="0"
     style="fill:#000000;fill-opacity:1;stroke:none;stroke-width:1"
     sodipodi:nodetypes="ssssssccsscssssssccccccssccssccsccssccsscccccs" />
</svg>
