<?xml version="1.0" encoding="UTF-8" standalone="no"?>
<svg
   xmlns:dc="http://purl.org/dc/elements/1.1/"
   xmlns:cc="http://creativecommons.org/ns#"
   xmlns:rdf="http://www.w3.org/1999/02/22-rdf-syntax-ns#"
   xmlns:svg="http://www.w3.org/2000/svg"
   xmlns="http://www.w3.org/2000/svg"
   xmlns:sodipodi="http://sodipodi.sourceforge.net/DTD/sodipodi-0.dtd"
   xmlns:inkscape="http://www.inkscape.org/namespaces/inkscape"
   width="100"
   height="100"
   viewBox="0 0 333.33269 333.33269"
   id="svg2"
   version="1.1"
   inkscape:version="0.91 r13725"
   sodipodi:docname="RemoveATile.svg">
  <metadata
     id="metadata9">
    <rdf:RDF>
      <cc:Work
         rdf:about="">
        <dc:format>image/svg+xml</dc:format>
        <dc:type
           rdf:resource="http://purl.org/dc/dcmitype/StillImage" />
        <dc:title></dc:title>
      </cc:Work>
    </rdf:RDF>
  </metadata>
  <defs
     id="defs7" />
  <sodipodi:namedview
     pagecolor="#ffffff"
     bordercolor="#666666"
     borderopacity="1"
     objecttolerance="10"
     gridtolerance="10"
     guidetolerance="10"
     inkscape:pageopacity="0"
     inkscape:pageshadow="2"
     inkscape:window-width="1218"
     inkscape:window-height="697"
     id="namedview5"
     showgrid="false"
     units="px"
     inkscape:zoom="1.5733302"
     inkscape:cx="75.000148"
     inkscape:cy="75.000148"
     inkscape:window-x="54"
     inkscape:window-y="-8"
     inkscape:window-maximized="1"
     inkscape:current-layer="svg2" />
  <path
     id="Selection"
     d="m 250.18015,61.338922 c 0,0 -10.78129,0 -10.78129,0 0,0 0,124.399458 0,124.399458 0,0 -19.90391,0 -19.90391,0 0,0 0,-124.399458 0,-124.399458 0,0 -9.95195,0 -9.95195,0 0,0 19.90391,-20.733242 19.90391,-20.733242 6.07069,4.345688 16.38755,14.662549 20.73324,20.733242 z M 30.076046,120.22133 c 0,0 19.90391,-24.879891 19.90391,-24.879891 2.33871,-2.927533 9.27191,-12.415065 12.18286,-13.625886 1.40986,-0.588824 3.99737,-0.472718 5.5648,-0.472718 0,0 74.639674,0 74.639674,0 9.00652,0.01659 9.55388,3.864676 15.0938,10.781286 0,0 23.22123,29.026539 23.22123,29.026539 5.06721,6.33608 6.9332,11.55256 15.5914,11.61062 0,0 18.24525,0 18.24525,0 0,0 0,7.46396 0,7.46396 0,0 -18.24525,0 -18.24525,0 -7.82887,0.0498 -8.85724,3.33391 -13.75029,9.12263 0,0 -16.03923,19.07458 -16.03923,19.07458 0,0 -9.79439,11.61062 -9.79439,11.61062 -1.19423,1.41815 -3.49977,3.91444 -3.59099,5.80531 -0.1244,2.71191 7.21517,10.82275 9.17238,13.26927 0,0 19.73805,24.87989 19.73805,24.87989 5.53992,6.91661 6.08728,10.7647 15.0938,10.78129 0,0 64.68772,0 64.68772,0 9.18897,-0.0166 9.95195,-3.79833 15.59139,-10.78129 0,0 18.91701,-23.22123 18.91701,-23.22123 2.01527,-2.47969 9.47095,-10.47443 9.47095,-13.26927 0,-1.93234 -2.18114,-4.3374 -3.3422,-5.80531 0,0 -10.11782,-12.43995 -10.11782,-12.43995 0,0 -16.25486,-19.90391 -16.25486,-19.90391 -4.13007,-5.15843 -5.54822,-8.98993 -12.60582,-9.12263 0,0 -19.07458,0 -19.07458,0 0,0 0,-7.46396 0,-7.46396 0,0 21.56257,0 21.56257,0 9.5373,0.0166 10.0266,3.79833 15.82361,10.78128 0,0 19.63024,24.05056 19.63024,24.05056 0,0 11.49451,14.09861 11.49451,14.09861 1.80794,2.25578 4.23787,4.37886 2.94412,7.46397 0,0 -10.41638,13.26927 -10.41638,13.26927 0,0 -23.65249,29.02654 -23.65249,29.02654 -5.79701,6.98296 -6.28631,10.7647 -15.82361,10.78129 0,0 -69.66369,0 -69.66369,0 -1.61719,0 -4.19641,-0.0995 -5.66432,0.49759 -2.88607,1.17765 -8.08597,8.43429 -10.30028,11.11302 0,0 -22.35043,27.36788 -22.35043,27.36788 -5.80531,7.19029 -6.73416,11.59403 -16.42073,11.61062 0,0 -72.981014,0 -72.981014,0 -1.70013,0 -4.22958,0.0912 -5.79702,-0.4976 -3.38366,-1.27717 -8.82406,-8.907 -11.29547,-11.94235 0,0 -31.71356,-38.97849 -31.71356,-38.97849 -0.66347,-1.04496 -1.26888,-2.03186 -1.26888,-3.31732 0,-2.79484 6.34437,-10.01831 8.27671,-12.43995 0,0 21.79479,-27.36788 21.79479,-27.36788 1.65866,-2.14796 8.01132,-9.55388 8.37623,-11.61061 0.56394,-3.25098 -7.62154,-11.40329 -9.86903,-14.09861 0,0 -29.922211,-36.49051 -29.922211,-36.49051 0,0 12.937541,-15.75726 12.937541,-15.75726 z m 25.04576,-19.07458 c 0,0 -18.07939,22.3919 -18.07939,22.3919 -1.8577,2.31383 -8.57527,10.01001 -8.89041,12.43994 -0.38979,3.05194 6.46048,9.93537 8.55039,12.43995 0,0 18.9253,22.3919 18.9253,22.3919 5.70579,6.80051 6.39413,10.7647 15.41724,10.78129 0,0 68.005034,0 68.005034,0 9.02311,-0.0166 9.71145,-3.98078 15.41724,-10.78129 0,0 18.24525,-21.56257 18.24525,-21.56257 1.93234,-2.33042 9.05628,-9.93537 9.25532,-12.43995 0.2488,-2.969 -6.87514,-10.71494 -8.91529,-13.26927 0,0 -19.39802,-24.050562 -19.39802,-24.050562 -5.77214,-7.107356 -6.10387,-10.7647 -15.43383,-10.781286 0,0 -47.271794,0 -47.271794,0 -5.58139,0 -20.30199,-0.489305 -24.84672,0.497598 -4.37886,2.471402 -7.82058,7.994738 -10.98032,11.94235 z m 0.4976,100.34889 c 0,0 -19.07459,24.05056 -19.07459,24.05056 -1.89916,2.37189 -8.55868,9.75292 -8.50892,12.43995 0.058,2.5958 6.9332,10.05977 8.84066,12.43994 0,0 19.57218,24.05056 19.57218,24.05056 5.52333,6.90003 6.36095,10.7647 15.42553,10.78129 0,0 66.346374,0 66.346374,0 9.06458,-0.0166 9.9022,-3.88126 15.42553,-10.78129 0,0 18.92531,-23.22123 18.92531,-23.22123 2.01527,-2.46311 9.46265,-10.49102 9.46265,-13.26927 0,-2.27237 -3.86468,-6.4356 -5.316,-8.2933 0,0 -16.27975,-20.73324 -16.27975,-20.73324 0,0 -9.23873,-11.61062 -9.23873,-11.61062 -1.40157,-1.80794 -4.01395,-5.53992 -5.87995,-6.64293 -1.725,-1.02007 -4.31251,-0.82103 -6.26973,-0.82103 0,0 -48.930454,0 -48.930454,0 0,0 -24.63109,0.47271 -24.63109,0.47271 -3.60758,2.32213 -7.10736,7.6796 -9.86902,11.1379 z"
     inkscape:connector-curvature="0"
     style="fill:#000000;fill-opacity:1;stroke:none;stroke-width:0.82932967" />
</svg>
