<?xml version="1.0" encoding="UTF-8" standalone="no"?>
<svg
   xmlns:dc="http://purl.org/dc/elements/1.1/"
   xmlns:cc="http://creativecommons.org/ns#"
   xmlns:rdf="http://www.w3.org/1999/02/22-rdf-syntax-ns#"
   xmlns:svg="http://www.w3.org/2000/svg"
   xmlns="http://www.w3.org/2000/svg"
   xmlns:sodipodi="http://sodipodi.sourceforge.net/DTD/sodipodi-0.dtd"
   xmlns:inkscape="http://www.inkscape.org/namespaces/inkscape"
   width="100"
   height="100"
   viewBox="0 0 333.33266 333.33266"
   id="svg2"
   version="1.1"
   inkscape:version="0.91 r13725"
   sodipodi:docname="reroll2.svg">
  <metadata
     id="metadata9">
    <rdf:RDF>
      <cc:Work
         rdf:about="">
        <dc:format>image/svg+xml</dc:format>
        <dc:type
           rdf:resource="http://purl.org/dc/dcmitype/StillImage" />
        <dc:title></dc:title>
      </cc:Work>
    </rdf:RDF>
  </metadata>
  <defs
     id="defs7" />
  <sodipodi:namedview
     pagecolor="#ffffff"
     bordercolor="#666666"
     borderopacity="1"
     objecttolerance="10"
     gridtolerance="10"
     guidetolerance="10"
     inkscape:pageopacity="0"
     inkscape:pageshadow="2"
     inkscape:window-width="1218"
     inkscape:window-height="697"
     id="namedview5"
     showgrid="false"
     units="px"
     inkscape:zoom="1.5733302"
     inkscape:cx="75.000148"
     inkscape:cy="75.000148"
     inkscape:window-x="54"
     inkscape:window-y="-8"
     inkscape:window-maximized="1"
     inkscape:current-layer="svg2" />
  <path
     id="Selection #42"
     d="m 198.97396,137.71277 c -11.06152,4.84615 -7.34614,17.58458 1.53846,18.71535 12.28459,1.57692 14.82304,-17.27689 2.30768,-18.71535 -1.60769,-0.36923 -2.33076,-0.13846 -3.84614,0 z m 76.92292,-76.922915 c -11.06152,4.846144 -7.34614,17.584579 1.53846,18.715346 12.28459,1.57692 14.82304,-17.276888 2.30768,-18.715346 -1.60769,-0.36923 -2.33076,-0.138462 -3.84614,0 z m -57.69219,-28.676865 80.76906,0 c 12.73075,-0.06154 17.6692,5.992295 17.69228,18.338424 l 0,116.922836 c -0.0231,13.0769 -5.38461,18.43843 -18.46151,18.4615 l -116.92284,0 c -13.07689,-0.0231 -18.43842,-5.3846 -18.4615,-18.4615 l 0,-101.538252 0,-15.384584 c 0.0154,-9.361519 2.36923,-15.676891 12.30767,-18.338424 z m -97.69211,38.338384 0,19.23073 c -46.153756,0 -103.845947,38.461456 -103.845947,107.692086 0,49.9999 42.307607,103.84594 103.845947,103.84594 57.69219,0 107.69209,-46.15375 107.69209,-103.84594 l -38.46146,0 c 0,38.46146 -34.61532,65.38448 -69.23063,65.38448 -34.615318,0 -65.384486,-30.76916 -65.384486,-65.38448 0,-34.61531 26.923022,-69.23063 65.384486,-69.23063 l 0,19.23073 38.46146,-38.46146 z"
     inkscape:connector-curvature="0"
     style="fill:#000000;fill-opacity:1;stroke:none;stroke-width:1"
     sodipodi:nodetypes="cccccccccccccccccccccssccsscccc" />
</svg>
