<?xml version="1.0" encoding="UTF-8" standalone="no"?>
<svg
   xmlns:dc="http://purl.org/dc/elements/1.1/"
   xmlns:cc="http://creativecommons.org/ns#"
   xmlns:rdf="http://www.w3.org/1999/02/22-rdf-syntax-ns#"
   xmlns:svg="http://www.w3.org/2000/svg"
   xmlns="http://www.w3.org/2000/svg"
   xmlns:sodipodi="http://sodipodi.sourceforge.net/DTD/sodipodi-0.dtd"
   xmlns:inkscape="http://www.inkscape.org/namespaces/inkscape"
   width="100"
   height="100"
   viewBox="0 0 333.33269 333.33269"
   id="svg2"
   version="1.1"
   inkscape:version="0.91 r13725"
   sodipodi:docname="resume.svg">
  <metadata
     id="metadata9">
    <rdf:RDF>
      <cc:Work
         rdf:about="">
        <dc:format>image/svg+xml</dc:format>
        <dc:type
           rdf:resource="http://purl.org/dc/dcmitype/StillImage" />
        <dc:title></dc:title>
      </cc:Work>
    </rdf:RDF>
  </metadata>
  <defs
     id="defs7" />
  <sodipodi:namedview
     pagecolor="#ffffff"
     bordercolor="#666666"
     borderopacity="1"
     objecttolerance="10"
     gridtolerance="10"
     guidetolerance="10"
     inkscape:pageopacity="0"
     inkscape:pageshadow="2"
     inkscape:window-width="1218"
     inkscape:window-height="697"
     id="namedview5"
     showgrid="false"
     units="px"
     inkscape:zoom="1.5733302"
     inkscape:cx="75.000148"
     inkscape:cy="75.000148"
     inkscape:window-x="54"
     inkscape:window-y="-8"
     inkscape:window-maximized="1"
     inkscape:current-layer="svg2" />
  <path
     id="Selection #73"
     d="m 70.494285,61.881854 c 0.0143,-8.05261 3.78946,-9.53108 9.33012,-15.07174 0,0 21.531065,-21.53106 21.531065,-21.53106 5.6842,-5.69137 5.92822,-8.59807 13.63634,-8.61242 0,0 147.8466,0 147.8466,0 0,0 0,299.999426 0,299.999426 0,0 -192.344125,0 -192.344125,0 0,0 0,-254.784206 0,-254.784206 z m 48.803735,-32.29659 c 0,0 0,35.8851 0,35.8851 0,0 -35.885105,0 -35.885105,0 0,0 0,238.277066 0,238.277066 0,0 166.506865,0 166.506865,0 0,0 0,-274.162166 0,-274.162166 0,0 -130.62176,0 -130.62176,0 z m -20.095655,15.78945 c 0,0 -5.74162,7.17702 -5.74162,7.17702 0,0 12.918635,0 12.918635,0 0,0 0,-12.91864 0,-12.91864 0,0 -7.177015,5.74162 -7.177015,5.74162 z m 71.052495,7.17702 c 0,0 46.65063,0 46.65063,0 2.39712,0.007 5.02391,-0.19378 7.09807,1.2488 4.01913,2.79186 3.63157,8.53348 -0.66746,10.83012 -1.85885,0.99043 -4.37081,0.83971 -6.43061,0.83971 0,0 -64.59318,0 -64.59318,0 -2.39712,-0.007 -5.02391,0.19378 -7.09807,-1.2488 -4.70813,-3.27272 -3.17942,-8.62678 1.37081,-11.13873 4.24879,-1.04067 18.40188,-0.5311 23.66981,-0.5311 z m -46.65063,35.885101 c 0,0 22.24876,0 22.24876,0 0,0 71.0525,0 71.0525,0 2.39712,0.007 5.02391,-0.19378 7.09807,1.2488 4.01913,2.79186 3.63157,8.533469 -0.66746,10.830115 -1.85885,0.99043 -4.37081,0.83971 -6.43061,0.83971 0,0 -100.47828,0 -100.47828,0 -2.39712,-0.007 -5.02391,0.19378 -7.09807,-1.2488 -4.70812,-3.272716 -3.17942,-8.626775 1.37081,-11.138725 3.83253,-0.93302 8.87797,-0.5311 12.90428,-0.5311 z m 0,35.885085 c 0,0 22.24876,0 22.24876,0 0,0 71.0525,0 71.0525,0 2.0598,0 4.57176,-0.15071 6.43061,0.83972 4.29903,2.29664 4.68659,8.03826 0.66746,10.83012 -2.07416,1.44258 -4.70095,1.24162 -7.09807,1.2488 0,0 -100.47828,0 -100.47828,0 -2.39712,-0.007 -5.02391,0.19378 -7.09807,-1.2488 -4.70812,-3.27272 -3.17942,-8.62678 1.37081,-11.13874 3.83253,-0.93301 8.87797,-0.5311 12.90428,-0.5311 z m 0,35.8851 c 0,0 22.24876,0 22.24876,0 0,0 71.0525,0 71.0525,0 2.0598,0 4.57176,-0.15072 6.43061,0.83971 4.29903,2.29665 4.68659,8.03827 0.66746,10.83013 -2.07416,1.44258 -4.70095,1.24162 -7.09807,1.2488 0,0 -100.47828,0 -100.47828,0 -2.39712,-0.007 -5.02391,0.19378 -7.09807,-1.2488 -4.70812,-3.27272 -3.17942,-8.62678 1.37081,-11.13874 3.83253,-0.93301 8.87797,-0.5311 12.90428,-0.5311 z m 0,35.88511 c 0,0 22.24876,0 22.24876,0 0,0 71.0525,0 71.0525,0 2.39712,0.007 5.02391,-0.19378 7.09807,1.2488 4.01913,2.79186 3.63157,8.53348 -0.66746,10.83012 -1.85885,0.99043 -4.37081,0.83972 -6.43061,0.83972 0,0 -100.47828,0 -100.47828,0 -2.39712,-0.007 -5.02391,0.19378 -7.09807,-1.24881 -4.70812,-3.27272 -3.17942,-8.62677 1.37081,-11.13873 3.83253,-0.93301 8.87797,-0.5311 12.90428,-0.5311 z m 0,35.8851 c 0,0 22.24876,0 22.24876,0 0,0 71.0525,0 71.0525,0 2.0598,0 4.57176,-0.15072 6.43061,0.83971 4.29903,2.29665 4.68659,8.03826 0.66746,10.83012 -2.07416,1.44258 -4.70095,1.24163 -7.09807,1.2488 0,0 -100.47828,0 -100.47828,0 -2.39712,-0.007 -5.02391,0.19378 -7.09807,-1.2488 -4.70812,-3.27272 -3.17942,-8.62677 1.37081,-11.13873 3.83253,-0.93301 8.87797,-0.5311 12.90428,-0.5311 z m 0,35.8851 c 0,0 22.24876,0 22.24876,0 0,0 71.0525,0 71.0525,0 2.39712,0.007 5.02391,-0.19378 7.09807,1.2488 4.01913,2.79186 3.63157,8.53348 -0.66746,10.83012 -1.85885,0.99043 -4.37081,0.83971 -6.43061,0.83971 0,0 -100.47828,0 -100.47828,0 -2.39712,-0.007 -5.02391,0.19378 -7.09807,-1.2488 -4.70812,-3.27272 -3.17942,-8.62678 1.37081,-11.13873 3.83253,-0.93302 8.87797,-0.5311 12.90428,-0.5311 z"
     style="fill:#000000;fill-opacity:1;stroke:none;stroke-width:1"
     inkscape:connector-curvature="0" />
</svg>
