<?xml version="1.0" encoding="UTF-8" standalone="no"?>
<svg
   xmlns:dc="http://purl.org/dc/elements/1.1/"
   xmlns:cc="http://creativecommons.org/ns#"
   xmlns:rdf="http://www.w3.org/1999/02/22-rdf-syntax-ns#"
   xmlns:svg="http://www.w3.org/2000/svg"
   xmlns="http://www.w3.org/2000/svg"
   xmlns:sodipodi="http://sodipodi.sourceforge.net/DTD/sodipodi-0.dtd"
   xmlns:inkscape="http://www.inkscape.org/namespaces/inkscape"
   width="100"
   height="100"
   viewBox="0 0 333.33269 333.33269"
   id="svg2"
   version="1.1"
   inkscape:version="0.91 r13725"
   sodipodi:docname="rope.svg">
  <metadata
     id="metadata9">
    <rdf:RDF>
      <cc:Work
         rdf:about="">
        <dc:format>image/svg+xml</dc:format>
        <dc:type
           rdf:resource="http://purl.org/dc/dcmitype/StillImage" />
        <dc:title></dc:title>
      </cc:Work>
    </rdf:RDF>
  </metadata>
  <defs
     id="defs7" />
  <sodipodi:namedview
     pagecolor="#ffffff"
     bordercolor="#666666"
     borderopacity="1"
     objecttolerance="10"
     gridtolerance="10"
     guidetolerance="10"
     inkscape:pageopacity="0"
     inkscape:pageshadow="2"
     inkscape:window-width="1218"
     inkscape:window-height="697"
     id="namedview5"
     showgrid="false"
     units="px"
     inkscape:zoom="1.5733302"
     inkscape:cx="75.000148"
     inkscape:cy="75.000148"
     inkscape:window-x="54"
     inkscape:window-y="-8"
     inkscape:window-maximized="1"
     inkscape:current-layer="svg2" />
  <path
     id="Selection #69"
     d="m 82.731342,73.36349 c 0.05742,-4.865882 1.442541,-12.55943 2.885081,-17.224359 8.11698,-26.216914 32.554037,-35.180758 57.400177,-38.144784 0,0 15.789,-1.327711 15.789,-1.327711 0,0 15.789,0 15.789,0 0,0 8.61218,0.653091 8.61218,0.653091 14.33928,1.047815 28.92975,3.631469 41.62554,10.729341 25.42029,14.210098 28.1403,39.9964 24.91791,66.127191 0,0 -2.61236,17.942041 -2.61236,17.942041 0,0 -1.32771,10.03319 -1.32771,10.03319 0.31578,3.50229 3.84677,4.16973 6.26536,5.97111 3.88265,2.89943 6.75338,7.71508 6.24383,12.70297 -0.35884,3.48075 -2.18175,5.84193 -2.18175,7.8945 0,2.44729 2.65542,5.47591 2.18175,10.04754 -0.35884,3.48076 -2.18175,5.84193 -2.18175,7.8945 0,2.44729 2.65542,5.47591 2.18175,10.04754 -0.35884,3.48077 -2.18175,5.84194 -2.18175,7.89451 0,2.05257 1.82291,4.41374 2.18175,7.8945 0.51673,5.00941 -2.1674,8.36816 -4.77976,12.20059 8.13133,3.98313 23.07346,16.24113 26.98483,24.40117 4.11232,8.58348 -0.84686,17.41096 -10.47815,17.91334 -9.17915,0.47367 -12.71015,-4.08361 -20.09509,-7.86579 0,0 1.55019,11.4829 1.55019,11.4829 1.77268,16.57128 1.03346,33.7454 -11.00206,46.62061 -8.33946,8.92078 -20.66206,12.92545 -32.17367,15.7244 -15.88947,3.86113 -34.63532,3.71042 -50.9554,3.68171 0,0 -8.61218,-0.65309 -8.61218,-0.65309 -16.07607,-1.10523 -33.5588,-3.30851 -47.36699,-12.33695 -24.480126,-16.01148 -19.10469,-46.434 -15.695702,-70.97872 0,0 2.246343,-22.16919 2.246343,-22.16919 -0.394724,-2.99991 -3.114738,-2.71283 -6.617025,-5.31802 -3.889835,-2.89225 -6.753385,-7.72943 -6.243831,-12.70296 0.358841,-3.48076 2.181753,-5.84193 2.181753,-7.8945 0,-2.4473 -2.655423,-5.47591 -2.181753,-10.04755 0.358841,-3.48076 2.181753,-5.84193 2.181753,-7.8945 0,-2.4473 -2.655423,-5.47591 -2.181753,-10.04755 0.358841,-3.48075 2.181753,-5.84193 2.181753,-7.89449 0,-2.05257 -1.822912,-4.41375 -2.181753,-7.8945 -0.516731,-5.00942 2.167399,-8.36817 4.77976,-12.20059 -8.131333,-3.98314 -23.073466,-16.24114 -26.984831,-24.40118 -4.743877,-9.896828 2.196105,-18.329588 12.631197,-17.913332 7.8012,0.315779 12.308242,4.93765 18.659725,8.583473 -1.5789,-6.487843 -1.514309,-14.820127 -1.435364,-21.530451 z m 148.847188,50.22336 c 1.22723,-0.96887 1.24159,-3.53099 1.44971,-5.00941 0,0 1.6722,-11.48291 1.6722,-11.48291 2.64825,-16.1909 6.129,-37.900771 -1.52866,-53.108444 -4.87306,-9.69588 -14.18857,-15.272267 -24.12846,-18.659725 -15.88947,-5.41132 -32.88417,-5.935228 -49.52004,-5.741454 0,0 -7.17681,0.65309 -7.17681,0.65309 -21.22903,1.485601 -46.6852,6.423252 -54.285446,29.48954 -1.406657,4.26303 -2.389881,11.281957 -2.411411,15.788998 -0.05742,12.545076 2.167399,24.932265 4.004664,37.319445 1.550193,10.44227 0.33731,11.29631 6.042883,11.48291 -0.15789,-7.10505 -3.89701,-21.09984 -5.4185,-28.707268 0,0 -2.246344,-17.22436 -2.246344,-17.22436 -0.15789,-2.145869 0.739212,-10.004483 1.320535,-12.200589 8.109799,-30.946433 48.106199,-31.621055 73.806389,-31.577994 5.23907,0.0072 16.97317,1.284651 22.24813,2.21046 8.46147,1.485601 18.18605,4.664931 25.11886,9.817886 2.57648,1.91621 6.27254,5.497442 8.17439,8.066742 15.12873,20.382159 -0.59567,51.084583 -0.99757,69.615123 1.21288,-0.0431 2.86355,0.0646 3.87548,-0.73204 z M 216.36368,112.1183 c 2.92096,-14.676589 5.61944,-21.035249 5.59791,-36.601765 -0.007,-6.129002 -0.99758,-10.973354 -5.2606,-15.724406 -8.55477,-9.537988 -32.61146,-12.243648 -44.97712,-12.265179 0,0 -11.4829,0 -11.4829,0 0,0 -7.17682,0.653091 -7.17682,0.653091 -11.15995,0.782273 -28.50632,2.849196 -36.36493,11.612088 -4.26303,4.751052 -5.25343,9.595404 -5.26061,15.724406 -0.0215,15.566516 2.67695,21.925176 5.59792,36.601765 2.26787,11.41831 0.66026,11.99246 6.60267,12.20059 -0.43061,-19.72907 -18.60231,-46.067988 0.71768,-62.201473 5.58356,-4.664929 13.06898,-6.731852 20.09509,-7.951911 4.56445,-0.796627 11.91351,-1.607607 16.50668,-1.614784 18.05687,-0.02871 50.06547,-0.480847 56.02941,21.530449 0.64591,2.375527 0.94016,6.143356 0.85404,8.612181 -0.53109,14.289043 -7.82273,29.783788 -8.0811,41.625538 5.94241,-0.20813 4.3348,-0.78228 6.60268,-12.20059 z M 129.30171,76.234216 c -0.76075,1.980802 -0.66027,5.030949 -0.63874,7.176817 0.0861,7.277293 4.4281,20.877357 6.15771,28.707267 0.40908,1.8588 1.68655,10.08343 2.46882,11.0523 1.1483,1.42101 4.05491,1.14829 5.7271,1.14829 0,0 47.367,0 47.367,0 1.6722,0 4.57881,0.27272 5.7271,-1.14829 0.78227,-0.96887 2.05974,-9.1935 2.46882,-11.0523 1.72962,-7.82991 6.07159,-21.429974 6.15771,-28.707267 0.0287,-2.497532 0.17225,-5.619447 -0.94016,-7.894498 -3.97596,-8.131334 -17.08083,-8.691126 -24.89638,-9.451868 0,0 -6.45914,-0.495201 -6.45914,-0.495201 0,0 -15.07131,0 -15.07131,0 -8.43994,1.313358 -24.37965,1.011931 -28.06853,10.66475 z M 70.530753,105.63046 c 4.12667,3.97596 11.425493,9.61693 16.50668,12.2293 -0.409079,-5.05248 -2.641069,-6.05006 -6.459136,-9.02844 -5.612271,-4.37068 -8.238986,-6.10747 -14.353634,-9.631289 0.03588,2.777429 2.382703,4.585989 4.30609,6.430429 z m 160.760697,31.6067 c 0,0 -21.53045,0 -21.53045,0 0,0 -85.40412,0 -85.40412,0 0,0 -27.271904,0 -27.271904,0 -4.004664,0.0215 -6.38019,-0.13636 -9.329862,2.87072 4.973534,2.8492 8.841839,2.15305 14.353636,2.15305 0,0 21.53045,0 21.53045,0 0,0 85.40412,0 85.40412,0 0,0 27.27191,0 27.27191,0 4.00466,-0.0215 6.38019,0.13636 9.32986,-2.87073 -4.97354,-2.84919 -8.84184,-2.15304 -14.35364,-2.15304 z m 0,17.94204 c 0,0 -21.53045,0 -21.53045,0 0,0 -85.40412,0 -85.40412,0 0,0 -27.271904,0 -27.271904,0 -4.004664,0.0215 -6.38019,-0.13636 -9.329862,2.87073 4.973534,2.84919 8.841839,2.15304 14.353636,2.15304 0,0 21.53045,0 21.53045,0 0,0 85.40412,0 85.40412,0 0,0 27.27191,0 27.27191,0 4.00466,-0.0215 6.38019,0.13636 9.32986,-2.87072 -4.97354,-2.8492 -8.84184,-2.15305 -14.35364,-2.15305 z m 0,17.94204 c 0,0 -21.53045,0 -21.53045,0 0,0 -85.40412,0 -85.40412,0 0,0 -27.271904,0 -27.271904,0 -4.004664,0.0215 -6.38019,-0.13636 -9.329862,2.87073 4.973534,2.8492 8.841839,2.15304 14.353636,2.15304 0,0 21.53045,0 21.53045,0 0,0 85.40412,0 85.40412,0 0,0 27.27191,0 27.27191,0 4.00466,-0.0215 6.38019,0.13636 9.32986,-2.87072 -4.97354,-2.8492 -8.84184,-2.15305 -14.35364,-2.15305 z m 0,17.94205 c 0,0 -21.53045,0 -21.53045,0 0,0 -85.40412,0 -85.40412,0 0,0 -27.271904,0 -27.271904,0 -4.004664,0.0215 -6.38019,-0.13636 -9.329862,2.87073 4.973534,2.8492 8.841839,2.15304 14.353636,2.15304 0,0 21.53045,0 21.53045,0 0,0 85.40412,0 85.40412,0 0,0 27.27191,0 27.27191,0 4.00466,-0.0215 6.38019,0.13636 9.32986,-2.87072 -4.97354,-2.8492 -8.84184,-2.15305 -14.35364,-2.15305 z m -129.90038,17.94205 c -0.8684,18.93962 -5.963938,37.69982 -5.741457,56.69685 0.107652,9.20068 2.806135,18.78173 10.047547,24.8892 12.17906,10.26285 30.75266,11.4542 45.93163,12.49484 0,0 8.61218,0.65309 8.61218,0.65309 17.31048,0.0287 34.90086,-0.32296 51.67308,-5.12425 10.01884,-2.87072 19.58553,-7.98779 24.17152,-17.84156 3.22239,-6.93999 3.18651,-14.76989 3.10038,-22.24814 0,0 -6.45913,-49.52003 -6.45913,-49.52003 0,0 -5.02377,0 -5.02377,0 0,0 7.2414,42.34322 7.2414,42.34322 0.15789,2.23199 0.59568,3.41616 0.42344,5.74145 -0.40908,5.42567 -1.15547,10.77958 -3.38746,15.789 -11.40396,25.59253 -48.72341,25.94419 -72.45715,25.83654 0,0 -7.89449,-0.65309 -7.89449,-0.65309 -18.25783,-1.33489 -39.44379,-5.6051 -49.20426,-23.03041 -11.310665,-20.19556 2.8779,-47.84784 3.27263,-66.02671 0,0 -4.30609,0 -4.30609,0 z m 15.64546,12.20058 c -2.92097,14.6766 -5.61945,21.03526 -5.59792,36.60177 0.007,6.129 0.99758,10.97335 5.26061,15.72441 8.55476,9.53799 32.61145,12.24365 44.97711,12.26518 0,0 11.48291,0 11.48291,0 0,0 7.17681,-0.65309 7.17681,-0.65309 11.15995,-0.78228 28.50632,-2.8492 36.36494,-11.61209 4.26302,-4.75106 5.25343,-9.59541 5.2606,-15.72441 0.0215,-15.56651 -2.67695,-21.92517 -5.59791,-36.60177 -2.26788,-11.41831 -0.66027,-11.99246 -6.60268,-12.20058 0.25837,11.84174 7.55001,27.33649 8.0811,41.62553 0.0861,2.46883 -0.20813,6.23666 -0.85404,8.61218 -5.96394,22.0113 -37.97254,21.55916 -56.02941,21.53046 -4.59317,-0.007 -11.94223,-0.81816 -16.50668,-1.61479 -7.02611,-1.22006 -14.51153,-3.28698 -20.09509,-7.95191 -19.31999,-16.13349 -1.14829,-42.4724 -0.71768,-62.20147 -5.94241,0.20812 -4.3348,0.78227 -6.60267,12.20058 z m 18.94679,-5.74145 c 0,0 -3.10756,13.63595 -3.10756,13.63595 -1.52148,6.10747 -4.14102,14.73401 -4.21279,20.81277 -0.0646,6.18642 0.33731,10.05472 6.45914,13.25558 5.56203,2.90661 12.50919,3.58124 18.65972,4.03338 11.2676,0.81815 22.52803,1.11958 33.73104,-0.83969 5.94241,-1.04782 14.18139,-2.99274 16.58562,-9.27245 0.76075,-1.9808 0.66027,-5.03095 0.63874,-7.17682 -0.0861,-7.27729 -4.42809,-20.87736 -6.15771,-28.70727 -0.40908,-1.85879 -1.68655,-10.08342 -2.46882,-11.05229 -1.14829,-1.42101 -4.0549,-1.14829 -5.7271,-1.14829 0,0 -34.44872,0 -34.44872,0 -4.16256,0 -14.24599,-0.40908 -17.71957,0.4306 -2.09563,1.75832 -1.73679,3.40899 -2.23199,6.02853 z m 110.37945,0.71768 c 0.45214,1.72962 0.64591,2.71284 1.80138,4.18409 3.21522,4.10514 14.73401,11.59056 19.72907,13.75796 -2.66977,-5.64816 -15.4158,-16.2842 -21.53045,-17.94205 z"
     style="fill:#000000;fill-opacity:1;stroke:none;stroke-width:1"
     inkscape:connector-curvature="0" />
</svg>
