<?xml version="1.0" encoding="UTF-8" standalone="no"?>
<svg
   xmlns:dc="http://purl.org/dc/elements/1.1/"
   xmlns:cc="http://creativecommons.org/ns#"
   xmlns:rdf="http://www.w3.org/1999/02/22-rdf-syntax-ns#"
   xmlns:svg="http://www.w3.org/2000/svg"
   xmlns="http://www.w3.org/2000/svg"
   xmlns:sodipodi="http://sodipodi.sourceforge.net/DTD/sodipodi-0.dtd"
   xmlns:inkscape="http://www.inkscape.org/namespaces/inkscape"
   width="100"
   height="100"
   viewBox="0 0 333.33269 333.33269"
   id="svg2"
   version="1.1"
   inkscape:version="0.91 r13725"
   sodipodi:docname="Self.svg">
  <metadata
     id="metadata9">
    <rdf:RDF>
      <cc:Work
         rdf:about="">
        <dc:format>image/svg+xml</dc:format>
        <dc:type
           rdf:resource="http://purl.org/dc/dcmitype/StillImage" />
        <dc:title></dc:title>
      </cc:Work>
    </rdf:RDF>
  </metadata>
  <defs
     id="defs7" />
  <sodipodi:namedview
     pagecolor="#ffffff"
     bordercolor="#666666"
     borderopacity="1"
     objecttolerance="10"
     gridtolerance="10"
     guidetolerance="10"
     inkscape:pageopacity="0"
     inkscape:pageshadow="2"
     inkscape:window-width="1218"
     inkscape:window-height="697"
     id="namedview5"
     showgrid="false"
     units="px"
     inkscape:zoom="1.5733302"
     inkscape:cx="75.000148"
     inkscape:cy="75.000148"
     inkscape:window-x="54"
     inkscape:window-y="-8"
     inkscape:window-maximized="1"
     inkscape:current-layer="svg2" />
  <path
     id="Self"
     d="m 140.70996,16.666917 c 0,0 94.09192,0 94.09192,0 23.93667,-0.08111 41.32745,17.309671 41.36801,41.246332 0,0 0,217.384801 0,217.384801 -0.0406,23.93667 -17.43134,41.32745 -41.36801,41.36801 0,0 -136.27107,0 -136.27107,0 -23.936662,-0.0406 -41.327446,-17.43134 -41.368003,-41.36801 0,0 0,-141.13789 0,-141.13789 0,0 0,-77.869186 0,-77.869186 0.251452,-20.967898 14.819479,-35.681928 34.878905,-39.624057 0,0 48.668248,0 48.668248,0 z M 73.385553,74.135995 c 0,0 0,184.939315 0,184.939315 0.04056,23.93666 17.431341,41.32744 41.368007,41.368 0,0 103.82558,0 103.82558,0 23.93666,-0.0406 41.32744,-17.43134 41.368,-41.368 0,0 0,-184.939315 0,-184.939315 -0.0406,-23.936662 -17.43134,-41.327444 -41.368,-41.286887 0,0 -71.38009,0 -71.38009,0 0,0 -38.12345,0 -38.12345,0 -21.657371,3.739343 -35.657601,19.110393 -35.690047,41.286887 z m 85.169427,98.147615 c 0.008,-2.96876 -0.11356,-6.16464 1.27348,-8.89006 2.54697,-5.02094 9.18208,-5.96186 12.75919,-1.47627 2.30363,2.89576 2.18196,6.87844 2.19007,10.36633 0,0 0,76.24691 0,76.24691 2.57131,-2.5713 6.31065,-6.78922 9.73365,-7.96537 5.15072,-1.76016 10.60157,2.51453 9.96888,7.96537 -0.42179,3.57712 -3.52034,6.4891 -5.91319,8.92251 0,0 -13.78934,13.78934 -13.78934,13.78934 -1.69527,1.69527 -5.7104,6.32687 -8.11137,6.32687 -2.01973,0 -4.32336,-2.57131 -5.67796,-3.89346 0,0 -11.35592,-11.35592 -11.35592,-11.35592 -3.62579,-3.62579 -11.42893,-9.84721 -10.78002,-15.41161 0.61647,-5.22373 6.01053,-8.16816 10.78002,-6.01864 3.0012,1.3546 6.54587,5.26428 8.92251,7.64091 0,0 0,-76.24691 0,-76.24691 z"
     inkscape:connector-curvature="0"
     style="fill:#000000;fill-opacity:1;stroke:none;stroke-width:1" />
</svg>
