<?xml version="1.0" encoding="UTF-8" standalone="no"?>
<svg
   xmlns:dc="http://purl.org/dc/elements/1.1/"
   xmlns:cc="http://creativecommons.org/ns#"
   xmlns:rdf="http://www.w3.org/1999/02/22-rdf-syntax-ns#"
   xmlns:svg="http://www.w3.org/2000/svg"
   xmlns="http://www.w3.org/2000/svg"
   xmlns:sodipodi="http://sodipodi.sourceforge.net/DTD/sodipodi-0.dtd"
   xmlns:inkscape="http://www.inkscape.org/namespaces/inkscape"
   width="100"
   height="100"
   viewBox="0 0 333.33269 333.33269"
   id="svg2"
   version="1.1"
   inkscape:version="0.91 r13725"
   sodipodi:docname="shake.svg">
  <metadata
     id="metadata9">
    <rdf:RDF>
      <cc:Work
         rdf:about="">
        <dc:format>image/svg+xml</dc:format>
        <dc:type
           rdf:resource="http://purl.org/dc/dcmitype/StillImage" />
        <dc:title></dc:title>
      </cc:Work>
    </rdf:RDF>
  </metadata>
  <defs
     id="defs7" />
  <sodipodi:namedview
     pagecolor="#ffffff"
     bordercolor="#666666"
     borderopacity="1"
     objecttolerance="10"
     gridtolerance="10"
     guidetolerance="10"
     inkscape:pageopacity="0"
     inkscape:pageshadow="2"
     inkscape:window-width="1218"
     inkscape:window-height="697"
     id="namedview5"
     showgrid="false"
     units="px"
     inkscape:zoom="1.5733302"
     inkscape:cx="75.000148"
     inkscape:cy="75.000148"
     inkscape:window-x="54"
     inkscape:window-y="-8"
     inkscape:window-maximized="1"
     inkscape:current-layer="svg2" />
  <path
     id="Selection #60"
     d="m 37.074396,112.18165 c 4.247587,1.55985 7.697253,5.1115 11.998835,6.23339 0,0 23.397729,2.36977 23.397729,2.36977 14.170625,2.38177 28.17327,6.29339 42.59587,6.91733 14.14662,0.61794 20.45201,-7.03131 32.39685,-7.1753 4.0796,-0.048 6.72535,0.036 10.79895,-1.0559 4.37358,-1.16988 7.03132,-3.0657 11.99884,-3.43167 4.57755,-0.34196 9.69506,2.44777 13.79866,4.23559 8.69915,3.77964 22.49182,11.3929 31.79691,11.02693 7.52327,-0.29397 7.00732,-2.94571 12.59878,-5.74744 3.01771,-1.51185 6.86933,-2.0818 10.19901,-2.54975 0,0 47.3954,-6.58136 47.3954,-6.58136 0,0 30.59703,-3.69564 30.59703,-3.69564 0,0 0,76.79254 0,76.79254 0,1.43986 0.23398,3.78564 -0.95991,4.81154 -1.0139,0.86991 -5.32148,1.37986 -6.83933,1.66783 0,0 -19.19814,2.95772 -19.19814,2.95772 0,0 -17.99825,2.27378 -17.99825,2.27378 0,0 -7.1993,2.42376 -7.1993,2.42376 -9.10712,2.72374 -17.66229,3.50366 -25.19756,-3.39567 -2.12379,-1.94981 -3.40167,-3.57565 -4.99751,-5.93942 -2.38777,-3.53366 -3.19769,-4.97952 -4.60156,-8.99913 -4.73354,2.83773 -8.2072,5.2075 -13.79866,5.99942 1.13389,4.76354 -1.55385,9.40109 -5.99942,11.3329 0,0 -6.59936,1.82382 -6.59936,1.82382 0,0 -8.39918,4.73954 -8.39918,4.73954 -3.42567,1.48186 -4.84153,1.0199 -6.59936,1.91382 -2.0518,1.0379 -3.18569,2.9997 -5.99942,4.0976 -2.72973,1.06789 -4.28358,0.20398 -6.59936,1.12189 0,0 -3.59965,1.97381 -3.59965,1.97381 -4.98551,2.47176 -8.57317,2.88572 -13.79866,1.19388 -2.71773,5.60346 -10.98493,5.96342 -15.57449,2.60975 -1.57184,-1.15189 -2.12979,-2.15379 -3.0237,-3.80963 -5.09351,0.48595 -9.53308,-2.0998 -10.79895,-7.1993 -6.51537,1.58384 -12.4428,-0.70193 -13.79866,-7.79925 -1.64384,0 -3.85163,0.096 -5.39948,-0.38996 -4.79353,-1.49985 -6.89333,-6.59336 -8.14121,-11.00893 -0.47395,-1.66784 -0.79192,-4.52356 -1.811824,-5.76544 -1.703835,-2.0698 -6.659354,-3.17969 -9.245103,-4.43357 -2.771731,8.32119 -3.545656,16.65438 -5.279487,25.19755 -1.55385,7.63126 -1.937812,12.19682 -10.918941,11.99284 -6.335385,-0.14399 -10.990933,-2.79573 -16.798369,-4.52956 0,0 -11.998836,-2.88572 -11.998836,-2.88572 0,0 -16.198427,-4.49356 -16.198427,-4.49356 -2.26778,-0.65394 -10.846948,-2.96972 -11.986837,-4.58956 -0.749927,-1.06789 -0.611941,-3.20969 -0.611941,-4.49356 0,0 0,-88.79138 0,-88.79138 6.761344,0.89391 13.900651,0.66593 20.398021,3.0537 z m 29.997088,13.31871 c -6.347384,-0.78593 -12.946743,-0.18599 -19.198136,-1.77583 -5.657451,-1.43386 -8.495176,-4.56556 -11.998836,-6.07141 -4.1216,-1.77583 -11.680866,-2.51976 -16.198428,-2.52576 0,0 0,77.99243 0,77.99243 0,1.28388 -0.137986,3.42567 0.611941,4.49357 1.073896,1.53585 8.129211,3.39567 10.187011,3.98961 0,0 14.998544,4.19359 14.998544,4.19359 0,0 16.79837,4.46957 16.79837,4.46957 3.245685,1.20588 7.385283,2.63974 10.798952,3.0777 1.211882,0.15599 3.347675,0.37197 4.367576,-0.41996 1.163887,-0.90591 1.793826,-4.53556 2.105796,-6.00542 0,0 2.891719,-16.19842 2.891719,-16.19842 1.391865,-7.39129 2.699738,-8.57917 4.343578,-14.39861 3.137696,-11.12292 8.387186,-34.46065 8.489176,-45.59557 0,0 -28.197263,-5.22549 -28.197263,-5.22549 z M 295.04936,120.9588 c 0,0 -40.1961,5.1355 -40.1961,5.1355 0,0 -19.19814,2.83172 -19.19814,2.83172 4.45757,8.43519 5.1415,14.74657 6.74935,23.99768 1.91381,10.99093 2.86772,18.16023 2.84972,29.39714 0,0 -0.54595,7.1993 -0.54595,7.1993 -0.26997,3.90562 0.16199,3.25769 -0.65393,7.79925 2.06979,1.16988 4.21759,2.41176 6.59935,2.80172 6.48538,1.0619 13.75667,-2.97571 19.79808,-4.28958 0,0 18.5982,-2.27978 18.5982,-2.27978 0,0 25.19755,-4.03161 25.19755,-4.03161 0,0 0,-39.59615 0,-39.59615 0,0 -0.59994,-10.19901 -0.59994,-10.19901 0,0 0,-20.99797 0,-20.99797 0,0 -18.59819,2.23179 -18.59819,2.23179 z m -55.19465,57.16245 c -0.018,-9.98303 -2.11779,-21.35193 -3.96561,-31.19697 -0.62394,-3.32968 -1.91982,-12.88075 -5.09951,-14.35061 -2.19578,-1.0199 -3.76163,1.10389 -5.93342,2.30378 -2.45976,1.35587 -6.2094,1.81182 -8.99913,1.84782 -9.99503,0.11399 -19.96006,-4.82953 -28.7972,-9.14311 -4.51756,-2.20779 -11.87885,-6.04742 -16.79837,-5.83144 -3.94762,0.17398 -7.79325,2.51976 -11.99884,3.40167 0,0 -17.39831,1.74583 -17.39831,1.74583 -3.29368,1.0139 -8.75315,4.43957 -11.99883,6.06541 -3.64765,1.82383 -7.54127,3.0777 -11.3989,4.36158 0.61794,1.22388 1.0739,2.25578 2.1178,3.20969 3.30568,3.0237 11.74686,3.37767 15.88045,2.16579 0,0 9.59907,-3.63565 9.59907,-3.63565 2.38177,-0.58194 3.60565,-0.53395 5.99942,-0.53995 4.81153,-0.006 9.3051,-0.38996 13.79866,1.75183 4.68555,2.23179 9.78505,8.85514 13.79866,12.59278 0,0 4.69755,4.27759 4.69755,4.27759 0,0 8.52517,9.57507 8.52517,9.57507 0,0 12.57478,11.56687 12.57478,11.56687 0,0 7.1993,6.09541 7.1993,6.09541 6.94733,4.79354 13.88865,-5.46547 19.17414,-4.60755 4.55956,0.73193 3.1077,6.42538 8.42318,10.94294 0,0 0.59994,-12.59878 0.59994,-12.59878 z M 100.66822,131.92573 c -0.17398,7.81724 -3.359671,23.82969 -5.189493,31.79692 -0.51595,2.24978 -3.161693,10.77495 -2.417765,12.43079 0.641937,1.43386 2.663741,1.81183 4.007611,2.27378 3.095697,1.0679 5.171497,1.94981 7.799247,3.96562 2.63374,2.0218 10.91294,8.2432 13.79866,8.75315 0,0 6.59936,-0.41996 6.59936,-0.41996 2.88571,-0.06 5.18349,0.03 7.79924,1.43986 2.32177,1.25987 3.54565,3.0057 5.39947,3.41367 1.76383,0.39596 3.1017,-0.79193 5.99942,0 4.06161,1.10389 6.30539,4.38557 7.96723,5.33348 1.83582,1.0379 6.04141,0.95391 8.2312,1.58384 7.54727,2.18379 13.27671,9.76106 21.5979,6.82134 0,0 0,-1.19988 0,-1.19988 0,0 -11.38689,-8.57917 -11.38689,-8.57917 -1.12789,-1.0079 -3.0657,-2.75973 -2.30978,-4.47556 1.34987,-3.07771 5.07551,0.16798 6.49737,1.29587 3.86363,3.0537 10.38499,9.02912 15.59849,8.42318 1.62584,-0.18598 4.89552,-1.93181 6.59936,-2.66374 0,0 0,-1.19988 0,-1.19988 -6.34139,-4.1396 -13.65468,-9.01713 -17.71628,-15.59849 -1.0619,-1.71583 -2.79573,-5.1415 -2.43577,-7.1873 0.26998,-1.54185 1.59585,-3.00571 3.26969,-2.30978 2.24378,0.92991 1.55384,3.96562 4.16359,7.69726 3.32968,4.77553 9.3231,9.50307 14.51859,12.14282 1.79383,0.91191 4.59556,2.59175 6.59936,2.41176 4.70355,-0.42596 6.36538,-5.57946 3.41367,-8.98113 0,0 -20.20604,-18.17223 -20.20604,-18.17223 0,0 -9.05912,-10.17501 -9.05912,-10.17501 0,0 -7.12131,-6.62336 -7.12131,-6.62336 -2.92171,-3.04171 -4.1336,-5.1535 -7.82324,-7.73325 -4.31958,-3.02971 -14.83656,-3.20369 -19.79808,-1.73983 -5.86143,1.72783 -7.43927,3.98961 -14.3986,4.0736 -5.99342,0.066 -12.01083,-1.0319 -15.96445,-5.99941 -1.24188,-1.56585 -2.61574,-3.92962 -2.32177,-5.99942 0.16198,-1.15789 0.9599,-2.54975 1.48785,-3.59965 0,0 -13.19872,-1.19989 -13.19872,-1.19989 z m 13.79866,63.59383 c 0,0 -6.59936,-4.79953 -6.59936,-4.79953 -0.70793,2.81972 2.0758,10.03702 6.59936,4.79953 z m 6.35939,1.70984 c -2.03381,1.91381 -0.87592,9.46108 5.03951,8.86713 3.92962,-0.38996 11.75286,-3.0837 6.50936,-8.00922 -0.50395,-0.47995 -1.08589,-0.86991 -1.70983,-1.18188 -2.14779,-1.0619 -5.45947,-0.85792 -7.78724,-0.58195 -0.79792,0.25198 -1.38587,0.27598 -2.0518,0.90592 z m 17.24832,8.48317 c 0,0 -2.41776,2.75373 -2.41776,2.75373 -0.61194,0.77393 -1.16389,1.48186 -0.68994,2.50776 1.30788,2.84373 5.69945,1.63184 7.69726,0.40796 1.49385,-0.91791 5.05751,-3.34767 5.39347,-5.1175 0.68394,-3.62965 -4.0976,-5.60346 -7.01332,-4.98552 -2.0158,1.55985 -1.55985,2.42977 -2.96971,4.43357 z m 14.68658,11.99884 c 3.69564,-2.0638 5.54946,-8.39919 1.30187,-10.79296 -2.33977,4.36758 -4.84753,6.35939 -8.99913,8.99913 0,0 0,1.79383 0,1.79383 2.1358,0.52795 5.68745,1.10989 7.69726,0 z m 9.10111,-8.39319 c 0.09,1.24788 -0.11399,4.1576 0.61794,5.01552 1.46386,1.73983 5.75944,-0.40197 7.18131,-1.41587 0,0 -7.79925,-3.59965 -7.79925,-3.59965 z"
     inkscape:connector-curvature="0"
     style="fill:#000000;fill-opacity:1;stroke:none;stroke-width:1" />
</svg>
