<?xml version="1.0" encoding="UTF-8" standalone="no"?>
<svg
   xmlns:dc="http://purl.org/dc/elements/1.1/"
   xmlns:cc="http://creativecommons.org/ns#"
   xmlns:rdf="http://www.w3.org/1999/02/22-rdf-syntax-ns#"
   xmlns:svg="http://www.w3.org/2000/svg"
   xmlns="http://www.w3.org/2000/svg"
   xmlns:sodipodi="http://sodipodi.sourceforge.net/DTD/sodipodi-0.dtd"
   xmlns:inkscape="http://www.inkscape.org/namespaces/inkscape"
   width="100"
   height="100"
   viewBox="0 0 333.33269 333.33269"
   id="svg2"
   version="1.1"
   inkscape:version="0.91 r13725"
   sodipodi:docname="Shark.svg">
  <metadata
     id="metadata9">
    <rdf:RDF>
      <cc:Work
         rdf:about="">
        <dc:format>image/svg+xml</dc:format>
        <dc:type
           rdf:resource="http://purl.org/dc/dcmitype/StillImage" />
        <dc:title></dc:title>
      </cc:Work>
    </rdf:RDF>
  </metadata>
  <defs
     id="defs7" />
  <sodipodi:namedview
     pagecolor="#ffffff"
     bordercolor="#666666"
     borderopacity="1"
     objecttolerance="10"
     gridtolerance="10"
     guidetolerance="10"
     inkscape:pageopacity="0"
     inkscape:pageshadow="2"
     inkscape:window-width="1218"
     inkscape:window-height="697"
     id="namedview5"
     showgrid="false"
     units="px"
     inkscape:zoom="1.5733302"
     inkscape:cx="75.000148"
     inkscape:cy="75.000148"
     inkscape:window-x="54"
     inkscape:window-y="-8"
     inkscape:window-maximized="1"
     inkscape:current-layer="svg2" />
  <path
     id="Shark"
     d="m 136.92708,131.02187 c 6.30833,-16.40017 7.51488,-16.05757 9.68221,-25.3227 2.16732,-9.265122 -4.46871,-27.817718 -3.47815,-29.493484 2.97914,-5.034747 27.87731,16.601258 46.17667,52.730784 65.57088,7.55212 127.35825,31.77253 127.35825,43.79336 0,4.31231 -17.53969,19.83363 -38.25961,15.55111 16.6236,6.23385 -38.08831,20.6231 -73.45815,25.8068 -37.23925,67.03066 -18.61963,48.0163 -37.23925,3.32919 -22.09777,0.29792 -56.23128,-8.71398 -74.47851,-16.08735 -29.791402,29.49348 -7.447851,2.68122 -18.992019,-7.93196 -7.879826,-2.88232 -12.936916,-7.26166 -18.247234,-9.71945 0,20.33263 -18.619626,15.86392 -37.239252,38.20747 -4.468711,-13.40613 7.44785,-26.81226 7.44785,-53.62452 0,-26.81226 -14.895701,-62.56195 -7.44785,-71.499367 18.619626,22.343557 37.239252,42.601707 37.239252,64.945257 7.447851,-4.81876 58.070893,-28.71146 80.935793,-30.68514 z"
     style="fill:#000000;fill-opacity:1;stroke:none;stroke-width:1"
     inkscape:connector-curvature="0" />
</svg>
