<?xml version="1.0" encoding="UTF-8" standalone="no"?>
<svg
   xmlns:dc="http://purl.org/dc/elements/1.1/"
   xmlns:cc="http://creativecommons.org/ns#"
   xmlns:rdf="http://www.w3.org/1999/02/22-rdf-syntax-ns#"
   xmlns:svg="http://www.w3.org/2000/svg"
   xmlns="http://www.w3.org/2000/svg"
   xmlns:sodipodi="http://sodipodi.sourceforge.net/DTD/sodipodi-0.dtd"
   xmlns:inkscape="http://www.inkscape.org/namespaces/inkscape"
   width="100"
   height="100"
   viewBox="0 0 333.33269 333.33269"
   id="svg2"
   version="1.1"
   inkscape:version="0.91 r13725"
   sodipodi:docname="shoe.svg">
  <metadata
     id="metadata9">
    <rdf:RDF>
      <cc:Work
         rdf:about="">
        <dc:format>image/svg+xml</dc:format>
        <dc:type
           rdf:resource="http://purl.org/dc/dcmitype/StillImage" />
        <dc:title></dc:title>
      </cc:Work>
    </rdf:RDF>
  </metadata>
  <defs
     id="defs7" />
  <sodipodi:namedview
     pagecolor="#ffffff"
     bordercolor="#666666"
     borderopacity="1"
     objecttolerance="10"
     gridtolerance="10"
     guidetolerance="10"
     inkscape:pageopacity="0"
     inkscape:pageshadow="2"
     inkscape:window-width="1218"
     inkscape:window-height="697"
     id="namedview5"
     showgrid="false"
     units="px"
     inkscape:zoom="1.5733302"
     inkscape:cx="75.000148"
     inkscape:cy="75.000148"
     inkscape:window-x="54"
     inkscape:window-y="-8"
     inkscape:window-maximized="1"
     inkscape:current-layer="svg2" />
  <path
     id="Selection #72"
     d="m 161.44557,105.67594 c 10.06777,13.50257 21.57687,20.84545 36.64268,27.74374 31.66616,14.50649 77.85315,17.72617 101.0076,45.39821 6.9198,8.27508 10.455,17.48953 12.43413,27.96604 0,0 1.02542,7.17078 1.02542,7.17078 1.25489,5.85135 3.75032,4.81876 3.85071,12.19032 0.0861,6.47521 1.95762,17.88392 -5.73662,20.32916 -1.70665,0.53781 -3.94393,0.4661 -5.73663,0.4661 0,0 -105.41045,0 -105.41045,0 -19.7555,-0.0287 -31.63031,-7.80181 -49.47838,-13.3735 -8.77704,-2.73924 -21.59839,-4.13037 -30.83435,-4.55345 0,6.00912 1.62776,15.12318 -5.73663,17.46085 -1.5704,0.49478 -3.39178,0.45893 -5.01954,0.4661 0,0 -65.2541,0 -65.2541,0 -3.76466,0 -18.19944,0.35854 -20.79526,-0.4661 -1.80703,-0.57366 -3.24836,-1.59908 -4.29529,-3.191 -1.59909,-2.41655 -1.43416,-5.06257 -1.44133,-7.81615 0,0 0,-7.88785 0,-7.88785 0.0932,-7.75879 2.43089,-7.1923 3.47783,-11.47325 0,0 0,-10.03909 0,-10.03909 0,0 0.82464,-10.75617 0.82464,-10.75617 0.0358,-23.20464 1.01108,-46.5527 4.20924,-69.55656 1.1545,-8.28942 2.83246,-18.24964 6.38917,-25.814808 1.49152,-3.16231 3.63558,-7.04887 6.61146,-9.02084 3.04758,-2.01499 6.39633,0.59518 9.32201,1.85006 8.41133,3.60691 15.38132,6.02346 24.38065,7.887858 19.38979,4.00847 47.25544,5.95175 65.25409,-3.671438 5.4498,-2.91851 8.62645,-6.38916 12.90741,-10.67012 0,0 11.40154,19.361108 11.40154,19.361108 z m -16.44977,2.35201 c 0,0 -8.57625,3.52085 -8.57625,3.52085 -4.42437,1.67797 -9.67339,2.88266 -14.34156,3.72881 -17.73334,3.19817 -36.24829,1.85723 -53.78085,-2.01499 -5.75813,-1.2764 -13.15838,-3.44197 -18.64403,-5.57887 -1.80703,-0.7099 -4.87613,-2.40938 -6.56843,-0.83181 -1.23337,1.14733 -2.23728,5.68643 -2.66036,7.42893 0,0 -3.16231,19.36111 -3.16231,19.36111 -1.54889,11.89632 -2.64602,26.747 -2.66753,38.7222 0,0 -0.71708,11.47325 -0.71708,11.47325 0,0 0,16.49279 0,16.49279 0,0 -0.71708,15.77572 -0.71708,15.77572 0,0 266.03592,0 266.03592,0 -0.007,-4.94784 -0.0932,-6.61863 -1.44133,-11.47325 -6.3318,-22.82459 -22.48039,-30.77698 -43.0175,-38.58596 -3.44915,-1.31225 -18.66554,-6.49673 -21.51234,-6.44653 -2.68904,0.043 -5.51433,1.71381 -7.88786,2.90416 0,0 -13.62448,6.81224 -13.62448,6.81224 -4.33115,2.14407 -8.64796,3.56388 -11.337,-1.9863 -3.6571,-7.54366 10.56973,-9.78095 13.48823,-14.32722 -3.21251,-0.73142 -7.77312,-2.91134 -10.75617,-2.10821 0,0 -15.05863,7.30703 -15.05863,7.30703 -1.81421,0.90351 -4.42437,2.39504 -6.4537,2.38787 -4.87613,-0.0287 -8.09581,-5.51433 -5.20599,-9.60885 1.8644,-2.64602 8.56908,-5.54301 11.65969,-7.29985 -2.06519,-1.64211 -5.92307,-4.0013 -8.60494,-4.0013 -4.23793,0 -19.64793,10.26139 -23.66357,10.13948 -3.32007,-0.0932 -8.61211,-4.76856 -4.7112,-9.65186 2.30182,-2.87549 11.77442,-7.08473 15.46737,-8.67665 -3.90808,-8.26074 -7.19946,-5.90155 -13.62448,-2.68904 0,0 -14.34156,7.17078 -14.34156,7.17078 -1.98631,0.98957 -5.75097,3.15514 -7.88786,3.09061 -3.35592,-0.0932 -8.05995,-4.52477 -5.20598,-8.97782 2.11538,-3.29139 10.1108,-6.60429 13.81092,-8.45435 0,0 12.19032,-5.91589 12.19032,-5.91589 -0.82464,-2.603 -3.13363,-8.03128 -6.48238,-7.68708 z M 29.57493,229.01334 c 0,0 0,5.01955 0,5.01955 0,0 76.72734,0 76.72734,0 0,0 0,-5.01955 0,-5.01955 0,0 -76.72734,0 -76.72734,0 z m 185.72319,0 c 0,0 -25.09773,0 -25.09773,0 0,0 -12.9074,0.71708 -12.9074,0.71708 17.77636,5.92306 32.49797,4.30247 50.91253,4.30247 0,0 75.29319,0 75.29319,0 0,0 0,-5.01955 0,-5.01955 0,0 -88.20059,0 -88.20059,0 z"
     style="fill:#000000;fill-opacity:1;stroke:none;stroke-width:1"
     inkscape:connector-curvature="0" />
</svg>
