<?xml version="1.0" encoding="UTF-8" standalone="no"?>
<svg
   xmlns:dc="http://purl.org/dc/elements/1.1/"
   xmlns:cc="http://creativecommons.org/ns#"
   xmlns:rdf="http://www.w3.org/1999/02/22-rdf-syntax-ns#"
   xmlns:svg="http://www.w3.org/2000/svg"
   xmlns="http://www.w3.org/2000/svg"
   xmlns:sodipodi="http://sodipodi.sourceforge.net/DTD/sodipodi-0.dtd"
   xmlns:inkscape="http://www.inkscape.org/namespaces/inkscape"
   width="100"
   height="100"
   viewBox="0 0 333.33269 333.33269"
   id="svg2"
   version="1.1"
   inkscape:version="0.91 r13725"
   sodipodi:docname="Singer.svg"
   inkscape:export-filename="C:\Users\mbrown\Desktop\Drawings\icons\forJustin\Singer.png"
   inkscape:export-xdpi="300"
   inkscape:export-ydpi="300">
  <metadata
     id="metadata9">
    <rdf:RDF>
      <cc:Work
         rdf:about="">
        <dc:format>image/svg+xml</dc:format>
        <dc:type
           rdf:resource="http://purl.org/dc/dcmitype/StillImage" />
        <dc:title></dc:title>
      </cc:Work>
    </rdf:RDF>
  </metadata>
  <defs
     id="defs7" />
  <sodipodi:namedview
     pagecolor="#ffffff"
     bordercolor="#666666"
     borderopacity="1"
     objecttolerance="10"
     gridtolerance="10"
     guidetolerance="10"
     inkscape:pageopacity="0"
     inkscape:pageshadow="2"
     inkscape:window-width="1218"
     inkscape:window-height="697"
     id="namedview5"
     showgrid="false"
     units="px"
     inkscape:zoom="1.5733302"
     inkscape:cx="75.000148"
     inkscape:cy="75.000148"
     inkscape:window-x="54"
     inkscape:window-y="-8"
     inkscape:window-maximized="1"
     inkscape:current-layer="svg2" />
  <path
     id="Music"
     d="m 26.391402,185.11851 c 1.885,23.53072 29.891715,11.52885 30.597707,0.93897 0,0 0,-62.83332 0,-62.83332 0,0 9.516776,1.37669 13.413854,7.9989 4.313613,7.34232 2.823969,24.24377 2.823969,24.24377 0,0 10.349847,-16.17428 4.701909,-26.82771 -5.880916,-11.10525 -27.766678,-16.71083 -27.766678,-16.71083 0,0 0.232978,55.54041 0.232978,55.54041 -6.819886,-6.35393 -25.881678,-5.88797 -24.003739,17.64981 z m 97.193958,131.54755 c 0,0 -7.58941,-41.39939 28.2397,-54.59439 27.3219,-10.06039 38.12358,6.42453 40.00858,-12.70786 2.1321,-21.68808 -58.63266,-1.69438 -71.07225,-28.23969 -1.90618,-4.07358 -6.82694,-23.29775 -2.59099,-29.89172 0,0 48.24752,9.41794 47.20265,-18.3558 -1.04487,-27.76667 -42.72666,-14.11984 -42.72666,-14.11984 0,-4.74427 3.76294,-15.76481 3.76294,-15.76481 0,0 -21.04563,-1.80028 -20.47377,-7.05992 0.99544,-9.09319 24.56147,-27.06775 28.00671,-34.82661 3.3464,-7.554114 -1.34138,-29.284557 -1.34138,-29.284557 0,0 -22.66236,-5.076082 -12.31251,-32.376806 10.35691,-26.354692 65.73494,-22.591753 85.66511,-22.591753 25.60634,0 84.24606,9.417937 84.24606,47.068507 28.71271,0 15.53183,99.311939 -0.93897,122.842659 -5.35848,7.65296 -31.53668,29.65168 -31.53668,29.65168 0,0 -4.32773,14.10572 -4.70897,24.47675 -0.74835,20.57968 11.14056,17.51567 31.53668,30.11763 19.85956,12.27015 15.53183,45.65653 15.53183,45.65653 0,0 -176.49808,0 -176.49808,0 z"
     inkscape:connector-curvature="0"
     style="fill:#000000;fill-opacity:1;stroke:none;stroke-width:1" />
</svg>
