<?xml version="1.0" encoding="UTF-8" standalone="no"?>
<svg
   xmlns:dc="http://purl.org/dc/elements/1.1/"
   xmlns:cc="http://creativecommons.org/ns#"
   xmlns:rdf="http://www.w3.org/1999/02/22-rdf-syntax-ns#"
   xmlns:svg="http://www.w3.org/2000/svg"
   xmlns="http://www.w3.org/2000/svg"
   xmlns:sodipodi="http://sodipodi.sourceforge.net/DTD/sodipodi-0.dtd"
   xmlns:inkscape="http://www.inkscape.org/namespaces/inkscape"
   width="100"
   height="100"
   viewBox="0 0 333.33269 333.33269"
   id="svg2"
   version="1.1"
   inkscape:version="0.91 r13725"
   sodipodi:docname="Skull.svg">
  <metadata
     id="metadata9">
    <rdf:RDF>
      <cc:Work
         rdf:about="">
        <dc:format>image/svg+xml</dc:format>
        <dc:type
           rdf:resource="http://purl.org/dc/dcmitype/StillImage" />
        <dc:title></dc:title>
      </cc:Work>
    </rdf:RDF>
  </metadata>
  <defs
     id="defs7" />
  <sodipodi:namedview
     pagecolor="#ffffff"
     bordercolor="#666666"
     borderopacity="1"
     objecttolerance="10"
     gridtolerance="10"
     guidetolerance="10"
     inkscape:pageopacity="0"
     inkscape:pageshadow="2"
     inkscape:window-width="1218"
     inkscape:window-height="697"
     id="namedview5"
     showgrid="false"
     units="px"
     inkscape:zoom="1.5733302"
     inkscape:cx="75.000148"
     inkscape:cy="75.000148"
     inkscape:window-x="54"
     inkscape:window-y="-8"
     inkscape:window-maximized="1"
     inkscape:current-layer="svg2" />
  <path
     id="Skull"
     d="m 62.49986,154.16637 c 0,20.83329 0,62.49988 41.66659,62.49988 20.83329,0 41.66659,-41.66659 41.66659,-62.49988 0,-4.16666 -20.8333,-20.8333 -41.66659,-20.8333 -20.83329,0 -41.66659,0 -41.66659,20.8333 z m 166.66635,62.49988 c 41.66659,0 41.66659,-41.66659 41.66659,-62.49988 0,-20.8333 -20.8333,-20.8333 -41.66659,-20.8333 -20.83329,0 -41.66659,16.66664 -41.66659,20.8333 0,20.83329 20.8333,62.49988 41.66659,62.49988 z m -58.16656,20.8333 c 0.16667,4.16666 16.49997,4.16666 16.49997,0 0,-4.16666 -12.49997,-37.49993 -16.66663,-37.49993 -4.16666,0 0,33.33327 0.16666,37.49993 z m -8.49998,-37.49993 c -4.16666,0 -16.66663,33.33327 -16.66663,37.49993 0,4.16666 16.29997,4.16666 16.4833,0 0.18333,-4.16666 4.34999,-37.49993 0.18333,-37.49993 z m 8.33332,79.16651 c -0.83333,-0.83333 -7.49999,-0.83333 -8.33332,0 -0.83333,0.83334 -0.0583,37.49993 -0.0583,37.49993 l -37.47493,0 c 0,0 5.03332,-36.66659 4.19999,-37.49993 -0.83333,-0.83333 -7.49998,-0.83333 -8.33332,0 -0.83333,0.83334 -4.16665,37.49993 -4.16665,37.49993 l -37.49993,0 4.16666,-58.33322 c -4.16666,8.33332 -41.66659,0 -41.66659,-20.83329 0,-20.8333 20.83329,-20.8333 0,-62.49989 -20.83329,-41.66659 0,-104.166465 20.83329,-124.999759 20.83327,-20.83329 74.99983,-33.333266 104.16644,-33.333266 29.16661,0 83.33317,12.499976 104.16647,33.333266 20.83329,20.833294 41.66658,83.333169 20.83329,124.999759 -20.83329,41.66659 0,41.66659 0,62.49989 0,20.83329 -37.49993,29.16661 -41.66659,20.83329 l 4.16666,58.33322 -37.49993,0 c 0,0 -3.33332,-36.66659 -4.16665,-37.49993 -0.83334,-0.83333 -7.49999,-0.83333 -8.33332,0 -0.83333,0.83334 4.12499,37.49993 4.12499,37.49993 l -37.50826,0 c 0,0 0.88333,-36.66659 0.05,-37.49993 z"
     inkscape:connector-curvature="0"
     style="fill:#000000;fill-opacity:1;stroke:none;stroke-width:1"
     sodipodi:nodetypes="ssssssssssssssssssssccsscccssssssscccssccs" />
</svg>
