<?xml version="1.0" encoding="UTF-8" standalone="no"?>
<svg
   xmlns:dc="http://purl.org/dc/elements/1.1/"
   xmlns:cc="http://creativecommons.org/ns#"
   xmlns:rdf="http://www.w3.org/1999/02/22-rdf-syntax-ns#"
   xmlns:svg="http://www.w3.org/2000/svg"
   xmlns="http://www.w3.org/2000/svg"
   xmlns:sodipodi="http://sodipodi.sourceforge.net/DTD/sodipodi-0.dtd"
   xmlns:inkscape="http://www.inkscape.org/namespaces/inkscape"
   width="100"
   height="100"
   viewBox="0 0 333.33269 333.33269"
   id="svg2"
   version="1.1"
   inkscape:version="0.91 r13725"
   sodipodi:docname="Skull3.svg">
  <metadata
     id="metadata9">
    <rdf:RDF>
      <cc:Work
         rdf:about="">
        <dc:format>image/svg+xml</dc:format>
        <dc:type
           rdf:resource="http://purl.org/dc/dcmitype/StillImage" />
        <dc:title></dc:title>
      </cc:Work>
    </rdf:RDF>
  </metadata>
  <defs
     id="defs7" />
  <sodipodi:namedview
     pagecolor="#ffffff"
     bordercolor="#666666"
     borderopacity="1"
     objecttolerance="10"
     gridtolerance="10"
     guidetolerance="10"
     inkscape:pageopacity="0"
     inkscape:pageshadow="2"
     inkscape:window-width="1218"
     inkscape:window-height="697"
     id="namedview5"
     showgrid="false"
     units="px"
     inkscape:zoom="3.1466604"
     inkscape:cx="65.534101"
     inkscape:cy="56.22267"
     inkscape:window-x="54"
     inkscape:window-y="-8"
     inkscape:window-maximized="1"
     inkscape:current-layer="svg2" />
  <path
     id="Really Angry Skull"
     d="m 70.833195,154.16636 c 0,20.8333 0,49.99991 41.666595,49.99991 20.83329,0 29.16661,-12.49998 33.33327,-20.83329 -4.16666,-8.33332 -54.166571,-45.83325 -62.499889,-49.99991 -4.166658,4.16666 -12.499976,12.49998 -12.499976,20.83329 z m 149.999715,37.49993 c 49.99991,0 41.66659,-16.66663 41.66659,-37.49993 0,-8.33331 -8.33332,-16.66663 -12.49998,-20.83329 -3.82499,1.90833 -12.49997,16.66664 -24.99995,24.99995 -12.49997,8.33332 -35.2416,20.49163 -37.49993,24.99996 4.16666,8.33331 12.49998,8.33331 33.33327,8.33331 z m -49.83324,45.83325 c 0.16667,4.16666 16.49997,4.16666 16.49997,0 0,-4.16666 -12.49997,-37.49993 -16.66663,-37.49993 -4.16666,0 0,33.33327 0.16666,37.49993 z m -8.49998,-37.49993 c -4.16666,0 -16.66663,33.33327 -16.66663,37.49993 0,4.16666 16.29996,4.16666 16.4833,0 0.18333,-4.16666 4.34999,-37.49993 0.18333,-37.49993 z m 8.33332,79.16652 c -0.83333,-0.83334 -7.49999,-0.83334 -8.33332,0 -0.83333,0.83333 -0.0583,37.49992 -0.0583,37.49992 l -37.47493,0 c 0,0 5.03332,-36.66659 4.19999,-37.49992 -0.83333,-0.83334 -7.49998,-0.83334 -8.33332,0 -0.83333,0.83333 -4.16665,37.49992 -4.16665,37.49992 l -37.499937,0 4.166658,-58.33322 c -4.166658,8.33332 -41.666587,0 -41.666587,-20.83329 0,-20.8333 20.833294,-20.8333 0,-62.49988 -20.833293,-41.66659 0,-104.166467 20.833294,-124.999761 20.833293,-20.833291 74.999862,-33.333267 104.166472,-33.333267 29.16661,0 83.33317,12.499976 104.16647,33.333267 20.83329,20.833294 41.66658,83.333171 20.83329,124.999761 -20.83329,41.66658 0,41.66658 0,62.49988 0,20.83329 -37.49993,29.16661 -41.66659,20.83329 l 4.16666,58.33322 -37.49993,0 c 0,0 -3.33332,-36.66659 -4.16665,-37.49992 -0.83334,-0.83334 -7.49999,-0.83334 -8.33332,0 -0.83333,0.83333 4.12499,37.49992 4.12499,37.49992 l -37.50826,0 c 0,0 0.88333,-36.66659 0.05,-37.49992 z M 229.16623,45.833241 c -4.16666,0 -8.33332,12.499976 -16.66663,12.499976 -8.33332,0 -12.49998,-12.499976 -16.66664,-12.499976 -8.33332,0 4.16666,20.833293 16.66664,20.833293 16.66663,0 20.83329,-20.833293 16.66663,-20.833293 z m 16.66664,49.999904 c 0,-4.166659 -12.49998,-8.333317 -12.49998,-16.666635 0,-8.333317 12.49998,-12.499976 12.49998,-16.666635 0,-8.333317 -20.8333,4.166659 -20.8333,16.666635 0,16.666635 20.8333,20.833294 20.8333,16.666635 z m -49.99991,16.666635 c 4.16666,0 8.33332,-12.499976 16.66664,-12.499976 8.33331,0 12.49997,12.499976 16.66663,12.499976 8.33332,0 -4.16666,-20.833294 -16.66663,-20.833294 -16.66664,0 -20.8333,20.833294 -16.66664,20.833294 z m 4.16666,-33.33327 c 0,-16.666635 -20.83329,-20.833293 -20.83329,-16.666635 0,4.166659 12.49997,8.333318 12.49997,16.666635 0,8.333318 -12.49997,12.499976 -12.49997,16.666635 0,8.333315 20.83329,-4.166659 20.83329,-16.666635 z"
     inkscape:connector-curvature="0"
     style="fill:#000000;fill-opacity:1;stroke:none;stroke-width:1"
     sodipodi:nodetypes="ssccssscscssssssssscsccsscccssssssscccsscccssssssssssssssssssss" />
</svg>
