<?xml version="1.0" encoding="UTF-8" standalone="no"?>
<svg
   xmlns:dc="http://purl.org/dc/elements/1.1/"
   xmlns:cc="http://creativecommons.org/ns#"
   xmlns:rdf="http://www.w3.org/1999/02/22-rdf-syntax-ns#"
   xmlns:svg="http://www.w3.org/2000/svg"
   xmlns="http://www.w3.org/2000/svg"
   xmlns:sodipodi="http://sodipodi.sourceforge.net/DTD/sodipodi-0.dtd"
   xmlns:inkscape="http://www.inkscape.org/namespaces/inkscape"
   width="100"
   height="100"
   viewBox="0 0 333.33269 333.33269"
   id="svg2"
   version="1.1"
   inkscape:version="0.91 r13725"
   sodipodi:docname="SmithsonianCastle.svg">
  <metadata
     id="metadata9">
    <rdf:RDF>
      <cc:Work
         rdf:about="">
        <dc:format>image/svg+xml</dc:format>
        <dc:type
           rdf:resource="http://purl.org/dc/dcmitype/StillImage" />
        <dc:title></dc:title>
      </cc:Work>
    </rdf:RDF>
  </metadata>
  <defs
     id="defs7" />
  <sodipodi:namedview
     pagecolor="#ffffff"
     bordercolor="#666666"
     borderopacity="1"
     objecttolerance="10"
     gridtolerance="10"
     guidetolerance="10"
     inkscape:pageopacity="0"
     inkscape:pageshadow="2"
     inkscape:window-width="1218"
     inkscape:window-height="697"
     id="namedview5"
     showgrid="false"
     units="px"
     inkscape:zoom="1.5733302"
     inkscape:cx="75.000148"
     inkscape:cy="75.000148"
     inkscape:window-x="54"
     inkscape:window-y="-8"
     inkscape:window-maximized="1"
     inkscape:current-layer="svg2" />
  <path
     id="Unnamed #16"
     d="m 149.99971,242.08287 c 0,0 -3.33332,0 -3.33332,0 0,0 0,-6.66665 0,-6.66665 0,0 3.33332,0 3.33332,0 0,0 0,6.66665 0,6.66665 z m -9.99998,0 c 0,0 -3.33332,0 -3.33332,0 0,0 0,-6.66665 0,-6.66665 0,0 3.33332,0 3.33332,0 0,0 0,6.66665 0,6.66665 z m -3.33332,-9.99998 c 0,0 3.33332,0 3.33332,0 0,0 0,-9.99998 0,-9.99998 0,0 -3.33332,0 -3.33332,0 0,0 0,9.99998 0,9.99998 z m 9.99998,0 c 0,0 0,-9.99998 0,-9.99998 0,0 3.33332,0 3.33332,0 0,0 0,9.99998 0,9.99998 0,0 -3.33332,0 -3.33332,0 z m 3.33332,-19.99996 c 0,0 -3.33332,0 -3.33332,0 0,0 0,-9.99998 0,-9.99998 0,0 3.33332,0 3.33332,0 0,0 0,9.99998 0,9.99998 z m 0,-13.33331 c 0,0 -3.33332,0 -3.33332,0 0,0 0,-9.99998 0,-9.99998 0,0 3.33332,0 3.33332,0 0,0 0,9.99998 0,9.99998 z m -9.99998,13.33331 c 0,0 -3.33332,0 -3.33332,0 0,0 0,-9.99998 0,-9.99998 0,0 3.33332,0 3.33332,0 0,0 0,9.99998 0,9.99998 z m 0,-13.33331 c 0,0 -3.33332,0 -3.33332,0 0,0 0,-9.99998 0,-9.99998 0,0 3.33332,0 3.33332,0 0,0 0,9.99998 0,9.99998 z M 133.33308,172.083 c 0,0 6.66665,0 6.66665,0 0,0 0,-13.33331 0,-13.33331 0,0 -6.66665,0 -6.66665,0 0,0 0,13.33331 0,13.33331 z m 19.99996,-13.33331 c 0,0 -6.66665,0 -6.66665,0 0,0 0,13.33331 0,13.33331 0,0 6.66665,0 6.66665,0 0,0 0,-13.33331 0,-13.33331 z m 0,-3.33333 c 0,0 -6.66665,0 -6.66665,0 0,0 0,-6.66665 0,-6.66665 0,0 6.66665,0 6.66665,0 0,0 0,6.66665 0,6.66665 z m -13.33331,0 c 0,0 -6.66665,0 -6.66665,0 0,0 0,-6.66665 0,-6.66665 0,0 6.66665,0 6.66665,0 0,0 0,6.66665 0,6.66665 z m -106.666459,3.33333 c 0,0 -3.333326,0 -3.333326,0 0,0 0,-9.99998 0,-13.33331 0,-3.33332 3.333326,-3.33332 3.333326,0 0,3.33333 0,13.33331 0,13.33331 z m 6.666654,0 c 0,0 3.333327,0 3.333327,0 0,0 0,-9.99998 0,-13.33331 0,-3.33332 -3.333327,-3.33332 -3.333327,0 0,3.33333 0,13.33331 0,13.33331 z m -9.99998,9.99998 c 0,0 3.333326,0 3.333326,0 0,0 0,9.99999 0,9.99999 0,0 -3.333326,0 -3.333326,0 0,0 0,-9.99999 0,-9.99999 z m 9.99998,0 c 0,0 3.333327,0 3.333327,0 0,0 0,9.99999 0,9.99999 0,0 -3.333327,0 -3.333327,0 0,0 0,-9.99999 0,-9.99999 z m -6.666654,46.66658 c 0,0 -3.333326,0 -3.333326,0 0,0 0,-9.99998 0,-13.3333 0,-3.33333 3.333326,-3.33333 3.333326,0 0,3.33332 0,13.3333 0,13.3333 z m 6.666654,0 c 0,0 3.333327,0 3.333327,0 0,0 0,-9.99998 0,-13.3333 0,-3.33333 -3.333327,-3.33333 -3.333327,0 0,3.33332 0,13.3333 0,13.3333 z m 3.333327,26.66662 c 0,0 -3.333327,0 -3.333327,0 0,0 0,-9.99998 0,-13.33331 0,-3.33332 3.333327,-3.33332 3.333327,0 0,3.33333 0,13.33331 0,13.33331 z m -9.999981,0 c 0,0 -3.333326,0 -3.333326,0 0,0 0,-9.99998 0,-13.33331 0,-3.33332 3.333326,-3.33332 3.333326,0 0,3.33333 0,13.33331 0,13.33331 z m 259.999499,0 c 0,0 0,-9.99998 0,-13.33331 0,-3.33332 3.33333,-3.33332 3.33333,0 0,0 0,13.33331 0,13.33331 0,0 -3.33333,0 -3.33333,0 z m -49.9999,0 c 0,0 0,-9.99998 0,-13.33331 0,-3.33332 3.33332,-3.33332 3.33332,0 0,0 0,13.33331 0,13.33331 0,0 -3.33332,0 -3.33332,0 z m -63.33321,-19.99996 c 0,0 6.66665,0 6.66665,0 0,0 0,-9.99998 -3.33333,-9.99998 -3.33332,0 -3.33332,9.99998 -3.33332,9.99998 z m -6.66666,0 c 0,0 -6.66665,0 -6.66665,0 0,0 0,-9.99998 3.33333,-9.99998 3.33332,0 3.33332,9.99998 3.33332,9.99998 z m 3.33333,-39.99992 c -3.33333,0 -6.66665,3.33332 -6.66665,6.66665 0,3.33333 3.33332,6.66665 6.66665,6.66665 3.33333,0 6.66665,-3.33332 6.66665,-6.66665 0,-3.33333 -3.33332,-6.66665 -6.66665,-6.66665 z M 209.9996,95.416483 c 0,-3.333327 -3.33333,-3.333327 -3.33333,0 0,-3.333327 -3.33333,-3.333327 -3.33333,0 0,0 0,36.666597 0,36.666597 0,0 6.66666,0 6.66666,0 0,0 0,-33.33327 0,-36.666597 z m -9.99998,36.666597 c 0,0 -6.66666,0 -6.66666,0 0,0 0,-33.33327 0,-36.666597 0,-3.333327 3.33333,-3.333327 3.33333,0 0,-3.333327 3.33333,-3.333327 3.33333,0 0,3.333327 0,36.666597 0,36.666597 z m 13.33331,0 c 0,0 6.66665,0 6.66665,0 0,0 0,-33.33327 0,-36.666597 0,-3.333327 -3.33333,-3.333327 -3.33333,0 0,-3.333327 -3.33332,-3.333327 -3.33332,0 0,3.333327 0,36.666597 0,36.666597 z m -6.66666,6.66665 c -3.33333,0 -3.33333,0 -3.33333,3.33333 0,3.33332 0,3.33332 3.33333,3.33332 3.33333,0 3.33333,0 3.33333,-3.33332 0,-3.33333 0,-3.33333 -3.33333,-3.33333 z m -3.33333,9.99998 c 0,0 -3.33332,0 -3.33332,0 0,0 0,6.66665 0,6.66665 0,0 3.33332,0 3.33332,0 0,0 0,-6.66665 0,-6.66665 z m 6.66666,0 c 0,0 0,6.66665 0,6.66665 0,0 3.33333,0 3.33333,0 0,0 0,-6.66665 0,-6.66665 0,0 -3.33333,0 -3.33333,0 z m -9.99998,9.99998 c 0,0 3.33332,0 3.33332,0 0,0 0,6.66666 0,6.66666 0,0 -3.33332,0 -3.33332,0 0,0 0,-6.66666 0,-6.66666 z m 9.99998,0 c 0,0 3.33333,0 3.33333,0 0,0 0,6.66666 0,6.66666 0,0 -3.33333,0 -3.33333,0 0,0 0,-6.66666 0,-6.66666 z m -9.99998,9.99998 c 0,0 3.33332,0 3.33332,0 0,0 0,6.66666 0,6.66666 0,0 -3.33332,0 -3.33332,0 0,0 0,-6.66666 0,-6.66666 z m 9.99998,0 c 0,0 3.33333,0 3.33333,0 0,0 0,6.66666 0,6.66666 0,0 -3.33333,0 -3.33333,0 0,0 0,-6.66666 0,-6.66666 z m -9.99998,19.99997 c 0,0 3.33332,0 3.33332,0 0,0 0,9.99998 0,9.99998 0,0 -3.33332,0 -3.33332,0 0,0 0,-9.99998 0,-9.99998 z m 0,13.33331 c 0,0 3.33332,0 3.33332,0 0,0 0,9.99998 0,9.99998 0,0 -3.33332,0 -3.33332,0 0,0 0,-9.99998 0,-9.99998 z m 9.99998,-13.33331 c 0,0 3.33333,0 3.33333,0 0,0 0,9.99998 0,9.99998 0,0 -3.33333,0 -3.33333,0 0,0 0,-9.99998 0,-9.99998 z m 0,13.33331 c 0,0 3.33333,0 3.33333,0 0,0 0,9.99998 0,9.99998 0,0 -3.33333,0 -3.33333,0 0,0 0,-9.99998 0,-9.99998 z m -9.99998,19.99996 c 0,0 3.33332,0 3.33332,0 0,0 0,9.99998 0,9.99998 0,0 -3.33332,0 -3.33332,0 0,0 0,-9.99998 0,-9.99998 z m 0,13.33331 c 0,0 3.33332,0 3.33332,0 0,0 0,6.66665 0,6.66665 0,0 -3.33332,0 -3.33332,0 0,0 0,-6.66665 0,-6.66665 z m 9.99998,0 c 0,0 3.33333,0 3.33333,0 0,0 0,6.66665 0,6.66665 0,0 -3.33333,0 -3.33333,0 0,0 0,-6.66665 0,-6.66665 z m 0,-3.33333 c 0,0 3.33333,0 3.33333,0 0,0 0,-9.99998 0,-9.99998 0,0 -3.33333,0 -3.33333,0 0,0 0,9.99998 0,9.99998 z m 16.66663,9.99998 c 0,0 3.33333,0 3.33333,0 0,0 0,-9.99998 0,-13.33331 0,-3.33332 -3.33333,-3.33332 -3.33333,0 0,3.33333 0,13.33331 0,13.33331 z m 33.33327,0 c 0,0 0,-9.99998 0,-13.33331 0,-3.33332 3.33333,-3.33332 3.33333,0 0,0 0,13.33331 0,13.33331 0,0 -3.33333,0 -3.33333,0 z m 16.66664,0 c 0,0 0,-9.99998 0,-13.33331 0,-3.33332 3.33332,-3.33332 3.33332,0 0,0 0,13.33331 0,13.33331 0,0 -3.33332,0 -3.33332,0 z M 169.99968,258.7495 c 0,0 13.3333,0 13.3333,0 0,0 0,-19.99996 -6.66665,-19.99996 -6.66665,0 -6.66665,19.99996 -6.66665,19.99996 z M 56.66656,215.41625 c 0,0 0,-9.99998 0,-13.3333 0,-3.33333 3.333327,-3.33333 3.333327,0 0,0 0,13.3333 0,13.3333 0,0 -3.333327,0 -3.333327,0 z m 33.333268,0 c 0,0 0,-9.99998 0,-13.3333 0,-3.33333 3.333327,-3.33333 3.333327,0 0,0 0,13.3333 0,13.3333 0,0 -3.333327,0 -3.333327,0 z m -16.666634,0 c 0,0 0,-9.99998 0,-13.3333 0,-3.33333 3.333327,-3.33333 3.333327,0 0,0 0,13.3333 0,13.3333 0,0 -3.333327,0 -3.333327,0 z m 33.333266,0 c 0,0 0,-9.99998 0,-13.3333 0,-3.33333 3.33333,-3.33333 3.33333,0 0,0 0,13.3333 0,13.3333 0,0 -3.33333,0 -3.33333,0 z m 16.66664,0 c 0,0 0,-9.99998 0,-13.3333 0,-3.33333 3.33333,-3.33333 3.33333,0 0,0 0,13.3333 0,13.3333 0,0 -3.33333,0 -3.33333,0 z m -66.66654,26.66662 c 0,0 0,-9.99998 0,-13.33331 0,-3.33332 3.333327,-3.33332 3.333327,0 0,0 0,13.33331 0,13.33331 0,0 -3.333327,0 -3.333327,0 z m 33.333268,0 c 0,0 0,-9.99998 0,-13.33331 0,-3.33332 3.333327,-3.33332 3.333327,0 0,0 0,13.33331 0,13.33331 0,0 -3.333327,0 -3.333327,0 z m -16.666634,0 c 0,0 0,-9.99998 0,-13.33331 0,-3.33332 3.333327,-3.33332 3.333327,0 0,0 0,13.33331 0,13.33331 0,0 -3.333327,0 -3.333327,0 z m 33.333266,0 c 0,0 0,-9.99998 0,-13.33331 0,-3.33332 3.33333,-3.33332 3.33333,0 0,0 0,13.33331 0,13.33331 0,0 -3.33333,0 -3.33333,0 z m 16.66664,0 c 0,0 0,-9.99998 0,-13.33331 0,-3.33332 3.33333,-3.33332 3.33333,0 0,0 0,13.33331 0,13.33331 0,0 -3.33333,0 -3.33333,0 z m 103.33313,-26.66662 c 0,0 0,-9.99998 0,-13.3333 0,-3.33333 3.33333,-3.33333 3.33333,0 0,0 0,13.3333 0,13.3333 0,0 -3.33333,0 -3.33333,0 z m 33.33327,0 c 0,0 0,-9.99998 0,-13.3333 0,-3.33333 3.33333,-3.33333 3.33333,0 0,0 0,13.3333 0,13.3333 0,0 -3.33333,0 -3.33333,0 z m -16.66663,0 c 0,0 0,-9.99998 0,-13.3333 0,-3.33333 3.33332,-3.33333 3.33332,0 0,0 0,13.3333 0,13.3333 0,0 -3.33332,0 -3.33332,0 z m 33.33327,0 c 0,0 0,-9.99998 0,-13.3333 0,-3.33333 3.33332,-3.33333 3.33332,0 0,0 0,13.3333 0,13.3333 0,0 -3.33332,0 -3.33332,0 z m 16.66663,0 c 0,0 0,-9.99998 0,-13.3333 0,-3.33333 3.33333,-3.33333 3.33333,0 0,0 0,13.3333 0,13.3333 0,0 -3.33333,0 -3.33333,0 z M 143.33306,75.416522 c 0,0 13.33331,53.333228 26.66662,53.333228 0,0 0,6.66665 0,9.99998 3.33332,0 6.66665,-23.33329 6.66665,-23.33329 0,0 3.33333,23.33329 6.66665,23.33329 0,0 0,-63.333208 0,-66.666535 9.99998,-9.999978 36.6666,-9.999978 46.66658,0 0,3.333327 0,96.666475 0,96.666475 0,0 59.99988,0 59.99988,0 0,0 0,-16.66663 0,-19.99996 9.99998,0 13.33331,-43.33325 13.33331,-43.33325 0,0 3.33333,43.33325 13.33331,43.33325 0,3.33333 0,119.99977 0,119.99977 0,0 -299.999423,0 -299.999423,0 0,0 0,-136.6664 0,-139.99973 13.333308,0 19.999961,-46.666574 19.999961,-46.666574 0,0 6.666654,46.666574 19.999962,46.666574 0,3.33333 0,39.99992 0,39.99992 0,0 59.99988,0 59.99988,0 0,0 0,-39.99992 0,-39.99992 13.33331,0 26.66662,-53.333228 26.66662,-53.333228 z m 26.66662,86.666498 c 0,0 0,0 -6.66666,0 0,-9.99998 0,-26.66662 0,-26.66662 -6.66665,0 -19.99996,-39.999917 -19.99996,-39.999917 0,0 -13.33331,39.999917 -19.99996,39.999917 0,9.99998 0,39.99993 0,39.99993 0,0 -73.333194,0 -73.333194,0 0,0 0,-39.99993 0,-39.99993 -6.666654,0 -12.999975,-26.33328 -12.999975,-26.33328 0,0 -6.999986,26.33328 -13.66664,26.33328 0,9.99998 0,126.66643 0,126.66643 0,0 286.666109,0 286.666109,0 0,0 0,-106.66647 0,-106.66647 -6.66665,0 -6.66665,-16.66663 -6.66665,-16.66663 0,0 0,16.66663 -6.66665,16.66663 0,9.99999 0,19.99997 0,19.99997 0,0 -73.33319,0 -73.33319,0 0,0 0,-99.999808 0,-99.999808 -6.66666,-6.666654 -26.66662,-6.666654 -33.33327,0 0,9.99998 0,86.666498 0,86.666498 -6.66666,0 -3.33333,0 -6.66666,0 -3.33332,0 -6.33332,-22.99996 -6.33332,-22.99996 0,0 -3.66666,22.99996 -6.99998,22.99996 z"
     inkscape:connector-curvature="0"
     style="fill:#000000;fill-opacity:1;stroke:none;stroke-width:1" />
</svg>
