<?xml version="1.0" encoding="UTF-8" standalone="no"?>
<svg
   xmlns:dc="http://purl.org/dc/elements/1.1/"
   xmlns:cc="http://creativecommons.org/ns#"
   xmlns:rdf="http://www.w3.org/1999/02/22-rdf-syntax-ns#"
   xmlns:svg="http://www.w3.org/2000/svg"
   xmlns="http://www.w3.org/2000/svg"
   xmlns:sodipodi="http://sodipodi.sourceforge.net/DTD/sodipodi-0.dtd"
   xmlns:inkscape="http://www.inkscape.org/namespaces/inkscape"
   width="100"
   height="100"
   viewBox="0 0 333.33269 333.33269"
   id="svg2"
   version="1.1"
   inkscape:version="0.91 r13725"
   sodipodi:docname="SmithsonianAirAndSpace.svg">
  <metadata
     id="metadata9">
    <rdf:RDF>
      <cc:Work
         rdf:about="">
        <dc:format>image/svg+xml</dc:format>
        <dc:type
           rdf:resource="http://purl.org/dc/dcmitype/StillImage" />
        <dc:title></dc:title>
      </cc:Work>
    </rdf:RDF>
  </metadata>
  <defs
     id="defs7" />
  <sodipodi:namedview
     pagecolor="#ffffff"
     bordercolor="#666666"
     borderopacity="1"
     objecttolerance="10"
     gridtolerance="10"
     guidetolerance="10"
     inkscape:pageopacity="0"
     inkscape:pageshadow="2"
     inkscape:window-width="1218"
     inkscape:window-height="697"
     id="namedview5"
     showgrid="false"
     units="px"
     inkscape:zoom="1.5733302"
     inkscape:cx="75.000148"
     inkscape:cy="75.000148"
     inkscape:window-x="54"
     inkscape:window-y="-8"
     inkscape:window-maximized="1"
     inkscape:current-layer="svg2" />
  <path
     id="Selection #2"
     d="m 162.49969,90.05816 c 0.0167,-2.899994 -0.0583,-8.449984 4.16666,-8.449984 3.90833,0 4.12499,4.824991 4.16666,7.616652 0,0 0,19.166632 0,19.166632 0,0 6.66665,-2.5 6.66665,-2.5 -3.92499,-6.191651 -0.35833,-9.758311 5.83332,-5.83332 0.95,-8.108317 7.38332,-8.108317 8.33332,0 6.19166,-3.924991 9.75832,-0.358331 5.83332,5.83332 8.10832,0.95 8.10832,7.38332 0,8.33332 3.925,6.19165 0.35834,9.75831 -5.83332,5.83332 -0.95,8.10832 -7.38332,8.10832 -8.33332,0 0,0 -6.66665,6.84165 -6.66665,6.84165 1.725,-0.175 5.08332,-0.26666 6.63332,0 3.97499,1.34167 4.68332,5.20832 1.50833,7.18332 -1.975,1.21667 -5.82499,0.975 -8.14165,0.975 1.75,1.76666 5.35832,5.04999 5.86666,7.48332 0.58333,2.83333 -1.95833,5.11665 -5.03333,3.94999 -1.325,-0.5 -4.43332,-2.96666 -5.83332,-3.93333 0,0 0.83333,14.99998 0.83333,14.99998 0,0 0,10.83331 0,10.83331 0,0 28.33328,0 28.33328,0 0,0 4.99999,-0.5 4.99999,-0.5 0,0 22.49996,-19.8333 22.49996,-19.8333 0,0 5.83332,-0.5 5.83332,-0.5 0,0 82.49984,0 82.49984,0 0,0 0,104.16648 0,104.16648 0,0 -299.999423,0 -299.999423,0 0,0 0,-104.16648 0,-104.16648 0,0 82.499839,0 82.499839,0 0,0 5.833324,0.5 5.833324,0.5 0,0 21.66663,19.4833 21.66663,19.4833 0,0 4.99999,0.85 4.99999,0.85 0,0 29.16661,0 29.16661,0 0,0 0,-9.99998 0,-9.99998 0,0 0.83333,-15.83331 0.83333,-15.83331 -1.4,0.96667 -4.50833,3.43333 -5.83332,3.93333 -3.075,1.16666 -5.61666,-1.11666 -5.03333,-3.94999 0.50834,-2.43333 4.11666,-5.71666 5.86666,-7.48332 -2.31666,0 -6.16666,0.24167 -8.14165,-0.975 -3.175,-1.975 -2.46666,-5.84165 1.50833,-7.18332 1.55,-0.26666 4.90832,-0.175 6.63332,0 0,0 -6.66665,-6.84165 -6.66665,-6.84165 -0.95,8.10832 -7.38332,8.10832 -8.33332,0 -6.19166,3.92499 -9.75832,0.35833 -5.83332,-5.83332 -8.10832,-0.95 -8.10832,-7.38332 0,-8.33332 -3.925,-6.191651 -0.35834,-9.758311 5.83332,-5.83332 0.94166,-8.074984 7.39165,-8.074984 8.33332,0 6.19165,-3.924991 9.75831,-0.358331 5.83332,5.83332 0,0 6.66665,2.5 6.66665,2.5 0,0 0,-18.3333 0,-18.3333 z m -6.66665,24.16662 c 0,0 6.66665,5.83332 6.66665,5.83332 0,0 0,-8.33332 0,-8.33332 0,0 -6.66665,2.5 -6.66665,2.5 z m 14.99997,5.83332 c 0,0 6.66665,-5.83332 6.66665,-5.83332 0,0 -5.83332,-2.5 -5.83332,-2.5 0,0 -0.83333,8.33332 -0.83333,8.33332 z M 24.999954,155.89136 c 0,0 0,87.49984 0,87.49984 0,0 74.999854,0 74.999854,0 0,0 0,-87.49984 0,-87.49984 0,0 -74.999854,0 -74.999854,0 z m 208.332936,0 c 0,0 0,87.49984 0,87.49984 0,0 74.99985,0 74.99985,0 0,0 0,-87.49984 0,-87.49984 0,0 -74.99985,0 -74.99985,0 z m -124.99976,12.49998 c 0,0 6.66665,0 6.66665,0 0,0 -5.83332,-6.66666 -5.83332,-6.66666 0,0 -0.83333,6.66666 -0.83333,6.66666 z m 109.99979,0 c 0,0 6.66665,0 6.66665,0 0,0 0,-6.66666 0,-6.66666 0,0 -6.66665,6.66666 -6.66665,6.66666 z m -106.66646,8.33331 c 0,0 -1.66667,25.8333 -1.66667,25.8333 0,0 0,7.49998 0,7.49998 0,0 -1.66666,33.33327 -1.66666,33.33327 0,0 50.83323,0 50.83323,0 0,0 0,-21.66662 0,-21.66662 0,0 0.83334,-12.49998 0.83334,-12.49998 0,0 0,-18.3333 0,-18.3333 0,0 0.83333,-14.16665 0.83333,-14.16665 0,0 -49.16657,0 -49.16657,0 z m 60.83321,0 c 0,0 0.83333,14.16665 0.83333,14.16665 0,0 0,17.49997 0,17.49997 0,0 0.83334,13.33331 0.83334,13.33331 0,0 0,21.66662 0,21.66662 0,0 50.83323,0 50.83323,0 0,0 -1.66666,-33.33327 -1.66666,-33.33327 0,0 0,-7.49998 0,-7.49998 0,0 -1.66667,-25.8333 -1.66667,-25.8333 0,0 -49.16657,0 -49.16657,0 z"
     inkscape:connector-curvature="0"
     style="fill:#000000;fill-opacity:1;stroke:none;stroke-width:1" />
</svg>
