<?xml version="1.0" encoding="UTF-8" standalone="no"?>
<svg
   xmlns:dc="http://purl.org/dc/elements/1.1/"
   xmlns:cc="http://creativecommons.org/ns#"
   xmlns:rdf="http://www.w3.org/1999/02/22-rdf-syntax-ns#"
   xmlns:svg="http://www.w3.org/2000/svg"
   xmlns="http://www.w3.org/2000/svg"
   xmlns:sodipodi="http://sodipodi.sourceforge.net/DTD/sodipodi-0.dtd"
   xmlns:inkscape="http://www.inkscape.org/namespaces/inkscape"
   width="100"
   height="100"
   viewBox="0 0 333.33269 333.33269"
   id="svg2"
   version="1.1"
   inkscape:version="0.91 r13725"
   sodipodi:docname="SolarSystem.svg">
  <metadata
     id="metadata9">
    <rdf:RDF>
      <cc:Work
         rdf:about="">
        <dc:format>image/svg+xml</dc:format>
        <dc:type
           rdf:resource="http://purl.org/dc/dcmitype/StillImage" />
        <dc:title></dc:title>
      </cc:Work>
    </rdf:RDF>
  </metadata>
  <defs
     id="defs7" />
  <sodipodi:namedview
     pagecolor="#ffffff"
     bordercolor="#666666"
     borderopacity="1"
     objecttolerance="10"
     gridtolerance="10"
     guidetolerance="10"
     inkscape:pageopacity="0"
     inkscape:pageshadow="2"
     inkscape:window-width="1218"
     inkscape:window-height="697"
     id="namedview5"
     showgrid="false"
     units="px"
     inkscape:zoom="1.5733302"
     inkscape:cx="75.000148"
     inkscape:cy="75.000148"
     inkscape:window-x="54"
     inkscape:window-y="-8"
     inkscape:window-maximized="1"
     inkscape:current-layer="svg2" />
  <path
     id="Unnamed #28"
     d="m 245.19041,115.98611 c 0,0 -14.19669,8.19671 -14.19669,8.19671 0,0 4.09835,7.09834 4.09835,7.09834 0,0 14.1967,-8.1967 14.1967,-8.1967 0,0 -4.09836,-7.09835 -4.09836,-7.09835 z m -109.4752,72.67199 c 0,0 14.1967,-8.1967 14.1967,-8.1967 0,0 -4.09835,-7.09835 -4.09835,-7.09835 0,0 -14.1967,8.1967 -14.1967,8.1967 0,0 4.09835,7.09835 4.09835,7.09835 z m 18.40161,-91.073595 c 0,0 8.1967,14.196695 8.1967,14.196695 0,0 7.09835,-4.09835 7.09835,-4.09835 0,0 -8.1967,-14.196698 -8.1967,-14.196698 0,0 -7.09835,4.098353 -7.09835,4.098353 z m 72.67199,109.475205 c 0,0 -8.1967,-14.1967 -8.1967,-14.1967 0,0 -7.09835,4.09835 -7.09835,4.09835 0,0 8.1967,14.1967 8.1967,14.1967 0,0 7.09835,-4.09835 7.09835,-4.09835 z m 22.49996,-25.49996 c 0,0 -14.1967,-8.1967 -14.1967,-8.1967 0,0 -4.09835,7.09835 -4.09835,7.09835 0,0 14.19669,8.1967 14.19669,8.1967 0,0 4.09836,-7.09835 4.09836,-7.09835 z M 131.61686,123.08446 c 0,0 14.1967,8.1967 14.1967,8.1967 0,0 4.09835,-7.09834 4.09835,-7.09834 0,0 -14.1967,-8.19671 -14.1967,-8.19671 0,0 -4.09835,7.09835 -4.09835,7.09835 z m 88.0736,-29.598308 c 0,0 -8.1967,14.196698 -8.1967,14.196698 0,0 7.09835,4.09835 7.09835,4.09835 0,0 8.1967,-14.196695 8.1967,-14.196695 0,0 -7.09835,-4.098353 -7.09835,-4.098353 z M 161.21517,211.15806 c 0,0 8.1967,-14.1967 8.1967,-14.1967 0,0 -7.09835,-4.09835 -7.09835,-4.09835 0,0 -8.1967,14.1967 -8.1967,14.1967 0,0 7.09835,4.09835 7.09835,4.09835 z m 94.81129,-62.93431 c 0,0 -16.39341,0 -16.39341,0 0,0 0,8.19671 0,8.19671 0,0 16.39341,0 16.39341,0 0,0 0,-8.19671 0,-8.19671 z m -131.14729,8.19671 c 0,0 16.39341,0 16.39341,0 0,0 0,-8.19671 0,-8.19671 0,0 -16.39341,0 -16.39341,0 0,0 0,8.19671 0,8.19671 z m 61.47529,-69.671999 c 0,0 0,16.393409 0,16.393409 0,0 8.19671,0 8.19671,0 0,0 0,-16.393409 0,-16.393409 0,0 -8.19671,0 -8.19671,0 z m 8.19671,131.147289 c 0,0 0,-16.39341 0,-16.39341 0,0 -8.19671,0 -8.19671,0 0,0 0,16.39341 0,16.39341 0,0 8.19671,0 8.19671,0 z m -4.09836,-106.55717 c -24.59011,0 -40.98352,20.49176 -40.98352,40.98353 0,20.49176 16.39341,40.98352 40.98352,40.98352 24.59012,0 40.98353,-20.49176 40.98353,-40.98352 0,-20.49177 -16.39341,-40.98353 -40.98353,-40.98353 z m 102.45882,51.63924 c -5.63113,0.0328 -10.65571,-6.55736 -10.65571,-10.65571 0,-4.09836 5.16392,-9.86884 10.65571,-9.83605 5.4918,0.0328 9.72949,5.73769 9.80326,9.83605 0.0656,4.09835 -4.17212,10.62293 -9.80326,10.65571 z M 202.74787,29.371521 c 0,8.196706 -8.1967,12.295058 -12.29506,12.295058 -4.09835,0 -12.29505,-4.098352 -12.29505,-12.295058 0,-8.1967 8.1967,-12.295053 12.29505,-12.295053 4.09836,0 12.29506,4.098353 12.29506,12.295053 z M 63.403877,152.32211 c 0,8.1967 -8.19671,16.39341 -16.39341,16.39341 -8.196709,0 -16.393414,-8.19671 -16.393414,-16.39341 0,-8.19671 8.196705,-16.39342 16.393414,-16.39342 8.1967,0 16.39341,8.19671 16.39341,16.39342 z M 190.45281,275.27269 c -12.29505,0 -20.49176,12.29506 -20.49176,20.49176 0,8.19671 8.19671,20.49177 20.49176,20.49177 12.29506,0 20.49177,-12.29506 20.49177,-20.49177 0,-8.1967 -8.19671,-20.49176 -20.49177,-20.49176 z m 28.68847,24.59012 c 0,0 0,-4.09836 0,-8.19671 57.37694,0 73.77035,-16.39341 73.77035,-16.39341 0,0 -16.39341,24.59012 -73.77035,24.59012 z m 69.672,-163.93412 c 0,0 4.09835,0 8.19671,0 0,-45.081877 -24.59012,-65.57364 -24.59012,-65.57364 0,0 16.39341,24.590116 16.39341,65.57364 z M 169.96105,25.273174 c -49.18023,0 -65.57364,24.590111 -65.57364,24.590111 0,0 12.29505,-16.393411 65.57364,-16.393411 0,-4.098353 0,-4.098353 0,-8.1967 z M 42.912111,176.91222 c 0,0 4.098356,0 8.196706,0 0,40.98353 16.39341,77.86871 16.39341,77.86871 0,0 -24.590116,-36.88518 -24.590116,-77.86871 z"
     inkscape:connector-curvature="0"
     style="fill:#000000;fill-opacity:1;stroke:none;stroke-width:0.81967056" />
</svg>
