<?xml version="1.0" encoding="UTF-8" standalone="no"?>
<svg
   xmlns:dc="http://purl.org/dc/elements/1.1/"
   xmlns:cc="http://creativecommons.org/ns#"
   xmlns:rdf="http://www.w3.org/1999/02/22-rdf-syntax-ns#"
   xmlns:svg="http://www.w3.org/2000/svg"
   xmlns="http://www.w3.org/2000/svg"
   xmlns:sodipodi="http://sodipodi.sourceforge.net/DTD/sodipodi-0.dtd"
   xmlns:inkscape="http://www.inkscape.org/namespaces/inkscape"
   width="100"
   height="100"
   viewBox="0 0 333.33269 333.33269"
   id="svg2"
   version="1.1"
   inkscape:version="0.91 r13725"
   sodipodi:docname="Spear.svg">
  <metadata
     id="metadata9">
    <rdf:RDF>
      <cc:Work
         rdf:about="">
        <dc:format>image/svg+xml</dc:format>
        <dc:type
           rdf:resource="http://purl.org/dc/dcmitype/StillImage" />
        <dc:title></dc:title>
      </cc:Work>
    </rdf:RDF>
  </metadata>
  <defs
     id="defs7" />
  <sodipodi:namedview
     pagecolor="#ffffff"
     bordercolor="#666666"
     borderopacity="1"
     objecttolerance="10"
     gridtolerance="10"
     guidetolerance="10"
     inkscape:pageopacity="0"
     inkscape:pageshadow="2"
     inkscape:window-width="1218"
     inkscape:window-height="697"
     id="namedview5"
     showgrid="false"
     units="px"
     inkscape:zoom="1.5733302"
     inkscape:cx="75.000148"
     inkscape:cy="75.000148"
     inkscape:window-x="54"
     inkscape:window-y="-8"
     inkscape:window-maximized="1"
     inkscape:current-layer="svg2" />
  <path
     id="Spears"
     d="m 35.707025,313.52883 c 0,0 217.129375,-217.129375 217.129375,-217.129375 0,0 25.53186,-12.76593 25.53186,-12.76593 0,0 38.2978,-63.829661 38.2978,-63.829661 0,0 -63.82966,38.2978 -63.82966,38.2978 0,0 -12.76594,25.531861 -12.76594,25.531861 0,0 -217.129365,217.129375 -217.129365,217.129375 0,0 12.76593,12.76593 12.76593,12.76593 z M 144.43448,160.33763 c 0,0 -63.938185,-63.938175 -63.938185,-63.938175 0,0 -25.53186,-12.76593 -25.53186,-12.76593 0,0 -38.2978,-63.829661 -38.2978,-63.829661 0,0 63.82966,38.2978 63.82966,38.2978 0,0 12.76594,25.531861 12.76594,25.531861 0,0 63.938175,63.938175 63.938175,63.938175 0,0 -12.76593,12.76593 -12.76593,12.76593 z m 44.57225,19.04039 c 0,0 -12.76593,12.76594 -12.76593,12.76594 0,0 121.27636,121.27636 121.27636,121.27636 0,0 12.76593,-12.76593 12.76593,-12.76593 0,0 -121.27636,-121.27637 -121.27636,-121.27637 z"
     style="fill:#000000;fill-opacity:1;stroke:none;stroke-width:1"
     inkscape:connector-curvature="0" />
</svg>
