<?xml version="1.0" encoding="UTF-8" standalone="no"?>
<svg
   xmlns:dc="http://purl.org/dc/elements/1.1/"
   xmlns:cc="http://creativecommons.org/ns#"
   xmlns:rdf="http://www.w3.org/1999/02/22-rdf-syntax-ns#"
   xmlns:svg="http://www.w3.org/2000/svg"
   xmlns="http://www.w3.org/2000/svg"
   xmlns:sodipodi="http://sodipodi.sourceforge.net/DTD/sodipodi-0.dtd"
   xmlns:inkscape="http://www.inkscape.org/namespaces/inkscape"
   width="100"
   height="100"
   viewBox="0 0 333.33269 333.33269"
   id="svg2"
   version="1.1"
   inkscape:version="0.91 r13725"
   sodipodi:docname="startingHand.svg">
  <metadata
     id="metadata9">
    <rdf:RDF>
      <cc:Work
         rdf:about="">
        <dc:format>image/svg+xml</dc:format>
        <dc:type
           rdf:resource="http://purl.org/dc/dcmitype/StillImage" />
        <dc:title></dc:title>
      </cc:Work>
    </rdf:RDF>
  </metadata>
  <defs
     id="defs7" />
  <sodipodi:namedview
     pagecolor="#ffffff"
     bordercolor="#666666"
     borderopacity="1"
     objecttolerance="10"
     gridtolerance="10"
     guidetolerance="10"
     inkscape:pageopacity="0"
     inkscape:pageshadow="2"
     inkscape:window-width="1218"
     inkscape:window-height="697"
     id="namedview5"
     showgrid="false"
     units="px"
     inkscape:zoom="1.5733302"
     inkscape:cx="75.000148"
     inkscape:cy="75.000148"
     inkscape:window-x="54"
     inkscape:window-y="-8"
     inkscape:window-maximized="1"
     inkscape:current-layer="svg2" />
  <path
     id="Hand"
     d="m 131.09704,93.742147 c 0,0 -0.65116,0.651152 -0.65116,0.651152 0,0 0,-0.651152 0,-0.651152 0,0 0.65116,0 0.65116,0 z m 11.72073,113.951633 c -3.82877,-0.0456 -9.32449,-0.83347 -12.23515,-3.50971 -3.54877,-3.26227 -4.03714,-9.53938 -4.04365,-14.0714 0,0 0,-78.78941 0,-78.78941 0.007,-4.53202 0.49488,-10.80913 4.04365,-14.071403 3.3339,-3.060415 9.22032,-3.503198 13.53746,-3.50971 0,0 44.9295,0 44.9295,0 0,0 -5.56735,9.767283 -5.56735,9.767283 0,0 -2.70228,5.86688 -2.70228,5.86688 0,0 -4.10226,0.64464 -4.10226,0.64464 0,0 -33.85992,0 -33.85992,0 0,0 0,81.39403 0,81.39403 0,0 17.58111,0 17.58111,0 0.83348,5.90595 2.50694,9.4938 7.81383,12.71049 0,0 7.16267,3.56831 7.16267,3.56831 0,0 -32.55761,0 -32.55761,0 z m 52.09218,2.68275 c 0,0 -20.18572,-5.73665 -20.18572,-5.73665 -2.59158,-0.94417 -7.02593,-2.89112 -8.86218,-4.89667 -2.17485,-2.3767 -2.97577,-5.83432 -2.79995,-8.97939 0.31906,-5.652 21.64429,-83.99863 21.64429,-83.99863 2.71531,-8.145913 5.0855,-13.374665 14.76162,-12.996997 5.38503,0.208369 53.39448,13.648147 53.39448,13.648147 -7.8008,5.17015 -8.40637,5.77572 -13.67419,13.6742 0,0 -38.41798,-10.41844 -38.41798,-10.41844 0,0 -19.41085,77.20712 -19.41085,77.20712 0,0 16.80624,5.48921 16.80624,5.48921 -3.09948,10.72448 0.11721,12.08539 7.16267,19.53457 0,0 -10.41843,-2.52647 -10.41843,-2.52647 z m -83.99863,6.92175 c -4.25854,0.74231 -9.04451,1.60183 -13.016527,-0.67069 -5.83433,-3.3339 -8.0222,-14.52721 -9.7738,-20.65455 0,0 -15.7123,-58.6037 -15.7123,-58.6037 -1.59532,-6.3878 -5.40456,-18.23226 -1.413,-24.0796 3.09948,-4.55156 54.683757,-18.55133 58.799037,-18.896441 -5.07899,7.624991 -5.85386,9.578451 -5.86037,18.883411 0,0 -37.766827,9.76729 -37.766827,9.76729 0,0 20.836867,78.13826 20.836867,78.13826 0,0 17.58111,-4.55807 17.58111,-4.55807 1.19812,5.24829 3.34041,9.23334 8.46498,11.59702 0,0 6.51152,2.07718 6.51152,2.07718 0,0 -28.65069,6.99989 -28.65069,6.99989 z M 272.39706,116.63015 c 0,0 33.20876,19.23503 33.20876,19.23503 5.93851,3.82878 11.21935,6.77198 11.05657,14.52721 -0.13023,6.51803 -4.27156,12.6584 -7.29942,18.23226 0,0 -35.57244,61.20831 -35.57244,61.20831 -2.42229,3.67901 -6.02967,8.34126 -10.5096,9.42217 -4.31063,1.04184 -8.58219,-0.88557 -12.37189,-2.75438 0,0 -41.67374,-23.81914 -41.67374,-23.81914 -3.48367,-2.28555 -8.04173,-5.38503 -9.34404,-9.54589 -2.1488,-6.86315 4.519,-17.56809 7.85941,-23.44148 0,0 28.93069,-50.13872 28.93069,-50.13872 3.75064,-6.53757 8.66033,-16.78019 16.18113,-19.18946 7.02594,-1.13951 13.64815,2.91065 19.53457,6.26409 z M 73.795643,239.57419 c -7.39709,0.31907 -10.31425,-4.0697 -14.09744,-9.74123 0,0 -36.96591,-63.81292 -36.96591,-63.81292 -2.40275,-4.20644 -6.56362,-12.01376 -6.01665,-16.92996 0.65115,-5.84083 6.27711,-9.65658 10.8482,-12.49561 0,0 35.98918,-21.41639 40.37143,-22.66661 -1.23067,3.80273 -1.64741,5.73014 -1.01579,9.76729 0.27999,1.8102 1.62788,6.86314 1.16556,8.32823 -0.59906,1.90788 -29.19115,18.45366 -33.35853,19.67131 0,0 39.72028,70.32444 39.72028,70.32444 0,0 14.41,-8.36731 15.60161,-8.45847 3.04739,-0.24092 3.75715,4.08273 9.14218,6.14037 6.251057,2.38321 9.252867,-0.57302 13.674187,0.36464 0,0 -33.944557,19.28713 -39.069127,19.50852 z M 269.79245,134.77125 c -2.01206,-1.1851 -9.78682,-6.11432 -11.65562,-5.86037 -1.7516,0.24092 -2.79345,2.53298 -3.59436,3.9004 0,0 -37.49335,65.11522 -37.49335,65.11522 0,0 42.3249,23.44148 42.3249,23.44148 0,0 28.00605,-48.83642 28.00605,-48.83642 0,0 11.71423,-20.83687 11.71423,-20.83687 0,0 -29.30185,-16.92344 -29.30185,-16.92344 z"
     inkscape:connector-curvature="0"
     style="fill:#000000;fill-opacity:1;stroke:none;stroke-width:1" />
</svg>
