<?xml version="1.0" encoding="UTF-8" standalone="no"?>
<svg
   xmlns:dc="http://purl.org/dc/elements/1.1/"
   xmlns:cc="http://creativecommons.org/ns#"
   xmlns:rdf="http://www.w3.org/1999/02/22-rdf-syntax-ns#"
   xmlns:svg="http://www.w3.org/2000/svg"
   xmlns="http://www.w3.org/2000/svg"
   xmlns:sodipodi="http://sodipodi.sourceforge.net/DTD/sodipodi-0.dtd"
   xmlns:inkscape="http://www.inkscape.org/namespaces/inkscape"
   width="100"
   height="100"
   viewBox="0 0 333.33269 333.33269"
   id="svg2"
   version="1.1"
   inkscape:version="0.91 r13725"
   sodipodi:docname="sun.svg">
  <metadata
     id="metadata9">
    <rdf:RDF>
      <cc:Work
         rdf:about="">
        <dc:format>image/svg+xml</dc:format>
        <dc:type
           rdf:resource="http://purl.org/dc/dcmitype/StillImage" />
        <dc:title></dc:title>
      </cc:Work>
    </rdf:RDF>
  </metadata>
  <defs
     id="defs7" />
  <sodipodi:namedview
     pagecolor="#ffffff"
     bordercolor="#666666"
     borderopacity="1"
     objecttolerance="10"
     gridtolerance="10"
     guidetolerance="10"
     inkscape:pageopacity="0"
     inkscape:pageshadow="2"
     inkscape:window-width="1218"
     inkscape:window-height="697"
     id="namedview5"
     showgrid="false"
     units="px"
     inkscape:zoom="1.5733302"
     inkscape:cx="75.000148"
     inkscape:cy="75.000148"
     inkscape:window-x="54"
     inkscape:window-y="-8"
     inkscape:window-maximized="1"
     inkscape:current-layer="svg2" />
  <path
     id="Sun"
     d="m 292.57277,84.739837 c 0,0 -43.30658,24.999953 -43.30658,24.999953 0,0 8.33332,14.4333 8.33332,14.4333 0,0 43.30658,-24.999948 43.30658,-24.999948 0,0 -8.33332,-14.433305 -8.33332,-14.433305 z M 40.759923,248.59286 c 0,0 43.306583,-24.99995 43.306583,-24.99995 0,0 -8.333317,-14.43331 -8.333317,-14.43331 0,0 -43.306583,24.99995 -43.306583,24.99995 0,0 8.333317,14.43331 8.333317,14.43331 z M 84.739838,40.759923 c 0,0 24.999952,43.306582 24.999952,43.306582 0,0 14.43331,-8.333318 14.43331,-8.333318 0,0 -24.999957,-43.306581 -24.999957,-43.306581 0,0 -14.433305,8.333317 -14.433305,8.333317 z M 248.59286,292.57277 c 0,0 -24.99995,-43.30658 -24.99995,-43.30658 0,0 -14.43331,8.33332 -14.43331,8.33332 0,0 24.99995,43.30658 24.99995,43.30658 0,0 14.43331,-8.33332 14.43331,-8.33332 z M 234.73955,32.759939 c 0,0 -24.99995,43.306581 -24.99995,43.306581 0,0 14.4333,8.333317 14.4333,8.333317 0,0 24.99996,-43.306581 24.99996,-43.306581 0,0 -14.43331,-8.333317 -14.43331,-8.333317 z M 98.593144,300.57276 c 0,0 24.999956,-43.30659 24.999956,-43.30659 0,0 -14.43331,-8.33331 -14.43331,-8.33331 0,0 -24.999951,43.30658 -24.999951,43.30658 0,0 14.433305,8.33332 14.433305,8.33332 z M 32.759939,98.593143 c 0,0 43.306582,24.999947 43.306582,24.999947 0,0 8.333318,-14.4333 8.333318,-14.4333 0,0 -43.306583,-24.999952 -43.306583,-24.999952 0,0 -8.333317,14.433305 -8.333317,14.433305 z M 300.57276,234.73955 c 0,0 -43.30659,-24.99995 -43.30659,-24.99995 0,0 -8.33331,14.4333 -8.33331,14.4333 0,0 43.30658,24.99996 43.30658,24.99996 0,0 8.33332,-14.43331 8.33332,-14.43331 z M 158.66636,16.666637 c 0,0 0,49.999901 0,49.999901 0,0 16.66664,0 16.66664,0 0,0 0,-49.999901 0,-49.999901 0,0 -16.66664,0 -16.66664,0 z m 15.99997,299.999423 c 0,0 0,-49.9999 0,-49.9999 0,0 -16.66663,0 -16.66663,0 0,0 0,49.9999 0,49.9999 0,0 16.66663,0 16.66663,0 z M 16.666637,174.66633 c 0,0 49.999903,0 49.999903,0 0,0 0,-16.66664 0,-16.66664 0,0 -49.999903,0 -49.999903,0 0,0 0,16.66664 0,16.66664 z M 316.66606,158.66636 c 0,0 -49.9999,0 -49.9999,0 0,0 0,16.66663 0,16.66663 0,0 49.9999,0 49.9999,0 0,0 0,-16.66663 0,-16.66663 z M 168.66635,83.473172 c 9.03331,-0.126666 20.99329,2.406662 29.33327,5.866656 15.13331,6.273321 28.23995,16.379972 37.49993,29.993272 21.99329,32.3266 18.85996,77.32652 -8.83332,105.33314 -7.09998,7.17332 -13.56664,12.16664 -22.66662,16.5933 -13.67331,6.65332 -25.55328,8.91331 -40.66659,8.73998 -10.33998,-0.12667 -22.66662,-3.44666 -31.99994,-7.80665 -38.619924,-18.0333 -57.91322,-63.31321 -43.299915,-103.52647 8.74665,-24.05995 27.086615,-42.426586 51.299905,-50.873236 6.73999,-2.346662 13.02664,-3.16666 19.99996,-4.319992 0,0 9.33332,0 9.33332,0 z"
     inkscape:connector-curvature="0"
     style="fill:#000000;fill-opacity:1;stroke:none;stroke-width:1" />
</svg>
