<?xml version="1.0" encoding="UTF-8" standalone="no"?>
<svg
   xmlns:dc="http://purl.org/dc/elements/1.1/"
   xmlns:cc="http://creativecommons.org/ns#"
   xmlns:rdf="http://www.w3.org/1999/02/22-rdf-syntax-ns#"
   xmlns:svg="http://www.w3.org/2000/svg"
   xmlns="http://www.w3.org/2000/svg"
   xmlns:sodipodi="http://sodipodi.sourceforge.net/DTD/sodipodi-0.dtd"
   xmlns:inkscape="http://www.inkscape.org/namespaces/inkscape"
   width="100"
   height="100"
   viewBox="0 0 333.33266 333.33266"
   id="svg2"
   version="1.1"
   inkscape:version="0.91 r13725"
   sodipodi:docname="sun.2.svg">
  <metadata
     id="metadata9">
    <rdf:RDF>
      <cc:Work
         rdf:about="">
        <dc:format>image/svg+xml</dc:format>
        <dc:type
           rdf:resource="http://purl.org/dc/dcmitype/StillImage" />
        <dc:title></dc:title>
      </cc:Work>
    </rdf:RDF>
  </metadata>
  <defs
     id="defs7" />
  <sodipodi:namedview
     pagecolor="#ffffff"
     bordercolor="#666666"
     borderopacity="1"
     objecttolerance="10"
     gridtolerance="10"
     guidetolerance="10"
     inkscape:pageopacity="0"
     inkscape:pageshadow="2"
     inkscape:window-width="1218"
     inkscape:window-height="697"
     id="namedview5"
     showgrid="false"
     units="px"
     inkscape:zoom="1.5733302"
     inkscape:cx="75.000148"
     inkscape:cy="75.000148"
     inkscape:window-x="54"
     inkscape:window-y="-8"
     inkscape:window-maximized="1"
     inkscape:current-layer="svg2" />
  <path
     id="Selection #34"
     d="m 181.34715,16.666633 c 0,0 0,60.638178 0,60.638178 0,0 -28.72334,0 -28.72334,0 0,0 0,-60.638178 0,-60.638178 0,0 28.72334,0 28.72334,0 z m -15.95741,12.765932 c 0,0 0,35.106315 0,35.106315 0,0 3.19148,0 3.19148,0 0,0 0,-35.106315 0,-35.106315 0,0 -3.19148,0 -3.19148,0 z m -60.63818,0.638297 c 0,0 19.7872,34.468018 19.7872,34.468018 0,0 9.57444,17.872304 9.57444,17.872304 0,0 -24.25527,13.404228 -24.25527,13.404228 0,0 -17.502088,-29.999939 -17.502088,-29.999939 0,0 -12.497847,-22.340383 -12.497847,-22.340383 0,0 24.893565,-13.404228 24.893565,-13.404228 z m 149.3614,14.042524 c 0,0 -29.99994,52.340322 -29.99994,52.340322 0,0 -24.25527,-14.042524 -24.25527,-14.042524 0,0 9.70211,-17.872304 9.70211,-17.872304 0,0 19.65953,-34.468018 19.65953,-34.468018 0,0 24.89357,14.042524 24.89357,14.042524 z M 100.41753,55.602728 c 0,0 13.90848,23.616973 13.90848,23.616973 0,0 3.19148,-1.276594 3.19148,-1.276594 0,0 -5.99999,-11.489337 -5.99999,-11.489337 0,0 -11.09997,-19.787197 -11.09997,-19.787197 -5.265949,1.908506 -1.825531,5.514885 0,8.936155 z m 129.17208,-1.276593 c -2.72553,4.697862 -11.85955,19.570172 -13.13615,23.616972 4.60212,1.780848 5.41276,-2.106378 7.48084,-5.744669 3.07021,-5.399988 11.96806,-19.110599 12.94465,-24.255272 -4.56382,-0.759573 -5.25956,2.878721 -7.28934,6.382969 z M 96.453706,109.21964 c 0,0 -14.042525,24.25527 -14.042525,24.25527 0,0 -16.595711,-8.93615 -16.595711,-8.93615 0,0 -35.744608,-20.42549 -35.744608,-20.42549 0,0 14.042524,-24.893569 14.042524,-24.893569 0,0 52.34032,29.999939 52.34032,29.999939 z M 297.69585,93.900522 c 0,0 5.56595,10.851038 5.56595,10.851038 0,0 -34.46802,19.7872 -34.46802,19.7872 0,0 -17.8723,9.57444 -17.8723,9.57444 0,0 -13.40423,-24.25526 -13.40423,-24.25526 0,0 21.70208,-12.670191 21.70208,-12.670191 0,0 29.99994,-17.329752 29.99994,-17.329752 0,0 8.47658,14.042525 8.47658,14.042525 z M 173.0493,81.268633 c 20.87229,-0.0383 44.28501,12.740399 57.97647,27.951007 26.73825,29.7127 28.72335,77.28495 4.64042,109.14871 -6.47233,8.55956 -14.48295,16.01486 -23.6808,21.57443 -8.67445,5.23403 -20.5723,10.00849 -30.63824,11.43827 0,0 -16.59571,1.42979 -16.59571,1.42979 -21.36379,-0.68298 -42.68289,-9.35105 -58.08499,-24.25527 -38.553112,-37.30844 -33.657378,-102.30618 10.85104,-132.721009 12.74679,-8.712749 23.32336,-11.974444 38.2978,-14.565928 0,0 17.23401,0 17.23401,0 z m -45.95736,22.882927 c -20.78294,12.90636 -33.906313,36.86801 -34.461631,61.23818 -0.07021,3.12765 0.23617,4.12339 0.523403,7.02126 2.923399,29.2276 19.927618,53.2467 47.980758,63.45306 5.60424,2.04255 13.1872,4.13616 19.14889,4.20638 18.0255,0.21063 28.58931,-0.92553 44.68076,-10.12977 39.10844,-22.3723 46.77438,-78.33814 17.6872,-111.78488 -16.34677,-18.804215 -40.44885,-27.025475 -64.92114,-24.708459 -11.77657,1.946805 -20.32337,4.302119 -30.63824,10.704229 z m -54.893504,5.2468 c -5.399989,-3.0702 -19.1106,-11.968058 -24.25527,-12.944652 -0.759573,4.563822 2.878717,5.259562 6.382965,7.289352 4.697863,2.72552 19.570174,11.85955 23.616974,13.13614 1.780847,-4.60212 -2.106379,-5.41276 -5.744669,-7.48084 z m 205.531494,-8.98083 c 0,0 -23.61697,13.90848 -23.61697,13.90848 2.52127,4.19999 4.3468,2.12553 9.57445,-0.90638 0,0 22.97868,-13.0021 22.97868,-13.0021 -1.90851,-5.265947 -5.51489,-1.825528 -8.93616,0 z M 77.304808,151.98551 c 0,0 0,28.72334 0,28.72334 0,0 -60.638175,0 -60.638175,0 0,0 0,-28.72334 0,-28.72334 0,0 60.638175,0 60.638175,0 z m 239.361222,0.6383 c 0,0 0,28.72334 0,28.72334 0,0 -60.63818,0 -60.63818,0 0,0 0,-28.72334 0,-28.72334 0,0 60.63818,0 60.63818,0 z M 29.432565,164.75144 c 0,0 0,3.19148 0,3.19148 0,0 35.106312,0 35.106312,0 0,0 0,-3.19148 0,-3.19148 0,0 -35.106312,0 -35.106312,0 z m 239.361215,0.6383 c 0,0 0,3.19148 0,3.19148 0,0 35.10631,0 35.10631,0 0,0 0,-3.19148 0,-3.19148 0,0 -35.10631,0 -35.10631,0 z M 64.538877,208.7939 c 0,0 17.872304,-9.57444 17.872304,-9.57444 0,0 13.404228,24.25527 13.404228,24.25527 0,0 -29.999939,17.50209 -29.999939,17.50209 0,0 -22.34038,12.49784 -22.34038,12.49784 0,0 -13.404228,-24.89356 -13.404228,-24.89356 0,0 34.468015,-19.7872 34.468015,-19.7872 z m 202.978313,0 c 0,0 20.42549,11.75743 20.42549,11.75743 0,0 15.31912,8.66806 15.31912,8.66806 0,0 -14.04253,24.89357 -14.04253,24.89357 0,0 -52.34032,-29.99994 -52.34032,-29.99994 0,0 14.04253,-24.25527 14.04253,-24.25527 0,0 16.59571,8.93615 16.59571,8.93615 z M 69.645249,220.01516 c 0,0 -22.978676,12.89997 -22.978676,12.89997 1.908506,5.26595 5.514882,1.82553 8.936152,0 0,0 23.616973,-13.90848 23.616973,-13.90848 -2.636165,-4.39148 -4.589352,-1.88298 -9.574449,1.00851 z m 209.361281,9.57445 c -4.69787,-2.72553 -19.57018,-11.85955 -23.61698,-13.13615 0,0 -1.27659,3.19149 -1.27659,3.19149 0,0 19.78719,11.66806 19.78719,11.66806 3.65106,2.07446 7.32765,4.77446 11.48934,5.56594 0.75958,-4.56382 -2.87871,-5.25956 -6.38296,-7.28934 z m -145.53162,21.33187 c 0,0 -8.93615,16.59571 -8.93615,16.59571 0,0 -20.4255,35.74461 -20.4255,35.74461 0,0 -24.893562,-14.04253 -24.893562,-14.04253 0,0 29.999942,-52.34032 29.999942,-52.34032 0,0 24.25527,14.04253 24.25527,14.04253 z m 89.99982,-13.40423 c 0,0 17.50209,29.99994 17.50209,29.99994 0,0 12.49784,22.34038 12.49784,22.34038 0,0 -24.89356,13.40423 -24.89356,13.40423 0,0 -19.02124,-33.19142 -19.02124,-33.19142 0,0 -10.3404,-19.1489 -10.3404,-19.1489 0,0 24.25527,-13.40423 24.25527,-13.40423 z m -114.07637,23.61697 c -3.07021,5.39999 -11.968061,19.1106 -12.944654,24.25527 4.563824,0.75958 5.259564,-2.87871 7.289344,-6.38296 2.76383,-4.75531 11.8404,-19.51911 13.13615,-23.61698 -4.60212,-1.78084 -5.41276,2.10638 -7.48084,5.74467 z m 110.6168,2.55319 c 0,0 12.89997,22.97868 12.89997,22.97868 5.26595,-1.90851 1.82553,-5.51489 0,-8.93616 0,0 -13.90848,-23.61697 -13.90848,-23.61697 -4.39148,2.63617 -1.88298,4.58935 1.00851,9.57445 z m -39.30631,-7.65956 c 0,0 0,60.63818 0,60.63818 0,0 -28.72334,0 -28.72334,0 0,0 0,-60.63818 0,-60.63818 0,0 28.72334,0 28.72334,0 z m -15.95741,12.76593 c 0,0 0,35.10631 0,35.10631 0,0 3.19148,0 3.19148,0 0,0 0,-35.10631 0,-35.10631 0,0 -3.19148,0 -3.19148,0 z"
     inkscape:connector-curvature="0"
     style="fill:#000000;fill-opacity:1;stroke:none;stroke-width:1" />
</svg>
