<?xml version="1.0" encoding="UTF-8" standalone="no"?>
<svg
   xmlns:dc="http://purl.org/dc/elements/1.1/"
   xmlns:cc="http://creativecommons.org/ns#"
   xmlns:rdf="http://www.w3.org/1999/02/22-rdf-syntax-ns#"
   xmlns:svg="http://www.w3.org/2000/svg"
   xmlns="http://www.w3.org/2000/svg"
   xmlns:sodipodi="http://sodipodi.sourceforge.net/DTD/sodipodi-0.dtd"
   xmlns:inkscape="http://www.inkscape.org/namespaces/inkscape"
   width="100"
   height="100"
   viewBox="0 0 333.33269 333.33269"
   id="svg2"
   version="1.1"
   inkscape:version="0.91 r13725"
   sodipodi:docname="Sword.svg">
  <metadata
     id="metadata9">
    <rdf:RDF>
      <cc:Work
         rdf:about="">
        <dc:format>image/svg+xml</dc:format>
        <dc:type
           rdf:resource="http://purl.org/dc/dcmitype/StillImage" />
        <dc:title></dc:title>
      </cc:Work>
    </rdf:RDF>
  </metadata>
  <defs
     id="defs7" />
  <sodipodi:namedview
     pagecolor="#ffffff"
     bordercolor="#666666"
     borderopacity="1"
     objecttolerance="10"
     gridtolerance="10"
     guidetolerance="10"
     inkscape:pageopacity="0"
     inkscape:pageshadow="2"
     inkscape:window-width="1218"
     inkscape:window-height="697"
     id="namedview5"
     showgrid="false"
     units="px"
     inkscape:zoom="1.5733302"
     inkscape:cx="75.000148"
     inkscape:cy="75.000148"
     inkscape:window-x="54"
     inkscape:window-y="-8"
     inkscape:window-maximized="1"
     inkscape:current-layer="svg2" />
  <path
     id="Unnamed #3"
     d="m 239.43217,23.049604 c 0,0 11.48934,-6.38297 11.48934,-6.38297 0,0 11.48934,6.38297 11.48934,6.38297 0,0 7.65956,0 7.65956,0 0,0 0,6.38296 0,6.38296 0,0 -7.65956,0 -7.65956,0 0,0 0,57.446701 0,57.446701 0,0 30.63824,0 30.63824,0 0,0 0,9.574449 0,9.574449 0,0 -30.63824,3.19148 -30.63824,3.19148 0,0 3.82978,197.871966 3.82978,197.871966 0,0 -15.31912,19.1489 -15.31912,19.1489 0,0 -15.31912,-19.1489 -15.31912,-19.1489 0,0 3.82978,-197.871966 3.82978,-197.871966 0,0 -30.63824,-3.19148 -30.63824,-3.19148 0,0 0,-9.574449 0,-9.574449 0,0 30.63824,0 30.63824,0 0,0 0,-57.446701 0,-57.446701 0,0 -7.65956,0 -7.65956,0 0,0 0,-6.38296 0,-6.38296 0,0 7.65956,0 7.65956,0 z m -168.510325,0 c 0,0 11.48934,-6.38297 11.48934,-6.38297 0,0 11.48934,6.38297 11.48934,6.38297 0,0 7.659565,0 7.659565,0 0,0 0,6.38296 0,6.38296 0,0 -7.659565,0 -7.659565,0 0,0 0,57.446701 0,57.446701 0,0 30.638245,0 30.638245,0 0,0 0,9.574449 0,9.574449 0,0 -30.638245,3.19148 -30.638245,3.19148 0,0 3.82978,197.871966 3.82978,197.871966 0,0 -15.31912,19.1489 -15.31912,19.1489 0,0 -15.31912,-19.1489 -15.31912,-19.1489 0,0 3.82978,-197.871966 3.82978,-197.871966 0,0 -30.63824,-3.19148 -30.63824,-3.19148 0,0 0,-9.574449 0,-9.574449 0,0 30.63824,0 30.63824,0 0,0 0,-57.446701 0,-57.446701 0,0 -7.65956,0 -7.65956,0 0,0 0,-6.38296 0,-6.38296 0,0 7.65956,0 7.65956,0 z M 155.17701,310.28309 c 0,0 11.48934,6.38297 11.48934,6.38297 0,0 11.48934,-6.38297 11.48934,-6.38297 0,0 7.65956,0 7.65956,0 0,0 0,-6.38296 0,-6.38296 0,0 -7.65956,0 -7.65956,0 0,0 0,-57.4467 0,-57.4467 0,0 30.63824,0 30.63824,0 0,0 0,-9.57445 0,-9.57445 0,0 -30.63824,-3.19148 -30.63824,-3.19148 0,0 3.82978,-197.871966 3.82978,-197.871966 0,0 -15.31912,-19.1489 -15.31912,-19.1489 0,0 -15.31912,19.1489 -15.31912,19.1489 0,0 3.82978,197.871966 3.82978,197.871966 0,0 -30.63824,3.19148 -30.63824,3.19148 0,0 0,9.57445 0,9.57445 0,0 30.63824,0 30.63824,0 0,0 0,57.4467 0,57.4467 0,0 -7.65956,0 -7.65956,0 0,0 0,6.38296 0,6.38296 0,0 7.65956,0 7.65956,0 z"
     style="fill:#000000;fill-opacity:1;stroke:none;stroke-width:1"
     inkscape:connector-curvature="0" />
</svg>
