<?xml version="1.0" encoding="UTF-8" standalone="no"?>
<svg
   xmlns:dc="http://purl.org/dc/elements/1.1/"
   xmlns:cc="http://creativecommons.org/ns#"
   xmlns:rdf="http://www.w3.org/1999/02/22-rdf-syntax-ns#"
   xmlns:svg="http://www.w3.org/2000/svg"
   xmlns="http://www.w3.org/2000/svg"
   xmlns:sodipodi="http://sodipodi.sourceforge.net/DTD/sodipodi-0.dtd"
   xmlns:inkscape="http://www.inkscape.org/namespaces/inkscape"
   width="100"
   height="100"
   viewBox="0 0 333.33269 333.33269"
   id="svg2"
   version="1.1"
   inkscape:version="0.91 r13725"
   sodipodi:docname="syringe.svg">
  <metadata
     id="metadata9">
    <rdf:RDF>
      <cc:Work
         rdf:about="">
        <dc:format>image/svg+xml</dc:format>
        <dc:type
           rdf:resource="http://purl.org/dc/dcmitype/StillImage" />
        <dc:title></dc:title>
      </cc:Work>
    </rdf:RDF>
  </metadata>
  <defs
     id="defs7" />
  <sodipodi:namedview
     pagecolor="#ffffff"
     bordercolor="#666666"
     borderopacity="1"
     objecttolerance="10"
     gridtolerance="10"
     guidetolerance="10"
     inkscape:pageopacity="0"
     inkscape:pageshadow="2"
     inkscape:window-width="1218"
     inkscape:window-height="697"
     id="namedview5"
     showgrid="false"
     units="px"
     inkscape:zoom="1.5733302"
     inkscape:cx="75.000148"
     inkscape:cy="75.000148"
     inkscape:window-x="54"
     inkscape:window-y="-8"
     inkscape:window-maximized="1"
     inkscape:current-layer="svg2" />
  <path
     id="Syringe"
     d="m 102.91647,222.91624 c 0,0 0,-3.74999 0,-3.74999 0,0 -7.499985,-7.49999 -7.499985,-7.49999 0,0 3.74999,-3.74999 3.74999,-3.74999 0,0 0,-3.74999 0,-3.74999 0,0 3.749995,-3.75 3.749995,-3.75 0,0 3.75,3.75 3.75,3.75 0,0 3.74999,0 3.74999,0 0,0 -18.749975,-18.74997 -18.749975,-18.74997 0,0 131.249755,-131.249746 131.249755,-131.249746 0,0 18.74997,18.74996 18.74997,18.74996 0,0 26.24994,-26.24995 26.24994,-26.24995 0,0 -18.74996,-18.74996 -18.74996,-18.74996 0,0 11.24998,-11.249979 11.24998,-11.249979 0,0 56.24989,56.249889 56.24989,56.249889 0,0 -11.24998,11.24998 -11.24998,11.24998 0,0 -18.74996,-18.74996 -18.74996,-18.74996 0,0 -26.24995,26.24994 -26.24995,26.24994 0,0 18.74996,18.749966 18.74996,18.749966 0,0 -131.24974,131.24976 -131.24974,131.24976 0,0 -18.74997,-18.74997 -18.74997,-18.74997 0,0 0,3.74999 0,3.74999 0,0 3.75,3.75 3.75,3.75 0,0 -3.75,3.74999 -3.75,3.74999 0,0 -3.74999,0 -3.74999,0 0,0 -3.74999,3.74999 -3.74999,3.74999 0,0 -7.49999,-7.49998 -7.49999,-7.49998 0,0 -3.74999,0 -3.74999,0 0,0 -86.249845,82.49984 -86.249845,82.49984 0,0 -7.49998,3.74999 -7.49998,3.74999 0,0 3.74999,-7.49998 3.74999,-7.49998 0,0 82.499845,-86.24984 82.499845,-86.24984 z m 155.6322,-114.36729 c 0,0 -35.63243,-35.632426 -35.63243,-35.632426 0,0 -112.49978,112.499786 -112.49978,112.499786 0,0 35.62493,35.60244 35.62493,35.60244 0,0 5.62499,-5.60249 5.62499,-5.60249 0,0 -7.49999,-7.49999 -7.49999,-7.49999 0,0 7.49999,-7.49999 7.49999,-7.49999 0,0 7.49998,7.49999 7.49998,7.49999 0,0 7.49999,-7.49999 7.49999,-7.49999 0,0 -14.99997,-14.99997 -14.99997,-14.99997 0,0 7.49998,-7.49999 7.49998,-7.49999 0,0 14.99998,14.99998 14.99998,14.99998 0,0 7.49998,-7.49999 7.49998,-7.49999 0,0 -7.49998,-7.49999 -7.49998,-7.49999 0,0 7.49998,-7.49999 7.49998,-7.49999 0,0 7.49999,7.49999 7.49999,7.49999 0,0 7.49998,-7.49999 7.49998,-7.49999 0,0 -14.99997,-14.99997 -14.99997,-14.99997 0,0 7.49999,-7.49998 7.49999,-7.49998 0,0 14.99997,14.99997 14.99997,14.99997 0,0 7.49998,-7.49999 7.49998,-7.49999 0,0 -7.49998,-7.49998 -7.49998,-7.49998 0,0 7.49998,-7.49999 7.49998,-7.49999 0,0 7.49999,7.49999 7.49999,7.49999 0,0 7.49998,-7.49999 7.49998,-7.49999 0,0 -14.99997,-14.99997 -14.99997,-14.99997 0,0 7.49999,-7.49999 7.49999,-7.49999 0,0 14.99997,14.99998 14.99997,14.99998 0,0 7.49999,-7.49999 7.49999,-7.49999 0,0 -7.49999,-7.49999 -7.49999,-7.49999 0,0 7.49999,-7.49998 7.49999,-7.49998 0,0 7.49998,7.49998 7.49998,7.49998 0,0 9.38248,-9.36748 9.38248,-9.36748 z"
     style="fill:#000000;fill-opacity:1;stroke:none;stroke-width:1"
     inkscape:connector-curvature="0" />
</svg>
