<?xml version="1.0" encoding="UTF-8" standalone="no"?>
<svg
   xmlns:dc="http://purl.org/dc/elements/1.1/"
   xmlns:cc="http://creativecommons.org/ns#"
   xmlns:rdf="http://www.w3.org/1999/02/22-rdf-syntax-ns#"
   xmlns:svg="http://www.w3.org/2000/svg"
   xmlns="http://www.w3.org/2000/svg"
   xmlns:sodipodi="http://sodipodi.sourceforge.net/DTD/sodipodi-0.dtd"
   xmlns:inkscape="http://www.inkscape.org/namespaces/inkscape"
   width="100"
   height="100"
   viewBox="0 0 333.33269 333.33269"
   id="svg2"
   version="1.1"
   inkscape:version="0.91 r13725"
   sodipodi:docname="TakeOrder.svg"
   inkscape:export-filename="C:\Users\mbrown\Desktop\Drawings\icons\forJustin\TakeOrder.png"
   inkscape:export-xdpi="300"
   inkscape:export-ydpi="300">
  <metadata
     id="metadata9">
    <rdf:RDF>
      <cc:Work
         rdf:about="">
        <dc:format>image/svg+xml</dc:format>
        <dc:type
           rdf:resource="http://purl.org/dc/dcmitype/StillImage" />
        <dc:title></dc:title>
      </cc:Work>
    </rdf:RDF>
  </metadata>
  <defs
     id="defs7" />
  <sodipodi:namedview
     pagecolor="#ffffff"
     bordercolor="#666666"
     borderopacity="1"
     objecttolerance="10"
     gridtolerance="10"
     guidetolerance="10"
     inkscape:pageopacity="0"
     inkscape:pageshadow="2"
     inkscape:window-width="1218"
     inkscape:window-height="697"
     id="namedview5"
     showgrid="false"
     units="px"
     inkscape:zoom="1.5733302"
     inkscape:cx="75.000148"
     inkscape:cy="75.000148"
     inkscape:window-x="54"
     inkscape:window-y="-8"
     inkscape:window-maximized="1"
     inkscape:current-layer="svg2" />
  <path
     id="Take Order"
     d="m 91.779034,25.19419 c 4.588569,-5.149553 19.584126,-3.77586 26.308756,-3.747091 4.14984,0.02158 9.05486,0.222955 11.91733,3.67517 3.3731,4.056352 2.46689,13.413293 2.46689,18.620383 5.23586,0 14.5928,-1.006896 18.606,2.459703 2.74019,2.366206 2.92719,4.969751 2.97034,8.328468 0,0 0,32.364511 0,32.364511 0,0 -86.305361,0 -86.305361,0 0,0 0,-31.645299 0,-31.645299 0.0072,-4.14985 -0.06473,-6.947582 3.624826,-9.702162 3.639209,-2.711427 13.283834,-1.805221 17.951516,-1.805221 0,-5.149553 -1.014088,-14.650336 2.459703,-18.548462 z M 205.11236,294.02821 c 0,3.85498 0.99251,14.96679 -2.3734,17.13881 -1.56069,0.99971 -4.43034,0.84148 -6.25714,0.84148 0,0 -138.088579,0 -138.088579,0 0,0 -28.049244,0 -28.049244,0 -2.639506,0 -9.292211,0.40995 -11.341963,-0.84148 -2.668275,-1.63261 -2.315861,-5.09202 -2.323053,-7.78906 0,0 0,-188.43338 0,-188.43338 0,0 0,-48.187165 0,-48.187165 0.01438,-8.436348 1.927486,-8.61615 10.068959,-8.630535 0,0 29.487667,0 29.487667,0 0,0 0,13.665015 0,13.665015 0,0 -25.89161,0 -25.89161,0 0,0 0,226.551585 0,226.551585 0,0 161.103343,0 161.103343,0 0,0 0,-46.02953 0,-46.02953 0.0144,-7.82502 1.17232,-5.4732 6.47291,-9.63024 0,0 7.19211,-6.19241 7.19211,-6.19241 0,0 0,57.53691 0,57.53691 z M 195.76261,58.12688 c 2.16483,0.0072 5.79685,-0.02877 7.54453,1.388076 2.07852,1.690147 1.79803,5.523544 1.80522,7.96167 0,0 0,78.394044 0,78.394044 0,0 0,24.45318 0,24.45318 -0.007,1.35212 0.036,3.04227 -0.43153,4.31527 -1.15793,3.15015 -10.25595,11.53615 -13.23349,13.66502 0,0 0,-116.512245 0,-116.512245 0,0 -25.17239,0 -25.17239,0 0,0 0,-13.665015 0,-13.665015 0,0 29.48766,0 29.48766,0 z M 302.2059,98.402716 c 0,0 11.47861,11.507384 11.47861,11.507384 2.02818,2.17202 4.04197,4.14266 2.34463,7.19211 -1.13635,2.04256 -10.7594,11.32039 -13.10403,13.66502 0,0 -26.61082,26.61082 -26.61082,26.61082 0,0 -56.09849,56.09849 -56.09849,56.09849 0,0 -26.61082,26.14333 -26.61082,26.14333 0,0 -17.98029,7.80345 -17.98029,7.80345 0,0 -12.9458,5.15674 -12.9458,5.15674 -6.99793,1.51035 -4.40157,-5.44443 -3.02069,-8.89664 3.04946,-7.63084 8.67369,-24.00728 13.83763,-29.48767 0,0 28.02047,-28.04924 28.02047,-28.04924 0,0 56.09849,-56.09849 56.09849,-56.09849 0,0 24.45319,-24.45319 24.45319,-24.45319 3.43783,-3.43783 8.70246,-9.680585 12.9458,-11.536151 3.56729,0.129458 4.73961,1.927487 7.19212,4.344037 z m -17.26107,13.665014 c 0,0 -20.85714,20.85713 -20.85714,20.85713 0,0 -56.81769,56.8177 -56.81769,56.8177 0,0 -17.98029,17.98029 -17.98029,17.98029 0,0 -9.08364,9.34975 -9.08364,9.34975 -2.63951,3.97723 4.25773,8.95418 6.92601,11.49299 1.08601,1.03567 2.70423,2.74739 4.31526,2.74739 2.20798,0 6.32187,-4.7396 7.91133,-6.32906 0,0 20.13792,-20.13792 20.13792,-20.13792 0,0 61.13297,-61.13297 61.13297,-61.13297 0,0 18.69949,-18.69949 18.69949,-18.69949 1.56788,-1.56788 7.36473,-7.09862 8.09832,-8.63054 1.03567,-2.17202 -0.2733,-3.47379 -1.66857,-5.03448 -2.59635,-2.89842 -6.33625,-7.34315 -10.0258,-8.48669 -4.07074,1.25862 -7.76029,6.17802 -10.78817,9.2059 z M 182.0976,110.62931 c 0,0 0,12.9458 0,12.9458 0,0 -142.403855,0 -142.403855,0 0,0 0,-12.9458 0,-12.9458 0,0 142.403855,0 142.403855,0 z m 0,22.29555 c 0,0 0,12.2266 0,12.2266 0,0 -142.403855,0 -142.403855,0 0,0 0,-12.2266 0,-12.2266 0,0 142.403855,0 142.403855,0 z m 0.71921,21.57634 c 0,0 0,12.2266 0,12.2266 0,0 -142.403854,0 -142.403854,0 0,0 0,-12.2266 0,-12.2266 0,0 142.403854,0 142.403854,0 z m -0.71921,21.57635 c 0,0 0,12.9458 0,12.9458 0,0 -142.403855,0 -142.403855,0 0,0 0,-12.9458 0,-12.9458 0,0 142.403855,0 142.403855,0 z m -0.71921,22.29555 c -1.97784,2.76177 -8.65212,10.06177 -11.50739,11.493 -1.43842,0.71921 -2.75458,0.70482 -4.31527,0.73359 0,0 -26.61082,0 -26.61082,0 0,0 -99.251165,0 -99.251165,0 0,0 0,-12.22659 0,-12.22659 0,0 141.684645,0 141.684645,0 z m -17.98029,21.57634 c -0.4531,2.51005 -2.77616,10.08334 -4.78276,11.51458 -1.25142,0.89182 -3.77586,0.71201 -5.2862,0.71201 0,0 -21.57634,0 -21.57634,0 0,0 -92.059055,0 -92.059055,0 0,0 0,-12.22659 0,-12.22659 0,0 123.704355,0 123.704355,0 z m 10.78817,5.75369 c 0,0 -6.4729,17.26108 -6.4729,17.26108 0,0 17.26107,-6.47291 17.26107,-6.47291 -1.9131,-4.04916 -6.73901,-8.87507 -10.78817,-10.78817 z m -19.41871,15.82265 c -1.81241,6.72463 -2.76177,5.53793 -1.43842,12.94581 0,0 -113.635395,0 -113.635395,0 0,0 0,-12.94581 0,-12.94581 0,0 115.073815,0 115.073815,0 z m 27.33004,12.94581 c 0,0 -9.34975,-0.71921 -9.34975,-0.71921 0,0 8.63054,-3.59606 8.63054,-3.59606 0,0 0.71921,4.31527 0.71921,4.31527 z m 0.71921,9.34975 c 0,0 0,12.22659 0,12.22659 0,0 -142.403854,0 -142.403854,0 0,0 0,-12.22659 0,-12.22659 0,0 142.403854,0 142.403854,0 z"
     inkscape:connector-curvature="0"
     style="fill:#000000;fill-opacity:1;stroke:none;stroke-width:1" />
</svg>
