<?xml version="1.0" encoding="UTF-8" standalone="no"?>
<svg
   xmlns:dc="http://purl.org/dc/elements/1.1/"
   xmlns:cc="http://creativecommons.org/ns#"
   xmlns:rdf="http://www.w3.org/1999/02/22-rdf-syntax-ns#"
   xmlns:svg="http://www.w3.org/2000/svg"
   xmlns="http://www.w3.org/2000/svg"
   xmlns:sodipodi="http://sodipodi.sourceforge.net/DTD/sodipodi-0.dtd"
   xmlns:inkscape="http://www.inkscape.org/namespaces/inkscape"
   width="100"
   height="100"
   viewBox="0 0 333.33266 333.33269"
   id="svg2"
   version="1.1"
   inkscape:version="0.91 r13725"
   sodipodi:docname="tank2.svg">
  <metadata
     id="metadata9">
    <rdf:RDF>
      <cc:Work
         rdf:about="">
        <dc:format>image/svg+xml</dc:format>
        <dc:type
           rdf:resource="http://purl.org/dc/dcmitype/StillImage" />
        <dc:title></dc:title>
      </cc:Work>
    </rdf:RDF>
  </metadata>
  <defs
     id="defs7" />
  <sodipodi:namedview
     pagecolor="#ffffff"
     bordercolor="#666666"
     borderopacity="1"
     objecttolerance="10"
     gridtolerance="10"
     guidetolerance="10"
     inkscape:pageopacity="0"
     inkscape:pageshadow="2"
     inkscape:window-width="1218"
     inkscape:window-height="697"
     id="namedview5"
     showgrid="false"
     units="px"
     inkscape:zoom="1.5733302"
     inkscape:cx="75.000148"
     inkscape:cy="75.000148"
     inkscape:window-x="54"
     inkscape:window-y="-8"
     inkscape:window-maximized="1"
     inkscape:current-layer="svg2" />
  <path
     id="Unnamed #49"
     d="m 278.8856,263.95437 c 0,0 -224.438478,0 -224.438478,0 0,0 -37.40642,-18.7032 -37.40642,-18.7032 0,0 0,26.25182 0,26.25182 0,7.41395 0,11.15459 7.53365,14.92516 0,0 15.07479,7.53365 15.07479,7.53365 14.79798,7.39899 18.53862,7.39899 29.68573,7.39899 0,0 41.221868,0 41.221868,0 0,0 18.7032,-18.70321 18.7032,-18.70321 0,0 28.46629,0 44.8503,0 6.61345,0 14.24436,1.70573 18.40395,4.09226 3.45635,1.97506 7.72817,4.42144 11.77554,6.74064 7.21944,4.13715 22.0623,7.87031 33.31415,7.87031 23.55108,0 59.98493,0 59.98493,0 0,0 18.70321,-18.70321 18.70321,-18.70321 0,0 0,-37.40641 0,-37.40641 0,0 -37.40642,18.7032 -37.40642,18.7032 z M 24.521982,91.884865 c 0,0 74.81283,0 74.81283,0 0,0 0,11.221925 0,11.221925 0,0 11.221928,0 11.221928,0 0,0 0,-11.221925 0,-11.221925 0,0 56.10962,0 56.10962,0 0,0 0,-3.740641 0,-3.740641 0,0 3.74064,0 3.74064,0 0,0 0,-3.740642 0,-3.740642 0,0 11.22192,0 11.22192,0 0,0 0,-14.962566 0,-14.962566 0,0 14.96257,-14.962565 14.96257,-14.962565 -15.54611,-19.249339 -7.48128,-22.443847 -7.48128,-22.443847 0,0 2.46882,2.39401 16.23438,16.159569 0,0 6.1945,-5.670813 6.20947,-5.685775 0,0 1.49625,-2.244385 1.49625,-2.244385 0,0 1.49626,0 1.49626,0 0,0 0,1.496256 0,1.496256 0,0 -2.24439,1.496257 -2.24439,1.496257 -0.0599,0.05985 -5.70821,6.261834 -5.70821,6.261834 13.81044,13.810448 16.18201,16.182015 16.18201,16.182015 0,0 -3.19451,8.064823 -22.44385,-7.481283 0,0 -11.22192,11.221924 -11.22192,11.221924 0,0 0,14.962566 0,14.962566 0,0 11.22192,0 11.22192,0 0,0 0,3.740642 0,3.740642 0,0 3.74064,0 3.74064,0 0,0 0.0598,3.740641 0.0598,3.740641 11.13215,0 30.19446,3.90523 41.2518,11.304215 11.05733,7.39899 14.79798,14.3117 14.79798,22.19697 0,10.45135 0,22.60844 0,22.60844 0,0 -37.40642,37.40641 -37.40642,37.40641 0,0 -11.22192,0 -11.22192,0 0,0 0,11.22193 0,11.22193 0,0 11.22192,0 11.22192,0 0,0 37.40642,-37.40642 37.40642,-37.40642 0,0 44.88769,0 44.88769,0 0,0 3.74064,0 7.48129,3.74064 3.74064,3.74064 3.74064,7.48129 3.74064,7.48129 0,0 0,63.5909 0,63.5909 0,0 -37.40642,18.70321 -37.40642,18.70321 0,0 -224.438478,0 -224.438478,0 0,0 -37.40642,-18.70321 -37.40642,-18.70321 0,0 0,-7.31669 0,-7.31669 0,-3.90523 3.74064,-15.12716 11.22941,-22.61592 0,0 14.95508,-14.95509 14.95508,-14.95509 11.22193,-11.22192 26.18449,-11.22192 33.66577,-11.22192 0,0 52.368978,0 52.368978,0 0,0 18.70321,18.70321 18.70321,18.70321 0,0 11.22193,0 11.22193,0 0,0 0,-11.22193 0,-11.22193 0,0 -11.22193,0 -11.22193,0 0,0 -15.11219,-15.11219 -26.12464,-26.12464 -6.3142,-6.3142 -11.28177,-15.92765 -11.28177,-22.5411 0,-16.38401 0,-18.6658 0,-18.6658 0,0 -11.221928,0 -11.221928,0 0,0 0,11.22192 0,11.22192 0,0 -40.91513,0 -59.85026,0 0,0 -7.48128,-7.48128 -7.48128,-7.48128 0,0 -7.48129,0 -7.48129,0 0,0 0,-29.925135 0,-29.925135 z"
     inkscape:connector-curvature="0"
     style="fill:#000000;stroke:none;stroke-width:0.74812829;fill-opacity:1" />
</svg>
