<?xml version="1.0" encoding="UTF-8" standalone="no"?>
<svg
   xmlns:dc="http://purl.org/dc/elements/1.1/"
   xmlns:cc="http://creativecommons.org/ns#"
   xmlns:rdf="http://www.w3.org/1999/02/22-rdf-syntax-ns#"
   xmlns:svg="http://www.w3.org/2000/svg"
   xmlns="http://www.w3.org/2000/svg"
   xmlns:sodipodi="http://sodipodi.sourceforge.net/DTD/sodipodi-0.dtd"
   xmlns:inkscape="http://www.inkscape.org/namespaces/inkscape"
   width="100"
   height="100"
   viewBox="0 0 333.33269 333.33269"
   id="svg2"
   version="1.1"
   inkscape:version="0.91 r13725"
   sodipodi:docname="targethut.svg">
  <metadata
     id="metadata9">
    <rdf:RDF>
      <cc:Work
         rdf:about="">
        <dc:format>image/svg+xml</dc:format>
        <dc:type
           rdf:resource="http://purl.org/dc/dcmitype/StillImage" />
        <dc:title></dc:title>
      </cc:Work>
    </rdf:RDF>
  </metadata>
  <defs
     id="defs7" />
  <sodipodi:namedview
     pagecolor="#ffffff"
     bordercolor="#666666"
     borderopacity="1"
     objecttolerance="10"
     gridtolerance="10"
     guidetolerance="10"
     inkscape:pageopacity="0"
     inkscape:pageshadow="2"
     inkscape:window-width="1218"
     inkscape:window-height="697"
     id="namedview5"
     showgrid="false"
     units="px"
     inkscape:zoom="1.5733302"
     inkscape:cx="75.000148"
     inkscape:cy="75.000148"
     inkscape:window-x="54"
     inkscape:window-y="-8"
     inkscape:window-maximized="1"
     inkscape:current-layer="svg2" />
  <path
     id="Selection #28"
     d="m 211.91076,44.174397 c 24.30056,18.078604 49.83917,44.577491 71.42557,66.163883 0,0 23.01491,23.01491 23.01491,23.01491 5.5077,5.5077 10.12655,9.1504 10.30115,17.45958 0.0635,2.83321 -0.0556,5.28549 -1.19836,7.93617 -4.06332,9.37263 -20.67374,18.28495 -29.73685,22.81651 -2.86496,1.43645 -11.34873,4.41252 -12.66613,6.72194 -1.36503,2.38879 0.88885,11.03129 1.34121,14.11052 1.15868,7.88062 2.55545,15.83267 2.59513,23.80853 0,0 0.79362,12.69787 0.79362,12.69787 0.0317,21.20546 -3.0713,46.2679 -23.80853,57.68806 -9.6107,5.29343 -30.1654,7.51555 -41.2681,7.38858 -4.13475,-0.0556 -7.76952,-0.68251 -11.03129,-3.48398 -4.60298,-3.96809 -4.83313,-10.7059 -4.84106,-16.35646 0,0 0,-25.39576 0,-25.39576 -0.11111,-8.89645 -5.89658,-18.8246 -12.53122,-13.15024 -4.58711,3.92841 -3.73794,10.26147 -4.35696,15.53109 -1.2063,10.12656 -0.80949,30.24476 -6.21403,38.0619 -6.63464,9.61864 -20.55469,8.88058 -30.86378,8.76153 0,0 -7.93618,-0.72219 -7.93618,-0.72219 0,0 -19.04681,-1.52374 -19.04681,-1.52374 -16.324715,-1.63486 -34.792193,-3.00781 -47.609115,-14.56288 -5.745791,-5.19026 -8.832963,-12.38837 -10.888432,-19.69759 -4.515683,-16.1025 -2.888767,-35.03027 -1.745958,-51.58513 0,0 2.404661,-18.92778 2.404661,-18.92778 -0.817426,-2.82528 -9.944027,-4.16649 -12.793114,-5.15058 -7.063195,-2.44434 -23.284736,-7.70602 -26.911568,-14.01528 -1.682469,-2.92052 -1.730086,-6.25372 -1.650724,-9.52342 0.206341,-8.24568 5.16645,-13.66609 9.975771,-19.84044 0,0 18.864287,-24.60214 18.864287,-24.60214 0,0 43.148982,-52.378746 43.148982,-52.378746 19.78488,-22.57048 40.038,-43.958468 70.85417,-49.648705 20.39596,-2.618938 36.53021,6.618769 52.37875,18.403988 z m 25.39576,242.243793 c 16.72945,-2.54751 24.57833,-19.38014 24.60214,-34.816 0,0 0,-24.60214 0,-24.60214 -0.008,-6.19021 -1.30153,-14.42796 -2.31737,-20.63405 -0.96027,-5.84103 -4.37283,-19.57854 -2.26181,-24.60214 2.71418,-6.47593 9.74563,-8.65044 15.68982,-11.11859 6.07911,-2.53164 13.50737,-6.49973 19.04682,-10.06307 3.49192,-2.25387 11.23762,-6.26958 8.23775,-11.35667 -1.05551,-1.80151 -7.89649,-8.38853 -9.82498,-10.31702 0,0 -19.04682,-19.04682 -19.04682,-19.04682 C 250.36152,98.791148 229.18781,76.688902 205.56182,58.475382 195.54637,50.753484 181.35649,40.650736 168.2618,40.499949 c -14.65018,-0.16666 -28.53849,7.348895 -39.68087,16.356453 -16.43582,13.285156 -35.458833,36.109594 -49.267776,52.688258 0,0 -35.942935,46.02981 -35.942935,46.02981 0,0 -8.523452,11.11065 -8.523452,11.11065 -1.023766,1.42851 -2.714171,3.62683 -2.618937,5.46802 0.158723,3.23796 7.991728,5.37279 10.64241,6.43624 3.658576,1.46026 7.285408,3.07924 11.110644,4.04746 7.102877,1.80945 15.80886,1.65072 19.324585,9.44404 2.404661,5.34105 -0.611085,16.33265 -1.531681,22.22129 -1.904682,12.30107 -1.936427,24.87197 -1.920555,37.30002 0.01587,8.30124 2.166576,21.57053 8.079026,27.69725 3.98396,4.11888 11.023347,6.72194 16.523116,8.10284 7.983795,1.99991 32.911315,4.63472 41.268105,4.6744 0,0 17.45959,0 17.45959,0 4.82519,-0.008 8.42028,0.28571 9.50753,-5.55532 0,0 0,-5.55532 0,-5.55532 0,0 2.26181,-23.01491 2.26181,-23.01491 0.66664,-6.84891 0.7222,-12.0233 4.48394,-18.2532 1.58724,-2.63481 3.54747,-4.83313 5.96801,-6.72194 13.83275,-10.78526 28.91942,-1.58723 34.54616,13.07088 1.79358,4.6506 2.74592,13.97561 2.75386,19.04682 0,0 0,23.80852 0,23.80852 0,0 24.60214,-2.48402 24.60214,-2.48402 z M 74.995875,153.19362 c -0.499979,-2.34117 -0.349192,-4.90455 0.531723,-7.14256 1.777703,-4.53949 5.610876,-6.69019 10.197985,-7.56317 2.460214,-0.47617 5.491832,0 7.19811,-2.20626 0,0 4.618853,-11.65824 4.618853,-11.65824 3.103044,-6.60289 8.158384,-13.26928 13.578794,-18.11828 4.79345,-4.28553 10.71384,-7.682217 16.66597,-10.094814 2.26974,-0.920596 8.4679,-2.507831 9.84085,-3.976023 1.38883,-1.484065 1.47613,-4.69028 1.92056,-6.698132 0.93647,-4.253789 2.984,-7.912366 7.28541,-9.499601 6.11879,-2.26181 13.35658,0.730128 15.35649,7.118749 1.08726,3.452236 -0.373,6.602897 2.34911,8.856771 0,0 15.62633,6.563216 15.62633,6.563216 13.0312,7.460004 22.65778,18.705564 27.49091,32.990674 0.67457,1.97611 1.23011,5.11883 3.00781,6.33307 0,0 9.18215,2.08721 9.18215,2.08721 6.76956,2.42053 9.81705,9.70594 6.6902,16.18186 -1.96024,4.05539 -5.60294,5.96007 -9.86467,6.76956 -2.42053,0.46823 -5.40453,-0.0159 -7.03145,2.20625 0,0 -4.11094,10.86463 -4.11094,10.86463 -2.88876,6.53941 -7.46794,13.28516 -12.66613,18.18178 -4.35696,4.09507 -10.39639,8.40441 -15.87235,10.83288 -2.43641,1.07932 -10.3329,3.56334 -11.65824,4.7617 -3.57922,3.2459 0.23808,8.97582 -5.88864,14.4121 -5.23788,4.65853 -13.78514,2.86496 -17.36435,-2.96813 -1.84913,-2.99988 -2.30943,-8.3806 -2.38879,-11.88839 -22.9038,-1.92056 -43.426748,-24.73706 -46.82343,-46.82344 -7.229855,-0.0238 -16.039009,-0.92853 -17.872265,-9.52341 z m 33.744615,-14.28511 c 11.29318,0.25396 17.94369,9.30119 12.18203,17.44371 -3.57128,5.04741 -6.84099,5.01566 -12.18203,6.36481 0.67457,4.30934 1.76977,6.49179 3.79349,10.31703 6.29339,11.88046 14.53907,17.66593 27.15759,21.42768 1.21423,-14.88827 12.00743,-19.66585 19.76107,-12.52329 4.34109,4.00777 3.41256,6.75369 4.84107,11.72967 13.48356,-3.6427 27.87185,-16.52312 29.36385,-30.95109 -11.29318,-0.25396 -17.94369,-9.3012 -12.18203,-17.44371 3.57128,-5.04741 6.84098,-5.01566 12.18203,-6.36481 -3.09511,-13.5788 -16.4755,-28.84006 -30.95108,-30.15746 -0.12698,13.64228 -10.98367,19.20554 -18.96746,11.7376 -3.80937,-3.56335 -3.96809,-6.95209 -4.84107,-11.7376 -13.99147,3.27764 -27.87184,15.5787 -30.15746,30.15746 z"
     inkscape:connector-curvature="0"
     style="fill:#000000;fill-opacity:1;stroke:none;stroke-width:1" />
</svg>
