<?xml version="1.0" encoding="UTF-8" standalone="no"?>
<svg
   xmlns:dc="http://purl.org/dc/elements/1.1/"
   xmlns:cc="http://creativecommons.org/ns#"
   xmlns:rdf="http://www.w3.org/1999/02/22-rdf-syntax-ns#"
   xmlns:svg="http://www.w3.org/2000/svg"
   xmlns="http://www.w3.org/2000/svg"
   xmlns:sodipodi="http://sodipodi.sourceforge.net/DTD/sodipodi-0.dtd"
   xmlns:inkscape="http://www.inkscape.org/namespaces/inkscape"
   width="100"
   height="100"
   viewBox="0 0 333.33269 333.33269"
   id="svg2"
   version="1.1"
   inkscape:version="0.91 r13725"
   sodipodi:docname="tie.svg">
  <metadata
     id="metadata9">
    <rdf:RDF>
      <cc:Work
         rdf:about="">
        <dc:format>image/svg+xml</dc:format>
        <dc:type
           rdf:resource="http://purl.org/dc/dcmitype/StillImage" />
        <dc:title></dc:title>
      </cc:Work>
    </rdf:RDF>
  </metadata>
  <defs
     id="defs7" />
  <sodipodi:namedview
     pagecolor="#ffffff"
     bordercolor="#666666"
     borderopacity="1"
     objecttolerance="10"
     gridtolerance="10"
     guidetolerance="10"
     inkscape:pageopacity="0"
     inkscape:pageshadow="2"
     inkscape:window-width="1218"
     inkscape:window-height="697"
     id="namedview5"
     showgrid="false"
     units="px"
     inkscape:zoom="1.5733302"
     inkscape:cx="75.000148"
     inkscape:cy="75.000148"
     inkscape:window-x="54"
     inkscape:window-y="-8"
     inkscape:window-maximized="1"
     inkscape:current-layer="svg2" />
  <path
     id="Selection #74"
     d="m 150.971,16.83812 c 0,0 48.57217,0 48.57217,0 8.01441,0.01429 9.48586,3.771486 15.00023,9.285856 2.47861,2.478609 11.62161,10.814454 12.30019,13.571639 0.57143,2.328607 -3.47863,12.828767 -4.44293,15.714525 0,0 -8.80727,26.42897 -8.80727,26.42897 0,0 -4.19293,13.571635 -4.19293,13.571635 0,0 1.37145,15.000225 1.37145,15.000225 0,0 2.94291,26.42898 2.94291,26.42898 0,0 8.80013,80.00122 8.80013,80.00122 0,0 3.0429,27.14327 3.0429,27.14327 0.40001,2.96433 1.61431,11.08589 0.70001,13.57164 -1.02144,2.78575 -7.87154,9.01442 -10.28587,11.42874 0,0 -24.28608,24.28609 -24.28608,24.28609 0,0 -15.71453,15.71452 -15.71453,15.71452 -1.47145,1.47145 -6.37152,6.62153 -7.85726,7.32869 -2.43575,1.15716 -4.07149,-0.77859 -5.71437,-2.3429 0,0 -10.00015,-9.98586 -10.00015,-9.98586 0,0 -32.85765,-32.85765 -32.85765,-32.85765 -2.93576,-2.93576 -11.75732,-10.7573 -12.6359,-14.28593 -0.58573,-2.37146 0.65001,-10.70016 1.00715,-13.57163 0,0 2.94291,-26.42898 2.94291,-26.42898 0,0 8.80013,-80.00122 8.80013,-80.00122 0,0 2.9429,-26.42898 2.9429,-26.42898 0,0 1.37145,-15.000225 1.37145,-15.000225 0,0 -4.42864,-14.285932 -4.42864,-14.285932 0,0 -9.05014,-27.143266 -9.05014,-27.143266 0,0 -4.05006,-12.857339 -4.05006,-12.857339 -0.17143,-3.042904 2.58576,-5.185794 4.52864,-7.142969 3.95006,-3.971489 13.10734,-13.728781 17.14312,-16.414536 4.26435,-1.428593 17.59313,-0.728583 22.85749,-0.728583 z m 57.37945,40.000613 c 0.9143,-2.728613 4.16435,-11.20017 3.7572,-13.571635 -0.41429,-2.464323 -3.00719,-4.714358 -4.70722,-6.42867 -5.09293,-5.128652 -5.55008,-7.128683 -12.85734,-7.142969 0,0 -55.71513,0 -55.71513,0 -7.5144,0.01429 -8.38584,2.571468 -13.57164,7.857266 -1.77859,1.821456 -3.9572,3.700056 -4.05006,6.428669 -0.0714,2.042889 3.20719,11.035883 4.05006,13.571636 0,0 10.00016,30.714749 10.00016,30.714749 0,0 62.8581,0 62.8581,0 0,0 10.23587,-31.429046 10.23587,-31.429046 z m -71.66538,44.286387 c 0,0 -1.31431,12.14304 -1.31431,12.14304 0,0 -2.85718,25.71468 -2.85718,25.71468 0,0 -8.08584,73.57255 -8.08584,73.57255 0,0 -3.0429,27.14327 -3.0429,27.14327 -0.40001,2.96433 -1.61431,11.08589 -0.70001,13.57164 0.83572,2.27146 3.56434,4.70721 5.28579,6.42867 0,0 11.42875,11.42874 11.42875,11.42874 0,0 20.7146,20.7146 20.7146,20.7146 1.66431,1.66432 6.31438,7.00011 8.57156,7.00011 2.25717,0 6.90725,-5.33579 8.57156,-7.00011 0,0 20.7146,-20.7146 20.7146,-20.7146 0,0 11.42874,-11.42874 11.42874,-11.42874 1.72146,-1.72146 4.45007,-4.15721 5.2858,-6.42867 0.9143,-2.48575 -0.30001,-10.60731 -0.70001,-13.57164 0,0 -3.04291,-27.14327 -3.04291,-27.14327 0,0 -8.08583,-73.57255 -8.08583,-73.57255 0,0 -2.85719,-25.71468 -2.85719,-25.71468 0,0 -1.31431,-12.14304 -1.31431,-12.14304 0,0 -60.00091,0 -60.00091,0 z"
     inkscape:connector-curvature="0"
     style="fill:#000000;fill-opacity:1;stroke:none;stroke-width:1" />
</svg>
