<?xml version="1.0" encoding="UTF-8" standalone="no"?>
<svg
   xmlns:dc="http://purl.org/dc/elements/1.1/"
   xmlns:cc="http://creativecommons.org/ns#"
   xmlns:rdf="http://www.w3.org/1999/02/22-rdf-syntax-ns#"
   xmlns:svg="http://www.w3.org/2000/svg"
   xmlns="http://www.w3.org/2000/svg"
   xmlns:sodipodi="http://sodipodi.sourceforge.net/DTD/sodipodi-0.dtd"
   xmlns:inkscape="http://www.inkscape.org/namespaces/inkscape"
   width="100"
   height="100"
   viewBox="0 0 333.33269 333.33269"
   id="svg2"
   version="1.1"
   inkscape:version="0.91 r13725"
   sodipodi:docname="Truck.svg"
   inkscape:export-filename="C:\Users\mbrown\Desktop\Drawings\icons\forJustin\Truck.png"
   inkscape:export-xdpi="300"
   inkscape:export-ydpi="300">
  <metadata
     id="metadata9">
    <rdf:RDF>
      <cc:Work
         rdf:about="">
        <dc:format>image/svg+xml</dc:format>
        <dc:type
           rdf:resource="http://purl.org/dc/dcmitype/StillImage" />
        <dc:title></dc:title>
      </cc:Work>
    </rdf:RDF>
  </metadata>
  <defs
     id="defs7" />
  <sodipodi:namedview
     pagecolor="#ffffff"
     bordercolor="#666666"
     borderopacity="1"
     objecttolerance="10"
     gridtolerance="10"
     guidetolerance="10"
     inkscape:pageopacity="0"
     inkscape:pageshadow="2"
     inkscape:window-width="1218"
     inkscape:window-height="697"
     id="namedview5"
     showgrid="false"
     units="px"
     inkscape:zoom="1.5733302"
     inkscape:cx="75.000148"
     inkscape:cy="75.000148"
     inkscape:window-x="54"
     inkscape:window-y="-8"
     inkscape:window-maximized="1"
     inkscape:current-layer="svg2" />
  <path
     id="Truck"
     d="m 256.94126,63.788211 c 0,0 11.07326,45.309079 11.07326,45.309079 0,0 6.04121,22.65454 6.04121,22.65454 1.27003,2.2174 6.2403,6.87874 8.28607,8.92452 0,0 17.16253,17.16253 17.16253,17.16253 5.29979,5.29979 8.91079,6.71398 8.92452,14.41652 0,0 0,28.83305 0,28.83305 0,0 8.23801,0 8.23801,0 0,0 0,34.32506 0,34.32506 0,0 -32.95206,0 -32.95206,0 -6.96798,-30.5493 -47.39604,-37.54475 -65.19015,-12.35702 -2.84212,4.0229 -4.42793,7.57211 -5.51947,12.35702 0,0 -100.91568,0 -100.91568,0 -6.96799,-30.5493 -47.396042,-37.54475 -65.190153,-12.35702 -2.842115,4.0229 -4.427933,7.57211 -5.51947,12.35702 0,0 -24.714043,0 -24.714043,0 0,0 0,-34.32506 0,-34.32506 0,0 17.16253,0 17.16253,0 0,0 0,-137.300239 0,-137.300239 0,0 223.112896,0 223.112896,0 z m -51.48759,17.16253 c 0,0 0,51.487589 0,51.487589 0,0 51.48759,0 51.48759,0 0,0 -3.86501,-17.16253 -3.86501,-17.16253 0,0 -8.49201,-34.325059 -8.49201,-34.325059 0,0 -39.13057,0 -39.13057,0 z M 86.002455,220.26243 c 22.187715,8.7117 21.308995,40.85369 -1.373002,47.95211 -2.210534,0.69337 -6.645332,1.48284 -8.924516,1.30435 -23.746076,-1.88788 -31.318184,-28.22206 -17.72546,-43.00243 4.784913,-5.19682 10.338707,-6.90621 17.038959,-7.96342 3.480561,-0.28146 7.730004,0.42563 10.984019,1.70939 z m 171.625305,0 c 22.18772,8.7117 21.30899,40.85369 -1.373,47.95211 -2.21054,0.69337 -6.64534,1.48284 -8.92452,1.30435 -23.74608,-1.88788 -31.31818,-28.22206 -17.72546,-43.00243 4.78491,-5.19682 10.33871,-6.90621 17.03896,-7.96342 3.48056,-0.28146 7.73,0.42563 10.98402,1.70939 z"
     inkscape:connector-curvature="0"
     style="fill:#000000;fill-opacity:1;stroke:none;stroke-width:1" />
</svg>
