<?xml version="1.0" encoding="UTF-8" standalone="no"?>
<svg
   xmlns:dc="http://purl.org/dc/elements/1.1/"
   xmlns:cc="http://creativecommons.org/ns#"
   xmlns:rdf="http://www.w3.org/1999/02/22-rdf-syntax-ns#"
   xmlns:svg="http://www.w3.org/2000/svg"
   xmlns="http://www.w3.org/2000/svg"
   xmlns:sodipodi="http://sodipodi.sourceforge.net/DTD/sodipodi-0.dtd"
   xmlns:inkscape="http://www.inkscape.org/namespaces/inkscape"
   width="100"
   height="100"
   viewBox="0 0 333.33269 333.33269"
   id="svg2"
   version="1.1"
   inkscape:version="0.91 r13725"
   sodipodi:docname="unionStation.svg">
  <metadata
     id="metadata9">
    <rdf:RDF>
      <cc:Work
         rdf:about="">
        <dc:format>image/svg+xml</dc:format>
        <dc:type
           rdf:resource="http://purl.org/dc/dcmitype/StillImage" />
        <dc:title></dc:title>
      </cc:Work>
    </rdf:RDF>
  </metadata>
  <defs
     id="defs7" />
  <sodipodi:namedview
     pagecolor="#ffffff"
     bordercolor="#666666"
     borderopacity="1"
     objecttolerance="10"
     gridtolerance="10"
     guidetolerance="10"
     inkscape:pageopacity="0"
     inkscape:pageshadow="2"
     inkscape:window-width="1218"
     inkscape:window-height="697"
     id="namedview5"
     showgrid="false"
     units="px"
     inkscape:zoom="1.5733302"
     inkscape:cx="75.000148"
     inkscape:cy="75.000148"
     inkscape:window-x="54"
     inkscape:window-y="-8"
     inkscape:window-maximized="1"
     inkscape:current-layer="svg2" />
  <path
     id="Union Station #1"
     d="m 16.666637,107.06323 c 0.01463,-8.026817 3.256091,-9.109742 8.78047,-14.634122 2.304874,-2.304873 9.358519,-9.782908 11.707295,-10.960954 2.260971,-1.126827 8.231691,-0.74634 10.975589,-0.74634 0,0 24.146294,0 24.146294,0 1.587802,0.02927 2.926823,0.01463 4.390235,0.74634 4.265846,2.136581 14.721923,15.526799 19.024354,17.107284 1.419509,0.526828 3.592676,0.439023 5.121936,0.439023 0,0 131.70707,0 131.70707,0 1.52927,0 3.70243,0.08781 5.12194,-0.439023 4.30243,-1.580485 14.75851,-14.970703 19.02435,-17.107284 1.46342,-0.731706 2.80244,-0.717072 4.39024,-0.74634 0,0 30.73165,0 30.73165,0 6.92194,0.131707 11.55363,7.163401 16.09753,11.707294 5.52438,5.52438 8.76583,6.607305 8.78047,14.634122 0,0 0,145.60947 0,145.60947 0,0 -299.999423,0 -299.999423,0 0,0 0,-145.60947 0,-145.60947 z m 57.07306,-18.585334 c -1.778046,-0.658535 -7.331693,-0.439023 -9.512177,-0.439023 0,0 -19.756059,0 -19.756059,0 -1.375607,0.0073 -3.095116,-0.03659 -4.390235,0.439023 -3.139019,1.156096 -8.956081,7.719498 -10.975589,10.536565 0,0 55.609648,0 55.609648,0 -2.019508,-2.817067 -7.83657,-9.380469 -10.975588,-10.536565 z m 219.511773,0 c -1.77805,-0.658535 -7.33169,-0.439023 -9.51218,-0.439023 0,0 -19.75606,0 -19.75606,0 -1.3756,0.0073 -3.09511,-0.03659 -4.39023,0.439023 -3.13902,1.156096 -8.95608,7.719498 -10.97559,10.536565 0,0 55.60965,0 55.60965,0 -2.01951,-2.817067 -7.83657,-9.380469 -10.97559,-10.536565 z M 23.983696,106.33152 c 0,0 0,29.26823 0,29.26823 0,0 285.365304,0 285.365304,0 0,0 0,-29.26823 0,-29.26823 0,0 -285.365304,0 -285.365304,0 z m 0,36.58529 c 0,0 0,102.43883 0,102.43883 0,0 10.975588,0 10.975588,0 0,0 0,-102.43883 0,-102.43883 0,0 -10.975588,0 -10.975588,0 z m 18.292647,0 c 0,0 0,102.43883 0,102.43883 0,0 10.975588,0 10.975588,0 0,0 0,-102.43883 0,-102.43883 0,0 -10.975588,0 -10.975588,0 z m 18.292647,0 c 0,0 0,102.43883 0,102.43883 0,0 14.634118,0 14.634118,0 0,0 0,-63.65841 0,-63.65841 0.0073,-5.20975 0.321951,-10.26584 3.504872,-14.6268 7.580473,-10.38291 27.29995,-10.83657 35.76578,-1.40488 4.18537,4.66097 4.62439,10.06096 4.63171,16.03168 0,0 0,63.65841 0,63.65841 0,0 25.6097,0 25.6097,0 0,0 0,-63.65841 0,-63.65841 0.007,-5.20975 0.32195,-10.26584 3.50487,-14.6268 7.58048,-10.38291 27.29995,-10.83657 35.76579,-1.40488 4.18536,4.66097 4.62438,10.06096 4.6317,16.03168 0,0 0,63.65841 0,63.65841 0,0 25.6097,0 25.6097,0 0,0 0,-63.65841 0,-63.65841 0.007,-5.20975 0.32195,-10.26584 3.50487,-14.6268 7.58048,-10.38291 27.29995,-10.83657 35.76579,-1.40488 4.18536,4.66097 4.62438,10.06096 4.6317,16.03168 0,0 0,63.65841 0,63.65841 0,0 14.63411,0 14.63411,0 0,0 0,-102.43883 0,-102.43883 0,0 -212.19471,0 -212.19471,0 z m 219.51177,0 c 0,0 0,102.43883 0,102.43883 0,0 10.97559,0 10.97559,0 0,0 0,-102.43883 0,-102.43883 0,0 -10.97559,0 -10.97559,0 z m 18.29265,0 c 0,0 0,102.43883 0,102.43883 0,0 10.97559,0 10.97559,0 0,0 0,-102.43883 0,-102.43883 0,0 -10.97559,0 -10.97559,0 z"
     inkscape:connector-curvature="0"
     style="fill:#000000;fill-opacity:1;stroke:none;stroke-width:1" />
</svg>
