<?xml version="1.0" encoding="UTF-8" standalone="no"?>
<svg
   xmlns:dc="http://purl.org/dc/elements/1.1/"
   xmlns:cc="http://creativecommons.org/ns#"
   xmlns:rdf="http://www.w3.org/1999/02/22-rdf-syntax-ns#"
   xmlns:svg="http://www.w3.org/2000/svg"
   xmlns="http://www.w3.org/2000/svg"
   xmlns:sodipodi="http://sodipodi.sourceforge.net/DTD/sodipodi-0.dtd"
   xmlns:inkscape="http://www.inkscape.org/namespaces/inkscape"
   width="100"
   height="100"
   viewBox="0 0 333.33269 333.33266"
   id="svg2"
   version="1.1"
   inkscape:version="0.91 r13725"
   sodipodi:docname="uranusinsaggitarius.svg">
  <metadata
     id="metadata9">
    <rdf:RDF>
      <cc:Work
         rdf:about="">
        <dc:format>image/svg+xml</dc:format>
        <dc:type
           rdf:resource="http://purl.org/dc/dcmitype/StillImage" />
        <dc:title></dc:title>
      </cc:Work>
    </rdf:RDF>
  </metadata>
  <defs
     id="defs7" />
  <sodipodi:namedview
     pagecolor="#ffffff"
     bordercolor="#666666"
     borderopacity="1"
     objecttolerance="10"
     gridtolerance="10"
     guidetolerance="10"
     inkscape:pageopacity="0"
     inkscape:pageshadow="2"
     inkscape:window-width="1218"
     inkscape:window-height="697"
     id="namedview5"
     showgrid="false"
     units="px"
     inkscape:zoom="2.2250249"
     inkscape:cx="39.821026"
     inkscape:cy="40.745299"
     inkscape:window-x="54"
     inkscape:window-y="-8"
     inkscape:window-maximized="1"
     inkscape:current-layer="svg2" />
  <path
     id="Unnamed #48"
     d="m 162.5221,289.82741 c -1.07486,-2.02287 -2.32998,-6.91649 -6.22885,-9.78723 -2.1831,-1.61563 -5.94177,1.97614 -8.45868,0.88793 -2.67046,-1.15498 -4.06577,-6.97658 -4.89361,-8.45868 -4.32615,-7.73766 -9.68709,-13.25883 -7.56408,-20.46907 1.65569,-5.64134 5.84831,-5.05384 14.24022,-8.01138 5.2341,-1.84929 7.51735,-7.01663 12.905,-9.3466 5.04049,-2.1831 13.31891,-1.5689 14.68752,-2.22983 0.60085,-0.28708 8.71905,-1.14163 14.68752,-4.00569 3.83879,-1.83594 4.79348,-6.14206 8.90599,-6.22885 3.85881,-0.0801 3.69858,4.25271 6.67614,6.22885 4.39291,2.91747 11.18255,4.15924 11.56977,6.67614 0.85454,5.53453 -23.6803,19.3141 -30.71028,27.1519 -8.95939,9.98084 -0.85455,13.55925 1.33523,13.35229 1.49545,-0.1402 8.29845,-0.32713 13.35229,-4.49305 2.67046,-2.19645 -1.01477,-4.70668 1.94276,-7.52402 7.95129,-7.57742 20.69606,-15.40187 28.76752,-20.75614 4.40626,-2.92415 6.20214,-6.42245 7.89121,-5.7081 2.21648,0.94801 7.81109,1.86264 7.68424,5.9885 -0.13352,4.44632 -7.8378,19.58782 -14.68752,29.82235 -3.27799,4.90029 -7.50399,6.44248 -8.45201,9.34661 -3.58509,10.92217 10.02758,6.60938 13.3523,5.34091 1.09489,-0.42059 3.91222,0.5608 5.38097,-1.94275 1.05484,-1.80256 -0.42059,-5.68141 0.60753,-8.49874 1.18836,-3.25796 4.58652,-3.75199 6.30896,-7.40385 2.49688,-5.28083 3.44489,-13.84633 5.50115,-19.09378 2.35,-5.99518 8.7324,-7.17686 8.90598,-13.35229 0.20028,-7.23027 -11.72999,-9.14632 -16.02276,-15.13483 -4.75341,-6.62274 -1.82926,-17.01082 0.44063,-18.24591 2.93083,-1.60227 9.06621,0.99475 12.91167,8.452 3.50498,6.80967 4.61989,18.13242 9.34661,24.48144 10.74192,14.43383 24.57489,19.59449 28.48044,16.47005 14.20016,-11.36948 15.13483,-19.14051 15.13483,-19.14051 0,0 0.67429,-9.14632 -5.78822,-16.91068 -2.4635,-2.96421 -10.52161,-2.12302 -13.3523,-5.78822 -3.45824,-4.48637 -3.18452,-11.63653 -8.01138,-16.02276 -6.33566,-5.76151 -19.08042,-1.25511 -26.25728,-8.45868 -7.56408,-7.5841 -8.23169,-21.50387 -17.35799,-29.37504 -6.34901,-5.46777 -31.35118,-13.55258 -51.62664,-6.22885 -7.85783,2.83736 -9.8807,8.07146 -16.02276,13.3523 -8.38524,7.20356 -20.16196,14.19348 -25.36935,12.46436 -3.05768,-1.01477 1.3152,-8.36521 4.00568,-17.80528 1.78253,-6.24888 0.0668,-14.68085 4.89362,-18.24591 4.55981,-3.37813 10.53496,3.12443 16.47005,3.55838 7.43723,0.54745 14.46722,-4.67998 14.68753,-8.01137 1.01477,-15.49534 -45.18417,-20.10856 -53.40918,-25.36936 -4.12586,-2.63708 1.49546,-9.47346 2.22316,-15.575456 0.74105,-6.202141 -3.40484,-11.669906 -7.12345,-14.246898 -6.3824,-4.41961 -20.32887,-5.828277 -24.92206,0 -3.81208,4.846882 1.72912,17.044203 -3.11776,15.134825 C 96.675258,92.82098 54.368513,52.603872 54.368513,52.603872 c 0,0 3.785375,13.018485 1.448724,21.363669 -2.336652,8.345184 -4.613218,15.134825 -7.230268,23.146202 -1.442048,4.406257 -0.767757,10.494907 4.446314,16.463377 5.70143,6.5226 6.455835,11.12914 4.786798,17.13767 -1.669037,6.00854 -0.594177,17.37802 -8.792486,22.91922 -1.635656,1.10824 -2.029549,2.95086 -3.057675,3.87216 -2.069606,1.84262 -4.152564,2.37671 -6.34234,2.67046 -0.747729,0.0935 0.687643,-3.27799 0.500711,-5.42771 -7.67757,4.42629 -23.586828,13.57261 -23.586828,13.57261 0,0 17.364658,-1.60227 26.377457,-2.10298 -1.916054,-2.16975 -2.864067,-3.35143 -2.289918,-4.03907 0.300426,-0.36719 4.172592,-1.61563 6.095322,-0.75441 1.081536,0.48736 0.293751,3.08438 0.968042,3.33808 6.015208,2.21648 6.075294,11.76337 8.458678,18.69321 0.968042,2.81066 5.674725,11.41621 2.670459,17.35798 -2.897448,5.74149 -7.029983,1.00142 -11.569763,6.22885 -1.62898,1.87599 -0.7277,4.8135 -2.670459,7.57075 -1.682389,2.37671 -6.268902,4.49972 -7.123449,7.11677 -1.508809,4.61989 -0.360512,9.58027 0.447302,11.12914 1.682389,3.25128 7.243619,1.54219 12.904992,-1.33523 2.189777,-1.11492 3.338074,-12.36423 5.340918,-13.3523 3.030971,-1.48878 6.662795,7.69093 8.011377,9.34661 2.09631,2.57032 5.634668,8.50541 4.45299,16.47005 -1.288496,8.679 -7.317057,19.40756 -4.900292,21.8043 2.810658,2.79063 4.165916,-4.40626 10.681835,-11.56976 8.832543,-9.70712 23.753732,-21.51722 32.940106,-28.48712 6.90314,-5.24078 12.10386,6.11535 16.02276,6.23552 4.9537,0.14688 16.64363,-2.95086 14.24022,1.77585 -0.93466,1.84262 -16.84392,7.66422 -16.91068,11.12914 -0.10682,5.08723 2.71719,9.50016 4.89361,16.47006 2.77728,8.89263 5.2341,20.07517 7.12345,21.80429 10.15442,9.31323 22.6989,12.46437 22.6989,12.46437 0,0 9.56025,-1.20171 7.11678,-5.78822 z M 116.23637,116.47457 c 0,0 -8.83254,3.4716 -11.79675,8.23169 -3.25129,5.2341 -0.66762,11.79675 -0.66762,11.79675 l -41.946231,14.57403 c 0,0 6.769613,-18.69988 4.005689,-29.70885 -2.276567,-9.06621 -7.62416,-10.9155 -7.67757,-21.36368 -0.09347,-17.11096 6.008533,-31.377887 6.008533,-31.377887 0,0 25.088961,18.913525 40.056879,33.160427 1.47543,1.40199 3.23126,2.49688 3.55839,4.6733 0.45398,2.98424 -0.74105,7.10342 0.4473,8.67899 2.30327,3.04432 8.01138,1.33523 8.01138,1.33523 z m -14.46721,28.92775 c 0,0 -3.511655,7.45726 -4.226003,10.34803 -1.221735,4.93367 -1.33523,12.13056 -1.33523,12.13056 0,0 -12.557833,0.28039 -19.808128,-3.11776 -6.989927,-3.27799 -8.678992,-10.23454 -8.678992,-10.23454 z m 8.90598,36.27151 -1.11492,17.13767 c 0,0 -4.72671,0.9213 -9.566917,-0.66762 -4.392905,-1.44205 -8.645611,-5.39433 -13.799596,-5.56123 -5.621316,-0.18025 -9.573596,3.24461 -12.904993,4.6733 -2.476851,1.06151 -6.789642,2.22316 -6.789642,2.22316 l -6.342339,-27.15189 c 0,0 19.70131,12.81153 34.04835,15.46863 10.181127,1.88268 16.470057,-6.12202 16.470057,-6.12202 z m -37.166113,49.63048 c -1.622304,-4.67331 -5.2341,-7.70428 -7.343762,-11.12914 -1.942759,-3.15782 -2.450146,-6.89646 -2.450146,-6.89646 0,0 9.259816,-7.91791 17.805285,-6.00853 3.918898,0.86789 4.74674,5.03381 8.231689,7.34376 6.742909,4.45299 14.914517,7.78438 14.914517,7.78438 l -29.375052,24.26112 c 0,0 0.847871,-7.77103 -1.782531,-15.35513 z M 242.08174,113.023 c -5.00711,0 -8.34518,3.33808 -8.34518,8.34519 0,5.00711 3.33807,8.34518 8.34518,8.26507 5.00711,-0.0868 8.34519,-3.25796 8.34519,-8.26507 0,-5.00711 -3.33808,-8.34519 -8.34519,-8.34519 z m 18.35941,8.34519 c 0,10.01422 -9.76053,17.94548 -18.10571,17.94548 -8.34519,0 -18.6131,-7.93126 -18.6131,-17.94548 0,-10.01422 6.67615,-16.69037 13.35229,-16.69037 l 0,-16.69037 -16.69036,0 c 0,0 0.0868,4.533104 -3.33808,10.014221 -4.71336,7.537369 -13.35229,16.690369 -13.35229,16.690369 l -6.67615,-6.67615 c 0,0 15.88923,-14.814369 16.69037,-30.042661 0.8679,-16.436672 -13.3523,-33.380733 -13.3523,-33.380733 l 6.67615,-6.676148 c 0,0 10.01422,10.014221 13.3523,20.028442 3.33807,10.014218 3.33807,20.028439 3.33807,20.028439 l 13.35229,0 0,-20.028439 10.01422,0 0,20.028439 13.3523,0 c 0,0 0,-10.014221 3.33807,-20.028439 3.33808,-10.014221 13.3523,-20.028442 13.3523,-20.028442 l 6.67614,6.676148 c 0,0 -14.22019,16.944061 -13.35229,33.380733 0.80114,15.234968 16.69037,30.042661 16.69037,30.042661 l -6.67615,6.67615 c 0,0 -8.63893,-9.153 -13.35229,-16.690369 -3.42487,-5.481117 -3.33808,-10.014221 -3.33808,-10.014221 l -16.69037,0 0,16.69037 c 6.67615,0 13.3523,6.67615 13.3523,16.69037 z"
     inkscape:connector-curvature="0"
     style="fill:#000000;fill-opacity:1;stroke:none;stroke-width:1"
     sodipodi:nodetypes="cccccccccccccccccccccccccccccccccccccccccccccccccccsccsccccccccccccccccccccccccccccccccccccccccccccccccsccccccccccccccsscssssscccccccccsccccccscccccccccs" />
</svg>
