<?xml version="1.0" encoding="UTF-8" standalone="no"?>
<svg
   xmlns:dc="http://purl.org/dc/elements/1.1/"
   xmlns:cc="http://creativecommons.org/ns#"
   xmlns:rdf="http://www.w3.org/1999/02/22-rdf-syntax-ns#"
   xmlns:svg="http://www.w3.org/2000/svg"
   xmlns="http://www.w3.org/2000/svg"
   xmlns:sodipodi="http://sodipodi.sourceforge.net/DTD/sodipodi-0.dtd"
   xmlns:inkscape="http://www.inkscape.org/namespaces/inkscape"
   width="1.11111in"
   height="1.1111112in"
   viewBox="0 0 333.3323 333.33269"
   id="svg2"
   version="1.1"
   inkscape:version="0.91 r13725"
   sodipodi:docname="vietnamMemorial.svg">
  <metadata
     id="metadata9">
    <rdf:RDF>
      <cc:Work
         rdf:about="">
        <dc:format>image/svg+xml</dc:format>
        <dc:type
           rdf:resource="http://purl.org/dc/dcmitype/StillImage" />
        <dc:title></dc:title>
      </cc:Work>
    </rdf:RDF>
  </metadata>
  <defs
     id="defs7" />
  <sodipodi:namedview
     pagecolor="#ffffff"
     bordercolor="#666666"
     borderopacity="1"
     objecttolerance="10"
     gridtolerance="10"
     guidetolerance="10"
     inkscape:pageopacity="0"
     inkscape:pageshadow="2"
     inkscape:window-width="1218"
     inkscape:window-height="697"
     id="namedview5"
     showgrid="false"
     units="in"
     inkscape:zoom="1.5733302"
     inkscape:cx="75.000148"
     inkscape:cy="75.000148"
     inkscape:window-x="54"
     inkscape:window-y="-8"
     inkscape:window-maximized="1"
     inkscape:current-layer="svg2" />
  <path
     id="Selection #8"
     d="m 162.17366,178.48633 c 0,0 -21.75746,3.55499 -21.75746,3.55499 0,0 0.765,-45.45741 0.765,-45.45741 0,0 20.98496,-11.54248 20.98496,-11.54248 0,0 0.007,53.4449 0.007,53.4449 z m 29.97744,-41.90242 c 0,0 0.765,5.70749 0.765,5.70749 0,0 0,39.74992 0,39.74992 0,0 -21.75746,-3.55499 -21.75746,-3.55499 0,0 -0.7425,-53.4449 -0.7425,-53.4449 0,0 21.73496,11.54248 21.73496,11.54248 z m -59.97738,45.65241 c 0,0 -21.75746,3.555 -21.75746,3.555 0,0 0,-29.24995 0,-29.24995 0,0 0.765,-4.95749 0.765,-4.95749 0,0 20.98496,-11.54248 20.98496,-11.54248 0,0 0.007,42.19492 0.007,42.19492 z m 82.49234,-35.25743 c 5.08499,2.5425 8.12998,2.685 8.24998,8.81248 0,0 0,29.99995 0,29.99995 0,0 -21.32246,-3.1275 -21.32246,-3.1275 0,0 -1.1775,-4.37249 -1.1775,-4.37249 0,0 0,-38.24993 0,-38.24993 0,0 14.24998,6.93749 14.24998,6.93749 z m -112.92728,39.43493 c 0,0 -21.322457,3.12749 -21.322457,3.12749 0,0 0,-18.74996 0,-18.74996 0.1125,-5.89499 21.749947,-15.74997 21.749947,-15.74997 0,0 -0.42749,31.37244 -0.42749,31.37244 z m 150.41221,-19.82997 c 0,0 0.76499,22.95746 0.76499,22.95746 0,0 -21.32246,-3.12749 -21.32246,-3.12749 0,0 -1.17749,-4.3725 -1.17749,-4.3725 0,0 0,-26.99994 0,-26.99994 0,0 21.73496,11.54247 21.73496,11.54247 z M 71.738833,190.16381 c 0,0 -21.32246,3.12749 -21.32246,3.12749 0,0 0.765,-11.70748 0.765,-11.70748 0,0 20.98496,-11.54247 20.98496,-11.54247 0,0 -0.4275,20.12246 -0.4275,20.12246 z m 210.412097,-8.57999 c 0,0 0.765,11.70748 0.765,11.70748 0,0 -21.75746,-3.55499 -21.75746,-3.55499 0,0 -0.7425,-5.44499 -0.7425,-5.44499 0,0 0,-14.24997 0,-14.24997 0,0 21.73496,11.54247 21.73496,11.54247 z m -115.48478,1.635 c 0,0 149.99971,18.32247 149.99971,18.32247 0,0 -0.75,6.74998 -0.75,6.74998 0,0 -149.24971,-17.99246 -149.24971,-17.99246 0,0 -149.249707,17.99246 -149.249707,17.99246 0,0 -0.75,-6.74998 -0.75,-6.74998 0,0 149.999707,-18.32247 149.999707,-18.32247 z M 42.166393,193.4863 c -1.065,1.3275 -19.04246,4.07249 -22.49996,2.805 0,0 22.49996,-11.24998 22.49996,-11.24998 0.7575,1.89749 1.3725,6.74999 0,8.44498 z m 271.499477,3.55499 c 0,0 -22.50746,-3.55499 -22.50746,-3.55499 0,0 -0.7425,-8.44498 -0.7425,-8.44498 0,0 23.24996,11.99997 23.24996,11.99997 z"
     inkscape:connector-curvature="0"
     style="fill:#000000;fill-opacity:1;stroke:none;stroke-width:1" />
</svg>
