<?xml version="1.0" encoding="UTF-8" standalone="no"?>
<svg
   xmlns:dc="http://purl.org/dc/elements/1.1/"
   xmlns:cc="http://creativecommons.org/ns#"
   xmlns:rdf="http://www.w3.org/1999/02/22-rdf-syntax-ns#"
   xmlns:svg="http://www.w3.org/2000/svg"
   xmlns="http://www.w3.org/2000/svg"
   xmlns:sodipodi="http://sodipodi.sourceforge.net/DTD/sodipodi-0.dtd"
   xmlns:inkscape="http://www.inkscape.org/namespaces/inkscape"
   width="100"
   height="100"
   viewBox="0 0 333.33269 333.33269"
   id="svg2"
   version="1.1"
   inkscape:version="0.91 r13725"
   sodipodi:docname="WashingonMemorial.svg">
  <metadata
     id="metadata9">
    <rdf:RDF>
      <cc:Work
         rdf:about="">
        <dc:format>image/svg+xml</dc:format>
        <dc:type
           rdf:resource="http://purl.org/dc/dcmitype/StillImage" />
        <dc:title></dc:title>
      </cc:Work>
    </rdf:RDF>
  </metadata>
  <defs
     id="defs7" />
  <sodipodi:namedview
     pagecolor="#ffffff"
     bordercolor="#666666"
     borderopacity="1"
     objecttolerance="10"
     gridtolerance="10"
     guidetolerance="10"
     inkscape:pageopacity="0"
     inkscape:pageshadow="2"
     inkscape:window-width="1218"
     inkscape:window-height="697"
     id="namedview5"
     showgrid="false"
     units="px"
     inkscape:zoom="1.5733302"
     inkscape:cx="75.000148"
     inkscape:cy="75.000148"
     inkscape:window-x="54"
     inkscape:window-y="-8"
     inkscape:window-maximized="1"
     inkscape:current-layer="svg2" />
  <path
     id="Selection #9"
     d="m 187.69775,43.710609 c 0,0 9.78615,272.955451 9.78615,272.955451 0,0 -62.26403,0 -62.26403,0 0,0 10.01885,-273.58438 10.01885,-273.58438 0,0 20.7987,-26.415043 20.7987,-26.415043 0,0 21.66033,27.043972 21.66033,27.043972 z m -36.92445,1.886789 c 0,0 -9.89306,264.779362 -9.89306,264.779362 0,0 50.94329,0 50.94329,0 0,0 -9.89306,-264.779362 -9.89306,-264.779362 0,0 -15.26412,-19.496817 -15.26412,-19.496817 0,0 -15.89305,19.496817 -15.89305,19.496817 z M 56.603666,277.67242 c 0,0 0,15.72324 0,15.72324 0,0 -9.433944,0 -9.433944,0 0,0 0,15.72324 0,15.72324 0,0 -6.289296,0 -6.289296,0 0,0 0,-31.44648 0,-31.44648 0,0 15.72324,0 15.72324,0 z m 18.867888,0 c 0,0 0,15.72324 0,15.72324 0,0 -9.433944,0 -9.433944,0 0,0 0,15.72324 0,15.72324 0,0 -6.289296,0 -6.289296,0 0,0 0,-31.44648 0,-31.44648 0,0 15.72324,0 15.72324,0 z m 18.867888,0 c 0,0 0,15.72324 0,15.72324 0,0 -9.433944,0 -9.433944,0 0,0 0,15.72324 0,15.72324 0,0 -6.289296,0 -6.289296,0 0,0 0,-31.44648 0,-31.44648 0,0 15.72324,0 15.72324,0 z m 18.867888,0 c 0,0 0,15.72324 0,15.72324 0,0 -9.43394,0 -9.43394,0 0,0 0,15.72324 0,15.72324 0,0 -6.2893,0 -6.2893,0 0,0 0,-31.44648 0,-31.44648 0,0 15.72324,0 15.72324,0 z m 18.86789,0 c 0,0 0,15.72324 0,15.72324 0,0 -9.43395,0 -9.43395,0 0,0 0,15.72324 0,15.72324 0,0 -6.28929,0 -6.28929,0 0,0 0,-31.44648 0,-31.44648 0,0 15.72324,0 15.72324,0 z m 84.9055,0 c 0,0 0,15.72324 0,15.72324 0,0 -9.43395,0 -9.43395,0 0,0 0,15.72324 0,15.72324 0,0 -6.28929,0 -6.28929,0 0,0 0,-31.44648 0,-31.44648 0,0 15.72324,0 15.72324,0 z m 18.86788,0 c 0,0 0,15.72324 0,15.72324 0,0 -9.43394,0 -9.43394,0 0,0 0,15.72324 0,15.72324 0,0 -6.2893,0 -6.2893,0 0,0 0,-31.44648 0,-31.44648 0,0 15.72324,0 15.72324,0 z m 18.86789,0 c 0,0 0,15.72324 0,15.72324 0,0 -9.43394,0 -9.43394,0 0,0 0,15.72324 0,15.72324 0,0 -6.2893,0 -6.2893,0 0,0 0,-31.44648 0,-31.44648 0,0 15.72324,0 15.72324,0 z m 18.86789,0 c 0,0 0,15.72324 0,15.72324 0,0 -9.43394,0 -9.43394,0 0,0 0,15.72324 0,15.72324 0,0 -6.2893,0 -6.2893,0 0,0 0,-31.44648 0,-31.44648 0,0 15.72324,0 15.72324,0 z m 18.86789,0 c 0,0 0,15.72324 0,15.72324 0,0 -9.43395,0 -9.43395,0 0,0 0,15.72324 0,15.72324 0,0 -6.28929,0 -6.28929,0 0,0 0,-31.44648 0,-31.44648 0,0 15.72324,0 15.72324,0 z m -245.282548,6.2893 c 0,0 0,3.14465 0,3.14465 0,0 3.144648,0 3.144648,0 0,0 0,-3.14465 0,-3.14465 0,0 -3.144648,0 -3.144648,0 z m 18.867888,0 c 0,0 0,3.14465 0,3.14465 0,0 3.144648,0 3.144648,0 0,0 0,-3.14465 0,-3.14465 0,0 -3.144648,0 -3.144648,0 z m 18.867888,0 c 0,0 0,3.14465 0,3.14465 0,0 3.144648,0 3.144648,0 0,0 0,-3.14465 0,-3.14465 0,0 -3.144648,0 -3.144648,0 z m 18.867892,0 c 0,0 0,3.14465 0,3.14465 0,0 3.14464,0 3.14464,0 0,0 0,-3.14465 0,-3.14465 0,0 -3.14464,0 -3.14464,0 z m 18.86788,0 c 0,0 0,3.14465 0,3.14465 0,0 3.14466,0 3.14466,0 0,0 0,-3.14465 0,-3.14465 0,0 -3.14466,0 -3.14466,0 z m 84.9055,0 c 0,0 0,3.14465 0,3.14465 0,0 3.14465,0 3.14465,0 0,0 0,-3.14465 0,-3.14465 0,0 -3.14465,0 -3.14465,0 z m 18.86789,0 c 0,0 0,3.14465 0,3.14465 0,0 3.14465,0 3.14465,0 0,0 0,-3.14465 0,-3.14465 0,0 -3.14465,0 -3.14465,0 z m 18.86789,0 c 0,0 0,3.14465 0,3.14465 0,0 3.14465,0 3.14465,0 0,0 0,-3.14465 0,-3.14465 0,0 -3.14465,0 -3.14465,0 z m 18.86789,0 c 0,0 0,3.14465 0,3.14465 0,0 3.14464,0 3.14464,0 0,0 0,-3.14465 0,-3.14465 0,0 -3.14464,0 -3.14464,0 z m 18.86788,0 c 0,0 0,3.14465 0,3.14465 0,0 3.14465,0 3.14465,0 0,0 0,-3.14465 0,-3.14465 0,0 -3.14465,0 -3.14465,0 z"
     inkscape:connector-curvature="0"
     style="fill:#000000;fill-opacity:1;stroke:none;stroke-width:1" />
</svg>
