<?xml version="1.0" encoding="UTF-8" standalone="no"?>
<svg
   xmlns:dc="http://purl.org/dc/elements/1.1/"
   xmlns:cc="http://creativecommons.org/ns#"
   xmlns:rdf="http://www.w3.org/1999/02/22-rdf-syntax-ns#"
   xmlns:svg="http://www.w3.org/2000/svg"
   xmlns="http://www.w3.org/2000/svg"
   xmlns:sodipodi="http://sodipodi.sourceforge.net/DTD/sodipodi-0.dtd"
   xmlns:inkscape="http://www.inkscape.org/namespaces/inkscape"
   width="100"
   height="100"
   viewBox="0 0 333.33269 333.33269"
   id="svg2"
   version="1.1"
   inkscape:version="0.91 r13725"
   sodipodi:docname="whitehouse.svg">
  <metadata
     id="metadata9">
    <rdf:RDF>
      <cc:Work
         rdf:about="">
        <dc:format>image/svg+xml</dc:format>
        <dc:type
           rdf:resource="http://purl.org/dc/dcmitype/StillImage" />
        <dc:title></dc:title>
      </cc:Work>
    </rdf:RDF>
  </metadata>
  <defs
     id="defs7" />
  <sodipodi:namedview
     pagecolor="#ffffff"
     bordercolor="#666666"
     borderopacity="1"
     objecttolerance="10"
     gridtolerance="10"
     guidetolerance="10"
     inkscape:pageopacity="0"
     inkscape:pageshadow="2"
     inkscape:window-width="1218"
     inkscape:window-height="697"
     id="namedview5"
     showgrid="false"
     units="px"
     inkscape:zoom="1.5733302"
     inkscape:cx="75.000148"
     inkscape:cy="75.000148"
     inkscape:window-x="54"
     inkscape:window-y="-8"
     inkscape:window-maximized="1"
     inkscape:current-layer="svg2" />
  <path
     id="Selection #5"
     d="m 180.95204,91.666492 c 0,0 0,14.285688 0,14.285688 0,0 -10.71427,0 -10.71427,0 0,0 0,14.99997 0,14.99997 0.0143,7.37141 0.48571,6.50713 11.42855,11.22855 0,0 26.42852,11.32854 26.42852,11.32854 5.0857,2.16429 10.11427,5.02857 15.71425,5.29999 0,0 0,-14.28568 0,-14.28568 0,0 21.42853,0 21.42853,0 0,0 0,14.28568 0,14.28568 0,0 71.42844,0 71.42844,0 0,0 0,92.85697 0,92.85697 0,0 -299.999421,0 -299.999421,0 0,0 0,-92.85697 0,-92.85697 0,0 71.428432,0 71.428432,0 0,0 0,-14.28568 0,-14.28568 0,0 21.428529,0 21.428529,0 0,0 0,14.28568 0,14.28568 5.59999,-0.27142 10.62855,-3.1357 15.71426,-5.29999 0,0 26.42852,-11.32854 26.42852,-11.32854 10.94283,-4.72142 11.41426,-3.85714 11.42855,-11.22855 0,0 0,-29.285658 0,-29.285658 0,0 17.85711,0 17.85711,0 z m -10.71427,43.092768 c -8.21427,-1.44285 -16.2214,3.47142 -23.57138,6.60713 0,0 -16.42854,7.44284 -16.42854,7.44284 0,0 49.9999,0 49.9999,0 4.60714,0 19.47853,0.62857 22.8571,-0.71428 0,0 -32.85708,-13.33569 -32.85708,-13.33569 z m -74.999856,6.90713 c 0,0 0,14.28569 0,14.28569 0,0 -71.428432,0 -71.428432,0 0,0 0,78.57128 0,78.57128 0,0 85.714118,0 85.714118,0 0,0 0,-78.57128 0,-78.57128 0,0 -7.14284,0 -7.14284,0 0,0 0,-14.28569 0,-14.28569 0,0 -7.142846,0 -7.142846,0 z m 135.714026,0 c 0,0 0,14.28569 0,14.28569 0,0 -7.14285,0 -7.14285,0 0,0 0,78.57128 0,78.57128 0,0 85.71412,0 85.71412,0 0,0 0,-78.57128 0,-78.57128 0,0 -71.42843,0 -71.42843,0 0,0 0,-14.28569 0,-14.28569 0,0 -7.14284,0 -7.14284,0 z m -114.2855,14.28569 c 0,0 0,7.14284 0,7.14284 0,0 99.99981,0 99.99981,0 0,0 0,-7.14284 0,-7.14284 0,0 -99.99981,0 -99.99981,0 z m 0,14.28568 c 0,0 0,64.2856 0,64.2856 0,0 3.57143,0 3.57143,0 0,0 0,-64.2856 0,-64.2856 0,0 -3.57143,0 -3.57143,0 z m 10.71427,0 c 0,0 0,64.2856 0,64.2856 0,0 14.28569,0 14.28569,0 0,0 0,-64.2856 0,-64.2856 0,0 -14.28569,0 -14.28569,0 z m 21.42853,0 c 0,0 0,64.2856 0,64.2856 0,0 3.57142,0 3.57142,0 0,0 0,-64.2856 0,-64.2856 0,0 -3.57142,0 -3.57142,0 z m 10.71427,0 c 0,0 0,64.2856 0,64.2856 0,0 3.57142,0 3.57142,0 0,0 0,-24.99995 0,-24.99995 0,0 7.14284,0 7.14284,0 0,0 0,24.99995 0,24.99995 0,0 3.57142,0 3.57142,0 0,0 0,-64.2856 0,-64.2856 0,0 -14.28568,0 -14.28568,0 z m 21.42853,0 c 0,0 0,64.2856 0,64.2856 0,0 3.57142,0 3.57142,0 0,0 0,-64.2856 0,-64.2856 0,0 -3.57142,0 -3.57142,0 z m 10.71426,0 c 0,0 0,64.2856 0,64.2856 0,0 14.28569,0 14.28569,0 0,0 0,-64.2856 0,-64.2856 0,0 -14.28569,0 -14.28569,0 z m 21.42853,0 c 0,0 0,64.2856 0,64.2856 0,0 3.57142,0 3.57142,0 0,0 0,-64.2856 0,-64.2856 0,0 -3.57142,0 -3.57142,0 z M 38.095169,180.95203 c 0,0 0,14.28569 0,14.28569 0,0 -7.142844,0 -7.142844,0 0,0 0,-14.28569 0,-14.28569 0,0 7.142844,0 7.142844,0 z m 21.428529,0 c 0,0 0,14.28569 0,14.28569 0,0 -7.142843,0 -7.142843,0 0,0 0,-14.28569 0,-14.28569 0,0 7.142843,0 7.142843,0 z m 21.42853,0 c 0,0 0,14.28569 0,14.28569 0,0 -7.142844,0 -7.142844,0 0,0 0,-14.28569 0,-14.28569 0,0 7.142844,0 7.142844,0 z m 21.428532,0 c 0,0 0,14.28569 0,14.28569 0,0 -7.142846,0 -7.142846,0 0,0 0,-14.28569 0,-14.28569 0,0 7.142846,0 7.142846,0 z m 35.71422,0 c 0,0 0,14.28569 0,14.28569 0,0 -7.14285,0 -7.14285,0 0,0 0,-14.28569 0,-14.28569 0,0 7.14285,0 7.14285,0 z m 32.14279,0 c 0,0 0,14.28569 0,14.28569 0,0 -7.14284,0 -7.14284,0 0,0 0,-14.28569 0,-14.28569 0,0 7.14284,0 7.14284,0 z m 32.1428,0 c 0,0 0,14.28569 0,14.28569 0,0 -7.14285,0 -7.14285,0 0,0 0,-14.28569 0,-14.28569 0,0 7.14285,0 7.14285,0 z m 35.71421,0 c 0,0 0,14.28569 0,14.28569 0,0 -7.14284,0 -7.14284,0 0,0 0,-14.28569 0,-14.28569 0,0 7.14284,0 7.14284,0 z m 21.42853,0 c 0,0 0,14.28569 0,14.28569 0,0 -7.14284,0 -7.14284,0 0,0 0,-14.28569 0,-14.28569 0,0 7.14284,0 7.14284,0 z m 21.42853,0 c 0,0 0,14.28569 0,14.28569 0,0 -7.14284,0 -7.14284,0 0,0 0,-14.28569 0,-14.28569 0,0 7.14284,0 7.14284,0 z m 21.42853,0 c 0,0 0,14.28569 0,14.28569 0,0 -7.14284,0 -7.14284,0 0,0 0,-14.28569 0,-14.28569 0,0 7.14284,0 7.14284,0 z M 38.095169,209.52341 c 0,0 0,14.28568 0,14.28568 0,0 -7.142844,0 -7.142844,0 0,0 0,-14.28568 0,-14.28568 0,0 7.142844,0 7.142844,0 z m 21.428529,0 c 0,0 0,14.28568 0,14.28568 0,0 -7.142843,0 -7.142843,0 0,0 0,-14.28568 0,-14.28568 0,0 7.142843,0 7.142843,0 z m 21.42853,0 c 0,0 0,14.28568 0,14.28568 0,0 -7.142844,0 -7.142844,0 0,0 0,-14.28568 0,-14.28568 0,0 7.142844,0 7.142844,0 z m 21.428532,0 c 0,0 0,14.28568 0,14.28568 0,0 -7.142846,0 -7.142846,0 0,0 0,-14.28568 0,-14.28568 0,0 7.142846,0 7.142846,0 z m 35.71422,0 c 0,0 0,14.28568 0,14.28568 0,0 -7.14285,0 -7.14285,0 0,0 0,-14.28568 0,-14.28568 0,0 7.14285,0 7.14285,0 z m 64.28559,0 c 0,0 0,14.28568 0,14.28568 0,0 -7.14285,0 -7.14285,0 0,0 0,-14.28568 0,-14.28568 0,0 7.14285,0 7.14285,0 z m 35.71421,0 c 0,0 0,14.28568 0,14.28568 0,0 -7.14284,0 -7.14284,0 0,0 0,-14.28568 0,-14.28568 0,0 7.14284,0 7.14284,0 z m 21.42853,0 c 0,0 0,14.28568 0,14.28568 0,0 -7.14284,0 -7.14284,0 0,0 0,-14.28568 0,-14.28568 0,0 7.14284,0 7.14284,0 z m 21.42853,0 c 0,0 0,14.28568 0,14.28568 0,0 -7.14284,0 -7.14284,0 0,0 0,-14.28568 0,-14.28568 0,0 7.14284,0 7.14284,0 z m 21.42853,0 c 0,0 0,14.28568 0,14.28568 0,0 -7.14284,0 -7.14284,0 0,0 0,-14.28568 0,-14.28568 0,0 7.14284,0 7.14284,0 z"
     inkscape:connector-curvature="0"
     style="fill:#000000;fill-opacity:1;stroke:none;stroke-width:1" />
</svg>
