<?xml version="1.0" encoding="UTF-8" standalone="no"?>
<svg
   xmlns:dc="http://purl.org/dc/elements/1.1/"
   xmlns:cc="http://creativecommons.org/ns#"
   xmlns:rdf="http://www.w3.org/1999/02/22-rdf-syntax-ns#"
   xmlns:svg="http://www.w3.org/2000/svg"
   xmlns="http://www.w3.org/2000/svg"
   xmlns:sodipodi="http://sodipodi.sourceforge.net/DTD/sodipodi-0.dtd"
   xmlns:inkscape="http://www.inkscape.org/namespaces/inkscape"
   width="100"
   height="100"
   viewBox="0 0 333.33269 333.33269"
   id="svg2"
   version="1.1"
   inkscape:version="0.91 r13725"
   sodipodi:docname="WildHorse.svg">
  <metadata
     id="metadata9">
    <rdf:RDF>
      <cc:Work
         rdf:about="">
        <dc:format>image/svg+xml</dc:format>
        <dc:type
           rdf:resource="http://purl.org/dc/dcmitype/StillImage" />
        <dc:title></dc:title>
      </cc:Work>
    </rdf:RDF>
  </metadata>
  <defs
     id="defs7" />
  <sodipodi:namedview
     pagecolor="#ffffff"
     bordercolor="#666666"
     borderopacity="1"
     objecttolerance="10"
     gridtolerance="10"
     guidetolerance="10"
     inkscape:pageopacity="0"
     inkscape:pageshadow="2"
     inkscape:window-width="1218"
     inkscape:window-height="697"
     id="namedview5"
     showgrid="false"
     units="px"
     inkscape:zoom="1.5733302"
     inkscape:cx="75.000148"
     inkscape:cy="75.000148"
     inkscape:window-x="54"
     inkscape:window-y="-8"
     inkscape:window-maximized="1"
     inkscape:current-layer="svg2" />
  <path
     id="Selection #20"
     d="m 57.460182,178.39765 c 0,0 -21.903674,34.58087 -21.903674,34.58087 0,0 -5.054694,6.62187 -5.054694,6.62187 -0.985922,1.13308 -2.244078,2.47217 -3.458087,3.36244 -3.951049,2.90627 -7.791734,2.08957 -9.483989,-2.64139 -1.191937,-3.31093 -0.860843,-10.91137 -0.816697,-14.70055 0.125079,-10.61706 4.56909,-30.92413 10.374262,-39.73122 5.650662,-8.56428 16.451668,-17.72453 24.942376,-23.52235 3.399227,-2.32501 10.285971,-6.40114 13.979503,-8.0934 0,0 8.82916,-3.89954 8.82916,-3.89954 0,0 8.093396,-6.07741 8.093396,-6.07741 6.320207,-3.92161 13.95743,-6.1289 21.337132,-6.84259 0,0 11.03645,-0.80199 11.03645,-0.80199 0,0 6.62187,0.78727 6.62187,0.78727 14.5534,0.49296 38.554,3.07549 52.2392,0 6.78373,-1.32437 16.90048,-6.71016 22.80866,-10.44784 7.88738,-4.99583 19.40208,-13.817634 25.6855,-20.564583 0,0 17.11385,-21.307706 17.11385,-21.307706 4.45873,-4.716242 13.89121,-12.110658 19.74053,-15.031639 0,0 6.62187,-2.729681 6.62187,-2.729681 5.06941,-2.258794 8.49807,-7.372349 13.9795,-8.821802 2.3618,-0.728406 4.26743,-0.235445 6.62187,0 0,0 -0.73576,3.745035 -0.73576,3.745035 2.33973,-0.551823 6.67337,-0.676903 7.49743,2.369158 0.40467,1.471526 -1.0595,4.841322 -1.38324,6.460001 -1.09629,3.649386 -1.24344,5.974393 0,9.564918 2.86212,7.269341 7.88003,16.414879 12.29461,22.808662 3.98783,5.775742 8.26998,9.005743 9.79301,16.186793 1.7364,8.159614 -3.72297,14.935994 -12.01502,15.259734 -3.76711,0.14715 -8.46863,-1.61132 -11.77221,-3.32565 0,0 -21.33714,-10.46256 -21.33714,-10.46256 -1.31701,7.04126 -7.35027,17.20215 -8.01982,32.37359 0,0 2.86948,33.84511 2.86948,33.84511 -0.0515,4.238 -0.97857,8.43921 -2.14107,12.50798 -0.5739,2.00863 -1.8762,4.59116 -1.30966,6.62187 0,0 3.98048,6.62187 3.98048,6.62187 0,0 8.80709,16.18679 8.80709,16.18679 7.3797,13.64105 14.2223,27.67206 23.05146,40.46698 0,0 16.10586,19.86561 16.10586,19.86561 3.45809,4.2895 7.74023,11.04381 -0.66955,13.12602 -1.44945,0.0809 -2.94305,0.0956 -4.41458,0 0,0 -2.94305,0 -2.94305,0 -5.52558,0.0515 -6.71016,-0.94914 -11.77221,-2.08957 2.56046,-10.65385 -5.01055,-10.58763 -9.10139,-15.58347 0,0 -4.87811,-7.96096 -4.87811,-7.96096 0,0 -10.08732,-13.9795 -10.08732,-13.9795 -2.86948,-3.99519 -5.39314,-7.89474 -9.77829,-10.30069 -1.9277,10.25654 -14.92128,16.94463 -23.54443,21.49901 -5.1062,2.69289 -8.82916,5.80517 -13.91328,1.15515 -2.99456,-2.7444 -6.68073,-8.85124 -5.62859,-13.08923 1.60396,-6.46 11.72806,-8.93217 17.33458,-7.35764 1.15515,-4.93697 4.15706,-11.58827 6.43793,-16.18679 1.59661,-3.21528 3.53902,-5.99647 1.5451,-9.54285 -1.02271,-1.83205 -2.59724,-3.02399 -4.30421,-4.17178 -6.20249,-4.17177 -11.44112,-3.53902 -18.39408,-2.14107 -14.66377,2.95041 -27.03195,9.41041 -42.67428,9.23383 -6.49679,-0.0736 -17.8349,-2.06749 -24.28019,-3.59052 0,0 -13.24373,-3.03135 -13.24373,-3.03135 3.13435,15.51725 16.93727,38.89981 27.3336,50.76767 0,0 13.86914,14.71527 13.86914,14.71527 2.14843,2.14842 6.54829,6.10683 7.54893,8.82916 2.84741,7.74758 -7.34292,9.70471 -12.69927,9.5502 -9.6385,-0.26487 -9.42513,-5.27542 -11.77222,-12.49326 -7.41649,1.7364 -12.14745,-6.84995 -16.24565,-11.77221 0,0 -16.12793,-19.86561 -16.12793,-19.86561 -2.81062,-3.50223 -6.81317,-7.82852 -8.72615,-11.77221 -1.32438,-2.70761 -3.08285,-9.40306 -3.78183,-12.50798 -3.37715,4.15706 -10.33747,17.62153 -11.94144,22.80866 0,0 -2.47952,11.03645 -2.47952,11.03645 -0.78726,3.92898 -2.28822,9.46192 -0.65483,13.24374 2.76647,6.4085 14.37682,11.33812 15.54668,19.12985 1.2508,8.32884 -10.44784,8.74822 -15.8557,7.1369 -4.039338,-1.20665 -4.708883,-6.34963 -7.151617,-9.23383 -2.737039,-3.23 -4.951687,-1.63339 -7.593077,-3.06813 -3.862757,-2.09693 -3.708247,-6.5115 -3.715605,-10.28597 0,0 0,-25.75172 0,-25.75172 0,0 -0.735763,-17.65832 -0.735763,-17.65832 0.02207,-14.62697 13.486541,-22.3157 11.176245,-34.58087 -1.832051,-9.71208 -7.857953,-10.91873 -14.089868,-16.98878 -4.105559,-3.99519 -6.643942,-9.16761 -8.122827,-14.64904 -6.746949,3.61995 -10.403693,9.96959 -14.465106,16.18679 z M 269.84562,53.362039 c -2.19994,1.103645 -3.87748,0.890274 -8.0934,3.134346 -4.70889,2.508953 -10.73479,7.328203 -14.71527,10.926086 -8.95424,8.093396 -11.72806,15.127293 -19.25492,23.419345 -8.54221,9.417774 -27.24532,22.933744 -38.87038,28.459324 -16.21622,7.70344 -26.87743,6.15098 -44.1458,6.12155 0,0 -21.33713,-1.47152 -21.33713,-1.47152 -15.03164,-0.17659 -39.745934,-1.17723 -45.293589,16.92255 -0.978566,3.19321 -1.125718,5.52558 -1.052142,8.82916 0.132438,5.65802 1.736402,14.47247 4.995833,19.12985 4.554375,6.5115 9.29269,6.74695 17.53324,17.65832 0,0 16.275088,22.0729 16.275088,22.0729 0,0 5.98911,7.35763 5.98911,7.35763 3.56845,5.42993 3.34036,10.84515 5.93761,15.45103 0,0 21.05754,26.48748 21.05754,26.48748 2.08221,2.54574 7.6078,9.78565 9.90338,11.33811 2.58253,1.7364 4.95904,0.97121 7.90945,3.6641 4.90019,4.47344 1.8247,10.3154 9.71944,9.9328 1.28022,-0.0589 2.44273,-0.35316 3.67881,-0.65482 0,0 -20.28499,-22.0729 -20.28499,-22.0729 -13.16281,-15.37746 -26.46541,-38.59079 -29.12887,-58.86107 0,0 -5.29014,-22.06554 -5.29014,-22.06554 -0.47824,-2.14107 -1.06686,-6.53358 2.46481,-6.48943 2.81797,0.0368 3.78182,4.37043 4.31893,6.48207 0,0 3.50223,13.97951 3.50223,13.97951 0.47825,1.91298 0.75048,4.34836 2.68554,5.35635 0,0 13.03772,3.20057 13.03772,3.20057 6.47472,1.59661 20.07899,4.19385 26.48748,3.92162 8.60108,-0.36052 19.62281,-3.73032 27.95901,-6.1657 11.47055,-3.35508 22.79395,-7.24726 33.84511,-0.38259 2.73704,1.70697 4.71624,3.13435 6.54094,5.84932 4.80453,7.15897 2.39859,10.11674 -0.8167,16.91519 0,0 -3.81125,8.82916 -3.81125,8.82916 -1.25816,3.13436 -2.14843,7.89474 -4.93698,9.85923 -3.17114,2.23672 -11.912,-0.8682 -13.63369,3.59053 -0.72841,1.87619 1.56718,7.12219 5.62123,6.04061 2.72968,-0.7284 16.64297,-9.50606 19.11513,-11.63241 6.00383,-5.16506 6.44529,-13.72935 7.468,-21.1017 0.63276,-4.57644 1.47888,-9.3589 1.36852,-13.9795 -0.0883,-3.37715 -2.13371,-11.24246 -4.08349,-13.91328 -2.52367,-3.45809 -10.2639,-9.03518 -14.30324,-10.87458 -2.19993,-1.00064 -11.14681,-3.14907 -8.8733,-6.86468 1.6849,-2.75911 5.0179,-1.51567 7.40178,-0.72104 9.49134,3.18585 11.1836,7.3797 17.65832,10.30068 1.67754,-5.75367 2.91362,-9.34419 2.94305,-15.45103 0,0 -2.92834,-30.90206 -2.92834,-30.90206 -0.15451,-7.56364 2.67818,-19.27699 5.13563,-26.48747 1.07421,-3.15643 4.29686,-11.463196 6.23192,-13.802924 2.25879,-2.744397 6.62187,0.478246 9.21911,1.603964 0,0 11.77221,5.47408 11.77221,5.47408 3.32565,1.81733 8.1449,4.97376 11.77222,5.70952 3.42129,0.69898 7.92417,0.58861 9.05724,-3.42865 1.55246,-5.496156 -6.34964,-13.251102 -9.30005,-17.628893 -4.17177,-6.18777 -13.39089,-22.242125 -13.70727,-29.430532 -0.13243,-2.957764 0.19866,-4.517582 0.70634,-7.357628 0,0 -9.56493,4.414579 -9.56493,4.414579 0,0 1.47153,-5.150343 1.47153,-5.150343 -3.95105,1.684898 -4.45873,2.994557 -7.35763,4.458726 z M 31.546598,171.77578 c -7.107473,13.22167 -8.181688,30.19573 -8.181688,44.88156 5.017906,-3.92162 10.388978,-12.83171 13.839708,-18.39408 0,0 20.034835,-31.63782 20.034835,-31.63782 2.052779,-2.87684 5.238635,-6.30549 8.063966,-8.42449 1.412665,-1.05214 4.00991,-2.14107 4.730958,-3.64939 0.58861,-1.23608 0.404669,-4.81189 0.419385,-6.32021 0,0 0.735763,-8.82916 0.735763,-8.82916 -13.14809,5.66538 -32.866547,19.77732 -39.642927,32.37359 z M 96.7573,210.77124 c -4.620594,9.18232 -7.225196,9.85922 -7.173692,20.60137 0,0 0.735763,11.77221 0.735763,11.77221 0,0 0,12.50798 0,12.50798 0,0 0.735763,10.30068 0.735763,10.30068 0.06622,5.79782 -0.331093,5.30486 -0.735763,10.30069 3.619955,0.0883 5.893464,0.33845 8.586358,3.09756 4.502871,4.59852 3.450731,10.4037 12.015011,8.67465 -4.15706,-8.79237 -16.039637,-10.86722 -16.054352,-23.54442 -0.01471,-8.37299 4.41458,-24.12568 8.144902,-31.63783 1.5451,-3.11227 8.54957,-15.34802 8.60107,-17.65832 0.0662,-3.00191 -7.79909,-12.63305 -10.25654,-14.71526 0,0 -4.59852,10.30069 -4.59852,10.30069 z m 164.85513,8.09339 c 0,0 0,5.68009 0,5.68009 0,0 10.43312,11.97823 10.43312,11.97823 0,0 11.28661,15.45103 11.28661,15.45103 0,0 5.37107,8.55693 5.37107,8.55693 0,0 7.47536,6.22455 7.47536,6.22455 0,0 4.95904,8.63787 4.95904,8.63787 0,0 6.96768,0.86084 6.96768,0.86084 0,0 -8.82916,-11.77221 -8.82916,-11.77221 0,0 -10.05053,-13.24374 -10.05053,-13.24374 0,0 -25.26611,-44.88156 -25.26611,-44.88156 0,0 -2.34708,12.50797 -2.34708,12.50797 z"
     inkscape:connector-curvature="0"
     style="fill:#000000;fill-opacity:1;stroke:none;stroke-width:1" />
</svg>
