<?xml version="1.0" encoding="UTF-8" standalone="no"?>
<svg
   xmlns:dc="http://purl.org/dc/elements/1.1/"
   xmlns:cc="http://creativecommons.org/ns#"
   xmlns:rdf="http://www.w3.org/1999/02/22-rdf-syntax-ns#"
   xmlns:svg="http://www.w3.org/2000/svg"
   xmlns="http://www.w3.org/2000/svg"
   xmlns:sodipodi="http://sodipodi.sourceforge.net/DTD/sodipodi-0.dtd"
   xmlns:inkscape="http://www.inkscape.org/namespaces/inkscape"
   width="100"
   height="100"
   viewBox="0 0 333.33269 333.33269"
   id="svg2"
   version="1.1"
   inkscape:version="0.91 r13725"
   sodipodi:docname="Wizard.svg"
   inkscape:export-filename="C:\Users\mbrown\Desktop\Drawings\icons\forJustin\Wizard.png"
   inkscape:export-xdpi="300"
   inkscape:export-ydpi="300">
  <metadata
     id="metadata9">
    <rdf:RDF>
      <cc:Work
         rdf:about="">
        <dc:format>image/svg+xml</dc:format>
        <dc:type
           rdf:resource="http://purl.org/dc/dcmitype/StillImage" />
        <dc:title></dc:title>
      </cc:Work>
    </rdf:RDF>
  </metadata>
  <defs
     id="defs7" />
  <sodipodi:namedview
     pagecolor="#ffffff"
     bordercolor="#666666"
     borderopacity="1"
     objecttolerance="10"
     gridtolerance="10"
     guidetolerance="10"
     inkscape:pageopacity="0"
     inkscape:pageshadow="2"
     inkscape:window-width="1218"
     inkscape:window-height="697"
     id="namedview5"
     showgrid="false"
     units="px"
     inkscape:zoom="1.5733302"
     inkscape:cx="75.000148"
     inkscape:cy="75.000148"
     inkscape:window-x="54"
     inkscape:window-y="-8"
     inkscape:window-maximized="1"
     inkscape:current-layer="svg2" />
  <path
     id="Unnamed #4"
     d="m 144.4303,71.312299 c -4.44599,-28.442305 -27.77574,-7.998774 -27.77574,-7.998774 0,0 17.1107,-35.547882 37.10764,-24.442918 19.99693,11.111631 96.20525,224.412263 96.20525,224.412263 0,0 68.65614,5.77911 66.65645,16.66411 -1.99969,10.885 -99.98467,16.66411 -149.97701,16.66411 -49.99233,0 -149.31044,-5.77911 -149.977005,-16.66411 -0.666564,-10.885 83.32056,-16.66411 83.32056,-16.66411 0,0 48.879175,-163.528265 44.439855,-191.970571 z m 12.998,111.536231 c 0,0 -6.66564,15.83091 -6.66564,15.83091 0,0 -17.89059,0.83321 -17.89059,0.83321 0,0 14.89105,11.49823 14.89105,11.49823 0,0 -2.8329,15.49763 -2.8329,15.49763 0,0 13.16465,-10.33175 13.16465,-10.33175 0,0 16.99739,10.2251 16.99739,10.2251 0,0 -8.83198,-16.94407 -8.83198,-17.39067 0,-0.43993 11.83152,-7.66549 11.83152,-7.66549 0,0 -15.16434,-3.16618 -15.16434,-3.16618 0,0 -5.49916,-15.33099 -5.49916,-15.33099 z m 48.29927,44.10658 c 0,0 -4.41933,10.33175 -4.41933,10.33175 0,0 -10.49839,-0.16665 -10.49839,-0.16665 0,0 7.25222,7.25223 7.25222,7.25223 0,0 -4.7526,12.91135 -4.7526,12.91135 0,0 10.99831,-8.2454 10.99831,-8.2454 0,0 9.41856,4.99923 9.41856,4.99923 0,0 -2.91955,-9.25191 -2.91955,-9.25191 0,0 7.99877,-5.99908 7.99877,-5.99908 0,0 -8.83198,-2.49962 -9.49854,-2.49962 -0.66657,0 -3.57945,-9.3319 -3.57945,-9.3319 z m -30.41534,-93.87228 c 0,0 -4.91258,10.74502 -4.91258,10.74502 0,0 -11.41825,-0.08 -11.41825,-0.08 0,0 7.25222,6.74563 7.25222,6.74563 0,0 -5.83244,9.5852 -5.49916,9.5852 0.33329,0 11.16496,-3.58612 11.16496,-3.58612 0,0 7.83213,7.25223 7.83213,6.91894 0,-0.33328 0.91319,-10.33175 0.91319,-10.33175 0,0 10.41841,-6.99892 10.41841,-6.99892 0,0 -11.49824,-1.9997 -11.49824,-1.9997 0,0 -4.25268,-10.99831 -4.25268,-10.99831 z"
     style="fill:#000000;fill-opacity:1;stroke:none;stroke-width:1"
     inkscape:connector-curvature="0" />
</svg>
